<svg xmlns="http://www.w3.org/2000/svg" xmlns:xlink="http://www.w3.org/1999/xlink" width="69.711" height="74.91" viewBox="0 0 69.711 74.91">
  <defs>
    <clipPath id="clip-path">
      <rect id="Rect치ngulo_403288" data-name="Rect치ngulo 403288" width="69.711" height="69.711" transform="translate(195.289 2037.645)" fill="#fff" stroke="#707070" stroke-width="1"/>
    </clipPath>
  </defs>
  <g id="Grupo_1103296" data-name="Grupo 1103296" transform="translate(-195.289 -2037.645)">
    <path id="Rect치ngulo_403287" data-name="Rect치ngulo 403287" d="M22.285,0h0A22.285,22.285,0,0,1,44.569,22.285V64a0,0,0,0,1,0,0H0a0,0,0,0,1,0,0V22.285A22.285,22.285,0,0,1,22.285,0Z" transform="translate(207.86 2043.358)" fill="#ffd839"/>
    <g id="Enmascarar_grupo_1098840" data-name="Enmascarar grupo 1098840" clip-path="url(#clip-path)">
      <g id="fecha-tope" transform="translate(195.289 2037.645)">
        <g id="Grupo_1103398" data-name="Grupo 1103398">
          <g id="Grupo_1103389" data-name="Grupo 1103389">
            <g id="Grupo_1103388" data-name="Grupo 1103388">
              <path id="Trazado_987480" data-name="Trazado 987480" d="M61.22,57.162A3.348,3.348,0,0,1,57.882,60.5H5.808A3.348,3.348,0,0,1,2.47,57.162v-46.2A3.348,3.348,0,0,1,5.808,7.624H57.882a3.348,3.348,0,0,1,3.338,3.338Z" fill="#f0eef0"/>
            </g>
          </g>
          <path id="Trazado_987481" data-name="Trazado 987481" d="M57.882,7.624H52.421a3.348,3.348,0,0,1,3.338,3.338v46.2A3.348,3.348,0,0,1,52.421,60.5h5.461a3.348,3.348,0,0,0,3.338-3.338v-46.2A3.348,3.348,0,0,0,57.882,7.624Z" fill="#dfdde0"/>
          <g id="Grupo_1103391" data-name="Grupo 1103391">
            <g id="Grupo_1103390" data-name="Grupo 1103390">
              <path id="Trazado_987482" data-name="Trazado 987482" d="M61.22,10.962a3.348,3.348,0,0,0-3.338-3.338H5.808A3.348,3.348,0,0,0,2.47,10.962v8.923H61.22Z" fill="#ff8086"/>
            </g>
          </g>
          <path id="Trazado_987483" data-name="Trazado 987483" d="M57.882,7.624H52.421a3.348,3.348,0,0,1,3.338,3.338v8.923H61.22V10.962A3.348,3.348,0,0,0,57.882,7.624Z" fill="#e5646e"/>
          <g id="Grupo_1103392" data-name="Grupo 1103392">
            <path id="Trazado_987484" data-name="Trazado 987484" d="M14.991,1.947A.992.992,0,0,0,14,2.938v8.879a.991.991,0,0,0,1.981,0V2.938A.992.992,0,0,0,14.991,1.947Z" fill="#5d5360"/>
            <path id="Trazado_987485" data-name="Trazado 987485" d="M31.842,1.947a.992.992,0,0,0-.991.991v8.879a.991.991,0,0,0,1.981,0V2.938A.992.992,0,0,0,31.842,1.947Z" fill="#5d5360"/>
            <path id="Trazado_987486" data-name="Trazado 987486" d="M48.694,1.947a.992.992,0,0,0-.991.991v8.879a.991.991,0,0,0,1.981,0V2.938A.992.992,0,0,0,48.694,1.947Z" fill="#5d5360"/>
            <path id="Trazado_987487" data-name="Trazado 987487" d="M15.981,11.818a.991.991,0,0,1-1.981,0V2.938a.991.991,0,0,1,1.981,0v8.879Z" fill="#5d5360"/>
          </g>
          <circle id="Elipse_11657" data-name="Elipse 11657" cx="3.205" cy="3.205" r="3.205" transform="translate(34.649 36.908)" fill="#9b959d"/>
          <g id="Grupo_1103397" data-name="Grupo 1103397">
            <g id="Grupo_1103393" data-name="Grupo 1103393">
              <ellipse id="Elipse_11658" data-name="Elipse 11658" cx="16.57" cy="16.567" rx="16.57" ry="16.567" transform="translate(34.049 35.676) rotate(-0.195)" fill="#ffe07d"/>
            </g>
            <path id="Trazado_987488" data-name="Trazado 987488" d="M50.617,35.622a16.682,16.682,0,0,0-2.675.225,16.568,16.568,0,0,1,0,32.683,16.567,16.567,0,1,0,2.676-32.908Z" fill="#ffd064"/>
            <g id="Grupo_1103396" data-name="Grupo 1103396">
              <g id="Grupo_1103394" data-name="Grupo 1103394">
                <ellipse id="Elipse_11659" data-name="Elipse 11659" cx="2.234" cy="2.233" rx="2.234" ry="2.233" transform="translate(48.429 60.486) rotate(-0.189)" fill="#ff8086"/>
              </g>
              <g id="Grupo_1103395" data-name="Grupo 1103395">
                <path id="Trazado_987489" data-name="Trazado 987489" d="M52.959,55.388a2.287,2.287,0,0,1-2.287,2.287h0a2.287,2.287,0,0,1-2.287-2.287V41.722a2.287,2.287,0,0,1,2.287-2.287h0a2.287,2.287,0,0,1,2.287,2.287Z" fill="#ff8086"/>
              </g>
            </g>
          </g>
          <circle id="Elipse_11660" data-name="Elipse 11660" cx="3.205" cy="3.205" r="3.205" transform="translate(9.012 25.025)" fill="#9b959d"/>
          <circle id="Elipse_11661" data-name="Elipse 11661" cx="3.205" cy="3.205" r="3.205" transform="translate(21.831 25.025)" fill="#9b959d"/>
          <circle id="Elipse_11662" data-name="Elipse 11662" cx="3.205" cy="3.205" r="3.205" transform="translate(34.649 25.025)" fill="#9b959d"/>
          <circle id="Elipse_11663" data-name="Elipse 11663" cx="3.205" cy="3.205" r="3.205" transform="translate(47.467 25.025)" fill="#9b959d"/>
          <circle id="Elipse_11664" data-name="Elipse 11664" cx="3.205" cy="3.205" r="3.205" transform="translate(9.012 36.908)" fill="#9b959d"/>
          <circle id="Elipse_11665" data-name="Elipse 11665" cx="3.205" cy="3.205" r="3.205" transform="translate(21.831 36.908)" fill="#9b959d"/>
          <circle id="Elipse_11666" data-name="Elipse 11666" cx="3.205" cy="3.205" r="3.205" transform="translate(9.012 48.792)" fill="#9b959d"/>
        </g>
        <g id="Grupo_1103399" data-name="Grupo 1103399">
          <path id="Trazado_987490" data-name="Trazado 987490" d="M12.217,32.458a4.229,4.229,0,1,0-4.229-4.229A4.233,4.233,0,0,0,12.217,32.458Zm0-6.409a2.181,2.181,0,1,1-2.181,2.181A2.183,2.183,0,0,1,12.217,26.049Z"/>
          <path id="Trazado_987491" data-name="Trazado 987491" d="M25.035,32.458a4.229,4.229,0,1,0-4.229-4.229A4.233,4.233,0,0,0,25.035,32.458Zm0-6.409a2.181,2.181,0,1,1-2.181,2.181A2.183,2.183,0,0,1,25.035,26.049Z"/>
          <path id="Trazado_987492" data-name="Trazado 987492" d="M37.854,32.458a4.229,4.229,0,1,0-4.229-4.229A4.233,4.233,0,0,0,37.854,32.458Zm0-6.409a2.181,2.181,0,1,1-2.181,2.181A2.183,2.183,0,0,1,37.854,26.049Z"/>
          <path id="Trazado_987493" data-name="Trazado 987493" d="M54.9,28.229a4.229,4.229,0,1,0-4.229,4.229A4.233,4.233,0,0,0,54.9,28.229Zm-6.409,0a2.181,2.181,0,1,1,2.181,2.181A2.183,2.183,0,0,1,48.491,28.229Z"/>
          <path id="Trazado_987494" data-name="Trazado 987494" d="M12.217,44.341a4.229,4.229,0,1,0-4.229-4.229A4.233,4.233,0,0,0,12.217,44.341Zm0-6.409a2.181,2.181,0,1,1-2.181,2.181A2.183,2.183,0,0,1,12.217,37.932Z"/>
          <path id="Trazado_987495" data-name="Trazado 987495" d="M25.035,44.341a4.229,4.229,0,1,0-4.229-4.229A4.233,4.233,0,0,0,25.035,44.341Zm0-6.409a2.181,2.181,0,1,1-2.181,2.181A2.183,2.183,0,0,1,25.035,37.932Z"/>
          <path id="Trazado_987496" data-name="Trazado 987496" d="M12.217,56.225A4.229,4.229,0,1,0,7.988,52,4.233,4.233,0,0,0,12.217,56.225Zm0-6.409A2.181,2.181,0,1,1,10.036,52,2.183,2.183,0,0,1,12.217,49.816Z"/>
          <path id="Trazado_987497" data-name="Trazado 987497" d="M20.84,56.192a1.034,1.034,0,0,0,1.448,0l2.748-2.748,2.748,2.748a1.024,1.024,0,0,0,1.448-1.448L26.483,52l2.748-2.748A1.024,1.024,0,0,0,27.783,47.8l-2.748,2.748L22.288,47.8a1.024,1.024,0,0,0-1.448,1.448L23.587,52,20.84,54.744A1.024,1.024,0,0,0,20.84,56.192Z"/>
          <path id="Trazado_987498" data-name="Trazado 987498" d="M67.218,46.128a1.025,1.025,0,0,0-1.925.7,15.5,15.5,0,0,1,.925,5.243A15.726,15.726,0,0,1,50.671,67.663,15.542,15.542,0,1,1,62.96,42.6a1.025,1.025,0,0,0,1.618-1.256,17.87,17.87,0,0,0-2.334-2.479V10.895a4.367,4.367,0,0,0-4.362-4.362h-6.15V2.938c0-3.912-6.077-3.923-6.077,0V6.533H34.881V2.938c0-3.912-6.077-3.923-6.077,0V6.533H18.029V2.938c0-3.912-6.077-3.923-6.077,0V6.533H5.808a4.367,4.367,0,0,0-4.362,4.362V47.434a1.025,1.025,0,0,0,2.048,0V20.841H60.2V37.318A17.756,17.756,0,0,0,45.05,35.444a17.431,17.431,0,0,0-3.976,1.929,4.228,4.228,0,0,0-7.449,2.74,4.249,4.249,0,0,0,1.7,3.388,17.71,17.71,0,0,0-.667,15.907H5.808a2.317,2.317,0,0,1-2.314-2.314V52.485a1.025,1.025,0,0,0-2.048,0v4.609a4.367,4.367,0,0,0,4.362,4.362H35.767A17.593,17.593,0,0,0,67.218,46.128ZM47.7,2.938a.991.991,0,0,1,1.981,0v8.879a.991.991,0,0,1-1.981,0Zm-16.852,0a.991.991,0,0,1,1.981,0v8.879a.991.991,0,0,1-1.981,0ZM14,2.938a.991.991,0,0,1,1.981,0v8.879a.991.991,0,0,1-1.981,0ZM3.494,18.793v-7.9A2.317,2.317,0,0,1,5.808,8.58h6.144v3.237c0,3.912,6.077,3.923,6.077,0V8.58H28.8v3.237c0,3.919,6.077,3.919,6.077,0V8.58H45.655v3.237c0,3.912,6.077,3.923,6.077,0V8.58h6.15A2.317,2.317,0,0,1,60.2,10.895v7.9H3.494Zm32.179,21.32A2.181,2.181,0,0,1,39.421,38.6a17.888,17.888,0,0,0-2.98,3.176A2.191,2.191,0,0,1,35.673,40.113Z"/>
          <path id="Trazado_987499" data-name="Trazado 987499" d="M50.661,59.385a3.257,3.257,0,0,0,.01,6.514h.011a3.257,3.257,0,1,0-.022-6.514Zm1.221,3.253a1.209,1.209,0,0,1-1.206,1.213h0a1.209,1.209,0,0,1,0-2.418h0a1.209,1.209,0,0,1,1.209,1.205Z"/>
          <path id="Trazado_987500" data-name="Trazado 987500" d="M53.983,41.654a3.311,3.311,0,1,0-6.623,0V55.32a3.311,3.311,0,1,0,6.623,0ZM51.935,55.32a1.263,1.263,0,1,1-2.527,0V41.654a1.263,1.263,0,1,1,2.527,0Z"/>
        </g>
      </g>
    </g>
    <path id="Trazado_952692" data-name="Trazado 952692" d="M30.3,147.506s-.193,4.741-3.985,5.192c0,0,4.07,1.215,4.519,5.206,0,0,1.018-4.837,3.753-5.233,0,0-3.171-.634-4.287-5.166" transform="translate(185.833 1954.65)" fill="#6b0b0c"/>
  </g>
</svg>
