<svg xmlns="http://www.w3.org/2000/svg" xmlns:xlink="http://www.w3.org/1999/xlink" width="60" height="60" viewBox="0 0 60 60">
  <defs>
    <clipPath id="clip-path">
      <rect id="Rectángulo_403511" data-name="Rectángulo 403511" width="60" height="60" transform="translate(1187 3113.268)" fill="#fff" stroke="#707070" stroke-width="1"/>
    </clipPath>
  </defs>
  <g id="Enmascarar_grupo_1098808" data-name="Enmascarar grupo 1098808" transform="translate(-1187 -3113.268)" clip-path="url(#clip-path)">
    <g id="campesino" transform="translate(1187 3113.268)">
      <path id="Trazado_983437" data-name="Trazado 983437" d="M54.27,17.015H51.68V10.394l-1.964.657A28.712,28.712,0,0,0,4.42,45.53l36.474,1.3L58.037,30A28.551,28.551,0,0,0,54.27,17.015Z" fill="#b66651"/>
      <path id="Trazado_983438" data-name="Trazado 983438" d="M14.486,9.536l-.041.156,11.064.887V0C20.19,0,15.9,4.054,14.486,9.536Z" fill="#ffc242"/>
      <path id="Trazado_983439" data-name="Trazado 983439" d="M36.532,9.536C35.123,4.075,30.848,0,25.509,0a6.816,6.816,0,0,0-1.114,8.765l-.01.009,5.908,2.313,6.28-1.4-.041-.156Z" fill="#fef156"/>
      <path id="Trazado_983440" data-name="Trazado 983440" d="M24.385,8.775a60.271,60.271,0,0,0-9.94.917c-.573,2.2-1.154,3.975-1.615,5.252H25.781Z" fill="#fea53d"/>
      <path id="Trazado_983441" data-name="Trazado 983441" d="M36.573,9.692a63.25,63.25,0,0,0-12.188-.917,3.761,3.761,0,0,0-.094,5.1l8.463,2.236,5.434-1.167c-.46-1.277-1.042-3.054-1.615-5.252Z" fill="#ffc242"/>
      <path id="Trazado_983442" data-name="Trazado 983442" d="M24.291,13.875c-9.984.141-17.888,2-17.888,4.27,0,2.225,7.583,4.053,17.277,4.26l3.39-3.28Z" fill="#ffc242"/>
      <path id="Trazado_983443" data-name="Trazado 983443" d="M25.509,13.866q-.614,0-1.218.009c-.037.015-2.912,1.157-.611,2.773v5.757q.9.019,1.829.02c10.552,0,19.106-1.916,19.106-4.279s-8.554-4.279-19.106-4.279Z" fill="#fef156"/>
      <path id="Trazado_983444" data-name="Trazado 983444" d="M21.115,16.7a64.466,64.466,0,0,0-6.612.44.851.851,0,0,0-.725.806,27.573,27.573,0,0,0,.146,4.147,24.716,24.716,0,0,1,.144,2.607v.263c0,3.051-2.339,3.356-3.967,8.544a7.221,7.221,0,0,0,.289,4.886s9.825,2.384,12.291-3.908S21.115,16.7,21.115,16.7Z" fill="#45304c"/>
      <path id="Trazado_983445" data-name="Trazado 983445" d="M36.243,24.6a21.792,21.792,0,0,0,.512-6.755.846.846,0,0,0-.746-.772c-.961-.115-2.268-.214-3.815-.287L30.311,31.556,36.6,30A8.845,8.845,0,0,1,36.243,24.6Z" fill="#6c5475"/>
      <path id="Trazado_983446" data-name="Trazado 983446" d="M35.487,18.736a1.818,1.818,0,0,0-1.959.041l-1.654,2.306,1.683,3.105a1.506,1.506,0,0,0,1.654-1.442,3.335,3.335,0,0,1,.2-.817c.331-.879,1.022-2.272.079-3.194Z" fill="#ffaa7b"/>
      <path id="Trazado_983447" data-name="Trazado 983447" d="M45.378,13.011a1.006,1.006,0,0,0-.828.828,4.676,4.676,0,0,0,5.372,5.372,1.006,1.006,0,0,0,.828-.828,4.676,4.676,0,0,0-5.372-5.372Z" fill="#00b7a0"/>
      <path id="Trazado_983448" data-name="Trazado 983448" d="M58.466,13.011a1.006,1.006,0,0,1,.828.828,4.676,4.676,0,0,1-5.372,5.372,1.006,1.006,0,0,1-.828-.828,4.676,4.676,0,0,1,5.372-5.372Z" fill="#baee63"/>
      <path id="Trazado_983449" data-name="Trazado 983449" d="M47.063,20.132a1.009,1.009,0,0,0-.9.9,3.6,3.6,0,0,0,3.935,3.936,1.009,1.009,0,0,0,.9-.9,3.6,3.6,0,0,0-3.935-3.936Z" fill="#00b7a0"/>
      <path id="Trazado_983450" data-name="Trazado 983450" d="M56.782,20.132a1.009,1.009,0,0,1,.9.9,3.6,3.6,0,0,1-3.936,3.936,1.01,1.01,0,0,1-.9-.9,3.6,3.6,0,0,1,3.936-3.936Z" fill="#95db76"/>
      <path id="Trazado_983451" data-name="Trazado 983451" d="M51.337,5.81a1.022,1.022,0,0,1,1.171,0,5.132,5.132,0,0,1,0,8.418,1.022,1.022,0,0,1-1.171,0,5.132,5.132,0,0,1,0-8.418Z" fill="#95db76"/>
      <path id="Trazado_983452" data-name="Trazado 983452" d="M51.923,13.649a1.358,1.358,0,0,0-1.358,1.358v9.668a1.358,1.358,0,1,0,2.715,0V15.007a1.358,1.358,0,0,0-1.358-1.358Z" fill="#3ecd8d"/>
      <path id="Trazado_983453" data-name="Trazado 983453" d="M13.963,37.552l0-.01c-1.708.484-3.049.729-3.049.729a7.743,7.743,0,0,0-5.509,4.2A12.69,12.69,0,0,0,4.42,45.53a28.859,28.859,0,0,0,8.724,9.458l7.6-9.467Z" fill="#00b7a0"/>
      <path id="Trazado_983454" data-name="Trazado 983454" d="M36.821,45.7l-10.2-2.774c-.368.034-.739.051-1.114.051s-.746-.018-1.114-.051c-.008.017-.015.034-.023.051-.023.051-3.3,1.5-3.3,1.5H17.762c-1.807.621-4.617,2.158-4.617,5.71v4.8a28.743,28.743,0,0,0,27.749,2.6C45.26,50.83,36.821,45.7,36.821,45.7Z" fill="#3ecd8d"/>
      <path id="Trazado_983455" data-name="Trazado 983455" d="M23.6,31.556l-2.52.707v.545a3.149,3.149,0,0,1-1.617,2.4s1.922,8.385,4.544,7.039,3.5-7.268,3.5-7.268Z" fill="#fc9460"/>
      <path id="Trazado_983456" data-name="Trazado 983456" d="M30.772,31.442c-2.333,0-4.877,3-4.877,3-.027,1.532-.243,4.954-1.578,6.774l-.308.907.386.8c.368.034.739.051,1.114.051s.746-.018,1.114-.051c5.861-2.5,4.149-11.481,4.149-11.481Z" fill="#ffaa7b"/>
      <path id="Trazado_983457" data-name="Trazado 983457" d="M17.5,34.476l-3.026,1.841a1.127,1.127,0,0,0-.508,1.236c1.23,4.922,4.6,8.579,6.984,8.579,1.538,0,2.731-1.779,3.425-3.157a1.844,1.844,0,0,0-.588-2.339A13.544,13.544,0,0,1,19.4,35.069a1.33,1.33,0,0,0-1.908-.594Z" fill="#95db76"/>
      <path id="Trazado_983458" data-name="Trazado 983458" d="M29.378,38.663a11.463,11.463,0,0,1-2.143,1.972,1.844,1.844,0,0,0-.588,2.339c.586,1.164,1.527,2.612,2.732,3.036l2.165-3.767Z" fill="#95db76"/>
      <path id="Trazado_983459" data-name="Trazado 983459" d="M27.52,22.148l-3.84-5.5c-.889.01-1.749.026-2.565.049-.468,2.326-.92,4.987-3.732,7.129a.48.48,0,0,0-.176.493,21.81,21.81,0,0,0,2.273,5.905A9.612,9.612,0,0,0,24.008,34.2a3.434,3.434,0,0,0,2.717,0,9.842,9.842,0,0,0,2.655-1.69Z" fill="#ffaa7b"/>
      <path id="Trazado_983460" data-name="Trazado 983460" d="M33.511,18.719c-.3-1.055-.127-.746-1.314-1.933l0,0c-1.924-.092-4.219-.145-6.685-.145q-.933,0-1.829.01c-.212,2.826-.419,12.2,5.7,15.863h0a9.471,9.471,0,0,0,1.873-2.289,22.161,22.161,0,0,0,2.363-6.28A13.368,13.368,0,0,0,33.511,18.719Z" fill="#ffc7ab"/>
      <g id="Grupo_1103065" data-name="Grupo 1103065">
        <g id="Grupo_1103064" data-name="Grupo 1103064">
          <path id="Trazado_983461" data-name="Trazado 983461" d="M20.01,20.711c-.8.766.357,1.939,1.188,1.2a.835.835,0,0,1,1.1,0c.83.734,1.993-.437,1.188-1.2a2.53,2.53,0,0,0-3.477,0Z" fill="#ea7e42"/>
        </g>
      </g>
      <g id="Grupo_1103067" data-name="Grupo 1103067">
        <g id="Grupo_1103066" data-name="Grupo 1103066">
          <path id="Trazado_983462" data-name="Trazado 983462" d="M27.531,20.711c-.8.766.357,1.939,1.188,1.2a.835.835,0,0,1,1.1,0c.83.734,1.993-.437,1.188-1.2a2.53,2.53,0,0,0-3.477,0Z" fill="#ea7e42"/>
        </g>
      </g>
      <path id="Trazado_983463" data-name="Trazado 983463" d="M23.813,26.32c-.65,0-1.141.419-1.034.878a2.946,2.946,0,0,0,2.729,2.444A2.946,2.946,0,0,0,28.238,27.2c.107-.459-.383-.878-1.034-.878Z" fill="#fe3d97"/>
      <path id="Trazado_983464" data-name="Trazado 983464" d="M42.656,30H31a1.623,1.623,0,0,0-1.618,1.618V52.866A1.623,1.623,0,0,0,31,54.485h9.9l7.095-12.242Z" fill="#ade9f7"/>
      <path id="Trazado_983465" data-name="Trazado 983465" d="M58.037,30H42.656s-5.324,6.159.414,11.016l2.105,5.249,5.569,4.173a28.6,28.6,0,0,0,7.322-19.149c0-.432-.011-.861-.03-1.289Z" fill="#e8f8fc"/>
      <path id="Trazado_983466" data-name="Trazado 983466" d="M50.745,46.825v3.614a28.784,28.784,0,0,1-9.851,7.146V46.825l4.926-1.816Z" fill="#2a428b"/>
      <path id="Trazado_983467" data-name="Trazado 983467" d="M48.568,41.016h-5.5a2.177,2.177,0,0,0-2.177,2.177v3.632A2.177,2.177,0,0,0,43.071,49h5.5a2.177,2.177,0,0,0,2.177-2.177V43.193A2.177,2.177,0,0,0,48.568,41.016Z" fill="#3f57a0"/>
    </g>
  </g>
</svg>
