<svg xmlns="http://www.w3.org/2000/svg" xmlns:xlink="http://www.w3.org/1999/xlink" width="60" height="60" viewBox="0 0 60 60">
  <defs>
    <clipPath id="clip-path">
      <rect id="Rectángulo_403510" data-name="Rectángulo 403510" width="60" height="60" transform="translate(770 3180.268)" fill="#fff" stroke="#707070" stroke-width="1"/>
    </clipPath>
  </defs>
  <g id="Enmascarar_grupo_1098802" data-name="Enmascarar grupo 1098802" transform="translate(-770 -3180.268)" clip-path="url(#clip-path)">
    <g id="trabajo-en-equipo" transform="translate(770 3180.268)">
      <path id="Trazado_983107" data-name="Trazado 983107" d="M60,30A29.98,29.98,0,0,1,39.1,58.594a29.4,29.4,0,0,1-4.325,1.027l-.02,0q-1.09.174-2.2.268-.238.02-.477.037c-.224.015-.45.028-.676.038Q30.7,60,30,60q-.72,0-1.43-.034-.321-.014-.643-.038c-.16-.011-.32-.022-.479-.035q-1.141-.1-2.256-.277c-.355-.058-.709-.12-1.059-.19a29.631,29.631,0,0,1-4.423-1.238q-1.24-.452-2.427-1.009-.4-.19-.8-.393-1.024-.518-2-1.112A30,30,0,1,1,60,30Zm0,0" fill="#ffe152"/>
      <path id="Trazado_983108" data-name="Trazado 983108" d="M24.132,38.931V59.425a29.632,29.632,0,0,1-4.423-1.238q-1.24-.452-2.427-1.009-.4-.19-.8-.393-1.024-.518-2-1.112a30.087,30.087,0,0,1-11.9-13.5V38.931A8.132,8.132,0,0,1,8.6,31.078c.127-.034.255-.066.385-.093a7.853,7.853,0,0,1,1.058-.157c.219-.017.441-.027.665-.027H16a8.083,8.083,0,0,1,1.724.184l.1.021c.093.021.188.044.279.069l.007,0a8.14,8.14,0,0,1,6.026,7.855Zm0,0" fill="#2ba1cf"/>
      <path id="Trazado_983109" data-name="Trazado 983109" d="M24.132,38.931V59.425a29.632,29.632,0,0,1-4.423-1.238q-1.24-.452-2.427-1.009-.4-.19-.8-.393-1.024-.518-2-1.112a30.157,30.157,0,0,1-8.414-7.588V38.931a8.132,8.132,0,0,1,6.023-7.854c.128-.034.255-.066.385-.093a7.875,7.875,0,0,1,1.058-.157c.219-.017.441-.027.665-.027H16a8.083,8.083,0,0,1,1.724.184l.1.021c.093.021.188.044.279.069l.007,0a8.14,8.14,0,0,1,6.026,7.855Zm0,0" fill="#66baed"/>
      <path id="Trazado_983110" data-name="Trazado 983110" d="M18.127,30.984l-.019.092L15.675,42.39a2.366,2.366,0,0,1-2.3,1.876h-.041a2.366,2.366,0,0,1-2.3-1.876L8.6,31.077l-.019-.093Zm0,0" fill="#f2f0ec"/>
      <path id="Trazado_983111" data-name="Trazado 983111" d="M13.352,34.129,9.692,36.164l-1.113-5.18,2.275-1.339" fill="#d8d5d0"/>
      <path id="Trazado_983112" data-name="Trazado 983112" d="M13.352,34.129l3.661,2.034,1.113-5.18-2.275-1.339" fill="#d8d5d0"/>
      <path id="Trazado_983113" data-name="Trazado 983113" d="M2.423,28.841V16.578a10.93,10.93,0,1,1,21.861,0V28.841" fill="#cc7a3b"/>
      <path id="Trazado_983114" data-name="Trazado 983114" d="M6.919,17.057c0,4.337,2.54,9.355,3.935,11.784H2.422V16.578A10.924,10.924,0,0,1,13.273,5.648c-3.36.084-6.354,5.475-6.354,11.409Zm0,0" fill="#a35418"/>
      <path id="Trazado_983115" data-name="Trazado 983115" d="M16.254,27.668v3.56a2.9,2.9,0,0,1-5.8,0v-3.56Zm0,0" fill="#eab599"/>
      <path id="Trazado_983116" data-name="Trazado 983116" d="M16.254,31v.226A2.9,2.9,0,0,1,14.211,34a2.9,2.9,0,0,1-2.019-2.393q.29.018.584.018A10.021,10.021,0,0,0,16.254,31Zm0,0" fill="#f6caae"/>
      <path id="Trazado_983117" data-name="Trazado 983117" d="M5.4,21.834A2.7,2.7,0,1,1,3.13,19.171,2.7,2.7,0,0,1,5.4,21.834Zm0,0" fill="#f6caae"/>
      <path id="Trazado_983118" data-name="Trazado 983118" d="M5.4,21.834A2.7,2.7,0,0,1,3.13,24.5a10.085,10.085,0,0,1,0-5.326A2.7,2.7,0,0,1,5.4,21.834Zm0,0" fill="#eab599"/>
      <path id="Trazado_983119" data-name="Trazado 983119" d="M3.662,21.834A.964.964,0,1,1,2.7,20.87.964.964,0,0,1,3.662,21.834Zm0,0" fill="#eab599"/>
      <path id="Trazado_983120" data-name="Trazado 983120" d="M20.28,18.389v9.273a10,10,0,0,1-5.316,2.645l-.049.008a9.912,9.912,0,0,1-1.562.121A10.037,10.037,0,0,1,3.316,20.4V16.578a10.115,10.115,0,0,1,.1-1.441,6.361,6.361,0,0,0,7.994-.514,5.685,5.685,0,0,0,1.508-2.357A6.624,6.624,0,0,0,14.993,16.4a7.408,7.408,0,0,0,5.288,1.989Zm0,0" fill="#eab599"/>
      <path id="Trazado_983121" data-name="Trazado 983121" d="M20.28,18.389v9.273a10,10,0,0,1-5.316,2.645l-.049.008A10.039,10.039,0,0,1,6.442,20.4V16.578q0-.152.005-.3a6.29,6.29,0,0,0,4.965-1.653,5.683,5.683,0,0,0,1.508-2.357A6.624,6.624,0,0,0,14.993,16.4a7.408,7.408,0,0,0,5.288,1.989Zm0,0" fill="#f6caae"/>
      <path id="Trazado_983122" data-name="Trazado 983122" d="M18.744,19.553a1.667,1.667,0,0,0-3.334,0" fill="#eab599"/>
      <path id="Trazado_983123" data-name="Trazado 983123" d="M11.3,19.553a1.667,1.667,0,1,0-3.334,0" fill="#eab599"/>
      <path id="Trazado_983124" data-name="Trazado 983124" d="M10.77,20.262a1.139,1.139,0,1,1-1.139-1.138A1.139,1.139,0,0,1,10.77,20.262Zm0,0" fill="#3d4159"/>
      <path id="Trazado_983125" data-name="Trazado 983125" d="M18.215,20.262a1.138,1.138,0,1,1-1.138-1.138A1.139,1.139,0,0,1,18.215,20.262Zm0,0" fill="#3d4159"/>
      <path id="Trazado_983126" data-name="Trazado 983126" d="M14.493,23.129H12.215a.491.491,0,1,1,0-.982h2.277a.491.491,0,0,1,0,.982Zm0,0" fill="#eab599"/>
      <path id="Trazado_983127" data-name="Trazado 983127" d="M13.354,26.237a5.07,5.07,0,0,1-2.447-.632.446.446,0,1,1,.43-.782,4.166,4.166,0,0,0,4.034,0,.446.446,0,1,1,.43.782,5.07,5.07,0,0,1-2.447.632Zm0,0" fill="#eab599"/>
      <path id="Trazado_983128" data-name="Trazado 983128" d="M10.538,20.061a.488.488,0,1,1-.488-.488A.488.488,0,0,1,10.538,20.061Zm0,0" fill="#fff"/>
      <path id="Trazado_983129" data-name="Trazado 983129" d="M18.039,20.061a.488.488,0,1,1-.488-.488A.488.488,0,0,1,18.039,20.061Zm0,0" fill="#fff"/>
      <path id="Trazado_983130" data-name="Trazado 983130" d="M20.185,23.036a1.25,1.25,0,1,1-1.251-1.251A1.25,1.25,0,0,1,20.185,23.036Zm0,0" fill="#eab599"/>
      <path id="Trazado_983131" data-name="Trazado 983131" d="M9.022,23.036a1.25,1.25,0,1,1-1.25-1.251A1.25,1.25,0,0,1,9.022,23.036Zm0,0" fill="#eab599"/>
      <path id="Trazado_983132" data-name="Trazado 983132" d="M57.307,38.684V42.44A30.119,30.119,0,0,1,42.716,57.18a29.94,29.94,0,0,1-7.944,2.441l-.02,0V38.684a8.5,8.5,0,0,1,7.811-8.477c.23-.02.461-.028.7-.028H48.8a8.493,8.493,0,0,1,8.509,8.505Zm0,0" fill="#bfd5de"/>
      <path id="Trazado_983133" data-name="Trazado 983133" d="M57.307,38.684V42.44A30.119,30.119,0,0,1,42.716,57.18a29.691,29.691,0,0,1-3.62,1.414V38.684A8.507,8.507,0,0,1,47.6,30.179H48.8a8.506,8.506,0,0,1,8.508,8.505Zm0,0" fill="#dde8ed"/>
      <path id="Trazado_983134" data-name="Trazado 983134" d="M37.7,20.8a2.821,2.821,0,1,1-2.37-2.786A2.822,2.822,0,0,1,37.7,20.8Zm0,0" fill="#d3a489"/>
      <path id="Trazado_983135" data-name="Trazado 983135" d="M48.313,33.247,46.029,36.91l-2.284-3.663" fill="#f74f4f"/>
      <path id="Trazado_983136" data-name="Trazado 983136" d="M49.1,47.258l-3.073,3.877-3.073-3.877,3.073-11.3Zm0,0" fill="#f74f4f"/>
      <path id="Trazado_983137" data-name="Trazado 983137" d="M37.7,20.8a2.822,2.822,0,0,1-2.37,2.786,10.554,10.554,0,0,1,0-5.573A2.823,2.823,0,0,1,37.7,20.8Zm0,0" fill="#bf8e75"/>
      <path id="Trazado_983138" data-name="Trazado 983138" d="M35.89,20.8a1.009,1.009,0,1,1-1.009-1.008A1.009,1.009,0,0,1,35.89,20.8Zm0,0" fill="#bf8e75"/>
      <path id="Trazado_983139" data-name="Trazado 983139" d="M46.028,33.661,42.2,35.789,41.034,30.37l2.379-1.4" fill="#bfd5de"/>
      <path id="Trazado_983140" data-name="Trazado 983140" d="M46.028,33.661l3.83,2.129,1.165-5.419-2.38-1.4" fill="#bfd5de"/>
      <path id="Trazado_983141" data-name="Trazado 983141" d="M54.355,20.8a2.821,2.821,0,1,0,2.37-2.786,2.822,2.822,0,0,0-2.37,2.786Zm0,0" fill="#d3a489"/>
      <g id="Grupo_1103054" data-name="Grupo 1103054">
        <path id="Trazado_983142" data-name="Trazado 983142" d="M54.355,20.8a2.822,2.822,0,0,0,2.37,2.786,10.554,10.554,0,0,0,0-5.573A2.823,2.823,0,0,0,54.355,20.8Zm0,0" fill="#bf8e75"/>
        <path id="Trazado_983143" data-name="Trazado 983143" d="M58.186,20.8a1.009,1.009,0,1,1-1.009-1.008A1.009,1.009,0,0,1,58.186,20.8Zm0,0" fill="#bf8e75"/>
        <path id="Trazado_983144" data-name="Trazado 983144" d="M56.531,19.3a10.5,10.5,0,0,1-8.817,10.366,10.374,10.374,0,0,1-1.685.135,10.5,10.5,0,0,1-10.5-10.5c0-2.744.953-6.864,2.677-8.735,1.919-2.083,4.769-1.767,7.825-1.767a10.378,10.378,0,0,1,1.685.136A10.5,10.5,0,0,1,56.531,19.3Zm0,0" fill="#bf8e75"/>
        <path id="Trazado_983145" data-name="Trazado 983145" d="M49.064,26.9v3.725a3.035,3.035,0,0,1-6.07,0V26.9Zm0,0" fill="#bf8e75"/>
      </g>
      <path id="Trazado_983146" data-name="Trazado 983146" d="M49.064,30.39v.236a3.034,3.034,0,0,1-2.138,2.9,3.034,3.034,0,0,1-2.113-2.5q.3.019.612.019a10.434,10.434,0,0,0,1.685-.135,10.326,10.326,0,0,0,1.953-.515Zm0,0" fill="#d3a489"/>
      <path id="Trazado_983147" data-name="Trazado 983147" d="M56.531,19.3a10.5,10.5,0,0,1-8.817,10.366,10.5,10.5,0,0,1,0-20.733,10.505,10.505,0,0,1,8.765,9.319q.051.517.052,1.047Zm0,0" fill="#d3a489"/>
      <path id="Trazado_983148" data-name="Trazado 983148" d="M46.029,24.469a5.3,5.3,0,0,1-2.56-.661.467.467,0,1,1,.45-.818,4.362,4.362,0,0,0,4.221,0,.467.467,0,0,1,.45.818,5.307,5.307,0,0,1-2.56.661Zm0,0" fill="#bf8e75"/>
      <path id="Trazado_983149" data-name="Trazado 983149" d="M43.793,18.685A1.191,1.191,0,1,1,42.6,17.494,1.191,1.191,0,0,1,43.793,18.685Zm0,0" fill="#3d4159"/>
      <path id="Trazado_983150" data-name="Trazado 983150" d="M50.648,18.685a1.191,1.191,0,1,1-1.191-1.192A1.191,1.191,0,0,1,50.648,18.685Zm0,0" fill="#3d4159"/>
      <path id="Trazado_983151" data-name="Trazado 983151" d="M43.55,18.475a.51.51,0,1,1-.51-.51A.511.511,0,0,1,43.55,18.475Zm0,0" fill="#fff"/>
      <path id="Trazado_983152" data-name="Trazado 983152" d="M50.464,18.475a.51.51,0,1,1-.51-.51A.511.511,0,0,1,50.464,18.475Zm0,0" fill="#fff"/>
      <path id="Trazado_983153" data-name="Trazado 983153" d="M47.22,21.685H44.838a.514.514,0,1,1,0-1.028H47.22a.514.514,0,1,1,0,1.028Zm0,0" fill="#bf8e75"/>
      <path id="Trazado_983154" data-name="Trazado 983154" d="M49.487,38.405h4.578v1.4H49.487Zm0,0" fill="#bfd5de"/>
      <path id="Trazado_983155" data-name="Trazado 983155" d="M45.415,5.795a6.365,6.365,0,0,1,5.9,6.032l.03.607h1.83l.986,6.554,2.387-.739-.32-6.422a6.365,6.365,0,0,0-6.381-6.049Zm0,0" fill="#2a2f4f"/>
      <path id="Trazado_983156" data-name="Trazado 983156" d="M56.022,3.26a6.487,6.487,0,1,1-9.174,9.174Zm0,0" fill="#3d4159"/>
      <path id="Trazado_983157" data-name="Trazado 983157" d="M46.848,12.434H38.887L37.9,18.989l-2.387-.739.32-6.423a6.366,6.366,0,0,1,6.382-6.049l11.5.043,1.52,2.736" fill="#3d4159"/>
      <path id="Trazado_983158" data-name="Trazado 983158" d="M46.644,5.795a6.365,6.365,0,0,0-5.9,6.032l-.03.607h-1.83L37.9,18.988l-2.387-.739.32-6.422a6.365,6.365,0,0,1,6.381-6.049Zm0,0" fill="#2a2f4f"/>
      <path id="Trazado_983159" data-name="Trazado 983159" d="M42.716,54.931V57.18a30.079,30.079,0,0,1-25.434,0V54.931a9.594,9.594,0,0,1,7.107-9.267c.15-.04.3-.077.453-.11a9.484,9.484,0,0,1,1.248-.184c.26-.021.52-.032.785-.032h6.247a9.616,9.616,0,0,1,2.035.216c.038.007.076.016.113.025.11.026.22.053.329.082l.009,0a9.6,9.6,0,0,1,7.108,9.268Zm0,0" fill="#3d4159"/>
      <path id="Trazado_983160" data-name="Trazado 983160" d="M35.631,45.553l-.023.109-3.06,14.23q-.238.02-.477.037c-.224.015-.45.028-.676.038Q30.7,60,30,60q-.72,0-1.43-.034-.321-.014-.643-.038c-.16-.011-.32-.022-.479-.035L24.389,45.664l-.023-.11Zm0,0" fill="#66baed"/>
      <path id="Trazado_983161" data-name="Trazado 983161" d="M32.574,48.8,30,52.929,27.424,48.8" fill="#3d4159"/>
      <path id="Trazado_983162" data-name="Trazado 983162" d="M32.072,59.929c-.224.015-.45.028-.676.038Q30.7,60,30,60q-.72,0-1.43-.034-.321-.014-.643-.038L30,51.854Zm0,0" fill="#3d4159"/>
      <path id="Trazado_983163" data-name="Trazado 983163" d="M30,49.265l-4.319,2.4-1.314-6.111,2.683-1.581" fill="#2ba1cf"/>
      <path id="Trazado_983164" data-name="Trazado 983164" d="M30,49.265l4.319,2.4,1.314-6.111-2.683-1.581" fill="#2ba1cf"/>
      <path id="Trazado_983165" data-name="Trazado 983165" d="M35.794,53.8h1.37l-2.393,5.821a29.813,29.813,0,0,1-3.376.346L35.6,45.66l.032-.107,2.955.965Zm0,0" fill="#2a2f4f"/>
      <path id="Trazado_983166" data-name="Trazado 983166" d="M28.57,59.966a29.717,29.717,0,0,1-3.378-.35L22.8,53.8h1.37l-2.793-7.282,2.956-.965.032.107Zm0,0" fill="#2a2f4f"/>
      <path id="Trazado_983167" data-name="Trazado 983167" d="M33.422,41.643v4.2a3.423,3.423,0,0,1-6.845,0v-4.2Zm0,0" fill="#eab599"/>
      <path id="Trazado_983168" data-name="Trazado 983168" d="M33.422,45.577v.266a3.423,3.423,0,0,1-2.411,3.269,3.422,3.422,0,0,1-2.383-2.824q.343.021.689.021a11.8,11.8,0,0,0,4.1-.733Zm0,0" fill="#f6caae"/>
      <path id="Trazado_983169" data-name="Trazado 983169" d="M20.61,34.759A3.184,3.184,0,0,1,17.937,37.9a3.22,3.22,0,0,1-.509.041,3.183,3.183,0,1,1,3.183-3.183Zm0,0" fill="#f6caae"/>
      <path id="Trazado_983170" data-name="Trazado 983170" d="M20.61,34.759A3.184,3.184,0,0,1,17.937,37.9a11.907,11.907,0,0,1,0-6.284A3.184,3.184,0,0,1,20.61,34.759Zm0,0" fill="#eab599"/>
      <path id="Trazado_983171" data-name="Trazado 983171" d="M18.565,34.759a1.138,1.138,0,1,1-1.138-1.138A1.138,1.138,0,0,1,18.565,34.759Zm0,0" fill="#eab599"/>
      <path id="Trazado_983172" data-name="Trazado 983172" d="M39.387,34.759a3.184,3.184,0,1,0,2.673-3.142,3.184,3.184,0,0,0-2.673,3.142Zm0,0" fill="#f6caae"/>
      <path id="Trazado_983173" data-name="Trazado 983173" d="M39.387,34.759A3.184,3.184,0,0,0,42.061,37.9a11.907,11.907,0,0,0,0-6.284A3.184,3.184,0,0,0,39.387,34.759Zm0,0" fill="#eab599"/>
      <path id="Trazado_983174" data-name="Trazado 983174" d="M41.841,28.558v4.509A11.842,11.842,0,0,1,31.9,44.756l-.058.01A11.635,11.635,0,0,1,30,44.909,11.841,11.841,0,0,1,18.157,33.068v-4.51A11.835,11.835,0,0,1,30,16.715h0A11.834,11.834,0,0,1,41.841,28.558Zm0,0" fill="#eab599"/>
      <path id="Trazado_983175" data-name="Trazado 983175" d="M43.708,34.759a1.138,1.138,0,1,1-1.138-1.138A1.137,1.137,0,0,1,43.708,34.759Zm0,0" fill="#eab599"/>
      <path id="Trazado_983176" data-name="Trazado 983176" d="M41.841,28.558v4.509A11.842,11.842,0,0,1,31.9,44.756l-.058.01a11.844,11.844,0,0,1-10-11.7V28.558a11.845,11.845,0,0,1,10-11.7,11.844,11.844,0,0,1,10,11.7Zm0,0" fill="#f6caae"/>
      <path id="Trazado_983177" data-name="Trazado 983177" d="M27.477,32.378a1.343,1.343,0,1,1-1.343-1.343A1.343,1.343,0,0,1,27.477,32.378Zm0,0" fill="#3d4159"/>
      <path id="Trazado_983178" data-name="Trazado 983178" d="M35.208,32.378a1.344,1.344,0,1,1-1.344-1.343A1.344,1.344,0,0,1,35.208,32.378Zm0,0" fill="#3d4159"/>
      <path id="Trazado_983179" data-name="Trazado 983179" d="M27.2,32.141a.576.576,0,1,1-.576-.576A.576.576,0,0,1,27.2,32.141Zm0,0" fill="#fff"/>
      <path id="Trazado_983180" data-name="Trazado 983180" d="M35,32.141a.576.576,0,1,1-.575-.576A.576.576,0,0,1,35,32.141Zm0,0" fill="#fff"/>
      <path id="Trazado_983181" data-name="Trazado 983181" d="M31.343,35.234H28.655a.58.58,0,0,1,0-1.159h2.687a.58.58,0,0,1,0,1.159Zm0,0" fill="#eab599"/>
      <path id="Trazado_983182" data-name="Trazado 983182" d="M30,38.9a5.982,5.982,0,0,1-2.887-.746.527.527,0,0,1,.508-.923,4.914,4.914,0,0,0,4.759,0,.527.527,0,0,1,.508.923A5.984,5.984,0,0,1,30,38.9Zm0,0" fill="#eab599"/>
      <path id="Trazado_983183" data-name="Trazado 983183" d="M41.841,24.466v4.619h-2.2V25.467l-15.91-2.956-3.366-.626v7.2h-2.2v-4.62a9.533,9.533,0,0,1,9.533-9.534h4.618c.125,0,.251,0,.376.009a9.532,9.532,0,0,1,9.157,9.526Zm0,0" fill="#2a2f4f"/>
      <path id="Trazado_983184" data-name="Trazado 983184" d="M41.841,24.466v4.619h-2.2V25.467l-15.91-2.956a9.535,9.535,0,0,1,8.957-7.571,9.532,9.532,0,0,1,9.157,9.526Zm0,0" fill="#3d4159"/>
    </g>
  </g>
</svg>
