<svg xmlns="http://www.w3.org/2000/svg" xmlns:xlink="http://www.w3.org/1999/xlink" width="83" height="83" viewBox="0 0 83 83">
  <defs>
    <clipPath id="clip-path">
      <rect id="Rectángulo_403288" data-name="Rectángulo 403288" width="83" height="83" transform="translate(646.711 1506.375)" fill="#6b0b0c" stroke="#6b0b0c" stroke-width="1"/>
    </clipPath>
  </defs>
  <g id="Grupo_1103306" data-name="Grupo 1103306" transform="translate(-646.711 -1506.375)">
    <g id="Enmascarar_grupo_1098819" data-name="Enmascarar grupo 1098819" clip-path="url(#clip-path)">
      <path id="control-de-calidad" d="M41.817,23.794a13.65,13.65,0,1,0,13.65,13.65,13.665,13.665,0,0,0-13.65-13.65Zm0,24.622A10.972,10.972,0,1,1,52.789,37.444,10.985,10.985,0,0,1,41.817,48.416ZM79.71,10.473l-1.1-.425a10.22,10.22,0,0,0-.7-1.681l.48-1.081a1.338,1.338,0,0,0-.277-1.49l-2-2a1.339,1.339,0,0,0-1.49-.277L73.538,4a10.237,10.237,0,0,0-1.68-.7l-.425-1.1a1.339,1.339,0,0,0-1.25-.858H67.352A1.339,1.339,0,0,0,66.1,2.2l-.425,1.1A10.245,10.245,0,0,0,64,4l-1.082-.481a1.338,1.338,0,0,0-1.49.277l-2,2a1.338,1.338,0,0,0-.277,1.49l.481,1.082a10.232,10.232,0,0,0-.7,1.681l-1.1.425a1.338,1.338,0,0,0-.858,1.249V11.8H24.559a1.741,1.741,0,0,0-1.593-2.2l-4.778-.233L16.491,4.9a1.739,1.739,0,0,0-3.249,0l-1.7,4.472L6.765,9.6a1.738,1.738,0,0,0-1,3.09l3.729,3L8.234,20.3a1.736,1.736,0,0,0,2.629,1.91l2.664-1.744V59.337a4.88,4.88,0,1,0,0,9.449v4.9a2.693,2.693,0,0,0,.8,1.942l7.908,7.908a2.693,2.693,0,0,0,1.942.8H67.359a2.75,2.75,0,0,0,2.747-2.747V68.786a4.881,4.881,0,1,0,0-9.449v-34.4h.077a1.339,1.339,0,0,0,1.249-.858l.425-1.1a10.214,10.214,0,0,0,1.681-.7l1.081.48a1.338,1.338,0,0,0,1.49-.277l2-2a1.338,1.338,0,0,0,.277-1.49l-.481-1.082a10.237,10.237,0,0,0,.7-1.68l1.1-.425a1.339,1.339,0,0,0,.858-1.249V11.723a1.337,1.337,0,0,0-.857-1.25ZM57.826,15.8l1.1.425a10.212,10.212,0,0,0,.7,1.681l-.48,1.082a1.335,1.335,0,0,0-.017,1.038L54.6,24.109a18.45,18.45,0,0,0-25.573,0l-8.61-7.764-.178-.656,1.507-1.212H56.968v.077a1.339,1.339,0,0,0,.858,1.249ZM41.817,53.25A15.806,15.806,0,1,1,57.623,37.444,15.824,15.824,0,0,1,41.817,53.25ZM39.255,63.366a.216.216,0,0,1,.068-.153.227.227,0,0,1,.155-.063l4.881.073a.225.225,0,0,1,.217.223l-.2,13.118a.226.226,0,0,1-.22.217h0l-4.881-.073a.226.226,0,0,1-.216-.223Zm3.381-2.847L41,60.5V55.908c.272.012.545.019.819.019s.547-.007.819-.019Zm-23.768-38.3a1.74,1.74,0,0,0,2.679-1.248l5.688,5.13a18.445,18.445,0,0,0,0,22.693L16.2,58.739V20.471ZM13.988,5.846h0Zm-2.341,8.141L9.367,12.155l2.921-.142a1.737,1.737,0,0,0,1.54-1.119l1.038-2.734L15.9,10.893a1.738,1.738,0,0,0,1.54,1.119l2.921.142-2.28,1.832A1.738,1.738,0,0,0,17.5,15.8l.767,2.822-2.446-1.6a1.737,1.737,0,0,0-1.9,0l-2.447,1.6.767-2.822a1.738,1.738,0,0,0-.588-1.811ZM10.1,64.061a2.2,2.2,0,1,1,2.2,2.2A2.206,2.206,0,0,1,10.1,64.061Zm8,11.544H22.26v4.163ZM67.36,81.661H24.938v-6.69a2.045,2.045,0,0,0-2.043-2.043H16.2v-5.94a4.87,4.87,0,0,0,.478-5.075L29.03,50.778a18.455,18.455,0,0,0,9.29,4.816v5.122a2.9,2.9,0,0,0-1.742,2.611l-.2,13.118a2.9,2.9,0,0,0,2.853,2.94l4.881.073h.044a2.9,2.9,0,0,0,2.9-2.854l.2-13.118a2.9,2.9,0,0,0-1.94-2.776V55.594a18.454,18.454,0,0,0,9.29-4.816L66.951,61.913a4.869,4.869,0,0,0,.478,5.075v14.6a.073.073,0,0,1-.07.07Zm6.175-17.6a2.2,2.2,0,1,1-2.2-2.2A2.206,2.206,0,0,1,73.535,64.061Zm-6.106-5.322L56.4,48.79a18.445,18.445,0,0,0,0-22.693L60.942,22l.484.484a1.338,1.338,0,0,0,1.49.277L64,22.279a10.238,10.238,0,0,0,1.68.7l.425,1.1a1.339,1.339,0,0,0,1.249.858h.077v33.8Zm10.461-45.1-.876.337a1.339,1.339,0,0,0-.821.939,7.579,7.579,0,0,1-.921,2.222,1.339,1.339,0,0,0-.084,1.245l.381.859-.7.7-.858-.381a1.338,1.338,0,0,0-1.245.084,7.575,7.575,0,0,1-2.223.922,1.339,1.339,0,0,0-.939.821l-.337.875h-.993l-.337-.876a1.339,1.339,0,0,0-.939-.821,7.579,7.579,0,0,1-2.222-.921,1.338,1.338,0,0,0-1.245-.084l-.859.381-.7-.7.381-.858a1.339,1.339,0,0,0-.083-1.245,7.574,7.574,0,0,1-.922-2.223,1.338,1.338,0,0,0-.821-.939l-.875-.337v-.993l.876-.337a1.338,1.338,0,0,0,.821-.94,7.573,7.573,0,0,1,.921-2.222A1.339,1.339,0,0,0,62.348,7.9l-.381-.858.7-.7.859.381a1.339,1.339,0,0,0,1.245-.084,7.578,7.578,0,0,1,2.222-.921,1.339,1.339,0,0,0,.939-.821l.337-.876h.993l.337.876a1.338,1.338,0,0,0,.939.821,7.578,7.578,0,0,1,2.222.921,1.339,1.339,0,0,0,1.245.084l.859-.381.7.7-.381.858a1.339,1.339,0,0,0,.084,1.246,7.57,7.57,0,0,1,.921,2.223,1.338,1.338,0,0,0,.821.939l.875.337ZM68.768,6.862a6.277,6.277,0,1,0,6.277,6.277A6.284,6.284,0,0,0,68.768,6.862Zm0,9.876a3.6,3.6,0,1,1,3.6-3.6A3.6,3.6,0,0,1,68.768,16.737Zm-6.7,56.331a1.339,1.339,0,0,1-1.339,1.339H51.486a1.339,1.339,0,1,1,0-2.677h9.247A1.339,1.339,0,0,1,62.071,73.068Zm0-5.051a1.339,1.339,0,0,1-1.339,1.339H51.486a1.339,1.339,0,1,1,0-2.677h9.247A1.339,1.339,0,0,1,62.071,68.017Zm0,10.1a1.339,1.339,0,0,1-1.339,1.339H51.486a1.339,1.339,0,1,1,0-2.677h9.247A1.339,1.339,0,0,1,62.071,78.12ZM35.258,62.965A1.339,1.339,0,0,1,33.919,64.3H24.672a1.339,1.339,0,1,1,0-2.677h9.247A1.339,1.339,0,0,1,35.258,62.965Zm0,5.051a1.339,1.339,0,0,1-1.339,1.339H24.672a1.339,1.339,0,1,1,0-2.677h9.247A1.339,1.339,0,0,1,35.258,68.017Zm0-10.1a1.339,1.339,0,0,1-1.339,1.339H24.672a1.339,1.339,0,1,1,0-2.677h9.247A1.339,1.339,0,0,1,35.258,57.914ZM49.709,31.526a3.142,3.142,0,0,0-2.23-.92h-.012a3.137,3.137,0,0,0-2.231.935l-5.04,5.09-1.8-1.8a3.165,3.165,0,0,0-4.476,4.476l4.046,4.046a3.169,3.169,0,0,0,4.476,0c1.535-1.535,3.083-3.1,4.58-4.623q1.35-1.369,2.7-2.736a3.167,3.167,0,0,0-.015-4.468ZM47.822,34.11q-1.356,1.368-2.707,2.741c-1.494,1.515-3.038,3.082-4.566,4.61a.488.488,0,0,1-.689,0l-4.046-4.046a.487.487,0,0,1,.689-.689l2.751,2.751a1.339,1.339,0,0,0,.947.392h0a1.339,1.339,0,0,0,.948-.4l5.986-6.046a.477.477,0,0,1,.339-.142.454.454,0,0,1,.344.141A.485.485,0,0,1,47.822,34.11Z" transform="translate(645.373 1505.036)" fill="#6b0b0c"/>
    </g>
    <path id="Trazado_952692" data-name="Trazado 952692" d="M31.064,147.506s-.229,5.645-4.744,6.182c0,0,4.846,1.447,5.381,6.2,0,0,1.212-5.758,4.468-6.23,0,0-3.776-.755-5.1-6.15" transform="translate(620.391 1387.988)" fill="#6b0b0c"/>
  </g>
</svg>
