<svg xmlns="http://www.w3.org/2000/svg" xmlns:xlink="http://www.w3.org/1999/xlink" width="83" height="83" viewBox="0 0 83 83">
  <defs>
    <clipPath id="clip-path">
      <rect id="Rectángulo_403288" data-name="Rectángulo 403288" width="83" height="83" transform="translate(646.711 1506.375)" fill="#6b0b0c" stroke="#6b0b0c" stroke-width="1"/>
    </clipPath>
    <clipPath id="clip-path-2">
      <path id="path1731" d="M0-83H83V0H0Z" fill="#6b0b0c"/>
    </clipPath>
  </defs>
  <g id="Grupo_1103302" data-name="Grupo 1103302" transform="translate(-646.711 -1506.375)">
    <g id="Enmascarar_grupo_1098815" data-name="Enmascarar grupo 1098815" clip-path="url(#clip-path)">
      <g id="g1725" transform="translate(646.711 1589.375)">
        <g id="g1727">
          <g id="g1729" clip-path="url(#clip-path-2)">
            <g id="g1735" transform="translate(63.871 -36.799)">
              <path id="path1737" d="M0,0V31.287a3.891,3.891,0,0,1-3.891,3.891H-58.359a3.891,3.891,0,0,1-3.891-3.891V-40.689a3.891,3.891,0,0,1,3.891-3.891H-3.891A3.891,3.891,0,0,1,0-40.689v27.922" fill="none" stroke="#6b0b0c" stroke-linecap="round" stroke-linejoin="round" stroke-miterlimit="10" stroke-width="3.242"/>
            </g>
            <g id="g1739" transform="translate(24.006 -69.707)">
              <path id="path1741" d="M0,0H17.481a3.445,3.445,0,0,0,3.445-3.445v-8.227H-3.445v8.227A3.445,3.445,0,0,0,0,0Z" fill="none" stroke="#6b0b0c" stroke-linecap="round" stroke-linejoin="round" stroke-miterlimit="10" stroke-width="3.242"/>
            </g>
            <g id="g1743" transform="translate(26.262 -8.105)">
              <path id="path1745" d="M0,0H-18.156V-66.789H-6.214" fill="none" stroke="#6b0b0c" stroke-linecap="round" stroke-linejoin="round" stroke-miterlimit="10" stroke-width="3.242"/>
            </g>
            <g id="g1747" transform="translate(57.387 -32.584)">
              <path id="path1749" d="M0,0V24.479H-18.156" fill="none" stroke="#6b0b0c" stroke-linecap="round" stroke-linejoin="round" stroke-miterlimit="10" stroke-width="3.242"/>
            </g>
            <g id="g1751" transform="translate(45.445 -74.895)">
              <path id="path1753" d="M0,0H11.942V31.576" fill="none" stroke="#6b0b0c" stroke-linecap="round" stroke-linejoin="round" stroke-miterlimit="10" stroke-width="3.242"/>
            </g>
            <g id="g1755" transform="translate(32.746 -8.105)">
              <path id="path1757" d="M0,0H0" fill="none" stroke="#6b0b0c" stroke-linecap="round" stroke-linejoin="round" stroke-miterlimit="10" stroke-width="3.242"/>
            </g>
            <g id="g1759" transform="translate(74.081 -47.65)">
              <path id="path1761" d="M0,0-12.952,12.952l-10.929,4.866,4.866-10.929L-.022-12.105a4.288,4.288,0,0,1,6.063,0h0a4.287,4.287,0,0,1,0,6.063L0,0" fill="none" stroke="#6b0b0c" stroke-linecap="round" stroke-linejoin="round" stroke-miterlimit="10" stroke-width="3.242"/>
            </g>
            <g id="g1763" transform="translate(60.774 -35.053)">
              <path id="path1765" d="M0,0-5.564-5.564" fill="none" stroke="#6b0b0c" stroke-linecap="round" stroke-linejoin="round" stroke-miterlimit="10" stroke-width="3.242"/>
            </g>
            <g id="g1767" transform="translate(78.039 -51.607)">
              <path id="path1769" d="M0,0-6.063-6.063" fill="none" stroke="#6b0b0c" stroke-linecap="round" stroke-linejoin="round" stroke-miterlimit="10" stroke-width="3.242"/>
            </g>
            <path id="path1771" d="M26.262-51.551H15.887V-61.926H26.262Z" fill="none" stroke="#6b0b0c" stroke-linecap="round" stroke-linejoin="round" stroke-miterlimit="10" stroke-width="3.242"/>
            <path id="path1773" d="M26.262-33.719H15.887V-44.094H26.262Z" fill="none" stroke="#6b0b0c" stroke-linecap="round" stroke-linejoin="round" stroke-miterlimit="10" stroke-width="3.242"/>
            <path id="path1775" d="M26.262-15.887H15.887V-26.262H26.262Z" fill="none" stroke="#6b0b0c" stroke-linecap="round" stroke-linejoin="round" stroke-miterlimit="10" stroke-width="3.242"/>
            <g id="g1777" transform="translate(35.405 -56.685)">
              <path id="path1779" d="M0,0,3.606,3.606l7.318-7.319" fill="none" stroke="#6b0b0c" stroke-linecap="round" stroke-linejoin="round" stroke-miterlimit="10" stroke-width="3.242"/>
            </g>
            <g id="g1781" transform="translate(35.405 -38.853)">
              <path id="path1783" d="M0,0,3.606,3.606l7.318-7.319" fill="none" stroke="#6b0b0c" stroke-linecap="round" stroke-linejoin="round" stroke-miterlimit="10" stroke-width="3.242"/>
            </g>
            <g id="g1785" transform="translate(37.208 -17.415)">
              <path id="path1787" d="M0,0,7.319-7.319" fill="none" stroke="#6b0b0c" stroke-linecap="round" stroke-linejoin="round" stroke-miterlimit="10" stroke-width="3.242"/>
            </g>
            <g id="g1789" transform="translate(37.208 -24.733)">
              <path id="path1791" d="M0,0,7.319,7.319" fill="none" stroke="#6b0b0c" stroke-linecap="round" stroke-linejoin="round" stroke-miterlimit="10" stroke-width="3.242"/>
            </g>
          </g>
        </g>
      </g>
    </g>
    <path id="Trazado_952692" data-name="Trazado 952692" d="M31.064,147.506s-.229,5.645-4.744,6.182c0,0,4.846,1.447,5.381,6.2,0,0,1.212-5.758,4.468-6.23,0,0-3.776-.755-5.1-6.15" transform="translate(687.381 1363.918)" fill="#6b0b0c"/>
  </g>
</svg>
