<svg xmlns="http://www.w3.org/2000/svg" xmlns:xlink="http://www.w3.org/1999/xlink" width="83" height="83" viewBox="0 0 83 83">
  <defs>
    <clipPath id="clip-path">
      <rect id="Rectángulo_403288" data-name="Rectángulo 403288" width="83" height="83" transform="translate(646.711 1506.375)" fill="#fff" stroke="#6b0b0c" stroke-width="1"/>
    </clipPath>
    <clipPath id="clip-path-2">
      <path id="path4353" d="M0-83H83V0H0Z"/>
    </clipPath>
  </defs>
  <g id="Grupo_1103303" data-name="Grupo 1103303" transform="translate(-646.711 -1506.375)">
    <g id="Enmascarar_grupo_1098816" data-name="Enmascarar grupo 1098816" clip-path="url(#clip-path)">
      <g id="g4347" transform="translate(646.711 1589.375)">
        <g id="g4349">
          <g id="g4351" clip-path="url(#clip-path-2)">
            <g id="g4357" transform="translate(1.621 -8.501)">
              <path id="path4359" d="M0,0V6.88H59.324V-14.287l-2.41,3.75-9.98,7.12,2.335-12.035L59.324-31.094V-72.878H0v58.612" fill="none" stroke="#6b0b0c" stroke-linecap="round" stroke-linejoin="round" stroke-miterlimit="10" stroke-width="3.242"/>
            </g>
            <g id="g4361" transform="translate(79.327 -51.383)">
              <path id="path4363" d="M0,0-20.792,32.344l-7.646-4.915L-7.646-4.915Z" fill="none" stroke="#6b0b0c" stroke-linecap="round" stroke-linejoin="round" stroke-miterlimit="10" stroke-width="3.242"/>
            </g>
          </g>
        </g>
        <g id="g4365" transform="translate(50.889 -23.953)">
          <path id="path4367" d="M0,0-2.334,12.035l9.98-7.121Z" fill="none" stroke="#6b0b0c" stroke-linecap="round" stroke-linejoin="round" stroke-miterlimit="10" stroke-width="3.242"/>
        </g>
        <g id="g4369">
          <g id="g4371" clip-path="url(#clip-path-2)">
            <g id="g4377" transform="translate(80.657 -53.452)">
              <path id="path4379" d="M0,0-1.33,2.069-8.976-2.846l1.33-2.068A4.545,4.545,0,0,1-1.366-6.28,4.544,4.544,0,0,1,0,0Z" fill="none" stroke="#6b0b0c" stroke-linecap="round" stroke-linejoin="round" stroke-miterlimit="10" stroke-width="3.242"/>
            </g>
            <g id="g4381" transform="translate(28.175 -11.918)">
              <path id="path4383" d="M0,0A22.481,22.481,0,0,1,7.072-7.8c1.153-.769,3.025-1.853,4.372-.928A3.542,3.542,0,0,1,12.793-6.12,26.08,26.08,0,0,1,12.821,0c.949-1.983,2.97-4.073,5.21-4.491a1.94,1.94,0,0,1,2.446,1.469A17.776,17.776,0,0,1,20.388,0" fill="none" stroke="#6b0b0c" stroke-linecap="round" stroke-linejoin="round" stroke-miterlimit="10" stroke-width="3.242"/>
            </g>
            <path id="path4385" d="M30.435-53.294H12.4V-73.771H30.435Z" fill="none" stroke="#6b0b0c" stroke-linecap="round" stroke-linejoin="round" stroke-miterlimit="10" stroke-width="3.242"/>
            <g id="g4387" transform="translate(39.697 -70.547)">
              <path id="path4389" d="M0,0H11.895" fill="none" stroke="#6b0b0c" stroke-linecap="round" stroke-linejoin="round" stroke-miterlimit="10" stroke-width="3.242"/>
            </g>
            <g id="g4391" transform="translate(39.697 -63.422)">
              <path id="path4393" d="M0,0H11.895" fill="none" stroke="#6b0b0c" stroke-linecap="round" stroke-linejoin="round" stroke-miterlimit="10" stroke-width="3.242"/>
            </g>
            <g id="g4395" transform="translate(39.697 -56.298)">
              <path id="path4397" d="M0,0H11.895" fill="none" stroke="#6b0b0c" stroke-linecap="round" stroke-linejoin="round" stroke-miterlimit="10" stroke-width="3.242"/>
            </g>
            <path id="path4399" d="M51.592-37.69H12.7v-7.977H51.592Z" fill="none" stroke="#6b0b0c" stroke-linecap="round" stroke-linejoin="round" stroke-miterlimit="10" stroke-width="3.242"/>
            <g id="g4401" transform="translate(13.275 -29.697)">
              <path id="path4403" d="M0,0H22.36" fill="none" stroke="#6b0b0c" stroke-linecap="round" stroke-linejoin="round" stroke-miterlimit="10" stroke-width="3.242"/>
            </g>
            <g id="g4405" transform="translate(13.275 -22.902)">
              <path id="path4407" d="M0,0H10.528" fill="none" stroke="#6b0b0c" stroke-linecap="round" stroke-linejoin="round" stroke-miterlimit="10" stroke-width="3.242"/>
            </g>
            <g id="g4409" transform="translate(25.265 -65.1)">
              <path id="path4411" d="M0,0A3.849,3.849,0,0,1-3.849,3.849,3.849,3.849,0,0,1-7.7,0,3.849,3.849,0,0,1-3.849-3.849,3.849,3.849,0,0,1,0,0Z" fill="none" stroke="#6b0b0c" stroke-linecap="round" stroke-linejoin="round" stroke-miterlimit="10" stroke-width="3.242"/>
            </g>
            <g id="g4413" transform="translate(21.416 -61.25)">
              <path id="path4415" d="M0,0S-9.019-.334-9.019,7.956H9.019C9.019-.324,0,0,0,0Z" fill="none" stroke="#6b0b0c" stroke-linecap="round" stroke-linejoin="round" stroke-miterlimit="10" stroke-width="3.242"/>
            </g>
            <g id="g4417" transform="translate(1.621 -15.568)">
              <path id="path4419" d="M0,0H0" fill="none" stroke="#6b0b0c" stroke-linecap="round" stroke-linejoin="round" stroke-miterlimit="10" stroke-width="3.242"/>
            </g>
          </g>
        </g>
      </g>
    </g>
    <path id="Trazado_952692" data-name="Trazado 952692" d="M31.064,147.506s-.229,5.645-4.744,6.182c0,0,4.846,1.447,5.381,6.2,0,0,1.212-5.758,4.468-6.23,0,0-3.776-.755-5.1-6.15" transform="translate(685.381 1363.918)" fill="#6b0b0c"/>
  </g>
</svg>
