<svg xmlns="http://www.w3.org/2000/svg" xmlns:xlink="http://www.w3.org/1999/xlink" width="85" height="85" viewBox="0 0 85 85">
  <defs>
    <clipPath id="clip-path">
      <rect id="Rect치ngulo_403288" data-name="Rect치ngulo 403288" width="85" height="85" transform="translate(180 2717.137)" fill="#fff" stroke="#707070" stroke-width="1"/>
    </clipPath>
  </defs>
  <g id="Grupo_1103368" data-name="Grupo 1103368" transform="translate(-180 -2717.137)">
    <path id="Rect치ngulo_403287" data-name="Rect치ngulo 403287" d="M27.172,0h0A27.172,27.172,0,0,1,54.344,27.172V78.033a0,0,0,0,1,0,0H0a0,0,0,0,1,0,0V27.172A27.172,27.172,0,0,1,27.172,0Z" transform="translate(195.328 2724.104)" fill="#ffd839"/>
    <g id="Enmascarar_grupo_1098835" data-name="Enmascarar grupo 1098835" clip-path="url(#clip-path)">
      <g id="necesitar" transform="translate(178.439 2715.576)">
        <g id="Grupo_1103369" data-name="Grupo 1103369">
          <path id="Trazado_987371" data-name="Trazado 987371" d="M57.012,61.309l15.944-4.6c13.9-4.011,12.425,7.783,6.536,10.023L57.131,75.236c-3.515,1.337-8.193,3.319-11.957,2.208l-11.88-3.505a6.745,6.745,0,0,0-5.012.405L17.039,79.75,9.507,61.441c5.415-2.532,10.847-5.031,16.228-7.633,5.872-2.84,9.62-4.263,16.947.98l10.773,2.937a5.3,5.3,0,0,1,3.557,3.584Z" fill="#efc7a4" fill-rule="evenodd"/>
          <path id="Trazado_987372" data-name="Trazado 987372" d="M56.335,65.415a5.082,5.082,0,0,1-5.54,2.078L36.208,63.516a1.731,1.731,0,0,1,.907-3.341Z" fill="#d5a889" fill-rule="evenodd"/>
          <path id="Trazado_987373" data-name="Trazado 987373" d="M23.405,82.757l-5.762,2.419a2.468,2.468,0,0,1-3.224-1.315L4.553,60.429A2.463,2.463,0,0,1,5.87,57.2l5.762-2.419A2.468,2.468,0,0,1,14.856,56.1l9.866,23.431a2.464,2.464,0,0,1-1.317,3.227Z" fill="#a9b0bb" fill-rule="evenodd"/>
          <path id="Trazado_987374" data-name="Trazado 987374" d="M45.427,2.754H59.564a.862.862,0,0,1,.861.861V26.307H65.5a.86.86,0,0,1,.681,1.386L53.177,44.562a.861.861,0,0,1-1.363,0L38.805,27.693a.86.86,0,0,1,.681-1.386h5.08V3.614A.862.862,0,0,1,45.427,2.754Z" fill="#c6ea94" fill-rule="evenodd"/>
        </g>
        <path id="Trazado_987375" data-name="Trazado 987375" d="M44.565,27.5a1.207,1.207,0,0,0,1.207-1.2V3.947H59.216V26.3a1.207,1.207,0,0,0,1.207,1.2H64.8L52.494,43.461,40.184,27.5Zm16.1-25.939H44.324a1.208,1.208,0,0,0-.965,1.181V25.09h-5.62a1.2,1.2,0,0,0-.956,1.94L51.539,46.169a1.208,1.208,0,0,0,1.911,0L68.206,27.031a1.2,1.2,0,0,0-.956-1.94H61.63V2.742a1.209,1.209,0,0,0-.966-1.181ZM78.977,65.782,55.912,74.671c-3.264,1.272-7.329,2.853-10.455,1.946l-11.9-3.456a7.96,7.96,0,0,0-5.872.5l-3.563,1.731L17.475,59.43c2.762-1.3,5.677-2.694,8.625-4.136,5.677-2.775,8.957-4,15.736.807a1.16,1.16,0,0,0,.381.181l10.8,2.891a3.86,3.86,0,1,1-2,7.456L36.677,62.786a1.2,1.2,0,1,0-.624,2.327l14.335,3.842a6.284,6.284,0,0,0,7.88-6.52l14.9-4.373c4.908-1.44,8.309-.9,9.1,1.453.761,2.23-.875,5.333-3.3,6.266ZM23.46,81.01a1.2,1.2,0,0,0,0-.948L13.766,56.8a1.233,1.233,0,0,0-1.612-.667L6.428,58.508a1.243,1.243,0,0,0-.664,1.618L15.45,83.39a1.244,1.244,0,0,0,1.62.667l5.718-2.375h0a1.149,1.149,0,0,0,.672-.671Zm61.1-22.268A5.574,5.574,0,0,0,80.6,55.192c-2.1-.593-4.835-.4-8.115.559L57.621,60.113c-.057-.116-.122-.23-.186-.343a6.207,6.207,0,0,0-3.8-2.924L43.051,54.01c-7.751-5.427-11.9-3.866-18-.881-2.907,1.419-5.782,2.788-8.5,4.074l-.551-1.331a3.648,3.648,0,0,0-4.762-1.966L5.505,56.283a3.657,3.657,0,0,0-1.968,4.769l9.686,23.264a3.653,3.653,0,0,0,4.77,1.966l5.718-2.376a3.639,3.639,0,0,0,1.968-4.769l-.632-1.515,3.693-1.792a5.548,5.548,0,0,1,4.147-.354l11.9,3.456A9.732,9.732,0,0,0,47.5,79.3c3.175,0,6.5-1.293,9.289-2.379.243-.1,23.057-8.887,23.057-8.887,3.637-1.4,5.888-5.829,4.714-9.288Z" fill-rule="evenodd"/>
      </g>
    </g>
    <path id="Trazado_952692" data-name="Trazado 952692" d="M31.179,147.506s-.235,5.781-4.859,6.331c0,0,4.962,1.482,5.51,6.348,0,0,1.241-5.9,4.576-6.381,0,0-3.867-.773-5.227-6.3" transform="translate(223.352 2639.211)" fill="#6b0b0c"/>
    <path id="Trazado_952694" data-name="Trazado 952694" d="M71.323,81.707s-.358,8.811-7.405,9.649c0,0,7.564,2.259,8.4,9.675,0,0,1.891-8.987,6.974-9.724,0,0-5.894-1.178-7.967-9.6" transform="translate(126.41 2649.686)" fill="#6b0b0c"/>
  </g>
</svg>
