<svg xmlns="http://www.w3.org/2000/svg" xmlns:xlink="http://www.w3.org/1999/xlink" width="129.238" height="130.198" viewBox="0 0 129.238 130.198">
  <defs>
    <clipPath id="clip-path">
      <rect id="Rect치ngulo_403288" data-name="Rect치ngulo 403288" width="122" height="122" transform="translate(387.711 1671.626)" fill="#fff" stroke="#707070" stroke-width="1"/>
    </clipPath>
  </defs>
  <g id="Grupo_1103332" data-name="Grupo 1103332" transform="translate(-380.473 -1663.428)">
    <path id="Rect치ngulo_403287" data-name="Rect치ngulo 403287" d="M39,0h0A39,39,0,0,1,78,39v73a0,0,0,0,1,0,0H0a0,0,0,0,1,0,0V39A39,39,0,0,1,39,0Z" transform="translate(409.711 1681.626)" fill="#ffd839"/>
    <g id="Enmascarar_grupo_1098823" data-name="Enmascarar grupo 1098823" clip-path="url(#clip-path)">
      <g id="servicio-de-calidad" transform="translate(385.743 1669.658)">
        <g id="Grupo_1103342" data-name="Grupo 1103342">
          <g id="Grupo_1103338" data-name="Grupo 1103338">
            <path id="Trazado_986956" data-name="Trazado 986956" d="M83.1,46.077,69.655,57.228l7.211,16.743a.723.723,0,0,0,1.28.1l4.655-7.5,8.649,1.771a.723.723,0,0,0,.81-1Z" fill="#fe646f" fill-rule="evenodd"/>
            <path id="Trazado_986957" data-name="Trazado 986957" d="M83.1,46.077l-1.778,1.474,8.523,19.789A.714.714,0,0,1,89.8,68l1.646.337a.723.723,0,0,0,.81-1ZM76.426,72.949l4.234-6.823,2.141.439-4.655,7.5a.723.723,0,0,1-1.28-.1Z" fill="#fd4755" fill-rule="evenodd"/>
            <path id="Trazado_986958" data-name="Trazado 986958" d="M63.264,56.363,53.6,77.129a.724.724,0,0,1-1.282.058l-4.436-7.633-8.7,1.52a.723.723,0,0,1-.781-1.019l9.562-20.539Z" fill="#fe646f" fill-rule="evenodd"/>
            <path id="Trazado_986959" data-name="Trazado 986959" d="M63.264,56.363,53.6,77.129a.723.723,0,0,1-1.282.058l-4.436-7.633-8.7,1.52a.723.723,0,0,1-.781-1.019l.588-1.263,7.668-1.34,4.436,7.633a.723.723,0,0,0,1.282-.058l9.069-19.479Z" fill="#fd4755" fill-rule="evenodd"/>
            <path id="Trazado_986960" data-name="Trazado 986960" d="M69,5.18c5.781,4.327,4.47,3.85,11.68,4.251a6.08,6.08,0,0,1,5.651,4.742c.6,2.55.89,5.767,2.837,7.594l3.378,3.17A6.08,6.08,0,0,1,93.827,32.2c-3.258,6.445-3.015,5.071-2.158,12.241a6.081,6.081,0,0,1-3.689,6.389c-6.638,2.843-5.569,1.946-9.522,7.99a6.081,6.081,0,0,1-6.932,2.523c-6.912-2.089-5.517-2.089-12.43,0a6.08,6.08,0,0,1-6.932-2.523c-3.952-6.043-2.883-5.147-9.522-7.99a6.08,6.08,0,0,1-3.689-6.389c.857-7.17,1.1-5.8-2.158-12.241a6.08,6.08,0,0,1,1.281-7.265C43.342,20,42.645,21.2,44.292,14.173a6.08,6.08,0,0,1,5.651-4.742c7.21-.4,5.9.076,11.68-4.251A6.081,6.081,0,0,1,69,5.18Z" fill="#ffe177" fill-rule="evenodd"/>
            <path id="Trazado_986961" data-name="Trazado 986961" d="M69,5.18c5.781,4.327,4.47,3.85,11.68,4.251a6.081,6.081,0,0,1,5.651,4.742c.6,2.55.89,5.767,2.837,7.594l3.378,3.17A6.08,6.08,0,0,1,93.827,32.2c-3.258,6.445-3.015,5.071-2.158,12.241a6.08,6.08,0,0,1-3.689,6.389c-6.638,2.843-5.569,1.946-9.522,7.99a6.076,6.076,0,0,1-6.7,2.589A6.114,6.114,0,0,0,75.3,58.822c3.952-6.044,2.883-5.147,9.522-7.99a6.08,6.08,0,0,0,3.689-6.389c-.857-7.17-1.1-5.8,2.158-12.241a6.08,6.08,0,0,0-1.281-7.265l-3.378-3.17c-1.947-1.828-2.24-5.044-2.837-7.594a6.08,6.08,0,0,0-5.651-4.742c-7.21-.4-5.9.076-11.68-4.251a6.25,6.25,0,0,0-2.108-1.035A6.08,6.08,0,0,1,69,5.18Zm-5.269,54.8c-1.056.24-2.418.7-4.634,1.365a6.167,6.167,0,0,1-3.4.066q.118-.031.235-.066C60.631,59.926,61.494,59.471,63.731,59.98Z" fill="#ffd064" fill-rule="evenodd"/>
            <circle id="Elipse_11652" data-name="Elipse 11652" cx="17.227" cy="17.227" r="17.227" transform="translate(48.085 15.549)" fill="#eceff1"/>
            <path id="Trazado_986962" data-name="Trazado 986962" d="M65.312,15.548q.7,0,1.377.055a17.228,17.228,0,0,0,0,34.345Q66.007,50,65.312,50a17.227,17.227,0,1,1,0-34.455Z" fill="#d1d1d6" fill-rule="evenodd"/>
          </g>
          <g id="Grupo_1103339" data-name="Grupo 1103339">
            <path id="Trazado_986963" data-name="Trazado 986963" d="M14.9,96.3,32.63,86.026c3.328-1.928,6.712-3.3,10.369-2.108C47.077,85.24,53.736,88.08,60.527,89.3a4.925,4.925,0,0,1,3.406,5.9c-.686,2.56-2.849,3.879-5.9,3.407l2.374.38a11.053,11.053,0,0,0,7.6-1.324l17.048-9.929c13.252-7.718,15.2,4.156,10.792,6.868l-30.938,19.05a11.344,11.344,0,0,1-9.187,1.3l-22.44-6.013-8.31,4.8a3.356,3.356,0,0,1-4.576-1.226l-6.72-11.64A3.357,3.357,0,0,1,14.9,96.3Z" fill="#f6dccd" fill-rule="evenodd"/>
            <path id="Trazado_986964" data-name="Trazado 986964" d="M63.529,96.267c-.947,1.852-2.9,2.747-5.5,2.346-3.676-.972-7.347-1.968-11.02-2.953a1.844,1.844,0,1,1,.955-3.562Z" fill="#f1cbbc" fill-rule="evenodd"/>
            <path id="Trazado_986965" data-name="Trazado 986965" d="M14.9,96.3,32.63,86.026c3.328-1.928,6.712-3.3,10.369-2.108,2.182.707,5.1,1.849,8.387,2.946L17.038,106.694l-3.361-5.822A3.356,3.356,0,0,1,14.9,96.3Z" fill="#f1cbbc" fill-rule="evenodd"/>
            <path id="Trazado_986966" data-name="Trazado 986966" d="M16.666,90.7l14.062,24.847a2.517,2.517,0,0,1-.948,3.421L25,121.679a2.517,2.517,0,0,1-3.421-.948L7.514,95.883a2.518,2.518,0,0,1,.948-3.421l4.783-2.707a2.518,2.518,0,0,1,3.421.948Z" fill="#d1d1d6" fill-rule="evenodd"/>
            <path id="Trazado_986967" data-name="Trazado 986967" d="M24.062,107.776l2.489,4.4,2.461,4.349a2.517,2.517,0,0,1-.941,3.417l1.709-.967a2.517,2.517,0,0,0,.948-3.421l-2.47-4.364L23.3,102.426l-4.964-8.772L16.666,90.7a2.52,2.52,0,0,0-2.923-1.162l2.89,5.107,4.959,8.762,2.47,4.364Z" fill="#b1b1b5" fill-rule="evenodd"/>
          </g>
          <g id="Grupo_1103340" data-name="Grupo 1103340">
            <path id="Trazado_986968" data-name="Trazado 986968" d="M107.731,4.184l-9.764,11.5a.709.709,0,0,0,.541,1.168h4.547V41.358a1.423,1.423,0,0,0,1.419,1.418h7.6a1.422,1.422,0,0,0,1.418-1.418V16.851h4.547a.709.709,0,0,0,.54-1.168l-9.763-11.5a.709.709,0,0,0-1.081,0Z" fill="#8ac9fe" fill-rule="evenodd"/>
            <path id="Trazado_986969" data-name="Trazado 986969" d="M107.731,4.184l-1.048,1.234L115.4,15.683a.709.709,0,0,1-.54,1.168h3.176a.709.709,0,0,0,.54-1.168l-9.764-11.5a.709.709,0,0,0-1.081,0Zm1.162,38.592a1.422,1.422,0,0,0,1.418-1.418V16.851h3.176V41.358a1.422,1.422,0,0,1-1.418,1.418Z" fill="#60b7ff" fill-rule="evenodd"/>
          </g>
          <g id="Grupo_1103341" data-name="Grupo 1103341">
            <path id="Trazado_986970" data-name="Trazado 986970" d="M21.812,4.184l-9.763,11.5a.709.709,0,0,0,.541,1.168h4.547V41.358a1.423,1.423,0,0,0,1.418,1.418h7.6a1.422,1.422,0,0,0,1.418-1.418V16.851h4.547a.709.709,0,0,0,.54-1.168l-9.764-11.5a.709.709,0,0,0-1.081,0Z" fill="#8ac9fe" fill-rule="evenodd"/>
            <path id="Trazado_986971" data-name="Trazado 986971" d="M21.812,4.184,20.764,5.417,29.48,15.683a.709.709,0,0,1-.54,1.168h3.176a.709.709,0,0,0,.54-1.168l-9.764-11.5a.709.709,0,0,0-1.081,0Zm1.162,38.592a1.422,1.422,0,0,0,1.418-1.418V16.851h3.176V41.358a1.422,1.422,0,0,1-1.418,1.418Z" fill="#60b7ff" fill-rule="evenodd"/>
          </g>
        </g>
        <path id="Trazado_986972" data-name="Trazado 986972" d="M22.351,6.589l7.044,8.3H27.567A1.968,1.968,0,0,0,25.6,16.853V40.809H19.1V16.853a1.968,1.968,0,0,0-1.967-1.968H15.308ZM23.31,5.46l0,0ZM12.588,18.82h2.579V41.359a3.39,3.39,0,0,0,3.387,3.387h7.595a3.39,3.39,0,0,0,3.387-3.387V18.82h2.579a2.676,2.676,0,0,0,2.04-4.409l-9.764-11.5a2.677,2.677,0,0,0-4.08,0h0l-9.764,11.5a2.676,2.676,0,0,0,2.041,4.409Zm100.9-3.935a1.968,1.968,0,0,0-1.968,1.968V40.809h-6.5V16.853a1.968,1.968,0,0,0-1.968-1.968h-1.827l7.041-8.3,7.045,8.3ZM109.229,5.46s0,0,0,0Zm10.845,8.952-9.762-11.5a2.678,2.678,0,0,0-4.081,0l-9.764,11.5a2.676,2.676,0,0,0,2.041,4.409h2.581V41.359a3.389,3.389,0,0,0,3.384,3.387h7.6a3.391,3.391,0,0,0,3.387-3.387V18.82h2.581a2.675,2.675,0,0,0,2.039-4.409ZM55.821,34.651A1.967,1.967,0,1,1,58.6,31.869l3.4,3.4,10.085-9.153a1.968,1.968,0,1,1,2.644,2.915L63.258,39.442a1.971,1.971,0,0,1-2.714-.066Zm9.49-17.133a15.26,15.26,0,1,0,15.26,15.26A15.277,15.277,0,0,0,65.31,17.518Zm0,34.456a19.2,19.2,0,1,0-19.2-19.2A19.218,19.218,0,0,0,65.31,51.974Zm-25.889-25.6a4.107,4.107,0,0,0-.872,4.943c.3.593.57,1.118.811,1.591,2.334,4.551,2.4,4.925,1.763,10-.066.527-.14,1.113-.219,1.772a4.108,4.108,0,0,0,2.51,4.346c.61.26,1.155.491,1.644.7,4.713,1.985,5,2.23,7.778,6.526.288.446.609.942.973,1.5a4.105,4.105,0,0,0,4.715,1.717c.636-.192,1.2-.367,1.708-.523a17.876,17.876,0,0,1,5.077-1.131,17.869,17.869,0,0,1,5.077,1.131c.507.156,1.071.331,1.708.523a4.106,4.106,0,0,0,4.715-1.717c.364-.556.683-1.053.971-1.5,2.774-4.3,3.067-4.54,7.778-6.526.488-.206,1.035-.435,1.645-.7a4.106,4.106,0,0,0,2.509-4.346c-.079-.66-.153-1.246-.219-1.774-.634-5.073-.568-5.447,1.763-10,.244-.473.512-1,.811-1.591a4.109,4.109,0,0,0-.871-4.943c-.485-.455-.917-.857-1.306-1.218-3.751-3.478-3.94-3.807-5.077-8.792-.118-.518-.251-1.094-.4-1.74A4.105,4.105,0,0,0,80.571,11.4c-.665-.037-1.254-.066-1.784-.093-5.108-.255-5.465-.384-9.541-3.472-.423-.321-.894-.677-1.426-1.076a4.106,4.106,0,0,0-5.019,0c-.532.4-1,.755-1.425,1.076C57.3,10.921,56.943,11.05,51.835,11.3c-.53.027-1.121.056-1.784.093a4.105,4.105,0,0,0-3.844,3.227c-.152.646-.283,1.223-.4,1.74-1.137,4.985-1.327,5.314-5.076,8.792-.39.362-.824.763-1.308,1.218ZM83.2,64.639a1.965,1.965,0,0,0-2.067.89l-3.4,5.477L74.495,63.5A8.068,8.068,0,0,0,80.1,59.9c.369-.563.693-1.066.986-1.518a15.64,15.64,0,0,1,2.386-3.248,5.562,5.562,0,0,1,1.092-.677l4.941,11.473Zm-30.379,9.5-3.238-5.572a1.969,1.969,0,0,0-2.04-.949l-6.349,1.109L47.4,55.378a21.081,21.081,0,0,1,2.128,3c.292.453.617.955.984,1.519a8.058,8.058,0,0,0,7.221,3.67ZM35.039,33.093a8.062,8.062,0,0,1,1.69-9.587c.491-.461.929-.868,1.323-1.234a15.6,15.6,0,0,0,2.783-2.915,15.621,15.621,0,0,0,1.132-3.868c.121-.523.254-1.107.406-1.762a8.065,8.065,0,0,1,7.458-6.258c.671-.037,1.269-.067,1.806-.094a15.631,15.631,0,0,0,4.006-.443A15.625,15.625,0,0,0,59,4.7c.428-.324.905-.686,1.444-1.088a8.064,8.064,0,0,1,9.735,0c.538.4,1.017.764,1.445,1.089a15.59,15.59,0,0,0,3.355,2.234,15.614,15.614,0,0,0,4,.443c.537.027,1.137.057,1.808.094a8.068,8.068,0,0,1,7.458,6.258c.152.655.285,1.239.405,1.762a15.565,15.565,0,0,0,1.132,3.868,15.531,15.531,0,0,0,2.783,2.915c.394.366.832.773,1.323,1.234a8.064,8.064,0,0,1,1.69,9.587c-.3.6-.575,1.132-.822,1.611A15.624,15.624,0,0,0,93.142,38.4a15.479,15.479,0,0,0,.258,4.021c.066.534.142,1.129.221,1.8a8.067,8.067,0,0,1-4.868,8.431c-.2.086-.39.167-.578.245l6.439,14.949a1.969,1.969,0,0,1-2.2,2.707L83.749,68.77l-4.663,7.515a1.968,1.968,0,0,1-1.671.93c-.049,0-.1,0-.147,0a1.969,1.969,0,0,1-1.66-1.183l-5.642-13.1-.74-.228a15.638,15.638,0,0,0-3.916-.953,11.138,11.138,0,0,0-2.955.657l.218.1L54.792,79.218A1.971,1.971,0,0,1,53.1,80.355h-.09a1.969,1.969,0,0,1-1.7-.979L46.864,71.73l-8.712,1.521a1.967,1.967,0,0,1-2.122-2.768l7.9-16.967-.4-.168c-.5-.208-1.047-.441-1.665-.7A8.066,8.066,0,0,1,37,44.213c.08-.668.154-1.262.221-1.8a15.559,15.559,0,0,0,.258-4.022A15.6,15.6,0,0,0,35.86,34.7c-.245-.479-.517-1.011-.821-1.611ZM15.378,95.866a1.708,1.708,0,1,1-1.937-1.444A1.709,1.709,0,0,1,15.378,95.866Zm79.434-2.927L63.873,111.99a9.41,9.41,0,0,1-7.647,1.07l-22.442-6.012a1.974,1.974,0,0,0-1.494.2l-3.014,1.74-7.99-14.116,12.32-7.134c2.753-1.593,5.721-2.931,8.778-1.94,1.029.335,2.221.765,3.6,1.264A88.748,88.748,0,0,0,60.027,91.22a2.938,2.938,0,0,1,2,3.482c-.413,1.544-1.571,2.219-3.436,2.005-2.483-.512-4.853-1.186-7.36-1.9-1.2-.345-2.439-.7-3.716-1.041a1.968,1.968,0,1,0-1.019,3.8c1.246.332,2.471.682,3.655,1.021,2.611.746,5.077,1.45,7.739,1.995l.041,0a.214.214,0,0,0,.038.008l2.121.346a12.948,12.948,0,0,0,8.9-1.566l17.049-9.93c4.6-2.678,8.233-3.036,9.49-.937.845,1.416.479,3.692-.719,4.43Zm-66,24.316a.547.547,0,0,0,.2-.737L14.954,91.668a.55.55,0,0,0-.478-.273.53.53,0,0,0-.262.068L9.43,94.169a.552.552,0,0,0-.2.741L23.29,119.76a.549.549,0,0,0,.739.2ZM84.061,86.045l-17.049,9.93a9.414,9.414,0,0,1-1.511.713,7.826,7.826,0,0,0,.328-.967,6.912,6.912,0,0,0-4.7-8.282,2.175,2.175,0,0,0-.258-.067,84.806,84.806,0,0,1-13.548-4.016c-1.353-.49-2.633-.953-3.724-1.306-4.534-1.471-8.592.326-11.963,2.277L19.348,91.443l-.969-1.715a4.484,4.484,0,0,0-6.1-1.692L7.493,90.745a4.482,4.482,0,0,0-1.692,6.1L19.864,121.7a4.486,4.486,0,0,0,6.1,1.693l4.784-2.708a4.482,4.482,0,0,0,1.692-6.1l-1.227-2.17,2.337-1.35,21.654,5.8a14.254,14.254,0,0,0,3.7.5,13.279,13.279,0,0,0,7.026-2.02L96.876,96.29c3.021-1.859,3.988-6.533,2.029-9.8-.947-1.582-4.813-6.285-14.844-.443Z" fill="#242222" fill-rule="evenodd"/>
      </g>
    </g>
    <path id="Trazado_952692" data-name="Trazado 952692" d="M33.294,147.506s-.337,8.3-6.974,9.087c0,0,7.122,2.127,7.909,9.111,0,0,1.781-8.464,6.568-9.158,0,0-5.55-1.11-7.5-9.04" transform="translate(354.153 1515.922)" fill="#6b0b0c"/>
    <path id="Trazado_952694" data-name="Trazado 952694" d="M74.547,81.707s-.513,12.647-10.629,13.849c0,0,10.856,3.243,12.054,13.887,0,0,2.714-12.9,10.01-13.957,0,0-8.459-1.691-11.435-13.778" transform="translate(418.914 1682.023)" fill="#6b0b0c"/>
  </g>
</svg>
