<svg xmlns="http://www.w3.org/2000/svg" xmlns:xlink="http://www.w3.org/1999/xlink" width="122" height="122" viewBox="0 0 122 122">
  <defs>
    <clipPath id="clip-path">
      <rect id="Rect치ngulo_403288" data-name="Rect치ngulo 403288" width="122" height="122" transform="translate(387.711 1671.626)" fill="#fff" stroke="#707070" stroke-width="1"/>
    </clipPath>
  </defs>
  <g id="Grupo_1103335" data-name="Grupo 1103335" transform="translate(-387.711 -1671.626)">
    <path id="Rect치ngulo_403287" data-name="Rect치ngulo 403287" d="M39,0h0A39,39,0,0,1,78,39v73a0,0,0,0,1,0,0H0a0,0,0,0,1,0,0V39A39,39,0,0,1,39,0Z" transform="translate(409.711 1681.626)" fill="#ffd839"/>
    <g id="Enmascarar_grupo_1098826" data-name="Enmascarar grupo 1098826" clip-path="url(#clip-path)">
      <g id="autenticidad" transform="translate(385.989 1669.904)">
        <g id="Grupo_1103352" data-name="Grupo 1103352">
          <g id="Grupo_1103350" data-name="Grupo 1103350">
            <path id="Trazado_987029" data-name="Trazado 987029" d="M62.288,3.779a1.089,1.089,0,0,1,.858,0l40.572,17.392a1.089,1.089,0,0,1,.66,1V55.128a48.617,48.617,0,0,1-40.145,47.714l-1.516.269-1.516-.269A48.618,48.618,0,0,1,21.066,55.128V22.172a1.089,1.089,0,0,1,.66-1L62.288,3.779Z" fill="#6cf5c2" fill-rule="evenodd"/>
            <path id="Trazado_987030" data-name="Trazado 987030" d="M61.627,4.062l.66-.283a1.089,1.089,0,0,1,.858,0l40.572,17.392a1.089,1.089,0,0,1,.66,1V55.128a48.617,48.617,0,0,1-40.145,47.714l-1.516.269-1.089-.193.426-.076A48.617,48.617,0,0,0,102.2,55.128V22.172a1.089,1.089,0,0,0-.66-1Z" fill="#00e499" fill-rule="evenodd"/>
            <path id="Trazado_987031" data-name="Trazado 987031" d="M63.157,15.415a1.117,1.117,0,0,0-.88,0L32.953,27.984a1.117,1.117,0,0,0-.677,1.027V54.727a37.6,37.6,0,0,0,30.44,36.75,37.594,37.594,0,0,0,30.451-36.75V29.011a1.117,1.117,0,0,0-.677-1.027L63.157,15.415Z" fill="#eceff1" fill-rule="evenodd"/>
            <path id="Trazado_987032" data-name="Trazado 987032" d="M63.834,15.705,35.187,27.984a1.117,1.117,0,0,0-.677,1.027V54.727A37.6,37.6,0,0,0,63.834,91.246q-.555.123-1.117.23a37.6,37.6,0,0,1-30.44-36.75V29.011a1.117,1.117,0,0,1,.677-1.027L62.277,15.415a1.117,1.117,0,0,1,.88,0Z" fill="#d1d1d6" fill-rule="evenodd"/>
          </g>
          <g id="Grupo_1103351" data-name="Grupo 1103351">
            <path id="Trazado_987033" data-name="Trazado 987033" d="M78.706,88.365l-15.752,6.4,12.405,26.644a.6.6,0,0,0,1.056.051l4.631-7.952,9.059,1.58a.6.6,0,0,0,.642-.845Z" fill="#fe646f" fill-rule="evenodd"/>
            <path id="Trazado_987034" data-name="Trazado 987034" d="M74.449,119.45l3.751-6.442,2.847.5-4.631,7.952a.6.6,0,0,1-1.056-.051Zm13.2-4.793a.575.575,0,0,0-.039-.417l-11.543-24.8,2.637-1.071L90.748,114.24a.6.6,0,0,1-.642.845Z" fill="#fd4755" fill-rule="evenodd"/>
            <path id="Trazado_987035" data-name="Trazado 987035" d="M46.738,88.365l15.752,6.4L50.084,121.406a.573.573,0,0,1-.516.346.583.583,0,0,1-.541-.3L44.406,113.5l-9.067,1.58a.6.6,0,0,1-.642-.845Z" fill="#fe646f" fill-rule="evenodd"/>
            <path id="Trazado_987036" data-name="Trazado 987036" d="M37.793,114.657l-2.455.428a.6.6,0,0,1-.642-.845L46.738,88.365l2.637,1.071-11.543,24.8A.576.576,0,0,0,37.793,114.657ZM51,119.448l-.912,1.958a.573.573,0,0,1-.516.346.583.583,0,0,1-.541-.3L44.406,113.5l2.847-.5Z" fill="#fd4755" fill-rule="evenodd"/>
            <path id="Trazado_987037" data-name="Trazado 987037" d="M66.749,44.355,70.8,47.389a6.421,6.421,0,0,0,3.651,1.327l5.045.279a6.633,6.633,0,0,1,6.161,5.172l1.158,4.926a6.394,6.394,0,0,0,1.944,3.363l3.684,3.456a6.63,6.63,0,0,1,1.394,7.926L91.55,78.351a6.45,6.45,0,0,0-.668,3.828l.6,5.019a6.641,6.641,0,0,1-4.031,6.972l-4.639,1.986a6.436,6.436,0,0,0-2.983,2.5l-2.763,4.225a6.638,6.638,0,0,1-7.563,2.755l-4.842-1.462a6.335,6.335,0,0,0-3.879,0l-4.842,1.462a6.638,6.638,0,0,1-7.563-2.755l-2.763-4.225a6.436,6.436,0,0,0-2.983-2.5L37.992,94.17A6.651,6.651,0,0,1,33.961,87.2l.6-5.019a6.45,6.45,0,0,0-.668-3.828l-2.282-4.513a6.63,6.63,0,0,1,1.394-7.926l3.684-3.456a6.394,6.394,0,0,0,1.944-3.363l1.158-4.926a6.633,6.633,0,0,1,6.161-5.172L51,48.715a6.4,6.4,0,0,0,3.651-1.327L58.7,44.355a6.656,6.656,0,0,1,8.053,0Z" fill="#ffe177" fill-rule="evenodd"/>
            <path id="Trazado_987038" data-name="Trazado 987038" d="M61.154,43.188a6.659,6.659,0,0,1,5.595,1.167L70.8,47.389a6.421,6.421,0,0,0,3.651,1.327l5.045.279a6.633,6.633,0,0,1,6.161,5.172l1.158,4.926a6.394,6.394,0,0,0,1.944,3.363l3.684,3.456a6.63,6.63,0,0,1,1.394,7.926L91.55,78.351a6.45,6.45,0,0,0-.668,3.828l.6,5.019a6.641,6.641,0,0,1-4.031,6.972l-4.639,1.986a6.436,6.436,0,0,0-2.983,2.5l-2.763,4.225a6.627,6.627,0,0,1-7.15,2.865,6.655,6.655,0,0,0,4.015-2.865l2.763-4.225a6.434,6.434,0,0,1,2.983-2.5l4.639-1.986A6.641,6.641,0,0,0,88.347,87.2l-.6-5.019a6.45,6.45,0,0,1,.668-3.828L90.7,73.838A6.63,6.63,0,0,0,89.3,65.912l-3.685-3.456a6.394,6.394,0,0,1-1.944-3.363l-1.158-4.926a6.633,6.633,0,0,0-6.161-5.172l-5.045-.279a6.421,6.421,0,0,1-3.651-1.327l-4.048-3.034a6.83,6.83,0,0,0-2.459-1.167Zm0,60.883q-.185.046-.372.1l-4.842,1.462a6.769,6.769,0,0,1-3.548.11q.207-.049.413-.11l4.842-1.462A6.3,6.3,0,0,1,61.154,104.071Z" fill="#ffd064" fill-rule="evenodd"/>
            <path id="Trazado_987039" data-name="Trazado 987039" d="M62.726,92.125A17.661,17.661,0,1,0,45.064,74.464,17.7,17.7,0,0,0,62.726,92.125Z" fill="#eceff1" fill-rule="evenodd"/>
            <path id="Trazado_987040" data-name="Trazado 987040" d="M64.293,56.872a17.662,17.662,0,0,0,0,35.184q-.775.069-1.567.069a17.661,17.661,0,1,1,0-35.323q.792,0,1.567.069Z" fill="#d1d1d6" fill-rule="evenodd"/>
          </g>
        </g>
        <path id="Trazado_987041" data-name="Trazado 987041" d="M31.961,88.647A50.282,50.282,0,0,1,19.143,55.173V21.526a1.968,1.968,0,0,1,1.192-1.809L61.946,1.881a1.967,1.967,0,0,1,1.551,0l41.611,17.836a1.968,1.968,0,0,1,1.192,1.809V55.173A50.281,50.281,0,0,1,93.483,88.646a8.564,8.564,0,0,1-5.253,7.33l-3.175,1.359L92.532,113.4a2.568,2.568,0,0,1-2.768,3.62l-7.7-1.344-3.934,6.755A2.52,2.52,0,0,1,75.8,123.72a2.49,2.49,0,0,1-2.217-1.461l-.01-.021-7.214-15.494-2.271-.686-.01,0a4.442,4.442,0,0,0-2.722,0l-.01,0-2.271.686L51.874,122.22a2.563,2.563,0,0,1-4.553.22l-3.931-6.762-7.712,1.344a2.568,2.568,0,0,1-2.768-3.62l7.477-16.067-3.176-1.359a8.582,8.582,0,0,1-5.252-7.329Zm61.014-5.579a46.25,46.25,0,0,0,9.39-27.895V22.823L62.722,5.83,23.079,22.823v32.35a46.25,46.25,0,0,0,9.39,27.895l.135-1.126v-.006a4.565,4.565,0,0,0-.473-2.706l-2.278-4.5a8.569,8.569,0,0,1,1.542-10A38.832,38.832,0,0,1,30.2,55.173V28.811A1.968,1.968,0,0,1,31.4,27L61.947,13.916a1.969,1.969,0,0,1,1.549,0L94.058,27a1.968,1.968,0,0,1,1.193,1.809V55.173a38.829,38.829,0,0,1-1.194,9.561,8.567,8.567,0,0,1,1.535,9.988l-2.279,4.508a4.565,4.565,0,0,0-.473,2.706v.006ZM81.69,99.433q-.11.145-.213.3l-2.761,4.223a8.558,8.558,0,0,1-7.473,3.941l4.8,10.3,3.31-5.685a1.968,1.968,0,0,1,2.039-.948l6.475,1.129ZM54.2,107.9a8.558,8.558,0,0,1-7.473-3.941l-2.762-4.223q-.1-.157-.213-.3L37.581,112.7l6.484-1.13a1.968,1.968,0,0,1,2.039.95l3.3,5.681ZM34.732,61.585l.609-.571,0,0a4.506,4.506,0,0,0,1.37-2.371v0l1.157-4.923a8.58,8.58,0,0,1,7.968-6.691h0l5.047-.279a4.51,4.51,0,0,0,2.574-.933l0,0,4.048-3.034,0,0a8.6,8.6,0,0,1,10.407,0l0,0L71.976,45.8a4.54,4.54,0,0,0,2.58.938l5.047.279h0a8.578,8.578,0,0,1,7.967,6.687l1.158,4.927v0a4.506,4.506,0,0,0,1.37,2.371l0,0,.617.58a34.9,34.9,0,0,0,.595-6.42V30.109L62.722,17.866,34.139,30.109V55.173a34.917,34.917,0,0,0,.593,6.412Zm30.84-15.662a4.713,4.713,0,0,0-5.7,0l-4.044,3.031A8.286,8.286,0,0,1,51.1,50.672l-5.044.279A4.687,4.687,0,0,0,41.705,54.6v0l-1.158,4.927a8.281,8.281,0,0,1-2.514,4.349L34.349,67.34a4.686,4.686,0,0,0-.987,5.6v0l2.282,4.513,0,.008a8.336,8.336,0,0,1,.861,4.944l-.6,5.017a4.706,4.706,0,0,0,2.852,4.932L43.4,94.344a8.323,8.323,0,0,1,3.856,3.231l0,0,2.764,4.227a4.7,4.7,0,0,0,5.35,1.947l4.837-1.46a8.223,8.223,0,0,1,5.024,0l4.837,1.46a4.7,4.7,0,0,0,5.35-1.947l2.764-4.227,0,0a8.323,8.323,0,0,1,3.856-3.231l4.638-1.985h0a4.7,4.7,0,0,0,2.851-4.931l-.6-5.017a8.336,8.336,0,0,1,.861-4.944l0-.008,2.282-4.513v0a4.686,4.686,0,0,0-.987-5.6l-3.684-3.456A8.281,8.281,0,0,1,84.9,59.535l-1.158-4.927v0a4.687,4.687,0,0,0-4.355-3.654l-5.043-.279a8.305,8.305,0,0,1-4.722-1.716h0ZM62.726,94.09A19.631,19.631,0,1,1,82.349,74.459,19.671,19.671,0,0,1,62.726,94.09Zm0-3.935a15.7,15.7,0,1,0-15.7-15.7A15.725,15.725,0,0,0,62.726,90.155ZM54.705,75.99a1.968,1.968,0,1,1,2.783-2.783l2.932,2.932L67.955,68.6a1.968,1.968,0,0,1,2.783,2.783l-8.926,8.926a1.968,1.968,0,0,1-2.783,0Z" fill-rule="evenodd"/>
      </g>
    </g>
    <path id="Trazado_952692" data-name="Trazado 952692" d="M33.294,147.506s-.337,8.3-6.974,9.087c0,0,7.122,2.127,7.909,9.111,0,0,1.781-8.464,6.568-9.158,0,0-5.55-1.11-7.5-9.04" transform="translate(364.77 1524.12)" fill="#6b0b0c"/>
    <path id="Trazado_952694" data-name="Trazado 952694" d="M74.547,81.707s-.513,12.647-10.629,13.849c0,0,10.856,3.243,12.054,13.887,0,0,2.714-12.9,10.01-13.957,0,0-8.459-1.691-11.435-13.778" transform="translate(414.914 1678.023)" fill="#6b0b0c"/>
  </g>
</svg>
