<svg xmlns="http://www.w3.org/2000/svg" xmlns:xlink="http://www.w3.org/1999/xlink" width="122" height="122" viewBox="0 0 122 122">
  <defs>
    <clipPath id="clip-path">
      <rect id="Rect치ngulo_403288" data-name="Rect치ngulo 403288" width="122" height="122" transform="translate(179.668 5502)" fill="#fff" stroke="#707070" stroke-width="1"/>
    </clipPath>
  </defs>
  <g id="Grupo_1102808" data-name="Grupo 1102808" transform="translate(-389 -6445)">
    <g id="Grupo_1101953" data-name="Grupo 1101953" transform="translate(209.332 943)">
      <path id="Rect치ngulo_403287" data-name="Rect치ngulo 403287" d="M39,0h0A39,39,0,0,1,78,39v73a0,0,0,0,1,0,0H0a0,0,0,0,1,0,0V39A39,39,0,0,1,39,0Z" transform="translate(201.668 5512)" fill="#ffd839"/>
      <g id="Enmascarar_grupo_1098800" data-name="Enmascarar grupo 1098800" clip-path="url(#clip-path)">
        <g id="cafe" transform="translate(179.668 5502)">
          <circle id="Elipse_11643" data-name="Elipse 11643" cx="3.813" cy="3.813" r="3.813" transform="translate(72.438 102.938)" fill="#a08073"/>
          <path id="Trazado_982300" data-name="Trazado 982300" d="M101.032,113.537a6.558,6.558,0,0,1-6.558,6.558H27.526A6.564,6.564,0,0,1,23.2,108.6L44.3,90.147a25.366,25.366,0,0,1,33.4,0L98.8,108.6a6.624,6.624,0,0,1,2.23,4.937ZM80.063,106.75a3.813,3.813,0,1,0-3.813,3.813,3.813,3.813,0,0,0,3.813-3.813Zm-15.25-9.531A3.813,3.813,0,1,0,61,101.032a3.813,3.813,0,0,0,3.813-3.813Zm-15.25,9.531a3.813,3.813,0,1,0-3.813,3.813,3.813,3.813,0,0,0,3.813-3.813Z" fill="#8e6751"/>
          <circle id="Elipse_11644" data-name="Elipse 11644" cx="3.813" cy="3.813" r="3.813" transform="translate(57.188 93.407)" fill="#a08073"/>
          <circle id="Elipse_11645" data-name="Elipse 11645" cx="3.813" cy="3.813" r="3.813" transform="translate(41.938 102.938)" fill="#a08073"/>
          <circle id="Elipse_11646" data-name="Elipse 11646" cx="3.813" cy="3.813" r="3.813" transform="translate(26.688 76.25)" fill="#8e6751"/>
          <circle id="Elipse_11647" data-name="Elipse 11647" cx="4.766" cy="4.766" r="4.766" transform="translate(38.125 61)" fill="#8e6751"/>
          <circle id="Elipse_11648" data-name="Elipse 11648" cx="3.813" cy="3.813" r="3.813" transform="translate(57.188 66.719)" fill="#8e6751"/>
          <circle id="Elipse_11649" data-name="Elipse 11649" cx="4.766" cy="4.766" r="4.766" transform="translate(74.344 61)" fill="#8e6751"/>
          <circle id="Elipse_11650" data-name="Elipse 11650" cx="3.813" cy="3.813" r="3.813" transform="translate(87.688 76.25)" fill="#8e6751"/>
          <path id="Trazado_982301" data-name="Trazado 982301" d="M94.36,48.61a4.766,4.766,0,1,1-9.531,0V44.8a4.766,4.766,0,1,0-9.531,0V48.61a4.766,4.766,0,1,1-9.531,0V2.249A33.36,33.36,0,0,1,94.36,35.266Z" fill="#7c523a"/>
          <path id="Trazado_982302" data-name="Trazado 982302" d="M61,40.031A4.766,4.766,0,0,0,56.235,44.8V2.249a33.266,33.266,0,0,1,9.531,0V44.8A4.75,4.75,0,0,0,61,40.031Z" fill="#a08073"/>
          <path id="Trazado_982303" data-name="Trazado 982303" d="M56.235,44.8V48.61a4.766,4.766,0,1,1-9.531,0V44.8a4.766,4.766,0,0,0-9.531,0V48.61a4.766,4.766,0,0,1-9.531,0V35.266A33.394,33.394,0,0,1,56.235,2.249Z" fill="#7c523a"/>
          <g id="Grupo_1102855" data-name="Grupo 1102855">
            <path id="Trazado_982304" data-name="Trazado 982304" d="M100.056,107.164l-21.1-18.451a27.271,27.271,0,0,0-27.551-5,1.906,1.906,0,1,0,1.35,3.565,23.464,23.464,0,0,1,23.687,4.3L97.53,110.023a4.726,4.726,0,0,1,1.6,3.513,4.657,4.657,0,0,1-4.651,4.651H27.526a4.663,4.663,0,0,1-4.651-4.651,4.716,4.716,0,0,1,1.578-3.5l21.1-18.453a1.906,1.906,0,1,0-2.509-2.871L21.922,107.177A8.475,8.475,0,0,0,27.526,122H94.474a8.471,8.471,0,0,0,5.582-14.836Z" fill="#252525"/>
            <path id="Trazado_982305" data-name="Trazado 982305" d="M32.406,55.281a6.659,6.659,0,0,0,6.672-6.672V44.8a2.859,2.859,0,1,1,5.719,0V48.61a6.672,6.672,0,1,0,13.344,0V44.8a2.859,2.859,0,1,1,5.719,0V48.61a6.672,6.672,0,0,0,13.344,0V44.8a2.859,2.859,0,1,1,5.719,0V48.61a6.672,6.672,0,1,0,13.344,0V35.266a35.266,35.266,0,0,0-70.532,0V48.61a6.672,6.672,0,0,0,6.672,6.672ZM29.547,35.266A31.469,31.469,0,0,1,54.328,4.539V33.36a1.906,1.906,0,1,0,3.813,0V3.959a31.835,31.835,0,0,1,5.719,0V23.828a1.906,1.906,0,0,0,3.813,0V4.55A31.583,31.583,0,0,1,92.454,35.266V48.61a2.859,2.859,0,1,1-5.719,0V44.8a6.672,6.672,0,1,0-13.344,0V48.61a2.859,2.859,0,1,1-5.719,0V44.8a6.672,6.672,0,0,0-13.344,0V48.61a2.859,2.859,0,1,1-5.719,0V44.8a6.672,6.672,0,0,0-13.344,0V48.61a2.859,2.859,0,0,1-5.719,0Z" fill="#252525"/>
            <path id="Trazado_982306" data-name="Trazado 982306" d="M42.891,59.094a6.672,6.672,0,1,0,6.672,6.672A6.672,6.672,0,0,0,42.891,59.094Zm0,9.531a2.859,2.859,0,1,1,2.859-2.859A2.859,2.859,0,0,1,42.891,68.625Z" fill="#252525"/>
            <path id="Trazado_982307" data-name="Trazado 982307" d="M61.953,72.182a1.906,1.906,0,0,0-.688,2.606,1.981,1.981,0,0,0,2.608.688,5.719,5.719,0,1,0-8.592-4.945,1.906,1.906,0,0,0,3.813,0,1.906,1.906,0,1,1,2.859,1.651Z" fill="#252525"/>
            <path id="Trazado_982308" data-name="Trazado 982308" d="M59.094,97.219a1.906,1.906,0,0,1,3.813,0,1.906,1.906,0,0,0,3.813,0,5.719,5.719,0,0,0-11.438,0,1.906,1.906,0,0,0,3.813,0Z" fill="#252525"/>
            <path id="Trazado_982309" data-name="Trazado 982309" d="M47.656,106.75a1.906,1.906,0,0,1-3.813,0,1.906,1.906,0,0,0-3.813,0,5.719,5.719,0,1,0,11.438,0,1.906,1.906,0,1,0-3.813,0Z" fill="#252525"/>
            <path id="Trazado_982310" data-name="Trazado 982310" d="M81.969,106.75a1.906,1.906,0,1,0-3.813,0,1.906,1.906,0,0,1-3.813,0,1.906,1.906,0,1,0-3.813,0,5.719,5.719,0,1,0,11.438,0Z" fill="#252525"/>
            <path id="Trazado_982311" data-name="Trazado 982311" d="M27.641,85.008a2.026,2.026,0,0,0,2.608-.688,1.906,1.906,0,0,0-.688-2.606,1.906,1.906,0,1,1,2.846-1.651,1.906,1.906,0,0,0,3.813,0,5.719,5.719,0,1,0-8.578,4.945Z" fill="#252525"/>
            <path id="Trazado_982312" data-name="Trazado 982312" d="M92.454,81.714a1.885,1.885,0,0,0-.688,2.606,2.1,2.1,0,0,0,2.608.688,5.719,5.719,0,1,0-8.592-4.945,1.906,1.906,0,0,0,3.813,0,1.906,1.906,0,1,1,2.859,1.651Z" fill="#252525"/>
            <path id="Trazado_982313" data-name="Trazado 982313" d="M79.11,59.094a6.672,6.672,0,1,0,6.672,6.672A6.672,6.672,0,0,0,79.11,59.094Zm0,9.531a2.859,2.859,0,1,1,2.859-2.859A2.859,2.859,0,0,1,79.11,68.625Z" fill="#252525"/>
            <circle id="Elipse_11651" data-name="Elipse 11651" cx="1.906" cy="1.906" r="1.906" transform="translate(63.86 30.5)" fill="#252525"/>
          </g>
        </g>
      </g>
    </g>
    <path id="Trazado_952692" data-name="Trazado 952692" d="M33.294,147.506s-.337,8.3-6.974,9.087c0,0,7.122,2.127,7.909,9.111,0,0,1.781-8.464,6.568-9.158,0,0-5.55-1.11-7.5-9.04" transform="translate(367.059 6323.903)" fill="#6b0b0c"/>
    <path id="Trazado_952694" data-name="Trazado 952694" d="M74.547,81.707s-.513,12.647-10.629,13.849c0,0,10.856,3.243,12.054,13.887,0,0,2.714-12.9,10.01-13.957,0,0-8.459-1.691-11.435-13.778" transform="translate(421.203 6444.397)" fill="#6b0b0c"/>
  </g>
</svg>
