<svg xmlns="http://www.w3.org/2000/svg" xmlns:xlink="http://www.w3.org/1999/xlink" width="133.032" height="122" viewBox="0 0 133.032 122">
  <defs>
    <clipPath id="clip-path">
      <rect id="Rect치ngulo_403288" data-name="Rect치ngulo 403288" width="122" height="122" transform="translate(179.668 5502)" fill="#fff" stroke="#707070" stroke-width="1"/>
    </clipPath>
  </defs>
  <g id="Grupo_1102807" data-name="Grupo 1102807" transform="translate(-389 -6445)">
    <g id="Grupo_1101953" data-name="Grupo 1101953" transform="translate(209.332 943)">
      <path id="Rect치ngulo_403287" data-name="Rect치ngulo 403287" d="M39,0h0A39,39,0,0,1,78,39v73a0,0,0,0,1,0,0H0a0,0,0,0,1,0,0V39A39,39,0,0,1,39,0Z" transform="translate(201.668 5512)" fill="#ffd839"/>
      <g id="Enmascarar_grupo_1098799" data-name="Enmascarar grupo 1098799" clip-path="url(#clip-path)">
        <g id="envio" transform="translate(177.7 5500.032)">
          <g id="Grupo_1102853" data-name="Grupo 1102853">
            <g id="Grupo_1102829" data-name="Grupo 1102829">
              <path id="Trazado_982275" data-name="Trazado 982275" d="M74.774,70.839V78.71H5.9a1.974,1.974,0,0,1-1.968-1.968V72.806A1.974,1.974,0,0,1,5.9,70.839H74.774Z" fill="#fc6e51"/>
            </g>
            <g id="Grupo_1102830" data-name="Grupo 1102830">
              <path id="Trazado_982276" data-name="Trazado 982276" d="M74.774,78.71v23.613H47.226a11.806,11.806,0,1,0-23.613,0H11.806a3.947,3.947,0,0,1-3.935-3.935V94.452H17.71l1.968-7.871H7.871V78.71Z" fill="#ff826e"/>
            </g>
            <g id="Grupo_1102831" data-name="Grupo 1102831">
              <path id="Trazado_982277" data-name="Trazado 982277" d="M122,92.484v5.9a3.947,3.947,0,0,1-3.935,3.935h-7.871a11.777,11.777,0,0,0-3.935-8.8V66.9L104.349,56.71a1.96,1.96,0,0,0-1.928-1.614H84.613a1.974,1.974,0,0,0-1.968,1.968v45.258H74.774V55.1a7.89,7.89,0,0,1,7.871-7.871h20.878A7.864,7.864,0,0,1,111.3,53.8l2.834,17.041,3.522,1.751A7.911,7.911,0,0,1,122,79.635v3.011h-7.871v5.9Z" fill="#ff826e"/>
            </g>
            <g id="Grupo_1102832" data-name="Grupo 1102832">
              <path id="Trazado_982278" data-name="Trazado 982278" d="M106.258,74.774V93.527a11.8,11.8,0,0,0-19.677,8.8H82.645V74.774h23.613Z" fill="#fc6e51"/>
            </g>
            <g id="Grupo_1102833" data-name="Grupo 1102833">
              <path id="Trazado_982279" data-name="Trazado 982279" d="M122,82.645v9.839l-7.871-3.935v-5.9Z" fill="#fcd770"/>
            </g>
            <g id="Grupo_1102834" data-name="Grupo 1102834">
              <path id="Trazado_982280" data-name="Trazado 982280" d="M19.677,86.581,17.71,94.452H7.871V86.581Z" fill="#fcd770"/>
            </g>
            <g id="Grupo_1102835" data-name="Grupo 1102835">
              <path id="Trazado_982281" data-name="Trazado 982281" d="M106.258,93.527a11.8,11.8,0,1,1-7.871-3.011A11.777,11.777,0,0,1,106.258,93.527Z" fill="#969faa"/>
            </g>
            <g id="Grupo_1102836" data-name="Grupo 1102836">
              <path id="Trazado_982282" data-name="Trazado 982282" d="M35.419,90.516a11.806,11.806,0,1,1-11.806,11.806A11.816,11.816,0,0,1,35.419,90.516Z" fill="#969faa"/>
            </g>
            <g id="Grupo_1102837" data-name="Grupo 1102837">
              <circle id="Elipse_11641" data-name="Elipse 11641" cx="3.935" cy="3.935" r="3.935" transform="translate(94.452 98.387)" fill="#ccd1d9"/>
            </g>
            <g id="Grupo_1102838" data-name="Grupo 1102838">
              <circle id="Elipse_11642" data-name="Elipse 11642" cx="3.935" cy="3.935" r="3.935" transform="translate(31.484 98.387)" fill="#ccd1d9"/>
            </g>
            <g id="Grupo_1102839" data-name="Grupo 1102839">
              <path id="Trazado_982283" data-name="Trazado 982283" d="M94.452,68.871a5.9,5.9,0,0,0,5.9,5.9H82.645V57.065A1.974,1.974,0,0,1,84.613,55.1h17.808a1.96,1.96,0,0,1,1.928,1.614L106.258,66.9H96.419A1.974,1.974,0,0,0,94.452,68.871Z" fill="#69d6f4"/>
            </g>
            <g id="Grupo_1102840" data-name="Grupo 1102840">
              <path id="Trazado_982284" data-name="Trazado 982284" d="M106.258,66.9v7.871h-5.9a5.9,5.9,0,0,1-5.9-5.9A1.974,1.974,0,0,1,96.419,66.9Z" fill="#aab2bd"/>
            </g>
            <g id="Grupo_1102841" data-name="Grupo 1102841">
              <path id="Trazado_982285" data-name="Trazado 982285" d="M7.871,51.161H31.484V70.839H7.871Z" fill="#d3a06c"/>
            </g>
            <g id="Grupo_1102842" data-name="Grupo 1102842">
              <path id="Trazado_982286" data-name="Trazado 982286" d="M31.484,51.161H55.1V70.839H31.484Z" fill="#d3a06c"/>
            </g>
            <g id="Grupo_1102843" data-name="Grupo 1102843">
              <path id="Trazado_982287" data-name="Trazado 982287" d="M55.1,51.161H78.71V70.839H55.1Z" fill="#d3a06c"/>
            </g>
            <g id="Grupo_1102844" data-name="Grupo 1102844">
              <path id="Trazado_982288" data-name="Trazado 982288" d="M19.677,31.484H43.29V51.161H19.677Z" fill="#d3a06c"/>
            </g>
            <g id="Grupo_1102845" data-name="Grupo 1102845">
              <path id="Trazado_982289" data-name="Trazado 982289" d="M43.29,31.484H66.9V51.161H43.29Z" fill="#d3a06c"/>
            </g>
            <g id="Grupo_1102846" data-name="Grupo 1102846">
              <path id="Trazado_982290" data-name="Trazado 982290" d="M31.484,11.806H55.1V31.484H31.484Z" fill="#d3a06c"/>
            </g>
            <g id="Grupo_1102847" data-name="Grupo 1102847">
              <path id="Trazado_982291" data-name="Trazado 982291" d="M39.355,11.806h7.871v7.871H39.355Z" fill="#b27946"/>
            </g>
            <g id="Grupo_1102848" data-name="Grupo 1102848">
              <path id="Trazado_982292" data-name="Trazado 982292" d="M35.419,31.484v7.871H27.548V31.484h7.871Z" fill="#b27946"/>
            </g>
            <g id="Grupo_1102849" data-name="Grupo 1102849">
              <path id="Trazado_982293" data-name="Trazado 982293" d="M59.032,31.484v7.871H51.161V31.484h7.871Z" fill="#b27946"/>
            </g>
            <g id="Grupo_1102850" data-name="Grupo 1102850">
              <path id="Trazado_982294" data-name="Trazado 982294" d="M66.9,51.161h8.934A7.85,7.85,0,0,0,74.774,55.1v3.935H62.968V51.161Z" fill="#b27946"/>
            </g>
            <g id="Grupo_1102851" data-name="Grupo 1102851">
              <path id="Trazado_982295" data-name="Trazado 982295" d="M47.226,51.161v7.871H39.355V51.161h7.871Z" fill="#b27946"/>
            </g>
            <g id="Grupo_1102852" data-name="Grupo 1102852">
              <path id="Trazado_982296" data-name="Trazado 982296" d="M23.613,51.161v7.871H15.742V51.161h7.871Z" fill="#b27946"/>
            </g>
          </g>
          <g id="Grupo_1102854" data-name="Grupo 1102854">
            <path id="Trazado_982297" data-name="Trazado 982297" d="M98.387,96.419a5.9,5.9,0,1,0,5.9,5.9A5.91,5.91,0,0,0,98.387,96.419Zm0,7.871a1.968,1.968,0,1,1,1.968-1.968A1.968,1.968,0,0,1,98.387,104.29Z"/>
            <path id="Trazado_982298" data-name="Trazado 982298" d="M35.419,96.419a5.9,5.9,0,1,0,5.9,5.9A5.91,5.91,0,0,0,35.419,96.419Zm0,7.871a1.968,1.968,0,1,1,1.968-1.968A1.968,1.968,0,0,1,35.419,104.29Z"/>
            <path id="Trazado_982299" data-name="Trazado 982299" d="M118.529,70.839,115.9,69.526,113.23,53.481a9.807,9.807,0,0,0-9.7-8.223H82.645a9.793,9.793,0,0,0-7.82,3.935H68.871V29.516H57.065V9.839H29.516V29.516H17.71V49.194H5.9V68.871a3.939,3.939,0,0,0-3.935,3.935v3.935A3.939,3.939,0,0,0,5.9,80.677v17.71a5.91,5.91,0,0,0,5.9,5.9h10a13.756,13.756,0,0,0,27.234,0H84.77a13.756,13.756,0,0,0,27.234,0h6.061a5.91,5.91,0,0,0,5.9-5.9V79.638A9.788,9.788,0,0,0,118.529,70.839Zm1.5,18.461L116.1,87.332V84.613h3.935ZM41.323,53.129h3.935v3.935H41.323ZM49.194,61V53.129h3.935V68.871H33.452V53.129h3.935V61Zm23.613,7.871H57.065V53.129H61V61H72.806Zm0-13.774v1.968H64.935V53.129h8.07a9.829,9.829,0,0,0-.2,1.968Zm-7.871-5.9H45.258V33.452h3.935v7.871H61V33.452h3.935ZM53.129,33.452h3.935v3.935H53.129ZM41.323,13.774h3.935V17.71H41.323Zm-7.871,0h3.935v7.871H49.194V13.774h3.935V29.516H33.452ZM29.516,33.452h3.935v3.935H29.516Zm-7.871,0h3.935v7.871H37.387V33.452h3.935V49.194H21.645ZM17.71,53.129h3.935v3.935H17.71Zm-7.871,0h3.935V61H25.581V53.129h3.935V68.871H9.839ZM5.9,72.806h66.9v3.935H5.9ZM9.839,88.548h7.318l-.984,3.935H9.839Zm0,9.839V96.419h9.408L22.2,84.613H9.839V80.677H72.806v19.677H49.036a13.756,13.756,0,0,0-27.234,0h-10A1.968,1.968,0,0,1,9.839,98.387Zm25.581,13.774a9.839,9.839,0,1,1,9.839-9.839A9.85,9.85,0,0,1,35.419,112.161Zm61-43.29h7.871v3.935h-3.935A3.939,3.939,0,0,1,96.419,68.871Zm0-3.935a3.939,3.939,0,0,0-3.935,3.935,7.79,7.79,0,0,0,1.094,3.935H84.613V57.065h17.8l1.474,7.871ZM84.613,76.742H104.29V89.9a13.723,13.723,0,0,0-19.52,10.459h-.157Zm13.774,35.419a9.839,9.839,0,1,1,9.839-9.839A9.85,9.85,0,0,1,98.387,112.161Zm19.677-11.806H112a13.729,13.729,0,0,0-3.778-7.653V66.9l-1.942-10.559a3.937,3.937,0,0,0-3.869-3.215h-17.8a3.939,3.939,0,0,0-3.935,3.935v43.29H76.742V55.1a5.91,5.91,0,0,1,5.9-5.9h20.88a5.885,5.885,0,0,1,5.823,4.933l3,18.025,4.416,2.208a5.874,5.874,0,0,1,3.264,5.279v1.039h-7.871v9.087l7.871,3.935v4.687A1.968,1.968,0,0,1,118.065,100.355Z"/>
          </g>
        </g>
      </g>
    </g>
    <path id="Trazado_952692" data-name="Trazado 952692" d="M33.294,147.506s-.337,8.3-6.974,9.087c0,0,7.122,2.127,7.909,9.111,0,0,1.781-8.464,6.568-9.158,0,0-5.55-1.11-7.5-9.04" transform="translate(362.68 6308.903)" fill="#6b0b0c"/>
    <path id="Trazado_952694" data-name="Trazado 952694" d="M74.547,81.707s-.513,12.647-10.629,13.849c0,0,10.856,3.243,12.054,13.887,0,0,2.714-12.9,10.01-13.957,0,0-8.459-1.691-11.435-13.778" transform="translate(436.05 6392.9)" fill="#6b0b0c"/>
  </g>
</svg>
