<svg xmlns="http://www.w3.org/2000/svg" xmlns:xlink="http://www.w3.org/1999/xlink" width="78.067" height="73" viewBox="0 0 78.067 73">
  <defs>
    <clipPath id="clip-path">
      <rect id="Rectángulo_403255" data-name="Rectángulo 403255" width="78.067" height="60.152" fill="none"/>
    </clipPath>
    <clipPath id="clip-path-3">
      <rect id="Rectángulo_403231" data-name="Rectángulo 403231" width="40.282" height="27.893" fill="none"/>
    </clipPath>
    <clipPath id="clip-path-5">
      <rect id="Rectángulo_403233" data-name="Rectángulo 403233" width="20.8" height="3.002" fill="none"/>
    </clipPath>
    <clipPath id="clip-path-7">
      <rect id="Rectángulo_403235" data-name="Rectángulo 403235" width="20.8" height="2.629" fill="none"/>
    </clipPath>
    <clipPath id="clip-path-11">
      <rect id="Rectángulo_403239" data-name="Rectángulo 403239" width="4.392" height="2.478" fill="none"/>
    </clipPath>
    <clipPath id="clip-path-13">
      <rect id="Rectángulo_403241" data-name="Rectángulo 403241" width="4.393" height="2.477" fill="none"/>
    </clipPath>
    <clipPath id="clip-path-19">
      <rect id="Rectángulo_403247" data-name="Rectángulo 403247" width="4.393" height="2.478" fill="none"/>
    </clipPath>
    <clipPath id="clip-path-21">
      <rect id="Rectángulo_403249" data-name="Rectángulo 403249" width="6.907" height="10.221" fill="none"/>
    </clipPath>
    <clipPath id="clip-path-25">
      <rect id="Rectángulo_403253" data-name="Rectángulo 403253" width="9.395" height="7.203" fill="none"/>
    </clipPath>
  </defs>
  <g id="Grupo_1102765" data-name="Grupo 1102765" transform="translate(-940.433 -283)">
    <circle id="Elipse_11616" data-name="Elipse 11616" cx="34" cy="34" r="34" transform="translate(947.5 283)" fill="#ffd839"/>
    <g id="Grupo_1101873" data-name="Grupo 1101873" transform="translate(940.433 295.849)">
      <g id="Grupo_1101872" data-name="Grupo 1101872" clip-path="url(#clip-path)">
        <g id="Grupo_1101816" data-name="Grupo 1101816" transform="translate(0 0)">
          <g id="Grupo_1101815" data-name="Grupo 1101815" clip-path="url(#clip-path)">
            <g id="Grupo_1101814" data-name="Grupo 1101814" transform="translate(11.565 8.591)" opacity="0.3">
              <g id="Grupo_1101813" data-name="Grupo 1101813">
                <g id="Grupo_1101812" data-name="Grupo 1101812" clip-path="url(#clip-path-3)">
                  <path id="Trazado_890121" data-name="Trazado 890121" d="M20.856,38.121l5.769-1.589,5.781-2.292,10.586-4.869L51.815,23.8,55.4,19.588l-.236-3.559-.882-2.451-3.847-2.347H46.22l-4.077.7-5.737,2.789-9.163,7.1-6.007,6.307-3.122,4.3-2.993,5.307,2.42,1.4Z" transform="translate(-15.121 -11.232)"/>
                </g>
              </g>
            </g>
          </g>
        </g>
        <path id="Trazado_890122" data-name="Trazado 890122" d="M14.888,27.062l2.106-4.639,3.095-5.492,6.387-6.087L30.6,8.462l.838,1.916L16.1,27.521Z" transform="translate(-3.501 -1.99)" fill="#87451b"/>
        <path id="Trazado_890123" data-name="Trazado 890123" d="M48.82,0,41.547.279,30.82,6.472l-7.249,6.584-4.423,6.26-3.333,5.347,1,.578,5.836-3.2,6.07-5.548,9.21-4.993L47.77,6.053l4.9-3.832Z" transform="translate(-3.719 0)" fill="#9e6131"/>
        <path id="Trazado_890124" data-name="Trazado 890124" d="M55.7,7.616l-3.269,5.47L41.09,19.439l-8.725,3.97-8.253,2.614-6.279,1.13-.708-1.228L22.2,21.58l6.3-5.174,8.466-5.881L47.691,4.331,52.975,2.9Z" transform="translate(-4.027 -0.683)" fill="#87451b"/>
        <path id="Trazado_890125" data-name="Trazado 890125" d="M17.125,34.813l5.07.5,6.3.066,8.466-2.488L41.091,30.5,39.85,28.821,17.333,33.536Z" transform="translate(-4.027 -6.777)" fill="#573711"/>
        <path id="Trazado_890126" data-name="Trazado 890126" d="M55.913,13.507l-3.879,6.159L41.309,25.859l-9.327,2.985-7.632.7-6.3.213V28.6l6.3-2.218,7.632-2.872,9.326-4.39,10.726-6.193,3.879-3.863Z" transform="translate(-4.245 -2.132)" fill="#6b3b14"/>
        <path id="Trazado_890127" data-name="Trazado 890127" d="M14.888,32.655v1.157l.709,1.228,1,.579.709-.409V34.052L16.6,32.824l-1-.578Z" transform="translate(-3.501 -7.582)" fill="#87451b"/>
        <g id="Grupo_1101821" data-name="Grupo 1101821" transform="translate(0 0)">
          <g id="Grupo_1101820" data-name="Grupo 1101820" clip-path="url(#clip-path)">
            <g id="Grupo_1101819" data-name="Grupo 1101819" transform="translate(0 40.066)" opacity="0.3">
              <g id="Grupo_1101818" data-name="Grupo 1101818">
                <g id="Grupo_1101817" data-name="Grupo 1101817" clip-path="url(#clip-path-5)">
                  <path id="Trazado_890128" data-name="Trazado 890128" d="M0,54.3l6.084.88,4.851.2,7.282-.912L20.8,52.412l-15.043-.03Z" transform="translate(0 -52.382)"/>
                </g>
              </g>
            </g>
          </g>
        </g>
        <path id="Trazado_890129" data-name="Trazado 890129" d="M23,52.005l2.607-1.039-.025-1.249-1.027-1.142-4.1-2.341.308,3.007Z" transform="translate(-4.812 -10.871)" fill="#79995a"/>
        <path id="Trazado_890130" data-name="Trazado 890130" d="M3.9,49.039,0,53.1l5.5-.416,5.405.35-.155-3.612L8.368,47.26Z" transform="translate(0 -11.113)" fill="#9fb366"/>
        <path id="Trazado_890131" data-name="Trazado 890131" d="M18.225,46.234l-7.285.786,2.541,5.772,7.285-.786Z" transform="translate(-2.572 -10.871)" fill="#87a15f"/>
        <path id="Trazado_890132" data-name="Trazado 890132" d="M21.8,49.974l.31.132,3.789.457-3.912-.734Z" transform="translate(-5.126 -11.717)" fill="#87a15f"/>
        <path id="Trazado_890133" data-name="Trazado 890133" d="M4.532,51.569,0,53.944l4.656-2.095L9.7,51.132l.238-.165-.363-.116Z" transform="translate(0 -11.957)" fill="#cfdb77"/>
        <path id="Trazado_890134" data-name="Trazado 890134" d="M12.644,50.892l7.285-.786-.122-.276-7.287.781Z" transform="translate(-2.944 -11.717)" fill="#9fb366"/>
        <g id="Grupo_1101826" data-name="Grupo 1101826" transform="translate(0 0)">
          <g id="Grupo_1101825" data-name="Grupo 1101825" clip-path="url(#clip-path)">
            <g id="Grupo_1101824" data-name="Grupo 1101824" transform="translate(57.267 22.648)" opacity="0.3">
              <g id="Grupo_1101823" data-name="Grupo 1101823">
                <g id="Grupo_1101822" data-name="Grupo 1101822" clip-path="url(#clip-path-7)">
                  <path id="Trazado_890135" data-name="Trazado 890135" d="M95.673,31.292l-6.084.771-4.851.176-7.282-.8-2.584-1.805,15.043-.026Z" transform="translate(-74.873 -29.61)"/>
                </g>
              </g>
            </g>
          </g>
        </g>
        <path id="Trazado_890136" data-name="Trazado 890136" d="M77.479,29.28l-2.606-.909.025-1.095,1.027-1,4.1-2.05-.308,2.633Z" transform="translate(-17.605 -5.696)" fill="#79995a"/>
        <path id="Trazado_890137" data-name="Trazado 890137" d="M87.958,27.017,87.8,30.18l5.406-.307,5.5.365-3.9-3.556-4.468-1.557Z" transform="translate(-20.646 -5.908)" fill="#9fb366"/>
        <path id="Trazado_890138" data-name="Trazado 890138" d="M80.822,24.225l7.284.688-2.541,5.056-7.285-.689Z" transform="translate(-18.406 -5.696)" fill="#87a15f"/>
        <path id="Trazado_890139" data-name="Trazado 890139" d="M74.906,28.016l3.789-.4L79,27.5l-.187-.128Z" transform="translate(-17.613 -6.437)" fill="#87a15f"/>
        <path id="Trazado_890140" data-name="Trazado 890140" d="M89.073,28.37l.238.145,5.046.629,4.655,1.833L94.479,28.9l-5.044-.629Z" transform="translate(-20.944 -6.647)" fill="#cfdb77"/>
        <path id="Trazado_890141" data-name="Trazado 890141" d="M87.145,28.3l-7.284-.688.122-.242,7.287.684Z" transform="translate(-18.778 -6.437)" fill="#9fb366"/>
        <g id="Grupo_1101831" data-name="Grupo 1101831" transform="translate(0 0)">
          <g id="Grupo_1101830" data-name="Grupo 1101830" clip-path="url(#clip-path)">
            <g id="Grupo_1101829" data-name="Grupo 1101829" transform="translate(17.923 24.735)" opacity="0.3">
              <g id="Grupo_1101828" data-name="Grupo 1101828">
                <g id="Grupo_1101827" data-name="Grupo 1101827" clip-path="url(#clip-path-3)">
                  <path id="Trazado_890142" data-name="Trazado 890142" d="M28.95,58.887l3.2-.873,8.567-2.666,10.586-4.87L60.127,44.9l3.588-4.208-.236-3.559L62.6,34.685l-3.846-2.347H54.533l-4.077.7-5.737,2.79-9.163,7.095-6.007,6.307L26.039,56l-2.606,2.835,2.42,1.4Z" transform="translate(-23.433 -32.338)"/>
                </g>
              </g>
            </g>
          </g>
        </g>
        <path id="Trazado_890143" data-name="Trazado 890143" d="M60.471,29.387,48.9,33.127,35.346,41.172,32.1,46.395l1.482,2.188,12.7-3.687L59.9,37.349l4.731-5.916Z" transform="translate(-7.548 -6.91)" fill="#805218"/>
        <path id="Trazado_890144" data-name="Trazado 890144" d="M57.785,29.287l-9.214,3.563-8,5.256L34.95,42.411,31,47.139l-5.984,1.27,6.618-11.136L40.568,30.2,51.536,23.85h5.646L58.8,26.3Z" transform="translate(-5.882 -5.608)" fill="#754b16"/>
        <path id="Trazado_890145" data-name="Trazado 890145" d="M55.463,24.369l-3.412.941-5.3,2.77-8.4,5.151-6.14,5.391-6.557,8.4-1.489-1.182,2.6-3.029,3.255-6.319,6-6.313,8.935-6.829L50.7,20.528h4.763l1.108.968v2Z" transform="translate(-5.682 -4.827)" fill="#6b3b14"/>
        <path id="Trazado_890146" data-name="Trazado 890146" d="M65.085,20.957V24.47L67.327,28.6l3.154,1.677L73.1,27.8,71.985,24.47l-5.717-3.513Z" transform="translate(-15.304 -4.928)" fill="#634013"/>
        <path id="Trazado_890147" data-name="Trazado 890147" d="M57.141,26.474l.057-.828.532-.9.708-.649.987-.46h1.185l.283.306.273.5-.075.928-.584.768-.957.688-1.035.3-.933-.09Z" transform="translate(-13.436 -5.558)" fill="#693121"/>
        <path id="Trazado_890148" data-name="Trazado 890148" d="M58.719,26.846l1.044-.512.842-.751.4-.735.028-.81.414.445-.051,1.072-.628.834-1.024.649-1.125.332-.9-.233Z" transform="translate(-13.571 -5.652)" fill="#4a2317"/>
        <path id="Trazado_890149" data-name="Trazado 890149" d="M57.468,26.331l.057-.6.409-.756.768-.691.812-.356.45.115-1.061.464-.687.627-.424.7Z" transform="translate(-13.513 -5.626)" fill="#944e39"/>
        <path id="Trazado_890150" data-name="Trazado 890150" d="M61.514,25.7l-.011-.829.457-.942.652-.7.947-.54,1.179-.1.308.281.313.477v.932l-.519.813-.9.764-1.007.387L62,26.233Z" transform="translate(-14.462 -5.312)" fill="#693121"/>
        <path id="Trazado_890151" data-name="Trazado 890151" d="M63.127,25.948l1-.6.778-.818.336-.766L65.2,22.96l.448.41.036,1.072-.556.883-.968.731-1.095.422-.912-.158Z" transform="translate(-14.614 -5.399)" fill="#4a2317"/>
        <path id="Trazado_890152" data-name="Trazado 890152" d="M61.821,25.569l.007-.6.346-.787.708-.753.781-.42.457.076-1.019.551-.633.68-.365.738Z" transform="translate(-14.536 -5.41)" fill="#944e39"/>
        <path id="Trazado_890153" data-name="Trazado 890153" d="M36.029,39.255l.229-.8.71-.769L37.8,37.2l1.062-.242,1.156.249.213.358.163.548-.27.892-.732.628-1.079.472-1.076.08-.894-.284Z" transform="translate(-8.472 -8.691)" fill="#693121"/>
        <path id="Trazado_890154" data-name="Trazado 890154" d="M37.477,40.015l1.128-.281.981-.558.542-.636.2-.786.311.522-.275,1.036L39.572,40l-1.137.419-1.169.088-.828-.415Z" transform="translate(-8.568 -8.877)" fill="#4a2317"/>
        <path id="Trazado_890155" data-name="Trazado 890155" d="M36.407,39.167l.181-.573.56-.654.9-.516.868-.176.416.206-1.136.232-.8.468-.563.6Z" transform="translate(-8.561 -8.758)" fill="#944e39"/>
        <path id="Trazado_890156" data-name="Trazado 890156" d="M39.592,36.566l.229-.642.71-.621.829-.392,1.062-.2,1.157.2.213.289.163.441-.269.718-.732.506-1.08.381-1.075.064-.894-.229Z" transform="translate(-9.309 -8.163)" fill="#693121"/>
        <path id="Trazado_890157" data-name="Trazado 890157" d="M41.039,37.179l1.128-.226.981-.45.542-.512.2-.634.311.421-.275.836-.788.551L42,37.5l-1.169.071L40,37.239Z" transform="translate(-9.405 -8.314)" fill="#4a2317"/>
        <path id="Trazado_890158" data-name="Trazado 890158" d="M39.969,36.5l.181-.462.559-.527.9-.415.868-.143.416.167-1.136.187-.8.378-.563.483Z" transform="translate(-9.398 -8.217)" fill="#944e39"/>
        <path id="Trazado_890159" data-name="Trazado 890159" d="M44.38,33.888l.073-.678L45,32.44l.714-.574.987-.439,1.173-.075.275.231.262.392-.094.761-.594.663-.961.623-1.031.314-.923-.013Z" transform="translate(-10.435 -7.372)" fill="#693121"/>
        <path id="Trazado_890160" data-name="Trazado 890160" d="M45.933,34.092l1.043-.485.85-.666.407-.625.043-.662.4.337-.072.877-.638.721-1.027.594-1.121.343-.884-.132Z" transform="translate(-10.566 -7.443)" fill="#4a2317"/>
        <path id="Trazado_890161" data-name="Trazado 890161" d="M44.709,33.777l.067-.492.421-.642.773-.614.812-.341.443.064-1.06.447-.691.555-.434.6Z" transform="translate(-10.513 -7.451)" fill="#944e39"/>
        <path id="Trazado_890162" data-name="Trazado 890162" d="M52.65,31.043l-.245-.636.135-.933.374-.837.678-.841,1.01-.6.35.081.41.229.265.721-.227.861-.571.992-.775.749-.828.409Z" transform="translate(-12.322 -6.394)" fill="#693121"/>
        <path id="Trazado_890163" data-name="Trazado 890163" d="M54.229,30.538l.707-.907.454-.98.077-.743L55.2,27.3l.509.116.336.813-.24.933-.642,1-.842.816-.847.285Z" transform="translate(-12.575 -6.419)" fill="#4a2317"/>
        <path id="Trazado_890164" data-name="Trazado 890164" d="M52.854,30.948l-.164-.467.081-.765.41-.9.566-.673L54.172,28l-.74.881-.363.809-.112.734Z" transform="translate(-12.389 -6.584)" fill="#944e39"/>
        <path id="Trazado_890165" data-name="Trazado 890165" d="M65.061,27.677l-.343-.756.039-1.046.315-.908.649-.875,1.042-.561.395.134.479.311.375.852-.148.953-.513,1.061-.766.76-.864.365Z" transform="translate(-15.217 -5.533)" fill="#693121"/>
        <path id="Trazado_890166" data-name="Trazado 890166" d="M66.769,27.275l.674-.947.384-1.062v-.835l-.362-.726.576.2.464.967L68.35,25.9l-.592,1.058-.832.827-.9.222Z" transform="translate(-15.525 -5.574)" fill="#4a2317"/>
        <path id="Trazado_890167" data-name="Trazado 890167" d="M65.25,27.567l-.235-.554v-.86l.346-.974.546-.7.45-.114-.711.914-.307.877-.037.821Z" transform="translate(-15.287 -5.73)" fill="#944e39"/>
        <path id="Trazado_890168" data-name="Trazado 890168" d="M55.479,29.789,55.725,29l.726-.755.838-.468,1.067-.221,1.152.273.2.363.151.55-.287.886-.745.613-1.089.451-1.078.057-.887-.3Z" transform="translate(-13.045 -6.479)" fill="#693121"/>
        <path id="Trazado_890169" data-name="Trazado 890169" d="M56.911,30.586l1.134-.258.993-.538.555-.623.213-.782.3.528-.3,1.031-.8.668-1.147.4-1.171.064-.82-.434Z" transform="translate(-13.137 -6.674)" fill="#4a2317"/>
        <path id="Trazado_890170" data-name="Trazado 890170" d="M55.862,29.708l.193-.57.571-.642.907-.5.872-.158.411.214-1.14.209-.812.451-.575.589Z" transform="translate(-13.135 -6.546)" fill="#944e39"/>
        <path id="Trazado_890171" data-name="Trazado 890171" d="M49.32,33l.246-.792.725-.755.839-.469,1.067-.22,1.152.273.2.363.151.551-.287.886-.745.613-1.089.45-1.078.057-.887-.3Z" transform="translate(-11.597 -7.234)" fill="#693121"/>
        <path id="Trazado_890172" data-name="Trazado 890172" d="M50.751,33.8l1.134-.259L52.877,33l.556-.625.212-.782.3.528-.3,1.032-.8.668-1.146.4-1.172.063-.819-.433Z" transform="translate(-11.689 -7.43)" fill="#4a2317"/>
        <path id="Trazado_890173" data-name="Trazado 890173" d="M49.7,32.921l.192-.569.572-.642.907-.5.872-.158.411.215-1.14.208-.812.451-.574.589Z" transform="translate(-11.687 -7.302)" fill="#944e39"/>
        <path id="Trazado_890174" data-name="Trazado 890174" d="M47.79,33.592l.626-.544,1.014-.26.96.043,1.023.374.835.838-.016.417-.161.548-.711.6-.955.129-1.163-.19-.947-.519-.6-.724Z" transform="translate(-11.216 -7.71)" fill="#693121"/>
        <path id="Trazado_890175" data-name="Trazado 890175" d="M48.613,35.274l1.1.377,1.128.066.8-.238.592-.554-.023.607-.794.721-1.034.145L49.2,36.132l-1.03-.562-.469-.8Z" transform="translate(-11.216 -8.176)" fill="#4a2317"/>
        <path id="Trazado_890176" data-name="Trazado 890176" d="M48.246,33.681l.463-.383.825-.245,1.033.054.825.325.237.4-1.079-.422-.928-.044-.8.2Z" transform="translate(-11.344 -7.772)" fill="#944e39"/>
        <path id="Trazado_890177" data-name="Trazado 890177" d="M43.124,37.181l.174-.811.655-.816.794-.542,1.043-.315,1.172.171.237.342.2.536-.208.907-.686.677-1.046.545-1.068.152-.912-.222Z" transform="translate(-10.14 -8.159)" fill="#693121"/>
        <path id="Trazado_890178" data-name="Trazado 890178" d="M44.62,37.818l1.106-.358.941-.623.5-.672.142-.8.346.5-.2,1.053-.74.737-1.106.5-1.161.168-.855-.359Z" transform="translate(-10.249 -8.316)" fill="#4a2317"/>
        <path id="Trazado_890179" data-name="Trazado 890179" d="M43.487,37.075l.141-.584.513-.691L45,35.225l.854-.236.43.177-1.117.309L44.4,36l-.521.637Z" transform="translate(-10.225 -8.227)" fill="#944e39"/>
        <path id="Trazado_890180" data-name="Trazado 890180" d="M39.4,39.907l.229-.8.711-.769.828-.486,1.062-.242,1.156.25.213.358.163.548-.27.892-.731.627-1.08.473-1.076.08-.894-.284Z" transform="translate(-9.264 -8.844)" fill="#693121"/>
        <path id="Trazado_890181" data-name="Trazado 890181" d="M40.846,40.667l1.127-.281.981-.558.543-.636.2-.786.311.522-.275,1.036-.789.685-1.137.419-1.169.088-.828-.415Z" transform="translate(-9.36 -9.031)" fill="#4a2317"/>
        <path id="Trazado_890182" data-name="Trazado 890182" d="M39.776,39.819l.181-.572.559-.655.9-.516.868-.176.417.206-1.136.232-.8.468-.563.6Z" transform="translate(-9.353 -8.912)" fill="#944e39"/>
        <path id="Trazado_890183" data-name="Trazado 890183" d="M33.218,42.7l.268-.784.747-.734.852-.444,1.072-.19,1.143.306.2.369.135.555-.313.877-.762.591-1.1.419-1.078.026-.88-.328Z" transform="translate(-7.811 -9.534)" fill="#693121"/>
        <path id="Trazado_890184" data-name="Trazado 890184" d="M34.626,43.545l1.14-.226,1.008-.509.573-.608.235-.776.285.537-.327,1.021-.821.646-1.156.363-1.173.03-.807-.456Z" transform="translate(-7.897 -9.741)" fill="#4a2317"/>
        <path id="Trazado_890185" data-name="Trazado 890185" d="M33.606,42.625l.208-.564.591-.625.919-.471.877-.133.405.226-1.146.175-.824.428-.591.572Z" transform="translate(-7.902 -9.601)" fill="#944e39"/>
        <path id="Trazado_890186" data-name="Trazado 890186" d="M59.875,29.126l-.011-.829.457-.942.652-.7.946-.54,1.18-.1.307.281.314.477V27.7l-.519.813-.9.765-1.007.387-.938-.014Z" transform="translate(-14.076 -6.117)" fill="#693121"/>
        <path id="Trazado_890187" data-name="Trazado 890187" d="M61.488,29.37l1-.6.778-.818.336-.766-.04-.809.449.41.036,1.072-.557.883-.967.73-1.1.423-.912-.158Z" transform="translate(-14.229 -6.203)" fill="#4a2317"/>
        <path id="Trazado_890188" data-name="Trazado 890188" d="M60.182,28.992l.007-.6.346-.788.708-.753.781-.42.457.076-1.019.551-.633.68-.365.738Z" transform="translate(-14.151 -6.215)" fill="#944e39"/>
        <path id="Trazado_890189" data-name="Trazado 890189" d="M53.816,33.005l-.047-.828.414-.961.62-.734.921-.582,1.175-.148.32.267.335.463.042.93-.482.835-.861.8-.988.431-.938.03Z" transform="translate(-12.643 -6.996)" fill="#693121"/>
        <path id="Trazado_890190" data-name="Trazado 890190" d="M55.453,33.18l.97-.64.741-.852.3-.78-.076-.806.467.389.085,1.069-.516.908-.934.773-1.075.471-.919-.116Z" transform="translate(-12.814 -7.078)" fill="#4a2317"/>
        <path id="Trazado_890191" data-name="Trazado 890191" d="M54.114,32.876l-.019-.6.309-.8.675-.783.76-.455.461.057-.994.6-.6.708-.33.753Z" transform="translate(-12.72 -7.109)" fill="#944e39"/>
        <path id="Trazado_890192" data-name="Trazado 890192" d="M63.81,29.469l.057-.827.532-.9.708-.649.987-.46,1.184,0,.283.305.273.5-.076.928-.584.767-.957.688-1.035.3-.934-.089Z" transform="translate(-15.004 -6.262)" fill="#693121"/>
        <path id="Trazado_890193" data-name="Trazado 890193" d="M65.387,29.841l1.044-.512.842-.751.4-.736.028-.809.414.444-.051,1.072-.628.834-1.025.649-1.124.332-.9-.233Z" transform="translate(-15.139 -6.356)" fill="#4a2317"/>
        <path id="Trazado_890194" data-name="Trazado 890194" d="M64.137,29.326l.057-.6.409-.756.768-.691.812-.355.45.114-1.061.465-.687.626-.424.705Z" transform="translate(-15.081 -6.331)" fill="#944e39"/>
        <path id="Trazado_890195" data-name="Trazado 890195" d="M31.177,46.932l-.118-.821.333-.993.558-.782.869-.656,1.159-.246.341.239.371.434.119.923L34.4,45.9l-.792.873-.949.512-.932.106Z" transform="translate(-7.303 -10.213)" fill="#693121"/>
        <path id="Trazado_890196" data-name="Trazado 890196" d="M32.849,46.976l.914-.718.668-.911.236-.8-.143-.8.5.35.173,1.059-.44.947-.867.848-1.032.558-.925-.04Z" transform="translate(-7.508 -10.286)" fill="#4a2317"/>
        <path id="Trazado_890197" data-name="Trazado 890197" d="M31.452,46.814l-.069-.6.242-.825.607-.838.72-.516.464.018-.941.675-.541.756-.268.778Z" transform="translate(-7.379 -10.355)" fill="#944e39"/>
        <path id="Trazado_890198" data-name="Trazado 890198" d="M37.742,43.769l-.2-.805.233-1.02.478-.834.8-.739,1.129-.359.363.2.412.395.21.907-.323.909-.7.947-.894.6-.916.2Z" transform="translate(-8.828 -9.408)" fill="#693121"/>
        <path id="Trazado_890199" data-name="Trazado 890199" d="M39.442,43.658l.839-.805.574-.971.155-.821-.22-.78.529.3.275,1.036-.343.986-.779.929-.971.659-.925.05Z" transform="translate(-9.071 -9.471)" fill="#4a2317"/>
        <path id="Trazado_890200" data-name="Trazado 890200" d="M37.99,43.657l-.128-.587.159-.845.522-.893.665-.584.464-.029-.87.766-.464.805-.189.8Z" transform="translate(-8.903 -9.574)" fill="#944e39"/>
        <path id="Trazado_890201" data-name="Trazado 890201" d="M43.33,39.532l.529-.639.958-.421.954-.114,1.071.2.961.691.052.414-.071.566-.6.71-.922.282-1.179,0-1.017-.357-.706-.618Z" transform="translate(-10.188 -9.019)" fill="#693121"/>
        <path id="Trazado_890202" data-name="Trazado 890202" d="M44.347,41l1.147.193,1.123-.118.752-.366.494-.642.076.6-.667.84-1,.312-1.211-.071-1.107-.387-.594-.712Z" transform="translate(-10.196 -9.421)" fill="#4a2317"/>
        <path id="Trazado_890203" data-name="Trazado 890203" d="M43.757,39.569l.4-.453.773-.376,1.028-.113.866.185.3.356-1.133-.242-.923.108-.756.326Z" transform="translate(-10.289 -9.082)" fill="#944e39"/>
        <path id="Trazado_890204" data-name="Trazado 890204" d="M46.357,37.894,46.6,37.1l.725-.755.838-.47,1.066-.222,1.152.273.207.362.151.551-.286.886-.744.613-1.089.451-1.077.058-.888-.3Z" transform="translate(-10.9 -8.384)" fill="#693121"/>
        <path id="Trazado_890205" data-name="Trazado 890205" d="M47.789,38.69l1.134-.259.993-.538.555-.624.213-.782.3.528-.3,1.031-.8.668-1.146.4-1.172.065-.818-.432Z" transform="translate(-10.992 -8.579)" fill="#4a2317"/>
        <path id="Trazado_890206" data-name="Trazado 890206" d="M46.739,37.812l.192-.569L47.5,36.6l.906-.5.87-.159.412.214-1.139.209-.812.453-.574.589Z" transform="translate(-10.99 -8.452)" fill="#944e39"/>
        <path id="Trazado_890207" data-name="Trazado 890207" d="M51.438,36.441l.057-.828.532-.9.708-.649.988-.46h1.183l.284.306.273.5-.076.928-.584.768-.956.688-1.035.3-.934-.09Z" transform="translate(-12.095 -7.901)" fill="#693121"/>
        <path id="Trazado_890208" data-name="Trazado 890208" d="M53.016,36.813,54.06,36.3l.842-.751.4-.735.028-.81.414.445-.052,1.072-.627.834L54.037,37l-1.125.332-.9-.233Z" transform="translate(-12.231 -7.996)" fill="#4a2317"/>
        <path id="Trazado_890209" data-name="Trazado 890209" d="M51.766,36.3l.057-.6.408-.756L53,34.251l.812-.355.451.114-1.061.465-.687.626-.424.705Z" transform="translate(-12.172 -7.97)" fill="#944e39"/>
        <path id="Trazado_890210" data-name="Trazado 890210" d="M57.222,33.491l.057-.828.532-.9.708-.649.987-.46h1.184l.284.305.273.5-.076.928-.584.768-.957.688-1.036.3-.933-.09Z" transform="translate(-13.455 -7.208)" fill="#693121"/>
        <path id="Trazado_890211" data-name="Trazado 890211" d="M58.8,33.863l1.043-.512.843-.751.4-.735.028-.81.413.445-.051,1.072-.628.834-1.024.649-1.125.332-.9-.233Z" transform="translate(-13.59 -7.302)" fill="#4a2317"/>
        <path id="Trazado_890212" data-name="Trazado 890212" d="M57.549,33.348l.057-.6.408-.757.769-.691.812-.355.451.114-1.062.465-.687.626-.424.705Z" transform="translate(-13.532 -7.276)" fill="#944e39"/>
        <path id="Trazado_890213" data-name="Trazado 890213" d="M67.419,29.508l-.032-.828.434-.953.636-.721.932-.563,1.178-.124.314.273.324.47.023.932-.5.825-.878.786-1,.411-.938.01Z" transform="translate(-15.845 -6.189)" fill="#693121"/>
        <path id="Trazado_890214" data-name="Trazado 890214" d="M69.044,29.714l.984-.62.757-.836.318-.773-.06-.808.459.4.062,1.071-.535.9-.95.754L69,30.245l-.917-.135Z" transform="translate(-16.008 -6.273)" fill="#4a2317"/>
        <path id="Trazado_890215" data-name="Trazado 890215" d="M67.721,29.376l-.007-.6.327-.8.69-.769.77-.439.46.066-1.006.575-.616.694-.347.747Z" transform="translate(-15.922 -6.295)" fill="#944e39"/>
        <path id="Trazado_890216" data-name="Trazado 890216" d="M60.785,33.147l-.149-.815.292-1.005.525-.8.842-.691,1.147-.292.351.226.388.418.156.918-.375.888-.756.9-.926.55-.928.145Z" transform="translate(-14.258 -6.946)" fill="#693121"/>
        <path id="Trazado_890217" data-name="Trazado 890217" d="M62.47,33.128l.885-.756.629-.936.2-.811-.175-.792.512.33.215,1.051-.4.964-.832.883-1.008.6-.926,0Z" transform="translate(-14.478 -7.015)" fill="#4a2317"/>
        <path id="Trazado_890218" data-name="Trazado 890218" d="M61.05,33.035l-.093-.594.209-.835.572-.86.7-.545.464,0-.913.714-.51.777-.236.789Z" transform="translate(-14.333 -7.101)" fill="#944e39"/>
        <path id="Trazado_890219" data-name="Trazado 890219" d="M55.227,36.519,55.2,35.69l.434-.953.636-.721.933-.563,1.176-.124.315.273.324.47.024.932-.5.825-.878.786-1,.411-.939.01Z" transform="translate(-12.979 -7.837)" fill="#693121"/>
        <path id="Trazado_890220" data-name="Trazado 890220" d="M56.852,36.725l.984-.62.757-.836.318-.773-.06-.808.459.4.061,1.071-.535.9-.949.753-1.083.449-.918-.135Z" transform="translate(-13.141 -7.921)" fill="#4a2317"/>
        <path id="Trazado_890221" data-name="Trazado 890221" d="M55.529,36.387l-.006-.6.326-.8.691-.769.769-.439.46.066-1.007.575-.616.694-.347.747Z" transform="translate(-13.056 -7.943)" fill="#944e39"/>
        <path id="Trazado_890222" data-name="Trazado 890222" d="M50.321,39.563l-.074-.825.385-.974.6-.753.9-.61,1.169-.184.328.257.348.453.071.928-.456.85-.837.831L51.782,40l-.937.058Z" transform="translate(-11.815 -8.516)" fill="#693121"/>
        <path id="Trazado_890223" data-name="Trazado 890223" d="M51.972,39.69l.951-.67.714-.874.278-.789-.1-.8.479.374.117,1.066-.489.923-.91.8-1.059.5-.922-.089Z" transform="translate(-11.999 -8.595)" fill="#4a2317"/>
        <path id="Trazado_890224" data-name="Trazado 890224" d="M50.611,39.438l-.037-.6.285-.812.65-.8.747-.478.463.042-.975.626-.581.727-.307.763Z" transform="translate(-11.892 -8.64)" fill="#944e39"/>
        <path id="Trazado_890225" data-name="Trazado 890225" d="M46.354,41.623l.1-.824.58-.871.741-.611,1.01-.407,1.182.064.268.32.246.515-.125.922-.623.736-.991.637-1.049.249-.928-.14Z" transform="translate(-10.899 -9.149)" fill="#693121"/>
        <path id="Trazado_890226" data-name="Trazado 890226" d="M47.9,42.095l1.069-.457.882-.705.436-.713.069-.807.391.466-.109,1.067-.67.8-1.058.594-1.14.272-.884-.279Z" transform="translate(-11.025 -9.267)" fill="#4a2317"/>
        <path id="Trazado_890227" data-name="Trazado 890227" d="M46.693,41.493l.089-.594.449-.734.8-.65.829-.311.444.138-1.085.408-.719.589-.46.681Z" transform="translate(-10.979 -9.218)" fill="#944e39"/>
        <path id="Trazado_890228" data-name="Trazado 890228" d="M40.494,44.054l.041-.828.516-.911.7-.662.979-.479,1.183-.021.29.3.281.5-.057.929-.57.778-.943.707-1.029.324-.935-.073Z" transform="translate(-9.522 -9.676)" fill="#693121"/>
        <path id="Trazado_890229" data-name="Trazado 890229" d="M42.079,44.4l1.034-.532.828-.767.383-.742.012-.811.422.437-.032,1.072-.611.847-1.013.668-1.118.353-.9-.216Z" transform="translate(-9.66 -9.769)" fill="#4a2317"/>
        <path id="Trazado_890230" data-name="Trazado 890230" d="M40.815,43.912l.046-.6.395-.765.754-.706.805-.369.453.1-1.052.485-.675.639-.411.714Z" transform="translate(-9.597 -9.752)" fill="#944e39"/>
        <path id="Trazado_890231" data-name="Trazado 890231" d="M34,46.457l.041-.828.516-.911.7-.662.978-.479,1.183-.021.291.3.281.5-.057.929-.57.778-.943.707-1.029.324-.935-.073Z" transform="translate(-7.994 -10.241)" fill="#693121"/>
        <path id="Trazado_890232" data-name="Trazado 890232" d="M35.584,46.8l1.034-.532.828-.766.383-.743.012-.81.422.437-.032,1.072-.611.847-1.012.668-1.119.353-.9-.216Z" transform="translate(-8.133 -10.334)" fill="#4a2317"/>
        <path id="Trazado_890233" data-name="Trazado 890233" d="M34.32,46.315l.046-.6.395-.764.754-.706.805-.37.452.106-1.052.485-.675.639-.411.714Z" transform="translate(-8.07 -10.317)" fill="#944e39"/>
        <path id="Trazado_890234" data-name="Trazado 890234" d="M64.193,32.707l.179-.809.662-.812.8-.536,1.045-.308,1.171.178.235.345.194.536-.213.906-.692.672-1.049.538-1.067.145-.911-.229Z" transform="translate(-15.094 -7.111)" fill="#693121"/>
        <path id="Trazado_890235" data-name="Trazado 890235" d="M65.684,33.358l1.11-.35.945-.617.5-.668.148-.8.343.5-.212,1.052-.745.731-1.11.489-1.162.159-.852-.364Z" transform="translate(-15.202 -7.272)" fill="#4a2317"/>
        <path id="Trazado_890236" data-name="Trazado 890236" d="M64.557,32.6l.146-.583.517-.687.863-.57.857-.229.428.18-1.119.3-.773.517-.525.634Z" transform="translate(-15.18 -7.18)" fill="#944e39"/>
        <path id="Trazado_890237" data-name="Trazado 890237" d="M65.334,34.813l.179-.81.662-.812.8-.535,1.045-.308,1.17.178.235.345.194.536-.213.906-.692.672-1.049.538-1.068.146-.911-.229Z" transform="translate(-15.362 -7.606)" fill="#693121"/>
        <path id="Trazado_890238" data-name="Trazado 890238" d="M66.826,35.463l1.109-.351.945-.616.5-.667.148-.8.343.5-.212,1.052-.745.732-1.11.488-1.162.159-.852-.363Z" transform="translate(-15.47 -7.767)" fill="#4a2317"/>
        <path id="Trazado_890239" data-name="Trazado 890239" d="M65.7,34.708l.146-.583.518-.687.862-.57.857-.229.428.18-1.119.3-.773.517-.525.634Z" transform="translate(-15.448 -7.675)" fill="#944e39"/>
        <path id="Trazado_890240" data-name="Trazado 890240" d="M58.188,36.326l.179-.809.662-.812.8-.536,1.045-.308,1.17.178.235.344.194.537-.213.906-.693.672-1.049.538-1.067.145-.911-.229Z" transform="translate(-13.682 -7.962)" fill="#693121"/>
        <path id="Trazado_890241" data-name="Trazado 890241" d="M59.679,36.976l1.109-.351.945-.616.5-.668.148-.8.343.5L62.515,36.1l-.745.732-1.11.489-1.162.159-.852-.364Z" transform="translate(-13.79 -8.123)" fill="#4a2317"/>
        <path id="Trazado_890242" data-name="Trazado 890242" d="M58.551,36.222l.146-.583.518-.688.862-.568.857-.229.428.18-1.119.3-.773.517-.525.634Z" transform="translate(-13.767 -8.031)" fill="#944e39"/>
        <path id="Trazado_890243" data-name="Trazado 890243" d="M55.021,41.585l.179-.81.662-.812.8-.535L57.7,39.12l1.17.179.235.344.194.536-.213.906-.692.672-1.049.538-1.067.145-.911-.229Z" transform="translate(-12.937 -9.199)" fill="#693121"/>
        <path id="Trazado_890244" data-name="Trazado 890244" d="M56.512,42.235l1.109-.35.945-.616.5-.668.148-.8.343.5-.212,1.051-.745.732-1.11.489-1.162.158-.853-.363Z" transform="translate(-13.045 -9.359)" fill="#4a2317"/>
        <path id="Trazado_890245" data-name="Trazado 890245" d="M55.384,41.481l.146-.583.518-.688.862-.569.857-.229.428.181-1.12.3-.772.517-.525.634Z" transform="translate(-13.023 -9.267)" fill="#944e39"/>
        <path id="Trazado_890246" data-name="Trazado 890246" d="M45.5,46.02l.179-.81.662-.812.8-.536,1.045-.307,1.17.179.235.343.194.537-.213.906-.692.672-1.049.538-1.067.145-.911-.229Z" transform="translate(-10.698 -10.241)" fill="#693121"/>
        <path id="Trazado_890247" data-name="Trazado 890247" d="M46.987,46.67l1.109-.35.945-.616.5-.668.148-.8.343.5-.212,1.052-.745.732-1.11.488-1.162.159-.852-.363Z" transform="translate(-10.805 -10.402)" fill="#4a2317"/>
        <path id="Trazado_890248" data-name="Trazado 890248" d="M45.859,45.916,46,45.333l.518-.688.862-.569.857-.229.428.18-1.119.3-.773.516-.525.634Z" transform="translate(-10.783 -10.31)" fill="#944e39"/>
        <path id="Trazado_890249" data-name="Trazado 890249" d="M37.037,48.981l.18-.81.661-.812.8-.535,1.045-.308,1.17.178.235.344.2.537-.213.906-.692.672-1.049.538-1.068.145-.91-.229Z" transform="translate(-8.709 -10.938)" fill="#693121"/>
        <path id="Trazado_890250" data-name="Trazado 890250" d="M38.528,49.631l1.11-.35.945-.616.5-.668.147-.8.343.5-.212,1.051-.744.732-1.111.489-1.161.159-.853-.364Z" transform="translate(-8.816 -11.098)" fill="#4a2317"/>
        <path id="Trazado_890251" data-name="Trazado 890251" d="M37.4,48.877l.146-.583.517-.688.863-.569.857-.229.428.181-1.119.3-.772.517-.525.634Z" transform="translate(-8.794 -11.006)" fill="#944e39"/>
        <path id="Trazado_890252" data-name="Trazado 890252" d="M29.759,51.223l.342-.755.814-.659.891-.36,1.085-.086L34,49.777l.159.385.08.565-.4.843-.815.516-1.137.311-1.074-.076-.844-.411Z" transform="translate(-6.997 -11.607)" fill="#693121"/>
        <path id="Trazado_890253" data-name="Trazado 890253" d="M31.078,52.232l1.158-.115,1.051-.409.63-.55.307-.749.233.561-.423.985-.88.564-1.187.249L30.8,52.686l-.759-.532Z" transform="translate(-7.063 -11.853)" fill="#4a2317"/>
        <path id="Trazado_890254" data-name="Trazado 890254" d="M30.162,51.176l.262-.54.647-.566.961-.38.886-.049.382.264-1.157.065-.862.346-.644.513Z" transform="translate(-7.092 -11.672)" fill="#944e39"/>
        <path id="Trazado_890255" data-name="Trazado 890255" d="M54.487,38.944l.294-.776.77-.709.866-.416,1.079-.155,1.133.343.183.375.115.558-.341.867-.78.565-1.116.383-1.077-.009-.869-.356Z" transform="translate(-12.812 -8.674)" fill="#693121"/>
        <path id="Trazado_890256" data-name="Trazado 890256" d="M55.864,39.848l1.148-.189,1.024-.474.594-.589.259-.767.268.546-.36,1.01L57.955,40l-1.169.324-1.173-.008-.792-.482Z" transform="translate(-12.891 -8.895)" fill="#4a2317"/>
        <path id="Trazado_890257" data-name="Trazado 890257" d="M54.879,38.88l.228-.556.61-.606.935-.44.88-.1.4.239-1.15.138-.838.4-.611.552Z" transform="translate(-12.904 -8.741)" fill="#944e39"/>
        <path id="Trazado_890258" data-name="Trazado 890258" d="M51.5,41.059l.586-.587.993-.33.961-.024,1.047.3.892.778.013.417-.124.558-.665.65-.944.2-1.175-.109-.978-.45-.646-.682Z" transform="translate(-12.099 -9.433)" fill="#693121"/>
        <path id="Trazado_890259" data-name="Trazado 890259" d="M52.4,42.674l1.124.3,1.128-.013.783-.293.551-.594.021.607-.743.773-1.021.219-1.2-.184L51.98,43l-.524-.765Z" transform="translate(-12.099 -9.893)" fill="#4a2317"/>
        <path id="Trazado_890260" data-name="Trazado 890260" d="M53.179,40.411l-.8.3-.436.413.567-.158.783-.253.929-.021,1.105.346-.264-.382-.846-.265Z" transform="translate(-12.212 -9.498)" fill="#944e39"/>
        <path id="Trazado_890261" data-name="Trazado 890261" d="M43.972,45.163l-.06-.828.4-.967.61-.742.913-.594,1.173-.165.324.263.34.458.056.929-.47.841-.851.817-.981.445-.938.041Z" transform="translate(-10.325 -9.845)" fill="#693121"/>
        <path id="Trazado_890262" data-name="Trazado 890262" d="M45.615,45.316l.963-.654.728-.862.291-.783-.087-.805.473.382.1,1.068-.5.916-.925.786-1.067.485-.921-.1Z" transform="translate(-10.502 -9.925)" fill="#4a2317"/>
        <path id="Trazado_890263" data-name="Trazado 890263" d="M44.267,45.036l-.027-.6.3-.807.663-.792.755-.465.461.05-.985.608-.592.717-.322.759Z" transform="translate(-10.402 -9.963)" fill="#944e39"/>
        <path id="Trazado_890264" data-name="Trazado 890264" d="M40.849,47.98l-.06-.828.4-.967.61-.742.913-.594,1.173-.165.324.263.34.458.057.929-.471.841-.851.816-.981.446-.938.041Z" transform="translate(-9.591 -10.507)" fill="#693121"/>
        <path id="Trazado_890265" data-name="Trazado 890265" d="M42.492,48.133l.962-.654.729-.861.291-.784-.087-.806.472.382.1,1.068-.5.915-.924.787-1.067.485-.921-.1Z" transform="translate(-9.768 -10.588)" fill="#4a2317"/>
        <path id="Trazado_890266" data-name="Trazado 890266" d="M41.144,47.853l-.027-.6.3-.806.664-.792.755-.466.461.049-.986.61-.592.716-.322.759Z" transform="translate(-9.668 -10.625)" fill="#944e39"/>
        <path id="Trazado_890267" data-name="Trazado 890267" d="M34.272,49.426l.148-.816.627-.838.776-.568,1.031-.35,1.177.131.249.335.215.529-.175.914-.665.7-1.027.581-1.06.187-.919-.191Z" transform="translate(-8.059 -11.017)" fill="#693121"/>
        <path id="Trazado_890268" data-name="Trazado 890268" d="M35.79,50l1.095-.4.92-.654.476-.687.115-.8.363.487-.169,1.059-.715.761-1.091.532-1.153.207-.867-.33Z" transform="translate(-8.174 -11.161)" fill="#4a2317"/>
        <path id="Trazado_890269" data-name="Trazado 890269" d="M34.627,49.311l.122-.588.49-.708.839-.6.847-.264.434.162-1.105.346L35.5,48.2l-.5.655Z" transform="translate(-8.142 -11.086)" fill="#944e39"/>
        <path id="Trazado_890270" data-name="Trazado 890270" d="M68.51,32.236l.174-.811.654-.817.795-.542,1.042-.317,1.172.17.237.343.2.535-.207.909-.686.677-1.045.546-1.066.153-.913-.221Z" transform="translate(-16.109 -6.995)" fill="#693121"/>
        <path id="Trazado_890271" data-name="Trazado 890271" d="M70.007,32.872l1.106-.359.94-.624.5-.672.141-.8.346.5-.2,1.052-.739.738-1.107.5-1.16.168-.857-.357Z" transform="translate(-16.218 -7.153)" fill="#4a2317"/>
        <path id="Trazado_890272" data-name="Trazado 890272" d="M68.872,32.13l.142-.584.511-.691.859-.577.854-.236.43.177-1.116.311-.769.522-.521.638Z" transform="translate(-16.194 -7.064)" fill="#944e39"/>
        <path id="Trazado_890273" data-name="Trazado 890273" d="M62.3,36.787l-.14-.818.3-1,.535-.8.851-.681L65,33.212l.348.229.382.423.147.919-.387.884-.766.895-.932.538-.93.133Z" transform="translate(-14.617 -7.809)" fill="#693121"/>
        <path id="Trazado_890274" data-name="Trazado 890274" d="M63.984,36.787l.894-.745.641-.929.213-.808-.165-.793.507.335.2,1.053-.412.959-.842.873-1.015.587-.927-.014Z" transform="translate(-14.832 -7.88)" fill="#4a2317"/>
        <path id="Trazado_890275" data-name="Trazado 890275" d="M62.571,36.674l-.085-.6.218-.832.583-.853.705-.537.464,0-.921.7-.519.77-.246.786Z" transform="translate(-14.693 -7.961)" fill="#944e39"/>
        <path id="Trazado_890276" data-name="Trazado 890276" d="M58.613,39.158l.355-.749.825-.645.9-.345,1.087-.068,1.1.434.152.388.071.567-.41.836-.824.5-1.143.291-1.073-.095-.837-.426Z" transform="translate(-13.782 -8.783)" fill="#693121"/>
        <path id="Trazado_890277" data-name="Trazado 890277" d="M59.915,40.2l1.16-.1,1.058-.39.639-.539.32-.744.223.565-.44.978-.89.548-1.191.23-1.167-.1-.75-.545Z" transform="translate(-13.844 -9.035)" fill="#4a2317"/>
        <path id="Trazado_890278" data-name="Trazado 890278" d="M59.018,39.117l.272-.536.657-.555.968-.363.886-.033.377.271-1.158.044-.868.333-.653.5Z" transform="translate(-13.877 -8.848)" fill="#944e39"/>
        <path id="Trazado_890279" data-name="Trazado 890279" d="M47.934,43.641l.179-.809.662-.812.8-.536,1.045-.307,1.17.178.235.344.194.536L52,43.141l-.692.672-1.049.538L49.2,44.5l-.911-.229Z" transform="translate(-11.271 -9.682)" fill="#693121"/>
        <path id="Trazado_890280" data-name="Trazado 890280" d="M49.425,44.291l1.109-.351.945-.616.5-.667.148-.8.343.5-.212,1.052-.745.733-1.11.488-1.162.159-.852-.363Z" transform="translate(-11.379 -9.843)" fill="#4a2317"/>
        <path id="Trazado_890281" data-name="Trazado 890281" d="M48.3,43.536l.146-.583.518-.687.862-.569.857-.23.428.18-1.119.3-.773.517-.525.634Z" transform="translate(-11.356 -9.75)" fill="#944e39"/>
        <path id="Trazado_890282" data-name="Trazado 890282" d="M37.866,46.044l.33-.76.8-.671.886-.374,1.085-.1,1.114.4.165.383.089.564-.382.849-.807.527-1.133.329-1.076-.06-.85-.4Z" transform="translate(-8.904 -10.378)" fill="#693121"/>
        <path id="Trazado_890283" data-name="Trazado 890283" d="M39.2,47.028l1.156-.132L41.4,46.47l.621-.558.3-.754.241.558-.408.992-.87.576-1.183.268-1.17-.065-.767-.52Z" transform="translate(-8.973 -10.618)" fill="#4a2317"/>
        <path id="Trazado_890284" data-name="Trazado 890284" d="M38.266,45.994l.255-.544.639-.577.955-.394L41,44.417l.386.259-1.156.083-.857.359-.637.522Z" transform="translate(-8.998 -10.444)" fill="#944e39"/>
        <path id="Trazado_890285" data-name="Trazado 890285" d="M30.969,49.68l.054-.828.531-.9.707-.651.987-.462,1.183,0,.285.305.274.5-.073.929-.583.768-.955.691-1.033.305-.935-.088Z" transform="translate(-7.282 -11.013)" fill="#693121"/>
        <path id="Trazado_890286" data-name="Trazado 890286" d="M32.546,50.047l1.043-.515.84-.753.4-.737.025-.809.415.444-.05,1.072-.625.836-1.024.652-1.124.333-.9-.231Z" transform="translate(-7.417 -11.106)" fill="#4a2317"/>
        <path id="Trazado_890287" data-name="Trazado 890287" d="M31.293,49.536l.056-.6.408-.758.766-.693.812-.357.45.113-1.061.467-.685.629-.424.706Z" transform="translate(-7.358 -11.082)" fill="#944e39"/>
        <path id="Trazado_890288" data-name="Trazado 890288" d="M61.935,24.328l.824,2.767-3.441,3.427-10.6,6.12L39.454,41l-7.584,2.854-3.422.452-2.966,1.416-.355-.248,2.209-2.835L30.219,36.4l5.906-6.2,9.044-7,5.486-2.667,4.637-.037Zm-3.184-5.346H54.532l-4.077.7-5.737,2.79-9.163,7.095-6.007,6.307-3.509,6.767-2.606,2.835,2.42,2.555,6.309-1.773L41,43.189l9.422-4.382,10.889-6.755,2.4-4.715-.236-3.56-.882-2.45Z" transform="translate(-5.51 -4.463)" fill="#d1a280"/>
        <path id="Trazado_890289" data-name="Trazado 890289" d="M25.67,55.656l5.07.5,6.3.066,8.465-2.488,4.127-2.382-1.241-1.683L25.878,54.378Z" transform="translate(-6.036 -11.678)" fill="#573711"/>
        <path id="Trazado_890290" data-name="Trazado 890290" d="M64.459,34.349l-3.878,6.159L49.854,46.7l-9.326,2.985-7.632.7-6.3.213V49.444l2.859-1.692,3.44-.526,7.632-2.871,9.326-4.391L60.581,33.77l3.878-3.863Z" transform="translate(-6.254 -7.032)" fill="#6b3b14"/>
        <path id="Trazado_890291" data-name="Trazado 890291" d="M23.433,53.623V54.78l.709,1.228,1,.579.709-.409V55.02Z" transform="translate(-5.51 -12.609)" fill="#87451b"/>
        <g id="Grupo_1101836" data-name="Grupo 1101836" transform="translate(0 0)">
          <g id="Grupo_1101835" data-name="Grupo 1101835" clip-path="url(#clip-path)">
            <g id="Grupo_1101834" data-name="Grupo 1101834" transform="translate(69.383 26.151)" opacity="0.3">
              <g id="Grupo_1101833" data-name="Grupo 1101833">
                <g id="Grupo_1101832" data-name="Grupo 1101832" clip-path="url(#clip-path-11)">
                  <path id="Trazado_890292" data-name="Trazado 890292" d="M95,34.6l-.419-.286-.457-.124-1.29.1-1.005.377-.672.472-.442.615.066.525.568.317,1.013.067,1.175-.309,1.017-.5.555-.581Z" transform="translate(-90.712 -34.19)"/>
                </g>
              </g>
            </g>
          </g>
        </g>
        <path id="Trazado_890293" data-name="Trazado 890293" d="M90.712,34.735l.174-.811.655-.817.794-.542,1.042-.316,1.172.169.237.343.2.535-.206.908-.687.677-1.045.546-1.066.154-.912-.221Z" transform="translate(-21.33 -7.583)" fill="#693121"/>
        <path id="Trazado_890294" data-name="Trazado 890294" d="M92.209,35.37l1.107-.359.94-.624.5-.672.142-.8.346.5-.2,1.053-.74.738-1.106.5-1.16.168-.856-.357Z" transform="translate(-21.439 -7.74)" fill="#4a2317"/>
        <path id="Trazado_890295" data-name="Trazado 890295" d="M91.075,34.628l.141-.584.512-.691.859-.576.854-.236.43.177-1.117.309-.769.522-.52.639Z" transform="translate(-21.415 -7.651)" fill="#944e39"/>
        <g id="Grupo_1101841" data-name="Grupo 1101841" transform="translate(0 0)">
          <g id="Grupo_1101840" data-name="Grupo 1101840" clip-path="url(#clip-path)">
            <g id="Grupo_1101839" data-name="Grupo 1101839" transform="translate(56.81 35.132)" opacity="0.3">
              <g id="Grupo_1101838" data-name="Grupo 1101838">
                <g id="Grupo_1101837" data-name="Grupo 1101837" clip-path="url(#clip-path-13)">
                  <path id="Trazado_890296" data-name="Trazado 890296" d="M78.559,46.342l-.419-.286-.457-.124-1.29.1-1.005.377-.672.472-.442.614.066.526.568.317,1.013.066L77.1,48.1l1.017-.5.555-.581Z" transform="translate(-74.275 -45.933)"/>
                </g>
              </g>
            </g>
          </g>
        </g>
        <path id="Trazado_890297" data-name="Trazado 890297" d="M74.275,46.477l.174-.811.655-.817.793-.542,1.043-.316,1.172.169.238.343.2.535-.207.908-.687.678-1.045.545-1.066.154-.912-.221Z" transform="translate(-17.465 -10.344)" fill="#693121"/>
        <path id="Trazado_890298" data-name="Trazado 890298" d="M75.772,47.112l1.107-.36.94-.623.5-.672.141-.8.346.5-.2,1.053-.74.737-1.106.5-1.16.169-.856-.357Z" transform="translate(-17.574 -10.501)" fill="#4a2317"/>
        <path id="Trazado_890299" data-name="Trazado 890299" d="M74.637,46.37l.142-.584.511-.691.859-.576L77,44.283l.43.176-1.116.311-.769.522-.52.638Z" transform="translate(-17.55 -10.412)" fill="#944e39"/>
        <g id="Grupo_1101846" data-name="Grupo 1101846" transform="translate(0 0)">
          <g id="Grupo_1101845" data-name="Grupo 1101845" clip-path="url(#clip-path)">
            <g id="Grupo_1101844" data-name="Grupo 1101844" transform="translate(57.166 37.857)" opacity="0.3">
              <g id="Grupo_1101843" data-name="Grupo 1101843">
                <g id="Grupo_1101842" data-name="Grupo 1101842" clip-path="url(#clip-path-13)">
                  <path id="Trazado_890300" data-name="Trazado 890300" d="M79.024,49.9l-.418-.286-.457-.124-1.29.1-1.005.377-.672.472-.442.614.066.526.568.317,1.014.066,1.174-.308,1.017-.5.555-.581Z" transform="translate(-74.74 -49.494)"/>
                </g>
              </g>
            </g>
          </g>
        </g>
        <path id="Trazado_890301" data-name="Trazado 890301" d="M74.74,50.038l.174-.811.654-.817.794-.542,1.043-.317,1.171.17.238.342.2.535-.207.908-.686.677-1.046.546-1.065.155-.913-.222Z" transform="translate(-17.574 -11.181)" fill="#693121"/>
        <path id="Trazado_890302" data-name="Trazado 890302" d="M76.237,50.674l1.107-.36.94-.623.5-.672.141-.8.346.5-.2,1.053-.74.737-1.106.5-1.16.168-.856-.357Z" transform="translate(-17.683 -11.339)" fill="#4a2317"/>
        <path id="Trazado_890303" data-name="Trazado 890303" d="M75.1,49.932l.142-.584.511-.691.859-.576.853-.236.43.177-1.116.31-.769.522-.52.639Z" transform="translate(-17.659 -11.25)" fill="#944e39"/>
        <g id="Grupo_1101851" data-name="Grupo 1101851" transform="translate(0 0)">
          <g id="Grupo_1101850" data-name="Grupo 1101850" clip-path="url(#clip-path)">
            <g id="Grupo_1101849" data-name="Grupo 1101849" transform="translate(8.725 46.439)" opacity="0.3">
              <g id="Grupo_1101848" data-name="Grupo 1101848">
                <g id="Grupo_1101847" data-name="Grupo 1101847" clip-path="url(#clip-path-13)">
                  <path id="Trazado_890304" data-name="Trazado 890304" d="M15.692,61.124l-.418-.286-.458-.124-1.29.1-1.005.377-.671.472-.442.615.065.525.568.318,1.013.066,1.175-.308,1.017-.5L15.8,61.8Z" transform="translate(-11.408 -60.715)"/>
                </g>
              </g>
            </g>
          </g>
        </g>
        <path id="Trazado_890305" data-name="Trazado 890305" d="M11.408,61.259l.174-.811.655-.817.793-.542,1.043-.316,1.172.169.237.343.2.535-.207.908-.686.677-1.045.546-1.066.154-.913-.221Z" transform="translate(-2.682 -13.82)" fill="#693121"/>
        <path id="Trazado_890306" data-name="Trazado 890306" d="M12.9,61.894l1.106-.359.94-.623.5-.672.141-.8.347.5-.2,1.053-.739.737-1.107.5-1.16.168-.857-.356Z" transform="translate(-2.791 -13.977)" fill="#4a2317"/>
        <path id="Trazado_890307" data-name="Trazado 890307" d="M11.769,61.152l.142-.584.511-.691.859-.576.854-.236.43.177-1.116.31-.769.522-.52.639Z" transform="translate(-2.767 -13.888)" fill="#944e39"/>
        <g id="Grupo_1101856" data-name="Grupo 1101856" transform="translate(0 0)">
          <g id="Grupo_1101855" data-name="Grupo 1101855" clip-path="url(#clip-path)">
            <g id="Grupo_1101854" data-name="Grupo 1101854" transform="translate(27.712 49.89)" opacity="0.3">
              <g id="Grupo_1101853" data-name="Grupo 1101853">
                <g id="Grupo_1101852" data-name="Grupo 1101852" clip-path="url(#clip-path-19)">
                  <path id="Trazado_890308" data-name="Trazado 890308" d="M40.516,65.637l-.418-.285-.457-.125-1.29.1-1.005.378-.672.472-.441.614.065.525.568.318,1.014.066,1.175-.309,1.017-.5.555-.581Z" transform="translate(-36.231 -65.227)"/>
                </g>
              </g>
            </g>
          </g>
        </g>
        <path id="Trazado_890309" data-name="Trazado 890309" d="M36.231,65.771l.174-.811.655-.817.793-.542,1.043-.316,1.172.17.237.342.2.535-.206.908-.686.677-1.046.546-1.066.154-.912-.222Z" transform="translate(-8.519 -14.881)" fill="#693121"/>
        <path id="Trazado_890310" data-name="Trazado 890310" d="M37.728,66.407l1.107-.359.94-.624.5-.672.141-.8.346.5-.2,1.052-.74.738-1.106.5-1.16.168-.856-.357Z" transform="translate(-8.629 -15.038)" fill="#4a2317"/>
        <path id="Trazado_890311" data-name="Trazado 890311" d="M36.594,65.665l.142-.584.511-.691.859-.577.854-.236.43.176-1.116.311-.769.522-.52.638Z" transform="translate(-8.604 -14.949)" fill="#944e39"/>
        <g id="Grupo_1101861" data-name="Grupo 1101861" transform="translate(0 0)">
          <g id="Grupo_1101860" data-name="Grupo 1101860" clip-path="url(#clip-path)">
            <g id="Grupo_1101859" data-name="Grupo 1101859" transform="translate(36.459 48.555)" opacity="0.3">
              <g id="Grupo_1101858" data-name="Grupo 1101858">
                <g id="Grupo_1101857" data-name="Grupo 1101857" clip-path="url(#clip-path-21)">
                  <path id="Trazado_890312" data-name="Trazado 890312" d="M47.668,73.7l3.54-1.93,2.427-2.8.94-3.6-1.542-1.9Z" transform="translate(-47.668 -63.481)"/>
                </g>
              </g>
            </g>
          </g>
        </g>
        <path id="Trazado_890313" data-name="Trazado 890313" d="M54.02,64.7l-1.735-1.987-1.724-.443-1.883.073-3.366,1.465,4.226.948Z" transform="translate(-10.654 -14.642)" fill="#79995a"/>
        <path id="Trazado_890314" data-name="Trazado 890314" d="M43.8,69.082l.649,2.8,2.306,3.05,3.192-2.487,2.562-2.476-5.008-1.241Z" transform="translate(-10.3 -16.161)" fill="#9fb366"/>
        <path id="Trazado_890315" data-name="Trazado 890315" d="M52.514,68.926l1.153-3.755-8.709-.891L43.8,68.034Z" transform="translate(-10.3 -15.115)" fill="#87a15f"/>
        <path id="Trazado_890316" data-name="Trazado 890316" d="M51.155,64.275l.682-2.006-1.1,1.963.143.142Z" transform="translate(-11.93 -14.642)" fill="#87a15f"/>
        <path id="Trazado_890317" data-name="Trazado 890317" d="M48.856,69.7l-.869,2.83-.319,2.6.743-2.558.87-2.83-.155-.174Z" transform="translate(-11.208 -16.359)" fill="#cfdb77"/>
        <path id="Trazado_890318" data-name="Trazado 890318" d="M49.645,68.633,50.8,64.879l-.418-.043L49.22,68.59Z" transform="translate(-11.573 -15.245)" fill="#9fb366"/>
        <g id="Grupo_1101866" data-name="Grupo 1101866" transform="translate(0 0)">
          <g id="Grupo_1101865" data-name="Grupo 1101865" clip-path="url(#clip-path)">
            <g id="Grupo_1101864" data-name="Grupo 1101864" transform="translate(58.958 25.707)" opacity="0.3">
              <g id="Grupo_1101863" data-name="Grupo 1101863">
                <g id="Grupo_1101862" data-name="Grupo 1101862" clip-path="url(#clip-path-21)">
                  <path id="Trazado_890319" data-name="Trazado 890319" d="M83.99,43.83,80.45,41.9l-2.427-2.8-.94-3.6,1.542-1.9Z" transform="translate(-77.083 -33.609)"/>
                </g>
              </g>
            </g>
          </g>
        </g>
        <path id="Trazado_890320" data-name="Trazado 890320" d="M77.083,34.826l1.735-1.987,1.724-.443,1.883.073,3.366,1.465-4.226.948Z" transform="translate(-18.125 -7.618)" fill="#79995a"/>
        <path id="Trazado_890321" data-name="Trazado 890321" d="M87.3,39.209l-.649,2.8-2.306,3.05-3.191-2.487L78.59,40.1,83.6,38.859Z" transform="translate(-18.479 -9.137)" fill="#9fb366"/>
        <path id="Trazado_890322" data-name="Trazado 890322" d="M78.236,39.054,77.083,35.3l8.709-.891,1.153,3.754Z" transform="translate(-18.125 -8.091)" fill="#87a15f"/>
        <path id="Trazado_890323" data-name="Trazado 890323" d="M82.288,34.4,81.606,32.4l1.1,1.963-.142.142Z" transform="translate(-19.189 -7.618)" fill="#87a15f"/>
        <path id="Trazado_890324" data-name="Trazado 890324" d="M84.43,39.831l.869,2.83.319,2.6L84.875,42.7l-.87-2.83.154-.174Z" transform="translate(-19.753 -9.335)" fill="#cfdb77"/>
        <path id="Trazado_890325" data-name="Trazado 890325" d="M83.651,38.76,82.5,35.006l.418-.042,1.16,3.753Z" transform="translate(-19.398 -8.221)" fill="#9fb366"/>
        <g id="Grupo_1101871" data-name="Grupo 1101871" transform="translate(0 0)">
          <g id="Grupo_1101870" data-name="Grupo 1101870" clip-path="url(#clip-path)">
            <g id="Grupo_1101869" data-name="Grupo 1101869" transform="translate(44.375 52.949)" opacity="0.3">
              <g id="Grupo_1101868" data-name="Grupo 1101868">
                <g id="Grupo_1101867" data-name="Grupo 1101867" clip-path="url(#clip-path-25)">
                  <path id="Trazado_890326" data-name="Trazado 890326" d="M62.9,76.429,59.26,73.565l-1.244-3.622,9.4-.716-1.244,3.915Z" transform="translate(-58.017 -69.227)"/>
                </g>
              </g>
            </g>
          </g>
        </g>
        <path id="Trazado_890327" data-name="Trazado 890327" d="M67.483,60.437,64.458,57.2,62.4,56.638l-1.977.459L57.2,60.756l4.993.067Z" transform="translate(-13.449 -13.318)" fill="#79995a"/>
        <path id="Trazado_890328" data-name="Trazado 890328" d="M57.343,68.745l1.744,3.675,3.657,3.528,3.039-3.794,1.849-3.727-6.349-1.248Z" transform="translate(-13.483 -15.796)" fill="#9fb366"/>
        <path id="Trazado_890329" data-name="Trazado 890329" d="M67.6,67.116,67.483,61.6,57.2,61.923l.112,5.512Z" transform="translate(-13.449 -14.485)" fill="#87a15f"/>
        <path id="Trazado_890330" data-name="Trazado 890330" d="M63.374,60.75l.268.213.262-.23-.051-3.5Z" transform="translate(-14.902 -13.459)" fill="#87a15f"/>
        <path id="Trazado_890331" data-name="Trazado 890331" d="M63.533,68.808l.354,3.7.311,3.646-.138-3.69V68.791l-.3-.726Z" transform="translate(-14.939 -16.005)" fill="#cfdb77"/>
        <path id="Trazado_890332" data-name="Trazado 890332" d="M63.374,61.825l.121,5.512.528-.016L63.9,61.808Z" transform="translate(-14.902 -14.533)" fill="#9fb366"/>
      </g>
    </g>
  </g>
</svg>
