<svg id="Grupo_1103093" data-name="Grupo 1103093" xmlns="http://www.w3.org/2000/svg" xmlns:xlink="http://www.w3.org/1999/xlink" width="169.633" height="149.693" viewBox="0 0 169.633 149.693">
  <defs>
    <clipPath id="clip-path">
      <rect id="Rectángulo_403718" data-name="Rectángulo 403718" width="169.633" height="149.693" fill="none"/>
    </clipPath>
    <clipPath id="clip-path-3">
      <rect id="Rectángulo_403713" data-name="Rectángulo 403713" width="70.043" height="47.353" fill="none"/>
    </clipPath>
    <clipPath id="clip-path-4">
      <rect id="Rectángulo_403714" data-name="Rectángulo 403714" width="65.646" height="37.7" fill="none"/>
    </clipPath>
    <clipPath id="clip-path-5">
      <rect id="Rectángulo_403715" data-name="Rectángulo 403715" width="106.389" height="75.49" fill="none"/>
    </clipPath>
    <clipPath id="clip-path-6">
      <rect id="Rectángulo_403716" data-name="Rectángulo 403716" width="45.644" height="31.191" fill="none"/>
    </clipPath>
  </defs>
  <g id="Grupo_1103092" data-name="Grupo 1103092" clip-path="url(#clip-path)">
    <g id="Grupo_1103091" data-name="Grupo 1103091">
      <g id="Grupo_1103090" data-name="Grupo 1103090" clip-path="url(#clip-path)">
        <path id="Trazado_983530" data-name="Trazado 983530" d="M169.64,9.584l-2.468,30.035,2.468,17.357v83.095a9.626,9.626,0,0,1-6.587,9.1h-.01c-.67.219-49.2.48-49.2.48H9.59c-2.634,0-9.58-45.535-9.58-45.535V9.584A9.611,9.611,0,0,1,9.59,0h11.1L29.2,1.41,33.891,0H57.766l7.926,2.116L71.125,0h88.931a9.611,9.611,0,0,1,9.584,9.584" transform="translate(-0.006)" fill="#a39b70"/>
        <path id="Trazado_983531" data-name="Trazado 983531" d="M107.734,196.658c-.473.005-.939.008-1.42.025a.1.1,0,0,1-.024,0,39.448,39.448,0,0,0-12.875,2.461c-3.774,1.391-7.306,3.359-11.077,4.727a37.77,37.77,0,0,1-6.74,1.785l-.009,0,0-.006c-.068.012-.137.023-.2.041-.7.124-1.382.221-2.089.291l-.009,0a43.37,43.37,0,0,1-7.834.186l11.172-13.606L61.758,205.776a49.541,49.541,0,0,1-8.446-1.965l-.006,0,0-.006c-.042-.009-.08-.027-.122-.036-.335-.107-.674-.221-1-.331a54.405,54.405,0,0,1-8.7-3.938,63.627,63.627,0,0,1-10.6-7.526l0-.006c-.27-.229-.525-.458-.789-.69-1.222-1.1-2.415-2.24-3.566-3.418l7.24-7.72-9.7,5.094a102.154,102.154,0,0,1-10.566-14.216c0,.143-.08-.027-.137-.288a2.107,2.107,0,0,1-.094-.74.522.522,0,0,1,.146-.258,1.508,1.508,0,0,1,.532-.273Q21.39,167.78,26.83,166.1a151.02,151.02,0,0,1,20.322-5.253l.006,0c.33-.053.659-.106.986-.151l.006,0c.823-.121,1.631-.227,2.466-.324,1.527-.167,3.06-.278,4.6-.324l6.872,12.85-4.139-12.862A41.85,41.85,0,0,1,70.44,162.1c.371.119.725.247,1.09.385,1.03.384,2.034.819,3.014,1.3A45.35,45.35,0,0,1,87.334,173.6l0,.006c.587.613,1.154,1.243,1.729,1.892l.006,0,.009,0c5.9,6.611,11,14.163,17.726,20.333.309.277.609.55.926.83" transform="translate(-9.912 -104.02)" fill="#917d44"/>
        <path id="Trazado_983532" data-name="Trazado 983532" d="M15.4,187.741q19.181,4.128,38.2,9.326l1.162.321-.007.012c6.933,1.9,13.854,3.9,20.712,6.012.363.107.718.216,1.074.335q8.694,2.675,17.317,5.583c.4.137.8.274,1.209.421q5.9,1.984,11.739,4.087c.306.274.613.548.931.83-.476,0-.943.007-1.426.023a.03.03,0,0,1-.021,0q-5.494-1.986-11.036-3.846c-.38-.133-.752-.268-1.13-.391q-9.085-3.059-18.283-5.9c-.366-.116-.751-.227-1.139-.348q-10.053-3.091-20.216-5.87c-.449-.124-.908-.246-1.367-.368q-18.781-5.148-37.765-9.227A2.2,2.2,0,0,1,15.26,188a.542.542,0,0,1,.144-.262" transform="translate(-9.913 -122.027)" fill="#621212"/>
        <path id="Trazado_983533" data-name="Trazado 983533" d="M79.4,161.924l6.614,18.683,0,.009.1.268a.565.565,0,0,1,.012.252.475.475,0,0,1-.245.343l-.144.073L64.124,193.2c-.266-.23-.523-.458-.789-.688l21.04-11.325.668-.363-.189-.535-6.444-18.211c.331-.058.659-.105.988-.153" transform="translate(-41.166 -105.247)" fill="#621212"/>
        <path id="Trazado_983534" data-name="Trazado 983534" d="M139.01,165.925c.367.119.723.246,1.086.385l5,23.194a.142.142,0,0,1,.008.062.334.334,0,0,1-.006.139.451.451,0,0,1-.186.295l-.5.375L121.875,207.64c-.377-.121-.754-.242-1.128-.373l22.526-17.239.806-.617-.037-.176Z" transform="translate(-78.483 -107.847)" fill="#621212"/>
        <path id="Trazado_983535" data-name="Trazado 983535" d="M195.123,198.781c.592.621,1.163,1.249,1.74,1.9l.01,0,5.985,16.246.238.644a.585.585,0,0,1,.02.264.421.421,0,0,1-.073.176.643.643,0,0,1-.147.142l-19.508,12.683-.01,0c-.765.135-1.516.253-2.29.327l20.827-13.533.115-.078-.383-1.041Z" transform="translate(-117.704 -129.203)" fill="#621212"/>
        <path id="Trazado_983536" data-name="Trazado 983536" d="M351.638,58.313l1.389,1.237.28,35.328c-10.35,4.015-23.487,8.617-31.641,10.157-8.682,1.639-17.065-.213-22.757-2.159a52.8,52.8,0,0,1-5.068-2.016.059.059,0,0,1-.029-.008c-1.385-.635-2.159-1.074-2.159-1.074L285.187,95.1l-2.6-1.885.082-11.059.025-3.073.053-7.162Z" transform="translate(-183.674 -37.902)" fill="#b65743"/>
        <g id="Grupo_1103080" data-name="Grupo 1103080" transform="translate(99.591 20.603)" opacity="0.3">
          <g id="Grupo_1103079" data-name="Grupo 1103079">
            <g id="Grupo_1103078" data-name="Grupo 1103078" clip-path="url(#clip-path-3)">
              <path id="Trazado_983537" data-name="Trazado 983537" d="M353.578,58.863l.724,2.785.266,33.587c-10.35,4.015-22.808,8.809-30.962,10.35-8.682,1.639-17.065-.213-22.757-2.159a52.8,52.8,0,0,1-5.068-2.016.059.059,0,0,1-.029-.008c-1.385-.635-2.159-1.074-2.159-1.074l-6.466-4.679-2.6-1.885.082-11.059.025-3.073.054-7.162Z" transform="translate(-284.525 -58.863)" fill="#f5b274"/>
            </g>
          </g>
        </g>
        <path id="Trazado_983538" data-name="Trazado 983538" d="M220.883,250.389s-3.74,29.814,19.408,41.861,47.351-3.375,54.162-17.28-.971-37.553-5.521-42.97Z" transform="translate(-143.424 -150.794)" fill="#441c16"/>
        <path id="Trazado_983539" data-name="Trazado 983539" d="M289.684,213.009a14.389,14.389,0,0,1,.659,6.275c-1.114,10.155-11.529,23.041-27.108,28.376s-31.433,1.445-38.538-5.9a14.388,14.388,0,0,1-3.326-5.362c-3.965-11.578,8.113-26.2,26.976-32.66s37.373-2.312,41.338,9.266" transform="translate(-143.396 -130.447)" fill="#621212"/>
        <g id="Grupo_1103083" data-name="Grupo 1103083" transform="translate(81.301 81.885)" opacity="0.49">
          <g id="Grupo_1103082" data-name="Grupo 1103082">
            <g id="Grupo_1103081" data-name="Grupo 1103081" clip-path="url(#clip-path-4)">
              <path id="Trazado_983540" data-name="Trazado 983540" d="M297.918,240.892c-1.113,10.155-11.668,22.9-27.248,28.237s-31.293,1.585-38.4-5.756c1.114-10.156,12.06-21.052,27.634-26.385s30.907-3.436,38.012,3.9" transform="translate(-232.272 -233.94)" fill="#b65743"/>
            </g>
          </g>
        </g>
        <path id="Trazado_983541" data-name="Trazado 983541" d="M301.616,255.013l-.316.441.185.758.022.119.207.848-.976.4-.189.076-1.6.659.871.851.084.081.026.02-3.252,1.113.09.808.053.482.007.1.042.313c-.2-.017-.407-.044-.606-.079-.069-.011-.13-.025-.2-.035a7.594,7.594,0,0,1-2.257-.755c-.079-.042-.151-.086-.222-.131a2.73,2.73,0,0,1-1.252-1.421.544.544,0,0,1-.03-.116,1.856,1.856,0,0,1,.181-1.326l.074-.14c.029-.05.061-.1.09-.146l.008,0a.5.5,0,0,1,.069-.1,4.189,4.189,0,0,1,.811-.824,7.414,7.414,0,0,1,1.385-.836c.055-.03.12-.058.177-.084A13.983,13.983,0,0,1,301.414,255Z" transform="translate(-189.951 -165.726)" fill="#441c16"/>
        <path id="Trazado_983542" data-name="Trazado 983542" d="M303.058,255.013l-.316.441.185.758.022.119.207.848-.976.4-.189.076-1.6.659.871.851.084.081.026.02-3.252,1.113.09.808a7.541,7.541,0,0,1-2.188-.745c-.071-.044-.149-.081-.212-.128a3.419,3.419,0,0,1-.687-.534,1.082,1.082,0,0,1-.114-.116l0,0a1.846,1.846,0,0,1-.486-1.718.414.414,0,0,1,.029-.107,1.866,1.866,0,0,1,.149-.384l.075-.135a3.2,3.2,0,0,1,.2-.305,7.414,7.414,0,0,1,1.385-.836c.055-.03.12-.058.177-.084A13.983,13.983,0,0,1,302.856,255Z" transform="translate(-191.394 -165.726)" fill="#621212"/>
        <path id="Trazado_983543" data-name="Trazado 983543" d="M306.444,258.281l.022.119a18.357,18.357,0,0,0-2.811-.083c-.24.008-.487.023-.734.039a17.072,17.072,0,0,1-2.035.03,7.951,7.951,0,0,1-1.013-.147c.055-.03.12-.058.177-.084a6.894,6.894,0,0,0,.9.122,16.08,16.08,0,0,0,2.006-.032c.247-.016.487-.023.734-.039a18.709,18.709,0,0,1,2.753.074" transform="translate(-194.91 -167.795)" fill="#441c16"/>
        <path id="Trazado_983544" data-name="Trazado 983544" d="M303.9,274.1l.007.1c-.187.081-.376.158-.565.233-.069-.011-.13-.025-.2-.035.249-.091.495-.192.757-.3" transform="translate(-197.035 -178.155)" fill="#441c16"/>
        <path id="Trazado_983545" data-name="Trazado 983545" d="M299.913,266.943l.084.081c-.187.081-.368.155-.56.22-.209.072-.413.13-.629.181a9.969,9.969,0,0,1-2.331.229c-.941.006-1.842-.035-2.7-.1-.469-.034-.914-.078-1.348-.118a.522.522,0,0,1-.03-.116c.407.044.831.083,1.262.114l0,0c.91.068,1.869.113,2.857.107a10.117,10.117,0,0,0,2.286-.225,6.06,6.06,0,0,0,1.112-.381" transform="translate(-190.049 -173.507)" fill="#441c16"/>
        <path id="Trazado_983546" data-name="Trazado 983546" d="M301.491,262.114l-.189.076a.054.054,0,0,1-.029,0,17.1,17.1,0,0,0-4.594.085c-.334.034-.658.07-.975.1-.571.052-1.217.1-1.879.1-.141,0-.281,0-.424-.01a.508.508,0,0,1,.069-.1c.123,0,.254,0,.383,0,.635,0,1.281-.048,1.879-.1.317-.028.641-.064.967-.1a17.3,17.3,0,0,1,4.649-.087.756.756,0,0,1,.142.032" transform="translate(-190.704 -170.264)" fill="#441c16"/>
        <path id="Trazado_983547" data-name="Trazado 983547" d="M348.134,308.864l-.1-.4-.888-.373-.132-.062-.993-.418.586-.67.114-.129.959-1.105-1.645-.126-.157-.012h-.043l2.148-2.106-.841-.445-.5-.266-.1-.058-.333-.169c.214-.079.44-.154.668-.22.078-.024.15-.043.228-.067a14.656,14.656,0,0,1,2.915-.545c.117-.011.228-.015.34-.02a6.664,6.664,0,0,1,2.551.3.97.97,0,0,1,.138.056,2,2,0,0,1,1.058.876l.058.116c.018.043.03.084.048.127l-.006.006a.234.234,0,0,1,.024.089,1.707,1.707,0,0,1-.027.853,3.462,3.462,0,0,1-.578,1.114,1.259,1.259,0,0,1-.1.128,12.635,12.635,0,0,1-5.179,3.451Z" transform="translate(-224.783 -196.071)" fill="#441c16"/>
        <path id="Trazado_983548" data-name="Trazado 983548" d="M348.134,310.361l-.1-.4-.888-.373-.132-.062-.993-.418.586-.67.114-.129.959-1.105-1.645-.126-.157-.012h-.043l2.148-2.106-.841-.445a14.683,14.683,0,0,1,2.838-.521c.111,0,.222-.017.327-.016a8.32,8.32,0,0,1,1.172.016c.075,0,.151.009.22.019l.006,0a3.432,3.432,0,0,1,2.077.816.342.342,0,0,1,.072.077,1.278,1.278,0,0,1,.212.3l.052.114a1.514,1.514,0,0,1,.085.273,3.462,3.462,0,0,1-.578,1.114,1.259,1.259,0,0,1-.1.128,12.635,12.635,0,0,1-5.179,3.451Z" transform="translate(-224.783 -197.568)" fill="#621212"/>
        <path id="Trazado_983549" data-name="Trazado 983549" d="M349.337,314.675l-.132-.062a23.981,23.981,0,0,0,2.832-1.194c.228-.111.456-.229.683-.348a20.784,20.784,0,0,1,1.966-.918c.374-.14.75-.257,1.129-.359a1.3,1.3,0,0,1-.1.128c-.336.095-.671.2-1,.325a19.511,19.511,0,0,0-1.936.907c-.227.119-.455.229-.683.348a24.328,24.328,0,0,1-2.766,1.173" transform="translate(-226.975 -202.659)" fill="#441c16"/>
        <path id="Trazado_983550" data-name="Trazado 983550" d="M347.95,303.82l-.1-.058c.107-.131.222-.26.336-.39.078-.024.15-.043.228-.067-.159.165-.306.334-.463.514" transform="translate(-226.094 -197.142)" fill="#441c16"/>
        <path id="Trazado_983551" data-name="Trazado 983551" d="M346.114,306.155l-.157-.012a4.54,4.54,0,0,1,.343-.379,4.81,4.81,0,0,1,.448-.387,10.438,10.438,0,0,1,2.07-1.169c.916-.42,1.839-.793,2.74-1.138.492-.187.968-.358,1.432-.525a.955.955,0,0,1,.138.056c-.441.154-.892.318-1.343.49l-.007,0c-.955.362-1.936.759-2.9,1.2a10.525,10.525,0,0,0-2.029,1.146,4.057,4.057,0,0,0-.735.72" transform="translate(-224.864 -196.648)" fill="#441c16"/>
        <path id="Trazado_983552" data-name="Trazado 983552" d="M348.042,309.708l.114-.129a.07.07,0,0,1,.029-.012,20.585,20.585,0,0,0,4.422-2.083c.3-.168.579-.333.864-.49.511-.284,1.1-.6,1.745-.893.141-.061.277-.123.425-.181a.229.229,0,0,1,.024.09c-.124.052-.253.109-.376.169-.623.281-1.211.6-1.745.893-.285.157-.568.322-.858.485a20.823,20.823,0,0,1-4.474,2.108,1.387,1.387,0,0,1-.169.043" transform="translate(-226.219 -198.841)" fill="#441c16"/>
        <path id="Trazado_983553" data-name="Trazado 983553" d="M376.506,272.853l-.1-.4-.888-.373-.132-.062-.993-.418.586-.67.114-.129.959-1.105-1.646-.126-.157-.012H374.2l2.149-2.106-.841-.445-.5-.266-.1-.058-.333-.169c.214-.079.44-.154.668-.221.078-.024.15-.042.228-.066a14.658,14.658,0,0,1,2.916-.545c.117-.01.228-.015.34-.02a6.662,6.662,0,0,1,2.551.3.98.98,0,0,1,.138.056,2,2,0,0,1,1.058.875l.058.117c.018.043.029.084.048.127l-.006.006a.228.228,0,0,1,.024.089,1.7,1.7,0,0,1-.027.853,3.469,3.469,0,0,1-.578,1.114,1.259,1.259,0,0,1-.1.128,12.635,12.635,0,0,1-5.179,3.451Z" transform="translate(-243.223 -172.664)" fill="#441c16"/>
        <path id="Trazado_983554" data-name="Trazado 983554" d="M376.506,274.351l-.1-.4-.888-.373-.132-.062-.993-.418.586-.67.114-.129.959-1.105-1.646-.126-.157-.012H374.2l2.149-2.106-.841-.445a14.687,14.687,0,0,1,2.838-.521c.111,0,.222-.017.327-.016a8.375,8.375,0,0,1,1.172.016c.075,0,.151.009.22.019l.006,0a3.43,3.43,0,0,1,2.077.816.335.335,0,0,1,.072.077,1.3,1.3,0,0,1,.212.3l.052.114a1.515,1.515,0,0,1,.085.273,3.469,3.469,0,0,1-.578,1.114,1.256,1.256,0,0,1-.1.128,12.635,12.635,0,0,1-5.179,3.451Z" transform="translate(-243.223 -174.162)" fill="#621212"/>
        <path id="Trazado_983555" data-name="Trazado 983555" d="M377.709,278.664l-.132-.062a23.983,23.983,0,0,0,2.832-1.194c.228-.111.455-.229.683-.348a20.787,20.787,0,0,1,1.966-.918c.373-.14.75-.257,1.129-.359a1.3,1.3,0,0,1-.1.128c-.336.094-.671.2-1,.325a19.394,19.394,0,0,0-1.936.907c-.227.119-.455.229-.683.348a24.328,24.328,0,0,1-2.766,1.173" transform="translate(-245.416 -179.253)" fill="#441c16"/>
        <path id="Trazado_983556" data-name="Trazado 983556" d="M376.322,267.809l-.1-.058c.107-.132.222-.261.336-.39.078-.024.15-.042.227-.066-.159.165-.305.334-.462.514" transform="translate(-244.535 -173.735)" fill="#441c16"/>
        <path id="Trazado_983557" data-name="Trazado 983557" d="M374.486,270.144l-.157-.011a4.544,4.544,0,0,1,.343-.38,4.81,4.81,0,0,1,.448-.387,10.438,10.438,0,0,1,2.07-1.169c.916-.42,1.839-.794,2.74-1.138.492-.187.968-.358,1.431-.525a.959.959,0,0,1,.138.056c-.441.154-.892.318-1.343.49l-.007,0c-.955.362-1.936.759-2.9,1.2a10.544,10.544,0,0,0-2.029,1.146,4.058,4.058,0,0,0-.735.72" transform="translate(-243.305 -173.241)" fill="#441c16"/>
        <path id="Trazado_983558" data-name="Trazado 983558" d="M376.414,273.7l.114-.129a.069.069,0,0,1,.029-.012,20.587,20.587,0,0,0,4.422-2.083c.3-.168.579-.333.863-.49.511-.284,1.1-.6,1.745-.893.142-.061.277-.123.425-.181a.224.224,0,0,1,.024.09c-.124.052-.253.109-.376.169-.623.281-1.211.6-1.745.893-.284.157-.568.322-.858.485a20.819,20.819,0,0,1-4.474,2.108,1.354,1.354,0,0,1-.169.043" transform="translate(-244.66 -175.434)" fill="#441c16"/>
        <path id="Trazado_983559" data-name="Trazado 983559" d="M261.045,312.388l.622,0,1.152-.506.18-.075,1.289-.566.482.494.092.1.8.81,1.368-1.037.129-.1.033-.028,1.294,1.75,1.215-.464.725-.276.152-.055.472-.184a3.845,3.845,0,0,1-.187.468c-.024.054-.051.1-.075.159a7.883,7.883,0,0,1-1.382,1.972c-.071.077-.145.149-.22.222a8.333,8.333,0,0,1-2.261,1.59c-.063.03-.118.057-.176.079a6.3,6.3,0,0,1-1.957.528l-.2.017c-.072,0-.135,0-.207.008l0,0a.738.738,0,0,1-.139,0,4.121,4.121,0,0,1-1.137-.166,3.266,3.266,0,0,1-1.091-.567.728.728,0,0,1-.105-.084,3.723,3.723,0,0,1-.913-3.936Z" transform="translate(-169.52 -202.303)" fill="#441c16"/>
        <path id="Trazado_983560" data-name="Trazado 983560" d="M261.045,312.388l.622,0,1.152-.506.18-.075,1.289-.566.482.494.092.1.8.81,1.368-1.037.129-.1.033-.028,1.294,1.75,1.215-.464a7.94,7.94,0,0,1-1.357,1.917c-.075.073-.138.146-.216.214a7.972,7.972,0,0,1-.875.751c-.061.048-.122.1-.186.139l-.008,0a7.316,7.316,0,0,1-2.617,1.194,1.181,1.181,0,0,1-.157.033,4.727,4.727,0,0,1-.556.085l-.193.014c-.151.012-.293.007-.432.007a3.266,3.266,0,0,1-1.091-.567.728.728,0,0,1-.105-.084,3.723,3.723,0,0,1-.913-3.936Z" transform="translate(-169.52 -202.303)" fill="#621212"/>
        <path id="Trazado_983561" data-name="Trazado 983561" d="M264.862,312.939l.18-.075a7.448,7.448,0,0,0-.441,2.031c-.016.167-.02.334-.025.5a6.026,6.026,0,0,1-.184,1.425,4.655,4.655,0,0,1-.334.79.75.75,0,0,1-.105-.084,3.912,3.912,0,0,0,.284-.7,5.663,5.663,0,0,0,.178-1.4c0-.167.021-.333.025-.5a7.525,7.525,0,0,1,.421-1.985" transform="translate(-171.563 -203.354)" fill="#441c16"/>
        <path id="Trazado_983562" data-name="Trazado 983562" d="M288.286,314.7l.152-.055c.1.092.192.188.285.284-.024.054-.051.1-.075.158-.108-.131-.231-.255-.361-.387" transform="translate(-187.379 -204.515)" fill="#441c16"/>
        <path id="Trazado_983563" data-name="Trazado 983563" d="M278.062,312.1l.13-.1a2.039,2.039,0,0,1,.266.287,1.61,1.61,0,0,1,.2.356,2.87,2.87,0,0,1,.079,1.537,14.251,14.251,0,0,1-.449,1.962c-.1.35-.219.686-.329,1.013-.063.03-.118.057-.176.079.112-.31.218-.63.312-.95l.008,0a14.931,14.931,0,0,0,.482-2.076,2.9,2.9,0,0,0-.078-1.506,1.557,1.557,0,0,0-.442-.6" transform="translate(-180.55 -202.791)" fill="#441c16"/>
        <path id="Trazado_983564" data-name="Trazado 983564" d="M271.145,312.657l.092.1s0,.013-.006.021a6.043,6.043,0,0,0-.391,3.21c.013.22.03.431.036.642a6.863,6.863,0,0,1-.058,1.279c-.021.1-.034.2-.063.3a.738.738,0,0,1-.139,0,2.328,2.328,0,0,0,.045-.272,6.439,6.439,0,0,0,.058-1.279c-.006-.21-.024-.422-.033-.637a6.1,6.1,0,0,1,.4-3.248.576.576,0,0,1,.063-.116" transform="translate(-175.895 -203.22)" fill="#441c16"/>
        <path id="Trazado_983565" data-name="Trazado 983565" d="M259.575,286.341c-.1.061-.2.116-.3.169a9.924,9.924,0,0,1-2.754,1.029c-.062.014-.123.025-.186.034a5.048,5.048,0,0,1-1.883,0l-.166-.038c-.061-.015-.116-.033-.172-.052h0a1.091,1.091,0,0,1-.112-.041,2.294,2.294,0,0,1-.814-.492,1.982,1.982,0,0,1-.547-.891.9.9,0,0,1-.033-.119c-.289-1.148.234-2.741,1.579-4.357a12.293,12.293,0,0,1,3.109-2.646c.1-.06.205-.12.312-.175a9.852,9.852,0,0,1,2.915-1.125,1.853,1.853,0,0,1,.2-.039,5.706,5.706,0,0,1,1.2-.087c.083,0,.165.008.244.015a4.072,4.072,0,0,1,.507.081.32.32,0,0,1,.049.014,1.327,1.327,0,0,1,.138.037,2.472,2.472,0,0,1,.264.086c1.952.771,1.894,3.273-.236,5.833a11.657,11.657,0,0,1-.886.948c-.048.048-.1.093-.147.141a12.519,12.519,0,0,1-2.269,1.669" transform="translate(-164.135 -180.377)" fill="#441c16"/>
        <path id="Trazado_983566" data-name="Trazado 983566" d="M258.824,285.872c-.1.059-.2.116-.307.168a10.994,10.994,0,0,1-1.14.537s0,0,0,0c-.075.031-.15.06-.23.089l0,0a7.06,7.06,0,0,1-2.81.517c-.049,0-.095,0-.139-.008a3.671,3.671,0,0,1-.5-.07l-.166-.038a2.625,2.625,0,0,1-.346-.115,1.985,1.985,0,0,1-.547-.891.9.9,0,0,1-.033-.119c-.289-1.148.234-2.741,1.579-4.357a12.284,12.284,0,0,1,3.109-2.645c.1-.06.205-.12.312-.175a9.851,9.851,0,0,1,2.915-1.125,1.821,1.821,0,0,1,.2-.038,5.709,5.709,0,0,1,1.2-.087c.082,0,.164.008.244.015a4.135,4.135,0,0,1,.507.081.364.364,0,0,1,.049.014,1.343,1.343,0,0,1,.138.037,2.565,2.565,0,0,1,.264.086c1.131,1.067.816,3.194-.987,5.364-.1.123-.209.245-.318.363-.042.049-.086.1-.132.143a12.428,12.428,0,0,1-2.851,2.251" transform="translate(-164.135 -180.377)" fill="#621212"/>
        <path id="Trazado_983567" data-name="Trazado 983567" d="M252.778,286.071a.9.9,0,0,1-.033-.119,6.862,6.862,0,0,0,.64-.647,9.941,9.941,0,0,0,.969-1.415c.1-.171.207-.342.316-.512a13.937,13.937,0,0,1,2.987-3.347,15.658,15.658,0,0,1,4.4-2.507c.082,0,.164.008.244.015l-.136.049a15.346,15.346,0,0,0-4.4,2.5,13.832,13.832,0,0,0-2.955,3.308c-.107.172-.208.341-.311.512a10.218,10.218,0,0,1-.985,1.435,7.783,7.783,0,0,1-.733.733" transform="translate(-164.278 -180.384)" fill="#441c16"/>
        <path id="Trazado_983568" data-name="Trazado 983568" d="M277.6,284.884a8.014,8.014,0,0,0-.169-1.051c-.044-.217-.1-.439-.164-.668-.043-.145-.085-.292-.128-.436a7.669,7.669,0,0,1-.365-1.716,3.41,3.41,0,0,1,1.694-3.173,1.335,1.335,0,0,1,.138.037,3.218,3.218,0,0,0-.948.8,3.307,3.307,0,0,0-.73,2.3,7.429,7.429,0,0,0,.364,1.7c.044.145.085.292.128.437.056.2.1.388.144.573a9.7,9.7,0,0,1,.184,1.054c-.049.048-.1.093-.147.14" transform="translate(-179.893 -180.589)" fill="#441c16"/>
        <path id="Trazado_983569" data-name="Trazado 983569" d="M259.247,294.58c-.062.014-.123.025-.186.034q.4-.438.813-.9l0,0a25.223,25.223,0,0,0,1.609-2.029,4.777,4.777,0,0,0,.824-1.588,1.6,1.6,0,0,0-.269-1.329.684.684,0,0,0-.573-.308,1.735,1.735,0,0,0-1.06.541,10.634,10.634,0,0,0-2.2,3.238c-.117.228-.231.454-.35.677a11.367,11.367,0,0,1-.8,1.317c-.07.1-.144.2-.225.3a1.016,1.016,0,0,1-.112-.041q.106-.135.2-.268a11.239,11.239,0,0,0,.793-1.316c.118-.223.233-.449.347-.676a10.729,10.729,0,0,1,2.23-3.277,1.957,1.957,0,0,1,1.219-.605.8.8,0,0,1,.67.347,1.653,1.653,0,0,1,.279,1.384,4.873,4.873,0,0,1-.84,1.623c-.466.661-.984,1.3-1.514,1.918l0,0c-.283.33-.573.653-.859.962" transform="translate(-166.866 -187.417)" fill="#441c16"/>
        <path id="Trazado_983570" data-name="Trazado 983570" d="M342.574,257.5c-.1.061-.2.116-.3.169a9.929,9.929,0,0,1-2.754,1.029c-.062.014-.123.025-.186.034a5.048,5.048,0,0,1-1.883,0l-.166-.038c-.061-.015-.116-.033-.172-.052h0a1.091,1.091,0,0,1-.112-.041,2.294,2.294,0,0,1-.814-.492,1.982,1.982,0,0,1-.547-.891.894.894,0,0,1-.033-.119c-.289-1.149.234-2.741,1.579-4.357a12.292,12.292,0,0,1,3.109-2.646c.1-.059.205-.12.312-.175a9.843,9.843,0,0,1,2.915-1.125,1.942,1.942,0,0,1,.2-.039,5.707,5.707,0,0,1,1.2-.087c.083,0,.165.008.244.015a4.134,4.134,0,0,1,.507.081.363.363,0,0,1,.049.014,1.254,1.254,0,0,1,.138.037,2.469,2.469,0,0,1,.264.086c1.952.771,1.894,3.273-.236,5.833a11.721,11.721,0,0,1-.886.948c-.048.048-.1.093-.147.141a12.519,12.519,0,0,1-2.269,1.669" transform="translate(-218.083 -161.63)" fill="#441c16"/>
        <path id="Trazado_983571" data-name="Trazado 983571" d="M341.822,257.03c-.1.06-.2.116-.307.168a10.913,10.913,0,0,1-1.14.537s0,0,0,0c-.075.031-.15.06-.23.089l0,0a7.06,7.06,0,0,1-2.81.517c-.049,0-.1,0-.139-.008a3.675,3.675,0,0,1-.5-.07l-.166-.038a2.62,2.62,0,0,1-.346-.115,1.985,1.985,0,0,1-.547-.891.894.894,0,0,1-.033-.119c-.289-1.148.234-2.741,1.579-4.357a12.292,12.292,0,0,1,3.109-2.646c.1-.06.205-.12.312-.175a9.85,9.85,0,0,1,2.915-1.125,1.831,1.831,0,0,1,.2-.039,5.711,5.711,0,0,1,1.2-.087c.082,0,.164.008.244.015a4.07,4.07,0,0,1,.507.081.318.318,0,0,1,.049.014,1.332,1.332,0,0,1,.138.037,2.553,2.553,0,0,1,.264.086c1.131,1.066.816,3.194-.987,5.364-.1.123-.209.245-.318.363-.042.049-.086.1-.132.143a12.429,12.429,0,0,1-2.851,2.251" transform="translate(-218.082 -161.631)" fill="#621212"/>
        <path id="Trazado_983572" data-name="Trazado 983572" d="M335.776,257.229a.953.953,0,0,1-.033-.119,6.915,6.915,0,0,0,.64-.647,9.972,9.972,0,0,0,.969-1.415c.1-.171.206-.342.315-.512a13.938,13.938,0,0,1,2.987-3.347,15.667,15.667,0,0,1,4.4-2.507c.082,0,.164.008.244.015-.043.015-.09.032-.135.049a15.333,15.333,0,0,0-4.4,2.5,13.831,13.831,0,0,0-2.955,3.308c-.107.172-.208.341-.311.512a10.216,10.216,0,0,1-.985,1.435,7.782,7.782,0,0,1-.733.732" transform="translate(-218.225 -161.637)" fill="#441c16"/>
        <path id="Trazado_983573" data-name="Trazado 983573" d="M360.6,256.042a8,8,0,0,0-.169-1.051c-.044-.217-.1-.439-.164-.668-.044-.145-.085-.292-.128-.436a7.667,7.667,0,0,1-.365-1.716A3.41,3.41,0,0,1,361.467,249a1.335,1.335,0,0,1,.138.037,3.219,3.219,0,0,0-.948.8,3.307,3.307,0,0,0-.73,2.3,7.432,7.432,0,0,0,.364,1.7c.044.145.085.292.128.437.056.2.1.388.143.573a9.6,9.6,0,0,1,.184,1.054c-.048.048-.1.093-.147.14" transform="translate(-233.84 -161.842)" fill="#441c16"/>
        <path id="Trazado_983574" data-name="Trazado 983574" d="M342.247,265.738c-.062.014-.123.025-.186.034q.405-.438.813-.9l0,0a25.309,25.309,0,0,0,1.61-2.029,4.782,4.782,0,0,0,.824-1.588,1.594,1.594,0,0,0-.269-1.329.684.684,0,0,0-.573-.309,1.737,1.737,0,0,0-1.06.541,10.633,10.633,0,0,0-2.2,3.238c-.117.228-.231.454-.35.678a11.356,11.356,0,0,1-.8,1.317c-.07.1-.144.2-.225.3a1.091,1.091,0,0,1-.112-.041q.106-.135.2-.269a11.268,11.268,0,0,0,.793-1.316c.118-.224.233-.45.347-.676a10.728,10.728,0,0,1,2.23-3.277,1.959,1.959,0,0,1,1.219-.605.8.8,0,0,1,.67.347,1.654,1.654,0,0,1,.279,1.384,4.87,4.87,0,0,1-.84,1.623c-.466.661-.984,1.3-1.514,1.918l0,0c-.283.33-.573.652-.859.961" transform="translate(-220.814 -168.67)" fill="#441c16"/>
        <path id="Trazado_983575" data-name="Trazado 983575" d="M295.764,318.871c-.112,0-.217-.01-.321-.019a5.373,5.373,0,0,1-2.318-.613,1.019,1.019,0,0,1-.115-.073,1.674,1.674,0,0,1-.771-1.035l-.023-.125a1.108,1.108,0,0,1-.01-.14v0a.567.567,0,0,1,0-.1,2.055,2.055,0,0,1,.241-.882,4.279,4.279,0,0,1,.814-1.086c.038-.04.08-.083.125-.123a13.963,13.963,0,0,1,5.709-2.966,15.137,15.137,0,0,1,4.341-.614c.112,0,.224.007.33.018a5.475,5.475,0,0,1,2.494.617.735.735,0,0,1,.126.076,1.9,1.9,0,0,1,.587.583,1.359,1.359,0,0,1,.082.148,1.544,1.544,0,0,1,.112.351.164.164,0,0,1,0,.039.615.615,0,0,1,.013.109,1.261,1.261,0,0,1,.007.222c-.1,1.757-3.035,3.928-6.879,5.008q-.746.208-1.462.345c-.076.016-.148.029-.223.043a13.239,13.239,0,0,1-2.864.218" transform="translate(-189.927 -202.201)" fill="#441c16"/>
        <path id="Trazado_983576" data-name="Trazado 983576" d="M296.448,318.042c-.112,0-.217-.009-.32-.021a7.227,7.227,0,0,1-1.088-.156s0,0,0,0c-.067-.014-.131-.03-.2-.048h0a2.7,2.7,0,0,1-1.745-1.1.541.541,0,0,1-.047-.084,1.327,1.327,0,0,1-.122-.338l-.023-.125a1.356,1.356,0,0,1-.007-.292,4.271,4.271,0,0,1,.813-1.086c.038-.04.081-.083.125-.123a13.965,13.965,0,0,1,5.709-2.966,15.126,15.126,0,0,1,4.341-.615c.111,0,.223.007.33.018a5.469,5.469,0,0,1,2.494.617.69.69,0,0,1,.126.076,1.89,1.89,0,0,1,.587.583,1.328,1.328,0,0,1,.082.148,1.506,1.506,0,0,1,.112.351.163.163,0,0,1,0,.039.582.582,0,0,1,.013.109,1.288,1.288,0,0,1,.007.221c-.78,1.564-3.383,3.264-6.639,4.18-.184.053-.37.1-.552.145q-.111.03-.22.053a14.14,14.14,0,0,1-3.777.409" transform="translate(-190.371 -202.2)" fill="#621212"/>
        <path id="Trazado_983577" data-name="Trazado 983577" d="M295.227,316.579c.038-.04.08-.083.125-.123a10.244,10.244,0,0,0,1.012-.216,19.919,19.919,0,0,0,2.04-.712c.241-.094.482-.187.724-.277a22.466,22.466,0,0,1,5.107-1.3,12.574,12.574,0,0,1,4.7.219,1.356,1.356,0,0,1,.082.148c-.036-.01-.074-.022-.113-.031a12.264,12.264,0,0,0-4.692-.23,22.3,22.3,0,0,0-5.048,1.282c-.243.092-.481.186-.722.279a20.388,20.388,0,0,1-2.069.72,11.31,11.31,0,0,1-1.15.241" transform="translate(-191.891 -203.984)" fill="#441c16"/>
        <path id="Trazado_983578" data-name="Trazado 983578" d="M310.553,322.058c.379-.313.762-.651,1.153-1.019.235-.216.469-.442.71-.679l.456-.455a22.556,22.556,0,0,1,1.847-1.713,9.157,9.157,0,0,1,3.057-1.67,4.263,4.263,0,0,1,1.322-.191.585.585,0,0,1,.013.109,3.924,3.924,0,0,0-1.313.18,8.883,8.883,0,0,0-2.976,1.627,21.945,21.945,0,0,0-1.831,1.7c-.151.152-.3.3-.455.455-.2.2-.409.4-.609.585q-.588.555-1.15,1.029c-.076.016-.148.029-.223.043" transform="translate(-201.852 -205.606)" fill="#441c16"/>
        <path id="Trazado_983579" data-name="Trazado 983579" d="M293.125,323.264a1.051,1.051,0,0,1-.116-.073q.675-.163,1.383-.348h0c.983-.258,2-.556,3.014-.9a11.161,11.161,0,0,0,2.182-.944,4.557,4.557,0,0,0,1.436-1.319c.179-.27.22-.462.126-.588-.159-.219-.666-.18-1.061-.108a21.3,21.3,0,0,0-4.659,1.639c-.313.136-.622.272-.93.4-.543.233-1.178.492-1.856.72-.145.05-.292.1-.441.141a.6.6,0,0,1,0-.1q.2-.061.393-.127c.654-.22,1.283-.476,1.853-.722.308-.132.617-.267.927-.4a21.447,21.447,0,0,1,4.717-1.656c.439-.081,1.005-.12,1.2.14.11.152.07.373-.131.675a4.729,4.729,0,0,1-1.5,1.373,11.381,11.381,0,0,1-2.23.966c-.957.325-1.917.606-2.847.854h0c-.5.134-.992.258-1.467.373" transform="translate(-189.927 -207.226)" fill="#441c16"/>
        <path id="Trazado_983580" data-name="Trazado 983580" d="M289.7,299.475l1.726-2.155,5,1.612-4.22,2.765Z" transform="translate(-188.298 -193.25)" fill="#621212"/>
        <path id="Trazado_983581" data-name="Trazado 983581" d="M355.97,288.095l1.726-2.155,5,1.612-4.22,2.765Z" transform="translate(-231.372 -185.854)" fill="#621212"/>
        <path id="Trazado_983582" data-name="Trazado 983582" d="M317.065,273.465l-3.121,1.207-1.013-3.955,5.069-.575Z" transform="translate(-203.398 -175.585)" fill="#621212"/>
        <path id="Trazado_983583" data-name="Trazado 983583" d="M322.221,286.429l-.307,2.354,4.145-.2,1.509-2.326-2.288-.879Z" transform="translate(-209.237 -185.491)" fill="#621212"/>
        <path id="Trazado_983584" data-name="Trazado 983584" d="M328.086,253.144l0-.092.156-3.385,3.789-.075Z" transform="translate(-213.248 -162.228)" fill="#621212"/>
        <path id="Trazado_983585" data-name="Trazado 983585" d="M306.342,287.854l1.678,2.115,2.351-2.419Z" transform="translate(-199.115 -186.901)" fill="#621212"/>
        <path id="Trazado_983586" data-name="Trazado 983586" d="M341,282.186l4.89-1.968-.108,2.237Z" transform="translate(-221.64 -182.135)" fill="#621212"/>
        <path id="Trazado_983587" data-name="Trazado 983587" d="M329.737,299.053l-5.852.8-.357,1.5,5.278-.054Z" transform="translate(-210.286 -194.377)" fill="#621212"/>
        <path id="Trazado_983588" data-name="Trazado 983588" d="M305.093,162.039a15.385,15.385,0,0,1,2.718,5.57c.063.239.123.48.169.724a14.851,14.851,0,0,1,.319,2.522c.3,7.286-4.772,13.722-11.593,15.928s-16.057.349-20.1-5.882a12.529,12.529,0,0,1-1.087-2.072q-.143-.356-.261-.721a13.133,13.133,0,0,1-.092-7.489c.046-.178.092-.357.143-.533a28.182,28.182,0,0,1,2.782-6.261c1.46-2.521,3.988-4.863,3.8-7.991-.275-4.5-8.835-41.994-8.835-41.994l15.58-3.115s5.489,39.172,8.041,43.849c1.593,2.924,5.113,3.972,7.36,6.262.243.247.481.506.7.774.123.14.236.282.352.429" transform="translate(-177.481 -71.969)" fill="#f5b274"/>
        <path id="Trazado_983589" data-name="Trazado 983589" d="M309.016,256.53a20.7,20.7,0,0,1-6.9,7.294,23.6,23.6,0,0,1-5.155,2.487,26.932,26.932,0,0,1-7.535,1.4c-2.56.113-6.993-.12-10.333-2.6.046-.179.092-.357.144-.533,3.227,2.5,7.637,2.735,10.169,2.622a24.968,24.968,0,0,0,12.435-3.8,20.087,20.087,0,0,0,6.824-7.3c.123.14.236.282.352.429" transform="translate(-181.404 -166.46)" fill="#621212"/>
        <path id="Trazado_983590" data-name="Trazado 983590" d="M311.9,273.24c.063.239.122.48.169.725a23.955,23.955,0,0,1-7.655,7.888,27.3,27.3,0,0,1-5.96,2.87,31.32,31.32,0,0,1-8.711,1.623,20.863,20.863,0,0,1-10.131-1.886q-.143-.356-.261-.721c3.536,2.016,7.793,2.211,10.369,2.092a28.866,28.866,0,0,0,14.415-4.41,23.458,23.458,0,0,0,7.764-8.181" transform="translate(-181.575 -177.6)" fill="#621212"/>
        <path id="Trazado_983591" data-name="Trazado 983591" d="M261.487,33.037A132.982,132.982,0,0,0,286.276,27.7V59.239l-17.889,8.527a139.421,139.421,0,0,1-14,1.893h-.016c-1.569.127-3.175.217-4.753.253a44.951,44.951,0,0,1-11.846-1.93c-2.127-.586-4.192-1.233-6.035-1.852-.86-.291-1.668-.574-2.413-.84-1.1-.389-2.057-.746-2.815-1.037-1.114-.426-1.807-.709-1.9-.75a8.38,8.38,0,0,1,3.671,3.028,6.891,6.891,0,0,1,.955,2.364.016.016,0,0,1,0,.012,7.822,7.822,0,0,1,.139,1.377,2.356,2.356,0,0,1-1.606,2.233l-6.146,2.106-.635.217c.176.057.348.119.516.184,0,0,.008,0,.016,0a9.448,9.448,0,0,1,2.909,1.754l.012.012a8.849,8.849,0,0,1,2.319,3.343.234.234,0,0,1,.029.066c.1.254.188.5.266.75a12.374,12.374,0,0,1,.463,2.139c.028.238.049.471.065.689a2.628,2.628,0,0,1-1.369,2.5s0,0-.008,0a2.671,2.671,0,0,1-.615.238l-3.294.832a5.845,5.845,0,0,1,2.754,2.958,7.634,7.634,0,0,1,.561,2.876c0,.094,0,.184,0,.271a2.666,2.666,0,0,1-2.028,2.524.332.332,0,0,1-.061.016l-2.36.541a5.549,5.549,0,0,1,1.2,3.671,3.046,3.046,0,0,1-1.028,2.155,3.245,3.245,0,0,1-2.454.816c-3.224-.283-8.7-.922-10.911-2.123a3.8,3.8,0,0,1-1.6-1.59,5.925,5.925,0,0,1-.156-4.232.013.013,0,0,1-.008,0,.225.225,0,0,0-.041-.029c-.033-.02-.082-.053-.143-.094-.037-.025-.082-.053-.127-.086s-.065-.045-.1-.065c-1.27-.836-5.154-3.43-8.342-5.847-.1-.078-.2-.156-.3-.23-.852-.656-1.647-1.291-2.311-1.873a5.939,5.939,0,0,1-1.77-2.6.562.562,0,0,1-.02-.065,6.379,6.379,0,0,1-.3-2.168v-.053a8.834,8.834,0,0,1,.684-3.089c.037-.082.057-.123.057-.123s-.271-.135-.721-.426c0,0,0,0-.008,0a16.367,16.367,0,0,1-2.491-2.032c-1.508-1.479-1.627-5.278-1.627-6.462V69.97c0-.217,0-.344,0-.344s-.012,0-.02,0a4.935,4.935,0,0,1-2.385-.238,14.224,14.224,0,0,1-5.126-3.568c-.053-.054-.1-.107-.156-.16a3.819,3.819,0,0,1,.164-5.478l10.5-9.65S206.84,31.775,212.72,28.812s31.14,6.216,48.767,4.224" transform="translate(-116.922 -18.006)" fill="#b65743"/>
        <g id="Grupo_1103086" data-name="Grupo 1103086" transform="translate(62.965 9.696)" opacity="0.3">
          <g id="Grupo_1103085" data-name="Grupo 1103085">
            <g id="Grupo_1103084" data-name="Grupo 1103084" clip-path="url(#clip-path-5)">
              <path id="Trazado_983592" data-name="Trazado 983592" d="M261.487,33.037A132.982,132.982,0,0,0,286.276,27.7V59.239l-17.889,8.527a139.421,139.421,0,0,1-14,1.893h-.016c-1.569.127-3.175.217-4.753.253a44.951,44.951,0,0,1-11.846-1.93c-2.127-.586-4.192-1.233-6.035-1.852-.86-.291-1.668-.574-2.413-.84-1.1-.389-2.057-.746-2.815-1.037-1.114-.426-1.807-.709-1.9-.75a8.38,8.38,0,0,1,3.671,3.028,6.891,6.891,0,0,1,.955,2.364.016.016,0,0,1,0,.012,7.822,7.822,0,0,1,.139,1.377,2.356,2.356,0,0,1-1.606,2.233l-6.146,2.106-.635.217c.176.057.348.119.516.184,0,0,.008,0,.016,0a9.448,9.448,0,0,1,2.909,1.754l.012.012a8.849,8.849,0,0,1,2.319,3.343.234.234,0,0,1,.029.066c.1.254.188.5.266.75a12.374,12.374,0,0,1,.463,2.139c.028.238.049.471.065.689a2.628,2.628,0,0,1-1.369,2.5s0,0-.008,0a2.671,2.671,0,0,1-.615.238l-3.294.832a5.845,5.845,0,0,1,2.754,2.958,7.634,7.634,0,0,1,.561,2.876c0,.094,0,.184,0,.271a2.666,2.666,0,0,1-2.028,2.524.332.332,0,0,1-.061.016l-2.36.541a5.549,5.549,0,0,1,1.2,3.671,3.046,3.046,0,0,1-1.028,2.155,3.245,3.245,0,0,1-2.454.816c-3.224-.283-8.7-.922-10.911-2.123a3.8,3.8,0,0,1-1.6-1.59,5.925,5.925,0,0,1-.156-4.232.013.013,0,0,1-.008,0,.225.225,0,0,0-.041-.029c-.033-.02-.082-.053-.143-.094-.037-.025-.082-.053-.127-.086s-.065-.045-.1-.065c-1.27-.836-5.154-3.43-8.342-5.847-.1-.078-.2-.156-.3-.23-.852-.656-1.647-1.291-2.311-1.873a5.939,5.939,0,0,1-1.77-2.6.562.562,0,0,1-.02-.065,6.379,6.379,0,0,1-.3-2.168v-.053a8.834,8.834,0,0,1,.684-3.089c.037-.082.057-.123.057-.123s-.271-.135-.721-.426c0,0,0,0-.008,0a16.367,16.367,0,0,1-2.491-2.032c-1.508-1.479-1.627-5.278-1.627-6.462V69.97c0-.217,0-.344,0-.344s-.012,0-.02,0a4.935,4.935,0,0,1-2.385-.238,14.224,14.224,0,0,1-5.126-3.568c-.053-.054-.1-.107-.156-.16a3.819,3.819,0,0,1,.164-5.478l10.5-9.65S206.84,31.775,212.72,28.812s31.14,6.216,48.767,4.224" transform="translate(-179.887 -27.702)" fill="#f5b274"/>
            </g>
          </g>
        </g>
        <path id="Trazado_983593" data-name="Trazado 983593" d="M229.569,64.5s-8.39.5-14.365.639-10.34-.105-12.176,1.475-12.114,9.063-12.114,9.063l-9.445,9.073a2.458,2.458,0,0,0-.736,2.128c.32,2.18,1.766,6.792,8.43,6.6,9.1-.264,18.581-7.076,18.581-7.076s11.852-.571,16.363.1,6.727,4.83,19.068,6.152a138.446,138.446,0,0,0,18.742,1.033" transform="translate(-117.455 -41.922)" fill="none" stroke="#441c16" stroke-linecap="round" stroke-linejoin="round" stroke-width="2.499"/>
        <path id="Trazado_983594" data-name="Trazado 983594" d="M222.587,133.539s10.116,7.553,13.841,7.783,13.739-1.772,13.739-1.772,6.8-1.218,7.038-3.52-1.669-6.958-5.426-8.208" transform="translate(-144.676 -83.081)" fill="none" stroke="#441c16" stroke-linecap="round" stroke-linejoin="round" stroke-width="2.499"/>
        <path id="Trazado_983595" data-name="Trazado 983595" d="M204.863,147.28s.16,5.1,1.453,6.557,12.152,10.026,14.412,10.837,13.333.745,17.812.4,5.414-2.013,5.2-4.477-2.166-6.788-6.373-7.963" transform="translate(-133.156 -95.729)" fill="none" stroke="#441c16" stroke-linecap="round" stroke-linejoin="round" stroke-width="2.499"/>
        <path id="Trazado_983596" data-name="Trazado 983596" d="M216.943,175.563s-1.2,4.61,1.219,7.033,11.952,8.747,11.952,8.747l14.95,1.3s4.268-.035,4.454-3.427a7.267,7.267,0,0,0-2.631-5.6" transform="translate(-140.815 -114.112)" fill="none" stroke="#441c16" stroke-linecap="round" stroke-linejoin="round" stroke-width="2.499"/>
        <path id="Trazado_983597" data-name="Trazado 983597" d="M59.094,0h13.2l6.372,25.138,1.078,4.24,2.044,8.009.319,1.253.623,2.476-7.458,1.916-1.725.439-1.812.471L71.3,42.418Z" transform="translate(-38.409 0)" fill="#b65743"/>
        <path id="Trazado_983598" data-name="Trazado 983598" d="M106.212,113.238a6.461,6.461,0,0,0-5.92-2.163c-3.586.716-5.076,4.989-5.076,4.989Z" transform="translate(-61.888 -72.122)" fill="#621212"/>
        <path id="Trazado_983599" data-name="Trazado 983599" d="M76.272.206h.407l9.454,34.656,1.206,4.4.359,1.317.144.527-.376.1-.088-.3L86.972,39.4l-1.094-3.985Z" transform="translate(-49.575 -0.134)" fill="#621212"/>
        <path id="Trazado_983600" data-name="Trazado 983600" d="M143.9,0H157.26l-9.383,33.945-1.166,4.216-2.2,7.969-.343,1.246-.687,2.46-10.948-3,.375-1.541Z" transform="translate(-86.141 0)" fill="#b65743"/>
        <path id="Trazado_983601" data-name="Trazado 983601" d="M143.485,132.946a6.461,6.461,0,0,0-4.067-4.815c-3.469-1.158-6.883,1.813-6.883,1.813Z" transform="translate(-86.145 -83.108)" fill="#621212"/>
        <path id="Trazado_983602" data-name="Trazado 983602" d="M159.947.206h.4L149.925,40.571l-1.142,4.416-.343,1.326-.136.527-.375-.1.072-.3.391-1.509v-.008l1.038-4Z" transform="translate(-96.15 -0.134)" fill="#621212"/>
        <path id="Trazado_983603" data-name="Trazado 983603" d="M47.305,298.862c-.046.12-.1.233-.145.349-.063.145-.127.289-.2.441-.289.687-.568,1.382-.85,2.084-.07.176-.141.36-.2.536-.032.085-.067.169-.1.254-.06.152-.117.3-.166.455-.818,2.133-1.576,4.28-2.408,6.389v.007c-.088.247-.183.48-.279.708a35.055,35.055,0,0,1-5.282,9.415c-4.891,5.906-11.185,10.839-18.508,13.134a35.236,35.236,0,0,1-9.492,1.537A11.453,11.453,0,0,1,3.459,331q-.159-.159-.317-.328a11.427,11.427,0,0,1-3.085-7.828v-1.213A.312.312,0,0,1,0,321.64V284.179a.307.307,0,0,0,.056-.007,45.32,45.32,0,0,1,10.684-.067q1.825.2,3.632.536a66.354,66.354,0,0,1,21.23,8.187c1.054.614,2.091,1.245,3.138,1.876h.007c.328.2.656.391.98.593h.011a38.539,38.539,0,0,0,6.618,3.251c.3.106.582.2.878.289a.19.19,0,0,0,.071.024" transform="translate(0 -184.478)" fill="#441c16"/>
        <g id="Grupo_1103089" data-name="Grupo 1103089" transform="translate(0 118.502)" opacity="0.26">
          <g id="Grupo_1103088" data-name="Grupo 1103088">
            <g id="Grupo_1103087" data-name="Grupo 1103087" clip-path="url(#clip-path-6)">
              <path id="Trazado_983604" data-name="Trazado 983604" d="M45.644,338.555c-.818,2.133-1.576,4.28-2.408,6.389v.007c-.088.247-.183.48-.279.708a35.074,35.074,0,0,1-5.282,9.415c-4.891,5.906-11.185,10.839-18.508,13.134a35.238,35.238,0,0,1-9.492,1.537,11.454,11.454,0,0,1-6.216-3.17q-.159-.159-.317-.328a11.427,11.427,0,0,1-3.085-7.828v-1.213a.312.312,0,0,1-.056.007v-2.666l.056-.01c3.29-.547,6.562-1.213,9.792-1.95a133.121,133.121,0,0,0,23.9-7.6c.839-.366,1.661-.751,2.482-1.139.011,0,.011,0,.018-.01a77.559,77.559,0,0,0,9.393-5.282" transform="translate(0 -338.555)" fill="#621212"/>
            </g>
          </g>
        </g>
        <path id="Trazado_983605" data-name="Trazado 983605" d="M39.728,305.714c-2.433-.511-4.831-1.248-7.2-1.967-1.421-.43-2.9-.889-4.337-1.28A66.433,66.433,0,0,0,0,301.126v-.359a66.561,66.561,0,0,1,28.279,1.357c1.453.391,2.93.839,4.362,1.269,2,.617,4.048,1.241,6.1,1.728h.007c.328.2.656.391.98.592" transform="translate(0 -194.895)" fill="#b65743"/>
        <path id="Trazado_983606" data-name="Trazado 983606" d="M47.234,323.2c-7.93.684-16.043.024-23.906-.631-7.715-.631-15.606-1.284-23.328-.642v-.359c7.746-.638,15.638.011,23.36.642,7.578.624,15.377,1.266,23,.7.3.106.582.2.878.289" transform="translate(0 -208.84)" fill="#b65743"/>
        <path id="Trazado_983607" data-name="Trazado 983607" d="M47.16,327.786c-.063.145-.127.289-.2.441C33.49,331.911,19.6,334.7,6.146,337.4c-2.042.405-4.087.825-6.146,1.241v-.367q3.052-.614,6.082-1.227c13.543-2.715,27.521-5.522,41.078-9.263" transform="translate(0 -213.053)" fill="#b65743"/>
        <path id="Trazado_983608" data-name="Trazado 983608" d="M46.113,335c-.07.176-.141.359-.2.536-.092.053-.183.106-.272.159-2.549,1.47-5.042,3.057-7.472,4.612l-1.915,1.22c-.007.01-.007.01-.018.01-2.948,1.873-5.98,3.741-9.111,5.346A83.343,83.343,0,0,1,.056,354.9.309.309,0,0,1,0,354.9v-.356a.275.275,0,0,0,.056-.007,97.56,97.56,0,0,0,12.426-2.468,73.979,73.979,0,0,0,14.471-5.518c2.316-1.181,4.577-2.507,6.8-3.879,1.421-.885,2.835-1.788,4.224-2.673,2.377-1.519,4.806-3.075,7.3-4.517.279-.166.561-.328.843-.487" transform="translate(0 -217.741)" fill="#b65743"/>
        <path id="Trazado_983609" data-name="Trazado 983609" d="M49.07,356.808v.007c-.088.247-.183.48-.279.709q-1.475,1.258-2.916,2.5c-5.074,4.372-10.3,8.9-16.28,12.154a57.142,57.142,0,0,1-20.3,6.262q-.159-.159-.317-.328A57.084,57.084,0,0,0,29.42,371.86c5.934-3.233,11.167-7.743,16.216-12.108,1.135-.973,2.278-1.964,3.434-2.944" transform="translate(-5.834 -231.917)" fill="#b65743"/>
        <path id="Trazado_983610" data-name="Trazado 983610" d="M55.378,126.726c-.115.04-.227.071-.341.1a6.128,6.128,0,0,1-2.919.132,1.717,1.717,0,0,1-.186-.045,3.939,3.939,0,0,1-1.77-.978l-.144-.145c-.053-.055-.1-.111-.145-.169v0a1.38,1.38,0,0,1-.092-.121,3.857,3.857,0,0,1-.606-1.177,4.912,4.912,0,0,1-.227-1.647c0-.064,0-.132.007-.2a9.219,9.219,0,0,1,2.885-5.83,10.156,10.156,0,0,1,3.773-2.415c.116-.037.231-.077.349-.1a6.1,6.1,0,0,1,3.1-.195,1.18,1.18,0,0,1,.2.046,4.079,4.079,0,0,1,1.152.492c.077.047.152.1.224.15a3.958,3.958,0,0,1,.45.389.431.431,0,0,1,.041.047,1.435,1.435,0,0,1,.118.129,3.017,3.017,0,0,1,.22.27c1.586,2.2.727,5.99-2.1,8.787a11.445,11.445,0,0,1-1.138.984c-.061.048-.12.092-.183.138a9.412,9.412,0,0,1-2.669,1.363" transform="translate(-31.813 -73.975)" fill="#441c16"/>
        <path id="Trazado_983611" data-name="Trazado 983611" d="M54.824,125.614c-.117.037-.228.071-.343.1a6.928,6.928,0,0,1-1.244.224s0,0,0,0c-.081.008-.161.013-.245.015h0a4.623,4.623,0,0,1-2.806-.68,1.4,1.4,0,0,1-.128-.085,3.42,3.42,0,0,1-.447-.369l-.144-.145a3.161,3.161,0,0,1-.288-.356,4.912,4.912,0,0,1-.227-1.647c0-.064,0-.132.007-.2a9.215,9.215,0,0,1,2.885-5.83,10.152,10.152,0,0,1,3.773-2.415c.116-.037.231-.077.349-.1a6.1,6.1,0,0,1,3.1-.195,1.21,1.21,0,0,1,.2.046,4.07,4.07,0,0,1,1.151.493c.077.047.152.1.225.151a3.978,3.978,0,0,1,.45.389.476.476,0,0,1,.042.047,1.475,1.475,0,0,1,.117.129,3.02,3.02,0,0,1,.22.27c.72,2.221-.261,5.306-2.654,7.677-.135.135-.275.265-.415.389q-.083.079-.17.149a9.771,9.771,0,0,1-3.4,1.946" transform="translate(-31.814 -73.974)" fill="#621212"/>
        <path id="Trazado_983612" data-name="Trazado 983612" d="M48.95,123.892c0-.064,0-.132.007-.2a6.411,6.411,0,0,0,.809-.653,12.175,12.175,0,0,0,1.366-1.655c.152-.208.3-.415.461-.618a14.037,14.037,0,0,1,3.883-3.55,10.5,10.5,0,0,1,4.94-1.529c.077.047.152.1.224.151-.046,0-.1,0-.144,0a10.266,10.266,0,0,0-4.938,1.511,13.912,13.912,0,0,0-3.841,3.507c-.156.206-.305.412-.457.619a12.428,12.428,0,0,1-1.387,1.677,7.21,7.21,0,0,1-.924.735" transform="translate(-31.816 -75.194)" fill="#441c16"/>
        <path id="Trazado_983613" data-name="Trazado 983613" d="M74.951,127.672c.079-.53.139-1.092.179-1.694.028-.355.047-.723.061-1.106.006-.244.014-.49.02-.734a19.833,19.833,0,0,1,.209-2.813,6.056,6.056,0,0,1,1.467-3.222,2.857,2.857,0,0,1,1.146-.74,1.433,1.433,0,0,1,.118.129,2.648,2.648,0,0,0-1.147.723,5.874,5.874,0,0,0-1.427,3.138,19.2,19.2,0,0,0-.206,2.79c-.006.244-.014.49-.02.734-.01.328-.028.646-.05.951-.039.6-.1,1.173-.166,1.705-.061.048-.12.092-.183.138" transform="translate(-48.716 -76.284)" fill="#441c16"/>
        <path id="Trazado_983614" data-name="Trazado 983614" d="M53.67,135.7a1.691,1.691,0,0,1-.186-.045c.348-.305.7-.623,1.055-.957h0a27.817,27.817,0,0,0,2.165-2.257,6.96,6.96,0,0,0,1.285-1.995,4,4,0,0,0,.175-2.172,1.044,1.044,0,0,0-.439-.77c-.37-.209-.842.034-1.17.272a13.086,13.086,0,0,0-3.107,3.8c-.183.287-.363.572-.546.852a15.117,15.117,0,0,1-1.173,1.595c-.1.116-.2.231-.308.342a1.425,1.425,0,0,1-.092-.121c.1-.1.186-.2.273-.307a14.936,14.936,0,0,0,1.168-1.6c.183-.28.364-.565.544-.85a13.175,13.175,0,0,1,3.149-3.84,1.307,1.307,0,0,1,1.341-.287,1.2,1.2,0,0,1,.518.881,4.15,4.15,0,0,1-.183,2.26,7.1,7.1,0,0,1-1.312,2.04,27.647,27.647,0,0,1-2.041,2.139h0c-.372.356-.748.7-1.116,1.019" transform="translate(-33.364 -82.718)" fill="#441c16"/>
        <path id="Trazado_983615" data-name="Trazado 983615" d="M87.34,185.938c-.1-.075-.182-.154-.267-.234a6.126,6.126,0,0,1-1.68-2.392,1.6,1.6,0,0,1-.061-.181,3.937,3.937,0,0,1-.126-2.019l.045-.2c.019-.075.04-.142.064-.214l0,0a1.215,1.215,0,0,1,.052-.143,3.843,3.843,0,0,1,.667-1.144,4.909,4.909,0,0,1,1.267-1.076c.054-.035.112-.07.172-.1a9.222,9.222,0,0,1,6.467-.7,10.151,10.151,0,0,1,4.064,1.885c.093.078.189.153.274.238a6.107,6.107,0,0,1,1.83,2.511,1.24,1.24,0,0,1,.069.193,4.08,4.08,0,0,1,.2,1.236c0,.09,0,.181-.007.271a4.079,4.079,0,0,1-.086.588.475.475,0,0,1-.018.06,1.341,1.341,0,0,1-.046.169,3.071,3.071,0,0,1-.109.33c-1,2.519-4.662,3.831-8.54,2.95a11.476,11.476,0,0,1-1.441-.431c-.074-.026-.142-.053-.215-.081a9.4,9.4,0,0,1-2.583-1.519" transform="translate(-55.331 -115.216)" fill="#441c16"/>
        <path id="Trazado_983616" data-name="Trazado 983616" d="M89.17,184.874c-.094-.078-.182-.153-.265-.237a6.893,6.893,0,0,1-.857-.928s0,0,0,0c-.051-.064-.1-.128-.144-.2h0a4.628,4.628,0,0,1-.934-2.733c0-.053,0-.1,0-.154a3.461,3.461,0,0,1,.071-.575l.045-.2a3.216,3.216,0,0,1,.146-.435,4.923,4.923,0,0,1,1.267-1.076c.054-.034.112-.07.172-.1a9.219,9.219,0,0,1,6.467-.7,10.16,10.16,0,0,1,4.064,1.885c.093.078.189.154.275.239a6.1,6.1,0,0,1,1.83,2.511,1.208,1.208,0,0,1,.069.193,4.08,4.08,0,0,1,.2,1.236c0,.09,0,.181-.007.27a3.974,3.974,0,0,1-.086.589.407.407,0,0,1-.017.06,1.474,1.474,0,0,1-.046.169,3.091,3.091,0,0,1-.109.33c-1.487,1.8-4.616,2.63-7.9,1.885-.186-.041-.372-.09-.552-.142q-.111-.028-.217-.064a9.772,9.772,0,0,1-3.47-1.825" transform="translate(-56.524 -115.216)" fill="#621212"/>
        <path id="Trazado_983617" data-name="Trazado 983617" d="M91.344,180.143c.054-.034.112-.07.172-.1a6.412,6.412,0,0,0,.986.332,12.185,12.185,0,0,0,2.13.263c.257.017.513.034.769.057a14.034,14.034,0,0,1,5.08,1.369,10.5,10.5,0,0,1,3.943,3.345c0,.09,0,.181-.006.27-.026-.037-.052-.079-.081-.119a10.265,10.265,0,0,0-3.927-3.354,13.923,13.923,0,0,0-5.021-1.356c-.258-.021-.511-.036-.768-.053a12.407,12.407,0,0,1-2.159-.269,7.206,7.206,0,0,1-1.117-.385" transform="translate(-59.371 -117.023)" fill="#441c16"/>
        <path id="Trazado_983618" data-name="Trazado 983618" d="M98.826,199.719c.489-.217,1-.469,1.525-.759.315-.167.635-.349.966-.543.209-.127.421-.251.63-.378a19.8,19.8,0,0,1,2.485-1.335,6.057,6.057,0,0,1,3.505-.494,2.86,2.86,0,0,1,1.239.569,1.47,1.47,0,0,1-.046.169,2.652,2.652,0,0,0-1.226-.579,5.876,5.876,0,0,0-3.413.482,19.185,19.185,0,0,0-2.464,1.325c-.209.126-.421.251-.63.377-.282.168-.56.323-.829.469-.531.292-1.04.55-1.528.776-.074-.026-.143-.052-.215-.081" transform="translate(-64.235 -127.478)" fill="#441c16"/>
        <path id="Trazado_983619" data-name="Trazado 983619" d="M85.744,189.43a1.7,1.7,0,0,1-.062-.181q.666.194,1.374.376h0a27.773,27.773,0,0,0,3.067.614,6.957,6.957,0,0,0,2.373.012,4,4,0,0,0,1.925-1.019,1.046,1.046,0,0,0,.415-.784c-.023-.425-.481-.692-.858-.84a13.086,13.086,0,0,0-4.871-.581c-.34,0-.678,0-1.012,0a15.112,15.112,0,0,1-1.975-.133c-.151-.02-.3-.045-.454-.076a1.357,1.357,0,0,1,.052-.142q.2.039.4.065a14.894,14.894,0,0,0,1.974.128c.334,0,.672,0,1.009,0a13.185,13.185,0,0,1,4.93.594c.42.163.93.469.962.977a1.2,1.2,0,0,1-.464.91,4.145,4.145,0,0,1-2,1.06,7.1,7.1,0,0,1-2.426-.011,27.691,27.691,0,0,1-2.9-.572l0,0c-.5-.122-.99-.257-1.459-.394" transform="translate(-55.682 -121.333)" fill="#441c16"/>
        <path id="Trazado_983620" data-name="Trazado 983620" d="M417.483,30.708c-.115.03-.226.053-.339.072a5.986,5.986,0,0,1-2.853-.081,1.64,1.64,0,0,1-.178-.057,3.848,3.848,0,0,1-1.655-1.08l-.129-.151c-.047-.058-.088-.115-.129-.175v0a1.337,1.337,0,0,1-.081-.124,3.777,3.777,0,0,1-.506-1.19,4.806,4.806,0,0,1-.1-1.621c0-.062.011-.128.021-.193a9.006,9.006,0,0,1,3.229-5.472,9.93,9.93,0,0,1,3.849-2.082c.116-.027.231-.057.348-.075a5.955,5.955,0,0,1,3.035.033,1.2,1.2,0,0,1,.192.059,3.97,3.97,0,0,1,1.086.563c.071.051.141.106.208.163a3.89,3.89,0,0,1,.411.411.392.392,0,0,1,.037.049,1.382,1.382,0,0,1,.106.134,2.959,2.959,0,0,1,.195.278c1.387,2.257.278,5.888-2.676,8.41a11.144,11.144,0,0,1-1.179.877c-.063.043-.124.081-.188.121a9.184,9.184,0,0,1-2.7,1.136" transform="translate(-267.453 -11.891)" fill="#441c16"/>
        <path id="Trazado_983621" data-name="Trazado 983621" d="M417.022,29.586c-.116.028-.226.053-.34.07a6.757,6.757,0,0,1-1.228.129s0,0,0,0c-.079,0-.157,0-.239,0h0a4.522,4.522,0,0,1-2.686-.864,1.457,1.457,0,0,1-.118-.092,3.347,3.347,0,0,1-.409-.392l-.129-.151a3.142,3.142,0,0,1-.255-.368,4.806,4.806,0,0,1-.1-1.621c0-.062.011-.129.021-.193a9.007,9.007,0,0,1,3.229-5.472,9.924,9.924,0,0,1,3.849-2.082c.116-.028.231-.058.348-.076a5.959,5.959,0,0,1,3.035.033,1.132,1.132,0,0,1,.192.059,3.969,3.969,0,0,1,1.086.562c.071.051.141.106.208.163a3.959,3.959,0,0,1,.41.411.389.389,0,0,1,.037.049,1.368,1.368,0,0,1,.106.134,2.964,2.964,0,0,1,.195.279c.542,2.215-.636,5.15-3.137,7.289-.141.122-.288.239-.433.349q-.087.07-.177.133a9.543,9.543,0,0,1-3.455,1.652" transform="translate(-267.453 -11.891)" fill="#621212"/>
        <path id="Trazado_983622" data-name="Trazado 983622" d="M411.556,27.836c0-.062.011-.128.021-.193a6.268,6.268,0,0,0,.835-.578,11.877,11.877,0,0,0,1.45-1.515c.163-.191.326-.382.494-.568a13.707,13.707,0,0,1,4.038-3.179,10.249,10.249,0,0,1,4.922-1.135c.071.051.141.106.208.162-.044,0-.093-.005-.14-.006a10.025,10.025,0,0,0-4.919,1.117,13.6,13.6,0,0,0-3.994,3.141c-.167.189-.327.379-.49.57a12.145,12.145,0,0,1-1.472,1.534,7.047,7.047,0,0,1-.953.65" transform="translate(-267.502 -13.43)" fill="#441c16"/>
        <path id="Trazado_983623" data-name="Trazado 983623" d="M436.335,32.277c.115-.51.214-1.053.3-1.637.053-.344.1-.7.139-1.073.023-.238.049-.476.072-.714a19.317,19.317,0,0,1,.405-2.725,5.917,5.917,0,0,1,1.66-3.033,2.781,2.781,0,0,1,1.169-.638,1.382,1.382,0,0,1,.106.134,2.579,2.579,0,0,0-1.17.622,5.737,5.737,0,0,0-1.615,2.954,18.744,18.744,0,0,0-.4,2.7c-.023.237-.049.476-.072.714-.033.319-.074.627-.117.923-.081.587-.177,1.136-.284,1.649-.063.042-.124.081-.188.121" transform="translate(-283.607 -14.596)" fill="#441c16"/>
        <path id="Trazado_983624" data-name="Trazado 983624" d="M415.469,38.966a1.72,1.72,0,0,1-.178-.058q.541-.408,1.1-.857h0a27.133,27.133,0,0,0,2.271-2.044,6.787,6.787,0,0,0,1.4-1.851,3.908,3.908,0,0,0,.326-2.1,1.022,1.022,0,0,0-.372-.783c-.346-.23-.823-.027-1.159.181a12.791,12.791,0,0,0-3.3,3.476c-.2.266-.4.531-.594.791a14.809,14.809,0,0,1-1.257,1.469c-.1.106-.212.211-.325.311a1.262,1.262,0,0,1-.081-.124c.1-.091.2-.184.288-.279a14.589,14.589,0,0,0,1.253-1.471c.2-.259.394-.524.591-.79a12.88,12.88,0,0,1,3.344-3.514,1.274,1.274,0,0,1,1.326-.183,1.176,1.176,0,0,1,.442.9,4.052,4.052,0,0,1-.341,2.189,6.932,6.932,0,0,1-1.425,1.893,26.979,26.979,0,0,1-2.141,1.937h0c-.388.32-.779.625-1.16.913" transform="translate(-268.633 -20.157)" fill="#441c16"/>
        <path id="Trazado_983625" data-name="Trazado 983625" d="M350.015,13.984c-.088-.081-.166-.163-.243-.247a5.987,5.987,0,0,1-1.464-2.451,1.757,1.757,0,0,1-.047-.181,3.853,3.853,0,0,1,.022-1.976l.058-.19c.023-.071.05-.135.078-.2l0,0a1.291,1.291,0,0,1,.061-.135,3.769,3.769,0,0,1,.732-1.066,4.807,4.807,0,0,1,1.312-.958c.055-.029.114-.06.174-.086a9.007,9.007,0,0,1,6.351-.216A9.925,9.925,0,0,1,360.875,8.4c.086.083.173.163.251.252a5.961,5.961,0,0,1,1.6,2.578,1.158,1.158,0,0,1,.054.193,3.984,3.984,0,0,1,.109,1.219c0,.088-.014.176-.026.263a3.935,3.935,0,0,1-.126.567.393.393,0,0,1-.021.057,1.389,1.389,0,0,1-.057.161,2.959,2.959,0,0,1-.13.314c-1.158,2.382-4.817,3.4-8.531,2.261a11.13,11.13,0,0,1-1.373-.523c-.07-.03-.135-.061-.2-.094a9.2,9.2,0,0,1-2.408-1.666" transform="translate(-226.285 -3.773)" fill="#441c16"/>
        <path id="Trazado_983626" data-name="Trazado 983626" d="M352.016,12.992c-.086-.083-.166-.163-.242-.25a6.739,6.739,0,0,1-.768-.966s0,0,0,0c-.045-.066-.085-.132-.126-.2l0,0a4.52,4.52,0,0,1-.714-2.729,1.354,1.354,0,0,1,.014-.149,3.393,3.393,0,0,1,.111-.555l.058-.19a3.093,3.093,0,0,1,.173-.413,4.8,4.8,0,0,1,1.312-.957c.055-.03.114-.06.174-.086a9.008,9.008,0,0,1,6.351-.216A9.929,9.929,0,0,1,362.177,8.4c.086.083.173.164.251.253a5.957,5.957,0,0,1,1.6,2.578,1.158,1.158,0,0,1,.054.193,3.973,3.973,0,0,1,.109,1.219c0,.088-.014.176-.026.263a3.934,3.934,0,0,1-.126.567.406.406,0,0,1-.021.057,1.4,1.4,0,0,1-.057.161,3.026,3.026,0,0,1-.13.314c-1.577,1.647-4.686,2.23-7.833,1.27-.178-.054-.356-.114-.527-.178q-.106-.035-.207-.077a9.55,9.55,0,0,1-3.25-2.027" transform="translate(-227.587 -3.773)" fill="#621212"/>
        <path id="Trazado_983627" data-name="Trazado 983627" d="M354.953,7.844c.055-.029.114-.06.174-.086a6.316,6.316,0,0,0,.936.394,11.876,11.876,0,0,0,2.056.409c.249.035.5.07.745.111a13.7,13.7,0,0,1,4.851,1.7,10.252,10.252,0,0,1,3.6,3.542c0,.088-.014.176-.026.263-.022-.039-.046-.081-.07-.121a10.025,10.025,0,0,0-3.585-3.55,13.6,13.6,0,0,0-4.794-1.681c-.25-.039-.5-.072-.744-.107a12.12,12.12,0,0,1-2.084-.418,7.005,7.005,0,0,1-1.061-.455" transform="translate(-230.711 -5.043)" fill="#441c16"/>
        <path id="Trazado_983628" data-name="Trazado 983628" d="M360.371,28.5c.492-.177,1-.385,1.54-.63.319-.14.643-.294.98-.459.213-.108.428-.214.641-.322a19.338,19.338,0,0,1,2.516-1.122,5.917,5.917,0,0,1,3.45-.229,2.79,2.79,0,0,1,1.167.644,1.406,1.406,0,0,1-.057.161,2.589,2.589,0,0,0-1.152-.652,5.738,5.738,0,0,0-3.36.224,18.763,18.763,0,0,0-2.5,1.114c-.213.108-.428.215-.641.323-.287.143-.569.274-.841.4-.538.247-1.053.461-1.544.646-.07-.03-.135-.061-.2-.094" transform="translate(-234.233 -16.622)" fill="#441c16"/>
        <path id="Trazado_983629" data-name="Trazado 983629" d="M348.527,16.473a1.7,1.7,0,0,1-.047-.181q.635.237,1.311.465l0,0a27.115,27.115,0,0,0,2.944.818,6.792,6.792,0,0,0,2.311.182A3.909,3.909,0,0,0,357,16.9a1.023,1.023,0,0,0,.46-.734c.008-.415-.419-.708-.776-.88a12.78,12.78,0,0,0-4.7-.916c-.331-.025-.66-.048-.986-.076a14.791,14.791,0,0,1-1.915-.271c-.145-.03-.292-.065-.437-.107a1.3,1.3,0,0,1,.061-.135q.2.053.39.092a14.578,14.578,0,0,0,1.914.267c.326.028.655.051.983.074a12.879,12.879,0,0,1,4.76.933c.4.189.872.523.867,1.02a1.175,1.175,0,0,1-.518.853,4.05,4.05,0,0,1-2.029.888,6.928,6.928,0,0,1-2.362-.185,26.97,26.97,0,0,1-2.784-.766l0,0c-.479-.155-.946-.321-1.393-.488" transform="translate(-226.504 -8.96)" fill="#441c16"/>
        <path id="Trazado_983630" data-name="Trazado 983630" d="M24.463,21.627l3.378,1.4a.829.829,0,0,1,0,1.531l-3.378,1.4A4.755,4.755,0,0,0,21.9,28.531l-1.4,3.379a.829.829,0,0,1-1.531,0l-1.4-3.379a4.754,4.754,0,0,0-2.565-2.565l-3.379-1.4a.829.829,0,0,1,0-1.531l3.379-1.4a4.752,4.752,0,0,0,2.565-2.565l1.4-3.378a.829.829,0,0,1,1.531,0l1.4,3.378a4.754,4.754,0,0,0,2.565,2.565" transform="translate(-7.218 -9.862)" fill="#ffdbb3"/>
        <path id="Trazado_983631" data-name="Trazado 983631" d="M254.584,23.422l2.355.979a.578.578,0,0,1,0,1.067l-2.355.979a3.311,3.311,0,0,0-1.788,1.788l-.979,2.355a.578.578,0,0,1-1.067,0l-.979-2.355a3.312,3.312,0,0,0-1.788-1.788l-2.355-.979a.578.578,0,0,1,0-1.067l2.355-.979a3.312,3.312,0,0,0,1.788-1.788l.979-2.355a.578.578,0,0,1,1.067,0l.979,2.355a3.311,3.311,0,0,0,1.788,1.788" transform="translate(-159.422 -12.3)" fill="#ffdbb3"/>
        <path id="Trazado_983632" data-name="Trazado 983632" d="M446.974,232.489l2.355.979a.578.578,0,0,1,0,1.067l-2.355.979a3.311,3.311,0,0,0-1.788,1.788l-.979,2.355a.578.578,0,0,1-1.067,0l-.978-2.355a3.312,3.312,0,0,0-1.788-1.788l-2.355-.979a.578.578,0,0,1,0-1.067l2.355-.979a3.313,3.313,0,0,0,1.788-1.788l.978-2.355a.578.578,0,0,1,1.067,0l.979,2.355a3.312,3.312,0,0,0,1.788,1.788" transform="translate(-284.471 -148.188)" fill="#ffdbb3"/>
        <path id="Trazado_983633" data-name="Trazado 983633" d="M162.427,363.1l2.355.979a.578.578,0,0,1,0,1.067l-2.355.979a3.311,3.311,0,0,0-1.788,1.788l-.979,2.355a.578.578,0,0,1-1.067,0l-.979-2.355a3.312,3.312,0,0,0-1.788-1.788l-2.355-.979a.578.578,0,0,1,0-1.067l2.355-.979a3.313,3.313,0,0,0,1.788-1.788l.979-2.355a.578.578,0,0,1,1.067,0l.979,2.355a3.312,3.312,0,0,0,1.788,1.788" transform="translate(-99.522 -233.081)" fill="#ffdbb3"/>
        <path id="Trazado_983634" data-name="Trazado 983634" d="M19.094,241.786l2.355.979a.578.578,0,0,1,0,1.067l-2.355.979a3.311,3.311,0,0,0-1.788,1.788l-.979,2.355a.578.578,0,0,1-1.067,0l-.979-2.355a3.311,3.311,0,0,0-1.788-1.788l-2.355-.979a.578.578,0,0,1,0-1.067l2.355-.979A3.311,3.311,0,0,0,14.283,240l.979-2.355a.578.578,0,0,1,1.067,0L17.307,240a3.311,3.311,0,0,0,1.788,1.788" transform="translate(-6.359 -154.232)" fill="#ffdbb3"/>
      </g>
    </g>
  </g>
</svg>
