<svg xmlns="http://www.w3.org/2000/svg" xmlns:xlink="http://www.w3.org/1999/xlink" width="85" height="94.662" viewBox="0 0 85 94.662">
  <defs>
    <clipPath id="clip-path">
      <rect id="Rect치ngulo_403288" data-name="Rect치ngulo 403288" width="85" height="85" transform="translate(180 916.052)" fill="#fff" stroke="#707070" stroke-width="1"/>
    </clipPath>
  </defs>
  <g id="Grupo_1103370" data-name="Grupo 1103370" transform="translate(-180 -916.052)">
    <path id="Rect치ngulo_403287" data-name="Rect치ngulo 403287" d="M27.172,0h0A27.172,27.172,0,0,1,54.344,27.172V78.033a0,0,0,0,1,0,0H0a0,0,0,0,1,0,0V27.172A27.172,27.172,0,0,1,27.172,0Z" transform="translate(195.328 923.019)" fill="#ffd839"/>
    <g id="Enmascarar_grupo_1098836" data-name="Enmascarar grupo 1098836" clip-path="url(#clip-path)">
      <g id="documentos" transform="translate(180 916.052)">
        <g id="Grupo_1103379" data-name="Grupo 1103379">
          <path id="Trazado_987376" data-name="Trazado 987376" d="M40.892,78.178H2.9a1.66,1.66,0,0,1-1.66-1.66V16.063A1.66,1.66,0,0,1,2.9,14.4H40.891a1.66,1.66,0,0,1,1.66,1.66V76.518a1.66,1.66,0,0,1-1.66,1.66Z" fill="#e1ebf0"/>
          <path id="Trazado_987377" data-name="Trazado 987377" d="M42.551,16.062V72.429a1.66,1.66,0,0,1-1.66,1.66H6.969a1.66,1.66,0,0,1-1.66-1.66V16.062a1.66,1.66,0,0,1,1.66-1.66H40.891A1.66,1.66,0,0,1,42.551,16.062Z" fill="#d2e4e7"/>
          <path id="Trazado_987378" data-name="Trazado 987378" d="M54.1,71.6H9.458a1.66,1.66,0,0,1-1.66-1.66V9.484a1.66,1.66,0,0,1,1.66-1.66H54.1a1.66,1.66,0,0,1,1.66,1.66V69.939A1.66,1.66,0,0,1,54.1,71.6Z" fill="#e1ebf0"/>
          <path id="Trazado_987379" data-name="Trazado 987379" d="M55.756,9.485V65.851a1.66,1.66,0,0,1-1.66,1.66H13.521a1.66,1.66,0,0,1-1.66-1.66V9.485a1.66,1.66,0,0,1,1.66-1.66H54.1a1.66,1.66,0,0,1,1.66,1.66Z" fill="#d2e4e7"/>
          <path id="Trazado_987380" data-name="Trazado 987380" d="M14.351,63.361V2.905a1.66,1.66,0,0,1,1.66-1.66H60.649a1.66,1.66,0,0,1,1.66,1.66V63.361a1.66,1.66,0,0,1-1.66,1.66H16.012a1.66,1.66,0,0,1-1.66-1.66Z" fill="#e1ebf0"/>
          <path id="Trazado_987381" data-name="Trazado 987381" d="M42.939,23.69H56.082a.83.83,0,0,0,.83-.83V9.66a.83.83,0,0,0-.83-.83H42.939a.83.83,0,0,0-.83.83v13.2A.83.83,0,0,0,42.939,23.69Z" fill="#f3d332"/>
          <path id="Trazado_987382" data-name="Trazado 987382" d="M46.259,23.691h-3.32a.83.83,0,0,1-.83-.83V9.661a.83.83,0,0,1,.83-.83h3.32a.83.83,0,0,0-.83.83v13.2A.83.83,0,0,0,46.259,23.691Z" fill="#ecc52e"/>
          <g id="Grupo_1103372" data-name="Grupo 1103372">
            <path id="Trazado_987383" data-name="Trazado 987383" d="M36.711,22.923H19.749a1.245,1.245,0,1,1,0-2.49H36.711a1.245,1.245,0,1,1,0,2.49Z" fill="#b4d2d7"/>
          </g>
          <g id="Grupo_1103373" data-name="Grupo 1103373">
            <path id="Trazado_987384" data-name="Trazado 987384" d="M46.889,33.449H29.772a1.245,1.245,0,1,1,0-2.49H46.889a1.245,1.245,0,0,1,0,2.49Z" fill="#b4d2d7"/>
          </g>
          <g id="Grupo_1103374" data-name="Grupo 1103374">
            <path id="Trazado_987385" data-name="Trazado 987385" d="M36.711,17.505H19.749a1.245,1.245,0,1,1,0-2.49H36.711a1.245,1.245,0,1,1,0,2.49Z" fill="#b4d2d7"/>
          </g>
          <g id="Grupo_1103375" data-name="Grupo 1103375">
            <path id="Trazado_987386" data-name="Trazado 987386" d="M36.711,12.088H19.749a1.245,1.245,0,1,1,0-2.49H36.711a1.245,1.245,0,1,1,0,2.49Z" fill="#b4d2d7"/>
          </g>
          <g id="Grupo_1103376" data-name="Grupo 1103376">
            <path id="Trazado_987387" data-name="Trazado 987387" d="M45.292,47.226H19.749a1.245,1.245,0,0,1,0-2.49H45.292a1.245,1.245,0,0,1,0,2.49Z" fill="#b4d2d7"/>
          </g>
          <g id="Grupo_1103377" data-name="Grupo 1103377">
            <path id="Trazado_987388" data-name="Trazado 987388" d="M39.95,40.26h-20.2a1.245,1.245,0,1,1,0-2.49h20.2a1.245,1.245,0,0,1,0,2.49Z" fill="#b4d2d7"/>
          </g>
          <g id="Grupo_1103378" data-name="Grupo 1103378">
            <path id="Trazado_987389" data-name="Trazado 987389" d="M56.989,40.26H45.347a1.245,1.245,0,1,1,0-2.49H56.989a1.245,1.245,0,1,1,0,2.49Z" fill="#b4d2d7"/>
          </g>
          <path id="Trazado_987390" data-name="Trazado 987390" d="M66.817,54.494a1.66,1.66,0,0,1,1.66,1.66v1.127a7.725,7.725,0,0,1-7.71,7.74l-25.173.83-13.687-.83a7.727,7.727,0,0,0,7.712-7.74V56.154a1.66,1.66,0,0,1,1.66-1.66Z" fill="#d2e4e7"/>
          <path id="Trazado_987391" data-name="Trazado 987391" d="M62.309,43.957V54.494h-17.3A18.355,18.355,0,0,1,61.594,43.942C61.833,43.942,62.072,43.947,62.309,43.957Z" fill="#d2e4e7"/>
          <path id="Trazado_987392" data-name="Trazado 987392" d="M55.756,54.494V65.851a1.661,1.661,0,0,1-1.66,1.66H44.016a17.993,17.993,0,0,1-.455-1.922,18.369,18.369,0,0,1,1.446-11.1Z" fill="#b4d2d7"/>
          <path id="Trazado_987393" data-name="Trazado 987393" d="M74.245,70.407l8.428,7.5a3.439,3.439,0,0,1,.115,4.895,3.492,3.492,0,0,1-4.921-.123l-8.418-7.54Z" fill="#f3d332"/>
          <path id="Trazado_987394" data-name="Trazado 987394" d="M76.746,72.633A18.469,18.469,0,0,1,72,77.424L69.45,75.14l4.8-4.733Z" fill="#ecc52e"/>
          <path id="Trazado_987395" data-name="Trazado 987395" d="M55.756,65.851v4.087A1.661,1.661,0,0,1,54.1,71.6H45.787a18.157,18.157,0,0,1-1.771-4.087H54.1A1.661,1.661,0,0,0,55.756,65.851Z" fill="#d2e4e7"/>
          <path id="Trazado_987396" data-name="Trazado 987396" d="M46.588,62.314a15,15,0,1,1,15,15.051,15.069,15.069,0,0,1-15-15.051Z" fill="#3a67c1"/>
          <path id="Trazado_987397" data-name="Trazado 987397" d="M73.087,71.986a14.993,14.993,0,0,1-26.5-9.672,15.02,15.02,0,0,1,6.163-12.159A15.025,15.025,0,0,0,73.087,71.986Z" fill="#30569f"/>
          <path id="Trazado_987398" data-name="Trazado 987398" d="M52.225,62.314a9.368,9.368,0,1,1,9.368,9.4,9.4,9.4,0,0,1-9.368-9.4Z" fill="#e1ebf0"/>
          <path id="Trazado_987399" data-name="Trazado 987399" d="M69.657,67.1A9.377,9.377,0,1,1,56.849,54.21a9.238,9.238,0,0,0-.774,1.662A9.374,9.374,0,0,0,69.657,67.1Z" fill="#d2e4e7"/>
        </g>
        <g id="Grupo_1103380" data-name="Grupo 1103380">
          <path id="Trazado_987400" data-name="Trazado 987400" d="M42.943,24.935H56.087a2.077,2.077,0,0,0,2.075-2.075V9.66a2.077,2.077,0,0,0-2.075-2.075H42.943A2.077,2.077,0,0,0,40.868,9.66v3.123a1.245,1.245,0,0,0,2.49,0V10.075H55.672v12.37H43.358V18.774a1.245,1.245,0,1,0-2.49,0V22.86A2.077,2.077,0,0,0,42.943,24.935Z"/>
          <path id="Trazado_987401" data-name="Trazado 987401" d="M19.753,22.923H36.716a1.245,1.245,0,0,0,0-2.49H19.753a1.245,1.245,0,0,0,0,2.49Z"/>
          <path id="Trazado_987402" data-name="Trazado 987402" d="M48.139,32.2a1.245,1.245,0,0,0-1.245-1.245H29.777a1.245,1.245,0,0,0,0,2.49H46.893A1.245,1.245,0,0,0,48.139,32.2Z"/>
          <path id="Trazado_987403" data-name="Trazado 987403" d="M19.753,17.505H36.716a1.245,1.245,0,0,0,0-2.49H19.753a1.245,1.245,0,0,0,0,2.49Z"/>
          <path id="Trazado_987404" data-name="Trazado 987404" d="M19.753,12.088H36.716a1.245,1.245,0,0,0,0-2.49H19.753a1.245,1.245,0,0,0,0,2.49Z"/>
          <path id="Trazado_987405" data-name="Trazado 987405" d="M19.753,47.226H45.3a1.245,1.245,0,1,0,0-2.49H19.753a1.245,1.245,0,1,0,0,2.49Z"/>
          <path id="Trazado_987406" data-name="Trazado 987406" d="M19.753,40.26h20.2a1.245,1.245,0,1,0,0-2.49h-20.2a1.245,1.245,0,0,0,0,2.49Z"/>
          <path id="Trazado_987407" data-name="Trazado 987407" d="M56.994,37.77H45.351a1.245,1.245,0,0,0,0,2.49H56.994a1.245,1.245,0,0,0,0-2.49Z"/>
          <path id="Trazado_987408" data-name="Trazado 987408" d="M83.552,77.02l-.046-.043-7.662-6.818a16.246,16.246,0,0,0,1.993-7.253,1.245,1.245,0,0,0-2.489-.089,13.786,13.786,0,1,1-.788-5.144,1.245,1.245,0,1,0,2.346-.834,16.3,16.3,0,0,0-13.348-10.7V2.075A2.077,2.077,0,0,0,61.484,0h-46.3a2.077,2.077,0,0,0-2.075,2.075v4.5H8.633A2.077,2.077,0,0,0,6.557,8.654v4.5H2.079A2.077,2.077,0,0,0,0,15.233V77.348a2.077,2.077,0,0,0,2.075,2.075H41.726A2.077,2.077,0,0,0,43.8,77.348v-4.5h5.405A16.214,16.214,0,0,0,69.3,76.67l7.721,6.915a4.634,4.634,0,1,0,6.535-6.565ZM15.6,2.49H61.069V46.028a16.272,16.272,0,0,0-12.975,7.221H43.038a1.245,1.245,0,0,0,0,2.49h3.687q-.25.569-.459,1.162a16.3,16.3,0,0,0-.918,5.413c0,.493.023.98.066,1.462H28.091a8.971,8.971,0,0,0,2.777-6.495V55.74h6.773a1.245,1.245,0,0,0,0-2.49H29.623a1.245,1.245,0,0,0-1.245,1.245v2.786a6.487,6.487,0,0,1-6.465,6.495H15.6ZM9.048,70.354V53.333a1.245,1.245,0,0,0-2.49,0V70.769a2.077,2.077,0,0,0,2.075,2.075H41.311v4.089H2.494V15.648H6.557V48.07a1.245,1.245,0,0,0,2.49,0v-39h4.063V65.02a1.245,1.245,0,0,0,1.245,1.245H45.832a16.218,16.218,0,0,0,1.636,4.088H9.048ZM81.916,81.917a2.261,2.261,0,0,1-3.214-.166l-7.241-6.486a16.5,16.5,0,0,0,3.006-3l7.357,6.547a2.2,2.2,0,0,1,.092,3.1Z"/>
          <path id="Trazado_987409" data-name="Trazado 987409" d="M61.6,51.671A10.642,10.642,0,1,0,72.211,62.314,10.675,10.675,0,0,0,61.6,51.671Zm0,18.794a8.152,8.152,0,1,1,8.123-8.152A8.147,8.147,0,0,1,61.6,70.465Z"/>
        </g>
      </g>
    </g>
    <path id="Trazado_952692" data-name="Trazado 952692" d="M31.179,147.506s-.235,5.781-4.859,6.331c0,0,4.962,1.482,5.51,6.348,0,0,1.241-5.9,4.576-6.381,0,0-3.867-.773-5.227-6.3" transform="translate(219.809 775.513)" fill="#6b0b0c"/>
    <path id="Trazado_952694" data-name="Trazado 952694" d="M71.323,81.707s-.358,8.811-7.405,9.649c0,0,7.564,2.259,8.4,9.675,0,0,1.891-8.987,6.974-9.724,0,0-5.894-1.178-7.967-9.6" transform="translate(158.583 909.683)" fill="#6b0b0c"/>
  </g>
</svg>
