<svg id="Grupo_1102735" data-name="Grupo 1102735" xmlns="http://www.w3.org/2000/svg" xmlns:xlink="http://www.w3.org/1999/xlink" width="150.37" height="151.63" viewBox="0 0 150.37 151.63">
  <defs>
    <clipPath id="clip-path">
      <rect id="Rectángulo_403574" data-name="Rectángulo 403574" width="150.37" height="151.63" fill="none"/>
    </clipPath>
    <clipPath id="clip-path-3">
      <rect id="Rectángulo_403555" data-name="Rectángulo 403555" width="12.591" height="18.76" fill="none"/>
    </clipPath>
    <clipPath id="clip-path-4">
      <rect id="Rectángulo_403556" data-name="Rectángulo 403556" width="13.552" height="19.286" fill="none"/>
    </clipPath>
    <clipPath id="clip-path-5">
      <rect id="Rectángulo_403557" data-name="Rectángulo 403557" width="19.171" height="13.718" fill="none"/>
    </clipPath>
    <clipPath id="clip-path-8">
      <rect id="Rectángulo_403560" data-name="Rectángulo 403560" width="18.908" height="14.074" fill="none"/>
    </clipPath>
    <clipPath id="clip-path-9">
      <rect id="Rectángulo_403561" data-name="Rectángulo 403561" width="18.919" height="14.06" fill="none"/>
    </clipPath>
    <clipPath id="clip-path-10">
      <rect id="Rectángulo_403562" data-name="Rectángulo 403562" width="13.416" height="19.375" fill="none"/>
    </clipPath>
    <clipPath id="clip-path-16">
      <rect id="Rectángulo_403568" data-name="Rectángulo 403568" width="16.639" height="16.687" fill="none"/>
    </clipPath>
    <clipPath id="clip-path-19">
      <rect id="Rectángulo_403571" data-name="Rectángulo 403571" width="43.47" height="98.218" fill="none"/>
    </clipPath>
    <clipPath id="clip-path-20">
      <rect id="Rectángulo_403572" data-name="Rectángulo 403572" width="35.542" height="35.542" fill="none"/>
    </clipPath>
  </defs>
  <g id="Grupo_1102734" data-name="Grupo 1102734" clip-path="url(#clip-path)">
    <g id="Grupo_1102733" data-name="Grupo 1102733">
      <g id="Grupo_1102732" data-name="Grupo 1102732" clip-path="url(#clip-path)">
        <path id="Trazado_968827" data-name="Trazado 968827" d="M136.062,41.583c-.237.027-.475.046-.713.066-.587.055-1.17.095-1.761.129a33,33,0,0,1-14-2.067c-.255-.1-.5-.2-.755-.317-.713-.319-1.41-.669-2.086-1.052a32.3,32.3,0,0,1-8.663-7.512c-.393-.462-.766-.935-1.149-1.42l-.007,0c-3.906-4.943-7.207-10.52-11.718-15.184-.206-.207-.412-.415-.626-.628.338.017.67.035,1.013.044a.021.021,0,0,1,.015,0,28.171,28.171,0,0,0,9.243-1.2c2.737-.832,5.327-2.075,8.062-2.885a26.72,26.72,0,0,1,4.858-.983l.008.006c.549-.069,1.087-.12,1.638-.14l.008.006a33.646,33.646,0,0,1,14.092,2.383c.262.1.525.2.782.312a38.479,38.479,0,0,1,6.01,3.163,45.261,45.261,0,0,1,7.2,5.792c.185.176.355.348.534.526a66.548,66.548,0,0,1,10.915,15.082c.008-.1.055.025.085.211a1.553,1.553,0,0,1,.035.527.384.384,0,0,1-.113.18,1.143,1.143,0,0,1-.392.172q-3.94.958-7.872,1.921a107.544,107.544,0,0,1-14.647,2.864" transform="translate(-62.628 -5.565)" fill="#917d44"/>
        <path id="Trazado_968828" data-name="Trazado 968828" d="M158.973,46.808q-13.438-3.744-26.714-8.239l-.811-.277.006-.008c-4.84-1.641-9.667-3.357-14.444-5.146-.253-.091-.5-.183-.748-.283q-6.057-2.268-12.053-4.7c-.28-.114-.559-.229-.84-.35q-4.106-1.658-8.159-3.4c-.206-.207-.411-.415-.625-.628.338.017.669.035,1.013.044a.022.022,0,0,1,.015,0q3.815,1.642,7.669,3.2c.265.11.522.222.785.325q6.318,2.556,12.726,4.959c.255.1.523.193.793.3q7,2.621,14.1,5.024c.314.107.634.213.955.319Q145.751,42.4,159.051,46.1a1.554,1.554,0,0,1,.035.527.386.386,0,0,1-.113.18" transform="translate(-62.628 -15.747)" fill="#621212"/>
        <path id="Trazado_968829" data-name="Trazado 968829" d="M207.473,64.575l-3.9-13.54,0-.007-.059-.195a.4.4,0,0,1,0-.18.336.336,0,0,1,.188-.233l.105-.046,15.831-7.349c.179.175.352.348.531.522l-15.413,7.145-.49.23.111.388,3.8,13.2c-.237.027-.472.047-.708.067" transform="translate(-134.749 -28.489)" fill="#621212"/>
        <path id="Trazado_968830" data-name="Trazado 968830" d="M162.073,44.468c-.255-.1-.5-.205-.755-.319l-2.567-16.674a.094.094,0,0,1,0-.044.239.239,0,0,1,.01-.1.32.32,0,0,1,.144-.2l.371-.245L176,15.589c.262.1.524.2.785.313L160.07,27.181l-.6.4.019.127Z" transform="translate(-105.112 -10.322)" fill="#621212"/>
        <path id="Trazado_968831" data-name="Trazado 968831" d="M125,30.917c-.394-.466-.773-.935-1.154-1.42l-.007,0L120.28,17.711l-.142-.468a.41.41,0,0,1,0-.188.3.3,0,0,1,.059-.122.453.453,0,0,1,.11-.095l14.383-8.174.007,0c.549-.064,1.087-.116,1.639-.135l-15.356,8.721-.084.051.227.755Z" transform="translate(-79.54 -5.649)" fill="#621212"/>
        <path id="Trazado_968832" data-name="Trazado 968832" d="M3.911,294.749c-.105-.214-.2-.431-.3-.649-.25-.534-.484-1.069-.716-1.614A33,33,0,0,1,.108,278.611c.006-.273.022-.544.044-.818.059-.778.153-1.553.286-2.319a32.293,32.293,0,0,1,4.144-10.692c.3-.525.621-1.037.948-1.561l0-.006c3.333-5.346,7.467-10.337,10.332-16.158.126-.264.252-.528.38-.8.1.324.193.642.3.968a.022.022,0,0,1,0,.016,28.16,28.16,0,0,0,4.253,8.294c1.707,2.3,3.753,4.313,5.439,6.614a26.709,26.709,0,0,1,2.566,4.24l0,.009c.25.494.48.982.685,1.5l0,.009A33.657,33.657,0,0,1,32,281.97c0,.279-.011.562-.029.842a38.48,38.48,0,0,1-.947,6.725A45.262,45.262,0,0,1,28,298.274c-.1.234-.208.452-.315.68a66.542,66.542,0,0,1-10.509,15.368c.1-.027,0,.06-.169.151a1.56,1.56,0,0,1-.484.211.39.39,0,0,1-.207-.046,1.153,1.153,0,0,1-.295-.311q-2.232-3.385-4.467-6.761a107.492,107.492,0,0,1-7.644-12.818" transform="translate(-0.058 -163.056)" fill="#917d44"/>
        <path id="Trazado_968833" data-name="Trazado 968833" d="M45.471,314.639q-1.016-13.912-1.269-27.927c0-.291-.008-.566-.013-.857l.009,0c-.09-5.11-.106-10.232-.036-15.333,0-.269,0-.533.014-.8q.088-6.467.349-12.931c.013-.3.026-.6.046-.909q.173-4.425.443-8.827c.126-.264.252-.528.38-.8.1.324.193.642.3.968a.022.022,0,0,1,0,.016q-.257,4.146-.419,8.3c-.015.286-.033.566-.041.849q-.272,6.81-.369,13.653c-.006.273-.005.558-.01.846q-.1,7.478.034,14.967c0,.331.013.669.022,1.007q.24,13.843,1.25,27.612a1.557,1.557,0,0,1-.484.211.39.39,0,0,1-.207-.046" transform="translate(-29.212 -163.056)" fill="#621212"/>
        <path id="Trazado_968834" data-name="Trazado 968834" d="M10.507,371.356l11.426-8.246h.007l.164-.121a.4.4,0,0,1,.17-.059.336.336,0,0,1,.283.1l.078.083L34.9,375.529c-.1.228-.208.448-.312.676L22.656,364.112l-.381-.383-.327.236L10.809,372c-.105-.214-.2-.429-.3-.644" transform="translate(-6.957 -240.309)" fill="#621212"/>
        <path id="Trazado_968835" data-name="Trazado 968835" d="M.15,324.559c.008-.274.024-.542.046-.818l14.826-8.049a.1.1,0,0,1,.04-.018.238.238,0,0,1,.1-.023.321.321,0,0,1,.238.068l.356.267,16.285,11.93c-.007.281-.015.563-.029.845L15.745,316.834l-.582-.427-.113.06Z" transform="translate(-0.099 -209.004)" fill="#621212"/>
        <path id="Trazado_968836" data-name="Trazado 968836" d="M13.386,282.95c.305-.528.62-1.043.947-1.566v-.007l9.889-7.33.392-.291a.417.417,0,0,1,.176-.066.3.3,0,0,1,.135.015.464.464,0,0,1,.126.072L37.6,284.552v.007c.245.495.476.984.681,1.5l-13.4-11.507-.076-.062-.634.469Z" transform="translate(-8.863 -181.219)" fill="#621212"/>
        <path id="Trazado_968837" data-name="Trazado 968837" d="M89.808,166.049s11.036-1.635,10.777-9.261-.816-18.735-.771-32.241-4.385-44.29-27.9-63.407C51.7,44.707,28.778,44.221,22.743,44.408A2.614,2.614,0,0,0,20.5,45.827c-3.3,6.4-16.152,34.867-2.776,67.5,12.958,31.611,26.827,37.046,36.442,45.507,7.57,6.661,16.478,18.635,25.422,10.517l2.406,2.026a3.4,3.4,0,0,0,3.106.672l2.287-.642a3.4,3.4,0,0,0,2.477-3.359Z" transform="translate(-7.788 -29.388)" fill="#441c16"/>
        <path id="Trazado_968838" data-name="Trazado 968838" d="M38.4,40.022s2.407-3.341,4.569-3.685,4.815,2.113,4.815,2.113l70.648,116.29a24.256,24.256,0,0,1-4.324,3.439l-3.271,1.57-1.691,2.95a7.244,7.244,0,0,1-2.9,2.751,18.746,18.746,0,0,1-4.618,1.327Z" transform="translate(-25.429 -24.039)" fill="#441c16"/>
        <path id="Trazado_968839" data-name="Trazado 968839" d="M99.7,157.324s11.037-1.635,10.777-9.261-.816-18.735-.771-32.241-4.385-44.291-27.9-63.407C61.585,35.982,38.667,35.5,32.631,35.684A2.613,2.613,0,0,0,30.385,37.1c-3.3,6.4-16.151,34.867-2.776,67.5,12.958,31.611,26.827,37.046,36.441,45.507,7.57,6.661,16.478,18.635,25.422,10.517l2.406,2.026a3.4,3.4,0,0,0,3.106.672l2.287-.642a3.4,3.4,0,0,0,2.477-3.359Z" transform="translate(-14.336 -23.612)" fill="#621212"/>
        <path id="Trazado_968840" data-name="Trazado 968840" d="M105.4,162c4.777-2.379,8.779-5.6,9.275-11.729a39.995,39.995,0,0,0-.252-8.07c-1.941-15.842,3.684-21.661-5.89-45.041s-19.176-34.017-34.256-39.7A114.39,114.39,0,0,0,44.55,50.891c-.423-.025-1.9,3.322-2.065,3.644-12.312,24.124-7.5,54.865,7.428,76.713,7.919,11.586,20.295,18.715,30.914,27.492,3.222,2.663,6,5.555,10.194,6.585,5.168,1.271,9.858-1.069,14.379-3.32" transform="translate(-23.49 -33.697)" fill="#441c16"/>
        <path id="Trazado_968841" data-name="Trazado 968841" d="M103.9,160.3c4.927-2.453,9.055-5.778,9.567-12.1a41.278,41.278,0,0,0-.26-8.324c-2-16.34,3.8-22.342-6.075-46.457S87.35,58.329,71.8,52.466a117.981,117.981,0,0,0-30.662-6.778c-.437-.026-1.961,3.426-2.131,3.758-12.7,24.882-7.741,56.59,7.662,79.126,8.167,11.95,20.933,19.3,31.887,28.357,3.323,2.746,6.193,5.729,10.514,6.792C94.4,165.032,99.234,162.618,103.9,160.3Z" transform="translate(-21.039 -30.252)" fill="none" stroke="#441c16" stroke-miterlimit="10" stroke-width="1.139"/>
        <path id="Trazado_968842" data-name="Trazado 968842" d="M75.7,70.81c-.02.151-.048.295-.08.438A7.685,7.685,0,0,1,74.136,74.6a2.233,2.233,0,0,1-.155.183,4.944,4.944,0,0,1-2.09,1.437l-.243.079c-.092.028-.179.048-.271.068h0a1.746,1.746,0,0,1-.187.036,4.849,4.849,0,0,1-1.66.02,6.178,6.178,0,0,1-1.975-.669c-.072-.036-.147-.076-.219-.12a11.561,11.561,0,0,1-4.921-6.505,12.745,12.745,0,0,1-.593-5.586c.024-.151.044-.3.08-.45A7.651,7.651,0,0,1,63.418,59.5a1.484,1.484,0,0,1,.163-.2,5.112,5.112,0,0,1,1.2-1.015c.1-.06.195-.116.295-.167a5.02,5.02,0,0,1,.689-.287.522.522,0,0,1,.076-.02,1.823,1.823,0,0,1,.211-.06,3.865,3.865,0,0,1,.426-.1c3.356-.545,7.126,2.544,8.679,7.282a14.333,14.333,0,0,1,.466,1.827c.02.1.036.187.052.283A11.814,11.814,0,0,1,75.7,70.81" transform="translate(-40.87 -38.137)" fill="#441c16"/>
        <g id="Grupo_1102680" data-name="Grupo 1102680" transform="translate(19.5 19.184)" opacity="0.39">
          <g id="Grupo_1102679" data-name="Grupo 1102679">
            <g id="Grupo_1102678" data-name="Grupo 1102678" clip-path="url(#clip-path-3)">
              <path id="Trazado_968843" data-name="Trazado 968843" d="M70.143,69.932a9.485,9.485,0,0,1-.529,1.959s0,0,0,0c-.036.1-.076.187-.12.282v0a5.327,5.327,0,0,1-3.973,3.36c-5.264-.891-8.627-8.194-7.628-13.33.435-2.615,1.937-4.968,4.578-5.431,4.761.546,8.7,8.008,7.672,13.151" transform="translate(-57.717 -56.781)" fill="#b65743"/>
            </g>
          </g>
        </g>
        <path id="Trazado_968844" data-name="Trazado 968844" d="M74.143,70.932a9.486,9.486,0,0,1-.529,1.959s0,0,0,0c-.036.1-.076.187-.12.282v0a5.327,5.327,0,0,1-3.973,3.36c-5.264-.891-8.627-8.194-7.628-13.33.435-2.615,1.937-4.968,4.578-5.431,4.761.546,8.7,8.008,7.672,13.151" transform="translate(-40.865 -38.259)" fill="#621212"/>
        <path id="Trazado_968845" data-name="Trazado 968845" d="M71.39,76.778c-.072-.036-.147-.076-.219-.12a8.09,8.09,0,0,0-.279-1.274,15.277,15.277,0,0,0-1.091-2.46c-.147-.287-.295-.573-.434-.864a17.6,17.6,0,0,1-1.8-6.346,13.162,13.162,0,0,1,1.055-6.4c.1-.06.2-.116.295-.167-.024.052-.052.107-.076.163A12.872,12.872,0,0,0,67.763,65.7a17.462,17.462,0,0,0,1.78,6.275c.143.291.291.573.438.86a15.592,15.592,0,0,1,1.1,2.5,9.046,9.046,0,0,1,.306,1.449" transform="translate(-44.709 -39.164)" fill="#441c16"/>
        <path id="Trazado_968846" data-name="Trazado 968846" d="M83.669,67.361c-.549-.386-1.147-.768-1.8-1.151-.382-.231-.785-.458-1.206-.689-.271-.143-.541-.291-.812-.434a24.835,24.835,0,0,1-3.038-1.811,7.6,7.6,0,0,1-2.791-3.452,3.583,3.583,0,0,1-.187-1.7,1.8,1.8,0,0,1,.211-.06,3.324,3.324,0,0,0,.167,1.692,7.368,7.368,0,0,0,2.719,3.36,24.115,24.115,0,0,0,3.014,1.8c.271.143.542.291.812.434.362.2.709.394,1.039.589q.985.574,1.819,1.143c.02.1.036.187.052.283" transform="translate(-48.866 -38.447)" fill="#441c16"/>
        <path id="Trazado_968847" data-name="Trazado 968847" d="M83.735,89.3a2.241,2.241,0,0,1-.155.183c-.147-.562-.306-1.135-.481-1.72v0a34.875,34.875,0,0,0-1.318-3.695,8.717,8.717,0,0,0-1.517-2.56,5.017,5.017,0,0,0-2.337-1.414,1.314,1.314,0,0,0-1.111.06c-.442.3-.434.964-.35,1.465a16.411,16.411,0,0,0,2.516,5.614c.219.366.438.729.649,1.091a18.983,18.983,0,0,1,1.13,2.21c.076.175.147.354.211.538a1.683,1.683,0,0,1-.187.036q-.09-.245-.191-.478a18.643,18.643,0,0,0-1.135-2.206c-.211-.363-.43-.725-.649-1.087a16.531,16.531,0,0,1-2.54-5.686,1.636,1.636,0,0,1,.43-1.664,1.509,1.509,0,0,1,1.278-.088,5.2,5.2,0,0,1,2.433,1.473,8.9,8.9,0,0,1,1.553,2.616,34.664,34.664,0,0,1,1.254,3.488v0c.191.617.362,1.23.518,1.823" transform="translate(-50.469 -52.837)" fill="#441c16"/>
        <g id="Grupo_1102683" data-name="Grupo 1102683" transform="translate(37.783 25.161)" opacity="0.39">
          <g id="Grupo_1102682" data-name="Grupo 1102682">
            <g id="Grupo_1102681" data-name="Grupo 1102681" clip-path="url(#clip-path-4)">
              <path id="Trazado_968848" data-name="Trazado 968848" d="M123.177,90.537c-.084.127-.172.244-.263.359a7.69,7.69,0,0,1-2.8,2.358,2.3,2.3,0,0,1-.22.1,4.939,4.939,0,0,1-2.509.377l-.253-.035c-.095-.015-.182-.035-.273-.058l0,0a1.71,1.71,0,0,1-.184-.05,4.834,4.834,0,0,1-1.5-.709,6.172,6.172,0,0,1-1.483-1.466c-.049-.064-.1-.132-.144-.2a11.559,11.559,0,0,1-1.575-8,12.743,12.743,0,0,1,1.913-5.281c.088-.126.172-.253.269-.37a7.654,7.654,0,0,1,2.938-2.559,1.5,1.5,0,0,1,.234-.107,5.1,5.1,0,0,1,1.522-.388c.112-.012.226-.019.338-.021a4.994,4.994,0,0,1,.745.044.474.474,0,0,1,.077.015,1.854,1.854,0,0,1,.216.039,3.916,3.916,0,0,1,.425.1c3.256.979,5.293,5.408,4.614,10.347a14.3,14.3,0,0,1-.381,1.847c-.024.095-.05.184-.077.277a11.805,11.805,0,0,1-1.617,3.393" transform="translate(-111.832 -74.474)" fill="#b65743"/>
            </g>
          </g>
        </g>
        <path id="Trazado_968849" data-name="Trazado 968849" d="M121.789,89.862a9.485,9.485,0,0,1-1.334,1.529c0,.005,0,0,0,0-.074.07-.15.135-.231.2l0,0a5.328,5.328,0,0,1-5.044,1.281c-4.342-3.107-4.167-11.144-1.021-15.324,1.536-2.16,3.917-3.618,6.494-2.877,4.041,2.576,4.318,11.01,1.139,15.182" transform="translate(-74.06 -49.32)" fill="#621212"/>
        <path id="Trazado_968850" data-name="Trazado 968850" d="M117.028,91.41c-.049-.064-.1-.132-.145-.2a8.061,8.061,0,0,0,.307-1.267,15.27,15.27,0,0,0,.1-2.69c-.007-.322-.014-.644-.012-.967a17.606,17.606,0,0,1,1.158-6.5,13.166,13.166,0,0,1,3.75-5.29c.112-.012.226-.019.338-.021-.044.036-.094.074-.14.114a12.872,12.872,0,0,0-3.763,5.271,17.449,17.449,0,0,0-1.148,6.42c0,.324.01.643.017.965a15.58,15.58,0,0,1-.1,2.727,9.005,9.005,0,0,1-.359,1.437" transform="translate(-77.393 -49.314)" fill="#441c16"/>
        <path id="Trazado_968851" data-name="Trazado 968851" d="M139.607,87.261c-.325-.588-.694-1.193-1.114-1.822-.243-.375-.5-.755-.783-1.147-.18-.248-.359-.5-.54-.746a24.824,24.824,0,0,1-1.938-2.959,7.594,7.594,0,0,1-1-4.325,3.577,3.577,0,0,1,.576-1.61,1.847,1.847,0,0,1,.216.039,3.328,3.328,0,0,0-.591,1.594,7.37,7.37,0,0,0,.973,4.212,24.044,24.044,0,0,0,1.923,2.934c.181.247.359.5.54.746.24.334.465.665.676.985.423.631.8,1.24,1.136,1.824-.024.095-.05.184-.077.277" transform="translate(-88.861 -49.429)" fill="#441c16"/>
        <path id="Trazado_968852" data-name="Trazado 968852" d="M128.964,107.588a2.217,2.217,0,0,1-.22.1q.17-.854.32-1.757l0,0a34.885,34.885,0,0,0,.433-3.9,8.721,8.721,0,0,0-.243-2.966,5.017,5.017,0,0,0-1.482-2.294,1.312,1.312,0,0,0-1.025-.433c-.528.075-.812.676-.956,1.164a16.407,16.407,0,0,0-.2,6.149c.036.425.075.847.106,1.265a18.986,18.986,0,0,1,.049,2.482c-.009.191-.023.383-.046.576a1.693,1.693,0,0,1-.184-.05q.027-.259.038-.513a18.715,18.715,0,0,0-.054-2.48c-.031-.418-.069-.84-.107-1.262a16.529,16.529,0,0,1,.206-6.223c.158-.543.484-1.212,1.115-1.308a1.508,1.508,0,0,1,1.187.481A5.2,5.2,0,0,1,129.448,99a8.9,8.9,0,0,1,.251,3.032,34.667,34.667,0,0,1-.4,3.685l0,0c-.1.639-.213,1.265-.333,1.866" transform="translate(-82.903 -63.646)" fill="#441c16"/>
        <g id="Grupo_1102686" data-name="Grupo 1102686" transform="translate(16.177 40.452)" opacity="0.39">
          <g id="Grupo_1102685" data-name="Grupo 1102685">
            <g id="Grupo_1102684" data-name="Grupo 1102684" clip-path="url(#clip-path-5)">
              <path id="Trazado_968853" data-name="Trazado 968853" d="M52.936,133.039c-.148-.037-.287-.081-.426-.129a7.689,7.689,0,0,1-3.158-1.859,2.251,2.251,0,0,1-.164-.175A4.94,4.94,0,0,1,48,128.637l-.052-.25c-.017-.094-.027-.183-.036-.276v0a1.724,1.724,0,0,1-.015-.19,4.846,4.846,0,0,1,.168-1.652,6.171,6.171,0,0,1,.888-1.886c.044-.067.092-.138.144-.2a11.559,11.559,0,0,1,7.021-4.153,12.74,12.74,0,0,1,5.617.043c.148.041.3.078.438.13a7.654,7.654,0,0,1,3.392,1.917,1.5,1.5,0,0,1,.179.185,5.109,5.109,0,0,1,.873,1.306c.049.1.093.207.133.312a4.973,4.973,0,0,1,.207.717.474.474,0,0,1,.011.077,1.819,1.819,0,0,1,.036.216,3.973,3.973,0,0,1,.047.434c.162,3.4-3.335,6.793-8.218,7.8a14.31,14.31,0,0,1-1.868.256c-.1.009-.19.014-.287.019a11.811,11.811,0,0,1-3.738-.394" transform="translate(-47.881 -119.73)" fill="#b65743"/>
            </g>
          </g>
        </g>
        <path id="Trazado_968854" data-name="Trazado 968854" d="M53.465,131.49a9.482,9.482,0,0,1-1.886-.748s0,0,0,0c-.091-.046-.177-.1-.267-.151h0a5.328,5.328,0,0,1-2.889-4.329c1.482-5.129,9.118-7.643,14.108-6.07,2.549.729,4.717,2.487,4.877,5.164-1.081,4.669-8.942,7.741-13.935,6.133" transform="translate(-32.058 -79.276)" fill="#621212"/>
        <path id="Trazado_968855" data-name="Trazado 968855" d="M51.045,128.473c.044-.067.092-.138.144-.2a8.1,8.1,0,0,0,1.3-.132,15.273,15.273,0,0,0,2.568-.805c.3-.114.6-.228.907-.333a17.591,17.591,0,0,1,6.51-1.073,13.163,13.163,0,0,1,6.237,1.773c.049.1.093.207.133.312-.049-.03-.1-.064-.154-.094a12.87,12.87,0,0,0-6.223-1.791,17.454,17.454,0,0,0-6.436,1.058c-.305.109-.6.224-.9.338a15.567,15.567,0,0,1-2.6.813,9.012,9.012,0,0,1-1.475.141" transform="translate(-33.799 -83.373)" fill="#441c16"/>
        <path id="Trazado_968856" data-name="Trazado 968856" d="M73.9,142.979c.446-.5.893-1.052,1.347-1.658.273-.354.544-.728.821-1.121.173-.253.35-.505.523-.758a24.849,24.849,0,0,1,2.144-2.813,7.593,7.593,0,0,1,3.746-2.382,3.579,3.579,0,0,1,1.71.007,1.748,1.748,0,0,1,.035.216,3.323,3.323,0,0,0-1.7-.025,7.368,7.368,0,0,0-3.647,2.321,24.07,24.07,0,0,0-2.125,2.791c-.173.253-.35.5-.523.757-.235.338-.472.66-.7.966-.454.609-.9,1.167-1.341,1.678-.1.009-.19.014-.287.019" transform="translate(-48.935 -88.824)" fill="#441c16"/>
        <path id="Trazado_968857" data-name="Trazado 968857" d="M49.376,140.389a2.258,2.258,0,0,1-.165-.175c.575-.083,1.162-.176,1.764-.284h0a34.789,34.789,0,0,0,3.82-.891,8.715,8.715,0,0,0,2.715-1.217,5.012,5.012,0,0,0,1.669-2.162,1.311,1.311,0,0,0,.067-1.11c-.247-.473-.908-.54-1.416-.514a16.419,16.419,0,0,0-5.863,1.864c-.389.176-.774.353-1.158.521a18.976,18.976,0,0,1-2.323.873c-.182.055-.369.106-.558.149a1.643,1.643,0,0,1-.015-.19q.253-.061.5-.136a18.729,18.729,0,0,0,2.32-.878c.384-.169.769-.345,1.153-.522a16.527,16.527,0,0,1,5.936-1.88,1.636,1.636,0,0,1,1.6.616,1.51,1.51,0,0,1-.057,1.28,5.2,5.2,0,0,1-1.739,2.25,8.9,8.9,0,0,1-2.775,1.246,34.554,34.554,0,0,1-3.607.851h0c-.635.12-1.263.221-1.87.308" transform="translate(-31.728 -88.616)" fill="#441c16"/>
        <g id="Grupo_1102689" data-name="Grupo 1102689" transform="translate(48.796 40.015)" opacity="0.39">
          <g id="Grupo_1102688" data-name="Grupo 1102688">
            <g id="Grupo_1102687" data-name="Grupo 1102687" clip-path="url(#clip-path-5)">
              <path id="Trazado_968858" data-name="Trazado 968858" d="M149.482,131.745c-.148-.037-.287-.081-.426-.129a7.688,7.688,0,0,1-3.158-1.859,2.251,2.251,0,0,1-.164-.175,4.94,4.94,0,0,1-1.191-2.24l-.052-.25c-.017-.094-.027-.183-.036-.276v0a1.718,1.718,0,0,1-.015-.19,4.848,4.848,0,0,1,.168-1.652,6.173,6.173,0,0,1,.888-1.886c.044-.067.092-.138.144-.2a11.559,11.559,0,0,1,7.021-4.153,12.739,12.739,0,0,1,5.617.043c.148.041.3.078.438.13a7.654,7.654,0,0,1,3.392,1.917,1.5,1.5,0,0,1,.179.185,5.11,5.11,0,0,1,.873,1.306c.049.1.093.207.133.312a4.973,4.973,0,0,1,.207.717.515.515,0,0,1,.011.077,1.813,1.813,0,0,1,.035.216,3.9,3.9,0,0,1,.047.434c.162,3.4-3.335,6.793-8.218,7.8a14.309,14.309,0,0,1-1.868.256c-.1.009-.19.014-.287.019a11.811,11.811,0,0,1-3.738-.394" transform="translate(-144.427 -118.436)" fill="#b65743"/>
            </g>
          </g>
        </g>
        <path id="Trazado_968859" data-name="Trazado 968859" d="M150.012,130.2a9.482,9.482,0,0,1-1.886-.748s0,0,0,0c-.091-.046-.177-.1-.267-.151h0a5.328,5.328,0,0,1-2.889-4.329c1.482-5.129,9.118-7.643,14.108-6.07,2.548.728,4.717,2.487,4.877,5.164-1.081,4.669-8.941,7.741-13.935,6.134" transform="translate(-95.985 -78.419)" fill="#621212"/>
        <path id="Trazado_968860" data-name="Trazado 968860" d="M147.591,127.18c.044-.067.092-.138.144-.2a8.061,8.061,0,0,0,1.3-.133,15.241,15.241,0,0,0,2.568-.805c.3-.114.6-.228.907-.333a17.6,17.6,0,0,1,6.51-1.073,13.164,13.164,0,0,1,6.237,1.773c.049.1.093.207.133.312-.049-.03-.1-.064-.154-.094a12.869,12.869,0,0,0-6.223-1.791,17.454,17.454,0,0,0-6.436,1.058c-.305.109-.6.224-.9.338a15.566,15.566,0,0,1-2.6.813,9.011,9.011,0,0,1-1.475.141" transform="translate(-97.726 -82.517)" fill="#441c16"/>
        <path id="Trazado_968861" data-name="Trazado 968861" d="M170.451,141.685c.446-.5.893-1.052,1.347-1.658.273-.354.544-.728.821-1.121.173-.253.35-.505.523-.758a24.85,24.85,0,0,1,2.144-2.813,7.593,7.593,0,0,1,3.746-2.382,3.58,3.58,0,0,1,1.71.007,1.816,1.816,0,0,1,.035.216,3.323,3.323,0,0,0-1.7-.025,7.368,7.368,0,0,0-3.647,2.321,24.073,24.073,0,0,0-2.125,2.791c-.173.253-.35.5-.523.757-.235.338-.472.66-.7.966-.454.61-.9,1.167-1.341,1.678-.1.009-.19.014-.287.019" transform="translate(-112.863 -87.967)" fill="#441c16"/>
        <path id="Trazado_968862" data-name="Trazado 968862" d="M145.922,139.1a2.249,2.249,0,0,1-.165-.175c.575-.083,1.162-.176,1.764-.284h0a34.8,34.8,0,0,0,3.82-.891,8.714,8.714,0,0,0,2.715-1.217,5.014,5.014,0,0,0,1.669-2.162,1.311,1.311,0,0,0,.067-1.11c-.247-.473-.908-.54-1.416-.514a16.419,16.419,0,0,0-5.863,1.864c-.389.176-.774.353-1.158.521a18.976,18.976,0,0,1-2.323.873c-.183.055-.369.106-.558.149a1.643,1.643,0,0,1-.015-.19q.253-.061.5-.136a18.727,18.727,0,0,0,2.32-.878c.384-.169.769-.345,1.153-.522a16.527,16.527,0,0,1,5.936-1.88,1.636,1.636,0,0,1,1.6.616,1.51,1.51,0,0,1-.057,1.28,5.2,5.2,0,0,1-1.739,2.25,8.9,8.9,0,0,1-2.775,1.246,34.549,34.549,0,0,1-3.607.851h0c-.635.12-1.263.221-1.87.308" transform="translate(-95.655 -87.76)" fill="#441c16"/>
        <g id="Grupo_1102692" data-name="Grupo 1102692" transform="translate(66.557 70.336)" opacity="0.39">
          <g id="Grupo_1102691" data-name="Grupo 1102691">
            <g id="Grupo_1102690" data-name="Grupo 1102690" clip-path="url(#clip-path-5)">
              <path id="Trazado_968863" data-name="Trazado 968863" d="M202.05,221.491c-.148-.037-.287-.081-.426-.129a7.689,7.689,0,0,1-3.158-1.859,2.259,2.259,0,0,1-.164-.175,4.939,4.939,0,0,1-1.191-2.24l-.052-.25c-.017-.094-.027-.183-.036-.276v0a1.715,1.715,0,0,1-.015-.19,4.845,4.845,0,0,1,.168-1.652,6.172,6.172,0,0,1,.888-1.886c.044-.067.092-.138.144-.2a11.559,11.559,0,0,1,7.021-4.153,12.739,12.739,0,0,1,5.617.043c.148.041.3.078.438.13a7.65,7.65,0,0,1,3.392,1.917,1.529,1.529,0,0,1,.179.185,5.11,5.11,0,0,1,.873,1.306c.049.1.093.207.133.312a4.981,4.981,0,0,1,.207.717.517.517,0,0,1,.012.077,1.819,1.819,0,0,1,.035.216,3.9,3.9,0,0,1,.047.434c.162,3.4-3.335,6.793-8.218,7.8a14.31,14.31,0,0,1-1.868.256c-.1.009-.19.014-.287.019a11.811,11.811,0,0,1-3.738-.394" transform="translate(-196.995 -208.182)" fill="#b65743"/>
            </g>
          </g>
        </g>
        <path id="Trazado_968864" data-name="Trazado 968864" d="M202.58,219.942a9.481,9.481,0,0,1-1.886-.748s0,0,0,0c-.091-.046-.177-.1-.267-.151h0a5.328,5.328,0,0,1-2.889-4.329c1.482-5.129,9.118-7.643,14.108-6.07,2.548.728,4.717,2.487,4.877,5.164-1.081,4.669-8.941,7.741-13.935,6.133" transform="translate(-130.793 -137.844)" fill="#621212"/>
        <path id="Trazado_968865" data-name="Trazado 968865" d="M200.16,216.925c.044-.067.092-.138.144-.2a8.062,8.062,0,0,0,1.3-.133,15.239,15.239,0,0,0,2.568-.805c.3-.114.6-.228.907-.333a17.6,17.6,0,0,1,6.51-1.073,13.163,13.163,0,0,1,6.237,1.773c.049.1.093.207.133.312-.049-.03-.1-.064-.154-.094a12.87,12.87,0,0,0-6.223-1.791,17.453,17.453,0,0,0-6.436,1.058c-.305.109-.6.224-.9.338a15.568,15.568,0,0,1-2.6.813,9.008,9.008,0,0,1-1.475.141" transform="translate(-132.534 -141.941)" fill="#441c16"/>
        <path id="Trazado_968866" data-name="Trazado 968866" d="M223.02,231.431c.446-.5.893-1.052,1.347-1.658.273-.354.544-.727.821-1.121.173-.253.35-.505.523-.758a24.852,24.852,0,0,1,2.144-2.813A7.593,7.593,0,0,1,231.6,222.7a3.58,3.58,0,0,1,1.71.007,1.752,1.752,0,0,1,.035.216,3.324,3.324,0,0,0-1.7-.025A7.368,7.368,0,0,0,228,225.218a24.068,24.068,0,0,0-2.125,2.791c-.173.253-.35.5-.523.758-.235.338-.472.659-.7.966-.454.609-.9,1.167-1.341,1.678-.1.009-.19.014-.287.019" transform="translate(-147.671 -147.392)" fill="#441c16"/>
        <path id="Trazado_968867" data-name="Trazado 968867" d="M198.491,228.841a2.255,2.255,0,0,1-.165-.175c.575-.083,1.162-.176,1.764-.284h0a34.794,34.794,0,0,0,3.82-.891,8.714,8.714,0,0,0,2.715-1.217,5.014,5.014,0,0,0,1.669-2.162,1.311,1.311,0,0,0,.067-1.11c-.247-.473-.908-.54-1.416-.514a16.419,16.419,0,0,0-5.863,1.864c-.389.176-.774.353-1.158.521a18.978,18.978,0,0,1-2.323.873c-.183.055-.369.106-.558.149a1.647,1.647,0,0,1-.015-.19q.253-.061.5-.136a18.73,18.73,0,0,0,2.32-.878c.384-.169.769-.345,1.153-.522a16.528,16.528,0,0,1,5.936-1.88,1.636,1.636,0,0,1,1.6.616,1.51,1.51,0,0,1-.057,1.28,5.2,5.2,0,0,1-1.739,2.25,8.9,8.9,0,0,1-2.775,1.246,34.549,34.549,0,0,1-3.607.851h0c-.635.12-1.263.221-1.87.308" transform="translate(-130.464 -147.184)" fill="#441c16"/>
        <g id="Grupo_1102695" data-name="Grupo 1102695" transform="translate(38.191 99.933)" opacity="0.39">
          <g id="Grupo_1102694" data-name="Grupo 1102694">
            <g id="Grupo_1102693" data-name="Grupo 1102693" clip-path="url(#clip-path-8)">
              <path id="Trazado_968868" data-name="Trazado 968868" d="M115.384,306.221c-.111-.1-.211-.211-.308-.321a7.686,7.686,0,0,1-1.842-3.168,2.233,2.233,0,0,1-.058-.233,4.941,4.941,0,0,1,.059-2.536l.078-.244c.031-.091.066-.173.1-.259l0,0a1.737,1.737,0,0,1,.081-.173,4.849,4.849,0,0,1,.956-1.358,6.169,6.169,0,0,1,1.7-1.209c.071-.037.148-.075.225-.107a11.562,11.562,0,0,1,8.155-.18,12.744,12.744,0,0,1,4.876,2.79c.108.108.22.213.318.328a7.65,7.65,0,0,1,2.018,3.333,1.5,1.5,0,0,1,.066.249,5.105,5.105,0,0,1,.122,1.566c-.008.113-.021.226-.037.337a5.012,5.012,0,0,1-.171.726.507.507,0,0,1-.028.073,1.84,1.84,0,0,1-.075.206,3.914,3.914,0,0,1-.172.4c-1.523,3.04-6.235,4.288-10.985,2.772a14.277,14.277,0,0,1-1.754-.693c-.089-.04-.173-.08-.259-.123a11.814,11.814,0,0,1-3.065-2.175" transform="translate(-113.039 -295.782)" fill="#b65743"/>
            </g>
          </g>
        </g>
        <path id="Trazado_968869" data-name="Trazado 968869" d="M118.085,304.954a9.482,9.482,0,0,1-1.278-1.576c-.006,0,0,0,0,0-.056-.085-.107-.171-.159-.263l0,0a5.328,5.328,0,0,1-.4-5.189c3.8-3.746,11.694-2.2,15.272,1.621,1.865,1.884,2.893,4.479,1.722,6.891-3.23,3.54-11.587,2.367-15.153-1.48" transform="translate(-76.637 -195.845)" fill="#621212"/>
        <path id="Trazado_968870" data-name="Trazado 968870" d="M122.256,298.34c.071-.037.148-.075.225-.107a8.119,8.119,0,0,0,1.2.52,15.275,15.275,0,0,0,2.633.556c.319.048.637.1.954.154a17.6,17.6,0,0,1,6.2,2.254,13.159,13.159,0,0,1,4.569,4.6c-.007.113-.021.226-.037.337-.028-.05-.057-.105-.088-.157a12.871,12.871,0,0,0-4.548-4.61,17.457,17.457,0,0,0-6.128-2.231c-.32-.054-.635-.1-.953-.148a15.577,15.577,0,0,1-2.669-.568,8.993,8.993,0,0,1-1.354-.6" transform="translate(-80.951 -197.472)" fill="#441c16"/>
        <path id="Trazado_968871" data-name="Trazado 968871" d="M129.054,325.989c.635-.219,1.294-.48,1.986-.785.411-.175.83-.368,1.265-.575.275-.135.552-.269.827-.4a24.849,24.849,0,0,1,3.247-1.4,7.6,7.6,0,0,1,4.433-.242,3.587,3.587,0,0,1,1.488.844,1.886,1.886,0,0,1-.075.206,3.329,3.329,0,0,0-1.47-.855,7.371,7.371,0,0,0-4.316.237,24.066,24.066,0,0,0-3.22,1.392c-.275.136-.552.269-.827.4-.371.179-.734.344-1.086.5-.695.309-1.359.576-1.992.806-.089-.04-.173-.081-.259-.124" transform="translate(-85.452 -213.444)" fill="#441c16"/>
        <path id="Trazado_968872" data-name="Trazado 968872" d="M113.5,309.6a2.176,2.176,0,0,1-.057-.233q.812.314,1.676.617l0,0a34.867,34.867,0,0,0,3.767,1.095,8.72,8.72,0,0,0,2.963.269,5.013,5.013,0,0,0,2.514-1.067,1.312,1.312,0,0,0,.6-.936c.017-.533-.527-.916-.983-1.142a16.4,16.4,0,0,0-6.024-1.247c-.425-.037-.847-.072-1.264-.113a18.968,18.968,0,0,1-2.454-.377c-.186-.041-.373-.088-.559-.144a1.7,1.7,0,0,1,.08-.173q.251.07.5.125a18.674,18.674,0,0,0,2.452.372c.417.041.839.076,1.261.11a16.533,16.533,0,0,1,6.1,1.269c.508.249,1.111.685,1.1,1.323a1.509,1.509,0,0,1-.677,1.087,5.2,5.2,0,0,1-2.618,1.11,8.9,8.9,0,0,1-3.03-.273,34.655,34.655,0,0,1-3.562-1.025l0,0c-.612-.206-1.209-.426-1.781-.648" transform="translate(-75.117 -202.713)" fill="#441c16"/>
        <g id="Grupo_1102698" data-name="Grupo 1102698" transform="translate(25.019 83.137)" opacity="0.39">
          <g id="Grupo_1102697" data-name="Grupo 1102697">
            <g id="Grupo_1102696" data-name="Grupo 1102696" clip-path="url(#clip-path-9)">
              <path id="Trazado_968873" data-name="Trazado 968873" d="M76.416,256.525c-.111-.1-.212-.211-.309-.32a7.686,7.686,0,0,1-1.854-3.161,2.168,2.168,0,0,1-.058-.233,4.939,4.939,0,0,1,.05-2.536l.077-.244c.031-.091.066-.174.1-.259l0,0a1.708,1.708,0,0,1,.08-.173,4.84,4.84,0,0,1,.951-1.361,6.168,6.168,0,0,1,1.694-1.215c.071-.037.147-.076.225-.108a11.561,11.561,0,0,1,8.155-.209,12.744,12.744,0,0,1,4.885,2.772c.109.108.221.212.319.327a7.646,7.646,0,0,1,2.029,3.326,1.491,1.491,0,0,1,.067.248,5.105,5.105,0,0,1,.127,1.566c-.007.113-.02.226-.035.337a5.01,5.01,0,0,1-.169.727.556.556,0,0,1-.028.073,1.841,1.841,0,0,1-.075.206,3.883,3.883,0,0,1-.17.4c-1.512,3.045-6.22,4.309-10.975,2.811a14.362,14.362,0,0,1-1.757-.686c-.089-.04-.173-.08-.26-.123a11.813,11.813,0,0,1-3.073-2.164" transform="translate(-74.053 -246.069)" fill="#b65743"/>
            </g>
          </g>
        </g>
        <path id="Trazado_968874" data-name="Trazado 968874" d="M79.1,255.257a9.478,9.478,0,0,1-1.284-1.572c-.005,0,0,0,0,0-.057-.085-.108-.17-.16-.262l0,0a5.327,5.327,0,0,1-.416-5.187c3.792-3.759,11.686-2.237,15.278,1.567,1.871,1.877,2.909,4.469,1.746,6.885-3.218,3.552-11.579,2.408-15.158-1.427" transform="translate(-50.813 -162.929)" fill="#621212"/>
        <path id="Trazado_968875" data-name="Trazado 968875" d="M83.222,248.67c.071-.037.147-.076.225-.108a8.088,8.088,0,0,0,1.2.516,15.3,15.3,0,0,0,2.635.547c.319.047.638.095.955.151a17.6,17.6,0,0,1,6.209,2.232,13.165,13.165,0,0,1,4.585,4.585c-.007.113-.02.226-.036.337-.028-.05-.057-.1-.089-.157a12.875,12.875,0,0,0-4.564-4.595,17.462,17.462,0,0,0-6.137-2.21c-.32-.053-.635-.1-.954-.145a15.6,15.6,0,0,1-2.671-.558,9.057,9.057,0,0,1-1.357-.6" transform="translate(-55.105 -164.583)" fill="#441c16"/>
        <path id="Trazado_968876" data-name="Trazado 968876" d="M90.141,276.229c.634-.222,1.293-.484,1.984-.792.41-.176.829-.371,1.263-.579.274-.137.552-.271.826-.407a24.845,24.845,0,0,1,3.242-1.413,7.593,7.593,0,0,1,4.432-.257,3.584,3.584,0,0,1,1.491.839,1.81,1.81,0,0,1-.074.206,3.326,3.326,0,0,0-1.473-.85,7.368,7.368,0,0,0-4.315.252,24.042,24.042,0,0,0-3.215,1.4c-.274.137-.552.271-.826.407-.37.181-.733.346-1.084.5-.694.311-1.357.58-1.989.813-.089-.04-.173-.08-.26-.123" transform="translate(-59.686 -180.472)" fill="#441c16"/>
        <path id="Trazado_968877" data-name="Trazado 968877" d="M74.528,259.957a2.253,2.253,0,0,1-.058-.233q.813.311,1.678.611l0,0a34.861,34.861,0,0,0,3.771,1.081,8.717,8.717,0,0,0,2.964.259A5.015,5.015,0,0,0,85.4,260.6a1.312,1.312,0,0,0,.6-.938c.015-.533-.53-.914-.987-1.138a16.406,16.406,0,0,0-6.028-1.226c-.425-.035-.847-.069-1.265-.108a18.947,18.947,0,0,1-2.455-.369c-.186-.041-.374-.087-.559-.142a1.636,1.636,0,0,1,.08-.173q.251.07.5.123a18.7,18.7,0,0,0,2.454.363c.417.04.839.073,1.261.106a16.531,16.531,0,0,1,6.1,1.248c.509.247,1.114.681,1.1,1.319a1.509,1.509,0,0,1-.674,1.09,5.2,5.2,0,0,1-2.614,1.119,8.894,8.894,0,0,1-3.031-.262,34.566,34.566,0,0,1-3.565-1.013l0,0c-.613-.2-1.211-.423-1.784-.642" transform="translate(-49.31 -169.844)" fill="#441c16"/>
        <g id="Grupo_1102701" data-name="Grupo 1102701" transform="translate(64.149 50.252)" opacity="0.39">
          <g id="Grupo_1102700" data-name="Grupo 1102700">
            <g id="Grupo_1102699" data-name="Grupo 1102699" clip-path="url(#clip-path-10)">
              <path id="Trazado_968878" data-name="Trazado 968878" d="M191.282,152.589c.069-.136.142-.263.219-.388a7.687,7.687,0,0,1,2.507-2.672,2.158,2.158,0,0,1,.207-.122,4.937,4.937,0,0,1,2.447-.67l.255,0c.1,0,.185.014.278.025h0a1.669,1.669,0,0,1,.189.028,4.846,4.846,0,0,1,1.574.527,6.173,6.173,0,0,1,1.645,1.281c.056.057.114.12.167.185a11.558,11.558,0,0,1,2.508,7.762,12.743,12.743,0,0,1-1.276,5.47c-.072.135-.141.271-.223.4a7.648,7.648,0,0,1-2.616,2.887,1.478,1.478,0,0,1-.22.134,5.106,5.106,0,0,1-1.465.565c-.11.025-.222.045-.333.061a5.077,5.077,0,0,1-.745.044.536.536,0,0,1-.078-.006,1.92,1.92,0,0,1-.219-.013,3.894,3.894,0,0,1-.433-.05c-3.349-.589-5.894-4.746-5.8-9.731a14.312,14.312,0,0,1,.161-1.879c.013-.1.028-.189.044-.284a11.822,11.822,0,0,1,1.206-3.56" transform="translate(-189.869 -148.737)" fill="#b65743"/>
            </g>
          </g>
        </g>
        <path id="Trazado_968879" data-name="Trazado 968879" d="M195.677,154.108a9.462,9.462,0,0,1,1.144-1.676c0-.005,0,0,0,0,.065-.078.133-.152.206-.228v0a5.327,5.327,0,0,1,4.857-1.867c4.678,2.573,5.452,10.575,2.821,15.1-1.271,2.326-3.463,4.055-6.11,3.623-4.317-2.081-5.586-10.424-2.921-14.942" transform="translate(-128.645 -99.492)" fill="#621212"/>
        <path id="Trazado_968880" data-name="Trazado 968880" d="M214.874,154.262c.056.057.114.12.168.185a8.051,8.051,0,0,0-.156,1.295,15.256,15.256,0,0,0,.221,2.683c.045.319.09.638.126.958a17.6,17.6,0,0,1-.383,6.587,13.161,13.161,0,0,1-3.1,5.695c-.11.025-.222.045-.333.061.04-.041.084-.084.125-.129a12.872,12.872,0,0,0,3.115-5.677,17.457,17.457,0,0,0,.382-6.511c-.04-.321-.086-.637-.131-.956a15.609,15.609,0,0,1-.221-2.72,9.023,9.023,0,0,1,.187-1.469" transform="translate(-139.986 -102.143)" fill="#441c16"/>
        <path id="Trazado_968881" data-name="Trazado 968881" d="M190.4,170.673c.392.545.83,1.1,1.321,1.678.285.344.59.69.913,1.047.208.224.416.453.624.677a24.832,24.832,0,0,1,2.273,2.71,7.6,7.6,0,0,1,1.5,4.178,3.579,3.579,0,0,1-.382,1.667,1.852,1.852,0,0,1-.219-.013,3.322,3.322,0,0,0,.4-1.653,7.369,7.369,0,0,0-1.463-4.068,24.075,24.075,0,0,0-2.256-2.687c-.208-.224-.416-.452-.624-.677-.278-.3-.54-.605-.788-.9q-.742-.865-1.343-1.677c.013-.1.028-.189.044-.284" transform="translate(-126.04 -113.01)" fill="#441c16"/>
        <path id="Trazado_968882" data-name="Trazado 968882" d="M201.839,149.589a2.19,2.19,0,0,1,.207-.122c-.045.579-.083,1.172-.11,1.783v0a34.876,34.876,0,0,0,.029,3.923,8.723,8.723,0,0,0,.591,2.916,5.014,5.014,0,0,0,1.742,2.1,1.313,1.313,0,0,0,1.069.309c.516-.137.727-.767.813-1.269a16.409,16.409,0,0,0-.53-6.129c-.086-.418-.174-.832-.254-1.244a18.969,18.969,0,0,1-.341-2.459c-.014-.19-.022-.383-.022-.577a1.755,1.755,0,0,1,.189.028q0,.261.023.514a18.722,18.722,0,0,0,.346,2.456c.08.412.168.826.255,1.24a16.531,16.531,0,0,1,.529,6.2c-.093.558-.338,1.261-.953,1.43a1.507,1.507,0,0,1-1.236-.338,5.2,5.2,0,0,1-1.813-2.191,8.9,8.9,0,0,1-.606-2.981,34.664,34.664,0,0,1-.038-3.706v0c.022-.646.063-1.281.111-1.892" transform="translate(-133.551 -98.545)" fill="#441c16"/>
        <g id="Grupo_1102704" data-name="Grupo 1102704" transform="translate(50.118 57.379)" opacity="0.39">
          <g id="Grupo_1102703" data-name="Grupo 1102703">
            <g id="Grupo_1102702" data-name="Grupo 1102702" clip-path="url(#clip-path-10)">
              <path id="Trazado_968883" data-name="Trazado 968883" d="M149.753,173.684c.069-.137.142-.263.219-.388a7.688,7.688,0,0,1,2.507-2.672,2.223,2.223,0,0,1,.207-.122,4.937,4.937,0,0,1,2.447-.67l.255,0c.1,0,.185.014.278.025h0a1.676,1.676,0,0,1,.189.028,4.838,4.838,0,0,1,1.574.527,6.166,6.166,0,0,1,1.645,1.281c.056.057.115.12.168.185a11.558,11.558,0,0,1,2.508,7.762,12.74,12.74,0,0,1-1.276,5.47c-.072.135-.141.272-.223.4a7.645,7.645,0,0,1-2.616,2.888,1.475,1.475,0,0,1-.22.134,5.106,5.106,0,0,1-1.465.565c-.11.025-.222.045-.333.061a5.028,5.028,0,0,1-.745.044.493.493,0,0,1-.078-.006,1.849,1.849,0,0,1-.219-.013,3.836,3.836,0,0,1-.434-.05c-3.349-.589-5.894-4.746-5.8-9.731a14.317,14.317,0,0,1,.161-1.879c.013-.1.028-.189.044-.284a11.806,11.806,0,0,1,1.206-3.56" transform="translate(-148.34 -169.832)" fill="#b65743"/>
            </g>
          </g>
        </g>
        <path id="Trazado_968884" data-name="Trazado 968884" d="M154.148,175.2a9.481,9.481,0,0,1,1.144-1.676c0-.005,0,0,0,0,.065-.078.133-.152.206-.228v0a5.326,5.326,0,0,1,4.857-1.867c4.678,2.573,5.452,10.575,2.82,15.1-1.271,2.326-3.463,4.055-6.11,3.623-4.317-2.081-5.586-10.424-2.921-14.942" transform="translate(-101.147 -113.46)" fill="#621212"/>
        <path id="Trazado_968885" data-name="Trazado 968885" d="M173.345,175.357c.056.057.114.12.168.185a8.049,8.049,0,0,0-.156,1.3,15.25,15.25,0,0,0,.221,2.682c.045.319.09.638.126.959a17.6,17.6,0,0,1-.383,6.587,13.164,13.164,0,0,1-3.1,5.695c-.11.025-.222.045-.333.061.04-.041.084-.084.125-.129a12.872,12.872,0,0,0,3.115-5.677,17.456,17.456,0,0,0,.382-6.511c-.04-.321-.086-.637-.131-.956a15.58,15.58,0,0,1-.221-2.72,9.063,9.063,0,0,1,.187-1.469" transform="translate(-112.488 -116.111)" fill="#441c16"/>
        <path id="Trazado_968886" data-name="Trazado 968886" d="M148.868,191.768c.392.545.83,1.1,1.321,1.678.285.344.59.69.913,1.047.208.224.416.453.624.677A24.829,24.829,0,0,1,154,197.88a7.6,7.6,0,0,1,1.5,4.178,3.578,3.578,0,0,1-.382,1.667,1.848,1.848,0,0,1-.219-.013,3.321,3.321,0,0,0,.4-1.653,7.37,7.37,0,0,0-1.463-4.067,24.072,24.072,0,0,0-2.256-2.687c-.208-.224-.416-.452-.624-.677-.278-.3-.54-.605-.788-.9q-.742-.865-1.342-1.677c.012-.1.027-.189.044-.284" transform="translate(-98.542 -126.977)" fill="#441c16"/>
        <path id="Trazado_968887" data-name="Trazado 968887" d="M160.31,170.684a2.234,2.234,0,0,1,.207-.122c-.045.579-.083,1.172-.11,1.783v0a34.873,34.873,0,0,0,.029,3.923,8.723,8.723,0,0,0,.591,2.916,5.018,5.018,0,0,0,1.742,2.1,1.314,1.314,0,0,0,1.069.309c.516-.137.727-.767.813-1.269a16.417,16.417,0,0,0-.53-6.129c-.087-.418-.174-.832-.254-1.244a18.958,18.958,0,0,1-.341-2.459c-.014-.19-.022-.383-.022-.577a1.752,1.752,0,0,1,.189.028q0,.261.023.514a18.733,18.733,0,0,0,.346,2.456c.08.412.168.826.255,1.24a16.532,16.532,0,0,1,.529,6.2c-.093.558-.338,1.261-.953,1.43a1.507,1.507,0,0,1-1.236-.338,5.2,5.2,0,0,1-1.813-2.191,8.9,8.9,0,0,1-.606-2.981,34.636,34.636,0,0,1-.037-3.706v0c.022-.646.063-1.281.111-1.892" transform="translate(-106.052 -112.513)" fill="#441c16"/>
        <g id="Grupo_1102707" data-name="Grupo 1102707" transform="translate(65.446 85.874)" opacity="0.39">
          <g id="Grupo_1102706" data-name="Grupo 1102706">
            <g id="Grupo_1102705" data-name="Grupo 1102705" clip-path="url(#clip-path-10)">
              <path id="Trazado_968888" data-name="Trazado 968888" d="M195.122,258.024c.069-.136.142-.263.219-.388a7.691,7.691,0,0,1,2.507-2.672,2.221,2.221,0,0,1,.207-.122,4.937,4.937,0,0,1,2.447-.67l.255,0c.1,0,.185.014.278.025h0a1.672,1.672,0,0,1,.189.028,4.838,4.838,0,0,1,1.574.527,6.173,6.173,0,0,1,1.645,1.281c.056.057.114.12.167.185a11.558,11.558,0,0,1,2.508,7.762,12.741,12.741,0,0,1-1.276,5.47c-.072.135-.141.272-.223.4a7.646,7.646,0,0,1-2.616,2.887,1.458,1.458,0,0,1-.22.134,5.1,5.1,0,0,1-1.465.565c-.11.025-.222.045-.333.061a5.029,5.029,0,0,1-.745.044.485.485,0,0,1-.078-.006,1.84,1.84,0,0,1-.219-.013,3.821,3.821,0,0,1-.434-.05c-3.349-.589-5.894-4.746-5.8-9.731a14.315,14.315,0,0,1,.161-1.879c.013-.1.028-.189.044-.284a11.816,11.816,0,0,1,1.206-3.56" transform="translate(-193.709 -254.172)" fill="#b65743"/>
            </g>
          </g>
        </g>
        <path id="Trazado_968889" data-name="Trazado 968889" d="M199.517,259.543a9.477,9.477,0,0,1,1.144-1.676c0-.005,0,0,0,0,.065-.078.133-.152.206-.228v0a5.327,5.327,0,0,1,4.858-1.867c4.678,2.573,5.452,10.575,2.82,15.1-1.271,2.326-3.463,4.055-6.11,3.623-4.317-2.081-5.586-10.424-2.921-14.942" transform="translate(-131.188 -169.305)" fill="#621212"/>
        <path id="Trazado_968890" data-name="Trazado 968890" d="M218.715,259.7c.056.057.114.12.168.185a8.049,8.049,0,0,0-.156,1.295,15.254,15.254,0,0,0,.221,2.683c.045.319.09.638.126.958a17.6,17.6,0,0,1-.383,6.587,13.165,13.165,0,0,1-3.1,5.695c-.11.025-.222.045-.333.061.04-.041.084-.084.125-.129a12.872,12.872,0,0,0,3.115-5.677,17.457,17.457,0,0,0,.382-6.511c-.04-.321-.086-.637-.131-.956a15.612,15.612,0,0,1-.221-2.72,9.026,9.026,0,0,1,.187-1.469" transform="translate(-142.53 -171.957)" fill="#441c16"/>
        <path id="Trazado_968891" data-name="Trazado 968891" d="M194.237,276.108c.392.545.83,1.1,1.321,1.678.285.344.59.69.913,1.047.208.224.416.453.624.677a24.835,24.835,0,0,1,2.273,2.71,7.6,7.6,0,0,1,1.5,4.178,3.579,3.579,0,0,1-.382,1.667,1.852,1.852,0,0,1-.219-.013,3.322,3.322,0,0,0,.4-1.653,7.369,7.369,0,0,0-1.463-4.067,24.063,24.063,0,0,0-2.256-2.687c-.208-.224-.416-.452-.624-.677-.278-.3-.54-.605-.788-.9q-.742-.865-1.342-1.677c.012-.1.028-.188.044-.284" transform="translate(-128.583 -182.822)" fill="#441c16"/>
        <path id="Trazado_968892" data-name="Trazado 968892" d="M205.679,255.024a2.234,2.234,0,0,1,.207-.122c-.045.579-.083,1.172-.111,1.783v0a34.865,34.865,0,0,0,.029,3.923,8.724,8.724,0,0,0,.591,2.916,5.014,5.014,0,0,0,1.742,2.1,1.313,1.313,0,0,0,1.069.309c.516-.137.727-.767.813-1.269a16.417,16.417,0,0,0-.53-6.129c-.086-.418-.174-.832-.254-1.244a18.9,18.9,0,0,1-.341-2.459c-.014-.19-.023-.383-.023-.577a1.753,1.753,0,0,1,.189.028q0,.261.023.514a18.727,18.727,0,0,0,.346,2.456c.08.412.168.826.255,1.24a16.532,16.532,0,0,1,.529,6.2c-.093.558-.338,1.261-.953,1.43a1.507,1.507,0,0,1-1.236-.338,5.2,5.2,0,0,1-1.813-2.191,8.9,8.9,0,0,1-.606-2.981,34.64,34.64,0,0,1-.038-3.706v0c.022-.646.062-1.281.111-1.892" transform="translate(-136.093 -168.358)" fill="#441c16"/>
        <g id="Grupo_1102710" data-name="Grupo 1102710" transform="translate(76.228 100.723)" opacity="0.39">
          <g id="Grupo_1102709" data-name="Grupo 1102709">
            <g id="Grupo_1102708" data-name="Grupo 1102708" clip-path="url(#clip-path-10)">
              <path id="Trazado_968893" data-name="Trazado 968893" d="M227.032,301.974c.069-.136.142-.263.219-.387a7.687,7.687,0,0,1,2.507-2.672,2.214,2.214,0,0,1,.207-.122,4.936,4.936,0,0,1,2.447-.67l.255,0c.1,0,.185.014.278.025h0a1.683,1.683,0,0,1,.189.028,4.838,4.838,0,0,1,1.574.527,6.167,6.167,0,0,1,1.645,1.281c.056.057.115.12.168.185a11.558,11.558,0,0,1,2.508,7.762,12.74,12.74,0,0,1-1.276,5.47c-.072.135-.141.272-.223.4a7.648,7.648,0,0,1-2.616,2.887,1.475,1.475,0,0,1-.22.134,5.106,5.106,0,0,1-1.465.565c-.11.025-.222.045-.333.061a5.025,5.025,0,0,1-.745.044.486.486,0,0,1-.078-.006,1.852,1.852,0,0,1-.219-.013,3.843,3.843,0,0,1-.434-.05c-3.349-.589-5.894-4.746-5.8-9.731a14.322,14.322,0,0,1,.161-1.879c.013-.1.028-.189.044-.284a11.809,11.809,0,0,1,1.206-3.56" transform="translate(-225.619 -298.122)" fill="#b65743"/>
            </g>
          </g>
        </g>
        <path id="Trazado_968894" data-name="Trazado 968894" d="M231.428,303.493a9.46,9.46,0,0,1,1.144-1.676c0-.005,0,0,0,0,.066-.078.133-.152.205-.228v0a5.327,5.327,0,0,1,4.857-1.867c4.678,2.573,5.452,10.575,2.821,15.1-1.271,2.326-3.463,4.055-6.11,3.623-4.317-2.081-5.586-10.424-2.92-14.942" transform="translate(-152.317 -198.406)" fill="#621212"/>
        <path id="Trazado_968895" data-name="Trazado 968895" d="M250.625,303.648c.056.057.114.12.168.185a8.052,8.052,0,0,0-.156,1.295,15.256,15.256,0,0,0,.221,2.683c.045.319.09.638.126.958a17.6,17.6,0,0,1-.383,6.586,13.162,13.162,0,0,1-3.1,5.7c-.11.025-.222.045-.333.061.04-.041.084-.085.125-.129a12.872,12.872,0,0,0,3.115-5.677,17.457,17.457,0,0,0,.382-6.511c-.04-.322-.086-.637-.131-.956a15.61,15.61,0,0,1-.221-2.72,9.062,9.062,0,0,1,.187-1.469" transform="translate(-163.659 -201.058)" fill="#441c16"/>
        <path id="Trazado_968896" data-name="Trazado 968896" d="M226.147,320.058c.392.545.83,1.1,1.321,1.678.285.344.59.69.913,1.047.208.224.416.453.624.677a24.834,24.834,0,0,1,2.273,2.71,7.6,7.6,0,0,1,1.5,4.178,3.58,3.58,0,0,1-.382,1.667,1.859,1.859,0,0,1-.219-.013,3.322,3.322,0,0,0,.4-1.653,7.37,7.37,0,0,0-1.463-4.068,24.074,24.074,0,0,0-2.256-2.687c-.208-.224-.416-.452-.624-.677-.278-.3-.54-.605-.788-.9q-.742-.865-1.342-1.677c.012-.1.028-.189.044-.284" transform="translate(-149.712 -211.923)" fill="#441c16"/>
        <path id="Trazado_968897" data-name="Trazado 968897" d="M237.589,298.974a2.23,2.23,0,0,1,.207-.122c-.045.579-.083,1.172-.11,1.783v0a34.873,34.873,0,0,0,.029,3.923,8.724,8.724,0,0,0,.591,2.916,5.015,5.015,0,0,0,1.742,2.1,1.314,1.314,0,0,0,1.069.309c.516-.137.727-.767.813-1.269a16.416,16.416,0,0,0-.53-6.129c-.087-.418-.174-.832-.254-1.244a18.96,18.96,0,0,1-.341-2.459c-.014-.19-.022-.383-.022-.577a1.756,1.756,0,0,1,.189.028q0,.261.023.514a18.722,18.722,0,0,0,.346,2.456c.08.411.168.826.255,1.24a16.532,16.532,0,0,1,.529,6.2c-.093.558-.338,1.261-.953,1.43a1.507,1.507,0,0,1-1.236-.338,5.2,5.2,0,0,1-1.813-2.191,8.9,8.9,0,0,1-.606-2.981,34.657,34.657,0,0,1-.038-3.706v0c.022-.646.063-1.281.111-1.892" transform="translate(-157.222 -197.459)" fill="#441c16"/>
        <g id="Grupo_1102713" data-name="Grupo 1102713" transform="translate(49.135 79.979)" opacity="0.39">
          <g id="Grupo_1102712" data-name="Grupo 1102712">
            <g id="Grupo_1102711" data-name="Grupo 1102711" clip-path="url(#clip-path-10)">
              <path id="Trazado_968898" data-name="Trazado 968898" d="M146.845,240.574c.069-.136.142-.262.219-.388a7.687,7.687,0,0,1,2.507-2.672,2.176,2.176,0,0,1,.207-.122,4.937,4.937,0,0,1,2.447-.67l.255,0c.1,0,.185.014.278.025h0a1.672,1.672,0,0,1,.189.028,4.847,4.847,0,0,1,1.574.527,6.166,6.166,0,0,1,1.645,1.281c.056.057.115.12.168.185a11.558,11.558,0,0,1,2.508,7.762,12.74,12.74,0,0,1-1.276,5.47c-.072.135-.141.272-.223.4a7.649,7.649,0,0,1-2.616,2.887,1.475,1.475,0,0,1-.22.134,5.1,5.1,0,0,1-1.466.565c-.11.025-.222.045-.333.061a5.079,5.079,0,0,1-.745.044.535.535,0,0,1-.078-.006,1.846,1.846,0,0,1-.219-.013,3.842,3.842,0,0,1-.434-.05c-3.349-.589-5.894-4.746-5.8-9.731a14.322,14.322,0,0,1,.161-1.879c.013-.1.028-.189.044-.284a11.81,11.81,0,0,1,1.206-3.56" transform="translate(-145.432 -236.722)" fill="#b65743"/>
            </g>
          </g>
        </g>
        <path id="Trazado_968899" data-name="Trazado 968899" d="M151.24,242.093a9.462,9.462,0,0,1,1.144-1.676c0-.005,0,0,0,0,.065-.078.133-.152.206-.228v0a5.327,5.327,0,0,1,4.858-1.867c4.678,2.573,5.452,10.575,2.82,15.1-1.271,2.326-3.463,4.055-6.11,3.623-4.317-2.081-5.586-10.424-2.921-14.942" transform="translate(-99.221 -157.751)" fill="#621212"/>
        <path id="Trazado_968900" data-name="Trazado 968900" d="M170.437,242.248c.056.057.114.12.168.185a8.053,8.053,0,0,0-.156,1.295,15.254,15.254,0,0,0,.221,2.683c.045.319.09.638.126.959a17.6,17.6,0,0,1-.383,6.586,13.16,13.16,0,0,1-3.1,5.7c-.11.025-.222.045-.333.061.04-.041.084-.084.125-.129a12.872,12.872,0,0,0,3.115-5.677,17.457,17.457,0,0,0,.382-6.511c-.04-.321-.086-.637-.131-.956a15.614,15.614,0,0,1-.221-2.72,9.063,9.063,0,0,1,.187-1.469" transform="translate(-110.563 -160.402)" fill="#441c16"/>
        <path id="Trazado_968901" data-name="Trazado 968901" d="M145.959,258.659c.392.545.83,1.1,1.321,1.678.285.344.59.69.913,1.047.208.224.415.453.624.677a24.832,24.832,0,0,1,2.273,2.71,7.6,7.6,0,0,1,1.5,4.178,3.579,3.579,0,0,1-.382,1.667,1.835,1.835,0,0,1-.219-.013,3.325,3.325,0,0,0,.4-1.653,7.369,7.369,0,0,0-1.463-4.068,24.071,24.071,0,0,0-2.256-2.687c-.208-.224-.416-.452-.624-.677-.278-.3-.54-.605-.788-.9q-.742-.865-1.343-1.677c.013-.1.028-.188.045-.284" transform="translate(-96.616 -171.269)" fill="#441c16"/>
        <path id="Trazado_968902" data-name="Trazado 968902" d="M157.4,237.575a2.182,2.182,0,0,1,.207-.122c-.045.579-.083,1.172-.11,1.783v0a34.865,34.865,0,0,0,.029,3.923,8.731,8.731,0,0,0,.591,2.916,5.018,5.018,0,0,0,1.742,2.1,1.313,1.313,0,0,0,1.069.309c.516-.137.727-.767.813-1.269a16.409,16.409,0,0,0-.53-6.129c-.086-.418-.174-.832-.254-1.244a18.958,18.958,0,0,1-.341-2.459c-.014-.19-.022-.383-.022-.577a1.75,1.75,0,0,1,.189.028q0,.261.023.514a18.674,18.674,0,0,0,.346,2.456c.08.411.168.826.255,1.24a16.532,16.532,0,0,1,.529,6.2c-.093.558-.338,1.261-.953,1.43a1.507,1.507,0,0,1-1.236-.338,5.2,5.2,0,0,1-1.813-2.191,8.9,8.9,0,0,1-.606-2.981,34.64,34.64,0,0,1-.038-3.706v0c.022-.646.062-1.281.111-1.892" transform="translate(-104.127 -156.804)" fill="#441c16"/>
        <g id="Grupo_1102716" data-name="Grupo 1102716" transform="translate(58.566 104.598)" opacity="0.39">
          <g id="Grupo_1102715" data-name="Grupo 1102715">
            <g id="Grupo_1102714" data-name="Grupo 1102714" clip-path="url(#clip-path-10)">
              <path id="Trazado_968903" data-name="Trazado 968903" d="M174.757,313.444c.069-.136.142-.263.219-.388a7.688,7.688,0,0,1,2.507-2.672,2.169,2.169,0,0,1,.207-.122,4.936,4.936,0,0,1,2.447-.67l.255,0c.1,0,.185.013.278.025h0a1.676,1.676,0,0,1,.189.028,4.846,4.846,0,0,1,1.574.527,6.167,6.167,0,0,1,1.645,1.281c.056.057.115.12.168.185a11.558,11.558,0,0,1,2.508,7.762,12.74,12.74,0,0,1-1.276,5.47c-.072.135-.141.272-.223.4a7.646,7.646,0,0,1-2.616,2.887,1.473,1.473,0,0,1-.22.134,5.106,5.106,0,0,1-1.466.565c-.11.025-.222.045-.333.061a5.07,5.07,0,0,1-.745.044.5.5,0,0,1-.078-.006,1.859,1.859,0,0,1-.219-.013,3.935,3.935,0,0,1-.434-.05c-3.349-.589-5.894-4.746-5.8-9.731a14.315,14.315,0,0,1,.161-1.879c.013-.1.028-.188.044-.284a11.813,11.813,0,0,1,1.206-3.56" transform="translate(-173.344 -309.592)" fill="#b65743"/>
            </g>
          </g>
        </g>
        <path id="Trazado_968904" data-name="Trazado 968904" d="M179.152,314.963a9.483,9.483,0,0,1,1.144-1.676c0-.005,0,0,0,0,.065-.078.133-.152.206-.228v0a5.327,5.327,0,0,1,4.858-1.867c4.678,2.573,5.452,10.575,2.82,15.1-1.271,2.326-3.463,4.055-6.11,3.623-4.317-2.081-5.586-10.424-2.921-14.942" transform="translate(-117.703 -206.001)" fill="#621212"/>
        <path id="Trazado_968905" data-name="Trazado 968905" d="M198.349,315.117c.056.057.114.12.168.185a8.049,8.049,0,0,0-.156,1.295,15.254,15.254,0,0,0,.221,2.683c.045.319.09.638.126.958a17.6,17.6,0,0,1-.383,6.586,13.162,13.162,0,0,1-3.1,5.7c-.11.025-.222.045-.333.061.04-.041.084-.084.125-.129a12.872,12.872,0,0,0,3.115-5.677,17.457,17.457,0,0,0,.382-6.511c-.04-.322-.086-.637-.131-.956a15.614,15.614,0,0,1-.221-2.72,9.063,9.063,0,0,1,.187-1.469" transform="translate(-129.045 -208.652)" fill="#441c16"/>
        <path id="Trazado_968906" data-name="Trazado 968906" d="M173.871,331.528c.392.545.83,1.1,1.321,1.678.285.344.59.69.913,1.047.208.224.416.453.624.677A24.826,24.826,0,0,1,179,337.64a7.6,7.6,0,0,1,1.5,4.178,3.579,3.579,0,0,1-.382,1.667,1.852,1.852,0,0,1-.219-.013,3.321,3.321,0,0,0,.4-1.653,7.37,7.37,0,0,0-1.463-4.068,24.065,24.065,0,0,0-2.256-2.687c-.208-.224-.416-.452-.624-.677-.278-.3-.54-.605-.788-.9q-.742-.865-1.342-1.677c.013-.1.027-.189.044-.284" transform="translate(-115.098 -219.518)" fill="#441c16"/>
        <path id="Trazado_968907" data-name="Trazado 968907" d="M185.313,310.444a2.191,2.191,0,0,1,.207-.122c-.045.579-.083,1.172-.11,1.783v0a34.866,34.866,0,0,0,.029,3.923,8.724,8.724,0,0,0,.591,2.916,5.018,5.018,0,0,0,1.742,2.1,1.314,1.314,0,0,0,1.069.309c.516-.137.727-.767.813-1.269a16.417,16.417,0,0,0-.53-6.129c-.087-.418-.174-.832-.254-1.244a18.96,18.96,0,0,1-.341-2.459c-.014-.19-.022-.383-.022-.577a1.756,1.756,0,0,1,.189.028q0,.261.023.514a18.667,18.667,0,0,0,.346,2.456c.08.412.168.826.255,1.24a16.532,16.532,0,0,1,.529,6.2c-.093.558-.338,1.261-.953,1.43a1.507,1.507,0,0,1-1.236-.338,5.2,5.2,0,0,1-1.813-2.191,8.9,8.9,0,0,1-.606-2.981,34.645,34.645,0,0,1-.038-3.706v0c.022-.646.063-1.281.111-1.892" transform="translate(-122.608 -205.054)" fill="#441c16"/>
        <g id="Grupo_1102719" data-name="Grupo 1102719" transform="translate(16.673 56.564)" opacity="0.39">
          <g id="Grupo_1102718" data-name="Grupo 1102718">
            <g id="Grupo_1102717" data-name="Grupo 1102717" clip-path="url(#clip-path-16)">
              <path id="Trazado_968908" data-name="Trazado 968908" d="M49.791,175.492c-.05-.144-.089-.285-.125-.427A7.688,7.688,0,0,1,49.5,171.4a2.259,2.259,0,0,1,.057-.233,4.942,4.942,0,0,1,1.225-2.221l.181-.18c.069-.066.139-.123.212-.182l0,0a1.722,1.722,0,0,1,.151-.116,4.85,4.85,0,0,1,1.475-.762,6.173,6.173,0,0,1,2.065-.286c.08,0,.166,0,.249.008a11.562,11.562,0,0,1,7.314,3.613,12.737,12.737,0,0,1,3.032,4.728c.046.146.1.29.13.438a7.65,7.65,0,0,1,.247,3.888,1.471,1.471,0,0,1-.057.251,5.109,5.109,0,0,1-.617,1.444c-.059.1-.123.191-.189.281a5.041,5.041,0,0,1-.488.565.6.6,0,0,1-.059.052,1.776,1.776,0,0,1-.162.148,3.793,3.793,0,0,1-.338.276c-2.756,1.991-7.511.917-11.021-2.623a14.335,14.335,0,0,1-1.235-1.425c-.06-.076-.116-.151-.173-.229a11.813,11.813,0,0,1-1.712-3.346" transform="translate(-49.349 -167.42)" fill="#b65743"/>
            </g>
          </g>
        </g>
        <path id="Trazado_968909" data-name="Trazado 968909" d="M53.919,174.791a9.473,9.473,0,0,1-.4-1.989c-.005,0,0,0,0,0-.011-.1-.016-.2-.02-.306l0,0a5.328,5.328,0,0,1,2.048-4.784c5.106-1.561,11.383,3.463,12.79,8.5.782,2.533.493,5.31-1.661,6.906-4.5,1.644-11.368-3.261-12.749-8.321" transform="translate(-35.412 -110.853)" fill="#621212"/>
        <path id="Trazado_968910" data-name="Trazado 968910" d="M65.684,167.425c.08,0,.166,0,.249.009a8.069,8.069,0,0,0,.82,1.014,15.264,15.264,0,0,0,2.077,1.711c.26.19.52.381.775.578a17.6,17.6,0,0,1,4.455,4.866,13.163,13.163,0,0,1,1.922,6.193c-.058.1-.123.191-.189.281,0-.057,0-.119-.005-.18a12.875,12.875,0,0,0-1.9-6.191,17.457,17.457,0,0,0-4.4-4.813c-.258-.2-.517-.382-.777-.573a15.6,15.6,0,0,1-2.1-1.738,9.057,9.057,0,0,1-.923-1.159" transform="translate(-43.492 -110.859)" fill="#441c16"/>
        <path id="Trazado_968911" data-name="Trazado 968911" d="M55.723,201.213c.664.1,1.369.173,2.124.223.445.035.906.058,1.387.076.306.007.614.017.921.024a24.872,24.872,0,0,1,3.527.259,7.6,7.6,0,0,1,4.041,1.836,3.583,3.583,0,0,1,.929,1.436,1.874,1.874,0,0,1-.162.148,3.326,3.326,0,0,0-.908-1.438,7.371,7.371,0,0,0-3.936-1.787,24.06,24.06,0,0,0-3.5-.255c-.306-.007-.614-.018-.92-.024-.412-.012-.81-.035-1.193-.061-.758-.047-1.471-.118-2.138-.206-.061-.077-.116-.151-.173-.23" transform="translate(-36.896 -133.231)" fill="#441c16"/>
        <path id="Trazado_968912" data-name="Trazado 968912" d="M49.789,173.46a2.255,2.255,0,0,1,.057-.233q.574.654,1.2,1.322v0a34.735,34.735,0,0,0,2.834,2.713,8.71,8.71,0,0,0,2.5,1.61,5.013,5.013,0,0,0,2.722.217,1.312,1.312,0,0,0,.967-.551c.262-.465-.044-1.055-.343-1.467a16.4,16.4,0,0,0-4.764-3.892c-.359-.229-.718-.455-1.068-.685a18.932,18.932,0,0,1-2-1.469c-.146-.123-.291-.251-.429-.386a1.8,1.8,0,0,1,.151-.116q.19.179.385.342a18.745,18.745,0,0,0,2,1.464c.351.229.709.455,1.067.681a16.53,16.53,0,0,1,4.818,3.946,1.637,1.637,0,0,1,.361,1.681,1.509,1.509,0,0,1-1.1.651,5.2,5.2,0,0,1-2.835-.228,8.892,8.892,0,0,1-2.56-1.643,34.77,34.77,0,0,1-2.683-2.557l0,0c-.448-.466-.875-.938-1.279-1.4" transform="translate(-32.967 -112.912)" fill="#441c16"/>
        <g id="Grupo_1102722" data-name="Grupo 1102722" transform="translate(32.091 49.707)" opacity="0.39">
          <g id="Grupo_1102721" data-name="Grupo 1102721">
            <g id="Grupo_1102720" data-name="Grupo 1102720" clip-path="url(#clip-path-5)">
              <path id="Trazado_968913" data-name="Trazado 968913" d="M100.039,160.431c-.148-.037-.288-.081-.426-.129a7.689,7.689,0,0,1-3.158-1.859,2.257,2.257,0,0,1-.164-.175,4.94,4.94,0,0,1-1.191-2.24l-.052-.25c-.017-.094-.027-.183-.036-.277v0a1.722,1.722,0,0,1-.015-.19,4.849,4.849,0,0,1,.168-1.652,6.173,6.173,0,0,1,.888-1.886c.044-.067.092-.138.144-.2a11.559,11.559,0,0,1,7.021-4.153,12.74,12.74,0,0,1,5.617.043c.148.041.3.078.438.13a7.654,7.654,0,0,1,3.392,1.917,1.506,1.506,0,0,1,.179.185,5.11,5.11,0,0,1,.873,1.306c.049.1.093.207.133.311a4.974,4.974,0,0,1,.207.717.474.474,0,0,1,.011.077,1.749,1.749,0,0,1,.035.216,3.893,3.893,0,0,1,.047.434c.162,3.4-3.335,6.793-8.218,7.8a14.3,14.3,0,0,1-1.868.256c-.1.009-.19.014-.287.019a11.81,11.81,0,0,1-3.738-.394" transform="translate(-94.984 -147.122)" fill="#b65743"/>
            </g>
          </g>
        </g>
        <path id="Trazado_968914" data-name="Trazado 968914" d="M100.568,158.882a9.48,9.48,0,0,1-1.886-.748s0,0,0,0c-.091-.046-.177-.1-.267-.151h0a5.328,5.328,0,0,1-2.889-4.329c1.482-5.129,9.118-7.643,14.108-6.07,2.549.728,4.717,2.487,4.877,5.164-1.081,4.669-8.941,7.741-13.935,6.133" transform="translate(-63.246 -97.413)" fill="#621212"/>
        <path id="Trazado_968915" data-name="Trazado 968915" d="M98.148,155.865c.044-.067.092-.138.144-.2a8.064,8.064,0,0,0,1.3-.133,15.24,15.24,0,0,0,2.568-.805c.3-.114.6-.228.908-.333a17.6,17.6,0,0,1,6.51-1.073,13.164,13.164,0,0,1,6.237,1.773c.049.1.093.207.133.312-.049-.03-.1-.064-.154-.094a12.871,12.871,0,0,0-6.223-1.791,17.453,17.453,0,0,0-6.436,1.057c-.305.109-.6.224-.9.338a15.569,15.569,0,0,1-2.6.813,9.007,9.007,0,0,1-1.475.141" transform="translate(-64.988 -101.51)" fill="#441c16"/>
        <path id="Trazado_968916" data-name="Trazado 968916" d="M121.008,170.371c.446-.5.893-1.052,1.347-1.658.273-.354.544-.728.821-1.121.173-.253.35-.505.523-.758a24.847,24.847,0,0,1,2.144-2.813,7.593,7.593,0,0,1,3.746-2.382,3.58,3.58,0,0,1,1.71.007,1.816,1.816,0,0,1,.035.216,3.324,3.324,0,0,0-1.7-.025,7.368,7.368,0,0,0-3.647,2.321,24.072,24.072,0,0,0-2.125,2.791c-.173.253-.35.5-.523.757-.235.338-.472.66-.7.966-.454.609-.9,1.167-1.341,1.678-.1.009-.19.014-.287.019" transform="translate(-80.124 -106.962)" fill="#441c16"/>
        <path id="Trazado_968917" data-name="Trazado 968917" d="M96.479,167.782a2.187,2.187,0,0,1-.164-.175c.574-.083,1.162-.176,1.763-.284h0a34.82,34.82,0,0,0,3.82-.891,8.715,8.715,0,0,0,2.715-1.217,5.014,5.014,0,0,0,1.669-2.162,1.311,1.311,0,0,0,.067-1.11c-.247-.473-.908-.54-1.416-.514a16.418,16.418,0,0,0-5.863,1.864c-.389.176-.774.353-1.158.521a18.974,18.974,0,0,1-2.323.873c-.182.055-.369.106-.558.149a1.722,1.722,0,0,1-.015-.19q.253-.061.5-.136a18.729,18.729,0,0,0,2.32-.878c.384-.169.769-.345,1.153-.522a16.527,16.527,0,0,1,5.936-1.88,1.636,1.636,0,0,1,1.6.616,1.51,1.51,0,0,1-.057,1.28,5.2,5.2,0,0,1-1.739,2.25,8.9,8.9,0,0,1-2.775,1.246,34.55,34.55,0,0,1-3.607.851h0c-.635.12-1.263.221-1.87.308" transform="translate(-62.917 -106.754)" fill="#441c16"/>
        <g id="Grupo_1102725" data-name="Grupo 1102725" transform="translate(31.577 70.14)" opacity="0.39">
          <g id="Grupo_1102724" data-name="Grupo 1102724">
            <g id="Grupo_1102723" data-name="Grupo 1102723" clip-path="url(#clip-path-5)">
              <path id="Trazado_968918" data-name="Trazado 968918" d="M98.516,220.909c-.148-.037-.288-.081-.426-.129a7.689,7.689,0,0,1-3.158-1.859,2.251,2.251,0,0,1-.164-.175,4.94,4.94,0,0,1-1.191-2.24l-.052-.25c-.017-.094-.027-.183-.036-.277v0a1.719,1.719,0,0,1-.015-.19,4.845,4.845,0,0,1,.168-1.651,6.176,6.176,0,0,1,.888-1.887c.044-.067.092-.137.144-.2a11.56,11.56,0,0,1,7.021-4.152,12.746,12.746,0,0,1,5.617.043c.148.041.3.078.438.13a7.654,7.654,0,0,1,3.392,1.917,1.505,1.505,0,0,1,.179.185,5.1,5.1,0,0,1,.873,1.306c.049.1.093.207.133.311a4.973,4.973,0,0,1,.207.717.474.474,0,0,1,.011.077,1.748,1.748,0,0,1,.035.216,3.9,3.9,0,0,1,.047.434c.162,3.4-3.335,6.793-8.218,7.8a14.31,14.31,0,0,1-1.868.256c-.1.009-.19.014-.287.019a11.81,11.81,0,0,1-3.738-.394" transform="translate(-93.461 -207.6)" fill="#b65743"/>
            </g>
          </g>
        </g>
        <path id="Trazado_968919" data-name="Trazado 968919" d="M99.045,219.36a9.481,9.481,0,0,1-1.886-.748s0,0,0,0c-.091-.047-.177-.1-.267-.151h0a5.327,5.327,0,0,1-2.889-4.328c1.482-5.129,9.118-7.643,14.108-6.07,2.549.728,4.717,2.487,4.877,5.164-1.081,4.669-8.941,7.741-13.935,6.133" transform="translate(-62.238 -137.458)" fill="#621212"/>
        <path id="Trazado_968920" data-name="Trazado 968920" d="M96.625,216.343c.044-.067.092-.138.144-.2a8.1,8.1,0,0,0,1.3-.132,15.275,15.275,0,0,0,2.568-.805c.3-.114.6-.228.908-.333a17.591,17.591,0,0,1,6.51-1.073,13.163,13.163,0,0,1,6.237,1.773c.049.1.093.207.133.312-.049-.03-.1-.064-.154-.094a12.871,12.871,0,0,0-6.223-1.791,17.453,17.453,0,0,0-6.436,1.057c-.305.109-.6.224-.9.338a15.569,15.569,0,0,1-2.6.813,9.007,9.007,0,0,1-1.475.141" transform="translate(-63.979 -141.555)" fill="#441c16"/>
        <path id="Trazado_968921" data-name="Trazado 968921" d="M119.485,230.849c.446-.5.893-1.052,1.347-1.658.273-.354.544-.727.821-1.121.173-.253.35-.505.523-.758a24.848,24.848,0,0,1,2.144-2.813,7.593,7.593,0,0,1,3.745-2.382,3.584,3.584,0,0,1,1.71.007,1.813,1.813,0,0,1,.035.216,3.324,3.324,0,0,0-1.7-.025,7.368,7.368,0,0,0-3.647,2.321,24.069,24.069,0,0,0-2.125,2.791c-.173.253-.35.5-.523.758-.235.338-.472.66-.7.966-.454.61-.9,1.167-1.341,1.678-.1.009-.19.014-.287.019" transform="translate(-79.116 -147.007)" fill="#441c16"/>
        <path id="Trazado_968922" data-name="Trazado 968922" d="M94.956,228.26a2.244,2.244,0,0,1-.164-.175c.574-.083,1.162-.176,1.763-.284h0a34.809,34.809,0,0,0,3.82-.891,8.716,8.716,0,0,0,2.715-1.217,5.011,5.011,0,0,0,1.669-2.162,1.311,1.311,0,0,0,.067-1.11c-.247-.473-.908-.54-1.416-.514a16.419,16.419,0,0,0-5.863,1.864c-.389.176-.774.353-1.158.521a18.974,18.974,0,0,1-2.323.873c-.182.055-.369.106-.558.149a1.722,1.722,0,0,1-.015-.19q.253-.061.5-.136a18.725,18.725,0,0,0,2.32-.878c.384-.169.769-.345,1.153-.522a16.528,16.528,0,0,1,5.936-1.88,1.636,1.636,0,0,1,1.6.616,1.51,1.51,0,0,1-.057,1.28,5.2,5.2,0,0,1-1.739,2.25,8.9,8.9,0,0,1-2.775,1.246,34.542,34.542,0,0,1-3.607.851h0c-.635.12-1.263.221-1.87.308" transform="translate(-61.909 -146.799)" fill="#441c16"/>
        <path id="Trazado_968923" data-name="Trazado 968923" d="M296.9,49.627,299.8,9.671a7.4,7.4,0,0,0-6.88-8.006,7.26,7.26,0,0,0-7.527,8.3L291.2,49.8a7.757,7.757,0,0,1-4.567,8.3,21.733,21.733,0,1,0,15.58-.481,7.878,7.878,0,0,1-5.309-7.992" transform="translate(-180.969 -1.097)" fill="#621212"/>
        <g id="Grupo_1102728" data-name="Grupo 1102728" transform="translate(92.34 0.56)" opacity="0.81">
          <g id="Grupo_1102727" data-name="Grupo 1102727">
            <g id="Grupo_1102726" data-name="Grupo 1102726" clip-path="url(#clip-path-19)">
              <path id="Trazado_968924" data-name="Trazado 968924" d="M296.9,49.627,299.8,9.671a7.4,7.4,0,0,0-6.88-8.006,7.26,7.26,0,0,0-7.527,8.3L291.2,49.8a7.757,7.757,0,0,1-4.567,8.3,21.733,21.733,0,1,0,15.58-.481,7.878,7.878,0,0,1-5.309-7.992" transform="translate(-273.309 -1.657)" fill="#f5b274"/>
            </g>
          </g>
        </g>
        <g id="Grupo_1102731" data-name="Grupo 1102731" transform="translate(96.714 58.725)" opacity="0.39">
          <g id="Grupo_1102730" data-name="Grupo 1102730">
            <g id="Grupo_1102729" data-name="Grupo 1102729" clip-path="url(#clip-path-20)">
              <path id="Trazado_968925" data-name="Trazado 968925" d="M321.8,191.587a17.771,17.771,0,1,1-17.771-17.771A17.771,17.771,0,0,1,321.8,191.587" transform="translate(-286.257 -173.816)" fill="#b65743"/>
            </g>
          </g>
        </g>
        <path id="Trazado_968926" data-name="Trazado 968926" d="M307.992,187.792c-.13-.032-.253-.071-.375-.113a6.764,6.764,0,0,1-2.778-1.635,1.971,1.971,0,0,1-.145-.154,4.344,4.344,0,0,1-1.048-1.969l-.045-.22c-.016-.083-.024-.161-.032-.243v0a1.454,1.454,0,0,1-.013-.167,4.256,4.256,0,0,1,.148-1.453,5.421,5.421,0,0,1,.781-1.659c.039-.059.081-.121.126-.179a10.167,10.167,0,0,1,6.175-3.652,11.206,11.206,0,0,1,4.94.038c.13.036.26.068.385.115a6.723,6.723,0,0,1,2.983,1.686,1.311,1.311,0,0,1,.158.162,4.494,4.494,0,0,1,.768,1.148c.043.09.081.182.117.274a4.44,4.44,0,0,1,.182.63.528.528,0,0,1,.01.068,1.586,1.586,0,0,1,.031.19,3.441,3.441,0,0,1,.041.382c.142,2.987-2.933,5.974-7.227,6.859a12.605,12.605,0,0,1-1.643.225c-.086.008-.167.013-.252.017a10.392,10.392,0,0,1-3.287-.347" transform="translate(-200.99 -116.594)" fill="#441c16"/>
        <path id="Trazado_968927" data-name="Trazado 968927" d="M308.458,186.431c-.13-.036-.253-.071-.374-.117a7.625,7.625,0,0,1-1.285-.541s0,0,0,0c-.08-.041-.156-.085-.235-.132h0a5.1,5.1,0,0,1-2.185-2.318,1.61,1.61,0,0,1-.067-.155,3.821,3.821,0,0,1-.191-.611l-.045-.22a3.578,3.578,0,0,1-.052-.5,5.437,5.437,0,0,1,.781-1.659c.038-.059.081-.121.126-.179a10.165,10.165,0,0,1,6.175-3.652,11.2,11.2,0,0,1,4.94.038c.13.036.26.069.385.115a6.724,6.724,0,0,1,2.983,1.686,1.307,1.307,0,0,1,.157.162,4.494,4.494,0,0,1,.768,1.148c.043.09.081.182.117.274a4.48,4.48,0,0,1,.182.63.478.478,0,0,1,.01.068,1.592,1.592,0,0,1,.031.19,3.434,3.434,0,0,1,.041.382c-.671,2.486-3.434,4.747-7.072,5.5-.206.044-.415.08-.619.109q-.124.023-.247.035a10.781,10.781,0,0,1-4.317-.249" transform="translate(-201.302 -116.594)" fill="#621212"/>
        <path id="Trazado_968928" data-name="Trazado 968928" d="M306.329,183.776c.039-.059.081-.121.126-.179a7.136,7.136,0,0,0,1.141-.117,13.487,13.487,0,0,0,2.259-.708c.265-.1.53-.2.8-.293a15.476,15.476,0,0,1,5.725-.944,11.577,11.577,0,0,1,5.486,1.559c.043.09.081.182.117.274-.043-.026-.089-.056-.135-.082a11.321,11.321,0,0,0-5.473-1.575,15.345,15.345,0,0,0-5.66.93c-.268.1-.53.2-.795.3a13.7,13.7,0,0,1-2.291.715,7.929,7.929,0,0,1-1.3.124" transform="translate(-202.833 -120.196)" fill="#441c16"/>
        <path id="Trazado_968929" data-name="Trazado 968929" d="M326.434,196.534c.392-.442.786-.925,1.185-1.458.24-.311.478-.64.722-.986.152-.222.308-.444.46-.667a21.828,21.828,0,0,1,1.886-2.474,6.678,6.678,0,0,1,3.294-2.1,3.15,3.15,0,0,1,1.5.006,1.586,1.586,0,0,1,.031.19,2.926,2.926,0,0,0-1.5-.022,6.481,6.481,0,0,0-3.207,2.041,21.211,21.211,0,0,0-1.869,2.455c-.152.222-.308.444-.46.667-.206.3-.415.58-.618.849q-.6.8-1.18,1.476c-.085.008-.167.013-.252.017" transform="translate(-216.145 -124.99)" fill="#441c16"/>
        <path id="Trazado_968930" data-name="Trazado 968930" d="M304.861,194.257a1.9,1.9,0,0,1-.145-.154c.505-.073,1.022-.155,1.551-.25h0a30.611,30.611,0,0,0,3.36-.784,7.666,7.666,0,0,0,2.388-1.07,4.411,4.411,0,0,0,1.468-1.9,1.153,1.153,0,0,0,.058-.976c-.217-.416-.8-.475-1.245-.452a14.427,14.427,0,0,0-5.156,1.64c-.342.155-.68.31-1.018.458a16.623,16.623,0,0,1-2.043.768c-.16.049-.324.094-.491.131a1.468,1.468,0,0,1-.013-.167q.223-.054.437-.119a16.507,16.507,0,0,0,2.04-.772c.338-.148.676-.3,1.015-.459a14.531,14.531,0,0,1,5.221-1.653,1.439,1.439,0,0,1,1.411.541,1.328,1.328,0,0,1-.051,1.126,4.578,4.578,0,0,1-1.529,1.979,7.838,7.838,0,0,1-2.44,1.1,30.52,30.52,0,0,1-3.173.748h0c-.558.105-1.111.194-1.645.271" transform="translate(-201.012 -124.807)" fill="#441c16"/>
        <path id="Trazado_968931" data-name="Trazado 968931" d="M347.984,213.706c-.042-.128-.074-.252-.1-.378a6.755,6.755,0,0,1-.092-3.221,1.983,1.983,0,0,1,.053-.2,4.343,4.343,0,0,1,1.112-1.935l.162-.155c.062-.057.124-.106.189-.156l0,0a1.408,1.408,0,0,1,.135-.1,4.258,4.258,0,0,1,1.309-.647,5.426,5.426,0,0,1,1.82-.22c.071,0,.146,0,.219.012a10.166,10.166,0,0,1,6.376,3.288,11.2,11.2,0,0,1,2.594,4.2c.039.129.08.256.108.387a6.728,6.728,0,0,1,.158,3.423,1.3,1.3,0,0,1-.054.22,4.489,4.489,0,0,1-.564,1.261c-.053.084-.111.166-.171.245a4.379,4.379,0,0,1-.437.489.427.427,0,0,1-.052.045,1.733,1.733,0,0,1-.145.128,3.423,3.423,0,0,1-.3.238c-2.454,1.709-6.619.692-9.651-2.475a12.649,12.649,0,0,1-1.064-1.272c-.052-.068-.1-.135-.149-.2a10.376,10.376,0,0,1-1.453-2.968" transform="translate(-230.183 -136.853)" fill="#441c16"/>
        <path id="Trazado_968932" data-name="Trazado 968932" d="M351.646,213.113c-.039-.129-.074-.252-.1-.379a7.592,7.592,0,0,1-.225-1.376s0,0,0,0c-.008-.09-.011-.177-.013-.27l0,0a5.107,5.107,0,0,1,.8-3.083,1.541,1.541,0,0,1,.1-.14,3.773,3.773,0,0,1,.416-.486l.162-.155a3.557,3.557,0,0,1,.4-.311,5.433,5.433,0,0,1,1.82-.22c.071,0,.146,0,.219.012a10.17,10.17,0,0,1,6.376,3.289,11.207,11.207,0,0,1,2.594,4.2c.039.129.08.257.108.387a6.729,6.729,0,0,1,.158,3.423,1.322,1.322,0,0,1-.054.22,4.481,4.481,0,0,1-.564,1.261c-.053.084-.111.166-.17.245a4.405,4.405,0,0,1-.437.489.507.507,0,0,1-.052.045,1.687,1.687,0,0,1-.144.127,3.414,3.414,0,0,1-.3.238c-2.462.753-5.846-.385-8.417-3.067-.146-.151-.288-.308-.421-.466-.057-.062-.111-.125-.161-.191a10.77,10.77,0,0,1-2.084-3.789" transform="translate(-232.611 -136.852)" fill="#621212"/>
        <path id="Trazado_968933" data-name="Trazado 968933" d="M362.248,206.7c.071,0,.146,0,.219.011a7.131,7.131,0,0,0,.705.9,13.414,13.414,0,0,0,1.8,1.537c.226.171.452.343.673.52a15.475,15.475,0,0,1,3.843,4.347,11.577,11.577,0,0,1,1.6,5.475c-.053.083-.111.166-.17.245,0-.05,0-.105,0-.158a11.324,11.324,0,0,0-1.575-5.473,15.357,15.357,0,0,0-3.8-4.3c-.224-.176-.448-.344-.674-.515a13.71,13.71,0,0,1-1.824-1.561,7.959,7.959,0,0,1-.794-1.033" transform="translate(-239.859 -136.863)" fill="#441c16"/>
        <path id="Trazado_968934" data-name="Trazado 968934" d="M352.971,236.256c.582.1,1.2.174,1.865.228.391.038.8.065,1.218.088.269.01.54.025.809.035a21.833,21.833,0,0,1,3.1.282,6.678,6.678,0,0,1,3.526,1.676,3.148,3.148,0,0,1,.795,1.277,1.59,1.59,0,0,1-.145.128,2.926,2.926,0,0,0-.776-1.278,6.481,6.481,0,0,0-3.434-1.631,21.146,21.146,0,0,0-3.073-.278c-.269-.011-.54-.025-.809-.035-.362-.017-.712-.043-1.048-.072-.666-.053-1.292-.126-1.877-.215-.052-.068-.1-.135-.149-.2" transform="translate(-233.716 -156.435)" fill="#441c16"/>
        <path id="Trazado_968935" data-name="Trazado 968935" d="M348.089,211.816a1.984,1.984,0,0,1,.053-.2q.5.584,1.036,1.181l0,0a30.658,30.658,0,0,0,2.449,2.429,7.67,7.67,0,0,0,2.177,1.453,4.411,4.411,0,0,0,2.391.232,1.153,1.153,0,0,0,.858-.47c.237-.4-.022-.929-.279-1.3a14.437,14.437,0,0,0-4.13-3.5c-.313-.207-.624-.411-.929-.619a16.692,16.692,0,0,1-1.737-1.322c-.127-.11-.252-.225-.372-.346a1.5,1.5,0,0,1,.135-.1q.164.16.333.306a16.4,16.4,0,0,0,1.738,1.318c.305.207.617.411.928.615a14.538,14.538,0,0,1,4.176,3.543,1.439,1.439,0,0,1,.292,1.483,1.328,1.328,0,0,1-.98.555,4.574,4.574,0,0,1-2.489-.244,7.829,7.829,0,0,1-2.226-1.484,30.484,30.484,0,0,1-2.32-2.289v0c-.386-.417-.755-.838-1.1-1.249" transform="translate(-230.484 -138.562)" fill="#441c16"/>
        <path id="Trazado_968936" data-name="Trazado 968936" d="M300.7,231.781c-.042-.128-.074-.252-.1-.378a6.759,6.759,0,0,1-.092-3.221,1.985,1.985,0,0,1,.053-.2,4.343,4.343,0,0,1,1.112-1.935l.162-.155c.062-.057.124-.106.189-.157h0a1.456,1.456,0,0,1,.135-.1,4.26,4.26,0,0,1,1.309-.647,5.424,5.424,0,0,1,1.82-.22c.071,0,.146,0,.219.011a10.168,10.168,0,0,1,6.376,3.288,11.205,11.205,0,0,1,2.594,4.2c.038.129.08.256.108.387a6.729,6.729,0,0,1,.158,3.423,1.3,1.3,0,0,1-.054.22,4.5,4.5,0,0,1-.564,1.261c-.053.083-.111.166-.17.245a4.4,4.4,0,0,1-.437.489.46.46,0,0,1-.052.045,1.639,1.639,0,0,1-.145.128,3.414,3.414,0,0,1-.3.238c-2.454,1.709-6.619.692-9.651-2.475a12.572,12.572,0,0,1-1.064-1.272c-.052-.068-.1-.135-.149-.2a10.383,10.383,0,0,1-1.454-2.968" transform="translate(-198.873 -148.821)" fill="#441c16"/>
        <path id="Trazado_968937" data-name="Trazado 968937" d="M304.359,231.188c-.038-.129-.074-.252-.1-.379a7.618,7.618,0,0,1-.224-1.376s0,0,0,0c-.008-.09-.011-.177-.013-.27l0,0a5.1,5.1,0,0,1,.8-3.083,1.548,1.548,0,0,1,.1-.14,3.821,3.821,0,0,1,.415-.486l.162-.155a3.548,3.548,0,0,1,.4-.312,5.432,5.432,0,0,1,1.82-.22c.071,0,.146,0,.219.012a10.17,10.17,0,0,1,6.376,3.289,11.206,11.206,0,0,1,2.594,4.2c.039.129.08.257.108.387a6.729,6.729,0,0,1,.158,3.423,1.32,1.32,0,0,1-.054.22,4.49,4.49,0,0,1-.564,1.261c-.053.084-.111.166-.17.245a4.4,4.4,0,0,1-.437.489.545.545,0,0,1-.052.045,1.641,1.641,0,0,1-.145.127,3.363,3.363,0,0,1-.3.238c-2.462.753-5.846-.386-8.417-3.067-.146-.151-.288-.308-.421-.466-.057-.062-.111-.126-.161-.191a10.78,10.78,0,0,1-2.084-3.789" transform="translate(-201.3 -148.82)" fill="#621212"/>
        <path id="Trazado_968938" data-name="Trazado 968938" d="M314.96,224.773c.071,0,.146,0,.219.011a7.126,7.126,0,0,0,.705.9,13.406,13.406,0,0,0,1.8,1.537c.226.171.452.343.673.52a15.475,15.475,0,0,1,3.843,4.347,11.577,11.577,0,0,1,1.6,5.475c-.053.083-.111.166-.17.245,0-.05,0-.105,0-.158a11.323,11.323,0,0,0-1.575-5.473,15.357,15.357,0,0,0-3.8-4.3c-.224-.176-.448-.344-.674-.515a13.712,13.712,0,0,1-1.824-1.561,7.963,7.963,0,0,1-.794-1.033" transform="translate(-208.548 -148.831)" fill="#441c16"/>
        <path id="Trazado_968939" data-name="Trazado 968939" d="M305.683,254.331c.582.1,1.2.174,1.865.228.391.038.8.065,1.219.088.269.01.54.024.809.035a21.884,21.884,0,0,1,3.1.282,6.678,6.678,0,0,1,3.526,1.677,3.148,3.148,0,0,1,.795,1.277,1.591,1.591,0,0,1-.145.127,2.923,2.923,0,0,0-.776-1.278,6.478,6.478,0,0,0-3.434-1.631,21.148,21.148,0,0,0-3.073-.278c-.269-.011-.54-.025-.809-.035-.362-.017-.712-.043-1.048-.072-.666-.053-1.291-.126-1.877-.215-.052-.068-.1-.135-.149-.2" transform="translate(-202.405 -168.403)" fill="#441c16"/>
        <path id="Trazado_968940" data-name="Trazado 968940" d="M300.8,229.891a1.815,1.815,0,0,1,.053-.2q.5.584,1.036,1.181v0a30.717,30.717,0,0,0,2.45,2.429,7.666,7.666,0,0,0,2.177,1.453,4.409,4.409,0,0,0,2.39.232,1.154,1.154,0,0,0,.858-.47c.237-.4-.023-.929-.279-1.3a14.438,14.438,0,0,0-4.13-3.5c-.313-.207-.624-.411-.929-.619a16.7,16.7,0,0,1-1.737-1.322c-.127-.11-.251-.225-.372-.346a1.5,1.5,0,0,1,.135-.1q.164.16.333.306a16.392,16.392,0,0,0,1.738,1.318c.305.207.617.411.928.615a14.539,14.539,0,0,1,4.176,3.543,1.439,1.439,0,0,1,.291,1.483,1.326,1.326,0,0,1-.98.555,4.57,4.57,0,0,1-2.489-.243,7.83,7.83,0,0,1-2.226-1.484,30.405,30.405,0,0,1-2.32-2.289v0c-.386-.417-.755-.838-1.1-1.249" transform="translate(-199.173 -150.53)" fill="#441c16"/>
        <path id="Trazado_968941" data-name="Trazado 968941" d="M244.911,53.773c-.155-.039-.3-.084-.445-.134a8.023,8.023,0,0,1-3.3-1.941,2.331,2.331,0,0,1-.172-.183,5.159,5.159,0,0,1-1.244-2.338l-.054-.261c-.018-.1-.028-.192-.038-.289v0a1.781,1.781,0,0,1-.015-.2,5.05,5.05,0,0,1,.176-1.724,6.444,6.444,0,0,1,.927-1.97c.046-.07.1-.144.15-.213a12.069,12.069,0,0,1,7.331-4.336,13.3,13.3,0,0,1,5.865.045c.154.043.308.081.457.136a7.989,7.989,0,0,1,3.542,2,1.567,1.567,0,0,1,.187.193,5.342,5.342,0,0,1,.912,1.363c.051.106.1.216.138.325a5.226,5.226,0,0,1,.216.749.556.556,0,0,1,.012.081,1.982,1.982,0,0,1,.037.226,4.075,4.075,0,0,1,.049.453c.169,3.546-3.482,7.092-8.581,8.143a15.019,15.019,0,0,1-1.951.267c-.1.009-.2.015-.3.02a12.33,12.33,0,0,1-3.9-.411" transform="translate(-158.671 -26.404)" fill="#441c16"/>
        <path id="Trazado_968942" data-name="Trazado 968942" d="M245.465,52.158c-.154-.043-.3-.084-.444-.139a9.017,9.017,0,0,1-1.525-.642s0,0,0,0c-.095-.048-.185-.1-.279-.157h0a6.06,6.06,0,0,1-2.594-2.752,1.843,1.843,0,0,1-.079-.185,4.525,4.525,0,0,1-.227-.725l-.054-.261a4.263,4.263,0,0,1-.061-.6,6.443,6.443,0,0,1,.927-1.97c.046-.07.1-.144.15-.213A12.069,12.069,0,0,1,248.6,40.18a13.3,13.3,0,0,1,5.865.045c.154.043.309.081.457.136a7.99,7.99,0,0,1,3.541,2,1.543,1.543,0,0,1,.187.193,5.325,5.325,0,0,1,.912,1.363c.051.106.1.216.139.325a5.238,5.238,0,0,1,.216.748.525.525,0,0,1,.012.081,1.838,1.838,0,0,1,.037.226,4,4,0,0,1,.049.453c-.8,2.951-4.077,5.635-8.4,6.528-.245.052-.492.095-.735.13-.1.018-.2.032-.294.042a12.789,12.789,0,0,1-5.125-.3" transform="translate(-159.041 -26.404)" fill="#621212"/>
        <path id="Trazado_968943" data-name="Trazado 968943" d="M242.936,49.005c.046-.07.1-.144.15-.213a8.456,8.456,0,0,0,1.355-.139,15.973,15.973,0,0,0,2.682-.841c.315-.119.629-.238.947-.348a18.38,18.38,0,0,1,6.8-1.121,13.74,13.74,0,0,1,6.513,1.851c.051.106.1.216.139.325-.051-.031-.105-.066-.16-.1a13.438,13.438,0,0,0-6.5-1.87,18.231,18.231,0,0,0-6.72,1.1c-.319.115-.629.234-.944.353a16.259,16.259,0,0,1-2.72.849,9.422,9.422,0,0,1-1.54.147" transform="translate(-160.858 -30.68)" fill="#441c16"/>
        <path id="Trazado_968944" data-name="Trazado 968944" d="M266.8,64.151c.466-.524.933-1.1,1.406-1.731.285-.369.568-.76.857-1.17.181-.264.366-.527.546-.791a25.953,25.953,0,0,1,2.238-2.937,7.931,7.931,0,0,1,3.911-2.487,3.742,3.742,0,0,1,1.786.007,1.892,1.892,0,0,1,.037.226,3.472,3.472,0,0,0-1.775-.027A7.7,7.7,0,0,0,272,57.665a25.1,25.1,0,0,0-2.219,2.914c-.181.264-.366.527-.546.791-.245.353-.493.689-.734,1.008q-.711.954-1.4,1.752c-.1.009-.2.015-.3.02" transform="translate(-176.662 -36.371)" fill="#441c16"/>
        <path id="Trazado_968945" data-name="Trazado 968945" d="M241.194,61.448a2.331,2.331,0,0,1-.172-.183c.6-.086,1.213-.184,1.841-.3h0a36.389,36.389,0,0,0,3.989-.93,9.11,9.11,0,0,0,2.835-1.271,5.238,5.238,0,0,0,1.743-2.257,1.369,1.369,0,0,0,.069-1.16c-.257-.494-.948-.564-1.478-.537a17.126,17.126,0,0,0-6.121,1.946c-.406.184-.808.368-1.209.544a19.77,19.77,0,0,1-2.426.912c-.191.058-.385.111-.582.155a1.709,1.709,0,0,1-.015-.2q.265-.064.518-.142a19.547,19.547,0,0,0,2.422-.917c.4-.176.8-.36,1.2-.545a17.262,17.262,0,0,1,6.2-1.963,1.709,1.709,0,0,1,1.675.643,1.575,1.575,0,0,1-.06,1.336,5.43,5.43,0,0,1-1.816,2.349,9.286,9.286,0,0,1-2.9,1.3,36.207,36.207,0,0,1-3.766.889h0c-.663.125-1.319.23-1.953.321" transform="translate(-158.697 -36.154)" fill="#441c16"/>
        <path id="Trazado_968946" data-name="Trazado 968946" d="M391.322,127.848c-.081-.137-.151-.272-.218-.41a8.031,8.031,0,0,1-.945-3.708,2.329,2.329,0,0,1,.009-.251,5.157,5.157,0,0,1,.784-2.53l.148-.222c.057-.082.116-.155.178-.23l0,0a1.76,1.76,0,0,1,.13-.15,5.052,5.052,0,0,1,1.348-1.09,6.429,6.429,0,0,1,2.051-.729c.082-.017.17-.033.256-.044a12.073,12.073,0,0,1,8.241,2.15,13.3,13.3,0,0,1,4.1,4.2c.078.139.16.276.226.42a7.988,7.988,0,0,1,1.073,3.924,1.6,1.6,0,0,1-.005.269,5.335,5.335,0,0,1-.326,1.607c-.04.111-.085.221-.133.328a5.241,5.241,0,0,1-.379.68.6.6,0,0,1-.049.066,1.953,1.953,0,0,1-.134.185,4.055,4.055,0,0,1-.288.354c-2.4,2.617-7.487,2.523-11.824-.356a15.033,15.033,0,0,1-1.564-1.2c-.078-.066-.15-.13-.225-.2a12.326,12.326,0,0,1-2.457-3.06" transform="translate(-258.34 -78.385)" fill="#441c16"/>
        <path id="Trazado_968947" data-name="Trazado 968947" d="M395.1,126.841c-.078-.14-.151-.272-.215-.413a8.991,8.991,0,0,1-.618-1.535c-.006,0,0,0,0,0-.032-.1-.059-.2-.085-.309l0,0a6.061,6.061,0,0,1,.126-3.78,1.876,1.876,0,0,1,.075-.186,4.54,4.54,0,0,1,.354-.671l.148-.223a4.229,4.229,0,0,1,.38-.464,6.446,6.446,0,0,1,2.051-.729c.082-.017.17-.033.257-.044a12.072,12.072,0,0,1,8.241,2.15,13.307,13.307,0,0,1,4.1,4.2c.078.14.16.276.226.42a7.989,7.989,0,0,1,1.073,3.924,1.6,1.6,0,0,1-.005.269,5.336,5.336,0,0,1-.326,1.608c-.04.11-.085.221-.133.327a5.229,5.229,0,0,1-.379.68.569.569,0,0,1-.049.065,1.953,1.953,0,0,1-.134.185,4.053,4.053,0,0,1-.288.354c-2.656,1.513-6.872,1.075-10.548-1.363-.209-.137-.414-.283-.609-.43q-.123-.086-.237-.179a12.792,12.792,0,0,1-3.4-3.846" transform="translate(-260.843 -78.385)" fill="#621212"/>
        <path id="Trazado_968948" data-name="Trazado 968948" d="M403.928,118.719c.082-.017.17-.033.257-.044a8.422,8.422,0,0,0,1.052.864,15.962,15.962,0,0,0,2.485,1.312c.306.14.613.279.915.427a18.378,18.378,0,0,1,5.583,4.036,13.744,13.744,0,0,1,3.273,5.927c-.04.111-.085.221-.133.328-.014-.058-.027-.122-.044-.183a13.439,13.439,0,0,0-3.249-5.93,18.23,18.23,0,0,0-5.517-3.992c-.305-.146-.609-.282-.915-.422a16.261,16.261,0,0,1-2.518-1.333,9.419,9.419,0,0,1-1.189-.99" transform="translate(-267.457 -78.58)" fill="#441c16"/>
        <path id="Trazado_968949" data-name="Trazado 968949" d="M400.874,153.317c.7-.039,1.437-.112,2.219-.221.463-.058.939-.132,1.434-.216.315-.058.632-.112.946-.17a25.957,25.957,0,0,1,3.662-.479,7.929,7.929,0,0,1,4.52,1.024,3.74,3.74,0,0,1,1.253,1.273,1.927,1.927,0,0,1-.134.185,3.472,3.472,0,0,0-1.231-1.279,7.694,7.694,0,0,0-4.4-1,25.1,25.1,0,0,0-3.632.477c-.315.058-.632.112-.947.17-.423.074-.836.135-1.233.189-.786.112-1.529.19-2.23.24-.078-.066-.15-.13-.225-.2" transform="translate(-265.435 -100.794)" fill="#441c16"/>
        <path id="Trazado_968950" data-name="Trazado 968950" d="M390.16,127.574a2.327,2.327,0,0,1,.009-.251q.726.547,1.507,1.1l0,0a36.434,36.434,0,0,0,3.469,2.176,9.108,9.108,0,0,0,2.9,1.117,5.238,5.238,0,0,0,2.83-.353,1.371,1.371,0,0,0,.872-.767c.169-.531-.268-1.071-.66-1.428A17.128,17.128,0,0,0,395.4,126.2c-.417-.159-.83-.314-1.238-.475a19.778,19.778,0,0,1-2.356-1.08c-.175-.095-.35-.195-.521-.3a1.878,1.878,0,0,1,.13-.15q.232.143.466.268a19.589,19.589,0,0,0,2.357,1.074c.407.16.821.316,1.235.471a17.256,17.256,0,0,1,5.759,3.018,1.709,1.709,0,0,1,.724,1.642,1.575,1.575,0,0,1-.991.9,5.431,5.431,0,0,1-2.947.366,9.293,9.293,0,0,1-2.964-1.14,36.143,36.143,0,0,1-3.284-2.048l0,0c-.556-.382-1.093-.774-1.6-1.16" transform="translate(-258.34 -82.23)" fill="#441c16"/>
        <path id="Trazado_968951" data-name="Trazado 968951" d="M360.011,9.466c-.081-.137-.151-.272-.218-.41a8.026,8.026,0,0,1-.945-3.708,2.305,2.305,0,0,1,.009-.251,5.157,5.157,0,0,1,.784-2.53l.147-.222c.057-.082.116-.155.178-.23l0,0a1.813,1.813,0,0,1,.13-.15,5.055,5.055,0,0,1,1.348-1.09A6.438,6.438,0,0,1,363.5.143c.082-.017.17-.033.257-.044A12.071,12.071,0,0,1,372,2.249a13.3,13.3,0,0,1,4.1,4.2c.078.139.16.276.226.42a7.985,7.985,0,0,1,1.073,3.924,1.535,1.535,0,0,1-.005.269,5.326,5.326,0,0,1-.326,1.607c-.04.111-.085.221-.133.328a5.2,5.2,0,0,1-.379.68.573.573,0,0,1-.049.066,1.946,1.946,0,0,1-.134.185,4.065,4.065,0,0,1-.288.354c-2.4,2.617-7.487,2.523-11.824-.356a14.982,14.982,0,0,1-1.564-1.2c-.078-.066-.15-.13-.225-.2a12.332,12.332,0,0,1-2.457-3.06" transform="translate(-237.607 0)" fill="#441c16"/>
        <path id="Trazado_968952" data-name="Trazado 968952" d="M363.79,8.46c-.078-.14-.151-.272-.215-.413a9.022,9.022,0,0,1-.618-1.535c-.006,0,0,0,0,0-.032-.1-.059-.2-.085-.309l0,0a6.061,6.061,0,0,1,.126-3.78,1.874,1.874,0,0,1,.075-.186,4.543,4.543,0,0,1,.354-.671l.148-.223a4.234,4.234,0,0,1,.38-.464A6.438,6.438,0,0,1,366,.143c.082-.017.17-.033.256-.044A12.074,12.074,0,0,1,374.5,2.25a13.307,13.307,0,0,1,4.1,4.2c.078.14.16.276.226.42a7.99,7.99,0,0,1,1.073,3.924,1.568,1.568,0,0,1-.005.269,5.325,5.325,0,0,1-.326,1.608c-.039.11-.085.221-.133.327a5.221,5.221,0,0,1-.379.68.561.561,0,0,1-.049.065,1.894,1.894,0,0,1-.134.185,4.049,4.049,0,0,1-.288.354c-2.656,1.513-6.872,1.075-10.548-1.363-.209-.137-.414-.283-.609-.43q-.123-.086-.237-.179a12.8,12.8,0,0,1-3.4-3.847" transform="translate(-240.111 0)" fill="#621212"/>
        <path id="Trazado_968953" data-name="Trazado 968953" d="M372.616.338c.082-.017.17-.033.257-.044a8.4,8.4,0,0,0,1.052.864,15.933,15.933,0,0,0,2.485,1.312c.306.14.613.279.915.427a18.378,18.378,0,0,1,5.583,4.036,13.745,13.745,0,0,1,3.273,5.927c-.04.111-.086.221-.134.328-.014-.058-.027-.122-.044-.183a13.439,13.439,0,0,0-3.249-5.93,18.235,18.235,0,0,0-5.517-3.992c-.305-.146-.609-.282-.915-.422A16.264,16.264,0,0,1,373.8,1.327a9.416,9.416,0,0,1-1.189-.99" transform="translate(-246.724 -0.195)" fill="#441c16"/>
        <path id="Trazado_968954" data-name="Trazado 968954" d="M369.562,34.935c.7-.039,1.437-.111,2.219-.221.463-.058.939-.132,1.434-.216.315-.057.632-.112.946-.17a25.964,25.964,0,0,1,3.662-.479,7.929,7.929,0,0,1,4.52,1.024,3.74,3.74,0,0,1,1.253,1.273,1.932,1.932,0,0,1-.134.185,3.472,3.472,0,0,0-1.231-1.279,7.694,7.694,0,0,0-4.4-1,25.093,25.093,0,0,0-3.632.477c-.315.058-.632.112-.946.17-.423.074-.836.135-1.233.189-.786.112-1.529.19-2.23.24-.078-.066-.15-.13-.225-.2" transform="translate(-244.702 -22.409)" fill="#441c16"/>
        <path id="Trazado_968955" data-name="Trazado 968955" d="M358.848,9.192a2.328,2.328,0,0,1,.009-.251q.726.548,1.507,1.1l0,0a36.44,36.44,0,0,0,3.469,2.176,9.107,9.107,0,0,0,2.9,1.117,5.238,5.238,0,0,0,2.83-.353,1.37,1.37,0,0,0,.872-.767c.169-.531-.268-1.071-.661-1.428a17.128,17.128,0,0,0-5.693-2.974c-.417-.159-.83-.314-1.238-.475a19.779,19.779,0,0,1-2.356-1.08c-.175-.095-.35-.195-.521-.3a1.815,1.815,0,0,1,.13-.15q.232.143.466.268a19.589,19.589,0,0,0,2.357,1.074c.407.16.821.316,1.235.471a17.26,17.26,0,0,1,5.759,3.018,1.709,1.709,0,0,1,.724,1.642,1.575,1.575,0,0,1-.991.9,5.431,5.431,0,0,1-2.947.366,9.293,9.293,0,0,1-2.964-1.14,36.155,36.155,0,0,1-3.284-2.048l0,0c-.556-.382-1.093-.774-1.6-1.16" transform="translate(-237.607 -3.844)" fill="#441c16"/>
        <path id="Trazado_968956" data-name="Trazado 968956" d="M324.279,324.162c-.1.218-.2.433-.3.648-.25.534-.512,1.056-.782,1.584a33,33,0,0,1-8.878,11.02c-.214.17-.431.331-.656.49-.636.452-1.291.876-1.964,1.265a32.288,32.288,0,0,1-10.867,3.66c-.6.1-1.194.186-1.806.271l0,.007c-6.24.861-12.722.879-19.028,2.4-.283.072-.567.144-.859.221.186-.283.37-.559.552-.851a.021.021,0,0,1,.011-.011,28.16,28.16,0,0,0,3.65-8.576c.671-2.781.912-5.644,1.6-8.412a26.665,26.665,0,0,1,1.615-4.685l.009,0c.219-.508.447-1,.71-1.483l.009,0a33.652,33.652,0,0,1,9.2-10.939c.216-.177.439-.351.665-.517a38.532,38.532,0,0,1,5.774-3.577,45.257,45.257,0,0,1,8.644-3.274c.246-.071.48-.13.724-.194a66.561,66.561,0,0,1,18.534-1.763c-.083-.058.049-.035.225.033a1.562,1.562,0,0,1,.472.237.388.388,0,0,1,.1.189,1.152,1.152,0,0,1-.051.425q-1.172,3.882-2.335,7.76a107.518,107.518,0,0,1-4.956,14.077" transform="translate(-184.824 -199.564)" fill="#917d44"/>
        <path id="Trazado_968957" data-name="Trazado 968957" d="M331.62,302.061q-10.039,9.685-20.644,18.851l-.65.558,0-.009q-5.8,5.01-11.758,9.842c-.207.172-.412.338-.623.5q-5.025,4.072-10.159,8.009c-.24.183-.48.366-.727.547q-3.511,2.7-7.065,5.31c-.283.072-.567.144-.859.221.186-.283.37-.559.552-.851a.021.021,0,0,1,.011-.011q3.349-2.456,6.644-4.99c.229-.172.456-.337.678-.512q5.406-4.15,10.726-8.456c.214-.17.432-.353.657-.534q5.809-4.709,11.477-9.607c.252-.216.506-.439.76-.661q10.483-9.046,20.414-18.635a1.554,1.554,0,0,1,.472.237.387.387,0,0,1,.1.189" transform="translate(-184.824 -199.725)" fill="#621212"/>
        <path id="Trazado_968958" data-name="Trazado 968958" d="M384.207,328.356l-13.65-3.5,0-.005-.2-.048a.4.4,0,0,1-.154-.093.338.338,0,0,1-.106-.281l.014-.113,1.69-17.372c.242-.066.478-.127.719-.193l-1.654,16.908-.05.538.391.1,13.3,3.414c-.1.218-.2.431-.3.644" transform="translate(-245.053 -203.112)" fill="#621212"/>
        <path id="Trazado_968959" data-name="Trazado 968959" d="M348.32,354.767c-.216.169-.432.329-.658.489l-15.674-6.239a.1.1,0,0,1-.04-.019.232.232,0,0,1-.079-.059.321.321,0,0,1-.1-.226l-.023-.444-1.258-20.149c.221-.174.442-.349.667-.518L332.4,347.73l.045.72.119.048Z" transform="translate(-218.829 -216.918)" fill="#621212"/>
        <path id="Trazado_968960" data-name="Trazado 968960" d="M314.911,382.641c-.6.1-1.2.192-1.809.275l-.005,0-11.962-2.906-.475-.115a.422.422,0,0,1-.164-.093.3.3,0,0,1-.075-.113.455.455,0,0,1-.026-.143l.246-16.542,0-.005c.223-.505.452-1,.715-1.481l-.267,17.658v.1l.766.187Z" transform="translate(-198.904 -239.38)" fill="#621212"/>
        <path id="Trazado_968961" data-name="Trazado 968961" d="M9.383,10.016,11.756,11a.582.582,0,0,1,0,1.075l-2.373.986a3.337,3.337,0,0,0-1.8,1.8L6.6,17.239a.582.582,0,0,1-1.075,0l-.986-2.373a3.338,3.338,0,0,0-1.8-1.8L.359,12.078A.582.582,0,0,1,.359,11l2.373-.986a3.339,3.339,0,0,0,1.8-1.8L5.52,5.841a.582.582,0,0,1,1.075,0l.986,2.373a3.338,3.338,0,0,0,1.8,1.8" transform="translate(0 -3.63)" fill="#ffdbb3"/>
        <path id="Trazado_968962" data-name="Trazado 968962" d="M259.024,144.75l2.373.986a.582.582,0,0,1,0,1.075l-2.373.986a3.338,3.338,0,0,0-1.8,1.8l-.986,2.373a.582.582,0,0,1-1.075,0l-.986-2.373a3.339,3.339,0,0,0-1.8-1.8L250,146.812a.582.582,0,0,1,0-1.075l2.373-.986a3.34,3.34,0,0,0,1.8-1.8l.986-2.373a.582.582,0,0,1,1.075,0l.986,2.373a3.339,3.339,0,0,0,1.8,1.8" transform="translate(-165.297 -92.843)" fill="#ffdbb3"/>
        <path id="Trazado_968963" data-name="Trazado 968963" d="M412.88,59.08l2.373.986a.582.582,0,0,1,0,1.075l-2.373.986a3.337,3.337,0,0,0-1.8,1.8l-.986,2.373a.582.582,0,0,1-1.075,0l-.986-2.373a3.339,3.339,0,0,0-1.8-1.8l-2.373-.986a.582.582,0,0,1,0-1.075l2.373-.986a3.34,3.34,0,0,0,1.8-1.8l.986-2.373a.582.582,0,0,1,1.075,0l.986,2.373a3.338,3.338,0,0,0,1.8,1.8" transform="translate(-267.172 -36.117)" fill="#ffdbb3"/>
        <path id="Trazado_968964" data-name="Trazado 968964" d="M106.428,400.328l2.373.986a.582.582,0,0,1,0,1.075l-2.373.986a3.338,3.338,0,0,0-1.8,1.8l-.986,2.373a.582.582,0,0,1-1.075,0l-.986-2.373a3.338,3.338,0,0,0-1.8-1.8L97.4,402.39a.582.582,0,0,1,0-1.075l2.373-.986a3.34,3.34,0,0,0,1.8-1.8l.986-2.373a.582.582,0,0,1,1.075,0l.986,2.373a3.339,3.339,0,0,0,1.8,1.8" transform="translate(-64.257 -262.071)" fill="#ffdbb3"/>
        <path id="Trazado_968965" data-name="Trazado 968965" d="M413.119,403.564l2.373.986a.582.582,0,0,1,0,1.075l-2.373.986a3.337,3.337,0,0,0-1.8,1.8l-.986,2.373a.582.582,0,0,1-1.075,0l-.986-2.373a3.339,3.339,0,0,0-1.8-1.8l-2.373-.986a.582.582,0,0,1,0-1.075l2.373-.986a3.339,3.339,0,0,0,1.8-1.8l.986-2.373a.582.582,0,0,1,1.075,0l.986,2.373a3.337,3.337,0,0,0,1.8,1.8" transform="translate(-267.33 -264.214)" fill="#ffdbb3"/>
      </g>
    </g>
  </g>
</svg>
