<svg xmlns="http://www.w3.org/2000/svg" xmlns:xlink="http://www.w3.org/1999/xlink" width="190.118" height="200.458" viewBox="0 0 190.118 200.458">
  <defs>
    <clipPath id="clip-path">
      <rect id="Rectángulo_403286" data-name="Rectángulo 403286" width="190" height="174.416" transform="translate(53.429)" fill="none"/>
    </clipPath>
    <clipPath id="clip-path-2">
      <rect id="Rectángulo_403285" data-name="Rectángulo 403285" width="243.429" height="208.21" fill="none"/>
    </clipPath>
    <clipPath id="clip-path-3">
      <rect id="Rectángulo_403284" data-name="Rectángulo 403284" width="40.287" height="118.576" fill="none"/>
    </clipPath>
  </defs>
  <g id="Grupo_1102769" data-name="Grupo 1102769" transform="translate(-285.214 -2239.191)">
    <rect id="Rectángulo_401121" data-name="Rectángulo 401121" width="190.118" height="94.737" rx="10" transform="translate(285.214 2344.912)" fill="#ffd839"/>
    <g id="Grupo_1101952" data-name="Grupo 1101952" transform="translate(231.903 2239.191)">
      <g id="Grupo_1101951" data-name="Grupo 1101951" transform="translate(0 0)" clip-path="url(#clip-path)">
        <g id="Grupo_1101950" data-name="Grupo 1101950" transform="translate(0 -33.794)">
          <g id="Grupo_1101949" data-name="Grupo 1101949" clip-path="url(#clip-path-2)">
            <path id="Trazado_890926" data-name="Trazado 890926" d="M368.369,185.192V256.1L251.038,225.265l2.452-14.885.195-1.192,3.736-22.724.195-1.157,2.51-15.264.195-1.2,1.868-11.321,31.524,5.7,1.191.218s-5.122-4.332-13.8-15.379c-5.959-7.575-3.357-15.722-1.146-20.077a2.986,2.986,0,0,1,1.936-1.547,3.041,3.041,0,0,1,2.693.607c10.76,8.881,50.627,41.6,63.541,49.412a100.669,100.669,0,0,0,20.237,8.744" transform="translate(-124.941 -62.876)" fill="#b65743"/>
            <path id="Trazado_890927" data-name="Trazado 890927" d="M284.5,295.612a.38.38,0,0,1,0,.115.162.162,0,0,1-.023.069.577.577,0,0,1-.573.459.169.169,0,0,1-.08-.012l-.527-.069-27.376-3.7.194-1.191L283.4,294.97l.584.08a.61.61,0,0,1,.516.562" transform="translate(-127.371 -144.969)" fill="#621212"/>
            <path id="Trazado_890928" data-name="Trazado 890928" d="M309.879,273.684a.614.614,0,0,1-.579-.58,170.58,170.58,0,0,1,9.162-54.945.579.579,0,0,1,1.1.374,169.428,169.428,0,0,0-9.1,54.573.579.579,0,0,1-.579.578" transform="translate(-153.937 -108.382)" fill="#621212"/>
            <path id="Trazado_890929" data-name="Trazado 890929" d="M297.583,220.214a.578.578,0,0,1-.573.424.442.442,0,0,1-.172-.023l-.229-.069-27.48-8.388.195-1.2,27.64,8.434.229.069a.605.605,0,0,1,.39.757" transform="translate(-133.944 -104.991)" fill="#621212"/>
            <path id="Trazado_890930" data-name="Trazado 890930" d="M290.548,252.183a.574.574,0,0,1-.55.424h-.023a.692.692,0,0,1-.149-.023L263.745,244.9l.194-1.157,26.219,7.735a.087.087,0,0,1,.046.023.548.548,0,0,1,.344.688" transform="translate(-131.265 -121.307)" fill="#621212"/>
            <path id="Trazado_890931" data-name="Trazado 890931" d="M342.527,206.161a.58.58,0,0,1-.578-.54,83.275,83.275,0,0,0-4.109-19.07c-3.461-10.1-17.453-23.586-17.594-23.721-.483-.378-12.846-10.237-16.409-20.332a19.07,19.07,0,0,1,3.069-18.021.579.579,0,0,1,.87.765,17.883,17.883,0,0,0-2.847,16.871c3.451,9.777,15.951,19.746,16.077,19.845.625.6,14.376,13.855,17.93,24.218a84.555,84.555,0,0,1,4.17,19.369.58.58,0,0,1-.539.617h-.039" transform="translate(-150.68 -61.854)" fill="#621212"/>
            <path id="Trazado_890932" data-name="Trazado 890932" d="M230.977,200.541c.786,10.362-2.025,20.756-6.566,30.109q-1.555,3.16-3.335,6.212c-.291.511-.586,1-.888,1.5a190.076,190.076,0,0,1-12.942,18.229,72.484,72.484,0,0,1-5.005,5.691c-.236.266-.485.51-.728.778-2.815,2.913-5.738,5.776-8.338,8.8-.171.188-.341.384-.5.579a.718.718,0,0,1-.078.088c-.6-.37-1.183-.742-1.772-1.138-.221-.132-.445-.28-.668-.428-.485-.32-.969-.64-1.45-.978a100.8,100.8,0,0,1-11.94-9.47c-.01-.006-.01-.006,0-.015-.575-.528-1.137-1.066-1.677-1.617a.117.117,0,0,1-.02-.02c-7.129-7.034-12.87-15.287-15.908-24.793-3.858-12.1-2.953-25.431,1.243-37.415s11.537-22.7,20.234-31.949c1.2-1.277,2.421-2.519,3.64-3.775l0-.008c.387-.394.757-.792,1.145-1.185l.006-.009a55.832,55.832,0,0,0,6.684-8.211c.247-.373.468-.748.688-1.132.026-.03.035-.064.062-.093.151.106.295.222.444.32.18.132.355.274.544.413.862.63,1.747,1.248,2.637,1.856.227.163.452.319.684.465.3.2.6.409.906.605,2.719,1.823,5.488,3.579,8.163,5.427.3.2.609.416.9.622a50.278,50.278,0,0,1,11.458,10.423c6.682,8.754,11.538,19.147,12.385,30.124" transform="translate(-77.991 -74.796)" fill="#441c16"/>
            <g id="Grupo_1101948" data-name="Grupo 1101948" transform="translate(112.83 79.148)" opacity="0.26">
              <g id="Grupo_1101947" data-name="Grupo 1101947">
                <g id="Grupo_1101946" data-name="Grupo 1101946" clip-path="url(#clip-path-3)">
                  <path id="Trazado_890933" data-name="Trazado 890933" d="M264.782,204.167c.786,10.362-2.025,20.756-6.566,30.109q-1.555,3.16-3.335,6.212c-.291.511-.586,1-.888,1.5a190.071,190.071,0,0,1-12.942,18.229,72.483,72.483,0,0,1-5.005,5.691c-.236.266-.485.51-.728.778-2.815,2.913-5.738,5.776-8.338,8.8-.171.188-.341.384-.5.579a.725.725,0,0,1-.078.088c-.6-.37-1.183-.742-1.772-1.138,1.7-2.855,4.168-5.648,5.341-8.073,8.161-16.849,9.922-36.059,9.958-54.788.032-18.478-1.615-37.4-8.051-54.577,2.719,1.823,5.488,3.579,8.163,5.427.3.2.609.416.9.622A50.276,50.276,0,0,1,252.4,174.043c6.682,8.754,11.538,19.147,12.385,30.124" transform="translate(-224.626 -157.57)" fill="#621212"/>
                </g>
              </g>
            </g>
            <path id="Trazado_890934" data-name="Trazado 890934" d="M185.428,269.848c-.57-.53-1.137-1.069-1.677-1.621a.032.032,0,0,1-.016-.017c-3.877-6.244-6.613-13.9-8.193-22.852a95.8,95.8,0,0,1,9.827-61.432c1.01-1.9,2.116-3.821,3.187-5.677,1.5-2.607,3.036-5.259,4.382-7.972l0-.01c.384-.394.759-.792,1.144-1.185-1.5,3.238-3.3,6.351-5.078,9.429-1.067,1.846-2.172,3.766-3.189,5.654a95.351,95.351,0,0,0-9.765,61.1c1.723,9.818,4.863,18.058,9.374,24.58" transform="translate(-86.66 -84.152)" fill="#b65743"/>
            <path id="Trazado_890935" data-name="Trazado 890935" d="M207.6,271.045c-.485-.32-.97-.64-1.448-.979a69.073,69.073,0,0,1-14.274-37.783c-.984-16.694,4.229-32.988,9.258-48.745,3.325-10.394,6.745-21.094,8.418-31.938.243-.371.466-.749.69-1.128-1.609,11.31-5.16,22.436-8.615,33.222-5.024,15.715-10.219,31.961-9.23,48.557a68.54,68.54,0,0,0,15.2,38.793" transform="translate(-95.436 -74.889)" fill="#b65743"/>
            <path id="Trazado_890936" data-name="Trazado 890936" d="M228.365,272.168c-.172.188-.339.39-.5.582-.886-20.508-.286-41.25.3-61.4.573-19.812,1.172-40.267.33-60.426.18.136.36.272.55.411.793,20.029.2,40.354-.367,60.035-.57,19.946-1.17,40.489-.308,60.8" transform="translate(-113.183 -75.113)" fill="#b65743"/>
            <path id="Trazado_890937" data-name="Trazado 890937" d="M241.658,264.847c-.244.26-.485.51-.729.77a287.106,287.106,0,0,0,6.538-31.943c2.446-17.983,1.927-33.59-1.6-47.7-1.488-5.953-3.581-11.83-5.6-17.523-1.515-4.249-3.058-8.6-4.367-13.008q.337.246.685.464c1.259,4.194,2.731,8.325,4.171,12.367,2.026,5.707,4.121,11.607,5.615,17.574,3.537,14.181,4.066,29.847,1.613,47.9a286.454,286.454,0,0,1-6.322,31.1" transform="translate(-117.405 -77.362)" fill="#b65743"/>
            <path id="Trazado_890938" data-name="Trazado 890938" d="M270.145,245.864c-.286.51-.587,1-.887,1.5.887-3.587,1.59-7.046,2.131-10.456,2.087-13.152,1.618-25.331-1.4-36.19-2.6-9.349-7.221-18.116-11.687-26.59-.994-1.9-2.012-3.82-3-5.752.307.207.615.414.908.627.849,1.645,1.7,3.27,2.555,4.882,4.479,8.5,9.113,17.285,11.725,26.693,3.04,10.935,3.516,23.183,1.409,36.415-.459,2.911-1.037,5.842-1.754,8.875" transform="translate(-127.062 -83.798)" fill="#b65743"/>
            <path id="Trazado_890939" data-name="Trazado 890939" d="M106.209,114.93c.759-6.092-1.165-12.224-3.843-17.748s-6.121-10.655-8.712-16.22a60.256,60.256,0,0,1,2.59-54.937c13.942,8.98,22.343,24.761,23.677,41.291s-4.778,33.644-13.712,47.615" transform="translate(-43.921 -12.952)" fill="#917d44"/>
            <path id="Trazado_890940" data-name="Trazado 890940" d="M107.651,175.59a148.189,148.189,0,0,0,6.267-78.851.57.57,0,0,1,1.114-.242,151.1,151.1,0,0,1-2.945,80.61,2.344,2.344,0,1,1-4.435-1.516" transform="translate(-53.505 -47.809)" fill="#621212"/>
            <path id="Trazado_890941" data-name="Trazado 890941" d="M287.9,72.423c5.578-2.564,12.005-2.582,18.08-1.7s12.007,2.615,18.095,3.406a60.259,60.259,0,0,0,51.589-19.063c-12.772-10.578-30.353-13.82-46.514-10.1S298.524,59.686,287.9,72.423" transform="translate(-143.289 -21.642)" fill="#917d44"/>
            <path id="Trazado_890942" data-name="Trazado 890942" d="M237.29,97.653A151.094,151.094,0,0,1,313.245,70.5a.57.57,0,0,1,.106,1.135,148.194,148.194,0,0,0-73.276,29.791,2.344,2.344,0,1,1-2.785-3.77" transform="translate(-117.598 -35.086)" fill="#621212"/>
            <path id="Trazado_890943" data-name="Trazado 890943" d="M159.421,0c-4.137,11.379-8.5,22.689-12.846,34-5.019,13.018-10.268,26.425-20.019,36.544-6.394,6.635-14.438,11.551-20.821,18.2A78.53,78.53,0,0,0,97.3,99.466c-.3.435-.6.882-.883,1.318-2.658,3.965-5.191,8.022-7.987,11.883-6.658,9.2-14.7,17.177-23.24,24.717-.309.286-.619.562-.94.825-7.162,6.291-14.645,12.3-21.933,18.484-.344.275-.676.561-1.009.848a227.38,227.38,0,0,0-17.865,16.627c-7.689,8.113-14.7,16.776-22.2,24.958v.012c-.309.344-.619.688-.928,1.02-.115.115-.218.23-.321.344V171.2c5.821-4.549,11.425-9.419,16.96-14.244C29.175,146.3,41.425,135.62,53.022,124.321c.986-.951,1.971-1.925,2.945-2.888,5.8-5.752,11.413-11.666,16.765-17.819,7.288-8.388,14.118-17.246,22.6-24.465,4.687-4,9.832-7.449,14.381-11.586,14.576-13.3,21.7-32.475,28.339-50.89q3.008-8.336,6-16.673Z" fill="#621212"/>
            <path id="Trazado_890944" data-name="Trazado 890944" d="M200.452,0c-3.931,19.16-10.508,41.758-24.534,59.508C170.967,65.776,165.134,71.4,159.5,76.846c-16.994,16.4-34.526,33.3-53.938,47.476.986-.951,1.971-1.925,2.945-2.888,18.094-13.637,34.584-29.554,50.593-45,5.626-5.432,11.448-11.047,16.375-17.281C189.394,41.529,195.937,19.068,199.856,0Z" transform="translate(-52.536)" fill="#f5b274"/>
            <path id="Trazado_890945" data-name="Trazado 890945" d="M41.709,312.191l.928-.241c-.344.275-.676.562-1.009.848-2.647.711-5.352,1.433-7.884,2.395-9.408,3.552-18,11.139-24.2,21.36a86.659,86.659,0,0,0-7.976,17.831v.011c-.309.344-.619.688-.928,1.02a88.6,88.6,0,0,1,8.423-19.148c6.257-10.336,14.954-18.014,24.477-21.612a83.74,83.74,0,0,1,8.17-2.464" transform="translate(-0.318 -155.256)" fill="#f5b274"/>
            <path id="Trazado_890946" data-name="Trazado 890946" d="M158.9,199.452c.688-.481,1.375-.962,2.062-1.433-.3.436-.6.883-.882,1.318-.287.183-.562.389-.848.584-9.156,6.486-22.071,16.753-28.4,31.078-.665,1.524-1.283,3.128-1.879,4.675-.035.091-.069.172-.1.264-.309.286-.619.561-.939.825.172-.435.344-.859.5-1.295.608-1.558,1.215-3.162,1.9-4.7,6.371-14.45,19.366-24.8,28.579-31.318" transform="translate(-63.663 -98.553)" fill="#f5b274"/>
            <path id="Trazado_890947" data-name="Trazado 890947" d="M153.966,0c-1.478,4.423-2.521,9.041-3.552,13.568-.722,3.2-1.467,6.509-2.361,9.706a100.711,100.711,0,0,1-26.746,45.161c-2.784,2.716-5.775,5.317-8.675,7.827a145.336,145.336,0,0,0-12.043,11.31c-2.452,2.693-4.721,5.615-6.922,8.434-1.707,2.2-3.472,4.469-5.317,6.623-6.039,7.047-13.178,13.2-20.077,19.148L50.5,137.075c-17.773,15.31-36.073,31.054-50.5,50v-.94C14.393,167.408,32.51,151.8,50.123,136.64l17.773-15.3c6.887-5.936,14.015-12.066,20.019-19.091,1.833-2.143,3.6-4.4,5.306-6.589,2.2-2.842,4.481-5.764,6.944-8.468a143.1,143.1,0,0,1,12.1-11.368c2.888-2.5,5.867-5.088,8.652-7.8A100.33,100.33,0,0,0,147.5,23.114c.883-3.175,1.639-6.475,2.361-9.672,1.009-4.481,2.051-9.041,3.5-13.442Z" fill="#f5b274"/>
            <path id="Trazado_890948" data-name="Trazado 890948" d="M70.652,329.329c5.968-1.437,12.278-.213,18.067,1.83s11.274,4.888,17.095,6.84a60.257,60.257,0,0,0,54.3-8.73c-10.486-12.848-27.109-19.428-43.684-18.9s-32.9,8.518-45.778,18.961" transform="translate(-35.163 -154.454)" fill="#917d44"/>
            <path id="Trazado_890949" data-name="Trazado 890949" d="M22.254,347.934a140.8,140.8,0,0,1,76.657-11.375.57.57,0,0,1-.116,1.134,137.826,137.826,0,0,0-74.538,14.479,2.344,2.344,0,1,1-2-4.238" transform="translate(-10.383 -166.896)" fill="#621212"/>
            <path id="Trazado_890950" data-name="Trazado 890950" d="M15.059,85.957c-.131-.219-.242-.436-.349-.657a12.83,12.83,0,0,1-1.51-5.928,3.589,3.589,0,0,1,.014-.4,8.252,8.252,0,0,1,1.253-4.045l.236-.356c.091-.131.185-.248.285-.369l.005,0a2.859,2.859,0,0,1,.208-.241,8.078,8.078,0,0,1,2.155-1.743,10.3,10.3,0,0,1,3.28-1.165c.131-.027.271-.053.41-.07,3.948-.609,8.8.532,13.177,3.438a21.275,21.275,0,0,1,6.554,6.708c.125.223.255.442.361.672a12.772,12.772,0,0,1,1.716,6.275,2.473,2.473,0,0,1-.008.429,8.524,8.524,0,0,1-.521,2.57c-.063.177-.136.353-.213.523a8.372,8.372,0,0,1-.606,1.088.918.918,0,0,1-.079.1,2.938,2.938,0,0,1-.215.3,6.423,6.423,0,0,1-.46.566c-3.835,4.185-11.971,4.035-18.906-.57a23.865,23.865,0,0,1-2.5-1.914c-.125-.1-.24-.208-.36-.317a19.716,19.716,0,0,1-3.928-4.893" transform="translate(-6.569 -35.247)" fill="#441c16"/>
            <path id="Trazado_890951" data-name="Trazado 890951" d="M19.122,84.347c-.125-.223-.242-.435-.344-.661a14.443,14.443,0,0,1-.988-2.455c-.01,0,0-.005,0-.005-.052-.162-.094-.323-.136-.494l0-.006a9.689,9.689,0,0,1,.2-6.043,3.08,3.08,0,0,1,.121-.3,7.264,7.264,0,0,1,.567-1.073l.236-.356a6.772,6.772,0,0,1,.608-.742,10.311,10.311,0,0,1,3.28-1.165c.131-.027.271-.053.41-.07,3.948-.608,8.8.532,13.177,3.438A21.274,21.274,0,0,1,42.8,81.125c.125.223.255.442.361.672a12.77,12.77,0,0,1,1.716,6.274,2.479,2.479,0,0,1-.008.43,8.521,8.521,0,0,1-.521,2.57c-.063.177-.136.353-.213.524a8.35,8.35,0,0,1-.607,1.088.915.915,0,0,1-.078.1,3.17,3.17,0,0,1-.215.3,6.347,6.347,0,0,1-.46.566c-4.246,2.419-10.988,1.718-16.865-2.179-.334-.219-.662-.452-.974-.688q-.2-.137-.378-.286a20.462,20.462,0,0,1-5.436-6.15" transform="translate(-8.592 -35.247)" fill="#621212"/>
            <path id="Trazado_890952" data-name="Trazado 890952" d="M28.007,71.206c.131-.027.271-.053.41-.07A13.555,13.555,0,0,0,30.1,72.518a25.51,25.51,0,0,0,3.974,2.1c.49.224.979.447,1.462.684a29.386,29.386,0,0,1,8.926,6.453A21.977,21.977,0,0,1,49.7,91.228c-.063.177-.136.353-.213.524-.023-.093-.044-.194-.07-.292a21.489,21.489,0,0,0-5.195-9.482A29.154,29.154,0,0,0,35.4,75.594c-.488-.233-.973-.451-1.463-.674a26.016,26.016,0,0,1-4.027-2.132,15.038,15.038,0,0,1-1.9-1.582" transform="translate(-13.939 -35.404)" fill="#441c16"/>
            <path id="Trazado_890953" data-name="Trazado 890953" d="M24.722,108.964c1.12-.062,2.3-.178,3.548-.353.74-.093,1.5-.211,2.294-.345.5-.092,1.01-.179,1.513-.271a41.521,41.521,0,0,1,5.855-.767,12.68,12.68,0,0,1,7.228,1.639,5.981,5.981,0,0,1,2,2.035,3.168,3.168,0,0,1-.215.3,5.547,5.547,0,0,0-1.969-2.045,12.3,12.3,0,0,0-7.039-1.593,40.155,40.155,0,0,0-5.807.764c-.5.092-1.01.179-1.513.271-.677.119-1.337.217-1.972.3-1.256.178-2.445.3-3.566.384-.125-.1-.241-.208-.36-.317" transform="translate(-12.304 -53.361)" fill="#441c16"/>
            <path id="Trazado_890954" data-name="Trazado 890954" d="M13.2,82.48a3.836,3.836,0,0,1,.014-.4q1.16.875,2.41,1.756l0,.005a58.168,58.168,0,0,0,5.548,3.48,14.558,14.558,0,0,0,4.635,1.787,8.37,8.37,0,0,0,4.525-.564,2.192,2.192,0,0,0,1.394-1.227c.27-.848-.427-1.712-1.056-2.283-2.549-2.307-5.879-3.557-9.1-4.756-.666-.254-1.327-.5-1.979-.759a31.572,31.572,0,0,1-3.767-1.727c-.28-.151-.56-.312-.832-.486a2.769,2.769,0,0,1,.208-.24q.371.228.744.428a31.291,31.291,0,0,0,3.768,1.717c.651.257,1.313.505,1.975.754,3.25,1.212,6.613,2.469,9.208,4.825.7.632,1.472,1.608,1.157,2.626a2.518,2.518,0,0,1-1.584,1.437,8.686,8.686,0,0,1-4.712.585,14.863,14.863,0,0,1-4.74-1.823,57.924,57.924,0,0,1-5.25-3.275l0-.005c-.889-.611-1.747-1.238-2.564-1.855" transform="translate(-6.569 -38.355)" fill="#441c16"/>
            <path id="Trazado_890955" data-name="Trazado 890955" d="M420.749,115.045c.234-.1.464-.182.7-.258a12.832,12.832,0,0,1,6.077-.705,3.651,3.651,0,0,1,.4.068,8.246,8.246,0,0,1,3.842,1.783l.32.281c.118.107.221.216.328.332l0,.006a2.805,2.805,0,0,1,.21.239,8.081,8.081,0,0,1,1.439,2.369,10.31,10.31,0,0,1,.717,3.406c.01.134.017.276.015.416.075,3.994-1.7,8.651-5.168,12.6a21.266,21.266,0,0,1-7.523,5.6c-.238.094-.472.194-.714.268a12.775,12.775,0,0,1-6.448.862,2.458,2.458,0,0,1-.424-.066,8.515,8.515,0,0,1-2.477-.859c-.167-.086-.332-.182-.491-.281a8.376,8.376,0,0,1-1-.746.847.847,0,0,1-.093-.091,3.118,3.118,0,0,1-.265-.253,6.459,6.459,0,0,1-.5-.531c-3.636-4.36-2.4-12.4,3.09-18.661a23.915,23.915,0,0,1,2.231-2.222c.12-.11.239-.21.362-.314a19.717,19.717,0,0,1,5.374-3.239" transform="translate(-202.873 -56.722)" fill="#441c16"/>
            <path id="Trazado_890956" data-name="Trazado 890956" d="M423.387,119.5c.238-.094.464-.182.7-.252a14.48,14.48,0,0,1,2.564-.651c0-.009.006,0,.006,0,.167-.03.333-.05.507-.069l.006,0a9.692,9.692,0,0,1,5.962,1.008,3.09,3.09,0,0,1,.279.159,7.191,7.191,0,0,1,.988.705l.321.281a6.759,6.759,0,0,1,.654.7,10.308,10.308,0,0,1,.717,3.406c.009.134.017.276.014.416.076,3.994-1.7,8.652-5.168,12.6a21.264,21.264,0,0,1-7.524,5.6c-.238.094-.472.194-.714.268a12.769,12.769,0,0,1-6.448.862,2.5,2.5,0,0,1-.425-.065,8.535,8.535,0,0,1-2.477-.86c-.167-.086-.332-.182-.49-.281a8.389,8.389,0,0,1-1-.746.941.941,0,0,1-.093-.092,3.138,3.138,0,0,1-.265-.253,6.327,6.327,0,0,1-.5-.531c-1.83-4.532-.235-11.12,4.413-16.423.262-.3.536-.595.811-.874q.162-.177.334-.337a20.455,20.455,0,0,1,6.821-4.566" transform="translate(-204.188 -58.943)" fill="#621212"/>
            <path id="Trazado_890957" data-name="Trazado 890957" d="M438.665,131.08c.01.134.017.276.015.416a13.454,13.454,0,0,0-1.594,1.483,25.508,25.508,0,0,0-2.609,3.658c-.287.456-.574.911-.873,1.358a29.38,29.38,0,0,1-7.587,7.985,21.977,21.977,0,0,1-10.091,3.92c-.167-.086-.332-.182-.491-.281.095-.01.2-.017.3-.03a21.485,21.485,0,0,0,10.091-3.881,29.138,29.138,0,0,0,7.5-7.889c.3-.453.577-.9.864-1.36a25.962,25.962,0,0,1,2.65-3.706,15.1,15.1,0,0,1,1.822-1.672" transform="translate(-206.76 -65.238)" fill="#441c16"/>
            <path id="Trazado_890958" data-name="Trazado 890958" d="M417.919,122.558c-.088,1.118-.13,2.3-.125,3.564-.007.745.009,1.516.035,2.319.024.511.043,1.025.066,1.536a41.381,41.381,0,0,1-.022,5.905,12.681,12.681,0,0,1-2.589,6.944A5.984,5.984,0,0,1,413,144.539a3.115,3.115,0,0,1-.265-.253,5.553,5.553,0,0,0,2.289-1.678,12.307,12.307,0,0,0,2.519-6.764,40.21,40.21,0,0,0,.02-5.857c-.024-.511-.043-1.025-.067-1.536-.027-.686-.036-1.353-.036-1.994-.009-1.269.026-2.463.1-3.586.12-.109.238-.21.362-.314" transform="translate(-205.417 -60.997)" fill="#441c16"/>
            <path id="Trazado_890959" data-name="Trazado 890959" d="M438.393,114.193a3.77,3.77,0,0,1,.395.067q-1.022,1.033-2.062,2.154l-.006,0a58.228,58.228,0,0,0-4.19,5.033,14.554,14.554,0,0,0-2.39,4.355,8.376,8.376,0,0,0-.046,4.56,2.19,2.19,0,0,0,1.03,1.545c.8.382,1.753-.195,2.4-.741,2.627-2.218,4.31-5.352,5.929-8.386.341-.626.675-1.249,1.017-1.86a31.552,31.552,0,0,1,2.215-3.5c.187-.258.384-.513.593-.76a2.711,2.711,0,0,1,.21.238q-.276.338-.524.681a31.28,31.28,0,0,0-2.206,3.5c-.342.611-.676,1.234-1.011,1.856-1.635,3.06-3.331,6.225-6.012,8.481-.72.611-1.79,1.243-2.757.8a2.518,2.518,0,0,1-1.212-1.762,8.685,8.685,0,0,1,.05-4.748,14.861,14.861,0,0,1,2.44-4.454,57.987,57.987,0,0,1,3.947-4.766l.006,0c.724-.8,1.46-1.566,2.18-2.293" transform="translate(-213.742 -56.833)" fill="#441c16"/>
            <path id="Trazado_890960" data-name="Trazado 890960" d="M288.323,387.9c-.218-.132-.418-.271-.616-.415a12.839,12.839,0,0,1-4.121-4.521,3.856,3.856,0,0,1-.176-.36,8.249,8.249,0,0,1-.8-4.16l.041-.425c.019-.158.047-.306.078-.459l0-.006a2.834,2.834,0,0,1,.071-.31,8.089,8.089,0,0,1,1.082-2.552,10.287,10.287,0,0,1,2.347-2.571c.1-.085.214-.175.329-.255,3.2-2.394,8.018-3.67,13.246-3.163a21.263,21.263,0,0,1,8.939,2.838c.215.138.433.27.634.423a12.774,12.774,0,0,1,4.465,4.73,2.512,2.512,0,0,1,.195.383,8.53,8.53,0,0,1,.749,2.513c.027.186.046.376.058.563a8.407,8.407,0,0,1-.024,1.245.9.9,0,0,1-.02.129,3.134,3.134,0,0,1-.05.363,6.446,6.446,0,0,1-.14.715c-1.416,5.5-8.667,9.191-16.952,8.389a23.89,23.89,0,0,1-3.107-.513c-.159-.034-.31-.071-.467-.11a19.712,19.712,0,0,1-5.768-2.471" transform="translate(-140.644 -183.449)" fill="#441c16"/>
            <path id="Trazado_890961" data-name="Trazado 890961" d="M290.4,385.523c-.215-.138-.418-.271-.614-.421a14.472,14.472,0,0,1-2.026-1.7c-.009,0-.006,0-.006,0-.122-.118-.236-.241-.352-.372l-.006,0a9.689,9.689,0,0,1-2.664-5.428,3.022,3.022,0,0,1-.034-.32,7.255,7.255,0,0,1,0-1.214l.041-.425a6.755,6.755,0,0,1,.187-.941,10.306,10.306,0,0,1,2.347-2.571c.1-.086.214-.175.329-.255,3.2-2.393,8.017-3.669,13.246-3.163a21.274,21.274,0,0,1,8.938,2.838c.215.138.433.27.634.423a12.769,12.769,0,0,1,4.465,4.73,2.516,2.516,0,0,1,.195.383,8.52,8.52,0,0,1,.749,2.513c.028.186.046.376.058.563a8.341,8.341,0,0,1-.024,1.245.831.831,0,0,1-.02.129,3.122,3.122,0,0,1-.05.363,6.4,6.4,0,0,1-.14.715c-2.61,4.133-8.889,6.685-15.908,6.009-.4-.037-.8-.088-1.183-.149-.159-.019-.314-.044-.468-.075a20.454,20.454,0,0,1-7.69-2.871" transform="translate(-141.681 -183.449)" fill="#621212"/>
            <path id="Trazado_890962" data-name="Trazado 890962" d="M289.847,375.367c.1-.085.214-.175.329-.255a13.489,13.489,0,0,0,2.135.428,25.516,25.516,0,0,0,4.493-.019c.537-.033,1.074-.066,1.612-.084a29.377,29.377,0,0,1,10.913,1.5,21.969,21.969,0,0,1,9.075,5.9c.028.186.046.375.058.563-.063-.071-.13-.151-.2-.225a21.488,21.488,0,0,0-9.043-5.925,29.149,29.149,0,0,0-10.787-1.485c-.54.025-1.071.06-1.608.093a26.038,26.038,0,0,1-4.556.013,15.1,15.1,0,0,1-2.421-.5" transform="translate(-144.256 -186.692)" fill="#441c16"/>
            <path id="Trazado_890963" data-name="Trazado 890963" d="M305.487,402.323c.959-.581,1.943-1.238,2.966-1.98.609-.43,1.226-.893,1.862-1.383.4-.318.807-.633,1.208-.951a41.458,41.458,0,0,1,4.806-3.43,12.68,12.68,0,0,1,7.149-1.953,5.978,5.978,0,0,1,2.725.854,3.126,3.126,0,0,1-.05.363,5.551,5.551,0,0,0-2.7-.879,12.3,12.3,0,0,0-6.96,1.905,40.147,40.147,0,0,0-4.766,3.4c-.4.318-.807.633-1.207.951-.542.423-1.078.819-1.6,1.193-1.025.748-2.015,1.418-2.967,2.016-.16-.034-.31-.071-.467-.111" transform="translate(-152.04 -195.398)" fill="#441c16"/>
            <path id="Trazado_890964" data-name="Trazado 890964" d="M283.73,390.505a3.659,3.659,0,0,1-.176-.36q1.435.227,2.953.416l.006,0a58.19,58.19,0,0,0,6.533.462,14.552,14.552,0,0,0,4.931-.6A8.37,8.37,0,0,0,301.7,387.8a2.191,2.191,0,0,0,.654-1.738c-.16-.876-1.182-1.31-2.006-1.518-3.334-.838-6.861-.374-10.27.084-.707.089-1.408.181-2.1.261a31.5,31.5,0,0,1-4.136.248c-.319,0-.641-.012-.963-.038a2.841,2.841,0,0,1,.07-.31q.435.027.859.028a31.3,31.3,0,0,0,4.133-.256c.7-.08,1.4-.172,2.1-.264,3.438-.46,7-.931,10.4-.072.916.228,2.054.726,2.256,1.773a2.52,2.52,0,0,1-.723,2.013,8.682,8.682,0,0,1-3.883,2.732,14.847,14.847,0,0,1-5.04.621,57.961,57.961,0,0,1-6.174-.42l-.006,0c-1.071-.122-2.124-.271-3.135-.431" transform="translate(-140.788 -190.988)" fill="#441c16"/>
            <path id="Trazado_890965" data-name="Trazado 890965" d="M207.326,39.772l4.849,2.015a1.19,1.19,0,0,1,0,2.2L207.326,46a6.82,6.82,0,0,0-3.68,3.681l-2.015,4.849a1.19,1.19,0,0,1-2.2,0l-2.015-4.849A6.822,6.822,0,0,0,193.738,46l-4.849-2.015a1.19,1.19,0,0,1,0-2.2l4.849-2.015a6.82,6.82,0,0,0,3.68-3.681l2.015-4.848a1.19,1.19,0,0,1,2.2,0l2.015,4.848a6.818,6.818,0,0,0,3.68,3.681" transform="translate(-93.645 -15.184)" fill="#ffdbb3"/>
            <path id="Trazado_890966" data-name="Trazado 890966" d="M444.2,202.086l4.848,2.015a1.189,1.189,0,0,1,0,2.2l-4.848,2.015a6.822,6.822,0,0,0-3.681,3.681l-2.015,4.849a1.19,1.19,0,0,1-2.2,0l-2.015-4.849a6.821,6.821,0,0,0-3.681-3.681l-4.848-2.015a1.189,1.189,0,0,1,0-2.2l4.848-2.015a6.819,6.819,0,0,0,3.681-3.681l2.015-4.848a1.19,1.19,0,0,1,2.2,0l2.015,4.848a6.821,6.821,0,0,0,3.681,3.681" transform="translate(-211.533 -95.967)" fill="#ffdbb3"/>
            <path id="Trazado_890967" data-name="Trazado 890967" d="M48.118,212.182l4.848,2.015a1.189,1.189,0,0,1,0,2.2l-4.848,2.015a6.822,6.822,0,0,0-3.681,3.681l-2.015,4.849a1.19,1.19,0,0,1-2.2,0l-2.015-4.849a6.821,6.821,0,0,0-3.681-3.681l-4.848-2.015a1.19,1.19,0,0,1,0-2.2l4.848-2.015a6.819,6.819,0,0,0,3.681-3.681l2.015-4.848a1.19,1.19,0,0,1,2.2,0l2.015,4.848a6.821,6.821,0,0,0,3.681,3.681" transform="translate(-14.408 -100.992)" fill="#ffdbb3"/>
            <path id="Trazado_890968" data-name="Trazado 890968" d="M101.705,374.5l4.849,2.015a1.19,1.19,0,0,1,0,2.2l-4.849,2.015a6.82,6.82,0,0,0-3.68,3.681l-2.015,4.849a1.19,1.19,0,0,1-2.2,0L91.8,384.4a6.822,6.822,0,0,0-3.68-3.681l-4.849-2.015a1.19,1.19,0,0,1,0-2.2l4.849-2.015a6.82,6.82,0,0,0,3.68-3.681l2.015-4.848a1.19,1.19,0,0,1,2.2,0l2.015,4.848a6.818,6.818,0,0,0,3.68,3.681" transform="translate(-41.078 -181.776)" fill="#ffdbb3"/>
          </g>
        </g>
      </g>
    </g>
  </g>
</svg>
