<svg xmlns="http://www.w3.org/2000/svg" xmlns:xlink="http://www.w3.org/1999/xlink" width="85" height="85" viewBox="0 0 85 85">
  <defs>
    <clipPath id="clip-path">
      <rect id="Rect치ngulo_403288" data-name="Rect치ngulo 403288" width="85" height="85" transform="translate(180 916.052)" fill="#fff" stroke="#707070" stroke-width="1"/>
    </clipPath>
  </defs>
  <g id="Grupo_1103371" data-name="Grupo 1103371" transform="translate(-180 -916.052)">
    <path id="Rect치ngulo_403287" data-name="Rect치ngulo 403287" d="M27.172,0h0A27.172,27.172,0,0,1,54.344,27.172V78.033a0,0,0,0,1,0,0H0a0,0,0,0,1,0,0V27.172A27.172,27.172,0,0,1,27.172,0Z" transform="translate(195.328 923.019)" fill="#ffd839"/>
    <g id="Enmascarar_grupo_1098837" data-name="Enmascarar grupo 1098837" clip-path="url(#clip-path)">
      <g id="analisis" transform="translate(178.63 914.682)">
        <g id="Grupo_1103385" data-name="Grupo 1103385">
          <g id="Grupo_1103381" data-name="Grupo 1103381">
            <path id="Trazado_987410" data-name="Trazado 987410" d="M25.176,5.4a1.4,1.4,0,0,1,1.395,1.395V32.462a1.4,1.4,0,0,1-1.395,1.395H3.693A1.4,1.4,0,0,1,2.3,32.462V6.794A1.4,1.4,0,0,1,3.693,5.4Z" fill="#eceff1" fill-rule="evenodd"/>
            <path id="Trazado_987411" data-name="Trazado 987411" d="M25.176,5.4a1.4,1.4,0,0,1,1.395,1.395V32.462a1.4,1.4,0,0,1-1.395,1.395H23.462a1.4,1.4,0,0,0,1.395-1.395V6.794A1.4,1.4,0,0,0,23.462,5.4Z" fill="#d1d1d6" fill-rule="evenodd"/>
            <path id="Trazado_987412" data-name="Trazado 987412" d="M9.921,4.556h1.612a.839.839,0,0,0,.77-.481,2.372,2.372,0,0,1,4.264,0,.84.84,0,0,0,.77.481h1.612a.858.858,0,0,1,.857.857V7.326a.858.858,0,0,1-.857.857H9.921a.858.858,0,0,1-.857-.857V5.413a.859.859,0,0,1,.857-.857Z" fill="#e3a76f" fill-rule="evenodd"/>
            <path id="Trazado_987413" data-name="Trazado 987413" d="M13.859,2.813a2.375,2.375,0,0,1,2.708,1.262.84.84,0,0,0,.77.481H16.185a.839.839,0,0,1-.77-.481A2.376,2.376,0,0,0,13.859,2.813ZM17.8,4.556h1.152a.858.858,0,0,1,.857.857V7.326a.858.858,0,0,1-.857.857H17.8a.858.858,0,0,0,.857-.857V5.413A.858.858,0,0,0,17.8,4.556Z" fill="#c48958" fill-rule="evenodd"/>
          </g>
          <g id="Grupo_1103382" data-name="Grupo 1103382">
            <path id="Trazado_987414" data-name="Trazado 987414" d="M83.159,5.4a1.4,1.4,0,0,1,1.395,1.395V32.462a1.4,1.4,0,0,1-1.395,1.395H61.676a1.4,1.4,0,0,1-1.395-1.395V6.794A1.4,1.4,0,0,1,61.676,5.4Z" fill="#eceff1" fill-rule="evenodd"/>
            <path id="Trazado_987415" data-name="Trazado 987415" d="M83.159,5.4a1.4,1.4,0,0,1,1.395,1.395V32.462a1.4,1.4,0,0,1-1.395,1.395H81.445a1.4,1.4,0,0,0,1.395-1.395V6.794A1.4,1.4,0,0,0,81.445,5.4Z" fill="#d1d1d6" fill-rule="evenodd"/>
            <path id="Trazado_987416" data-name="Trazado 987416" d="M67.9,4.556h1.612a.839.839,0,0,0,.77-.481,2.372,2.372,0,0,1,4.264,0,.84.84,0,0,0,.77.481h1.612a.858.858,0,0,1,.857.857V7.326a.858.858,0,0,1-.857.857H67.9a.858.858,0,0,1-.857-.857V5.413a.859.859,0,0,1,.857-.857Z" fill="#e3a76f" fill-rule="evenodd"/>
            <path id="Trazado_987417" data-name="Trazado 987417" d="M71.842,2.813A2.375,2.375,0,0,1,74.55,4.075a.84.84,0,0,0,.77.481H74.168a.839.839,0,0,1-.77-.481A2.376,2.376,0,0,0,71.842,2.813ZM75.78,4.556h1.152a.858.858,0,0,1,.857.857V7.326a.858.858,0,0,1-.857.857H75.78a.858.858,0,0,0,.857-.857V5.413A.858.858,0,0,0,75.78,4.556Z" fill="#c48958" fill-rule="evenodd"/>
          </g>
          <g id="Grupo_1103383" data-name="Grupo 1103383">
            <path id="Trazado_987418" data-name="Trazado 987418" d="M54.167,56.54a1.4,1.4,0,0,1,1.395,1.395V83.6A1.4,1.4,0,0,1,54.167,85H32.685A1.4,1.4,0,0,1,31.29,83.6V57.936a1.4,1.4,0,0,1,1.395-1.395H54.167Z" fill="#eceff1" fill-rule="evenodd"/>
            <path id="Trazado_987419" data-name="Trazado 987419" d="M54.167,56.54a1.4,1.4,0,0,1,1.395,1.395V83.6A1.4,1.4,0,0,1,54.167,85H52.454A1.4,1.4,0,0,0,53.849,83.6V57.936a1.4,1.4,0,0,0-1.395-1.395h1.714Z" fill="#d1d1d6" fill-rule="evenodd"/>
            <path id="Trazado_987420" data-name="Trazado 987420" d="M38.912,55.7h1.612a.839.839,0,0,0,.77-.481,2.372,2.372,0,0,1,4.264,0,.84.84,0,0,0,.77.481H47.94a.858.858,0,0,1,.857.857v1.913a.858.858,0,0,1-.857.857H38.912a.858.858,0,0,1-.857-.857V56.554A.858.858,0,0,1,38.912,55.7Z" fill="#e3a76f" fill-rule="evenodd"/>
            <path id="Trazado_987421" data-name="Trazado 987421" d="M42.85,53.954a2.375,2.375,0,0,1,2.708,1.262.84.84,0,0,0,.77.481H45.176a.839.839,0,0,1-.77-.481A2.375,2.375,0,0,0,42.85,53.954ZM46.788,55.7H47.94a.858.858,0,0,1,.857.857v1.913a.858.858,0,0,1-.857.857H46.788a.858.858,0,0,0,.857-.857V56.554A.858.858,0,0,0,46.788,55.7Z" fill="#c48958" fill-rule="evenodd"/>
          </g>
          <g id="Grupo_1103384" data-name="Grupo 1103384">
            <path id="Trazado_987422" data-name="Trazado 987422" d="M61.042,51.341a21.493,21.493,0,0,1-3.628,3.994L67.278,65l3.755-3.87Z" fill="#a79ba7" fill-rule="evenodd"/>
            <path id="Trazado_987423" data-name="Trazado 987423" d="M61.108,51.275a2.478,2.478,0,0,1-1.074,1.44l9.8,9.735,1.2-1.315Z" fill="#837683" fill-rule="evenodd"/>
            <path id="Trazado_987424" data-name="Trazado 987424" d="M79.769,77.556l4.238-4.368a1.949,1.949,0,0,0-.041-2.748L72.227,59.049a1.949,1.949,0,0,0-2.748.041l-4.238,4.368a1.949,1.949,0,0,0,.041,2.748L77.021,77.6A1.949,1.949,0,0,0,79.769,77.556Z" fill="#f1ba84" fill-rule="evenodd"/>
            <path id="Trazado_987425" data-name="Trazado 987425" d="M70.491,59.049,82.229,70.44a1.949,1.949,0,0,1,.041,2.748l-4.238,4.368a1.923,1.923,0,0,1-.526.385,1.951,1.951,0,0,0,2.263-.385l4.238-4.368a1.949,1.949,0,0,0-.041-2.748L72.227,59.049a1.951,1.951,0,0,0-2.222-.344,1.927,1.927,0,0,1,.485.343Z" fill="#e3a76f" fill-rule="evenodd"/>
            <circle id="Elipse_11655" data-name="Elipse 11655" cx="21.373" cy="21.373" r="21.373" transform="translate(14.788 40.581) rotate(-45)" fill="#8ac9fe"/>
            <path id="Trazado_987426" data-name="Trazado 987426" d="M45.023,19.2a21.376,21.376,0,0,1,0,42.752q-.522,0-1.038-.025a21.376,21.376,0,0,0,0-42.7q.516-.025,1.038-.026Z" fill="#60b7ff" fill-rule="evenodd"/>
            <circle id="Elipse_11656" data-name="Elipse 11656" cx="16.908" cy="16.908" r="16.908" transform="translate(21.102 40.581) rotate(-45)" fill="#eceff1"/>
            <path id="Trazado_987427" data-name="Trazado 987427" d="M45.023,23.67c.384,0,.765.014,1.143.039a16.91,16.91,0,0,0,0,33.742c-.378.025-.759.039-1.143.039a16.911,16.911,0,0,1,0-33.821Z" fill="#d1d1d6" fill-rule="evenodd"/>
          </g>
        </g>
        <path id="Trazado_987428" data-name="Trazado 987428" d="M61.01,40.58A15.539,15.539,0,1,0,45.467,56.119,15.562,15.562,0,0,0,61.01,40.58Zm2.742,0A18.282,18.282,0,1,1,45.467,22.3,18.3,18.3,0,0,1,63.752,40.58Zm-7.235-7.872a1.367,1.367,0,0,1,.524,1.265l-.734,5.738a1.37,1.37,0,1,1-2.718-.35l.073-.594-6.163,8.2a1.376,1.376,0,0,1-2.412-.422L43,39.722l-6.671,8.487a1.358,1.358,0,0,1-1.081.524,1.393,1.393,0,0,1-.847-.294,1.375,1.375,0,0,1-.226-1.925l8.284-10.548a1.37,1.37,0,0,1,2.387.444l2.073,6.757,4.638-6.159-.686.284a1.371,1.371,0,0,1-1.056-2.53l5.34-2.23A1.378,1.378,0,0,1,56.517,32.708Zm26.94,38.715L71.722,60.033a.593.593,0,0,0-.4-.159H71.31a.583.583,0,0,0-.4.171l-4.235,4.368a.575.575,0,0,0,.008.809L78.425,76.613a.577.577,0,0,0,.807-.012l4.235-4.368a.583.583,0,0,0-.008-.809ZM65.979,68.359l-1.21-1.169a3.329,3.329,0,0,1-.661-3.837l-4.848-4.7c-.6.465-1.234.9-1.879,1.3V73.977A32.73,32.73,0,0,0,65.979,68.359ZM54.638,83.6V61.4A22.717,22.717,0,0,1,33.11,59.668L33.1,83.6c0,.011.016.023.024.023H54.614C54.622,83.627,54.638,83.613,54.638,83.6ZM30.367,73.977a33.031,33.031,0,0,1-18.342-38.75H23.358a22.734,22.734,0,0,0,7.025,22.366c-.008.113-.016.228-.016.343ZM4.136,32.486H24.213a22.765,22.765,0,0,1,1.428-3.052V6.794a.024.024,0,0,0-.024-.024H21.624V8.183a1.37,1.37,0,0,1-1.371,1.37H9.508a1.37,1.37,0,0,1-1.371-1.37V6.77h-4a.031.031,0,0,0-.024.024V32.462a.031.031,0,0,0,.024.024ZM10.88,5.927h1.694A1.363,1.363,0,0,0,13.9,4.877a1,1,0,0,1,1.944,0,1.379,1.379,0,0,0,1.339,1.049h1.694v.885h-8Zm17.5,8.807a33.031,33.031,0,0,1,30.973,0v7.843a22.713,22.713,0,0,0-30.973,3ZM62.1,6.794V25.077a23.12,23.12,0,0,1,1.879,2.3,1.8,1.8,0,0,1-.016-.211A1.371,1.371,0,0,1,65.333,25.8H79.505a1.371,1.371,0,1,1,0,2.743H65.333a1.35,1.35,0,0,1-.694-.193,22.118,22.118,0,0,1,2.081,4.139H83.6a.031.031,0,0,0,.024-.024V6.794A.031.031,0,0,0,83.6,6.77h-4V8.183a1.37,1.37,0,0,1-1.371,1.37H67.495a1.37,1.37,0,0,1-1.371-1.37V6.77h-4a.024.024,0,0,0-.024.024Zm6.767-.867H70.56a1.377,1.377,0,0,0,1.331-1.049,1,1,0,0,1,1.944,0,1.37,1.37,0,0,0,1.331,1.049h1.694v.885H68.866V5.927ZM65.47,40.58a20,20,0,1,1-20-20.005,20.025,20.025,0,0,1,20,20.005Zm2.275,18.788-4.614-4.474a23.6,23.6,0,0,1-1.783,1.959L65.9,61.27Zm7.969-24.141H67.576a22.726,22.726,0,0,1-2.831,17.411l5.025,4.875a3.342,3.342,0,0,1,1.5-.381,3.268,3.268,0,0,1,2.355.932l.024.021a33.112,33.112,0,0,0,2.065-22.858Zm9.719,38.915L81.2,78.511a3.32,3.32,0,0,1-4.686.07l-8.566-8.31A35.481,35.481,0,0,1,57.38,76.963V83.6a2.769,2.769,0,0,1-2.767,2.765H33.126A2.762,2.762,0,0,1,30.367,83.6V76.961A35.764,35.764,0,0,1,9.194,35.228H4.136A2.77,2.77,0,0,1,1.37,32.462V6.794A2.77,2.77,0,0,1,4.136,4.028H8.242a1.372,1.372,0,0,1,1.266-.843H11.67a3.747,3.747,0,0,1,6.42,0h2.162a1.381,1.381,0,0,1,1.266.843h4.1a2.765,2.765,0,0,1,2.767,2.766v4.865a35.813,35.813,0,0,1,30.973,0V6.794a2.77,2.77,0,0,1,2.767-2.766h4.106A1.364,1.364,0,0,1,67.5,3.185h2.154a3.747,3.747,0,0,1,6.42,0h2.162a1.364,1.364,0,0,1,1.266.843H83.6a2.77,2.77,0,0,1,2.767,2.766V32.462A2.77,2.77,0,0,1,83.6,35.227H78.553a35.91,35.91,0,0,1-2.839,24.866l9.655,9.364a3.319,3.319,0,0,1,.064,4.685Zm-34.918,2.8a1.371,1.371,0,0,1,0,2.743H36.344a1.371,1.371,0,0,1,0-2.743Zm0-4.529a1.371,1.371,0,1,1,0,2.742H36.344a1.371,1.371,0,1,1,0-2.742Zm0-4.527a1.371,1.371,0,1,1,0,2.742H36.344a1.371,1.371,0,1,1,0-2.742Zm0-4.529a1.371,1.371,0,1,1,0,2.742H36.344a1.371,1.371,0,1,1,0-2.742Zm-29-37.555a1.371,1.371,0,1,1,0,2.743H7.355a1.371,1.371,0,0,1,0-2.743Zm0-4.529a1.371,1.371,0,1,1,0,2.743H7.355a1.371,1.371,0,1,1,0-2.743Zm0-4.528a1.371,1.371,0,1,1,0,2.742H7.355a1.371,1.371,0,1,1,0-2.742ZM7.355,14.953a1.371,1.371,0,1,1,0-2.742H21.519a1.371,1.371,0,1,1,0,2.742Zm57.978,9.058a1.371,1.371,0,1,1,0-2.743H79.505a1.371,1.371,0,0,1,0,2.743Zm0-4.529a1.371,1.371,0,1,1,0-2.742H79.505a1.371,1.371,0,1,1,0,2.742Zm-1.371-5.9a1.371,1.371,0,0,1,1.371-1.371H79.505a1.371,1.371,0,1,1,0,2.742H65.333A1.371,1.371,0,0,1,63.962,13.582Z" fill="#242222" fill-rule="evenodd"/>
      </g>
    </g>
    <path id="Trazado_952692" data-name="Trazado 952692" d="M31.179,147.506s-.235,5.781-4.859,6.331c0,0,4.962,1.482,5.51,6.348,0,0,1.241-5.9,4.576-6.381,0,0-3.867-.773-5.227-6.3" transform="translate(153.68 833.252)" fill="#6b0b0c"/>
  </g>
</svg>
