<svg xmlns="http://www.w3.org/2000/svg" xmlns:xlink="http://www.w3.org/1999/xlink" width="69.047" height="75.023" viewBox="0 0 69.047 75.023">
  <defs>
    <clipPath id="clip-path">
      <rect id="Rectángulo_403280" data-name="Rectángulo 403280" width="62.048" height="62.133" fill="none"/>
    </clipPath>
    <clipPath id="clip-path-3">
      <rect id="Rectángulo_403256" data-name="Rectángulo 403256" width="62.048" height="39.861" fill="none"/>
    </clipPath>
    <clipPath id="clip-path-5">
      <rect id="Rectángulo_403258" data-name="Rectángulo 403258" width="3.737" height="2.108" fill="none"/>
    </clipPath>
    <clipPath id="clip-path-7">
      <rect id="Rectángulo_403260" data-name="Rectángulo 403260" width="3.738" height="2.108" fill="none"/>
    </clipPath>
    <clipPath id="clip-path-13">
      <rect id="Rectángulo_403266" data-name="Rectángulo 403266" width="3.738" height="2.107" fill="none"/>
    </clipPath>
    <clipPath id="clip-path-23">
      <rect id="Rectángulo_403276" data-name="Rectángulo 403276" width="18.542" height="2.343" fill="none"/>
    </clipPath>
    <clipPath id="clip-path-25">
      <rect id="Rectángulo_403278" data-name="Rectángulo 403278" width="6.157" height="9.112" fill="none"/>
    </clipPath>
  </defs>
  <g id="Grupo_1102766" data-name="Grupo 1102766" transform="translate(-1287.5 -273)">
    <circle id="Elipse_11618" data-name="Elipse 11618" cx="34" cy="34" r="34" transform="translate(1287.5 273)" fill="#ffd839"/>
    <g id="Grupo_1101936" data-name="Grupo 1101936" transform="translate(1294.5 285.891)">
      <g id="Grupo_1101935" data-name="Grupo 1101935" clip-path="url(#clip-path)">
        <g id="Grupo_1101879" data-name="Grupo 1101879" transform="translate(0 0)">
          <g id="Grupo_1101878" data-name="Grupo 1101878" clip-path="url(#clip-path)">
            <g id="Grupo_1101877" data-name="Grupo 1101877" transform="translate(0 6.713)" opacity="0.3">
              <g id="Grupo_1101876" data-name="Grupo 1101876">
                <g id="Grupo_1101875" data-name="Grupo 1101875" clip-path="url(#clip-path-3)">
                  <path id="Trazado_890333" data-name="Trazado 890333" d="M59.9,25.271l.623-.359.606.349.2-.344-.407-.235.407-.235-.2-.343-.606.349-1.236-.713.328-.191-.2-.343-.375.216-1.148-2.474L46.534,14.393l-4.7-.727L31.945,7.956l-.2.343,8.782,5.071-.128.074-1.948-.3.619-.356-.2-.345-1.047.6-.451-.069-.949-.548.934-.538-.2-.345-1.134.654-1.235-.714.855-.493-.2-.343-1.054.608-1.235-.714.776-.446-.2-.345-.974.563L31.526,9.6l.7-.4-.2-.344-.9.517-.894-.517-.2.344.7.4-1.236.714-.975-.563-.2.345.776.446-1.235.714-1.055-.608-.2.343.856.493-1.235.714L25.1,11.544l-.2.345.935.538-.872.5-.573.089-1-.579-.2.345.575.331-1.949.3-.084-.048L30.511,8.3l-.2-.343L20.5,13.621l-4.989.772L4.158,20.949,3.052,23.328l-.208-.121-.2.343.24.139-.065.139-1.083.625L1.132,24.1l-.2.343.408.235-.408.235.2.344.605-.349.457.263L0,29.905l4.156,8.954,11.357,6.558,15.511,2.4,15.512-2.4,11.357-6.558,4.155-8.954ZM41.323,34.109l1.25-.721,1.237.713-1.38.8.063-.112Zm-1.632.944,1.235-.715,1.236.715-1.523.878.143-.248Zm-18.072.878L20.1,35.054l1.235-.715,1.236.715-1.092.63ZM19.828,34.9l-1.38-.8,1.236-.713,1.25.721-1.171.677ZM43.5,15.085l.29.168-1.236.713-1.231-.71.691-.4ZM46.562,16l1.235.714-.344.2L46.217,16.2Zm-41.4,7.123,1.075.621L5,24.454l-.362-.208Zm22.764-9.484,1.17.675-1.236.711-1.232-.71,1.125-.649Zm6.654.071,1.047.605-1.232.71-1.237-.711,1.126-.65ZM56.76,22.853l-1.139.658-1.24-.716,1.236-.714,1.072.62ZM31.128,13.6l1.237.714-1.237.711-1.235-.711Zm-14.7,10.365,1.235.714-1.237.713-1.235-.713Zm-1.634.484-1.235-.714,1.237-.713,1.235.713ZM39.3,23.5l-1.242-.716,1.236-.712,1.241.716Zm1.633-.484,1.236.713-1.235.713L39.7,23.734Zm-2.03.713-1.234.714-1.243-.717,1.235-.713Zm-8.169.938-1.236.713-1.235-.713,1.235-.713Zm-.839-.943,1.235-.713,1.237.713-1.237.713ZM31.128,24.9l1.237.713-1.237.713-1.235-.713Zm.4-.23,1.237-.713L34,24.672l-1.235.713Zm1.634-.943,1.233-.712,1.236.714-1.234.712Zm-.4-.23-1.237-.713,1.234-.71,1.235.711Zm-1.635-.943-1.232-.71,1.232-.711,1.235.711Zm-.4.23L29.5,23.5l-1.234-.712,1.236-.711ZM29.1,23.73l-1.236.714-1.233-.712,1.235-.714Zm-1.633.943-1.243.717-1.234-.712,1.243-.717Zm.4.23,1.236.713-1.244.717-1.236-.713Zm1.634.942,1.236.713-1.244.719-1.237-.714Zm1.632.943,1.246.718-1.246.719L29.884,27.5Zm.4-.23,1.237-.713,1.244.718-1.237.714Zm1.634-.942,1.235-.713,1.244.717-1.235.713Zm1.633-.943,1.234-.712,1.243.717-1.234.712ZM36.027,23.5l-1.237-.713,1.235-.712,1.237.713Zm-1.634-.942-1.235-.713,1.235-.712,1.236.713Zm-1.633-.943-1.233-.71,1.236-.713,1.232.711Zm-1.632-.941-1.234-.712,1.234-.713,1.235.713Zm-.4.23-1.233.71L28.263,20.9l1.233-.711Zm-1.631.94-1.235.713-1.235-.712,1.235-.713Zm-1.632.942-1.237.713L25,22.789l1.236-.713Zm-1.634.943-1.243.717-1.234-.714,1.242-.716ZM22.959,23.5l-1.237-.713,1.242-.716,1.235.712Zm-.4.23-1.237.713-1.235-.713,1.236-.713Zm-1.633.942-1.237.714-1.236-.714,1.237-.713Zm.4.23,1.235.714-1.236.713-1.235-.713Zm.4-.229,1.237-.713,1.235.713-1.236.713Zm2.869.23,1.234.713-1.235.713-1.234-.712Zm1.631.943,1.235.713-1.235.712-1.235-.713Zm1.632.942,1.235.713-1.235.713L26.618,27.5Zm1.634.943,1.244.72-1.235.714-1.245-.72Zm1.64.948,1.235.714-1.235.712-1.234-.712Zm.4-.229,1.244-.72,1.237.714-1.246.72Zm1.642-.949L34.4,26.79l1.236.713-1.236.713Zm1.633-.942,1.235-.713,1.236.712-1.236.713Zm1.632-.943,1.233-.713,1.236.714-1.234.712Zm1.632-.943,1.234-.713,1.235.713-1.234.713Zm2.867.229,1.236.714-1.235.713L39.7,25.619Zm.4-.23,1.236-.713,1.237.713-1.235.714Zm1.633-.943L44.2,23.02l1.236.713-1.235.713Zm-.4-.23-1.236-.712,1.235-.714,1.237.713Zm-1.633-.942-1.241-.716,1.235-.713,1.24.716Zm-1.64-.945L38.056,20.9l1.235-.713,1.237.714Zm-.4.23-1.235.713-1.238-.713,1.237-.713Zm-2.87-.23L34.79,20.9l1.236-.713,1.235.713Zm-1.634-.942-1.233-.711,1.237-.713,1.232.711Zm-1.629-.941-1.236-.712,1.236-.713L34,19.022Zm-1.635-.942-1.235-.713,1.235-.713,1.237.713Zm-.4.23-1.235.712-1.235-.712,1.234-.713Zm-1.634.942-1.233.711-1.235-.713,1.232-.711Zm-1.629.941-1.236.712L25,20.9l1.235-.713Zm-1.634.942-1.237.713-1.235-.713,1.237-.713Zm-2.87-.23L21.729,20.9l1.237-.714L24.2,20.9Zm-.4.23-1.241.716-1.235-.713,1.24-.716Zm-1.638.945-1.236.712-1.235-.713,1.236-.713Zm-1.634.942-1.236.713-1.235-.713,1.236-.713ZM18.059,24.9l1.235.714-1.236.713-1.235-.713Zm1.634.943,1.234.713-1.236.712-1.235-.712Zm1.632.943,1.233.712-1.236.713L20.088,27.5Zm.4-.23,1.237-.713,1.234.712-1.237.713Zm2.868.229,1.235.713-1.236.713L23.353,27.5Zm1.632.943,1.235.713-1.236.714-1.235-.714Zm1.633.943,1.245.72-1.236.713-1.245-.72Zm1.642.949,1.235.713-1.236.714-1.235-.714Zm1.631.942,1.237.714-1.237.715-1.235-.715Zm.4-.229,1.235-.713L34,30.337l-1.235.714Zm1.632-.943,1.245-.72,1.237.713-1.245.72Zm1.643-.949,1.235-.713,1.237.713-1.235.714Zm1.633-.943,1.235-.713L38.9,27.5l-1.235.713Zm1.632-.943,1.235-.712,1.236.713-1.234.712Zm2.867.23,1.237.712-1.235.713L39.7,27.5Zm.4-.23,1.235-.713,1.236.713-1.235.712Zm1.632-.943L44.2,24.9l1.236.714-1.235.713Zm1.633-.943,1.235-.714,1.237.714-1.235.713Zm1.633-.943,1.235-.713,1.237.713-1.235.714Zm1.633-.942,1.225-.709,1.235.714L49.1,23.5Zm-.4-.23-1.236-.713,1.224-.708,1.236.714Zm-.4.23-1.235.713-1.237-.713,1.235-.713Zm-2.868-.23-1.237-.713,1.236-.713,1.235.713Zm-1.634-.943L41.324,20.9l1.235-.713,1.24.715Zm-1.636-.944-1.236-.712,1.235-.714,1.236.714Zm-1.634-.942-1.236-.713,1.236-.713,1.236.713Zm-.4.23-1.235.712-1.236-.712,1.235-.713Zm-2.868-.23-1.234-.71,1.237-.713,1.231.71Zm-1.63-.94-1.236-.713,1.236-.713,1.235.713Zm-1.634-.943-1.236-.713,1.236-.712L34,17.137Zm-1.635-.943-1.235-.713,1.235-.712,1.237.712Zm-.4.23-1.237.713-1.235-.713,1.236-.712Zm-1.634.943-1.235.713-1.235-.713,1.235-.713Zm-1.633.943-1.233.71L25,19.019l1.232-.71Zm-1.63.94-1.236.712-1.235-.712,1.237-.713Zm-2.869-.23-1.235-.713,1.235-.713,1.235.713Zm-.4.23-1.236.712L20.1,19.962l1.235-.714Zm-1.634.942-1.24.715-1.235-.713,1.24-.715Zm-1.637.944-1.236.713-1.235-.713,1.235-.713Zm-1.632.943-1.239.713-1.234-.713,1.236-.713Zm-2.871-.23-1.227-.707,1.237-.714,1.226.708Zm-.4.23-1.235.713L11.935,22.8l1.236-.714Zm-1.633.942-1.237.713L10.3,23.738l1.236-.714Zm.4.23,1.235.713-1.236.714-1.235-.714Zm1.633.943,1.234.713-1.236.713-1.235-.713Zm1.632.943,1.235.713-1.237.713L15.19,26.56Zm1.633.943,1.235.713-1.238.713L16.822,27.5Zm1.632.943,1.235.712-1.236.714-1.235-.713Zm1.631.943,1.235.713L21.32,30.1l-1.235-.714Zm.4-.23,1.235-.713,1.236.713-1.238.713Zm2.868.23,1.234.713-1.235.714-1.236-.714Zm1.632.943,1.246.72-1.235.715-1.246-.721Zm1.643.949,1.236.713-1.236.715-1.235-.714Zm1.633.943,1.236.714-1.235.714-1.235-.714Zm1.632.943,1.237.713-1.237.715-1.235-.715Zm.4-.229,1.237-.714L34,32.223l-1.237.714Zm1.633-.943,1.236-.713,1.235.714-1.235.714Zm1.632-.943,1.247-.72,1.235.714-1.246.721Zm1.644-.949,1.235-.713,1.236.713-1.235.714Zm1.634-.943,1.235-.713,1.235.713-1.235.713Zm2.867.23,1.237.713-1.235.714L39.7,29.388Zm.4-.23,1.235-.712,1.237.713-1.235.713Zm1.631-.942L44.2,26.79l1.236.713-1.235.713Zm1.633-.943,1.235-.713,1.237.712-1.235.714Zm1.633-.943,1.235-.713,1.236.713-1.235.713Zm1.633-.943,1.235-.713,1.235.713-1.235.714Zm1.632-.943,1.225-.708,1.236.714-1.224.707Zm1.622-.937,1.236-.714,1.235.714-1.235.714Zm-.4-.23-1.236-.713,1.236-.714,1.236.713Zm-1.633-.943-1.236-.714,1.236-.714,1.235.714Zm-1.634-.943-1.235-.713,1.235-.714,1.236.713Zm-.4.229-1.227.709-1.236-.713,1.228-.709Zm-2.86-.234-1.24-.715,1.229-.709,1.238.716Zm-1.637-.944-1.236-.713,1.23-.709,1.235.713Zm-1.634-.941-1.235-.714,1.229-.71,1.235.714Zm-1.634-.943-1.232-.71,1.231-.709,1.232.71Zm-.4.23-1.235.714-1.234-.711,1.236-.713ZM36.03,17.85l-1.237-.713,1.237-.712,1.235.712ZM34.4,16.908l-1.237-.714,1.237-.712,1.235.712Zm-1.634-.943-1.236-.712,1.236-.713L34,15.253Zm-2.032-.712-1.235.712-1.235-.712,1.234-.713Zm-1.634.942-1.236.714-1.235-.714,1.235-.712Zm-1.634.943-1.235.713-1.235-.713,1.235-.712Zm-1.634.943-1.233.711-1.235-.714,1.233-.71Zm-2.866-.232-1.23-.71,1.232-.71,1.231.709Zm-.4.23-1.236.714-1.229-.71,1.235-.714Zm-1.633.942-1.236.713-1.229-.709L19.7,18.31Zm-1.634.943-1.24.715-1.226-.708,1.238-.716Zm-1.636.944-1.236.713L15.2,20.909l1.235-.713ZM14.8,20.681l-1.235-.714,1.235-.713,1.235.714Zm-.4.229-1.236.714-1.236-.714,1.237-.714Zm-1.634.943-1.235.713L10.3,21.852l1.236-.713Zm-1.632.943-1.235.714L8.67,22.8l1.236-.714Zm-1.634.943-1.24.716L7.032,23.74l1.241-.716Zm.4.23,1.223.705-1.239.716-1.224-.706Zm1.621.935,1.234.713-1.239.716-1.235-.713Zm1.632.943,1.235.713-1.24.716-1.235-.713Zm1.633.943,1.235.714-1.239.714L13.553,27.5Zm1.633.943,1.235.712-1.239.715-1.235-.712Zm1.632.943,1.235.713-1.239.715-1.235-.714Zm1.631.942,1.236.714-1.238.715-1.236-.714Zm1.632.943,1.236.713-1.238.714-1.235-.713Zm.4-.23,1.236-.714,1.235.715-1.235.712Zm2.87.23,1.247.721-1.235.714-1.248-.721Zm1.644.949,1.235.714-1.235.714-1.236-.714Zm1.632.943,1.236.713-1.236.715-1.235-.715Zm1.634.943,1.235.715-1.235.714-1.235-.714Zm1.631.943,1.237.714-1.237.713-1.235-.713Zm.4-.229,1.235-.715L34,34.109l-1.237.714Zm1.633-.944,1.236-.713,1.235.713-1.235.715Zm1.633-.942,1.235-.714,1.236.714-1.236.714Zm1.631-.943,1.248-.721,1.237.713-1.248.721Zm1.646-.949,1.235-.715,1.237.714-1.237.713Zm2.868.229,1.239.714-1.237.713L39.7,31.273Zm.4-.23,1.236-.714,1.237.715-1.235.714Zm1.632-.943,1.235-.713,1.239.714L44.2,30.1Zm1.632-.943,1.235-.712,1.239.715-1.235.712ZM46.23,27.5l1.235-.714,1.24.716-1.235.712Zm1.633-.943,1.235-.713,1.24.716-1.235.713Zm1.633-.943L50.73,24.9l1.24.716-1.235.713Zm1.633-.943,1.224-.705,1.24.715-1.224.706Zm1.62-.936,1.236-.714,1.24.716-1.235.713Zm1.236-1.172-1.236-.714,1.235-.713,1.237.713Zm-1.633-.943-1.236-.714,1.236-.714,1.235.714Zm-1.633-.943-1.237-.714,1.236-.714,1.236.715Zm-1.633-.943-1.236-.713,1.236-.714,1.235.713Zm-1.634-.943-1.237-.714,1.236-.714,1.237.714Zm-.4.23-1.235.713-1.239-.714,1.236-.714Zm-2.871-.23-1.236-.713,1.236-.714,1.237.714Zm-1.632-.943-1.237-.713,1.237-.713,1.235.713Zm-1.634-.942-1.231-.71,1.237-.714,1.23.71Zm-1.629-.941-1.235-.713,1.236-.713,1.235.713Zm-.4.23-1.231.709-1.235-.713,1.232-.71Zm-2.864-.233-1.237-.713,1.233-.711,1.235.714Zm-2.373-2.4-.894.516-1.236-.713.182-.1ZM30.5,13.237l.227.13-1.237.713-.938-.542Zm-3.04,2.015-1.235.713L25,15.255l1.235-.714Zm-1.634.942-1.235.713L23.364,16.2l1.235-.714Zm-2.864-.226-1.235-.713,1.234-.713,1.237.713Zm-.4.23-1.232.71L20.1,16.2l1.23-.71Zm-1.629.939-1.236.713-1.235-.713,1.234-.713Zm-1.632.943-1.236.713-1.236-.713,1.235-.714Zm-1.633.943-1.239.714L15.2,19.024l1.238-.715ZM14.8,18.795l-1.235-.714,1.237-.714,1.236.714Zm-.4.23-1.235.713-1.236-.714,1.235-.713Zm-1.633.943-1.236.714L10.3,19.968l1.236-.715Zm-1.633.943-1.235.714L8.67,20.909,9.906,20.2Zm-1.634.943-1.235.714-1.236-.714,1.236-.713ZM7.876,22.8l-1.24.716L5.4,22.8l1.24-.716Zm-1.24,1.174,1.236.714L6.637,25.4,5.4,24.683Zm1.632.943,1.224.706-1.236.713-1.224-.706Zm1.622.936,1.235.713-1.237.713-1.235-.713Zm1.632.943,1.235.712-1.236.713L10.286,27.5Zm1.634.943,1.235.714-1.237.712-1.235-.712Zm1.633.943,1.235.712-1.236.713-1.235-.713Zm1.633.942,1.235.713-1.238.714-1.235-.714Zm1.631.943,1.236.713-1.237.713-1.235-.713Zm1.632.942,1.236.714-1.236.714-1.235-.714Zm1.634.943,1.249.721-1.236.714-1.249-.721Zm.4-.23,1.238-.714,1.248.721-1.238.714Zm2.883.235,1.235.713-1.237.716-1.235-.714Zm1.632.943,1.235.715-1.235.714-1.237-.714Zm1.632.943,1.236.714-1.237.714-1.235-.712Zm1.634.943,1.235.713-1.236.715-1.235-.715Zm1.631.943,1.237.715-1.237.713-1.235-.713Zm.4-.23,1.235-.713L34,35.994l-1.235.715Zm1.633-.943,1.236-.714,1.237.716-1.237.712Zm1.632-.943,1.236-.715,1.237.715-1.236.714Zm1.634-.944,1.235-.713,1.237.716-1.236.714Zm1.632-.942L39.3,31.5l1.239.714-1.249.721Zm2.882.223,1.237.714-1.25.721-1.235-.714Zm.4-.23,1.235-.714,1.235.714-1.235.714Zm1.632-.943,1.235-.713,1.236.713-1.235.713Zm1.633-.943,1.235-.713,1.237.713-1.235.714Zm1.633-.943,1.235-.712,1.236.712L47.47,30.1Zm1.632-.942,1.235-.714,1.237.714L49.1,29.16ZM49.5,27.5l1.236-.712,1.235.713-1.235.712Zm1.633-.942,1.235-.713,1.238.713-1.235.713Zm1.634-.943,1.224-.706,1.235.713L54,26.332Zm1.62-.936,1.235-.714,1.236.714-1.236.713Zm1.633-.943.91-.526.523,1.126-.2.113Zm.381-1.665-.385-.224.222-.128Zm-.782-.452-1.236-.714.344-.2,1.236.713Zm-1.634-.943-1.235-.714.344-.2,1.235.713Zm-1.631-.943-1.237-.714.344-.2,1.237.714Zm-1.634-.943-1.236-.714.345-.2,1.235.713Zm-1.632-.943-1.238-.714.345-.2,1.237.712Zm-2.032-.715-1.235.714-1.235-.714,1.235-.713Zm-2.869-.229L42.95,16.2l1.236-.713,1.236.713Zm-2.8-2.15-.462.267-.8-.462Zm-2.576-.4-1.151.665-1.237-.713.439-.253Zm-2.785-.278-.36-.208.569.089Zm-5-2.089-.517.08.622-.359.7.4Zm-4.791,2.089-.253-.146.691-.107Zm-.88-.049.483.278-1.235.713-1.2-.691Zm-4.018.992-.506-.292,1.381-.214ZM20.2,14.831l.736.424-1.231.71-1.235-.713.365-.212ZM19.307,16.2l-1.235.714L16.836,16.2l1.235-.713Zm-1.632.943-1.236.714L15.2,17.138l1.236-.713Zm-2.869-.229-.451-.259,1.236-.714.451.259Zm-.4.23-1.238.714-.449-.26,1.237-.714Zm-1.634.943-1.235.714-.45-.26,1.235-.713Zm-1.632.943-1.236.714-.451-.259,1.237-.715Zm-1.634.943-1.235.714-.451-.26,1.236-.714Zm-1.633.943-1.235.714-.45-.26,1.235-.713Zm-1.634.943-.67.388.283-.611ZM4.606,24.683l-.23.132.1-.208Zm-.52.759L5,24.913l1.235.713L5,26.339l-1.053-.608Zm2.55.413,1.222.706-1.236.713L5.4,26.568Zm1.619.936,1.235.713-1.236.713L7.02,27.5Zm1.634.943,1.235.713-1.237.713-1.235-.712Zm1.631.943,1.236.712-1.236.714-1.235-.714Zm1.634.943,1.236.713-1.238.713-1.235-.713Zm1.632.943,1.235.713-1.235.713-1.235-.713Zm1.632.942,1.236.714-1.236.714-1.235-.714Zm1.633.943,1.236.714-1.236.713-1.235-.713Zm3.677,1.664,1.235-.713,1.235.713-1.236.714Zm2.867.23,1.236.715-1.236.712-1.235-.712Zm1.634.943,1.235.713-1.235.715L24.995,36Zm1.631.943,1.236.714-1.235.712-1.235-.712Zm1.634.943,1.236.714-1.236.713-1.235-.713Zm1.632.943,1.237.713-1.237.714-1.235-.714Zm.4-.229,1.237-.714L34,37.881l-1.235.713Zm1.634-.943,1.235-.714,1.235.714-1.235.712Zm1.632-.944,1.236-.713L37.264,36l-1.236.714Zm1.634-.941,1.235-.715,1.236.715-1.236.712Zm1.633-.944,1.235-.713,1.236.713-1.235.714Zm4.911-.95,1.237-.714,1.235.714-1.235.713Zm1.634-.943,1.235-.714,1.235.714-1.235.714Zm1.631-.943,1.235-.713,1.236.713-1.235.713Zm1.632-.943,1.236-.713,1.236.713-1.235.713Zm1.633-.943,1.236-.712,1.236.712-1.235.714Zm1.633-.943,1.235-.713,1.237.714-1.235.712Zm1.634-.943L54,26.79l1.237.713L54,28.216Zm1.633-.943,1.222-.706,1.236.714-1.223.705Zm1.619-.935,1.235-.713.631.364.257.551-.888.512Zm4.1-.943-.392.227-.289-.62ZM46.165,15.768l-.346.2-1.235-.713.941.146Zm-5.526-2.334.111.063-.082-.011Zm-4.351-.626-.413-.064.151-.088Zm-1.894-1.094,1.235.712-.382.22-1.948-.3Zm-.4-.23L32.76,12.2l-1.235-.713,1.237-.714ZM31.128,9.828l1.237.713-1.237.715-1.235-.715Zm-1.632.943,1.236.714L29.5,12.2l-1.235-.714Zm-1.633.943,1.05.606-1.948.3-.338-.2Zm-1.632.942.107.062-.292.045Zm-4.612.778-.009.015-.024,0ZM17.63,15.228l.044.025-1.235.713-.451-.261.531-.305ZM2.136,24.683l.393-.229-.167.36Zm54.011,13.6-10.619,6.13-14.5,2.245-14.5-2.244L5.9,38.279,2.015,29.905l1.769-3.812.823.475-.25.143.2.345L5,26.8l1.222.705-2.94,1.7.2.344,3.14-1.81,1.234.712L5,30.1l.2.344,3.06-1.764,1.235.713-2.781,1.6.2.344,2.981-1.719,1.235.714-2.7,1.559.2.344,2.9-1.673,1.235.712-2.623,1.514.2.343L13.154,31.5l1.235.714-2.544,1.467.2.343,2.742-1.582,1.235.714-2.466,1.422.2.344,2.663-1.537,1.236.713-2.387,1.377.2.343,2.585-1.49,12.261,7.078.2-.343-8.782-5.072,1.235-.713L24.2,36l-1.013.586.2.344,1.211-.7,1.236.714-.934.539.2.343,1.133-.654,1.235.714-.856.494.2.343,1.054-.608,1.236.713-.776.449.2.343.975-.562,1.236.713-.7.4.2.343L31.128,40l.9.516.2-.343-.7-.4,1.237-.713.974.562.2-.343-.776-.449,1.236-.713,1.053.608.2-.343-.855-.494,1.236-.714,1.133.654.2-.343-.933-.539,1.235-.714,1.211.7.2-.344L38.056,36l1.237-.714,1.235.713-8.782,5.072.2.343,12.262-7.078,2.585,1.49.2-.343L44.6,34.1l1.235-.713L48.5,34.925l.2-.344-2.466-1.422,1.235-.714,2.743,1.582.2-.343-2.544-1.467L49.1,31.5l2.823,1.628.2-.343L49.5,31.273l1.235-.712,2.9,1.673.2-.344-2.7-1.559,1.235-.714,2.98,1.719.2-.344-2.781-1.6L54,28.675l3.059,1.764.2-.344L54.4,28.445l1.235-.712,3.139,1.81.2-.344-2.94-1.7,1.222-.705.448.259.2-.345-.249-.143.656-.38,1.725,3.717Z" transform="translate(0 -7.956)"/>
                </g>
              </g>
            </g>
          </g>
        </g>
        <path id="Trazado_890334" data-name="Trazado 890334" d="M61.5,24.026l-.2-.343-.606.349-1.236-.713.329-.191-.2-.343-.527.3-1.235-.715.249-.143-.2-.343-.448.259-1.24-.716,1.458-.842-.2-.343-1.656.957-1.237-.713,1.38-.8-.2-.343-1.579.91-1.235-.714,1.3-.75-.2-.344-1.5.867L51.288,18.6l1.221-.706-.2-.343-1.42.82-1.235-.714L50.8,17l-.2-.343-1.34.773-1.238-.713,1.064-.613-.2-.344-1.263.728-1.235-.714.985-.569-.2-.343-1.184.683-1.235-.714.906-.523-.2-.343-1.1.638L32.118,7.534l-.2.343L40.7,12.948l-1.237.713-1.235-.713,1.013-.585-.2-.344-1.213.7L36.6,12.005l.934-.539-.2-.344-1.135.654-1.235-.713.856-.493-.2-.345-1.053.608-1.235-.714.776-.448-.2-.343-.974.563L31.7,9.177l.7-.4-.2-.344-.9.516-.9-.516-.2.344.7.4-1.235.714-.975-.563-.2.343.776.448-1.235.714-1.055-.608-.2.345.856.493-1.235.713-1.133-.654-.2.344.936.539-1.235.713-1.213-.7-.2.344,1.013.585-1.235.713L21.9,12.948l8.782-5.071-.2-.343L18.243,14.6l-1.1-.638-.2.343.907.523-1.235.714-1.183-.683-.2.343.986.569-1.236.714-1.262-.728-.2.344,1.065.613-1.239.713L12,16.657,11.8,17l1.143.66-1.236.714-1.419-.82-.2.343,1.223.706-1.237.714-1.5-.867-.2.344,1.3.75-1.235.714-1.579-.91-.2.343,1.38.8L6.813,21.2l-1.657-.957-.2.343,1.458.842-1.239.716-.448-.259-.2.343.249.143-1.235.715-.527-.3-.2.343.328.191-1.235.713L1.3,23.682l-.2.343.407.235-.407.235.2.344.606-.35,1.235.714-.328.19.2.343.527-.3,1.235.714-.249.145.2.343.448-.258,1.222.705-2.94,1.7.2.345L6.8,27.311l1.235.711-2.86,1.65.2.346,3.059-1.766,1.235.714-2.781,1.6.2.344L10.061,29.2l1.235.713-2.7,1.559.2.346,2.9-1.674,1.235.713-2.623,1.513.2.344,2.823-1.628,1.235.713-2.545,1.467.2.344,2.742-1.582,1.235.714L13.73,34.159l.2.343,2.662-1.536,1.237.712-2.387,1.378.2.343,2.585-1.491,12.261,7.079.2-.344L21.9,35.574l1.235-.714,1.237.714-1.013.584.2.345,1.211-.7,1.236.713-.935.54.2.343,1.132-.654,1.235.713-.856.494.2.343,1.053-.608,1.236.713-.776.449.2.344.975-.564,1.235.714-.7.4.2.343.9-.517.9.517.2-.343-.7-.4,1.237-.714.974.564.2-.344-.776-.449,1.235-.713,1.053.608.2-.343-.856-.494,1.236-.713,1.134.654.2-.343-.933-.54,1.236-.713,1.211.7.2-.345-1.013-.584,1.237-.714,1.235.714-8.783,5.07.2.344,12.261-7.079L46.963,35.4l.2-.343-2.386-1.378,1.235-.712L48.674,34.5l.2-.343-2.465-1.421,1.235-.714,2.742,1.582.2-.344-2.543-1.467,1.235-.713L52.1,32.709l.2-.344-2.623-1.513,1.234-.713,2.9,1.674.2-.346-2.7-1.559,1.236-.713,2.98,1.719.2-.344-2.781-1.6,1.235-.714,3.06,1.766.2-.346-2.859-1.65,1.234-.711,3.139,1.81.2-.345-2.941-1.7,1.223-.705.448.258.2-.343-.249-.145,1.235-.714.527.3.2-.343-.329-.19,1.236-.714.606.35.2-.344-.407-.235Zm-2.834-.707-1.235.713-1.236-.713,1.236-.714Zm-37.56.936-1.238.713-1.235-.713,1.237-.714Zm-.84-.943L21.5,22.6l1.235.714-1.237.713ZM21.5,24.484l1.235.712L21.5,25.91,20.262,25.2Zm.4-.23,1.237-.713,1.235.713-1.236.713Zm9.009,0-1.235.712-1.236-.712,1.236-.714Zm-.838-.943,1.235-.713,1.236.713-1.236.713ZM31.3,24.479l1.236.713-1.236.714-1.235-.714Zm.4-.229,1.237-.714,1.235.714-1.235.712Zm1.634-.943,1.234-.712,1.235.714-1.233.711Zm-.4-.229L31.7,22.365l1.234-.711,1.236.713ZM31.3,22.135l-1.233-.711,1.233-.711,1.235.711Zm-.4.23-1.235.714-1.234-.712,1.236-.713Zm-1.634.943-1.235.713L26.8,23.309l1.236-.714Zm-1.632.943-1.244.717-1.234-.713,1.243-.716Zm.4.229,1.235.713-1.244.718L26.791,25.2Zm1.634.943,1.235.712-1.244.719-1.237-.715Zm1.632.942,1.246.718L31.3,27.8l-1.244-.719Zm.4-.23,1.237-.712,1.244.716-1.236.715Zm1.634-.943,1.236-.713,1.243.717-1.235.714Zm1.633-.942,1.235-.712,1.242.716-1.233.713Zm1.632-.941,1.235-.714,1.241.717-1.234.713Zm-.4-.23-1.236-.714,1.235-.712,1.237.714Zm-1.634-.943-1.235-.713,1.235-.713,1.236.713ZM32.932,21.2,31.7,20.483l1.235-.711,1.233.71ZM31.3,20.254l-1.234-.711,1.234-.713,1.235.713Zm-.4.23-1.232.712-1.235-.713,1.233-.71Zm-1.63.941-1.235.713L26.8,21.424l1.236-.713Zm-1.633.942L26.4,23.08l-1.235-.712,1.236-.714Zm-1.634.943-1.244.716-1.234-.713,1.242-.717Zm-1.243,1.175L26,25.2l-1.236.713L23.529,25.2Zm1.631.942,1.235.713-1.236.714-1.235-.714Zm1.632.943,1.235.713-1.235.714-1.235-.714Zm1.634.943,1.244.719-1.235.712-1.246-.718Zm1.64.948,1.235.713-1.235.714-1.234-.714Zm.4-.229,1.245-.719,1.236.713-1.245.718Zm1.642-.949,1.235-.713,1.237.713-1.237.714Zm1.633-.943,1.235-.713,1.235.713-1.235.714Zm1.633-.943,1.233-.712,1.235.714-1.233.711Zm1.632-.942,1.233-.713,1.236.713-1.234.713Zm1.63-.943L41.1,22.6l1.237.714-1.235.713ZM41.1,24.484l1.236.713-1.235.713L39.869,25.2Zm.4-.23,1.237-.714,1.236.714-1.235.713Zm1.633-.944,1.236-.712,1.236.713-1.235.713Zm-.4-.228L41.5,22.368l1.235-.713,1.237.713ZM41.1,22.14l-1.24-.716L41.1,20.71l1.24.716Zm-.4.229-1.236.714-1.241-.716,1.236-.713Zm-2.874-.231L36.6,21.424l1.236-.714,1.236.714ZM36.2,21.2l-1.236-.713,1.236-.714,1.235.714Zm-1.634-.943-1.233-.71,1.236-.713,1.232.71Zm-1.63-.942L31.7,18.6l1.235-.714,1.235.714ZM31.3,18.37l-1.235-.713,1.235-.713,1.236.713Zm-.4.23-1.235.711L28.432,18.6l1.235-.714Zm-1.633.943-1.233.71L26.8,19.539l1.233-.71Zm-1.63.94L26.4,21.2l-1.235-.713,1.235-.714Zm-1.633.942-1.237.713-1.236-.713,1.237-.714Zm-1.634.943-1.24.716L21.9,22.368l1.242-.715ZM21.5,22.14l-1.235-.713,1.24-.716,1.236.714Zm-.4.229-1.236.714-1.235-.714,1.235-.713Zm-1.634.942-1.236.714L17,23.311l1.237-.713Zm-1.634.943-1.237.712-1.235-.712L16.6,23.54Zm.4.23,1.235.713-1.236.713L17,25.2Zm1.633.943,1.234.713-1.236.714-1.235-.714Zm1.632.943,1.233.712-1.236.713-1.233-.713Zm.4-.23,1.237-.714,1.234.713-1.236.714Zm2.868.229L26,27.081l-1.237.714-1.235-.714Zm1.632.943,1.235.713-1.237.713-1.235-.713Zm1.633.941,1.245.72-1.237.714-1.245-.72Zm1.643.95,1.235.713-1.235.714-1.235-.714Zm1.631.942,1.236.715-1.236.714-1.235-.714Zm.4-.229,1.235-.713,1.237.713-1.235.714Zm1.632-.943,1.245-.72,1.238.714-1.246.72Zm1.644-.948,1.235-.713,1.237.713-1.235.713Zm1.632-.943,1.235-.713,1.236.713-1.235.714Zm1.633-.943,1.234-.713,1.237.714-1.235.713Zm2.866.23,1.237.712-1.235.713-1.235-.713Zm.4-.23,1.235-.713,1.237.713-1.235.714Zm1.632-.943,1.235-.713,1.236.713-1.235.713Zm1.633-.943L46,23.54l1.237.714L46,24.966ZM46.4,23.31l1.234-.713,1.237.713-1.235.714Zm-.4-.229-1.237-.713L46,21.654l1.236.714Zm-1.634-.943-1.236-.713,1.235-.713,1.236.713ZM42.736,21.2l-1.24-.716,1.235-.712,1.24.715ZM41.1,20.252l-1.236-.713,1.235-.712,1.236.712Zm-.4.23-1.236.712-1.236-.713,1.235-.713Zm-2.869-.23L36.6,19.539l1.235-.712,1.236.712ZM36.2,19.31l-1.233-.71,1.237-.714,1.231.711Zm-1.63-.941-1.235-.712,1.235-.713,1.235.713Zm-1.634-.942L31.7,16.715,32.935,16l1.236.712ZM31.3,16.485l-1.235-.713,1.235-.714,1.236.714Zm-.4.23-1.236.713-1.235-.713L29.668,16Zm-1.634.943-1.235.712L26.8,17.657l1.235-.713Zm-1.634.943-1.232.71L25.168,18.6l1.232-.711Zm-1.629.939-1.236.713-1.235-.713,1.236-.712Zm-1.634.943-1.235.713L21.9,20.482l1.237-.714Zm-2.87-.23-1.235-.713,1.235-.712,1.236.712Zm-.4.229-1.24.716-1.235-.714,1.24-.715Zm-1.636.945-1.237.713L17,21.426l1.236-.713Zm-1.633.943-1.238.713-1.235-.713,1.237-.714ZM16.2,23.31l-1.236.714L13.73,23.31l1.236-.713Zm-1.634.943-1.237.712L12.1,24.253l1.236-.714Zm.4.229L16.2,25.2l-1.237.714L13.73,25.2Zm1.633.943,1.235.713-1.237.713-1.235-.714Zm1.632.943,1.235.713-1.237.713L17,27.081Zm1.632.943,1.235.711-1.236.714-1.235-.712Zm1.631.941,1.235.714-1.236.713-1.235-.713Zm.4-.228,1.236-.713,1.235.713-1.237.712Zm2.868.228,1.235.714-1.235.715-1.236-.715Zm1.632.943,1.247.72L26.4,30.63l-1.247-.721Zm1.643.948,1.236.715-1.236.714L26.8,30.859Zm1.634.944L30.9,31.8l-1.235.713L28.434,31.8Zm1.632.942,1.236.714-1.236.715-1.235-.715Zm.4-.228,1.237-.714,1.235.714-1.237.713Zm1.634-.943,1.235-.715,1.235.715-1.235.714Zm1.632-.943,1.246-.72,1.235.713L36.2,30.63Zm1.643-.949,1.235-.714,1.237.714-1.236.715Zm1.634-.942,1.235-.713,1.235.713-1.234.712Zm2.867.228,1.237.714-1.235.713-1.236-.713Zm.4-.23,1.234-.711,1.238.713-1.235.712Zm1.631-.942,1.235-.713,1.235.713-1.234.713Zm1.632-.943L46,25.426l1.238.712-1.235.714ZM46.4,25.2l1.235-.713,1.236.713-1.235.714Zm1.633-.942,1.235-.714,1.235.714-1.235.712Zm1.633-.943,1.225-.708,1.235.714-1.224.708Zm-.4-.23-1.236-.713,1.226-.708,1.235.714Zm-1.633-.943L46.4,21.425l1.224-.707,1.237.712ZM46,21.2l-1.236-.714,1.227-.708,1.235.714Zm-1.633-.943-1.24-.716,1.228-.708,1.238.715Zm-1.637-.944L41.5,18.6l1.23-.71,1.235.714ZM41.1,18.367l-1.235-.712,1.229-.71,1.235.714Zm-.4.23-1.236.713L38.229,18.6l1.236-.714Zm-2.869-.23-1.233-.71,1.236-.713,1.232.711ZM36.2,17.428l-1.237-.713L36.2,16l1.235.712Zm-1.634-.942-1.236-.714,1.236-.714,1.235.714Zm-1.634-.943L31.7,14.831l1.235-.713,1.235.713ZM31.3,14.6l-1.235-.713,1.235-.711,1.236.711Zm-.4.23-1.235.712-1.236-.712,1.235-.713Zm-1.633.942-1.236.714L26.8,15.772l1.235-.714Zm-1.634.943-1.235.713-1.235-.713L26.4,16ZM26,17.657l-1.233.71-1.236-.711,1.233-.711Zm-1.63.94-1.235.713L21.9,18.6l1.236-.714Zm-2.869-.23-1.229-.709,1.234-.714,1.231.71Zm-.4.23-1.236.712L18.642,18.6l1.235-.714Zm-1.634.941-1.24.716-1.226-.709,1.237-.715Zm-1.636.944L16.6,21.2l-1.226-.708,1.235-.714Zm-1.634.943-1.237.713L13.74,21.43l1.237-.712Zm-1.634.943-1.235.713-1.225-.707,1.235-.714Zm-1.633.943-1.236.714-1.225-.708,1.237-.714Zm-1.634.943-1.239.715-1.224-.706,1.24-.716Zm.4.23,1.235.713L11.7,25.91,10.46,25.2Zm1.633.943,1.235.712-1.239.716-1.235-.714Zm1.632.943,1.235.714-1.24.714-1.235-.713Zm1.633.944,1.235.711-1.239.716-1.235-.713Zm1.633.941,1.235.714-1.24.715-1.234-.714Zm1.63.943,1.237.712-1.238.715-1.237-.712Zm1.633.943,1.236.713-1.238.715-1.236-.714Zm.4-.23,1.236-.713,1.235.713-1.236.713Zm2.87.23,1.247.721-1.236.714-1.248-.721Zm1.644.95,1.235.714-1.235.713L25.168,31.8Zm1.631.941,1.236.715-1.236.715L26.8,32.744Zm1.634.944,1.235.714-1.235.714-1.235-.714Zm1.631.943,1.236.714-1.236.713-1.235-.713Zm.4-.229,1.235-.714,1.237.714-1.237.714Zm1.634-.943,1.235-.715,1.235.715-1.235.715Zm1.632-.942,1.235-.714,1.237.714-1.237.713Zm1.632-.943,1.247-.721,1.237.713-1.248.721Zm1.645-.95,1.235-.713,1.236.713-1.236.713Zm2.868.23,1.239.714-1.237.714-1.237-.715Zm.4-.23,1.235-.712,1.238.715-1.235.712Zm1.632-.942,1.235-.714,1.239.715-1.235.714Zm1.632-.943L46,27.311l1.239.714-1.234.713Zm1.633-.942,1.235-.714,1.239.715-1.235.713Zm1.633-.944,1.235-.712,1.24.715-1.235.714Zm1.633-.942,1.234-.713,1.24.715-1.235.713Zm1.633-.943,1.223-.707,1.24.716-1.224.706Zm1.62-.937,1.235-.714,1.24.716-1.235.713Zm-.4-.23-1.235-.713,1.235-.714,1.236.714Zm-1.632-.943-1.237-.714,1.237-.712,1.235.712ZM49.259,21.2l-1.236-.713,1.235-.714,1.236.714Zm-1.634-.943-1.235-.713,1.235-.713,1.236.712Zm-1.632-.942L44.754,18.6l1.237-.714,1.237.715Zm-1.635-.944-1.236-.714,1.237-.714,1.237.715Zm-1.632-.943-1.236-.712L42.727,16l1.235.714Zm-1.633-.942-1.232-.711,1.238-.713,1.229.71Zm-.4.23-1.23.709-1.233-.71,1.231-.71Zm-2.86-.231L36.6,15.772l1.231-.71,1.235.713ZM36.2,15.543l-1.237-.712,1.233-.71,1.235.712ZM34.569,14.6l-1.236-.713,1.235-.711,1.234.714Zm-1.634-.942L31.7,12.946l1.234-.712,1.235.713ZM31.3,12.716,30.067,12l1.234-.712L32.536,12Zm-.4.23-1.236.712-1.232-.711,1.235-.713Zm-1.633.941-1.236.713L26.8,13.89l1.235-.714Zm-1.634.943-1.235.712-1.232-.71L26.4,14.12ZM26,15.772l-1.235.713-1.231-.71,1.235-.713Zm-1.633.943-1.232.71-1.23-.709,1.232-.711Zm-2.861-.228-1.235-.714,1.229-.71,1.238.713Zm-.4.23-1.236.712-1.235-.712L19.876,16Zm-1.632.942-1.237.714-1.236-.713,1.236-.715Zm-1.633.943-1.239.715L15.374,18.6l1.237-.715Zm-1.637.943-1.235.713-1.235-.714,1.235-.712Zm-1.631.943-1.237.713-1.235-.713,1.236-.714Zm-1.634.942-1.235.714-1.237-.714,1.237-.712Zm-1.632.943-1.236.713-1.236-.713,1.236-.714Zm-1.634.943-1.24.716-1.236-.713,1.24-.716Zm-1.635.945-1.237.713-1.235-.713,1.235-.714Zm.4.229,1.223.706-1.236.714L7.205,25.2Zm1.621.936,1.235.713-1.236.714-1.235-.713Zm1.633.943,1.235.712-1.236.714-1.235-.713Zm1.633.943,1.235.713-1.236.713-1.236-.713Zm1.634.943,1.235.713-1.236.714-1.235-.714Zm1.633.943,1.235.713-1.237.713-1.235-.712Zm1.63.943,1.236.713-1.236.714-1.235-.714Zm1.633.943,1.236.713-1.236.713-1.235-.713Zm1.634.943,1.249.721-1.236.714-1.25-.721Zm.4-.23,1.238-.715,1.248.722-1.238.714Zm2.883.235,1.235.714-1.237.715-1.235-.714Zm1.633.943,1.235.714L26.4,34.4l-1.237-.713Zm1.631.943,1.236.714-1.236.714L26.8,34.631Zm1.634.943,1.235.713-1.235.715-1.236-.713ZM31.3,35.8l1.236.715-1.236.715-1.235-.715Zm.4-.229,1.235-.713,1.237.715-1.235.713Zm1.634-.943,1.235-.714,1.237.715-1.236.713Zm1.632-.943,1.235-.714,1.238.715L36.2,34.4Zm1.633-.943,1.235-.714,1.238.715-1.236.714Zm1.633-.942,1.247-.722,1.238.715-1.248.721Zm2.882.222,1.238.714-1.25.721-1.235-.714Zm.4-.23,1.236-.713,1.235.713-1.235.713Zm1.633-.943,1.235-.713,1.237.713-1.235.714Zm1.632-.943,1.235-.713,1.237.714-1.235.712Zm1.633-.943,1.235-.713,1.237.713-1.235.714Zm1.632-.943,1.235-.713,1.238.713-1.235.713Zm1.634-.943,1.235-.712,1.235.713-1.235.713Zm1.632-.943,1.235-.713,1.237.714-1.235.713Zm1.634-.943,1.224-.706L55.4,25.2l-1.223.706Zm1.62-.935,1.236-.714,1.235.714-1.235.713Zm2.472-1.887-1.235.715-1.24-.716,1.237-.713Zm-1.637-.944-1.235.714-1.235-.714,1.235-.712Zm-1.632-.942-1.236.713-1.235-.713,1.235-.714Zm-1.634-.943-1.235.713-1.237-.714,1.235-.713ZM50.493,18.6l-1.235.714L48.023,18.6l1.236-.713Zm-1.632-.943-1.236.714-1.237-.714,1.236-.714Zm-1.634-.943-1.236.712-1.235-.712L45.991,16ZM45.6,15.773l-1.237.714-1.235-.714,1.236-.713Zm-1.634-.943-1.235.714L41.5,14.833l1.17-.675-.064-.112Zm-3.007-1.57-.143-.249,1.522.878L41.1,14.6l-1.234-.713Zm-1.489.859,1.234.712-1.235.714-1.235-.714Zm-1.633-.943,1.235.714-1.236.713L36.6,13.89Zm-.4-.23L36.2,13.66l-1.235-.712,1.235-.713Zm-2.867-1.656L35.8,12l-1.237.713L33.33,12Zm-.4-.23-1.235.714L31.7,11.063l1.237-.714ZM31.3,9.406l1.236.714-1.236.714-1.235-.714Zm-1.632.943,1.235.714-1.235.713-1.235-.714Zm-1.634.943L29.272,12l-1.235.713L26.8,12Zm-1.631.943,1.235.713L26.4,13.66l-1.235-.713Zm-1.634.942,1.237.714-1.236.713-1.236-.713Zm-.4,1.656-1.235.714L21.9,14.832l1.235-.712Zm-2.583-1.82-.143.249,1.092.629-1.234.713-1.237-.713ZM20,14.046l-.066.112,1.172.675-1.231.711-1.236-.714ZM18.243,15.06l1.236.713-1.235.714-1.236-.714ZM16.61,16l1.236.714-1.236.712-1.236-.712Zm-1.633.943,1.237.714-1.238.714-1.235-.714Zm-1.634.944,1.237.713-1.236.714L12.108,18.6Zm-1.632.942,1.236.713-1.236.714-1.235-.713Zm-1.633.943,1.236.714-1.236.713-1.236-.713Zm-1.632.943,1.235.712-1.235.714L7.21,21.43Zm-1.634.942,1.236.713-1.24.716-1.235-.715ZM5.176,22.6l1.236.714-1.236.713L3.94,23.318ZM2.308,24.261l1.235-.714,1.235.714-1.235.713ZM3.94,25.2l1.236-.714,1.236.714-1.236.714Zm2.855,1.648-1.221-.705,1.235-.714,1.223.706Zm1.633.943-1.235-.714,1.237-.713,1.235.713Zm1.634.942-1.235-.712,1.237-.713,1.235.713Zm1.634.944-1.235-.715,1.235-.713,1.236.713Zm1.632.941-1.235-.712,1.237-.713,1.235.712Zm.4.23,1.236-.713,1.235.713-1.235.714Zm1.633.943,1.235-.713,1.236.713-1.237.713Zm1.632.943,1.236-.714,1.235.714-1.235.712Zm1.632.941,1.237-.712,1.25.721-1.172.676.066.112Zm3.028,1.582.143.249-1.522-.878,1.235-.714,1.236.713Zm.253-1.573,1.236-.714,1.235.714-1.237.713Zm1.633.943,1.235-.715,1.236.715-1.236.713Zm1.634.943L26.4,34.86l1.235.714-1.235.713Zm1.633.942,1.235-.713,1.235.713-1.235.713Zm1.632.943,1.236-.713,1.235.713-1.235.715ZM31.3,39.115,30.066,38.4l1.235-.713,1.236.713Zm1.634-.942L31.7,37.458l1.237-.713,1.235.713Zm1.632-.944-1.235-.713,1.236-.713,1.235.713Zm1.633-.942-1.236-.713L36.2,34.86l1.236.714Zm1.634-.943L36.6,34.631l1.236-.715,1.236.715Zm.4-1.656,1.235-.714,1.236.714-1.235.713Zm2.581,1.822.143-.249-1.091-.63,1.235-.713,1.236.714ZM42.6,34.476l.064-.112-1.17-.676,1.25-.721,1.236.712Zm1.776-1.026-1.236-.712,1.236-.714,1.235.714Zm1.633-.943-1.235-.713,1.235-.713,1.235.713Zm1.633-.942-1.236-.714,1.235-.713,1.236.713Zm1.633-.944-1.237-.713,1.236-.712,1.236.713Zm1.632-.941-1.236-.715,1.235-.713,1.236.713Zm1.634-.944L51.3,28.024l1.235-.713,1.237.713Zm1.634-.942-1.237-.714,1.235-.713,1.237.713Zm1.631-.943-1.235-.713,1.223-.706,1.235.714Zm1.62-.934L56.191,25.2l1.236-.714,1.235.714Zm1.633-.943-1.235-.713,1.235-.714,1.235.714Z" transform="translate(-0.173 -1.177)" fill="#b5afa7"/>
        <path id="Trazado_890335" data-name="Trazado 890335" d="M6.274,21.729,2.387,30.1V19.677l1.4-4.807L6.274,11.3l1.137,3.865Z" transform="translate(-0.373 -1.765)" fill="#c78e64"/>
        <path id="Trazado_890336" data-name="Trazado 890336" d="M17.61,14.465,6.993,20.595V10.168l4.265-3.186L17.61,4.037l2.023,4.8Z" transform="translate(-1.092 -0.631)" fill="#c78e64"/>
        <path id="Trazado_890337" data-name="Trazado 890337" d="M34.08,1.379l-8,.619L19.576,3.623V14.05l14.5-2.244,1.289-5.091Z" transform="translate(-3.057 -0.215)" fill="#d1a280"/>
        <path id="Trazado_890338" data-name="Trazado 890338" d="M51.268,3.621,45.055,2.2l-8.29-.819V11.806l14.5,2.243Z" transform="translate(-5.742 -0.215)" fill="#d1a280"/>
        <path id="Trazado_890339" data-name="Trazado 890339" d="M66.33,21.731l3.888,8.376V19.679L68.81,14.671,66.33,11.3l-1.137,3.865Z" transform="translate(-10.182 -1.766)" fill="#efb48b"/>
        <path id="Trazado_890340" data-name="Trazado 890340" d="M64.574,10.169,59.656,6.683l-5.7-2.647V14.463L64.574,20.6Z" transform="translate(-8.426 -0.63)" fill="#efb48b"/>
        <path id="Trazado_890341" data-name="Trazado 890341" d="M4.038,31.25l6.78-4.509,3.754-5.481,8.318-2.283,8.471.768,8.048,2.131,5.8-2.13.944-3.591,3.79-1.3,4.854,1.3,1.977,3.054,3.374,10.715L51.86,38.246,34,41.667l-21.77-2.89L5.683,36.811Z" transform="translate(-0.631 -2.32)" fill="#693121"/>
        <path id="Trazado_890342" data-name="Trazado 890342" d="M64.087,16.394l1.506,4.536.775,5.319L63.5,32.255l5.941-2.092L66.065,19.448Z" transform="translate(-9.917 -2.56)" fill="#4a2317"/>
        <path id="Trazado_890343" data-name="Trazado 890343" d="M26.328,22.445l-.39.39v.552l.39.391h.552l.39-.391v-.552l-.39-.39Z" transform="translate(-4.051 -3.505)" fill="#944e39"/>
        <path id="Trazado_890344" data-name="Trazado 890344" d="M19.529,23.659l-.39.391V24.6l.39.39h.552l.39-.39V24.05l-.39-.391Z" transform="translate(-2.989 -3.695)" fill="#944e39"/>
        <path id="Trazado_890345" data-name="Trazado 890345" d="M18.741,29.955l-.391.39V30.9l.391.391h.551l.39-.391v-.552l-.39-.39Z" transform="translate(-2.866 -4.678)" fill="#944e39"/>
        <path id="Trazado_890346" data-name="Trazado 890346" d="M35.578,33.274l-.39.39v.551l.39.392h.552l.39-.392v-.551l-.39-.39Z" transform="translate(-5.496 -5.197)" fill="#944e39"/>
        <path id="Trazado_890347" data-name="Trazado 890347" d="M40.619,23.88l-.391.391v.551l.391.391h.551l.391-.391v-.551l-.391-.391Z" transform="translate(-6.283 -3.73)" fill="#944e39"/>
        <path id="Trazado_890348" data-name="Trazado 890348" d="M49.815,30.786l-.39.389v.552l.39.391h.552l.39-.391v-.552l-.39-.389Z" transform="translate(-7.719 -4.808)" fill="#944e39"/>
        <path id="Trazado_890349" data-name="Trazado 890349" d="M57.118,20.437l-.39.39v.552l.39.391h.552l.39-.391v-.552l-.39-.39Z" transform="translate(-8.86 -3.192)" fill="#944e39"/>
        <path id="Trazado_890350" data-name="Trazado 890350" d="M51.941,24.332l-.278.279v.393l.278.278h.393l.278-.278v-.393l-.278-.279Z" transform="translate(-8.069 -3.8)" fill="#944e39"/>
        <path id="Trazado_890351" data-name="Trazado 890351" d="M43.7,29.392l-.278.278v.393l.278.278h.394l.278-.278V29.67l-.278-.278Z" transform="translate(-6.781 -4.59)" fill="#944e39"/>
        <path id="Trazado_890352" data-name="Trazado 890352" d="M32.529,23.46l-.278.279v.393l.278.278h.394l.278-.278v-.393l-.278-.279Z" transform="translate(-5.037 -3.664)" fill="#944e39"/>
        <path id="Trazado_890353" data-name="Trazado 890353" d="M40.733,35.19l-.278.278v.393l.278.278h.394l.278-.278v-.393l-.278-.278Z" transform="translate(-6.318 -5.496)" fill="#944e39"/>
        <path id="Trazado_890354" data-name="Trazado 890354" d="M16.16,27.23l-.278.278V27.9l.278.278h.394l.278-.278v-.393l-.278-.278Z" transform="translate(-2.48 -4.253)" fill="#944e39"/>
        <path id="Trazado_890355" data-name="Trazado 890355" d="M12.535,31.534l-.277.278v.393l.277.279h.395l.278-.279v-.393l-.278-.278Z" transform="translate(-1.915 -4.925)" fill="#944e39"/>
        <path id="Trazado_890356" data-name="Trazado 890356" d="M20.206,33.5l-.278.278v.394l.278.278H20.6l.278-.278v-.394L20.6,33.5Z" transform="translate(-3.112 -5.232)" fill="#944e39"/>
        <path id="Trazado_890357" data-name="Trazado 890357" d="M27.232,36.893l-.278.278v.394l.278.278h.394l.278-.278v-.394l-.278-.278Z" transform="translate(-4.21 -5.762)" fill="#944e39"/>
        <path id="Trazado_890358" data-name="Trazado 890358" d="M31.966,34.626l-.278.278V35.3l.278.279h.394l.278-.279V34.9l-.278-.278Z" transform="translate(-4.949 -5.408)" fill="#944e39"/>
        <path id="Trazado_890359" data-name="Trazado 890359" d="M42.569,37.135l-.278.278v.393l.278.278h.394l.278-.278v-.393l-.278-.278Z" transform="translate(-6.605 -5.8)" fill="#944e39"/>
        <path id="Trazado_890360" data-name="Trazado 890360" d="M45.672,33.586l-.278.278v.394l.278.278h.394l.278-.278v-.394l-.278-.278Z" transform="translate(-7.09 -5.246)" fill="#944e39"/>
        <path id="Trazado_890361" data-name="Trazado 890361" d="M54.863,33.022l-.278.278v.393l.278.279h.394l.278-.279V33.3l-.278-.278Z" transform="translate(-8.525 -5.157)" fill="#944e39"/>
        <path id="Trazado_890362" data-name="Trazado 890362" d="M62.337,30.18l-.278.279v.392l.278.278h.394l.278-.278v-.392l-.278-.279Z" transform="translate(-9.692 -4.713)" fill="#944e39"/>
        <path id="Trazado_890363" data-name="Trazado 890363" d="M59.373,16.754l-.278.278v.394l.278.278h.394l.278-.278v-.394l-.278-.278Z" transform="translate(-9.229 -2.617)" fill="#944e39"/>
        <path id="Trazado_890364" data-name="Trazado 890364" d="M64.795,26.215l-.39.39v.551l.39.392h.551l.39-.392v-.551l-.39-.39Z" transform="translate(-10.059 -4.094)" fill="#944e39"/>
        <path id="Trazado_890365" data-name="Trazado 890365" d="M63.1,20.437l-.39.39v.552l.39.391h.552l.39-.391v-.552l-.39-.39Z" transform="translate(-9.794 -3.192)" fill="#944e39"/>
        <path id="Trazado_890366" data-name="Trazado 890366" d="M57.907,27.794l-.39.39v.551l.39.391h.552l.39-.391v-.551l-.39-.39Z" transform="translate(-8.983 -4.341)" fill="#944e39"/>
        <path id="Trazado_890367" data-name="Trazado 890367" d="M32.978,28.582l-.389.39v.552l.389.391h.552l.39-.391v-.552l-.39-.39Z" transform="translate(-5.09 -4.464)" fill="#944e39"/>
        <path id="Trazado_890368" data-name="Trazado 890368" d="M24.751,32.485l-.39.39v.551l.39.391h.55l.391-.391v-.551l-.391-.39Z" transform="translate(-3.805 -5.074)" fill="#944e39"/>
        <path id="Trazado_890369" data-name="Trazado 890369" d="M16.521,32.417,5.9,26.285,2.014,17.912,5.9,9.537l10.617-6.13L31.023,1.164l14.5,2.242L56.148,9.539l3.884,8.373-3.885,8.374-10.619,6.13-14.5,2.245ZM31.023,0,15.512,2.4,4.158,8.956,0,17.912,4.155,31.345,15.512,37.9l15.512,2.4,15.512-2.4,11.355-6.556,4.157-13.434L57.891,8.956,46.534,2.4Z" fill="#f7dfbb"/>
        <path id="Trazado_890370" data-name="Trazado 890370" d="M0,31.655l4.155,8.954.9-5.768-.9-4.66L0,21.227Z" transform="translate(0 -3.315)" fill="#efb48b"/>
        <path id="Trazado_890371" data-name="Trazado 890371" d="M68.441,30.181l-.9,4.66.9,5.768L72.6,31.655V21.227Z" transform="translate(-10.549 -3.315)" fill="#c78e64"/>
        <path id="Trazado_890372" data-name="Trazado 890372" d="M16.281,48.823,4.924,42.266V31.839L16.281,38.4l1.969,5.236Z" transform="translate(-0.769 -4.973)" fill="#efb48b"/>
        <path id="Trazado_890373" data-name="Trazado 890373" d="M33.895,52.437l-15.511-2.4V39.609l15.511,2.4,1.636,5.036Z" transform="translate(-2.871 -6.186)" fill="#d1a280"/>
        <path id="Trazado_890374" data-name="Trazado 890374" d="M54.784,48.823l11.357-6.556V31.839L54.784,38.4l-1.969,5.236Z" transform="translate(-8.249 -4.973)" fill="#c78e64"/>
        <path id="Trazado_890375" data-name="Trazado 890375" d="M36.766,52.437l15.512-2.4V39.609l-15.512,2.4Z" transform="translate(-5.742 -6.186)" fill="#d1a280"/>
        <g id="Grupo_1101884" data-name="Grupo 1101884" transform="translate(0 0)">
          <g id="Grupo_1101883" data-name="Grupo 1101883" clip-path="url(#clip-path)">
            <g id="Grupo_1101882" data-name="Grupo 1101882" transform="translate(50.972 44.034)" opacity="0.3">
              <g id="Grupo_1101881" data-name="Grupo 1101881">
                <g id="Grupo_1101880" data-name="Grupo 1101880" clip-path="url(#clip-path-5)">
                  <path id="Trazado_890376" data-name="Trazado 890376" d="M64.051,52.533l-.356-.244-.389-.105-1.1.089-.856.321-.571.4-.375.523.056.447.483.271.863.056,1-.262.865-.425.472-.5Z" transform="translate(-60.406 -52.184)"/>
                </g>
              </g>
            </g>
          </g>
        </g>
        <path id="Trazado_890377" data-name="Trazado 890377" d="M60.406,52.8l.148-.689.557-.7.675-.462.887-.268,1,.145.2.29.17.455-.176.773-.585.576-.889.465-.907.131-.777-.189Z" transform="translate(-9.434 -7.916)" fill="#693121"/>
        <path id="Trazado_890378" data-name="Trazado 890378" d="M61.642,53.289l.942-.305.8-.531.424-.571.121-.679.3.424-.173.9-.629.629-.941.423-.987.143-.729-.3Z" transform="translate(-9.49 -7.997)" fill="#4a2317"/>
        <path id="Trazado_890379" data-name="Trazado 890379" d="M60.686,52.687l.121-.5.435-.589.73-.49.727-.2.365.15-.95.264-.654.445-.441.543Z" transform="translate(-9.478 -7.951)" fill="#944e39"/>
        <g id="Grupo_1101889" data-name="Grupo 1101889" transform="translate(0 0)">
          <g id="Grupo_1101888" data-name="Grupo 1101888" clip-path="url(#clip-path)">
            <g id="Grupo_1101887" data-name="Grupo 1101887" transform="translate(42.189 47.246)" opacity="0.3">
              <g id="Grupo_1101886" data-name="Grupo 1101886">
                <g id="Grupo_1101885" data-name="Grupo 1101885" clip-path="url(#clip-path-7)">
                  <path id="Trazado_890380" data-name="Trazado 890380" d="M53.642,56.34l-.356-.244-.389-.105-1.1.088-.855.322-.572.4L50,57.325l.056.447.483.27.863.057,1-.262.865-.425.473-.5Z" transform="translate(-49.997 -55.991)"/>
                </g>
              </g>
            </g>
          </g>
        </g>
        <path id="Trazado_890381" data-name="Trazado 890381" d="M50,56.608l.148-.689.557-.7.675-.462.887-.268,1,.144.2.291.17.456-.176.771-.584.577-.889.464-.907.132-.777-.189Z" transform="translate(-7.809 -8.511)" fill="#693121"/>
        <path id="Trazado_890382" data-name="Trazado 890382" d="M51.234,57.1l.941-.305.8-.531.424-.571.12-.679.3.424-.174.9-.628.629-.942.423-.987.143-.728-.3Z" transform="translate(-7.865 -8.591)" fill="#4a2317"/>
        <path id="Trazado_890383" data-name="Trazado 890383" d="M50.277,56.495,50.4,56l.435-.588.731-.49.725-.2.367.15-.95.264-.654.444-.442.543Z" transform="translate(-7.852 -8.546)" fill="#944e39"/>
        <g id="Grupo_1101894" data-name="Grupo 1101894" transform="translate(0 0)">
          <g id="Grupo_1101893" data-name="Grupo 1101893" clip-path="url(#clip-path)">
            <g id="Grupo_1101892" data-name="Grupo 1101892" transform="translate(49.64 48.037)" opacity="0.3">
              <g id="Grupo_1101891" data-name="Grupo 1101891">
                <g id="Grupo_1101890" data-name="Grupo 1101890" clip-path="url(#clip-path-5)">
                  <path id="Trazado_890384" data-name="Trazado 890384" d="M62.473,57.278l-.355-.244-.389-.105-1.1.089-.855.321-.571.4-.375.523.055.447.483.27.863.057,1-.263.864-.424.473-.5Z" transform="translate(-58.828 -56.928)"/>
                </g>
              </g>
            </g>
          </g>
        </g>
        <path id="Trazado_890385" data-name="Trazado 890385" d="M58.828,57.546l.148-.689.558-.7.674-.462.888-.268,1,.143.2.292.17.455-.176.772-.584.577-.889.464-.907.131-.777-.189Z" transform="translate(-9.188 -8.657)" fill="#693121"/>
        <path id="Trazado_890386" data-name="Trazado 890386" d="M60.064,58.033l.942-.305.8-.531.424-.571.12-.679.3.424-.174.9-.629.628-.941.422-.987.144-.729-.3Z" transform="translate(-9.244 -8.738)" fill="#4a2317"/>
        <path id="Trazado_890387" data-name="Trazado 890387" d="M59.108,57.432l.121-.5.435-.588.73-.49.726-.2.366.151-.949.264-.655.444-.442.543Z" transform="translate(-9.231 -8.692)" fill="#944e39"/>
        <g id="Grupo_1101899" data-name="Grupo 1101899" transform="translate(0 0)">
          <g id="Grupo_1101898" data-name="Grupo 1101898" clip-path="url(#clip-path)">
            <g id="Grupo_1101897" data-name="Grupo 1101897" transform="translate(10.764 45.686)" opacity="0.3">
              <g id="Grupo_1101896" data-name="Grupo 1101896">
                <g id="Grupo_1101895" data-name="Grupo 1101895" clip-path="url(#clip-path-7)">
                  <path id="Trazado_890388" data-name="Trazado 890388" d="M16.4,54.49l-.356-.243-.389-.105-1.1.088-.854.322-.571.4-.375.522.055.448.483.271.863.056,1-.262.865-.424.473-.5Z" transform="translate(-12.756 -54.142)"/>
                </g>
              </g>
            </g>
          </g>
        </g>
        <path id="Trazado_890389" data-name="Trazado 890389" d="M12.756,54.759l.148-.69.557-.694.675-.462.888-.268,1,.144.2.291.17.455-.176.773-.584.576-.889.464-.908.132-.776-.189Z" transform="translate(-1.992 -8.222)" fill="#693121"/>
        <path id="Trazado_890390" data-name="Trazado 890390" d="M13.993,55.247l.942-.306.8-.531.424-.571.121-.679.3.424-.174.9-.629.628-.941.423-.987.143-.728-.3Z" transform="translate(-2.048 -8.302)" fill="#4a2317"/>
        <path id="Trazado_890391" data-name="Trazado 890391" d="M13.036,54.645l.121-.5.435-.588.731-.49.726-.2.366.15-.95.263-.654.445-.442.543Z" transform="translate(-2.036 -8.257)" fill="#944e39"/>
        <g id="Grupo_1101904" data-name="Grupo 1101904" transform="translate(0 0)">
          <g id="Grupo_1101903" data-name="Grupo 1101903" clip-path="url(#clip-path)">
            <g id="Grupo_1101902" data-name="Grupo 1101902" transform="translate(17.512 52.712)" opacity="0.3">
              <g id="Grupo_1101901" data-name="Grupo 1101901">
                <g id="Grupo_1101900" data-name="Grupo 1101900" clip-path="url(#clip-path-13)">
                  <path id="Trazado_890392" data-name="Trazado 890392" d="M24.4,62.816l-.356-.243-.389-.105-1.1.088-.856.322-.57.4-.376.523.056.447.483.271.863.055,1-.262.865-.425.473-.494Z" transform="translate(-20.753 -62.468)"/>
                </g>
              </g>
            </g>
          </g>
        </g>
        <path id="Trazado_890393" data-name="Trazado 890393" d="M20.753,63.085,20.9,62.4l.557-.7.676-.462.887-.269,1,.145.2.29.17.456-.176.773-.585.575-.889.465-.907.132-.776-.189Z" transform="translate(-3.241 -9.522)" fill="#693121"/>
        <path id="Trazado_890394" data-name="Trazado 890394" d="M21.99,63.573l.942-.306.8-.531.424-.571.12-.679.3.425-.173.9-.629.628-.941.424L21.84,64l-.727-.3Z" transform="translate(-3.297 -9.603)" fill="#4a2317"/>
        <path id="Trazado_890395" data-name="Trazado 890395" d="M21.033,62.971l.121-.5.435-.588.731-.49.726-.2.366.151-.95.263-.654.445-.443.543Z" transform="translate(-3.285 -9.557)" fill="#944e39"/>
        <g id="Grupo_1101909" data-name="Grupo 1101909" transform="translate(0 0)">
          <g id="Grupo_1101908" data-name="Grupo 1101908" clip-path="url(#clip-path)">
            <g id="Grupo_1101907" data-name="Grupo 1101907" transform="translate(3.225 46.275)" opacity="0.3">
              <g id="Grupo_1101906" data-name="Grupo 1101906">
                <g id="Grupo_1101905" data-name="Grupo 1101905" clip-path="url(#clip-path-7)">
                  <path id="Trazado_890396" data-name="Trazado 890396" d="M7.467,55.188l-.356-.243-.389-.105-1.1.088-.856.321-.571.4-.375.524.056.447.483.27.863.057,1-.262.865-.425.473-.494Z" transform="translate(-3.822 -54.839)"/>
                </g>
              </g>
            </g>
          </g>
        </g>
        <path id="Trazado_890397" data-name="Trazado 890397" d="M3.822,55.457l.148-.689.557-.7.676-.462.887-.269,1,.144.2.291.17.456L7.281,55,6.7,55.58l-.889.465-.907.132-.777-.189Z" transform="translate(-0.597 -8.331)" fill="#693121"/>
        <path id="Trazado_890398" data-name="Trazado 890398" d="M5.058,55.945,6,55.639l.8-.531.424-.572.12-.678.3.424-.172.9-.629.628-.941.424-.987.143-.728-.3Z" transform="translate(-0.653 -8.412)" fill="#4a2317"/>
        <path id="Trazado_890399" data-name="Trazado 890399" d="M4.1,55.343l.121-.5.435-.588.73-.49.727-.2.366.151-.951.263-.653.446-.442.543Z" transform="translate(-0.641 -8.366)" fill="#944e39"/>
        <g id="Grupo_1101914" data-name="Grupo 1101914" transform="translate(0 0)">
          <g id="Grupo_1101913" data-name="Grupo 1101913" clip-path="url(#clip-path)">
            <g id="Grupo_1101912" data-name="Grupo 1101912" transform="translate(55.139 46.95)" opacity="0.3">
              <g id="Grupo_1101911" data-name="Grupo 1101911">
                <g id="Grupo_1101910" data-name="Grupo 1101910" clip-path="url(#clip-path-5)">
                  <path id="Trazado_890400" data-name="Trazado 890400" d="M65.437,55.988l.355-.243.39-.105,1.1.089.855.321.571.4.375.523-.055.447-.484.271-.862.056-1-.262-.864-.425-.473-.494Z" transform="translate(-65.345 -55.64)"/>
                </g>
              </g>
            </g>
          </g>
        </g>
        <path id="Trazado_890401" data-name="Trazado 890401" d="M69.1,56.257l-.148-.689-.557-.7-.675-.462-.888-.269-1,.145-.2.29-.17.456.176.772.585.576.889.465.907.131.777-.189Z" transform="translate(-10.224 -8.456)" fill="#693121"/>
        <path id="Trazado_890402" data-name="Trazado 890402" d="M67.9,56.745l-.942-.305-.8-.532-.424-.571-.12-.679-.3.425.173.9.629.628.941.423.987.143.728-.3Z" transform="translate(-10.201 -8.536)" fill="#4a2317"/>
        <path id="Trazado_890403" data-name="Trazado 890403" d="M69.054,56.143l-.121-.5-.435-.588-.73-.489-.727-.2-.365.151.95.263.654.445.442.543Z" transform="translate(-10.413 -8.491)" fill="#944e39"/>
        <g id="Grupo_1101919" data-name="Grupo 1101919" transform="translate(0 0)">
          <g id="Grupo_1101918" data-name="Grupo 1101918" clip-path="url(#clip-path)">
            <g id="Grupo_1101917" data-name="Grupo 1101917" transform="translate(47.374 52.768)" opacity="0.3">
              <g id="Grupo_1101916" data-name="Grupo 1101916">
                <g id="Grupo_1101915" data-name="Grupo 1101915" clip-path="url(#clip-path-5)">
                  <path id="Trazado_890404" data-name="Trazado 890404" d="M56.235,62.884l.356-.244.388-.105,1.1.088.855.322.571.4.375.522-.055.448-.483.27-.863.057-1-.262-.864-.424-.473-.5Z" transform="translate(-56.143 -62.534)"/>
                </g>
              </g>
            </g>
          </g>
        </g>
        <path id="Trazado_890405" data-name="Trazado 890405" d="M59.9,63.152l-.148-.69-.557-.7-.675-.462-.888-.268-1,.144-.2.291-.17.455.176.772.585.576.889.465.908.132.776-.19Z" transform="translate(-8.787 -9.533)" fill="#693121"/>
        <path id="Trazado_890406" data-name="Trazado 890406" d="M58.7,63.64l-.942-.306-.8-.53-.424-.572-.12-.678-.3.424.172.9.63.629.94.422.987.143.728-.3Z" transform="translate(-8.764 -9.613)" fill="#4a2317"/>
        <path id="Trazado_890407" data-name="Trazado 890407" d="M59.852,63.038l-.121-.5-.435-.588-.73-.49-.727-.2-.365.15.949.264.654.445.442.543Z" transform="translate(-8.976 -9.568)" fill="#944e39"/>
        <g id="Grupo_1101924" data-name="Grupo 1101924" transform="translate(0 0)">
          <g id="Grupo_1101923" data-name="Grupo 1101923" clip-path="url(#clip-path)">
            <g id="Grupo_1101922" data-name="Grupo 1101922" transform="translate(18.405 57.01)" opacity="0.3">
              <g id="Grupo_1101921" data-name="Grupo 1101921">
                <g id="Grupo_1101920" data-name="Grupo 1101920" clip-path="url(#clip-path-7)">
                  <path id="Trazado_890408" data-name="Trazado 890408" d="M21.9,67.911l.356-.244.389-.105,1.1.089.855.322.571.4.375.522-.056.447-.483.271-.862.057-1-.263-.865-.424-.472-.5Z" transform="translate(-21.812 -67.562)"/>
                </g>
              </g>
            </g>
          </g>
        </g>
        <path id="Trazado_890409" data-name="Trazado 890409" d="M25.569,68.179l-.148-.689-.557-.7-.676-.462-.886-.268-1,.144-.2.291-.169.456.175.772.585.576.889.464.907.132.776-.188Z" transform="translate(-3.426 -10.318)" fill="#693121"/>
        <path id="Trazado_890410" data-name="Trazado 890410" d="M24.365,68.667l-.942-.305-.8-.531-.424-.571-.121-.679L21.785,67l.172.9.629.629.941.423.987.143.728-.3Z" transform="translate(-3.402 -10.399)" fill="#4a2317"/>
        <path id="Trazado_890411" data-name="Trazado 890411" d="M25.522,68.065l-.122-.5-.435-.589-.731-.489-.726-.2-.366.151.95.264.654.444.442.543Z" transform="translate(-3.614 -10.353)" fill="#944e39"/>
        <g id="Grupo_1101929" data-name="Grupo 1101929" transform="translate(0 0)">
          <g id="Grupo_1101928" data-name="Grupo 1101928" clip-path="url(#clip-path)">
            <g id="Grupo_1101927" data-name="Grupo 1101927" transform="translate(18.374 48.781)" opacity="0.3">
              <g id="Grupo_1101926" data-name="Grupo 1101926">
                <g id="Grupo_1101925" data-name="Grupo 1101925" clip-path="url(#clip-path-23)">
                  <path id="Trazado_890412" data-name="Trazado 890412" d="M40.317,59.308,34.893,60l-4.325.157-6.492-.712-2.3-1.608,13.411-.023Z" transform="translate(-21.774 -57.809)"/>
                </g>
              </g>
            </g>
          </g>
        </g>
        <path id="Trazado_890413" data-name="Trazado 890413" d="M24.1,57.964l-2.323-.812.022-.975.916-.891,3.651-1.828-.275,2.348Z" transform="translate(-3.401 -8.349)" fill="#79995a"/>
        <path id="Trazado_890414" data-name="Trazado 890414" d="M34.489,54.184l3.983,1.388,3.477,3.169-4.906-.324-4.818.273.138-2.819Z" transform="translate(-5.033 -8.462)" fill="#9fb366"/>
        <path id="Trazado_890415" data-name="Trazado 890415" d="M26.793,53.457l6.494.613-2.265,4.506-6.495-.613Z" transform="translate(-3.831 -8.349)" fill="#87a15f"/>
        <path id="Trazado_890416" data-name="Trazado 890416" d="M21.8,56.574l3.379-.356.277-.1L25.288,56Z" transform="translate(-3.405 -8.746)" fill="#87a15f"/>
        <path id="Trazado_890417" data-name="Trazado 890417" d="M33.572,56.725l4.5.56,4.04,1.853L37.959,57.5l-4.5-.56-.211-.129Z" transform="translate(-5.193 -8.859)" fill="#cfdb77"/>
        <path id="Trazado_890418" data-name="Trazado 890418" d="M25.8,56.217l6.493.613.111-.219L25.914,56Z" transform="translate(-4.03 -8.746)" fill="#9fb366"/>
        <g id="Grupo_1101934" data-name="Grupo 1101934" transform="translate(0 0)">
          <g id="Grupo_1101933" data-name="Grupo 1101933" clip-path="url(#clip-path)">
            <g id="Grupo_1101932" data-name="Grupo 1101932" transform="translate(23.839 53.021)" opacity="0.3">
              <g id="Grupo_1101931" data-name="Grupo 1101931">
                <g id="Grupo_1101930" data-name="Grupo 1101930" clip-path="url(#clip-path-25)">
                  <path id="Trazado_890419" data-name="Trazado 890419" d="M34.409,71.946l-3.157-1.72-2.164-2.5-.837-3.206,1.375-1.691Z" transform="translate(-28.251 -62.834)"/>
                </g>
              </g>
            </g>
          </g>
        </g>
        <path id="Trazado_890420" data-name="Trazado 890420" d="M28.251,64.021l1.547-1.77,1.537-.4,1.678.066,3,1.306-3.769.845Z" transform="translate(-4.412 -9.661)" fill="#79995a"/>
        <path id="Trazado_890421" data-name="Trazado 890421" d="M29.468,68.184l2.285,2.207L34.6,72.609l2.056-2.72.579-2.5-3.3-.312Z" transform="translate(-4.602 -10.476)" fill="#9fb366"/>
        <path id="Trazado_890422" data-name="Trazado 890422" d="M29.278,67.622l-1.027-3.347,7.764-.794,1.027,3.347Z" transform="translate(-4.412 -9.914)" fill="#87a15f"/>
        <path id="Trazado_890423" data-name="Trazado 890423" d="M32.514,63.643l-.608-1.788.981,1.75-.127.127Z" transform="translate(-4.983 -9.661)" fill="#87a15f"/>
        <path id="Trazado_890424" data-name="Trazado 890424" d="M33.844,67.912l.775,2.522.663,2.281L35,70.4l-.775-2.523-.24-.116Z" transform="translate(-5.286 -10.582)" fill="#cfdb77"/>
        <path id="Trazado_890425" data-name="Trazado 890425" d="M33.654,67.314l-1.027-3.347L33,63.929l1.034,3.347Z" transform="translate(-5.096 -9.984)" fill="#9fb366"/>
      </g>
    </g>
  </g>
</svg>
