<svg xmlns="http://www.w3.org/2000/svg" xmlns:xlink="http://www.w3.org/1999/xlink" width="74.492" height="70" viewBox="0 0 74.492 70">
  <defs>
    <clipPath id="clip-path">
      <rect id="Rectángulo_403283" data-name="Rectángulo 403283" width="69.139" height="55.476" fill="none"/>
    </clipPath>
    <clipPath id="clip-path-2">
      <rect id="Rectángulo_403282" data-name="Rectángulo 403282" width="69.139" height="55.477" fill="none"/>
    </clipPath>
    <clipPath id="clip-path-3">
      <rect id="Rectángulo_403281" data-name="Rectángulo 403281" width="69.137" height="39.912" fill="none"/>
    </clipPath>
  </defs>
  <g id="Grupo_1102767" data-name="Grupo 1102767" transform="translate(-1263.5 -511)">
    <g id="Grupo_1103404" data-name="Grupo 1103404">
      <circle id="Elipse_11617" data-name="Elipse 11617" cx="34" cy="34" r="34" transform="translate(1263.5 511)" fill="#ffd839"/>
      <g id="Grupo_1101943" data-name="Grupo 1101943" transform="translate(1268.854 525.523)" clip-path="url(#clip-path)">
        <g id="Grupo_1101942" data-name="Grupo 1101942" transform="translate(0 0)">
          <g id="Grupo_1101941" data-name="Grupo 1101941" clip-path="url(#clip-path-2)">
            <g id="Grupo_1101940" data-name="Grupo 1101940" transform="translate(0 15.565)" opacity="0.3">
              <g id="Grupo_1101939" data-name="Grupo 1101939">
                <g id="Grupo_1101938" data-name="Grupo 1101938" clip-path="url(#clip-path-3)">
                  <path id="Trazado_890426" data-name="Trazado 890426" d="M69.136,46.531,42.331,62,0,37.566,26.805,22.092Z" transform="translate(0 -22.093)"/>
                </g>
              </g>
            </g>
          </g>
        </g>
        <path id="Trazado_890427" data-name="Trazado 890427" d="M0,37.561v.683l2.8,1.617L28.42,24.387Z" transform="translate(0 -7.206)" fill="#d7a57f"/>
        <path id="Trazado_890428" data-name="Trazado 890428" d="M0,36.883,2.8,38.5,28.42,23.709l-2.8-1.617Z" transform="translate(0 -6.528)" fill="#f7dfbb"/>
        <path id="Trazado_890429" data-name="Trazado 890429" d="M3.976,39.861l25.619-14.79v-.684L3.976,39.18Z" transform="translate(-1.175 -7.206)" fill="#ac7a54"/>
        <path id="Trazado_890430" data-name="Trazado 890430" d="M.239,24.724,2.712,39.189l2.464-1.426V24.724Z" transform="translate(-0.071 -7.306)" fill="#ac7a54"/>
        <path id="Trazado_890431" data-name="Trazado 890431" d="M.239,24.124l2.473,1.425,2.464-1.425L2.712,22.693Z" transform="translate(-0.071 -6.706)" fill="#f7dfaf"/>
        <path id="Trazado_890432" data-name="Trazado 890432" d="M.239,37.763l2.473,1.425V26.149L.239,24.725Z" transform="translate(-0.071 -7.306)" fill="#d7a57f"/>
        <path id="Trazado_890433" data-name="Trazado 890433" d="M19.138,29.7l2.476-1.425V15.236H16.671Z" transform="translate(-4.926 -4.502)" fill="#ac7a54"/>
        <path id="Trazado_890434" data-name="Trazado 890434" d="M16.671,14.637l2.467,1.425,2.476-1.425-2.476-1.427Z" transform="translate(-4.926 -3.903)" fill="#f7dfaf"/>
        <path id="Trazado_890435" data-name="Trazado 890435" d="M16.671,28.278,19.138,29.7V16.66l-2.467-1.425Z" transform="translate(-4.926 -4.502)" fill="#d7a57f"/>
        <path id="Trazado_890436" data-name="Trazado 890436" d="M35.576,20.215l2.472-1.425V5.747H33.105Z" transform="translate(-9.783 -1.698)" fill="#ac7a54"/>
        <path id="Trazado_890437" data-name="Trazado 890437" d="M33.105,5.15l2.471,1.428L38.048,5.15,35.576,3.725Z" transform="translate(-9.783 -1.101)" fill="#f7dfaf"/>
        <path id="Trazado_890438" data-name="Trazado 890438" d="M33.105,18.79l2.471,1.425V7.176L33.105,5.748Z" transform="translate(-9.783 -1.698)" fill="#d7a57f"/>
        <path id="Trazado_890439" data-name="Trazado 890439" d="M56.151,69.955v.683l2.8,1.616L84.572,56.781Z" transform="translate(-16.593 -16.779)" fill="#d7a57f"/>
        <path id="Trazado_890440" data-name="Trazado 890440" d="M56.151,69.277l2.8,1.619L84.572,56.1l-2.8-1.618Z" transform="translate(-16.593 -16.1)" fill="#f7dfbb"/>
        <path id="Trazado_890441" data-name="Trazado 890441" d="M60.126,71.574v.681l25.62-14.791v-.683Z" transform="translate(-17.767 -16.779)" fill="#ac7a54"/>
        <path id="Trazado_890442" data-name="Trazado 890442" d="M58.862,71.582l2.466-1.424V57.117H56.389Z" transform="translate(-16.663 -16.878)" fill="#ac7a54"/>
        <path id="Trazado_890443" data-name="Trazado 890443" d="M56.39,56.517l2.473,1.425,2.466-1.425-2.466-1.43Z" transform="translate(-16.663 -16.278)" fill="#f7dfaf"/>
        <path id="Trazado_890444" data-name="Trazado 890444" d="M56.39,70.158l2.473,1.424V58.543L56.39,57.118Z" transform="translate(-16.663 -16.878)" fill="#d7a57f"/>
        <path id="Trazado_890445" data-name="Trazado 890445" d="M75.291,62.1l2.473-1.425V47.629H72.823Z" transform="translate(-21.519 -14.074)" fill="#ac7a54"/>
        <path id="Trazado_890446" data-name="Trazado 890446" d="M72.823,47.031l2.468,1.425,2.473-1.425L75.291,45.6Z" transform="translate(-21.519 -13.476)" fill="#f7dfaf"/>
        <path id="Trazado_890447" data-name="Trazado 890447" d="M72.823,60.672,75.291,62.1V49.055l-2.468-1.426Z" transform="translate(-21.519 -14.074)" fill="#d7a57f"/>
        <path id="Trazado_890448" data-name="Trazado 890448" d="M91.728,52.609,94.2,51.184V38.142H89.256Z" transform="translate(-26.375 -11.271)" fill="#ac7a54"/>
        <path id="Trazado_890449" data-name="Trazado 890449" d="M89.256,37.544l2.472,1.427L94.2,37.544l-2.471-1.425Z" transform="translate(-26.375 -10.673)" fill="#f7dfaf"/>
        <path id="Trazado_890450" data-name="Trazado 890450" d="M89.256,51.184l2.472,1.425V39.569l-2.472-1.427Z" transform="translate(-26.375 -11.271)" fill="#d7a57f"/>
        <path id="Trazado_890451" data-name="Trazado 890451" d="M0,15.617l0,3.235.59.341L27.4.485Z" transform="translate(0 -0.143)" fill="#d7a57f"/>
        <path id="Trazado_890452" data-name="Trazado 890452" d="M.839,15.957v3.236L27.646,3.717l0-3.233Z" transform="translate(-0.248 -0.143)" fill="#ac7a54"/>
        <path id="Trazado_890453" data-name="Trazado 890453" d="M26.805,0,0,15.474l.59.34L27.4.341Z" transform="translate(0 0)" fill="#f7dfbb"/>
        <path id="Trazado_890454" data-name="Trazado 890454" d="M79.788,27.618V24.383L38.049.967,79.2,27.959Z" transform="translate(-11.243 -0.286)" fill="#ac7a54"/>
        <path id="Trazado_890455" data-name="Trazado 890455" d="M79.2,27.959l0-3.234L38.048.967l0,3.234Z" transform="translate(-11.243 -0.286)" fill="#d7a57f"/>
        <path id="Trazado_890456" data-name="Trazado 890456" d="M38.048.825,79.2,24.581l.59-.341L38.64.485Z" transform="translate(-11.243 -0.143)" fill="#f7dfbb"/>
        <path id="Trazado_890457" data-name="Trazado 890457" d="M1.679,20.736l2.8,1.62L30.1,6.882,1.679,20.054Z" transform="translate(-0.496 -2.034)" fill="#d7a57f"/>
        <path id="Trazado_890458" data-name="Trazado 890458" d="M1.679,19.375,4.479,21,30.1,6.2,27.3,4.585Z" transform="translate(-0.496 -1.355)" fill="#f7dfbb"/>
        <path id="Trazado_890459" data-name="Trazado 890459" d="M5.653,22.356,31.272,7.564V6.882L5.653,21.674Z" transform="translate(-1.671 -2.034)" fill="#ac7a54"/>
        <path id="Trazado_890460" data-name="Trazado 890460" d="M4.2,25.2l.068.094.19-.107v-.058Z" transform="translate(-1.241 -7.425)" fill="#a39c95"/>
        <path id="Trazado_890461" data-name="Trazado 890461" d="M3.833,25.292H4.1v-.053l-.465-.112Z" transform="translate(-1.075 -7.425)" fill="#b5afa7"/>
        <path id="Trazado_890462" data-name="Trazado 890462" d="M3.638,25.185l.2.107v-.053l-.2-.112Z" transform="translate(-1.075 -7.425)" fill="#d8d1c7"/>
        <path id="Trazado_890463" data-name="Trazado 890463" d="M3.833,24.75l-.2.111v.154l.2.112H4.1l.19-.112v-.154L4.1,24.75Z" transform="translate(-1.075 -7.314)" fill="#e6e1dd"/>
        <path id="Trazado_890464" data-name="Trazado 890464" d="M6.675,26.626l.068.1.189-.113v-.055Z" transform="translate(-1.973 -7.848)" fill="#a39c95"/>
        <path id="Trazado_890465" data-name="Trazado 890465" d="M6.309,26.725h.27v-.058l-.464-.11Z" transform="translate(-1.807 -7.848)" fill="#b5afa7"/>
        <path id="Trazado_890466" data-name="Trazado 890466" d="M6.115,26.613l.194.113v-.058l-.194-.109Z" transform="translate(-1.807 -7.848)" fill="#d8d1c7"/>
        <path id="Trazado_890467" data-name="Trazado 890467" d="M6.309,26.181l-.194.107v.158l.194.11h.27l.189-.11v-.158l-.189-.107Z" transform="translate(-1.807 -7.737)" fill="#e6e1dd"/>
        <path id="Trazado_890468" data-name="Trazado 890468" d="M20.675,15.687l.068.094.187-.108v-.056Z" transform="translate(-6.109 -4.615)" fill="#a39c95"/>
        <path id="Trazado_890469" data-name="Trazado 890469" d="M20.305,15.781h.273v-.054l-.461-.109Z" transform="translate(-5.945 -4.615)" fill="#b5afa7"/>
        <path id="Trazado_890470" data-name="Trazado 890470" d="M20.117,15.673l.188.108,0-.054-.191-.109Z" transform="translate(-5.945 -4.615)" fill="#d8d1c7"/>
        <path id="Trazado_890471" data-name="Trazado 890471" d="M20.308,15.237l-.191.111V15.5l.191.109h.271l.187-.109v-.156l-.187-.111Z" transform="translate(-5.944 -4.503)" fill="#e6e1dd"/>
        <path id="Trazado_890472" data-name="Trazado 890472" d="M23.147,17.111l.07.1.191-.11v-.057Z" transform="translate(-6.84 -5.036)" fill="#a39c95"/>
        <path id="Trazado_890473" data-name="Trazado 890473" d="M22.779,17.211h.275v-.056l-.462-.111Z" transform="translate(-6.676 -5.036)" fill="#b5afa7"/>
        <path id="Trazado_890474" data-name="Trazado 890474" d="M22.591,17.1l.187.111v-.057l-.187-.111Z" transform="translate(-6.676 -5.036)" fill="#d8d1c7"/>
        <path id="Trazado_890475" data-name="Trazado 890475" d="M22.779,16.666l-.187.113v.153l.187.111h.275l.191-.111v-.153l-.191-.113Z" transform="translate(-6.676 -4.925)" fill="#e6e1dd"/>
        <path id="Trazado_890476" data-name="Trazado 890476" d="M37.229,6.128l.07.1.191-.109V6.062Z" transform="translate(-11.001 -1.791)" fill="#a39c95"/>
        <path id="Trazado_890477" data-name="Trazado 890477" d="M36.865,6.224h.269V6.171l-.464-.108Z" transform="translate(-10.836 -1.791)" fill="#b5afa7"/>
        <path id="Trazado_890478" data-name="Trazado 890478" d="M36.67,6.115l.2.109V6.171l-.2-.108Z" transform="translate(-10.836 -1.791)" fill="#d8d1c7"/>
        <path id="Trazado_890479" data-name="Trazado 890479" d="M36.865,5.682l-.2.108V5.95l.2.108h.269l.19-.108V5.79l-.19-.108Z" transform="translate(-10.836 -1.679)" fill="#e6e1dd"/>
        <path id="Trazado_890480" data-name="Trazado 890480" d="M39.705,7.555l.069.094.192-.106V7.484Z" transform="translate(-11.733 -2.212)" fill="#a39c95"/>
        <path id="Trazado_890481" data-name="Trazado 890481" d="M39.335,7.652l.275,0V7.6l-.462-.112Z" transform="translate(-11.568 -2.212)" fill="#b5afa7"/>
        <path id="Trazado_890482" data-name="Trazado 890482" d="M39.147,7.543l.187.11V7.6l-.187-.112Z" transform="translate(-11.568 -2.212)" fill="#d8d1c7"/>
        <path id="Trazado_890483" data-name="Trazado 890483" d="M39.335,7.11l-.187.11v.154l.187.112h.275l.192-.112V7.22l-.192-.11Z" transform="translate(-11.568 -2.101)" fill="#e6e1dd"/>
        <path id="Trazado_890484" data-name="Trazado 890484" d="M6.215,23.355l2.8,1.62L34.634,9.5,6.215,22.674Z" transform="translate(-1.836 -2.808)" fill="#d7a57f"/>
        <path id="Trazado_890485" data-name="Trazado 890485" d="M6.215,21.995l2.8,1.619L34.634,8.823,31.836,7.2Z" transform="translate(-1.836 -2.129)" fill="#f7dfbb"/>
        <path id="Trazado_890486" data-name="Trazado 890486" d="M10.188,24.975l25.62-14.792V9.5L10.188,24.293Z" transform="translate(-3.011 -2.808)" fill="#ac7a54"/>
        <path id="Trazado_890487" data-name="Trazado 890487" d="M8.737,27.817l.07.094L9,27.8v-.058Z" transform="translate(-2.582 -8.199)" fill="#a39c95"/>
        <path id="Trazado_890488" data-name="Trazado 890488" d="M8.369,27.911h.272v-.052l-.466-.113Z" transform="translate(-2.416 -8.199)" fill="#b5afa7"/>
        <path id="Trazado_890489" data-name="Trazado 890489" d="M8.175,27.8l.194.106v-.052l-.194-.113Z" transform="translate(-2.416 -8.199)" fill="#d8d1c7"/>
        <path id="Trazado_890490" data-name="Trazado 890490" d="M8.369,27.37l-.194.111v.154l.194.113h.272l.188-.113v-.154l-.188-.111Z" transform="translate(-2.416 -8.088)" fill="#e6e1dd"/>
        <path id="Trazado_890491" data-name="Trazado 890491" d="M11.213,29.246l.067.1.19-.113v-.055Z" transform="translate(-3.313 -8.622)" fill="#a39c95"/>
        <path id="Trazado_890492" data-name="Trazado 890492" d="M10.845,29.345h.27v-.058l-.463-.11Z" transform="translate(-3.148 -8.622)" fill="#b5afa7"/>
        <path id="Trazado_890493" data-name="Trazado 890493" d="M10.651,29.232l.193.113v-.058l-.193-.109Z" transform="translate(-3.148 -8.622)" fill="#d8d1c7"/>
        <path id="Trazado_890494" data-name="Trazado 890494" d="M10.845,28.8l-.193.107v.158l.193.11h.27l.19-.11v-.158l-.19-.107Z" transform="translate(-3.148 -8.511)" fill="#e6e1dd"/>
        <path id="Trazado_890495" data-name="Trazado 890495" d="M25.212,18.306l.069.094.187-.107v-.056Z" transform="translate(-7.45 -5.389)" fill="#a39c95"/>
        <path id="Trazado_890496" data-name="Trazado 890496" d="M24.841,18.4h.275v-.054l-.462-.108Z" transform="translate(-7.285 -5.389)" fill="#b5afa7"/>
        <path id="Trazado_890497" data-name="Trazado 890497" d="M24.654,18.293l.187.107,0-.054-.19-.108Z" transform="translate(-7.285 -5.389)" fill="#d8d1c7"/>
        <path id="Trazado_890498" data-name="Trazado 890498" d="M24.843,17.856l-.19.111v.157l.19.108h.273l.187-.108v-.157l-.187-.111Z" transform="translate(-7.285 -5.276)" fill="#e6e1dd"/>
        <path id="Trazado_890499" data-name="Trazado 890499" d="M27.685,19.731l.069.1.192-.109v-.058Z" transform="translate(-8.181 -5.81)" fill="#a39c95"/>
        <path id="Trazado_890500" data-name="Trazado 890500" d="M27.315,19.829h.275v-.056l-.461-.113Z" transform="translate(-8.016 -5.81)" fill="#b5afa7"/>
        <path id="Trazado_890501" data-name="Trazado 890501" d="M27.128,19.72l.187.11v-.056l-.187-.112Z" transform="translate(-8.016 -5.81)" fill="#d8d1c7"/>
        <path id="Trazado_890502" data-name="Trazado 890502" d="M27.315,19.285l-.187.113v.152l.187.112h.275l.191-.112V19.4l-.191-.113Z" transform="translate(-8.016 -5.699)" fill="#e6e1dd"/>
        <path id="Trazado_890503" data-name="Trazado 890503" d="M41.764,8.747l.071.1.192-.11V8.681Z" transform="translate(-12.341 -2.565)" fill="#a39c95"/>
        <path id="Trazado_890504" data-name="Trazado 890504" d="M41.4,8.844h.269V8.79l-.464-.108Z" transform="translate(-12.177 -2.566)" fill="#b5afa7"/>
        <path id="Trazado_890505" data-name="Trazado 890505" d="M41.207,8.734l.194.11V8.79l-.194-.108Z" transform="translate(-12.177 -2.565)" fill="#d8d1c7"/>
        <path id="Trazado_890506" data-name="Trazado 890506" d="M41.4,8.3l-.194.108v.161l.194.108h.269l.191-.108V8.408L41.671,8.3Z" transform="translate(-12.177 -2.453)" fill="#e6e1dd"/>
        <path id="Trazado_890507" data-name="Trazado 890507" d="M44.241,10.174l.068.094.193-.106V10.1Z" transform="translate(-13.073 -2.986)" fill="#a39c95"/>
        <path id="Trazado_890508" data-name="Trazado 890508" d="M43.873,10.271l.273,0v-.053l-.461-.112Z" transform="translate(-12.909 -2.985)" fill="#b5afa7"/>
        <path id="Trazado_890509" data-name="Trazado 890509" d="M43.684,10.162l.188.11v-.056l-.188-.112Z" transform="translate(-12.909 -2.986)" fill="#d8d1c7"/>
        <path id="Trazado_890510" data-name="Trazado 890510" d="M43.873,9.729l-.188.111v.153l.188.112h.273l.193-.112V9.84l-.193-.111Z" transform="translate(-12.909 -2.875)" fill="#e6e1dd"/>
        <path id="Trazado_890511" data-name="Trazado 890511" d="M10.751,25.974l2.8,1.62L39.171,12.12,10.751,25.292Z" transform="translate(-3.177 -3.582)" fill="#d7a57f"/>
        <path id="Trazado_890512" data-name="Trazado 890512" d="M10.751,24.613l2.8,1.62,25.62-14.792-2.8-1.619Z" transform="translate(-3.177 -2.903)" fill="#f7dfbb"/>
        <path id="Trazado_890513" data-name="Trazado 890513" d="M14.726,27.594,40.345,12.8v-.682L14.726,26.912Z" transform="translate(-4.351 -3.582)" fill="#ac7a54"/>
        <path id="Trazado_890514" data-name="Trazado 890514" d="M13.272,30.436l.07.094.189-.107v-.057Z" transform="translate(-3.922 -8.973)" fill="#a39c95"/>
        <path id="Trazado_890515" data-name="Trazado 890515" d="M12.906,30.53h.271v-.052l-.464-.112Z" transform="translate(-3.756 -8.973)" fill="#b5afa7"/>
        <path id="Trazado_890516" data-name="Trazado 890516" d="M12.712,30.423l.194.107v-.052l-.194-.112Z" transform="translate(-3.756 -8.973)" fill="#d8d1c7"/>
        <path id="Trazado_890517" data-name="Trazado 890517" d="M12.906,29.989l-.194.111v.154l.194.112h.271l.189-.112V30.1l-.189-.111Z" transform="translate(-3.756 -8.862)" fill="#e6e1dd"/>
        <path id="Trazado_890518" data-name="Trazado 890518" d="M15.749,31.865l.067.1.19-.112V31.8Z" transform="translate(-4.654 -9.396)" fill="#a39c95"/>
        <path id="Trazado_890519" data-name="Trazado 890519" d="M15.381,31.963h.269v-.058l-.462-.11Z" transform="translate(-4.488 -9.396)" fill="#b5afa7"/>
        <path id="Trazado_890520" data-name="Trazado 890520" d="M15.188,31.851l.193.112v-.058l-.193-.109Z" transform="translate(-4.488 -9.396)" fill="#d8d1c7"/>
        <path id="Trazado_890521" data-name="Trazado 890521" d="M15.381,31.419l-.193.108v.158l.193.11h.269l.19-.11v-.158l-.19-.108Z" transform="translate(-4.488 -9.284)" fill="#e6e1dd"/>
        <path id="Trazado_890522" data-name="Trazado 890522" d="M29.748,20.925l.069.094L30,20.912v-.056Z" transform="translate(-8.79 -6.163)" fill="#a39c95"/>
        <path id="Trazado_890523" data-name="Trazado 890523" d="M29.377,21.019h.275v-.054l-.462-.109Z" transform="translate(-8.626 -6.163)" fill="#b5afa7"/>
        <path id="Trazado_890524" data-name="Trazado 890524" d="M29.191,20.912l.187.107,0-.054-.19-.109Z" transform="translate(-8.626 -6.163)" fill="#d8d1c7"/>
        <path id="Trazado_890525" data-name="Trazado 890525" d="M29.38,20.476l-.19.111v.156l.19.109h.272l.187-.109v-.156l-.187-.111Z" transform="translate(-8.626 -6.051)" fill="#e6e1dd"/>
        <path id="Trazado_890526" data-name="Trazado 890526" d="M32.221,22.35l.069.1.192-.111v-.058Z" transform="translate(-9.521 -6.584)" fill="#a39c95"/>
        <path id="Trazado_890527" data-name="Trazado 890527" d="M31.852,22.449h.274v-.056l-.461-.113Z" transform="translate(-9.357 -6.584)" fill="#b5afa7"/>
        <path id="Trazado_890528" data-name="Trazado 890528" d="M31.665,22.338l.187.111v-.056l-.187-.113Z" transform="translate(-9.357 -6.584)" fill="#d8d1c7"/>
        <path id="Trazado_890529" data-name="Trazado 890529" d="M31.852,21.9l-.187.113v.152l.187.113h.274l.192-.113v-.152l-.192-.113Z" transform="translate(-9.357 -6.473)" fill="#e6e1dd"/>
        <path id="Trazado_890530" data-name="Trazado 890530" d="M46.3,11.366l.07.1.192-.109V11.3Z" transform="translate(-13.682 -3.34)" fill="#a39c95"/>
        <path id="Trazado_890531" data-name="Trazado 890531" d="M45.938,11.462h.27v-.054l-.464-.108Z" transform="translate(-13.517 -3.339)" fill="#b5afa7"/>
        <path id="Trazado_890532" data-name="Trazado 890532" d="M45.743,11.353l.194.109v-.054l-.194-.108Z" transform="translate(-13.517 -3.34)" fill="#d8d1c7"/>
        <path id="Trazado_890533" data-name="Trazado 890533" d="M45.938,10.92l-.194.108v.161l.194.108h.27l.191-.108v-.161l-.191-.108Z" transform="translate(-13.517 -3.227)" fill="#e6e1dd"/>
        <path id="Trazado_890534" data-name="Trazado 890534" d="M48.778,12.793l.069.094.192-.106v-.058Z" transform="translate(-14.414 -3.759)" fill="#a39c95"/>
        <path id="Trazado_890535" data-name="Trazado 890535" d="M48.409,12.891l.274,0v-.052l-.461-.112Z" transform="translate(-14.249 -3.76)" fill="#b5afa7"/>
        <path id="Trazado_890536" data-name="Trazado 890536" d="M48.221,12.781l.187.11v-.056l-.187-.113Z" transform="translate(-14.249 -3.759)" fill="#d8d1c7"/>
        <path id="Trazado_890537" data-name="Trazado 890537" d="M48.409,12.349l-.187.11v.154l.187.112h.274l.192-.112v-.154l-.192-.11Z" transform="translate(-14.249 -3.649)" fill="#e6e1dd"/>
        <path id="Trazado_890538" data-name="Trazado 890538" d="M15.287,28.594l2.8,1.619L43.707,14.74,15.287,27.912Z" transform="translate(-4.517 -4.356)" fill="#d7a57f"/>
        <path id="Trazado_890539" data-name="Trazado 890539" d="M15.287,27.233l2.8,1.619L43.707,14.061l-2.8-1.618Z" transform="translate(-4.517 -3.677)" fill="#f7dfbb"/>
        <path id="Trazado_890540" data-name="Trazado 890540" d="M19.262,30.213,44.881,15.422V14.74L19.262,29.531Z" transform="translate(-5.692 -4.356)" fill="#ac7a54"/>
        <path id="Trazado_890541" data-name="Trazado 890541" d="M17.809,33.055l.07.1.188-.107v-.058Z" transform="translate(-5.263 -9.747)" fill="#a39c95"/>
        <path id="Trazado_890542" data-name="Trazado 890542" d="M17.441,33.15h.271V33.1l-.466-.112Z" transform="translate(-5.096 -9.747)" fill="#b5afa7"/>
        <path id="Trazado_890543" data-name="Trazado 890543" d="M17.247,33.043l.194.107V33.1l-.194-.112Z" transform="translate(-5.096 -9.747)" fill="#d8d1c7"/>
        <path id="Trazado_890544" data-name="Trazado 890544" d="M17.441,32.608l-.194.111v.154l.194.112h.271l.189-.112v-.154l-.189-.111Z" transform="translate(-5.096 -9.636)" fill="#e6e1dd"/>
        <path id="Trazado_890545" data-name="Trazado 890545" d="M20.285,34.484l.068.1.19-.113v-.055Z" transform="translate(-5.994 -10.17)" fill="#a39c95"/>
        <path id="Trazado_890546" data-name="Trazado 890546" d="M19.917,34.583h.27v-.058l-.463-.109Z" transform="translate(-5.828 -10.17)" fill="#b5afa7"/>
        <path id="Trazado_890547" data-name="Trazado 890547" d="M19.724,34.47l.193.113v-.058l-.193-.109Z" transform="translate(-5.829 -10.17)" fill="#d8d1c7"/>
        <path id="Trazado_890548" data-name="Trazado 890548" d="M19.917,34.039l-.193.107V34.3l.193.11h.27l.19-.11v-.158l-.19-.107Z" transform="translate(-5.828 -10.059)" fill="#e6e1dd"/>
        <path id="Trazado_890549" data-name="Trazado 890549" d="M34.284,23.545l.07.094.187-.108v-.056Z" transform="translate(-10.131 -6.937)" fill="#a39c95"/>
        <path id="Trazado_890550" data-name="Trazado 890550" d="M33.913,23.638h.275v-.054l-.463-.109Z" transform="translate(-9.966 -6.937)" fill="#b5afa7"/>
        <path id="Trazado_890551" data-name="Trazado 890551" d="M33.726,23.531l.187.108,0-.054-.19-.109Z" transform="translate(-9.966 -6.937)" fill="#d8d1c7"/>
        <path id="Trazado_890552" data-name="Trazado 890552" d="M33.916,23.1l-.19.111v.156l.19.109h.273l.187-.109v-.156l-.187-.111Z" transform="translate(-9.966 -6.825)" fill="#e6e1dd"/>
        <path id="Trazado_890553" data-name="Trazado 890553" d="M36.758,24.969l.07.1.191-.109V24.9Z" transform="translate(-10.862 -7.358)" fill="#a39c95"/>
        <path id="Trazado_890554" data-name="Trazado 890554" d="M36.388,25.068h.275v-.056L36.2,24.9Z" transform="translate(-10.697 -7.358)" fill="#b5afa7"/>
        <path id="Trazado_890555" data-name="Trazado 890555" d="M36.2,24.958l.187.11v-.056L36.2,24.9Z" transform="translate(-10.697 -7.358)" fill="#d8d1c7"/>
        <path id="Trazado_890556" data-name="Trazado 890556" d="M36.388,24.524l-.187.112v.152l.187.113h.275l.191-.113v-.152l-.191-.112Z" transform="translate(-10.697 -7.247)" fill="#e6e1dd"/>
        <path id="Trazado_890557" data-name="Trazado 890557" d="M50.838,13.986l.07.1.191-.11V13.92Z" transform="translate(-15.023 -4.113)" fill="#a39c95"/>
        <path id="Trazado_890558" data-name="Trazado 890558" d="M50.475,14.082h.269v-.054l-.464-.108Z" transform="translate(-14.858 -4.114)" fill="#b5afa7"/>
        <path id="Trazado_890559" data-name="Trazado 890559" d="M50.279,13.972l.2.11v-.054l-.2-.108Z" transform="translate(-14.858 -4.113)" fill="#d8d1c7"/>
        <path id="Trazado_890560" data-name="Trazado 890560" d="M50.475,13.539l-.2.108v.161l.2.108h.269l.191-.108v-.161l-.191-.108Z" transform="translate(-14.858 -4.001)" fill="#e6e1dd"/>
        <path id="Trazado_890561" data-name="Trazado 890561" d="M53.314,15.412l.069.093.193-.1v-.059Z" transform="translate(-15.754 -4.533)" fill="#a39c95"/>
        <path id="Trazado_890562" data-name="Trazado 890562" d="M52.945,15.51l.274,0v-.052l-.461-.112Z" transform="translate(-15.59 -4.534)" fill="#b5afa7"/>
        <path id="Trazado_890563" data-name="Trazado 890563" d="M52.758,15.4l.187.109v-.056l-.187-.113Z" transform="translate(-15.59 -4.533)" fill="#d8d1c7"/>
        <path id="Trazado_890564" data-name="Trazado 890564" d="M52.945,14.967l-.187.111v.153l.187.113h.274l.192-.113v-.153l-.192-.111Z" transform="translate(-15.59 -4.423)" fill="#e6e1dd"/>
        <path id="Trazado_890565" data-name="Trazado 890565" d="M19.824,31.213l2.8,1.62L48.244,17.359,19.824,30.53Z" transform="translate(-5.858 -5.13)" fill="#d7a57f"/>
        <path id="Trazado_890566" data-name="Trazado 890566" d="M19.824,29.851l2.8,1.62L48.244,16.68l-2.8-1.619Z" transform="translate(-5.858 -4.451)" fill="#f7dfbb"/>
        <path id="Trazado_890567" data-name="Trazado 890567" d="M23.8,32.832,49.418,18.041v-.682L23.8,32.15Z" transform="translate(-7.033 -5.13)" fill="#ac7a54"/>
        <path id="Trazado_890568" data-name="Trazado 890568" d="M22.347,35.674l.068.094.19-.107V35.6Z" transform="translate(-6.604 -10.521)" fill="#a39c95"/>
        <path id="Trazado_890569" data-name="Trazado 890569" d="M21.979,35.769h.269v-.052l-.464-.113Z" transform="translate(-6.437 -10.521)" fill="#b5afa7"/>
        <path id="Trazado_890570" data-name="Trazado 890570" d="M21.785,35.662l.194.107v-.052l-.194-.113Z" transform="translate(-6.437 -10.521)" fill="#d8d1c7"/>
        <path id="Trazado_890571" data-name="Trazado 890571" d="M21.979,35.227l-.194.111v.154l.194.113h.269l.19-.113v-.154l-.19-.111Z" transform="translate(-6.437 -10.41)" fill="#e6e1dd"/>
        <path id="Trazado_890572" data-name="Trazado 890572" d="M24.821,37.1l.068.1.189-.113v-.055Z" transform="translate(-7.335 -10.944)" fill="#a39c95"/>
        <path id="Trazado_890573" data-name="Trazado 890573" d="M24.454,37.2h.27v-.058l-.463-.11Z" transform="translate(-7.169 -10.944)" fill="#b5afa7"/>
        <path id="Trazado_890574" data-name="Trazado 890574" d="M24.26,37.089l.193.113v-.058l-.193-.11Z" transform="translate(-7.169 -10.944)" fill="#d8d1c7"/>
        <path id="Trazado_890575" data-name="Trazado 890575" d="M24.454,36.658l-.193.108v.157l.193.111h.27l.19-.111v-.157l-.19-.108Z" transform="translate(-7.169 -10.832)" fill="#e6e1dd"/>
        <path id="Trazado_890576" data-name="Trazado 890576" d="M38.821,26.164l.068.094.187-.108v-.056Z" transform="translate(-11.472 -7.711)" fill="#a39c95"/>
        <path id="Trazado_890577" data-name="Trazado 890577" d="M38.45,26.257h.274V26.2l-.461-.11Z" transform="translate(-11.307 -7.711)" fill="#b5afa7"/>
        <path id="Trazado_890578" data-name="Trazado 890578" d="M38.263,26.15l.187.108,0-.054-.191-.11Z" transform="translate(-11.307 -7.711)" fill="#d8d1c7"/>
        <path id="Trazado_890579" data-name="Trazado 890579" d="M38.453,25.713l-.191.112v.156l.191.109h.271l.187-.109v-.156l-.187-.112Z" transform="translate(-11.307 -7.598)" fill="#e6e1dd"/>
        <path id="Trazado_890580" data-name="Trazado 890580" d="M41.293,27.588l.07.1.191-.109V27.52Z" transform="translate(-12.202 -8.132)" fill="#a39c95"/>
        <path id="Trazado_890581" data-name="Trazado 890581" d="M40.925,27.687H41.2v-.055l-.461-.113Z" transform="translate(-12.038 -8.132)" fill="#b5afa7"/>
        <path id="Trazado_890582" data-name="Trazado 890582" d="M40.738,27.577l.187.11v-.056l-.187-.112Z" transform="translate(-12.038 -8.132)" fill="#d8d1c7"/>
        <path id="Trazado_890583" data-name="Trazado 890583" d="M40.925,27.142l-.187.113v.153l.187.112H41.2l.191-.112v-.153l-.191-.113Z" transform="translate(-12.038 -8.021)" fill="#e6e1dd"/>
        <path id="Trazado_890584" data-name="Trazado 890584" d="M55.375,16.6l.07.1.192-.108v-.053Z" transform="translate(-16.363 -4.887)" fill="#a39c95"/>
        <path id="Trazado_890585" data-name="Trazado 890585" d="M55.011,16.7h.269v-.053l-.464-.108Z" transform="translate(-16.198 -4.887)" fill="#b5afa7"/>
        <path id="Trazado_890586" data-name="Trazado 890586" d="M54.815,16.592l.2.108v-.053l-.2-.108Z" transform="translate(-16.198 -4.887)" fill="#d8d1c7"/>
        <path id="Trazado_890587" data-name="Trazado 890587" d="M55.011,16.158l-.2.108v.161l.2.108h.269l.191-.108v-.161l-.191-.108Z" transform="translate(-16.198 -4.775)" fill="#e6e1dd"/>
        <path id="Trazado_890588" data-name="Trazado 890588" d="M57.85,18.031l.07.094.192-.1V17.96Z" transform="translate(-17.095 -5.307)" fill="#a39c95"/>
        <path id="Trazado_890589" data-name="Trazado 890589" d="M57.481,18.129l.275,0v-.052l-.462-.112Z" transform="translate(-16.93 -5.307)" fill="#b5afa7"/>
        <path id="Trazado_890590" data-name="Trazado 890590" d="M57.293,18.019l.187.109v-.056l-.187-.113Z" transform="translate(-16.93 -5.307)" fill="#d8d1c7"/>
        <path id="Trazado_890591" data-name="Trazado 890591" d="M57.481,17.586l-.187.111v.153l.187.113h.275l.192-.113V17.7l-.192-.111Z" transform="translate(-16.93 -5.197)" fill="#e6e1dd"/>
        <path id="Trazado_890592" data-name="Trazado 890592" d="M24.36,33.833l2.8,1.619L52.78,19.979,24.36,33.151Z" transform="translate(-7.198 -5.904)" fill="#d7a57f"/>
        <path id="Trazado_890593" data-name="Trazado 890593" d="M24.36,32.471l2.8,1.619L52.78,19.3l-2.8-1.619Z" transform="translate(-7.198 -5.225)" fill="#f7dfbb"/>
        <path id="Trazado_890594" data-name="Trazado 890594" d="M28.336,35.452,53.954,20.66v-.681L28.336,34.77Z" transform="translate(-8.373 -5.904)" fill="#ac7a54"/>
        <path id="Trazado_890595" data-name="Trazado 890595" d="M26.884,38.293l.069.1.188-.108v-.058Z" transform="translate(-7.944 -11.295)" fill="#a39c95"/>
        <path id="Trazado_890596" data-name="Trazado 890596" d="M26.515,38.389h.272v-.054l-.466-.112Z" transform="translate(-7.778 -11.295)" fill="#b5afa7"/>
        <path id="Trazado_890597" data-name="Trazado 890597" d="M26.32,38.281l.194.108v-.054l-.194-.112Z" transform="translate(-7.778 -11.295)" fill="#d8d1c7"/>
        <path id="Trazado_890598" data-name="Trazado 890598" d="M26.515,37.847l-.194.111v.154l.194.112h.272l.188-.112v-.154l-.188-.111Z" transform="translate(-7.778 -11.184)" fill="#e6e1dd"/>
        <path id="Trazado_890599" data-name="Trazado 890599" d="M29.358,39.722l.068.1.19-.112v-.056Z" transform="translate(-8.675 -11.718)" fill="#a39c95"/>
        <path id="Trazado_890600" data-name="Trazado 890600" d="M28.99,39.821h.27v-.058l-.464-.111Z" transform="translate(-8.509 -11.717)" fill="#b5afa7"/>
        <path id="Trazado_890601" data-name="Trazado 890601" d="M28.8,39.709l.194.112v-.058l-.194-.11Z" transform="translate(-8.509 -11.718)" fill="#d8d1c7"/>
        <path id="Trazado_890602" data-name="Trazado 890602" d="M28.99,39.277l-.194.107v.158l.194.111h.27l.19-.111v-.158l-.19-.107Z" transform="translate(-8.509 -11.606)" fill="#e6e1dd"/>
        <path id="Trazado_890603" data-name="Trazado 890603" d="M43.357,28.783l.068.092.188-.106v-.056Z" transform="translate(-12.812 -8.485)" fill="#a39c95"/>
        <path id="Trazado_890604" data-name="Trazado 890604" d="M42.986,28.876h.275v-.054l-.462-.108Z" transform="translate(-12.647 -8.485)" fill="#b5afa7"/>
        <path id="Trazado_890605" data-name="Trazado 890605" d="M42.8,28.77l.187.106,0-.053-.191-.109Z" transform="translate(-12.647 -8.485)" fill="#d8d1c7"/>
        <path id="Trazado_890606" data-name="Trazado 890606" d="M42.989,28.333l-.191.111V28.6l.191.108h.271l.188-.108v-.157l-.188-.111Z" transform="translate(-12.647 -8.372)" fill="#e6e1dd"/>
        <path id="Trazado_890607" data-name="Trazado 890607" d="M45.83,30.207l.07.1.191-.109v-.058Z" transform="translate(-13.543 -8.906)" fill="#a39c95"/>
        <path id="Trazado_890608" data-name="Trazado 890608" d="M45.461,30.306h.275v-.056l-.462-.113Z" transform="translate(-13.378 -8.906)" fill="#b5afa7"/>
        <path id="Trazado_890609" data-name="Trazado 890609" d="M45.274,30.2l.187.11V30.25l-.187-.112Z" transform="translate(-13.378 -8.906)" fill="#d8d1c7"/>
        <path id="Trazado_890610" data-name="Trazado 890610" d="M45.461,29.762l-.187.113v.152l.187.112h.275l.191-.112v-.152l-.191-.113Z" transform="translate(-13.378 -8.795)" fill="#e6e1dd"/>
        <path id="Trazado_890611" data-name="Trazado 890611" d="M59.911,19.224l.07.1.191-.109v-.053Z" transform="translate(-17.704 -5.661)" fill="#a39c95"/>
        <path id="Trazado_890612" data-name="Trazado 890612" d="M59.547,19.32h.27v-.054l-.464-.108Z" transform="translate(-17.539 -5.661)" fill="#b5afa7"/>
        <path id="Trazado_890613" data-name="Trazado 890613" d="M59.352,19.211l.194.109v-.054l-.194-.108Z" transform="translate(-17.539 -5.661)" fill="#d8d1c7"/>
        <path id="Trazado_890614" data-name="Trazado 890614" d="M59.547,18.777l-.194.108v.161l.194.108h.27l.19-.108v-.161l-.19-.108Z" transform="translate(-17.539 -5.549)" fill="#e6e1dd"/>
        <path id="Trazado_890615" data-name="Trazado 890615" d="M62.387,20.651l.069.094.192-.106V20.58Z" transform="translate(-18.435 -6.081)" fill="#a39c95"/>
        <path id="Trazado_890616" data-name="Trazado 890616" d="M62.018,20.748l.274,0v-.051l-.461-.113Z" transform="translate(-18.271 -6.081)" fill="#b5afa7"/>
        <path id="Trazado_890617" data-name="Trazado 890617" d="M61.831,20.639l.187.109v-.056l-.187-.112Z" transform="translate(-18.271 -6.081)" fill="#d8d1c7"/>
        <path id="Trazado_890618" data-name="Trazado 890618" d="M62.018,20.206l-.187.111v.153l.187.113h.274l.192-.113v-.153l-.192-.111Z" transform="translate(-18.271 -5.971)" fill="#e6e1dd"/>
        <path id="Trazado_890619" data-name="Trazado 890619" d="M28.9,36.451l2.8,1.62L57.317,22.6,28.9,35.769Z" transform="translate(-8.539 -6.677)" fill="#d7a57f"/>
        <path id="Trazado_890620" data-name="Trazado 890620" d="M28.9,35.09l2.8,1.619,25.62-14.792-2.8-1.618Z" transform="translate(-8.539 -5.999)" fill="#f7dfbb"/>
        <path id="Trazado_890621" data-name="Trazado 890621" d="M32.872,38.071,58.491,23.279V22.6L32.872,37.389Z" transform="translate(-9.714 -6.677)" fill="#ac7a54"/>
        <path id="Trazado_890622" data-name="Trazado 890622" d="M31.419,40.912l.069.094.19-.107v-.058Z" transform="translate(-9.284 -12.069)" fill="#a39c95"/>
        <path id="Trazado_890623" data-name="Trazado 890623" d="M31.052,41.007h.271v-.052l-.464-.113Z" transform="translate(-9.118 -12.069)" fill="#b5afa7"/>
        <path id="Trazado_890624" data-name="Trazado 890624" d="M30.857,40.9l.194.107v-.052l-.194-.113Z" transform="translate(-9.118 -12.069)" fill="#d8d1c7"/>
        <path id="Trazado_890625" data-name="Trazado 890625" d="M31.052,40.466l-.194.111v.154l.194.113h.271l.19-.113v-.154l-.19-.111Z" transform="translate(-9.118 -11.958)" fill="#e6e1dd"/>
        <path id="Trazado_890626" data-name="Trazado 890626" d="M33.895,42.341l.067.1.19-.113v-.055Z" transform="translate(-10.016 -12.491)" fill="#a39c95"/>
        <path id="Trazado_890627" data-name="Trazado 890627" d="M33.528,42.44H33.8v-.058l-.462-.111Z" transform="translate(-9.85 -12.491)" fill="#b5afa7"/>
        <path id="Trazado_890628" data-name="Trazado 890628" d="M33.334,42.327l.194.113v-.058l-.194-.11Z" transform="translate(-9.85 -12.492)" fill="#d8d1c7"/>
        <path id="Trazado_890629" data-name="Trazado 890629" d="M33.528,41.9,33.335,42v.158l.194.111H33.8l.19-.111V42L33.8,41.9Z" transform="translate(-9.85 -12.38)" fill="#e6e1dd"/>
        <path id="Trazado_890630" data-name="Trazado 890630" d="M47.894,31.4l.069.094.187-.106v-.056Z" transform="translate(-14.153 -9.259)" fill="#a39c95"/>
        <path id="Trazado_890631" data-name="Trazado 890631" d="M47.524,31.495H47.8v-.054l-.462-.108Z" transform="translate(-13.988 -9.259)" fill="#b5afa7"/>
        <path id="Trazado_890632" data-name="Trazado 890632" d="M47.335,31.388l.188.106,0-.054-.19-.109Z" transform="translate(-13.988 -9.259)" fill="#d8d1c7"/>
        <path id="Trazado_890633" data-name="Trazado 890633" d="M47.526,30.952l-.19.112v.156l.19.109H47.8l.187-.109v-.156l-.187-.112Z" transform="translate(-13.988 -9.146)" fill="#e6e1dd"/>
        <path id="Trazado_890634" data-name="Trazado 890634" d="M50.366,32.826l.07.1.192-.109v-.058Z" transform="translate(-14.883 -9.68)" fill="#a39c95"/>
        <path id="Trazado_890635" data-name="Trazado 890635" d="M50,32.925h.273V32.87l-.461-.113Z" transform="translate(-14.719 -9.68)" fill="#b5afa7"/>
        <path id="Trazado_890636" data-name="Trazado 890636" d="M49.811,32.816l.187.11v-.056l-.187-.112Z" transform="translate(-14.719 -9.68)" fill="#d8d1c7"/>
        <path id="Trazado_890637" data-name="Trazado 890637" d="M50,32.381l-.187.113v.152l.187.112h.273l.192-.112v-.152l-.192-.113Z" transform="translate(-14.719 -9.569)" fill="#e6e1dd"/>
        <path id="Trazado_890638" data-name="Trazado 890638" d="M64.448,21.843l.07.1.191-.108v-.052Z" transform="translate(-19.044 -6.435)" fill="#a39c95"/>
        <path id="Trazado_890639" data-name="Trazado 890639" d="M64.083,21.939h.27v-.053l-.464-.108Z" transform="translate(-18.879 -6.435)" fill="#b5afa7"/>
        <path id="Trazado_890640" data-name="Trazado 890640" d="M63.888,21.83l.194.108v-.053l-.194-.108Z" transform="translate(-18.879 -6.435)" fill="#d8d1c7"/>
        <path id="Trazado_890641" data-name="Trazado 890641" d="M64.083,21.4l-.194.108v.161l.194.108h.27l.191-.108V21.5l-.191-.108Z" transform="translate(-18.879 -6.322)" fill="#e6e1dd"/>
        <path id="Trazado_890642" data-name="Trazado 890642" d="M66.924,23.269l.068.093.193-.1V23.2Z" transform="translate(-19.776 -6.855)" fill="#a39c95"/>
        <path id="Trazado_890643" data-name="Trazado 890643" d="M66.554,23.367l.274,0v-.052l-.461-.112Z" transform="translate(-19.611 -6.855)" fill="#b5afa7"/>
        <path id="Trazado_890644" data-name="Trazado 890644" d="M66.367,23.257l.187.11v-.056l-.187-.113Z" transform="translate(-19.611 -6.855)" fill="#d8d1c7"/>
        <path id="Trazado_890645" data-name="Trazado 890645" d="M66.554,22.825l-.187.111v.153l.187.112h.274l.192-.112v-.153l-.192-.111Z" transform="translate(-19.611 -6.745)" fill="#e6e1dd"/>
        <path id="Trazado_890646" data-name="Trazado 890646" d="M33.433,39.071l2.8,1.62L61.852,25.217,33.433,38.389Z" transform="translate(-9.879 -7.452)" fill="#d7a57f"/>
        <path id="Trazado_890647" data-name="Trazado 890647" d="M33.433,37.71l2.8,1.619L61.852,24.538l-2.8-1.619Z" transform="translate(-9.879 -6.772)" fill="#f7dfbb"/>
        <path id="Trazado_890648" data-name="Trazado 890648" d="M37.408,40.69,63.027,25.9v-.682L37.408,40.008Z" transform="translate(-11.054 -7.452)" fill="#ac7a54"/>
        <path id="Trazado_890649" data-name="Trazado 890649" d="M35.956,43.532l.07.094.187-.107v-.058Z" transform="translate(-10.625 -12.843)" fill="#a39c95"/>
        <path id="Trazado_890650" data-name="Trazado 890650" d="M35.587,43.627h.273v-.053l-.467-.113Z" transform="translate(-10.459 -12.843)" fill="#b5afa7"/>
        <path id="Trazado_890651" data-name="Trazado 890651" d="M35.393,43.519l.194.107v-.053l-.194-.113Z" transform="translate(-10.458 -12.843)" fill="#d8d1c7"/>
        <path id="Trazado_890652" data-name="Trazado 890652" d="M35.587,43.085l-.194.111v.154l.194.113h.273l.187-.113V43.2l-.187-.111Z" transform="translate(-10.459 -12.732)" fill="#e6e1dd"/>
        <path id="Trazado_890653" data-name="Trazado 890653" d="M38.432,44.96l.067.1.19-.112v-.056Z" transform="translate(-11.357 -13.265)" fill="#a39c95"/>
        <path id="Trazado_890654" data-name="Trazado 890654" d="M38.064,45.059h.27V45l-.463-.11Z" transform="translate(-11.191 -13.266)" fill="#b5afa7"/>
        <path id="Trazado_890655" data-name="Trazado 890655" d="M37.871,44.947l.193.112V45l-.193-.11Z" transform="translate(-11.191 -13.265)" fill="#d8d1c7"/>
        <path id="Trazado_890656" data-name="Trazado 890656" d="M38.064,44.515l-.193.107v.158l.193.111h.27l.19-.111v-.158l-.19-.107Z" transform="translate(-11.191 -13.154)" fill="#e6e1dd"/>
        <path id="Trazado_890657" data-name="Trazado 890657" d="M52.43,34.022l.07.094.187-.108v-.055Z" transform="translate(-15.493 -10.033)" fill="#a39c95"/>
        <path id="Trazado_890658" data-name="Trazado 890658" d="M52.059,34.116h.275v-.054l-.463-.108Z" transform="translate(-15.328 -10.033)" fill="#b5afa7"/>
        <path id="Trazado_890659" data-name="Trazado 890659" d="M51.871,34.008l.187.108,0-.054-.191-.108Z" transform="translate(-15.328 -10.033)" fill="#d8d1c7"/>
        <path id="Trazado_890660" data-name="Trazado 890660" d="M52.062,33.571l-.191.112v.157l.191.108h.272l.187-.108v-.157l-.187-.112Z" transform="translate(-15.328 -9.92)" fill="#e6e1dd"/>
        <path id="Trazado_890661" data-name="Trazado 890661" d="M54.9,35.446l.069.1.192-.109v-.058Z" transform="translate(-16.224 -10.454)" fill="#a39c95"/>
        <path id="Trazado_890662" data-name="Trazado 890662" d="M54.534,35.545h.275v-.056l-.462-.112Z" transform="translate(-16.06 -10.454)" fill="#b5afa7"/>
        <path id="Trazado_890663" data-name="Trazado 890663" d="M54.347,35.435l.187.11v-.056l-.187-.112Z" transform="translate(-16.059 -10.454)" fill="#d8d1c7"/>
        <path id="Trazado_890664" data-name="Trazado 890664" d="M54.534,35l-.187.113v.153l.187.112h.275L55,35.266v-.153L54.809,35Z" transform="translate(-16.06 -10.343)" fill="#e6e1dd"/>
        <path id="Trazado_890665" data-name="Trazado 890665" d="M68.983,24.462l.071.1.191-.109V24.4Z" transform="translate(-20.385 -7.209)" fill="#a39c95"/>
        <path id="Trazado_890666" data-name="Trazado 890666" d="M68.621,24.558h.269V24.5l-.464-.108Z" transform="translate(-20.22 -7.209)" fill="#b5afa7"/>
        <path id="Trazado_890667" data-name="Trazado 890667" d="M68.426,24.449l.194.109V24.5l-.194-.108Z" transform="translate(-20.22 -7.209)" fill="#d8d1c7"/>
        <path id="Trazado_890668" data-name="Trazado 890668" d="M68.621,24.015l-.194.108v.161l.194.108h.269l.19-.108v-.161l-.19-.108Z" transform="translate(-20.22 -7.096)" fill="#e6e1dd"/>
        <path id="Trazado_890669" data-name="Trazado 890669" d="M71.46,25.889l.068.094.193-.106v-.058Z" transform="translate(-21.116 -7.63)" fill="#a39c95"/>
        <path id="Trazado_890670" data-name="Trazado 890670" d="M71.092,25.987l.272,0V25.93l-.459-.111Z" transform="translate(-20.952 -7.629)" fill="#b5afa7"/>
        <path id="Trazado_890671" data-name="Trazado 890671" d="M70.9,25.877l.187.11v-.056l-.187-.111Z" transform="translate(-20.952 -7.63)" fill="#d8d1c7"/>
        <path id="Trazado_890672" data-name="Trazado 890672" d="M71.092,25.444l-.187.111v.153l.187.111h.272l.193-.111v-.153l-.193-.111Z" transform="translate(-20.952 -7.519)" fill="#e6e1dd"/>
        <path id="Trazado_890673" data-name="Trazado 890673" d="M37.97,41.689l2.8,1.62L66.389,27.836,37.97,41.008Z" transform="translate(-11.22 -8.225)" fill="#d7a57f"/>
        <path id="Trazado_890674" data-name="Trazado 890674" d="M37.97,40.329l2.8,1.619L66.389,27.156l-2.8-1.618Z" transform="translate(-11.22 -7.546)" fill="#f7dfbb"/>
        <path id="Trazado_890675" data-name="Trazado 890675" d="M41.945,43.309,67.564,28.517v-.682L41.945,42.627Z" transform="translate(-12.395 -8.225)" fill="#ac7a54"/>
        <path id="Trazado_890676" data-name="Trazado 890676" d="M40.492,46.151l.069.094.189-.106v-.058Z" transform="translate(-11.965 -13.617)" fill="#a39c95"/>
        <path id="Trazado_890677" data-name="Trazado 890677" d="M40.124,46.245h.271v-.052l-.465-.112Z" transform="translate(-11.799 -13.617)" fill="#b5afa7"/>
        <path id="Trazado_890678" data-name="Trazado 890678" d="M39.929,46.139l.194.106v-.052l-.194-.112Z" transform="translate(-11.799 -13.617)" fill="#d8d1c7"/>
        <path id="Trazado_890679" data-name="Trazado 890679" d="M40.124,45.7l-.194.111v.154l.194.112h.271l.189-.112v-.154l-.189-.111Z" transform="translate(-11.799 -13.506)" fill="#e6e1dd"/>
        <path id="Trazado_890680" data-name="Trazado 890680" d="M42.967,47.58l.068.1.19-.113v-.054Z" transform="translate(-12.697 -14.04)" fill="#a39c95"/>
        <path id="Trazado_890681" data-name="Trazado 890681" d="M42.6,47.678h.269v-.057l-.463-.111Z" transform="translate(-12.531 -14.039)" fill="#b5afa7"/>
        <path id="Trazado_890682" data-name="Trazado 890682" d="M42.406,47.566l.194.113v-.057l-.194-.11Z" transform="translate(-12.531 -14.04)" fill="#d8d1c7"/>
        <path id="Trazado_890683" data-name="Trazado 890683" d="M42.6,47.134l-.194.108V47.4l.194.111h.269l.19-.111v-.158l-.19-.108Z" transform="translate(-12.531 -13.928)" fill="#e6e1dd"/>
        <path id="Trazado_890684" data-name="Trazado 890684" d="M56.965,36.64l.07.094.187-.106v-.056Z" transform="translate(-16.833 -10.807)" fill="#a39c95"/>
        <path id="Trazado_890685" data-name="Trazado 890685" d="M56.6,36.734h.275V36.68l-.462-.109Z" transform="translate(-16.669 -10.807)" fill="#b5afa7"/>
        <path id="Trazado_890686" data-name="Trazado 890686" d="M56.409,36.627l.187.106,0-.054-.19-.109Z" transform="translate(-16.669 -10.807)" fill="#d8d1c7"/>
        <path id="Trazado_890687" data-name="Trazado 890687" d="M56.6,36.19l-.19.111v.157l.19.109h.271l.187-.109V36.3l-.187-.111Z" transform="translate(-16.669 -10.694)" fill="#e6e1dd"/>
        <path id="Trazado_890688" data-name="Trazado 890688" d="M59.44,38.064l.069.1.192-.109V38Z" transform="translate(-17.565 -11.228)" fill="#a39c95"/>
        <path id="Trazado_890689" data-name="Trazado 890689" d="M59.071,38.164h.274v-.056L58.884,38Z" transform="translate(-17.4 -11.228)" fill="#b5afa7"/>
        <path id="Trazado_890690" data-name="Trazado 890690" d="M58.883,38.054l.187.11v-.056L58.883,38Z" transform="translate(-17.4 -11.228)" fill="#d8d1c7"/>
        <path id="Trazado_890691" data-name="Trazado 890691" d="M59.071,37.619l-.187.112v.154l.187.112h.274l.192-.112v-.154l-.192-.112Z" transform="translate(-17.4 -11.116)" fill="#e6e1dd"/>
        <path id="Trazado_890692" data-name="Trazado 890692" d="M73.52,27.081l.071.1.191-.109v-.053Z" transform="translate(-21.725 -7.983)" fill="#a39c95"/>
        <path id="Trazado_890693" data-name="Trazado 890693" d="M73.157,27.177h.269v-.054l-.464-.108Z" transform="translate(-21.56 -7.983)" fill="#b5afa7"/>
        <path id="Trazado_890694" data-name="Trazado 890694" d="M72.961,27.068l.2.109v-.054l-.2-.108Z" transform="translate(-21.56 -7.983)" fill="#d8d1c7"/>
        <path id="Trazado_890695" data-name="Trazado 890695" d="M73.157,26.635l-.2.108V26.9l.2.108h.269l.191-.108v-.161l-.191-.108Z" transform="translate(-21.56 -7.871)" fill="#e6e1dd"/>
        <path id="Trazado_890696" data-name="Trazado 890696" d="M76,28.507l.069.094.192-.1v-.058Z" transform="translate(-22.457 -8.403)" fill="#a39c95"/>
        <path id="Trazado_890697" data-name="Trazado 890697" d="M75.628,28.606l.274,0v-.052l-.461-.111Z" transform="translate(-22.293 -8.403)" fill="#b5afa7"/>
        <path id="Trazado_890698" data-name="Trazado 890698" d="M75.441,28.5l.187.11v-.056l-.187-.112Z" transform="translate(-22.293 -8.403)" fill="#d8d1c7"/>
        <path id="Trazado_890699" data-name="Trazado 890699" d="M75.628,28.064l-.187.11v.154l.187.111H75.9l.192-.111v-.154l-.192-.11Z" transform="translate(-22.293 -8.293)" fill="#e6e1dd"/>
        <path id="Trazado_890700" data-name="Trazado 890700" d="M42.507,44.309l2.8,1.62L70.926,30.455,42.507,43.627Z" transform="translate(-12.561 -8.999)" fill="#d7a57f"/>
        <path id="Trazado_890701" data-name="Trazado 890701" d="M42.507,42.948l2.8,1.62L70.926,29.776l-2.8-1.618Z" transform="translate(-12.561 -8.321)" fill="#f7dfbb"/>
        <path id="Trazado_890702" data-name="Trazado 890702" d="M46.481,45.929,72.1,31.137v-.682L46.481,45.247Z" transform="translate(-13.735 -8.999)" fill="#ac7a54"/>
        <path id="Trazado_890703" data-name="Trazado 890703" d="M45.03,48.77l.069.094.188-.107V48.7Z" transform="translate(-13.306 -14.391)" fill="#a39c95"/>
        <path id="Trazado_890704" data-name="Trazado 890704" d="M44.661,48.865h.271v-.052l-.465-.113Z" transform="translate(-13.14 -14.391)" fill="#b5afa7"/>
        <path id="Trazado_890705" data-name="Trazado 890705" d="M44.467,48.758l.194.107v-.052l-.194-.113Z" transform="translate(-13.14 -14.391)" fill="#d8d1c7"/>
        <path id="Trazado_890706" data-name="Trazado 890706" d="M44.661,48.323l-.194.111v.154l.194.113h.271l.188-.113v-.154l-.188-.111Z" transform="translate(-13.14 -14.279)" fill="#e6e1dd"/>
        <path id="Trazado_890707" data-name="Trazado 890707" d="M47.5,50.2l.068.1.189-.113V50.13Z" transform="translate(-14.037 -14.813)" fill="#a39c95"/>
        <path id="Trazado_890708" data-name="Trazado 890708" d="M47.136,50.3h.27V50.24l-.464-.109Z" transform="translate(-13.872 -14.814)" fill="#b5afa7"/>
        <path id="Trazado_890709" data-name="Trazado 890709" d="M46.943,50.185l.194.113V50.24l-.194-.109Z" transform="translate(-13.872 -14.814)" fill="#d8d1c7"/>
        <path id="Trazado_890710" data-name="Trazado 890710" d="M47.136,49.753l-.194.108v.158l.194.11h.27l.19-.11v-.158l-.19-.108Z" transform="translate(-13.872 -14.702)" fill="#e6e1dd"/>
        <path id="Trazado_890711" data-name="Trazado 890711" d="M61.5,39.259l.068.094.187-.108V39.19Z" transform="translate(-18.174 -11.581)" fill="#a39c95"/>
        <path id="Trazado_890712" data-name="Trazado 890712" d="M61.132,39.353h.275V39.3l-.462-.109Z" transform="translate(-18.009 -11.581)" fill="#b5afa7"/>
        <path id="Trazado_890713" data-name="Trazado 890713" d="M60.945,39.246l.187.108,0-.054-.191-.109Z" transform="translate(-18.009 -11.581)" fill="#d8d1c7"/>
        <path id="Trazado_890714" data-name="Trazado 890714" d="M61.136,38.81l-.191.111v.156l.191.109h.271l.187-.109v-.156l-.187-.111Z" transform="translate(-18.009 -11.468)" fill="#e6e1dd"/>
        <path id="Trazado_890715" data-name="Trazado 890715" d="M63.977,40.684l.07.1.19-.11v-.057Z" transform="translate(-18.905 -12.002)" fill="#a39c95"/>
        <path id="Trazado_890716" data-name="Trazado 890716" d="M63.607,40.783h.275v-.056l-.464-.111Z" transform="translate(-18.74 -12.002)" fill="#b5afa7"/>
        <path id="Trazado_890717" data-name="Trazado 890717" d="M63.418,40.673l.188.111v-.056l-.188-.111Z" transform="translate(-18.74 -12.002)" fill="#d8d1c7"/>
        <path id="Trazado_890718" data-name="Trazado 890718" d="M63.607,40.239l-.188.113V40.5l.188.111h.275l.19-.111v-.153l-.19-.113Z" transform="translate(-18.74 -11.891)" fill="#e6e1dd"/>
        <path id="Trazado_890719" data-name="Trazado 890719" d="M78.057,29.7l.07.1.192-.11v-.053Z" transform="translate(-23.066 -8.757)" fill="#a39c95"/>
        <path id="Trazado_890720" data-name="Trazado 890720" d="M77.694,29.8h.268v-.054l-.464-.108Z" transform="translate(-22.901 -8.757)" fill="#b5afa7"/>
        <path id="Trazado_890721" data-name="Trazado 890721" d="M77.5,29.687l.2.11v-.054l-.2-.109Z" transform="translate(-22.901 -8.757)" fill="#d8d1c7"/>
        <path id="Trazado_890722" data-name="Trazado 890722" d="M77.694,29.254l-.2.108v.161l.2.108h.268l.192-.108v-.161l-.192-.108Z" transform="translate(-22.901 -8.644)" fill="#e6e1dd"/>
        <path id="Trazado_890723" data-name="Trazado 890723" d="M80.532,31.128l.07.094.193-.106v-.058Z" transform="translate(-23.797 -9.177)" fill="#a39c95"/>
        <path id="Trazado_890724" data-name="Trazado 890724" d="M80.164,31.225l.273,0v-.053l-.461-.112Z" transform="translate(-23.633 -9.177)" fill="#b5afa7"/>
        <path id="Trazado_890725" data-name="Trazado 890725" d="M79.977,31.116l.187.11v-.056l-.187-.112Z" transform="translate(-23.633 -9.177)" fill="#d8d1c7"/>
        <path id="Trazado_890726" data-name="Trazado 890726" d="M80.164,30.683l-.187.11v.154l.187.112h.273l.192-.112v-.154l-.192-.11Z" transform="translate(-23.633 -9.067)" fill="#e6e1dd"/>
        <path id="Trazado_890727" data-name="Trazado 890727" d="M47.044,46.928l2.8,1.62L75.463,33.074,47.044,46.246Z" transform="translate(-13.901 -9.773)" fill="#d7a57f"/>
        <path id="Trazado_890728" data-name="Trazado 890728" d="M47.044,45.567l2.8,1.62L75.463,32.395l-2.8-1.618Z" transform="translate(-13.901 -9.094)" fill="#f7dfbb"/>
        <path id="Trazado_890729" data-name="Trazado 890729" d="M51.018,48.547,76.637,33.756v-.682L51.018,47.865Z" transform="translate(-15.076 -9.773)" fill="#ac7a54"/>
        <path id="Trazado_890730" data-name="Trazado 890730" d="M49.566,51.389l.068.1.19-.108v-.057Z" transform="translate(-14.647 -15.165)" fill="#a39c95"/>
        <path id="Trazado_890731" data-name="Trazado 890731" d="M49.2,51.484h.271v-.053L49,51.319Z" transform="translate(-14.481 -15.165)" fill="#b5afa7"/>
        <path id="Trazado_890732" data-name="Trazado 890732" d="M49,51.376l.194.108v-.053L49,51.319Z" transform="translate(-14.48 -15.165)" fill="#d8d1c7"/>
        <path id="Trazado_890733" data-name="Trazado 890733" d="M49.2,50.943,49,51.053v.154l.194.112h.271l.19-.112v-.154l-.19-.111Z" transform="translate(-14.481 -15.054)" fill="#e6e1dd"/>
        <path id="Trazado_890734" data-name="Trazado 890734" d="M52.04,52.818l.068.1.19-.113v-.055Z" transform="translate(-15.378 -15.587)" fill="#a39c95"/>
        <path id="Trazado_890735" data-name="Trazado 890735" d="M51.673,52.917h.269v-.058l-.463-.111Z" transform="translate(-15.212 -15.587)" fill="#b5afa7"/>
        <path id="Trazado_890736" data-name="Trazado 890736" d="M51.48,52.8l.194.113v-.058l-.194-.11Z" transform="translate(-15.212 -15.587)" fill="#d8d1c7"/>
        <path id="Trazado_890737" data-name="Trazado 890737" d="M51.673,52.373l-.194.107v.158l.194.111h.269l.19-.111V52.48l-.19-.107Z" transform="translate(-15.212 -15.476)" fill="#e6e1dd"/>
        <path id="Trazado_890738" data-name="Trazado 890738" d="M66.039,41.878l.068.094.187-.107v-.056Z" transform="translate(-19.515 -12.354)" fill="#a39c95"/>
        <path id="Trazado_890739" data-name="Trazado 890739" d="M65.67,41.972h.273v-.054l-.461-.109Z" transform="translate(-19.35 -12.355)" fill="#b5afa7"/>
        <path id="Trazado_890740" data-name="Trazado 890740" d="M65.482,41.865l.187.107,0-.054-.191-.109Z" transform="translate(-19.35 -12.355)" fill="#d8d1c7"/>
        <path id="Trazado_890741" data-name="Trazado 890741" d="M65.673,41.428l-.191.112V41.7l.191.108h.27l.187-.108V41.54l-.187-.112Z" transform="translate(-19.35 -12.242)" fill="#e6e1dd"/>
        <path id="Trazado_890742" data-name="Trazado 890742" d="M68.512,43.3l.07.1.191-.11v-.058Z" transform="translate(-20.245 -12.776)" fill="#a39c95"/>
        <path id="Trazado_890743" data-name="Trazado 890743" d="M68.144,43.4h.274v-.056l-.461-.113Z" transform="translate(-20.081 -12.776)" fill="#b5afa7"/>
        <path id="Trazado_890744" data-name="Trazado 890744" d="M67.956,43.292l.187.111v-.056l-.187-.112Z" transform="translate(-20.081 -12.776)" fill="#d8d1c7"/>
        <path id="Trazado_890745" data-name="Trazado 890745" d="M68.144,42.857l-.187.113v.153l.187.112h.274l.191-.112V42.97l-.191-.113Z" transform="translate(-20.081 -12.664)" fill="#e6e1dd"/>
        <path id="Trazado_890746" data-name="Trazado 890746" d="M82.594,32.319l.07.1.192-.109v-.053Z" transform="translate(-24.407 -9.531)" fill="#a39c95"/>
        <path id="Trazado_890747" data-name="Trazado 890747" d="M82.229,32.416H82.5v-.054l-.464-.108Z" transform="translate(-24.241 -9.531)" fill="#b5afa7"/>
        <path id="Trazado_890748" data-name="Trazado 890748" d="M82.034,32.307l.2.109v-.054l-.2-.108Z" transform="translate(-24.241 -9.531)" fill="#d8d1c7"/>
        <path id="Trazado_890749" data-name="Trazado 890749" d="M82.229,31.873l-.2.108v.161l.2.108H82.5l.191-.108V31.98l-.191-.108Z" transform="translate(-24.241 -9.418)" fill="#e6e1dd"/>
        <path id="Trazado_890750" data-name="Trazado 890750" d="M85.071,33.746l.068.094.193-.1v-.059Z" transform="translate(-25.138 -9.951)" fill="#a39c95"/>
        <path id="Trazado_890751" data-name="Trazado 890751" d="M84.7,33.844l.274,0v-.052l-.461-.112Z" transform="translate(-24.974 -9.951)" fill="#b5afa7"/>
        <path id="Trazado_890752" data-name="Trazado 890752" d="M84.513,33.734l.187.11v-.056l-.187-.113Z" transform="translate(-24.974 -9.951)" fill="#d8d1c7"/>
        <path id="Trazado_890753" data-name="Trazado 890753" d="M84.7,33.3l-.187.11v.153l.187.113h.274l.192-.113v-.153l-.192-.11Z" transform="translate(-24.974 -9.841)" fill="#e6e1dd"/>
        <path id="Trazado_890754" data-name="Trazado 890754" d="M51.579,49.547l2.8,1.619L80,35.693,51.579,48.865Z" transform="translate(-15.242 -10.547)" fill="#d7a57f"/>
        <path id="Trazado_890755" data-name="Trazado 890755" d="M51.579,48.186l2.8,1.62L80,35.015,77.2,33.4Z" transform="translate(-15.242 -9.868)" fill="#f7dfbb"/>
        <path id="Trazado_890756" data-name="Trazado 890756" d="M55.554,51.167,81.173,36.376v-.682L55.554,50.485Z" transform="translate(-16.416 -10.548)" fill="#ac7a54"/>
        <path id="Trazado_890757" data-name="Trazado 890757" d="M54.1,54.009l.07.094L54.36,54v-.057Z" transform="translate(-15.987 -15.939)" fill="#a39c95"/>
        <path id="Trazado_890758" data-name="Trazado 890758" d="M53.733,54.1h.272v-.052l-.466-.112Z" transform="translate(-15.821 -15.939)" fill="#b5afa7"/>
        <path id="Trazado_890759" data-name="Trazado 890759" d="M53.539,54l.194.107v-.052l-.194-.112Z" transform="translate(-15.821 -15.939)" fill="#d8d1c7"/>
        <path id="Trazado_890760" data-name="Trazado 890760" d="M53.733,53.561l-.194.111v.155l.194.112h.272l.189-.112v-.155l-.189-.111Z" transform="translate(-15.821 -15.827)" fill="#e6e1dd"/>
        <path id="Trazado_890761" data-name="Trazado 890761" d="M56.577,55.438l.068.1.19-.113v-.054Z" transform="translate(-16.718 -16.362)" fill="#a39c95"/>
        <path id="Trazado_890762" data-name="Trazado 890762" d="M56.209,55.536h.27v-.058l-.461-.11Z" transform="translate(-16.553 -16.361)" fill="#b5afa7"/>
        <path id="Trazado_890763" data-name="Trazado 890763" d="M56.018,55.424l.192.113v-.058l-.192-.109Z" transform="translate(-16.553 -16.362)" fill="#d8d1c7"/>
        <path id="Trazado_890764" data-name="Trazado 890764" d="M56.209,54.992l-.192.108v.158l.192.11h.27l.19-.11V55.1l-.19-.108Z" transform="translate(-16.553 -16.25)" fill="#e6e1dd"/>
        <path id="Trazado_890765" data-name="Trazado 890765" d="M70.576,44.5l.068.094.188-.107v-.056Z" transform="translate(-20.855 -13.129)" fill="#a39c95"/>
        <path id="Trazado_890766" data-name="Trazado 890766" d="M70.205,44.592h.275v-.054l-.462-.108Z" transform="translate(-20.69 -13.129)" fill="#b5afa7"/>
        <path id="Trazado_890767" data-name="Trazado 890767" d="M70.018,44.484l.187.107,0-.054-.19-.109Z" transform="translate(-20.69 -13.129)" fill="#d8d1c7"/>
        <path id="Trazado_890768" data-name="Trazado 890768" d="M70.208,44.049l-.19.111v.156l.19.109h.271l.188-.109V44.16l-.188-.111Z" transform="translate(-20.69 -13.016)" fill="#e6e1dd"/>
        <path id="Trazado_890769" data-name="Trazado 890769" d="M73.049,45.922l.07.1.192-.11v-.058Z" transform="translate(-21.586 -13.55)" fill="#a39c95"/>
        <path id="Trazado_890770" data-name="Trazado 890770" d="M72.68,46.021h.275v-.056l-.462-.113Z" transform="translate(-21.422 -13.55)" fill="#b5afa7"/>
        <path id="Trazado_890771" data-name="Trazado 890771" d="M72.492,45.911l.187.111v-.056l-.187-.112Z" transform="translate(-21.422 -13.55)" fill="#d8d1c7"/>
        <path id="Trazado_890772" data-name="Trazado 890772" d="M72.68,45.477l-.187.113v.152l.187.112h.275l.191-.112V45.59l-.191-.113Z" transform="translate(-21.422 -13.439)" fill="#e6e1dd"/>
        <path id="Trazado_890773" data-name="Trazado 890773" d="M87.13,34.939l.07.1.191-.109v-.052Z" transform="translate(-25.747 -10.305)" fill="#a39c95"/>
        <path id="Trazado_890774" data-name="Trazado 890774" d="M86.766,35.035h.269v-.054l-.464-.108Z" transform="translate(-25.582 -10.305)" fill="#b5afa7"/>
        <path id="Trazado_890775" data-name="Trazado 890775" d="M86.571,34.926l.2.109v-.054l-.2-.108Z" transform="translate(-25.582 -10.305)" fill="#d8d1c7"/>
        <path id="Trazado_890776" data-name="Trazado 890776" d="M86.766,34.493l-.2.107v.162l.2.108h.269l.19-.108V34.6l-.19-.107Z" transform="translate(-25.582 -10.193)" fill="#e6e1dd"/>
        <path id="Trazado_890777" data-name="Trazado 890777" d="M89.607,36.366l.068.094.193-.106V36.3Z" transform="translate(-26.479 -10.725)" fill="#a39c95"/>
        <path id="Trazado_890778" data-name="Trazado 890778" d="M89.237,36.463l.273,0v-.053l-.461-.112Z" transform="translate(-26.314 -10.725)" fill="#b5afa7"/>
        <path id="Trazado_890779" data-name="Trazado 890779" d="M89.05,36.354l.187.109v-.056L89.05,36.3Z" transform="translate(-26.314 -10.725)" fill="#d8d1c7"/>
        <path id="Trazado_890780" data-name="Trazado 890780" d="M89.237,35.921l-.187.111v.153l.187.112h.273l.192-.112v-.153l-.192-.111Z" transform="translate(-26.314 -10.615)" fill="#e6e1dd"/>
        <path id="Trazado_890781" data-name="Trazado 890781" d="M56.116,52.166l2.8,1.62L84.535,38.312,56.116,51.484Z" transform="translate(-16.582 -11.321)" fill="#d7a57f"/>
        <path id="Trazado_890782" data-name="Trazado 890782" d="M56.116,50.805l2.8,1.62L84.535,37.634l-2.8-1.619Z" transform="translate(-16.582 -10.642)" fill="#f7dfbb"/>
        <path id="Trazado_890783" data-name="Trazado 890783" d="M60.091,53.786,85.709,38.994v-.681L60.091,53.1Z" transform="translate(-17.757 -11.321)" fill="#ac7a54"/>
        <path id="Trazado_890784" data-name="Trazado 890784" d="M58.638,56.627l.07.1.188-.107v-.058Z" transform="translate(-17.327 -16.713)" fill="#a39c95"/>
        <path id="Trazado_890785" data-name="Trazado 890785" d="M58.27,56.722h.271V56.67l-.466-.113Z" transform="translate(-17.161 -16.713)" fill="#b5afa7"/>
        <path id="Trazado_890786" data-name="Trazado 890786" d="M58.075,56.615l.194.107V56.67l-.194-.113Z" transform="translate(-17.161 -16.713)" fill="#d8d1c7"/>
        <path id="Trazado_890787" data-name="Trazado 890787" d="M58.27,56.181l-.194.111v.154l.194.113h.271l.188-.113v-.154l-.188-.111Z" transform="translate(-17.161 -16.601)" fill="#e6e1dd"/>
        <path id="Trazado_890788" data-name="Trazado 890788" d="M61.113,58.056l.068.1.19-.113v-.055Z" transform="translate(-18.059 -17.135)" fill="#a39c95"/>
        <path id="Trazado_890789" data-name="Trazado 890789" d="M60.746,58.156h.269V58.1l-.462-.11Z" transform="translate(-17.894 -17.135)" fill="#b5afa7"/>
        <path id="Trazado_890790" data-name="Trazado 890790" d="M60.554,58.042l.193.113V58.1l-.193-.11Z" transform="translate(-17.894 -17.135)" fill="#d8d1c7"/>
        <path id="Trazado_890791" data-name="Trazado 890791" d="M60.746,57.612l-.193.107v.157l.193.111h.269l.19-.111v-.157l-.19-.107Z" transform="translate(-17.894 -17.024)" fill="#e6e1dd"/>
        <path id="Trazado_890792" data-name="Trazado 890792" d="M75.111,47.117l.07.094.187-.107v-.056Z" transform="translate(-22.195 -13.903)" fill="#a39c95"/>
        <path id="Trazado_890793" data-name="Trazado 890793" d="M74.743,47.211h.274v-.054l-.461-.109Z" transform="translate(-22.031 -13.903)" fill="#b5afa7"/>
        <path id="Trazado_890794" data-name="Trazado 890794" d="M74.555,47.1l.187.107,0-.054-.19-.109Z" transform="translate(-22.031 -13.903)" fill="#d8d1c7"/>
        <path id="Trazado_890795" data-name="Trazado 890795" d="M74.745,46.667l-.19.111v.157l.19.109h.271l.187-.109v-.157l-.187-.111Z" transform="translate(-22.031 -13.79)" fill="#e6e1dd"/>
        <path id="Trazado_890796" data-name="Trazado 890796" d="M77.586,48.541l.069.1.192-.109v-.058Z" transform="translate(-22.927 -14.324)" fill="#a39c95"/>
        <path id="Trazado_890797" data-name="Trazado 890797" d="M77.217,48.64h.274v-.056l-.461-.112Z" transform="translate(-22.762 -14.324)" fill="#b5afa7"/>
        <path id="Trazado_890798" data-name="Trazado 890798" d="M77.029,48.531l.187.11v-.056l-.187-.113Z" transform="translate(-22.762 -14.324)" fill="#d8d1c7"/>
        <path id="Trazado_890799" data-name="Trazado 890799" d="M77.217,48.1l-.187.113v.152l.187.113h.274l.192-.113v-.152l-.192-.113Z" transform="translate(-22.762 -14.212)" fill="#e6e1dd"/>
        <path id="Trazado_890800" data-name="Trazado 890800" d="M91.666,37.558l.071.1.19-.109v-.053Z" transform="translate(-27.087 -11.079)" fill="#a39c95"/>
        <path id="Trazado_890801" data-name="Trazado 890801" d="M91.3,37.654h.269V37.6l-.466-.108Z" transform="translate(-26.922 -11.079)" fill="#b5afa7"/>
        <path id="Trazado_890802" data-name="Trazado 890802" d="M91.106,37.545l.2.109V37.6l-.2-.108Z" transform="translate(-26.922 -11.079)" fill="#d8d1c7"/>
        <path id="Trazado_890803" data-name="Trazado 890803" d="M91.3,37.111l-.2.108v.161l.2.108h.269l.19-.108v-.161l-.19-.108Z" transform="translate(-26.922 -10.966)" fill="#e6e1dd"/>
        <path id="Trazado_890804" data-name="Trazado 890804" d="M94.144,38.984l.068.094.193-.106v-.059Z" transform="translate(-27.819 -11.499)" fill="#a39c95"/>
        <path id="Trazado_890805" data-name="Trazado 890805" d="M93.772,39.082l.275,0v-.053l-.462-.112Z" transform="translate(-27.654 -11.499)" fill="#b5afa7"/>
        <path id="Trazado_890806" data-name="Trazado 890806" d="M93.586,38.972l.187.11v-.056l-.187-.113Z" transform="translate(-27.655 -11.499)" fill="#d8d1c7"/>
        <path id="Trazado_890807" data-name="Trazado 890807" d="M93.772,38.54l-.187.111V38.8l.187.112h.275l.192-.112v-.153l-.192-.111Z" transform="translate(-27.654 -11.389)" fill="#e6e1dd"/>
        <path id="Trazado_890808" data-name="Trazado 890808" d="M11.578,21.655l3.006-2.629,3.01-.142,2.514-2.221,1.2-2.335L19.8,12.841l-.136-1.726.551-1.892,2.55-1.429,2.123-1.845L27.7,4.6l2.5-.873,3.425,1.809L38.6,7.325l3.835,3.47,2.659,1.277,3.733,1.417,3.035,2.191,2.632,2.066,3.2,1.542,3.624,1.648,3.2,2.125,3.753,2.066,1.746,2.663L45.89,42.609,12.377,23.094Z" transform="translate(-3.421 -1.1)" fill="#693121"/>
        <path id="Trazado_890809" data-name="Trazado 890809" d="M36.59,10.834l-.287.287v.406l.287.288H37l.287-.288v-.406L37,10.834Z" transform="translate(-10.728 -3.201)" fill="#944e39"/>
        <path id="Trazado_890810" data-name="Trazado 890810" d="M47.388,13.761l-.287.287v.406l.287.288h.406l.287-.288v-.406l-.287-.287Z" transform="translate(-13.918 -4.066)" fill="#944e39"/>
        <path id="Trazado_890811" data-name="Trazado 890811" d="M42.924,8.805l-.287.287V9.5l.287.288h.406l.287-.288V9.093l-.287-.287Z" transform="translate(-12.599 -2.602)" fill="#944e39"/>
        <path id="Trazado_890812" data-name="Trazado 890812" d="M33.334,22.649l-.287.287v.406l.287.288h.406l.287-.288v-.406l-.287-.287Z" transform="translate(-9.765 -6.693)" fill="#944e39"/>
        <path id="Trazado_890813" data-name="Trazado 890813" d="M31.912,17.772l-.287.287v.406l.287.288h.406l.287-.288v-.406l-.287-.287Z" transform="translate(-9.345 -5.252)" fill="#944e39"/>
        <path id="Trazado_890814" data-name="Trazado 890814" d="M33.024,32.7l-.287.287v.406l.287.287h.406l.287-.287v-.406L33.43,32.7Z" transform="translate(-9.674 -9.663)" fill="#944e39"/>
        <path id="Trazado_890815" data-name="Trazado 890815" d="M22.739,28.15l-.287.287v.406l.287.288h.406l.287-.288v-.406l-.287-.287Z" transform="translate(-6.635 -8.318)" fill="#944e39"/>
        <path id="Trazado_890816" data-name="Trazado 890816" d="M46.808,27.367l-.287.287v.406l.287.288h.406l.287-.288v-.406l-.287-.287Z" transform="translate(-13.747 -8.087)" fill="#944e39"/>
        <path id="Trazado_890817" data-name="Trazado 890817" d="M41.728,20l-.287.287V20.7l.287.288h.406l.287-.288V20.29L42.134,20Z" transform="translate(-12.246 -5.911)" fill="#944e39"/>
        <path id="Trazado_890818" data-name="Trazado 890818" d="M53.595,19.51l-.287.287V20.2l.287.288H54l.287-.288V19.8L54,19.51Z" transform="translate(-15.752 -5.765)" fill="#944e39"/>
        <path id="Trazado_890819" data-name="Trazado 890819" d="M55.881,27.139l-.287.287v.406l.287.288h.406l.287-.288v-.406l-.287-.287Z" transform="translate(-16.428 -8.02)" fill="#944e39"/>
        <path id="Trazado_890820" data-name="Trazado 890820" d="M44.122,31.685l-.287.287v.406l.287.288h.406l.287-.288v-.406l-.287-.287Z" transform="translate(-12.953 -9.363)" fill="#944e39"/>
        <path id="Trazado_890821" data-name="Trazado 890821" d="M42.135,39.543l-.287.287v.406l.287.288h.406l.287-.288V39.83l-.287-.287Z" transform="translate(-12.366 -11.685)" fill="#944e39"/>
        <path id="Trazado_890822" data-name="Trazado 890822" d="M42.924,42.925l-.287.287v.406l.287.288h.406l.287-.288v-.406l-.287-.287Z" transform="translate(-12.599 -12.684)" fill="#944e39"/>
        <path id="Trazado_890823" data-name="Trazado 890823" d="M55.338,36.106l-.287.287V36.8l.287.288h.406l.287-.288v-.406l-.287-.287Z" transform="translate(-16.268 -10.669)" fill="#944e39"/>
        <path id="Trazado_890824" data-name="Trazado 890824" d="M70.07,34.8l-.287.287v.406l.287.288h.406l.287-.288v-.406l-.287-.287Z" transform="translate(-20.621 -10.284)" fill="#944e39"/>
        <path id="Trazado_890825" data-name="Trazado 890825" d="M67.548,26.823l-.287.287v.406l.287.288h.406l.287-.288V27.11l-.287-.287Z" transform="translate(-19.876 -7.926)" fill="#944e39"/>
        <path id="Trazado_890826" data-name="Trazado 890826" d="M62.35,31.251l-.287.287v.406l.287.288h.406l.287-.288v-.406l-.287-.287Z" transform="translate(-18.34 -9.235)" fill="#944e39"/>
        <path id="Trazado_890827" data-name="Trazado 890827" d="M78.979,30.723l-.287.287v.406l.287.288h.406l.287-.288V31.01l-.287-.287Z" transform="translate(-23.254 -9.079)" fill="#944e39"/>
        <path id="Trazado_890828" data-name="Trazado 890828" d="M81.626,38.37l-.287.287v.406l.287.288h.406l.287-.288v-.406l-.287-.287Z" transform="translate(-24.035 -11.338)" fill="#944e39"/>
        <path id="Trazado_890829" data-name="Trazado 890829" d="M76.285,38.381,76,38.668v.406l.287.288h.406l.287-.288v-.406l-.287-.287Z" transform="translate(-22.457 -11.342)" fill="#944e39"/>
        <path id="Trazado_890830" data-name="Trazado 890830" d="M61.457,44.2l-.287.287v.406l.287.288h.406l.287-.288v-.406l-.287-.287Z" transform="translate(-18.076 -13.06)" fill="#944e39"/>
        <path id="Trazado_890831" data-name="Trazado 890831" d="M53.091,43.359l-.287.287v.406l.287.288H53.5l.287-.288v-.406l-.287-.287Z" transform="translate(-15.604 -12.813)" fill="#944e39"/>
        <path id="Trazado_890832" data-name="Trazado 890832" d="M59.485,51.676l-.287.287v.406l.287.288h.406l.287-.288v-.406l-.287-.287Z" transform="translate(-17.493 -15.27)" fill="#944e39"/>
        <path id="Trazado_890833" data-name="Trazado 890833" d="M68.1,45.656l-.287.287v.406l.287.288h.406l.287-.288v-.406l-.287-.287Z" transform="translate(-20.04 -13.491)" fill="#944e39"/>
        <path id="Trazado_890834" data-name="Trazado 890834" d="M65.812,39.543l-.287.287v.406l.287.288h.406l.287-.288V39.83l-.287-.287Z" transform="translate(-19.363 -11.685)" fill="#944e39"/>
        <path id="Trazado_890835" data-name="Trazado 890835" d="M64.355,43.621l-.135.135v.192l.135.134h.192l.135-.134v-.192l-.135-.135Z" transform="translate(-18.977 -12.89)" fill="#944e39"/>
        <path id="Trazado_890836" data-name="Trazado 890836" d="M59.708,40.647l-.135.135v.191l.135.135H59.9l.135-.135v-.191l-.135-.135Z" transform="translate(-17.604 -12.011)" fill="#944e39"/>
        <path id="Trazado_890837" data-name="Trazado 890837" d="M55.082,46.854l-.135.135v.191l.135.135h.192l.135-.135v-.191l-.135-.135Z" transform="translate(-16.237 -13.845)" fill="#944e39"/>
        <path id="Trazado_890838" data-name="Trazado 890838" d="M60.634,47.769,60.5,47.9v.191l.135.135h.191l.135-.135V47.9l-.135-.135Z" transform="translate(-17.878 -14.116)" fill="#944e39"/>
        <path id="Trazado_890839" data-name="Trazado 890839" d="M65.75,35.367l-.135.135v.191l.135.135h.192l.135-.135V35.5l-.135-.135Z" transform="translate(-19.389 -10.451)" fill="#944e39"/>
        <path id="Trazado_890840" data-name="Trazado 890840" d="M71.638,31.813l-.135.135v.191l.135.135h.192l.135-.135v-.191l-.135-.135Z" transform="translate(-21.129 -9.401)" fill="#944e39"/>
        <path id="Trazado_890841" data-name="Trazado 890841" d="M72.628,41.714l-.135.135v.191l.135.135h.191l.135-.135v-.191l-.135-.135Z" transform="translate(-21.422 -12.327)" fill="#944e39"/>
        <path id="Trazado_890842" data-name="Trazado 890842" d="M69.045,29l-.135.135v.191l.135.135h.192l.135-.135v-.191L69.236,29Z" transform="translate(-20.363 -8.569)" fill="#944e39"/>
        <path id="Trazado_890843" data-name="Trazado 890843" d="M68.717,32.042l-.135.135v.191l.135.135h.192l.135-.135v-.191l-.135-.135Z" transform="translate(-20.266 -9.468)" fill="#944e39"/>
        <path id="Trazado_890844" data-name="Trazado 890844" d="M68.319,30.633l-.135.135v.191l.135.135h.192l.135-.135v-.191l-.135-.135Z" transform="translate(-20.149 -9.052)" fill="#944e39"/>
        <path id="Trazado_890845" data-name="Trazado 890845" d="M75.513,28.673l-.135.135V29l.135.135H75.7L75.839,29v-.191l-.135-.135Z" transform="translate(-22.274 -8.473)" fill="#944e39"/>
        <path id="Trazado_890846" data-name="Trazado 890846" d="M86.9,34.493l-.135.135v.191l.135.135h.192l.135-.135v-.191l-.135-.135Z" transform="translate(-25.639 -10.193)" fill="#944e39"/>
        <path id="Trazado_890847" data-name="Trazado 890847" d="M82.773,35.408l-.135.135v.191l.135.135h.192l.135-.135v-.191l-.135-.135Z" transform="translate(-24.42 -10.463)" fill="#944e39"/>
        <path id="Trazado_890848" data-name="Trazado 890848" d="M76.129,35.04l-.135.135v.192l.135.134h.191l.135-.134v-.192l-.135-.135Z" transform="translate(-22.456 -10.354)" fill="#944e39"/>
        <path id="Trazado_890849" data-name="Trazado 890849" d="M71.366,38.482l-.135.135v.191l.135.135h.191l.135-.135v-.191l-.135-.135Z" transform="translate(-21.049 -11.372)" fill="#944e39"/>
        <path id="Trazado_890850" data-name="Trazado 890850" d="M64.681,36.946l-.135.135v.191l.135.135h.192l.135-.135v-.191l-.135-.135Z" transform="translate(-19.074 -10.918)" fill="#944e39"/>
        <path id="Trazado_890851" data-name="Trazado 890851" d="M61.639,34.662,61.5,34.8v.191l.135.134h.192l.135-.134V34.8l-.135-.135Z" transform="translate(-18.174 -10.243)" fill="#944e39"/>
        <path id="Trazado_890852" data-name="Trazado 890852" d="M58.348,34.493l-.135.135v.191l.135.135h.191l.135-.135v-.191l-.135-.135Z" transform="translate(-17.202 -10.193)" fill="#944e39"/>
        <path id="Trazado_890853" data-name="Trazado 890853" d="M51.287,38.057l-.135.135v.191l.135.135h.191l.135-.135v-.191l-.135-.135Z" transform="translate(-15.115 -11.246)" fill="#944e39"/>
        <path id="Trazado_890854" data-name="Trazado 890854" d="M53.811,40.749l-.134.135v.191l.134.135H54l.135-.135v-.191L54,40.749Z" transform="translate(-15.862 -12.041)" fill="#944e39"/>
        <path id="Trazado_890855" data-name="Trazado 890855" d="M48.957,40.676l-.135.135V41l.135.135h.191L49.283,41V40.81l-.135-.135Z" transform="translate(-14.427 -12.02)" fill="#944e39"/>
        <path id="Trazado_890856" data-name="Trazado 890856" d="M47.311,44.425l-.135.135v.192l.135.135H47.5l.135-.135V44.56l-.135-.135Z" transform="translate(-13.941 -13.128)" fill="#944e39"/>
        <path id="Trazado_890857" data-name="Trazado 890857" d="M45.88,36.474l-.135.135V36.8l.135.135h.191l.135-.135V36.61l-.135-.135Z" transform="translate(-13.518 -10.778)" fill="#944e39"/>
        <path id="Trazado_890858" data-name="Trazado 890858" d="M50.645,32.975l-.135.135V33.3l.135.135h.191l.135-.135V33.11l-.135-.135Z" transform="translate(-14.926 -9.744)" fill="#944e39"/>
        <path id="Trazado_890859" data-name="Trazado 890859" d="M61.287,38.95l-.135.135v.191l.135.134h.191l.135-.134v-.191l-.135-.135Z" transform="translate(-18.07 -11.51)" fill="#944e39"/>
        <path id="Trazado_890860" data-name="Trazado 890860" d="M55.434,31.813l-.135.135v.191l.135.135h.191l.135-.135v-.191l-.135-.135Z" transform="translate(-16.341 -9.401)" fill="#944e39"/>
        <path id="Trazado_890861" data-name="Trazado 890861" d="M49.752,35.169l-.135.135v.191l.135.135h.191l.135-.135V35.3l-.135-.135Z" transform="translate(-14.662 -10.393)" fill="#944e39"/>
        <path id="Trazado_890862" data-name="Trazado 890862" d="M53.908,24.06l-.135.135v.192l.135.134H54.1l.135-.134v-.192L54.1,24.06Z" transform="translate(-15.89 -7.11)" fill="#944e39"/>
        <path id="Trazado_890863" data-name="Trazado 890863" d="M63.691,22.322l-.135.135v.191l.135.135h.192l.135-.135v-.191l-.135-.135Z" transform="translate(-18.781 -6.596)" fill="#944e39"/>
        <path id="Trazado_890864" data-name="Trazado 890864" d="M59.719,27.312l-.135.135v.191l.135.135h.192l.135-.135v-.191l-.135-.135Z" transform="translate(-17.607 -8.071)" fill="#944e39"/>
        <path id="Trazado_890865" data-name="Trazado 890865" d="M59.392,23.688l-.135.135v.191l.135.135h.191l.135-.135v-.191l-.135-.135Z" transform="translate(-17.51 -7)" fill="#944e39"/>
        <path id="Trazado_890866" data-name="Trazado 890866" d="M63.364,25.922l-.135.135v.191l.135.134h.191l.135-.134v-.191l-.135-.135Z" transform="translate(-18.684 -7.66)" fill="#944e39"/>
        <path id="Trazado_890867" data-name="Trazado 890867" d="M59.818,19.879l-.135.135V20.2l.135.135h.191l.135-.135v-.191l-.135-.135Z" transform="translate(-17.636 -5.874)" fill="#944e39"/>
        <path id="Trazado_890868" data-name="Trazado 890868" d="M56.955,22.322l-.135.135v.191l.135.135h.192l.135-.135v-.191l-.135-.135Z" transform="translate(-16.79 -6.596)" fill="#944e39"/>
        <path id="Trazado_890869" data-name="Trazado 890869" d="M51.016,27.736l-.135.135v.191l.135.135h.192l.135-.135v-.191l-.135-.135Z" transform="translate(-15.035 -8.196)" fill="#944e39"/>
        <path id="Trazado_890870" data-name="Trazado 890870" d="M46.852,29.931l-.135.135v.191l.135.135h.192l.135-.135v-.191l-.135-.135Z" transform="translate(-13.805 -8.844)" fill="#944e39"/>
        <path id="Trazado_890871" data-name="Trazado 890871" d="M42.957,34.662l-.135.135v.191l.135.134h.192l.135-.134V34.8l-.135-.135Z" transform="translate(-12.654 -10.243)" fill="#944e39"/>
        <path id="Trazado_890872" data-name="Trazado 890872" d="M38.991,33.78l-.135.135v.191l.135.135h.192l.135-.135v-.191l-.135-.135Z" transform="translate(-11.482 -9.982)" fill="#944e39"/>
        <path id="Trazado_890873" data-name="Trazado 890873" d="M39.8,36.784l-.135.135v.191l.135.135h.192l.135-.135v-.191l-.135-.135Z" transform="translate(-11.721 -10.87)" fill="#944e39"/>
        <path id="Trazado_890874" data-name="Trazado 890874" d="M37.952,38.624l-.135.135v.191l.135.135h.192l.135-.135v-.191l-.135-.135Z" transform="translate(-11.175 -11.413)" fill="#944e39"/>
        <path id="Trazado_890875" data-name="Trazado 890875" d="M34.19,36.784l-.134.135v.191l.134.135h.192l.135-.135v-.191l-.135-.135Z" transform="translate(-10.064 -10.87)" fill="#944e39"/>
        <path id="Trazado_890876" data-name="Trazado 890876" d="M31.738,36.4l-.135.135v.191l.135.135h.191l.135-.135v-.191l-.135-.135Z" transform="translate(-9.339 -10.756)" fill="#944e39"/>
        <path id="Trazado_890877" data-name="Trazado 890877" d="M29.458,31.708l-.135.135v.191l.135.135h.192l.135-.135v-.191l-.135-.135Z" transform="translate(-8.665 -9.37)" fill="#944e39"/>
        <path id="Trazado_890878" data-name="Trazado 890878" d="M32.4,29.215l-.135.135v.191l.135.135h.192l.134-.135V29.35l-.134-.135Z" transform="translate(-9.534 -8.633)" fill="#944e39"/>
        <path id="Trazado_890879" data-name="Trazado 890879" d="M27.677,28.888l-.135.135v.191l.135.135h.191L28,29.214v-.191l-.135-.135Z" transform="translate(-8.139 -8.537)" fill="#944e39"/>
        <path id="Trazado_890880" data-name="Trazado 890880" d="M24.921,32.055l-.135.135v.191l.135.135h.191l.135-.135v-.191l-.135-.135Z" transform="translate(-7.324 -9.472)" fill="#944e39"/>
        <path id="Trazado_890881" data-name="Trazado 890881" d="M20.458,30.633l-.135.135v.191l.135.135h.192l.135-.135v-.191l-.135-.135Z" transform="translate(-6.005 -9.052)" fill="#944e39"/>
        <path id="Trazado_890882" data-name="Trazado 890882" d="M17.332,27.43l-.135.135v.191l.135.135h.191l.135-.135v-.191l-.135-.135Z" transform="translate(-5.082 -8.106)" fill="#944e39"/>
        <path id="Trazado_890883" data-name="Trazado 890883" d="M23.494,24.692l-.134.135v.191l.134.135h.192l.135-.135v-.191l-.135-.135Z" transform="translate(-6.903 -7.296)" fill="#944e39"/>
        <path id="Trazado_890884" data-name="Trazado 890884" d="M24.628,26.38l-.134.135v.191l.134.135h.192l.135-.135v-.191l-.135-.135Z" transform="translate(-7.238 -7.795)" fill="#944e39"/>
        <path id="Trazado_890885" data-name="Trazado 890885" d="M30.8,22.074l-.135.135V22.4l.135.135h.192l.135-.135v-.191l-.135-.135Z" transform="translate(-9.062 -6.523)" fill="#944e39"/>
        <path id="Trazado_890886" data-name="Trazado 890886" d="M29.786,26.053l-.135.135v.191l.135.135h.191l.135-.135v-.191l-.135-.135Z" transform="translate(-8.762 -7.699)" fill="#944e39"/>
        <path id="Trazado_890887" data-name="Trazado 890887" d="M36.472,26.812l-.135.135v.191l.135.135h.192l.135-.135v-.191l-.135-.135Z" transform="translate(-10.738 -7.923)" fill="#944e39"/>
        <path id="Trazado_890888" data-name="Trazado 890888" d="M37.5,30.128l-.135.135v.191l.135.135h.191l.135-.135v-.191l-.135-.135Z" transform="translate(-11.042 -8.903)" fill="#944e39"/>
        <path id="Trazado_890889" data-name="Trazado 890889" d="M40.873,27.757l-.135.135v.191l.135.135h.192l.135-.135v-.191l-.135-.135Z" transform="translate(-12.038 -8.202)" fill="#944e39"/>
        <path id="Trazado_890890" data-name="Trazado 890890" d="M44.163,25.211l-.135.135v.191l.135.135h.192l.135-.135v-.191l-.135-.135Z" transform="translate(-13.01 -7.45)" fill="#944e39"/>
        <path id="Trazado_890891" data-name="Trazado 890891" d="M40.666,23.38l-.135.135v.191l.135.135h.192l.135-.135v-.191l-.135-.135Z" transform="translate(-11.977 -6.909)" fill="#944e39"/>
        <path id="Trazado_890892" data-name="Trazado 890892" d="M38.81,22.776l-.135.135V23.1l.135.135H39l.135-.135v-.191L39,22.776Z" transform="translate(-11.428 -6.73)" fill="#944e39"/>
        <path id="Trazado_890893" data-name="Trazado 890893" d="M45.034,19.573l-.135.135V19.9l.135.135h.191l.135-.135v-.191l-.135-.135Z" transform="translate(-13.268 -5.784)" fill="#944e39"/>
        <path id="Trazado_890894" data-name="Trazado 890894" d="M48.493,22.592l-.135.135v.191l.135.135h.192l.134-.135v-.191l-.134-.135Z" transform="translate(-14.29 -6.676)" fill="#944e39"/>
        <path id="Trazado_890895" data-name="Trazado 890895" d="M50.225,22.4l-.135.135v.191l.135.135h.192l.135-.135v-.191l-.135-.135Z" transform="translate(-14.802 -6.619)" fill="#944e39"/>
        <path id="Trazado_890896" data-name="Trazado 890896" d="M50.175,19.226l-.135.135v.191l.135.135h.191l.135-.135V19.36l-.135-.135Z" transform="translate(-14.787 -5.681)" fill="#944e39"/>
        <path id="Trazado_890897" data-name="Trazado 890897" d="M50.553,14.413l-.135.135v.191l.135.134h.191l.135-.134v-.191l-.135-.135Z" transform="translate(-14.899 -4.259)" fill="#944e39"/>
        <path id="Trazado_890898" data-name="Trazado 890898" d="M55.554,17.033l-.135.135v.191l.135.135h.192l.135-.135v-.191l-.135-.135Z" transform="translate(-16.376 -5.033)" fill="#944e39"/>
        <path id="Trazado_890899" data-name="Trazado 890899" d="M54.712,15.522l-.135.135v.191l.135.135H54.9l.135-.135v-.191l-.135-.135Z" transform="translate(-16.127 -4.587)" fill="#944e39"/>
        <path id="Trazado_890900" data-name="Trazado 890900" d="M44.706,11.128l-.135.135v.192l.135.135H44.9l.135-.135v-.192l-.135-.135Z" transform="translate(-13.171 -3.288)" fill="#944e39"/>
        <path id="Trazado_890901" data-name="Trazado 890901" d="M42.774,16.1l-.135.135v.191l.135.135h.192l.134-.135v-.191l-.134-.135Z" transform="translate(-12.6 -4.757)" fill="#944e39"/>
        <path id="Trazado_890902" data-name="Trazado 890902" d="M38.955,13.212l-.135.135v.191l.135.135h.192l.135-.135v-.191l-.135-.135Z" transform="translate(-11.471 -3.904)" fill="#944e39"/>
        <path id="Trazado_890903" data-name="Trazado 890903" d="M37.625,19.06l-.135.135v.191l.135.135h.192l.135-.135V19.2l-.135-.135Z" transform="translate(-11.078 -5.632)" fill="#944e39"/>
        <path id="Trazado_890904" data-name="Trazado 890904" d="M39.42,16.367l-.135.135v.191l.135.135h.191l.135-.135V16.5l-.135-.135Z" transform="translate(-11.609 -4.836)" fill="#944e39"/>
        <path id="Trazado_890905" data-name="Trazado 890905" d="M34.844,16.1l-.135.135v.191l.135.135h.192l.135-.135v-.191l-.135-.135Z" transform="translate(-10.257 -4.757)" fill="#944e39"/>
        <path id="Trazado_890906" data-name="Trazado 890906" d="M33.994,18.734l-.134.135v.192l.134.135h.192l.135-.135v-.192l-.135-.135Z" transform="translate(-10.006 -5.536)" fill="#944e39"/>
        <path id="Trazado_890907" data-name="Trazado 890907" d="M33.935,12.883l-.135.135v.191l.135.135h.192l.135-.135v-.191l-.135-.135Z" transform="translate(-9.988 -3.807)" fill="#944e39"/>
        <path id="Trazado_890908" data-name="Trazado 890908" d="M27.058,14.64l-.135.135v.192l.135.135h.192l.135-.135v-.192l-.135-.135Z" transform="translate(-7.956 -4.326)" fill="#944e39"/>
        <path id="Trazado_890909" data-name="Trazado 890909" d="M30.112,9.4l-.135.135v.191l.135.135H30.3l.135-.135V9.538L30.3,9.4Z" transform="translate(-8.858 -2.779)" fill="#944e39"/>
        <path id="Trazado_890910" data-name="Trazado 890910" d="M30.44,13.434l-.135.135v.191l.135.135h.191l.135-.135v-.191l-.135-.135Z" transform="translate(-8.955 -3.97)" fill="#944e39"/>
        <path id="Trazado_890911" data-name="Trazado 890911" d="M26.875,11.454l-.135.135v.191l.135.135h.192l.134-.135V11.59l-.134-.135Z" transform="translate(-7.902 -3.385)" fill="#944e39"/>
        <path id="Trazado_890912" data-name="Trazado 890912" d="M32.028,10.507l-.135.135v.191l.135.135h.192l.134-.135v-.191l-.134-.135Z" transform="translate(-9.424 -3.105)" fill="#944e39"/>
        <path id="Trazado_890913" data-name="Trazado 890913" d="M34.844,6.783l-.135.135V7.11l.135.134h.192l.135-.134V6.918l-.135-.135Z" transform="translate(-10.257 -2.005)" fill="#944e39"/>
        <path id="Trazado_890914" data-name="Trazado 890914" d="M38.07,8.241l-.135.135v.191l.135.135h.192l.135-.135V8.376l-.135-.135Z" transform="translate(-11.21 -2.435)" fill="#944e39"/>
        <path id="Trazado_890915" data-name="Trazado 890915" d="M38.335,5.85l-.135.135v.191l.135.134h.192l.135-.134V5.985l-.135-.135Z" transform="translate(-11.288 -1.729)" fill="#944e39"/>
        <path id="Trazado_890916" data-name="Trazado 890916" d="M49.373,10.507l-.135.135v.191l.135.135h.191l.135-.135v-.191l-.135-.135Z" transform="translate(-14.55 -3.105)" fill="#944e39"/>
        <path id="Trazado_890917" data-name="Trazado 890917" d="M41.478,11.454l-.135.135v.191l.135.135h.192l.135-.135V11.59l-.135-.135Z" transform="translate(-12.217 -3.385)" fill="#944e39"/>
        <path id="Trazado_890918" data-name="Trazado 890918" d="M52.213,30.923l-.135.135v.191l.135.135H52.4l.134-.135v-.191l-.134-.135Z" transform="translate(-15.389 -9.138)" fill="#944e39"/>
        <path id="Trazado_890919" data-name="Trazado 890919" d="M60.282,50.721,84.4,35.9,82.654,33.24,78.9,31.174l3.2,2.477L81.2,35.408l-2.4,1.143-7.218,4.788-2.607.749-2.566,2.28-3.3,1.739Z" transform="translate(-17.813 -9.212)" fill="#4a2317"/>
        <path id="Trazado_890920" data-name="Trazado 890920" d="M41.993,49.438l.592-.341V45.863L.846,22.447Z" transform="translate(-0.25 -6.633)" fill="#ac7a54"/>
        <path id="Trazado_890921" data-name="Trazado 890921" d="M.841,25.681,41.991,49.438l0-3.235L.843,22.447Z" transform="translate(-0.248 -6.633)" fill="#d7a57f"/>
        <path id="Trazado_890922" data-name="Trazado 890922" d="M.845,22.3,42,46.061l.59-.34L1.436,21.964Z" transform="translate(-0.25 -6.49)" fill="#f7dfbb"/>
        <path id="Trazado_890923" data-name="Trazado 890923" d="M59.249,49.821l0,3.235.591.341,26.8-18.708Z" transform="translate(-17.508 -10.251)" fill="#d7a57f"/>
        <path id="Trazado_890924" data-name="Trazado 890924" d="M60.087,50.162l0,3.235,26.8-15.475,0-3.234Z" transform="translate(-17.756 -10.25)" fill="#ac7a54"/>
        <path id="Trazado_890925" data-name="Trazado 890925" d="M59.249,49.678l.59.341L86.645,34.546l-.59-.342Z" transform="translate(-17.508 -10.107)" fill="#f7dfbb"/>
      </g>
    </g>
  </g>
</svg>
