<svg xmlns="http://www.w3.org/2000/svg" xmlns:xlink="http://www.w3.org/1999/xlink" width="523" height="396" viewBox="0 0 523 396">
  <defs>
    <clipPath id="clip-path">
      <rect id="Rectángulo_403703" data-name="Rectángulo 403703" width="310.571" height="316.667" fill="none"/>
    </clipPath>
    <clipPath id="clip-path-3">
      <rect id="Rectángulo_403693" data-name="Rectángulo 403693" width="27.597" height="56.656" fill="none"/>
    </clipPath>
    <clipPath id="clip-path-4">
      <rect id="Rectángulo_403694" data-name="Rectángulo 403694" width="15.525" height="27.846" fill="none"/>
    </clipPath>
    <clipPath id="clip-path-5">
      <rect id="Rectángulo_403695" data-name="Rectángulo 403695" width="22.7" height="56.656" fill="none"/>
    </clipPath>
    <clipPath id="clip-path-6">
      <rect id="Rectángulo_403696" data-name="Rectángulo 403696" width="18.296" height="29.015" fill="none"/>
    </clipPath>
    <clipPath id="clip-path-7">
      <rect id="Rectángulo_403697" data-name="Rectángulo 403697" width="50.716" height="88.119" fill="none"/>
    </clipPath>
    <clipPath id="clip-path-8">
      <rect id="Rectángulo_403698" data-name="Rectángulo 403698" width="2.264" height="11.686" fill="none"/>
    </clipPath>
    <clipPath id="clip-path-9">
      <rect id="Rectángulo_403699" data-name="Rectángulo 403699" width="5.108" height="7.47" fill="none"/>
    </clipPath>
    <clipPath id="clip-path-10">
      <rect id="Rectángulo_403700" data-name="Rectángulo 403700" width="16.849" height="29.447" fill="none"/>
    </clipPath>
    <clipPath id="clip-path-11">
      <rect id="Rectángulo_403701" data-name="Rectángulo 403701" width="3.372" height="29.348" fill="none"/>
    </clipPath>
  </defs>
  <g id="Grupo_1103405" data-name="Grupo 1103405" transform="translate(1485 8353)">
    <path id="Trazado_987588" data-name="Trazado 987588" d="M20,0H503a20,20,0,0,1,20,20V376a20,20,0,0,1-20,20H20A20,20,0,0,1,0,376V20A20,20,0,0,1,20,0Z" transform="translate(-1485 -8353)" fill="#fffbeb"/>
    <g id="Grupo_1103050" data-name="Grupo 1103050" transform="translate(-1383.496 -8304)" clip-path="url(#clip-path)">
      <g id="Grupo_1103049" data-name="Grupo 1103049">
        <g id="Grupo_1103048" data-name="Grupo 1103048" clip-path="url(#clip-path)">
          <path id="Trazado_983015" data-name="Trazado 983015" d="M233.172,369.857a1.192,1.192,0,0,1-.234-2.36l92.151-18.547a1.191,1.191,0,0,1,.469,2.336l-92.15,18.548a1.266,1.266,0,0,1-.237.023" transform="translate(-47.711 -71.764)" fill="#0a88a5"/>
          <path id="Trazado_983016" data-name="Trazado 983016" d="M266.573,238.293a1.191,1.191,0,0,1-.039-2.382l65.62-2.184a1.191,1.191,0,1,1,.079,2.381l-65.62,2.184h-.04" transform="translate(-54.581 -48.069)" fill="#0a88a5"/>
          <path id="Trazado_983017" data-name="Trazado 983017" d="M234.092,135.128a1.192,1.192,0,0,1-.223-2.362l75.922-14.608a1.191,1.191,0,0,1,.45,2.34l-75.922,14.609a1.22,1.22,0,0,1-.226.021" transform="translate(-47.901 -24.297)" fill="#0a88a5"/>
          <path id="Trazado_983018" data-name="Trazado 983018" d="M135.8,138.371a1.194,1.194,0,0,1-.268-.031l-75.1-17.26a1.192,1.192,0,1,1,.534-2.323l75.1,17.261a1.192,1.192,0,0,1-.266,2.353" transform="translate(-12.238 -24.418)" fill="#0a88a5"/>
          <path id="Trazado_983019" data-name="Trazado 983019" d="M41.694,337.9a1.191,1.191,0,0,1-.744-2.122l63.848-51a1.192,1.192,0,0,1,1.488,1.862l-63.849,51a1.185,1.185,0,0,1-.743.261" transform="translate(-8.33 -58.516)" fill="#0a88a5"/>
          <path id="Trazado_983020" data-name="Trazado 983020" d="M41.694,225.55a1.191,1.191,0,0,1-.585-2.23L141.681,166.7a1.191,1.191,0,0,1,1.169,2.076L42.277,225.4a1.175,1.175,0,0,1-.583.153" transform="translate(-8.33 -34.254)" fill="#0a88a5"/>
          <path id="Trazado_983021" data-name="Trazado 983021" d="M195.1,87.537h0a1.191,1.191,0,0,1-1.19-1.193l.064-44.657a1.192,1.192,0,0,1,1.191-1.19h0a1.191,1.191,0,0,1,1.19,1.193l-.064,44.657a1.191,1.191,0,0,1-1.191,1.19" transform="translate(-39.882 -8.329)" fill="#0a88a5"/>
          <path id="Trazado_983022" data-name="Trazado 983022" d="M220.216,33.362A33.362,33.362,0,1,1,186.854,0a33.362,33.362,0,0,1,33.362,33.362" transform="translate(-31.569)" fill="#0a88a5"/>
          <path id="Trazado_983023" data-name="Trazado 983023" d="M187.934,5.25a29.191,29.191,0,1,0,29.192,29.191A29.191,29.191,0,0,0,187.934,5.25m18.391,35.874a85.185,85.185,0,0,1-18.387,1.871,85.193,85.193,0,0,1-18.391-1.871c-3.768,0-5.628-.7-1.585-4.058a20.543,20.543,0,0,1,7.084-11.994A1.47,1.47,0,0,1,175.6,23.1l2.555-1.473a1.471,1.471,0,0,1,2.013.539l.021.035a21.209,21.209,0,0,1,4.8-1.134v-.191a1.474,1.474,0,0,1,1.473-1.474h2.954a1.473,1.473,0,0,1,1.472,1.474v.191a21.162,21.162,0,0,1,4.8,1.134l.022-.035a1.471,1.471,0,0,1,2.012-.539l2.555,1.473a1.469,1.469,0,0,1,.554,1.972,20.551,20.551,0,0,1,7.083,11.994c4.041,3.362,2.183,4.058-1.584,4.058" transform="translate(-32.648 -1.08)" fill="#f5f5f5"/>
          <path id="Trazado_983024" data-name="Trazado 983024" d="M66.724,226.589a33.362,33.362,0,1,1-33.362-33.362,33.362,33.362,0,0,1,33.362,33.362" transform="translate(0 -39.741)" fill="#0a88a5"/>
          <path id="Trazado_983025" data-name="Trazado 983025" d="M34.442,198.478a29.191,29.191,0,1,0,29.192,29.19,29.191,29.191,0,0,0-29.192-29.19m-20.39,22.586c0-2.331.562-3.672,1.717-4.1,2.57-.957,6.786,3.431,11.3,8.622-.292.323-.578.665-.852,1.023-2.729-3.147-8.058-9.126-9.993-8.414-.554.207-.86,1.226-.86,2.871,0,6.27,4.4,11.55,8.294,14.684a9.819,9.819,0,0,0,.645,2.123c-4.557-3.188-10.254-9.432-10.254-16.807m20.391,21.654c-5.332,0-9.652-3.546-9.652-8.877,0-3.271,2.18-6.68,4.757-8.829,1.623-1.352,2.317-3.289,4.895-3.289,2.653,0,3.274,1.937,4.9,3.292,2.575,2.148,4.753,5.558,4.753,8.827,0,5.332-4.321,8.877-9.653,8.877M44.58,237.87a9.8,9.8,0,0,0,.645-2.122c3.9-3.134,8.294-8.413,8.294-14.683,0-1.645-.306-2.663-.859-2.87-1.932-.72-7.263,5.263-9.993,8.412-.275-.359-.561-.7-.852-1.024,4.517-5.19,8.729-9.579,11.3-8.62,1.155.43,1.717,1.771,1.717,4.1,0,7.375-5.7,13.619-10.254,16.806m-5.533-10.227c-.658,0-1.973-2.631-4.6-2.631s-3.947,2.631-4.606,2.631a.621.621,0,0,0-.656.657.656.656,0,0,0,.656.659c.659,0,3.289-2.631,4.606-2.631s3.946,2.631,4.6,2.631a.632.632,0,0,0,.657-.659.657.657,0,0,0-.657-.657" transform="translate(-1.08 -40.821)" fill="#f5f5f5"/>
          <path id="Trazado_983026" data-name="Trazado 983026" d="M354.708,111.588a33.362,33.362,0,1,1-33.362-33.362,33.364,33.364,0,0,1,33.362,33.362" transform="translate(-59.229 -16.089)" fill="#0a88a5"/>
          <path id="Trazado_983027" data-name="Trazado 983027" d="M322.424,83.477a29.191,29.191,0,1,0,29.193,29.191,29.193,29.193,0,0,0-29.193-29.191m20.394,29.191a1.315,1.315,0,0,1-1.316,1.316h-.749a10.533,10.533,0,0,1-10.434,9.209,10.411,10.411,0,0,1-5.262-1.315c-.44-.207-1.314-1.315-2.629-1.254-1.316-.06-2.192,1.048-2.632,1.254a10.4,10.4,0,0,1-5.262,1.315,10.533,10.533,0,0,1-10.434-9.209h-.747a1.315,1.315,0,0,1-1.318-1.316v-5.261a1.316,1.316,0,0,1,1.318-1.315h.656v-1.315a2.634,2.634,0,0,1,2.632-2.632h31.572a2.631,2.631,0,0,1,2.63,2.632v1.315h.659a1.316,1.316,0,0,1,1.316,1.315Zm-12.5-7.563H314.533c-6.363,0-7.563,1.2-7.563,7.563a7.568,7.568,0,0,0,7.563,7.566,8.964,8.964,0,0,0,4.047-1.342,6.379,6.379,0,0,1,7.691,0,8.959,8.959,0,0,0,4.046,1.342,7.574,7.574,0,0,0,7.565-7.566c0-3.451-.386-5.185-1.381-6.178s-2.729-1.385-6.184-1.385" transform="translate(-60.309 -17.169)" fill="#f5f5f5"/>
          <path id="Trazado_983028" data-name="Trazado 983028" d="M85.724,111.589A33.362,33.362,0,1,1,52.362,78.227a33.362,33.362,0,0,1,33.362,33.362" transform="translate(-3.908 -16.089)" fill="#0a88a5"/>
          <path id="Trazado_983029" data-name="Trazado 983029" d="M53.441,83.477a29.191,29.191,0,1,0,29.192,29.191A29.191,29.191,0,0,0,53.441,83.477M69.625,127A1.574,1.574,0,0,1,68,128.535a1.6,1.6,0,0,1-1.449-1.718l.794-14.625a1.567,1.567,0,0,1,1.625-1.528,1.6,1.6,0,0,1,1.447,1.717c.046,0,.091.013.135.018a18.669,18.669,0,0,0-4.839-10.311,5.459,5.459,0,0,1-3.057-1.524,9.47,9.47,0,0,1-1.409-1.445,6.289,6.289,0,0,1-3.041-.646,8.2,8.2,0,0,1-2.134-1.311,8.346,8.346,0,0,1-5.263,0,8.187,8.187,0,0,1-2.137,1.311,6.283,6.283,0,0,1-3.038.646,9.411,9.411,0,0,1-1.411,1.445,5.445,5.445,0,0,1-3.059,1.523A18.674,18.674,0,0,0,36.327,112.4c.046,0,.091-.015.137-.018a1.6,1.6,0,0,1,1.449-1.717,1.567,1.567,0,0,1,1.623,1.528l.8,14.625a1.6,1.6,0,0,1-1.449,1.718A1.572,1.572,0,0,1,37.259,127c-2.546.153-4.785-3-5.006-7.032a10.042,10.042,0,0,1,.938-4.992v-.025c0-11.8,9.083-21.4,20.25-21.4s20.251,9.6,20.251,21.4v.027a10.071,10.071,0,0,1,.939,4.989c-.222,4.037-2.461,7.183-5.006,7.032" transform="translate(-4.987 -17.169)" fill="#f5f5f5"/>
          <path id="Trazado_983030" data-name="Trazado 983030" d="M373.708,341.589a33.362,33.362,0,1,1-33.362-33.362,33.363,33.363,0,0,1,33.362,33.362" transform="translate(-63.137 -63.393)" fill="#0a88a5"/>
          <path id="Trazado_983031" data-name="Trazado 983031" d="M341.426,313.477a29.192,29.192,0,1,0,29.192,29.192,29.192,29.192,0,0,0-29.192-29.192M336.7,323.761h15.756l0,1.837H340.635v3.416h-3.748l-.095-1.056c-.054-.574-.095-1.517-.095-2.1Zm-7.526,34.662h-2.453a2.569,2.569,0,0,1-1.313-.261,1.851,1.851,0,0,1-.262-1.052c0-.429.118-.786.262-.786s.145-.236,0-.526a4.47,4.47,0,0,1-.261-1.575,2.581,2.581,0,0,1,.523-1.575,4.666,4.666,0,0,1,1.524-.858l1.158-.385a16.121,16.121,0,0,1,2.032-.505l4.23-.705a3.825,3.825,0,0,0,1.779-.916l1.667-1.666a2.433,2.433,0,0,0,.61-1.786l-.788-6.317c-.074-.574-.175-1.512-.225-2.089l-.624-6.833h3.658c.015.234.029.457.048.643l.107,1.195.753,8.267c.053.587.156,1.545.23,2.13l.79,6.322a1.21,1.21,0,0,1-.238.691l-1.665,1.665a2.617,2.617,0,0,1-1.063.549l-4.233.7a17.619,17.619,0,0,0-2.231.552l-1.16.387a5.925,5.925,0,0,0-2.035,1.176,3.841,3.841,0,0,0-.909,2.5,7.013,7.013,0,0,0,.089,1.049m27.578-17.85c-.052.574-.172,1.511-.267,2.083l-.705,4.229a15.392,15.392,0,0,0-.173,2.088,7.8,7.8,0,0,0,.332,2.043l.387,1.159a7.75,7.75,0,0,1,.332,2.049V357.9a2.824,2.824,0,0,1-.262,1.051c-.145.292-.145.524,0,.524s.262.357.262.79a3.334,3.334,0,0,1-.13,1.049c-.073.145-.606.262-1.183.262h-4.989c-.578,0-1.051-.237-1.051-.525s-.473-.524-1.048-.524H347.2a2.583,2.583,0,0,0-1.575.524,2.561,2.561,0,0,1-1.576.525H331.971a2.544,2.544,0,0,1-1.311-.262,1.839,1.839,0,0,1-.265-1.049c0-.433.12-.79.265-.79s.145-.233,0-.524a4.442,4.442,0,0,1-.265-1.576,2.559,2.559,0,0,1,.527-1.575,4.648,4.648,0,0,1,1.521-.859l1.158-.388a16.885,16.885,0,0,1,2.033-.5l4.231-.7a3.853,3.853,0,0,0,1.779-.917l1.665-1.663a2.437,2.437,0,0,0,.612-1.786l-.792-6.32c-.071-.574-.17-1.514-.225-2.088l-.62-6.832h15.088Zm.956-11.558c0,.578-.044,1.52-.095,2.1l-.095,1.054H342.142l-.1-1.054c-.052-.576-.1-1.519-.1-2.1l0-2.1h15.756Z" transform="translate(-64.217 -64.472)" fill="#f5f5f5"/>
          <path id="Trazado_983032" data-name="Trazado 983032" d="M66.724,341.589a33.362,33.362,0,1,1-33.362-33.362,33.362,33.362,0,0,1,33.362,33.362" transform="translate(0 -63.393)" fill="#0a88a5"/>
          <path id="Trazado_983033" data-name="Trazado 983033" d="M34.442,313.478a29.192,29.192,0,1,0,29.192,29.191,29.191,29.191,0,0,0-29.192-29.191m-11.89,34.6-8.24-4.807a2.325,2.325,0,1,1,2.343-4.015l3.313,1.933-3.479-9.248a2.014,2.014,0,0,1,3.767-1.428l-.7-1.872,0-.006a2.015,2.015,0,0,1,3.772-1.42v0l.353.939a2.016,2.016,0,0,1,3.775-1.415h0l1.063,2.826a2.014,2.014,0,0,1,3.771-1.415l.794,2.111a3.6,3.6,0,0,0-2.2,4.3l2.288,8.71-4.227,7.451a2.333,2.333,0,0,0-1.919,1.358,2.307,2.307,0,0,0-.2.848l-2.656,1Zm3.285,11.562a1.008,1.008,0,1,1-.71-1.887l.085-.029-.627-2.271,2.712-1.022a2.285,2.285,0,0,0,.879.716l4.355,1.973Zm20.232-.038a1.008,1.008,0,0,1-.83,1.837l-16.521-7.488a1.008,1.008,0,0,1,.833-1.836l.083.039,1.162-2.047,15.962,7.231-.774,2.225Zm3.24-9.593h0l-2.03,5.834-15.7-7.113,2.992-5.278-2.424-9.226a2.324,2.324,0,0,1,4.5-1.181l.975,3.711,4.078-9a2.015,2.015,0,0,1,3.675,1.655l.825-1.822v0a2.015,2.015,0,0,1,3.672,1.662l-.412.914a2.014,2.014,0,0,1,3.667,1.667h0l-1.249,2.751a2.015,2.015,0,1,1,3.67,1.667Z" transform="translate(-1.08 -64.473)" fill="#f5f5f5"/>
          <path id="Trazado_983034" data-name="Trazado 983034" d="M373.708,226.588a33.362,33.362,0,1,1-33.362-33.362,33.363,33.363,0,0,1,33.362,33.362" transform="translate(-63.137 -39.741)" fill="#0a88a5"/>
          <path id="Trazado_983035" data-name="Trazado 983035" d="M341.423,198.479a29.19,29.19,0,1,0,29.194,29.192,29.191,29.191,0,0,0-29.194-29.192m-17.737,29.667a9.6,9.6,0,0,0,5.139-9.963l-.964-9.3,3.109-.436,4.4,23.913H323.686Zm17.737,15.959a3.343,3.343,0,0,1-3.13,3.521l-11.477-1.173a3.343,3.343,0,0,1-3.13-3.521v-2.351h17.737Zm0-5.872H323.686v-3.522h17.737Zm0-5.869h-3.59l-4.466-24.253,2.841-.4,5.215,12.913Zm5.218-24.653,2.842.4-4.468,24.253h-2.277V220.37l-.606-1.5Zm12.521,35.221a3.342,3.342,0,0,1-3.13,3.521l-11.477,1.173a2.984,2.984,0,0,1-2.354-1.22,5.146,5.146,0,0,0,.536-2.3v-3.524h16.424Zm0-4.7H342.738v-3.522h16.424Zm0-5.869H347.474l4.406-23.913,3.11.436-.966,9.3a9.6,9.6,0,0,0,5.139,9.963Z" transform="translate(-64.217 -40.821)" fill="#f5f5f5"/>
          <path id="Trazado_983036" data-name="Trazado 983036" d="M203.308,169.391c0,7.093-5.961,2.568-10.675,2.568s-10.674,4.525-10.674-2.568,5.958-53.94,10.674-53.94,10.675,46.847,10.675,53.94" transform="translate(-37.423 -23.745)" fill="#681e1e"/>
          <path id="Trazado_983037" data-name="Trazado 983037" d="M143.064,244.038h-10.4c0-30.355,16.171-53.124,22.317-56.656l5.178,9.015.1-.063c-3.036,2.145-17.2,21.414-17.2,47.7" transform="translate(-27.285 -38.539)" fill="#ffcc80"/>
          <g id="Grupo_1103023" data-name="Grupo 1103023" transform="translate(105.382 148.843)" opacity="0.05">
            <g id="Grupo_1103022" data-name="Grupo 1103022">
              <g id="Grupo_1103021" data-name="Grupo 1103021" clip-path="url(#clip-path-3)">
                <path id="Trazado_983038" data-name="Trazado 983038" d="M160.162,196.4l-5.179-9.015c-.067.038-.141.091-.21.134l4.715,8.207.1-.064c-3.037,2.145-17.2,21.415-17.2,47.7h-9.712c0,.225-.011.447-.011.674h10.4c0-26.289,14.164-45.558,17.2-47.7Z" transform="translate(-132.667 -187.382)" fill="#212121"/>
              </g>
            </g>
          </g>
          <path id="Trazado_983039" data-name="Trazado 983039" d="M129.219,268.947c-.233,6.128,2.729,11.26,6.609,11.453,10.549.527,7.22-4.618,7.455-10.747s-2.726-11.259-6.608-11.453c-6.557-.329-7.033-.353-7.456,10.748" transform="translate(-26.574 -53.085)" fill="#ff8f00"/>
          <path id="Trazado_983040" data-name="Trazado 983040" d="M142.967,266.916c2.35,3.551,5.2,5.613,6.358,4.6s.2-4.713-2.153-8.266-5.193-5.618-6.357-4.606-.2,4.714,2.153,8.271" transform="translate(-28.86 -53.142)" fill="#ff8f00"/>
          <path id="Trazado_983041" data-name="Trazado 983041" d="M144.137,250.859c.2,2.845-1.108,8.487-1.108,8.487l-12.52.851s-1.467-8.112-.529-10.507c2.132.888,11.55,2.091,14.157,1.168" transform="translate(-26.668 -51.354)" fill="#ff8f00"/>
          <g id="Grupo_1103026" data-name="Grupo 1103026" transform="translate(105.432 199.506)" opacity="0.5">
            <g id="Grupo_1103025" data-name="Grupo 1103025">
              <g id="Grupo_1103024" data-name="Grupo 1103024" clip-path="url(#clip-path-4)">
                <path id="Trazado_983042" data-name="Trazado 983042" d="M145.61,261.764a19.451,19.451,0,0,0-1.882-2.424c.264-1.2,1.211-5.725,1.038-8.178a4.244,4.244,0,0,1-.657.162,44.465,44.465,0,0,1-1.056,7.343,19.363,19.363,0,0,1,1.883,2.423c2.348,3.555,3.314,7.255,2.153,8.267-.749.653-2.2.016-3.764-1.462-.1,5.975,2.9,10.92-7.448,10.4a5.134,5.134,0,0,1-3.148-1.382,5.472,5.472,0,0,0,3.822,2.056c10.349.517,7.343-4.428,7.448-10.4,1.564,1.478,3.015,2.115,3.764,1.462,1.161-1.01.2-4.712-2.153-8.266" transform="translate(-132.73 -251.162)" fill="#212121"/>
              </g>
            </g>
          </g>
          <path id="Trazado_983043" data-name="Trazado 983043" d="M250.978,244.038H240.584c0-26.291-14.165-45.559-17.2-47.7l5.279-8.952c6.145,3.531,22.314,26.3,22.314,56.656" transform="translate(-45.943 -38.539)" fill="#ffcc80"/>
          <g id="Grupo_1103029" data-name="Grupo 1103029" transform="translate(182.335 148.843)" opacity="0.05">
            <g id="Grupo_1103028" data-name="Grupo 1103028">
              <g id="Grupo_1103027" data-name="Grupo 1103027" clip-path="url(#clip-path-5)">
                <path id="Trazado_983044" data-name="Trazado 983044" d="M229.931,187.382l-.386.656c6.71,5.1,21.353,27.1,21.353,56h1.347c0-30.358-16.169-53.125-22.314-56.656" transform="translate(-229.545 -187.382)" fill="#212121"/>
              </g>
            </g>
          </g>
          <path id="Trazado_983045" data-name="Trazado 983045" d="M257.849,268.947c.233,6.128-2.728,11.26-6.609,11.453-10.55.527-7.224-4.618-7.455-10.747s2.725-11.259,6.606-11.453c6.56-.329,7.036-.353,7.458,10.748" transform="translate(-50.073 -53.085)" fill="#ff8f00"/>
          <path id="Trazado_983046" data-name="Trazado 983046" d="M245.37,266.916c-2.35,3.551-5.2,5.613-6.358,4.6s-.2-4.713,2.155-8.266,5.194-5.618,6.355-4.606.2,4.714-2.152,8.271" transform="translate(-49.056 -53.142)" fill="#ff8f00"/>
          <path id="Trazado_983047" data-name="Trazado 983047" d="M242.907,250.859c-.2,2.845,1.107,8.487,1.107,8.487l12.519.851s1.47-8.112.531-10.507c-2.133.888-11.552,2.091-14.157,1.168" transform="translate(-49.954 -51.354)" fill="#ff8f00"/>
          <g id="Grupo_1103032" data-name="Grupo 1103032" transform="translate(189.493 198.337)" opacity="0.5">
            <g id="Grupo_1103031" data-name="Grupo 1103031">
              <g id="Grupo_1103030" data-name="Grupo 1103030" clip-path="url(#clip-path-6)">
                <path id="Trazado_983048" data-name="Trazado 983048" d="M256.841,267.216c-.171-4.454-.354-7.1-.931-8.669.372-2.5.935-7.139.264-8.855a8.143,8.143,0,0,1-1.061.33,40.754,40.754,0,0,1-.55,7.178c.576,1.571.76,4.215.929,8.669.233,6.127-2.727,11.26-6.609,11.453-2.945.147-4.8-.149-5.967-.785.779,1.521,2.741,2.361,7.315,2.132,3.882-.193,6.842-5.325,6.61-11.453m-17.822,2.512c.509.443,1.345.28,2.318-.326.923-.659,1.738-1.142,1.654-2.111-1.079,1.022-3.656,1.254-4.434,1.325a1.662,1.662,0,0,0,.462,1.112" transform="translate(-238.557 -249.691)" fill="#212121"/>
              </g>
            </g>
          </g>
          <path id="Trazado_983049" data-name="Trazado 983049" d="M216.426,355.869H205.22l-7.472-82.935,28.016-5.185Z" transform="translate(-40.671 -55.068)" fill="#184054"/>
          <path id="Trazado_983050" data-name="Trazado 983050" d="M167.112,355.869h11.2l7.475-82.935-28.018-5.185Z" transform="translate(-32.449 -55.068)" fill="#184054"/>
          <path id="Trazado_983051" data-name="Trazado 983051" d="M200.932,293l-5.072-3h-4.8l-5.074,3V264.488h14.943Z" transform="translate(-38.252 -54.397)" fill="#184054"/>
          <g id="Grupo_1103035" data-name="Grupo 1103035" transform="translate(134.378 212.682)" opacity="0.4">
            <g id="Grupo_1103034" data-name="Grupo 1103034">
              <g id="Grupo_1103033" data-name="Grupo 1103033" clip-path="url(#clip-path-7)">
                <path id="Trazado_983052" data-name="Trazado 983052" d="M216.845,268.312l-8.992,84.862H199.1l.243,2.7h11.206l9.338-88.12Zm-24.975,19.665h-6.962l-1.127.666-5.815,64.531h-8.8l.285,2.7h11.206l5.815-64.532,1.127-.665h4.8l1.126.665Z" transform="translate(-169.171 -267.75)" fill="#212121"/>
              </g>
            </g>
          </g>
          <path id="Trazado_983053" data-name="Trazado 983053" d="M158.755,219.227c0-38.53,13.033-48.8,29.107-48.8s29.1,10.275,29.1,48.8Z" transform="translate(-32.651 -35.05)" fill="#153d51"/>
          <path id="Trazado_983054" data-name="Trazado 983054" d="M226.384,207.535c11.642,0,13.585-10.272,13.585-12.84s-5.822-12.844-19.406-17.981-1.941,20.549-1.941,20.549Z" transform="translate(-44.009 -36.205)" fill="#153d51"/>
          <path id="Trazado_983055" data-name="Trazado 983055" d="M157.68,207.535c-11.642,0-13.581-10.272-13.581-12.84s5.818-12.844,19.4-17.981,1.94,20.549,1.94,20.549Z" transform="translate(-29.637 -36.205)" fill="#153d51"/>
          <path id="Trazado_983056" data-name="Trazado 983056" d="M219.842,189.687c0,10.64-14.77,19.263-32.985,19.263s-32.988-8.623-32.988-19.263,14.77-19.265,32.988-19.265,32.985,8.624,32.985,19.265" transform="translate(-31.646 -35.05)" fill="#153d51"/>
          <path id="Trazado_983057" data-name="Trazado 983057" d="M224.517,215.344c-8.692-4.317-10.562-18.6-6.575-38.417.121-.6.241-1.191.366-1.79l-12.325-4.716L195.4,198.977v49.979c0,3.939,2.509,7.139,5.6,7.139l20.545-2.381c3.093,0,5.6-3.2,5.6-7.141L225.2,216.642c-.131-.72.226-.851-.678-1.3" transform="translate(-40.187 -35.05)" fill="#f57f17"/>
          <path id="Trazado_983058" data-name="Trazado 983058" d="M225.538,217.659c-.13-.717.222-.849-.669-1.292l.78,29.38c0,3.944-2.512,7.141-5.6,7.141L199.5,255.269a4.6,4.6,0,0,1-2.435-.737,5.21,5.21,0,0,0,4.279,2.582l20.545-2.381c3.094,0,5.606-3.2,5.606-7.14Zm-4.738-4.618c-5.112-6.374-5.777-18.876-2.515-35.1.121-.6.242-1.191.366-1.789l-2.062-.789c-.049.244-.1.485-.15.733-3.617,17.991-2.393,31.388,4.361,36.942" transform="translate(-40.53 -36.067)" fill="#e26910"/>
          <path id="Trazado_983059" data-name="Trazado 983059" d="M225.9,241.094H195.4v-4.76h30.2Z" transform="translate(-40.187 -48.606)" fill="#212121"/>
          <path id="Trazado_983060" data-name="Trazado 983060" d="M226.683,256.073H195.4v-4.759h30.97Z" transform="translate(-40.187 -51.688)" fill="#212121"/>
          <path id="Trazado_983061" data-name="Trazado 983061" d="M214.636,173.763l-9.268,49.507-.45,2.379-3.644-1.095.243-1.284,10.65-50.454Z" transform="translate(-41.396 -35.543)" fill="#212121"/>
          <path id="Trazado_983062" data-name="Trazado 983062" d="M158.057,215.344c8.692-4.317,10.56-18.6,6.574-38.417-.122-.6-.244-1.191-.365-1.79l12.322-4.716,10.588,28.556v49.979c0,3.939-2.51,7.139-5.6,7.139l-20.547-2.381c-3.095,0-5.6-3.2-5.6-7.141l1.956-29.933c.132-.72-.227-.851.678-1.3" transform="translate(-31.966 -35.05)" fill="#f57f17"/>
          <path id="Trazado_983063" data-name="Trazado 983063" d="M176.977,170.422l-.743.284,9.983,26.925v49.98c0,3.938-2.51,7.138-5.6,7.138l-20.546-2.381a4.678,4.678,0,0,1-2.752-.955,5.123,5.123,0,0,0,4.1,2.3L181.96,256.1c3.095,0,5.6-3.2,5.6-7.139V198.978Z" transform="translate(-32.355 -35.05)" fill="#e26910"/>
          <path id="Trazado_983064" data-name="Trazado 983064" d="M157,241.094h30.5v-4.76H157.3Z" transform="translate(-32.29 -48.606)" fill="#212121"/>
          <path id="Trazado_983065" data-name="Trazado 983065" d="M156.011,256.073H187.3v-4.759h-30.97Z" transform="translate(-32.087 -51.688)" fill="#212121"/>
          <path id="Trazado_983066" data-name="Trazado 983066" d="M172.767,173.741l9.217,49.53.446,2.379,3.644-1.095-.242-1.284-10.647-50.454Z" transform="translate(-35.533 -35.543)" fill="#212121"/>
          <path id="Trazado_983067" data-name="Trazado 983067" d="M196.088,255.163a.961.961,0,1,1-1.867,0v-47.6a.961.961,0,1,1,1.867,0Z" transform="translate(-39.945 -42.445)" fill="#212121"/>
          <path id="Trazado_983068" data-name="Trazado 983068" d="M195.6,209.368h-1.869l-1.867,7.14.932,2.38h3.738l.933-2.38Zm-.934,8.421a1.463,1.463,0,1,1,1.463-1.462,1.462,1.462,0,0,1-1.463,1.462" transform="translate(-39.461 -43.06)" fill="#e0e0e0"/>
          <path id="Trazado_983069" data-name="Trazado 983069" d="M202.847,168.91c-1.47,3.072-5.4,5.268-10.052,5.268s-8.584-2.2-10.054-5.268c.24-2.037.507-4.286.828-6.669a12.765,12.765,0,0,1,18.452,0c.321,2.383.588,4.633.827,6.669" transform="translate(-37.584 -32.557)" fill="#ffb74d"/>
          <path id="Trazado_983070" data-name="Trazado 983070" d="M208.148,136.522c0,12.793-7.7,27.254-17.206,27.254s-17.208-14.461-17.208-27.254,7.7-19.077,17.208-19.077,17.206,6.283,17.206,19.077" transform="translate(-35.732 -24.155)" fill="#ffcc80"/>
          <path id="Trazado_983071" data-name="Trazado 983071" d="M216.473,145.988c-.417,3.247.379,6-1.408,5.811s-2.9-2.98-2.478-6.227,2.21-5.726,4-5.537.31,2.7-.11,5.953" transform="translate(-43.704 -28.799)" fill="#ffcc80"/>
          <path id="Trazado_983072" data-name="Trazado 983072" d="M173.04,145.988c.417,3.247-.382,6,1.408,5.811s2.9-2.98,2.478-6.227-2.21-5.726-4-5.537-.308,2.7.111,5.953" transform="translate(-35.389 -28.799)" fill="#ffcc80"/>
          <path id="Trazado_983073" data-name="Trazado 983073" d="M202.6,158.8c0,5.363-4.347,8.933-9.713,8.933s-9.713-3.57-9.713-8.933c0-3.29,2.194-6.722,4.787-8.884,1.635-1.361,2.332-3.307,4.926-3.307,2.667,0,3.295,1.947,4.931,3.309,2.59,2.161,4.782,5.592,4.782,8.881" transform="translate(-37.672 -30.153)" fill="#f5f5f5"/>
          <path id="Trazado_983074" data-name="Trazado 983074" d="M184.152,152.118a.663.663,0,0,1-.446-.172l-10.583-9.594a.661.661,0,0,1,.889-.979l10.584,9.592a.663.663,0,0,1-.445,1.153" transform="translate(-35.562 -29.041)" fill="#f5f5f5"/>
          <path id="Trazado_983075" data-name="Trazado 983075" d="M203.558,152.117a.663.663,0,0,1-.452-1.146l10.252-9.592a.662.662,0,1,1,.9.967l-10.252,9.593a.66.66,0,0,1-.452.179" transform="translate(-41.73 -29.04)" fill="#f5f5f5"/>
          <path id="Trazado_983076" data-name="Trazado 983076" d="M183.513,166.217a.657.657,0,0,1-.468-.194l-6.62-6.62a.661.661,0,1,1,.934-.937l6.622,6.619a.663.663,0,0,1,0,.936.656.656,0,0,1-.469.2" transform="translate(-36.245 -32.552)" fill="#f5f5f5"/>
          <path id="Trazado_983077" data-name="Trazado 983077" d="M205.222,166.217a.652.652,0,0,1-.464-.194.66.66,0,0,1,0-.937l6.615-6.619a.662.662,0,0,1,.936.937l-6.615,6.62a.667.667,0,0,1-.472.194" transform="translate(-42.072 -32.552)" fill="#f5f5f5"/>
          <path id="Trazado_983078" data-name="Trazado 983078" d="M199.32,154.084a.637.637,0,0,1-.661.663c-.662,0-3.309-2.65-4.632-2.648s-3.972,2.648-4.634,2.648a.662.662,0,0,1-.661-.663.626.626,0,0,1,.661-.662c.662,0,1.986-2.647,4.634-2.648s3.969,2.648,4.632,2.648a.661.661,0,0,1,.661.662" transform="translate(-38.816 -31.009)" fill="#757575"/>
          <path id="Trazado_983079" data-name="Trazado 983079" d="M198.232,160.667a.427.427,0,0,1-.361.458c-2.305.07-4.622.07-6.928,0a.425.425,0,0,1-.361-.458.413.413,0,0,1,.363-.446h6.924a.414.414,0,0,1,.363.446" transform="translate(-39.197 -32.952)" fill="#bdbdbd"/>
          <path id="Trazado_983080" data-name="Trazado 983080" d="M198.792,164.049a.521.521,0,0,1-.428.5,28.426,28.426,0,0,1-8.306,0,.523.523,0,0,1-.428-.5.376.376,0,0,1,.43-.381,37.591,37.591,0,0,0,8.3,0,.375.375,0,0,1,.43.381" transform="translate(-39.001 -33.661)" fill="#bdbdbd"/>
          <path id="Trazado_983081" data-name="Trazado 983081" d="M198.5,167.564a.567.567,0,0,1-.389.538,16.4,16.4,0,0,1-7.592,0,.568.568,0,0,1-.389-.538.328.328,0,0,1,.391-.356,18.985,18.985,0,0,0,7.589,0,.328.328,0,0,1,.391.356" transform="translate(-39.103 -34.388)" fill="#bdbdbd"/>
          <path id="Trazado_983082" data-name="Trazado 983082" d="M206.189,144.068c0,11.078-11.917,3.692-14.564,3.692s-14.562,7.356-14.562-3.72c0-7.943,0-6.62,14.562-6.62s14.564-1.323,14.564,6.648" transform="translate(-36.416 -28.246)" fill="#263238"/>
          <path id="Trazado_983083" data-name="Trazado 983083" d="M208.15,138.251a1.524,1.524,0,0,1-1.322,1.664H175.059a1.709,1.709,0,0,1,0-3.33h31.769a1.525,1.525,0,0,1,1.322,1.666" transform="translate(-35.732 -28.091)" fill="#263238"/>
          <path id="Trazado_983084" data-name="Trazado 983084" d="M213.387,144.062c.729,0,1.323-2.962,1.323-6.619h-2.65c0,3.657.591,6.619,1.327,6.619" transform="translate(-43.614 -28.268)" fill="#263238"/>
          <path id="Trazado_983085" data-name="Trazado 983085" d="M176.722,144.062c.732,0,1.328-2.962,1.328-6.619H175.4c0,3.657.592,6.619,1.322,6.619" transform="translate(-36.074 -28.268)" fill="#263238"/>
          <path id="Trazado_983086" data-name="Trazado 983086" d="M191.146,143.23v-2.648l-.33-.662c-2.091,0-2.559-.025-4.1-.049-1.134-.018-2.126-.034-3-.034-3.061,0-3.722.249-3.844.4-.315.381-.315,2.475-.315,4.322a5.171,5.171,0,0,0,.892,3.471,2.5,2.5,0,0,0,2.037.659,20.643,20.643,0,0,0,6.054-1.466,5.807,5.807,0,0,0,1.937-.929Z" transform="translate(-36.931 -28.76)" fill="#bbdefb"/>
          <path id="Trazado_983087" data-name="Trazado 983087" d="M186.47,146.332a1.268,1.268,0,1,1,1.487-1.249,1.382,1.382,0,0,1-1.487,1.249" transform="translate(-38.045 -29.582)" fill="#90caf9"/>
          <path id="Trazado_983088" data-name="Trazado 983088" d="M207.911,140.237c-.122-.149-.786-.4-3.856-.4-.869,0-1.86.014-3,.033-1.535.023-2,.049-4.082.049l-.33.662v2.648l.661,3.061a5.9,5.9,0,0,0,1.949.935,20.545,20.545,0,0,0,6.058,1.476c1.161,0,2.914,0,2.914-4.121,0-1.948,0-3.96-.316-4.343" transform="translate(-40.444 -28.761)" fill="#bbdefb"/>
          <path id="Trazado_983089" data-name="Trazado 983089" d="M203.552,146.343a1.268,1.268,0,1,1,1.486-1.249,1.382,1.382,0,0,1-1.486,1.249" transform="translate(-41.559 -29.584)" fill="#90caf9"/>
          <path id="Trazado_983090" data-name="Trazado 983090" d="M190.257,113.429c9.673,0,17.518,8.889,17.518,19.856h2.338c0-12.429-8.892-22.5-19.856-22.5s-19.857,10.075-19.857,22.5h2.335c0-10.967,7.844-19.856,17.522-19.856" transform="translate(-35.046 -22.784)" fill="#ff8f00"/>
          <path id="Trazado_983091" data-name="Trazado 983091" d="M174.744,149.641a1.565,1.565,0,0,1-3.126.18l-.806-14.057a1.565,1.565,0,1,1,3.125-.18Z" transform="translate(-35.13 -27.582)" fill="#212121"/>
          <path id="Trazado_983092" data-name="Trazado 983092" d="M170.508,150.249c-2.59.148-4.868-2.877-5.089-6.759s1.7-7.151,4.281-7.3Z" transform="translate(-34.018 -28.01)" fill="#ff8f00"/>
          <g id="Grupo_1103038" data-name="Grupo 1103038" transform="translate(134.231 110.552)" opacity="0.1">
            <g id="Grupo_1103037" data-name="Grupo 1103037">
              <g id="Grupo_1103036" data-name="Grupo 1103036" clip-path="url(#clip-path-8)">
                <path id="Trazado_983093" data-name="Trazado 983093" d="M168.986,150.144c1.1-2.264,1.738-8.193,1.589-10.968l.674,11.682a3.535,3.535,0,0,1-2.264-.714" transform="translate(-168.986 -139.176)" fill="#212121"/>
              </g>
            </g>
          </g>
          <path id="Trazado_983094" data-name="Trazado 983094" d="M215.03,149.641a1.566,1.566,0,0,0,3.126.18l.8-14.057a1.563,1.563,0,1,0-3.121-.18Z" transform="translate(-44.224 -27.582)" fill="#212121"/>
          <path id="Trazado_983095" data-name="Trazado 983095" d="M218.963,150.249c2.59.148,4.865-2.877,5.09-6.759s-1.694-7.151-4.285-7.3Z" transform="translate(-45.034 -28.01)" fill="#ff8f00"/>
          <g id="Grupo_1103041" data-name="Grupo 1103041" transform="translate(173.924 114.77)" opacity="0.1">
            <g id="Grupo_1103040" data-name="Grupo 1103040">
              <g id="Grupo_1103039" data-name="Grupo 1103039" clip-path="url(#clip-path-9)">
                <path id="Trazado_983096" data-name="Trazado 983096" d="M224.065,144.486c0,.229,0,.472-.013.714-.23,3.881-2.507,6.9-5.095,6.75l.094-1.563c3.1-.215,4.409-4.149,5.014-5.9" transform="translate(-218.957 -144.486)" fill="#212121"/>
              </g>
            </g>
          </g>
          <path id="Trazado_983097" data-name="Trazado 983097" d="M207.284,128.673a85.866,85.866,0,0,1-34.641,0c-3.544,0-5.3-.647-1.483-3.814a19.294,19.294,0,0,1,6.671-11.3,1.364,1.364,0,0,1,.525-1.846l2.4-1.4a1.4,1.4,0,0,1,1.9.512l.014.041c.027-.014.054-.014.081-.028a19.486,19.486,0,0,1,4.446-1.05v-.175a.835.835,0,0,1,.014-.189,1.394,1.394,0,0,1,1.374-1.2h2.775a1.386,1.386,0,0,1,1.387,1.388v.175a.087.087,0,0,1,.055.013,19.021,19.021,0,0,1,4.472,1.065l.014-.041c0-.014.014-.014.028-.027a1.377,1.377,0,0,1,1.873-.485l2.4,1.4a1.362,1.362,0,0,1,.524,1.846,19.285,19.285,0,0,1,6.67,11.3c3.814,3.167,2.063,3.814-1.5,3.814" transform="translate(-34.761 -22.257)" fill="#f57f17"/>
          <path id="Trazado_983098" data-name="Trazado 983098" d="M203.268,111.2l-.742,6.993a2.29,2.29,0,0,1-4.569-.23,1.392,1.392,0,0,1,.014-.243l.782-7.518a19.027,19.027,0,0,1,4.473,1.064l.014-.04c0-.014.014-.014.028-.027" transform="translate(-40.714 -22.665)" fill="#e26910"/>
          <path id="Trazado_983099" data-name="Trazado 983099" d="M191.6,117.719a1.31,1.31,0,0,1,.014.23,2.3,2.3,0,0,1-2.062,2.29,2.28,2.28,0,0,1-2.519-2.048l-.728-6.953a19.435,19.435,0,0,1,4.446-1.051Z" transform="translate(-38.317 -22.662)" fill="#e26910"/>
          <path id="Trazado_983100" data-name="Trazado 983100" d="M214.206,127.389c-12.651,3.544-15.7,2.506-18.809,2.506,3.827-1,18.688-.62,16.074-9.378a21.2,21.2,0,0,1,2.735,6.872" transform="translate(-40.187 -24.787)" fill="#e26910"/>
          <path id="Trazado_983101" data-name="Trazado 983101" d="M233.628,388.012a.893.893,0,0,1,.118-.447,5.114,5.114,0,0,0,.3-1.8,2.954,2.954,0,0,0-.6-1.8,5.338,5.338,0,0,0-1.742-.983l-1.328-.442a18.13,18.13,0,0,0-2.327-.577l-4.846-.809a4.414,4.414,0,0,1-2.039-1.046l-1.907-1.908a2.8,2.8,0,0,1-.7-2.045l.907-7.24c.08-.656.195-1.731.257-2.39l.708-7.824H203.15l.71,7.824c.063.659.2,1.734.31,2.385l.808,4.845a17.664,17.664,0,0,1,.2,2.389,8.8,8.8,0,0,1-.384,2.346l-.438,1.323a8.8,8.8,0,0,0-.381,2.347v4.211a3.221,3.221,0,0,0,.3,1.2.814.814,0,0,1,.111.475c4.2-.7,19.409.477,29.245-.028" transform="translate(-41.782 -73.772)" fill="#dedede"/>
          <g id="Grupo_1103044" data-name="Grupo 1103044" transform="translate(175.416 284.92)" opacity="0.5">
            <g id="Grupo_1103043" data-name="Grupo 1103043">
              <g id="Grupo_1103042" data-name="Grupo 1103042" clip-path="url(#clip-path-10)">
                <path id="Trazado_983102" data-name="Trazado 983102" d="M237.084,383.956a5.324,5.324,0,0,0-1.742-.983l-1.328-.442a18.142,18.142,0,0,0-2.327-.577l-4.846-.809A4.425,4.425,0,0,1,224.8,380.1l-1.906-1.909a2.8,2.8,0,0,1-.7-2.045l.906-7.239c.081-.656.2-1.732.258-2.391l.707-7.824h-1.346l-.708,7.824c-.062.659-.178,1.735-.259,2.391l-.9,7.239a2.8,2.8,0,0,0,.7,2.045l1.907,1.909a4.432,4.432,0,0,0,2.04,1.046l4.847.809a18.218,18.218,0,0,1,2.326.577l1.329.442a5.328,5.328,0,0,1,1.743.983,2.959,2.959,0,0,1,.6,1.8,5.111,5.111,0,0,1-.3,1.8.9.9,0,0,0-.118.447c-1.662.086-3.483.12-5.371.127,2.374.007,4.666-.021,6.718-.127a.908.908,0,0,1,.119-.447,5.11,5.11,0,0,0,.3-1.8,2.959,2.959,0,0,0-.6-1.8" transform="translate(-220.835 -358.692)" fill="#212121"/>
              </g>
            </g>
          </g>
          <path id="Trazado_983103" data-name="Trazado 983103" d="M233.96,395.538c-.076,0-.114-.062-.119-.155-9.835.5-25.048-.67-29.245.028-.012.075-.044.127-.111.127-.164,0-.3.405-.3.9a3.86,3.86,0,0,0,.15,1.205c.081.164.692.3,1.353.3H211.4c.661,0,1.2-.271,1.2-.6s.543-.6,1.206-.6h1.2a2.943,2.943,0,0,1,1.8.6,2.953,2.953,0,0,0,1.807.6h13.834a2.949,2.949,0,0,0,1.505-.3,2.133,2.133,0,0,0,.3-1.205c0-.5-.135-.9-.3-.9" transform="translate(-41.994 -81.277)" fill="#212121"/>
          <path id="Trazado_983104" data-name="Trazado 983104" d="M149.166,388.012a.911.911,0,0,0-.118-.447,5.111,5.111,0,0,1-.3-1.8,2.954,2.954,0,0,1,.6-1.8,5.338,5.338,0,0,1,1.742-.983l1.329-.442a18.086,18.086,0,0,1,2.326-.577l4.847-.809a4.418,4.418,0,0,0,2.039-1.046l1.907-1.908a2.8,2.8,0,0,0,.7-2.045l-.906-7.24c-.08-.656-.2-1.731-.257-2.39l-.709-7.824h17.278l-.71,7.824c-.062.659-.2,1.734-.308,2.385l-.809,4.845a17.793,17.793,0,0,0-.2,2.389,8.833,8.833,0,0,0,.384,2.346l.439,1.323a8.837,8.837,0,0,1,.382,2.347v4.211a3.238,3.238,0,0,1-.3,1.2.835.835,0,0,0-.112.475c-4.2-.7-19.409.477-29.244-.028" transform="translate(-30.593 -73.772)" fill="#dedede"/>
          <g id="Grupo_1103047" data-name="Grupo 1103047" transform="translate(145.679 284.92)" opacity="0.5">
            <g id="Grupo_1103046" data-name="Grupo 1103046">
              <g id="Grupo_1103045" data-name="Grupo 1103045" clip-path="url(#clip-path-11)">
                <path id="Trazado_983105" data-name="Trazado 983105" d="M185.751,368.9c.11-.651.247-1.727.308-2.386l.71-7.824h-1.347l-.711,7.824c-.061.659-.2,1.735-.307,2.386l-.809,4.845a17.652,17.652,0,0,0-.2,2.388,8.865,8.865,0,0,0,.383,2.347l.44,1.323a8.837,8.837,0,0,1,.382,2.347v4.21a3.238,3.238,0,0,1-.3,1.2,1.012,1.012,0,0,0-.1.338c.512.036.979.078,1.339.137a.836.836,0,0,1,.112-.476,3.238,3.238,0,0,0,.3-1.2v-4.21a8.837,8.837,0,0,0-.382-2.347l-.439-1.323a8.834,8.834,0,0,1-.384-2.347,17.781,17.781,0,0,1,.2-2.388Z" transform="translate(-183.398 -358.692)" fill="#212121"/>
              </g>
            </g>
          </g>
          <path id="Trazado_983106" data-name="Trazado 983106" d="M149.047,395.538c.075,0,.112-.062.118-.155,9.835.5,25.048-.67,29.245.028.011.075.044.127.111.127.164,0,.3.405.3.9a3.854,3.854,0,0,1-.151,1.205c-.081.164-.691.3-1.353.3H171.6c-.662,0-1.2-.271-1.2-.6s-.544-.6-1.206-.6H168a2.942,2.942,0,0,0-1.8.6,2.953,2.953,0,0,1-1.806.6H150.552a2.945,2.945,0,0,1-1.5-.3,2.133,2.133,0,0,1-.3-1.205c0-.5.136-.9.3-.9" transform="translate(-30.593 -81.277)" fill="#212121"/>
        </g>
      </g>
    </g>
    <path id="Trazado_987589" data-name="Trazado 987589" d="M-71.863-3.9V0h-1.312V-9.953H-69.5a3.688,3.688,0,0,1,2.56.834,2.827,2.827,0,0,1,.926,2.208,2.79,2.79,0,0,1-.906,2.232,3.853,3.853,0,0,1-2.594.783Zm0-1.073H-69.5a2.358,2.358,0,0,0,1.613-.5A1.815,1.815,0,0,0-67.331-6.9a1.876,1.876,0,0,0-.561-1.424,2.209,2.209,0,0,0-1.538-.555h-2.434Zm10.9-1.292a3.79,3.79,0,0,0-.622-.048,1.667,1.667,0,0,0-1.688,1.06V0h-1.265V-7.4h1.23l.021.854a1.969,1.969,0,0,1,1.764-.991,1.292,1.292,0,0,1,.561.1Zm.69,2.5a4.369,4.369,0,0,1,.427-1.955,3.187,3.187,0,0,1,1.189-1.34,3.238,3.238,0,0,1,1.74-.472,3.119,3.119,0,0,1,2.444,1.046,4.024,4.024,0,0,1,.933,2.782v.089a4.407,4.407,0,0,1-.414,1.938A3.14,3.14,0,0,1-55.139-.342a3.275,3.275,0,0,1-1.767.479A3.111,3.111,0,0,1-59.343-.909a4,4,0,0,1-.933-2.769Zm1.271.15a3.164,3.164,0,0,0,.571,1.976A1.827,1.827,0,0,0-56.906-.9a1.816,1.816,0,0,0,1.531-.755,3.46,3.46,0,0,0,.567-2.116,3.159,3.159,0,0,0-.578-1.972,1.836,1.836,0,0,0-1.535-.755,1.816,1.816,0,0,0-1.511.745A3.434,3.434,0,0,0-59-3.616Zm8.764-5.571V-7.4h1.381v.978h-1.381v4.593a1.027,1.027,0,0,0,.185.667.777.777,0,0,0,.629.222,3.062,3.062,0,0,0,.6-.082V0A3.688,3.688,0,0,1-49.8.137a1.575,1.575,0,0,1-1.278-.513,2.2,2.2,0,0,1-.431-1.456V-6.419h-1.347V-7.4h1.347V-9.187ZM-44.314.137a3.232,3.232,0,0,1-2.447-.988A3.666,3.666,0,0,1-47.7-3.493v-.232a4.438,4.438,0,0,1,.42-1.965,3.28,3.28,0,0,1,1.176-1.354,2.956,2.956,0,0,1,1.637-.489,2.77,2.77,0,0,1,2.242.95,4.114,4.114,0,0,1,.8,2.721v.526H-46.44A2.629,2.629,0,0,0-45.8-1.569,2.009,2.009,0,0,0-44.246-.9a2.2,2.2,0,0,0,1.135-.273,2.851,2.851,0,0,0,.813-.725l.772.6A3.106,3.106,0,0,1-44.314.137Zm-.157-6.631a1.687,1.687,0,0,0-1.285.557A2.708,2.708,0,0,0-46.4-4.375h3.705v-.1a2.409,2.409,0,0,0-.52-1.494A1.588,1.588,0,0,0-44.471-6.494ZM-37-.9a1.822,1.822,0,0,0,1.183-.41,1.443,1.443,0,0,0,.561-1.025h1.2a2.293,2.293,0,0,1-.437,1.21,2.881,2.881,0,0,1-1.077.916A3.107,3.107,0,0,1-37,.137,3.047,3.047,0,0,1-39.4-.872a4.016,4.016,0,0,1-.892-2.758v-.212a4.453,4.453,0,0,1,.4-1.921A3.02,3.02,0,0,1-38.76-7.068a3.233,3.233,0,0,1,1.753-.465,2.966,2.966,0,0,1,2.068.745,2.663,2.663,0,0,1,.878,1.935h-1.2A1.743,1.743,0,0,0-35.8-6.033a1.691,1.691,0,0,0-1.207-.461A1.77,1.77,0,0,0-38.5-5.8a3.259,3.259,0,0,0-.53,2.006v.239A3.194,3.194,0,0,0-38.5-1.586,1.779,1.779,0,0,0-37-.9Zm7.328,0a1.822,1.822,0,0,0,1.183-.41,1.443,1.443,0,0,0,.561-1.025h1.2a2.293,2.293,0,0,1-.437,1.21,2.881,2.881,0,0,1-1.077.916,3.107,3.107,0,0,1-1.425.342,3.047,3.047,0,0,1-2.4-1.008,4.016,4.016,0,0,1-.892-2.758v-.212a4.453,4.453,0,0,1,.4-1.921,3.02,3.02,0,0,1,1.138-1.306,3.233,3.233,0,0,1,1.753-.465,2.966,2.966,0,0,1,2.068.745,2.663,2.663,0,0,1,.878,1.935h-1.2a1.743,1.743,0,0,0-.543-1.179,1.691,1.691,0,0,0-1.207-.461,1.77,1.77,0,0,0-1.494.694,3.259,3.259,0,0,0-.53,2.006v.239a3.194,3.194,0,0,0,.526,1.969A1.779,1.779,0,0,0-29.671-.9Zm5.735.9H-25.2V-7.4h1.265ZM-25.3-9.358a.755.755,0,0,1,.188-.52.706.706,0,0,1,.557-.212A.717.717,0,0,1-24-9.878a.747.747,0,0,1,.191.52A.722.722,0,0,1-24-8.846a.73.73,0,0,1-.561.205.718.718,0,0,1-.557-.205A.73.73,0,0,1-25.3-9.358Zm3.056,5.592a4.369,4.369,0,0,1,.427-1.955,3.187,3.187,0,0,1,1.189-1.34,3.238,3.238,0,0,1,1.74-.472,3.119,3.119,0,0,1,2.444,1.046,4.024,4.024,0,0,1,.933,2.782v.089a4.407,4.407,0,0,1-.414,1.938A3.14,3.14,0,0,1-17.11-.342a3.275,3.275,0,0,1-1.767.479A3.111,3.111,0,0,1-21.314-.909a4,4,0,0,1-.933-2.769Zm1.271.15a3.164,3.164,0,0,0,.571,1.976A1.827,1.827,0,0,0-18.877-.9a1.816,1.816,0,0,0,1.531-.755,3.46,3.46,0,0,0,.567-2.116,3.159,3.159,0,0,0-.578-1.972,1.836,1.836,0,0,0-1.535-.755,1.816,1.816,0,0,0-1.511.745A3.434,3.434,0,0,0-20.976-3.616Zm2.659-6.87h1.531l-1.832,2.01-1.019,0Zm5.585,3.09.041.93a2.7,2.7,0,0,1,2.215-1.066q2.345,0,2.365,2.646V0H-9.375V-4.895a1.7,1.7,0,0,0-.366-1.183,1.466,1.466,0,0,0-1.118-.383,1.825,1.825,0,0,0-1.08.328,2.228,2.228,0,0,0-.725.861V0h-1.265V-7.4ZM-3.045-3.76A4.333,4.333,0,0,1-2.239-6.5,2.551,2.551,0,0,1-.126-7.533a2.565,2.565,0,0,1,2.058.889V-10.5H3.2V0H2.034L1.972-.793A2.575,2.575,0,0,1-.14.137a2.526,2.526,0,0,1-2.1-1.053,4.382,4.382,0,0,1-.81-2.748Zm1.265.144a3.281,3.281,0,0,0,.52,1.969A1.68,1.68,0,0,0,.174-.937a1.845,1.845,0,0,0,1.757-1.08v-3.4A1.859,1.859,0,0,0,.188-6.46a1.687,1.687,0,0,0-1.449.718A3.612,3.612,0,0,0-1.781-3.616ZM8.227.137A3.232,3.232,0,0,1,5.78-.851a3.666,3.666,0,0,1-.943-2.642v-.232a4.438,4.438,0,0,1,.42-1.965A3.28,3.28,0,0,1,6.433-7.044,2.956,2.956,0,0,1,8.07-7.533a2.77,2.77,0,0,1,2.242.95,4.114,4.114,0,0,1,.8,2.721v.526H6.1A2.629,2.629,0,0,0,6.74-1.569,2.009,2.009,0,0,0,8.3-.9,2.2,2.2,0,0,0,9.43-1.169a2.851,2.851,0,0,0,.813-.725l.772.6A3.106,3.106,0,0,1,8.227.137ZM8.07-6.494a1.687,1.687,0,0,0-1.285.557,2.708,2.708,0,0,0-.643,1.562H9.847v-.1a2.409,2.409,0,0,0-.52-1.494A1.588,1.588,0,0,0,8.07-6.494ZM17.415,0H16.15V-10.5h1.265ZM24,0a2.657,2.657,0,0,1-.178-.779,2.822,2.822,0,0,1-2.105.916,2.611,2.611,0,0,1-1.794-.619,2,2,0,0,1-.7-1.569A2.091,2.091,0,0,1,20.1-3.845a4.142,4.142,0,0,1,2.471-.639h1.23v-.581a1.42,1.42,0,0,0-.4-1.056,1.593,1.593,0,0,0-1.169-.393,1.844,1.844,0,0,0-1.135.342,1.007,1.007,0,0,0-.458.827H19.376a1.745,1.745,0,0,1,.393-1.07,2.683,2.683,0,0,1,1.066-.817,3.588,3.588,0,0,1,1.48-.3,2.924,2.924,0,0,1,2,.639,2.306,2.306,0,0,1,.752,1.76v3.4a4.162,4.162,0,0,0,.26,1.62V0Zm-2.1-.964a2.223,2.223,0,0,0,1.128-.308,1.861,1.861,0,0,0,.772-.8V-3.589h-.991q-2.324,0-2.324,1.36a1.151,1.151,0,0,0,.4.93A1.524,1.524,0,0,0,21.906-.964ZM33.486-.9a1.822,1.822,0,0,0,1.183-.41,1.443,1.443,0,0,0,.561-1.025h1.2a2.293,2.293,0,0,1-.437,1.21,2.881,2.881,0,0,1-1.077.916,3.107,3.107,0,0,1-1.425.342,3.047,3.047,0,0,1-2.4-1.008,4.016,4.016,0,0,1-.892-2.758v-.212a4.453,4.453,0,0,1,.4-1.921,3.02,3.02,0,0,1,1.138-1.306,3.233,3.233,0,0,1,1.753-.465,2.966,2.966,0,0,1,2.068.745,2.663,2.663,0,0,1,.878,1.935h-1.2a1.743,1.743,0,0,0-.543-1.179,1.691,1.691,0,0,0-1.207-.461,1.77,1.77,0,0,0-1.494.694,3.259,3.259,0,0,0-.53,2.006v.239a3.194,3.194,0,0,0,.526,1.969A1.779,1.779,0,0,0,33.486-.9Zm8.928.9a2.657,2.657,0,0,1-.178-.779A2.822,2.822,0,0,1,40.13.137a2.611,2.611,0,0,1-1.794-.619,2,2,0,0,1-.7-1.569,2.091,2.091,0,0,1,.878-1.794,4.142,4.142,0,0,1,2.471-.639h1.23v-.581a1.42,1.42,0,0,0-.4-1.056,1.593,1.593,0,0,0-1.169-.393,1.844,1.844,0,0,0-1.135.342,1.007,1.007,0,0,0-.458.827H37.786a1.745,1.745,0,0,1,.393-1.07,2.683,2.683,0,0,1,1.066-.817,3.588,3.588,0,0,1,1.48-.3,2.924,2.924,0,0,1,2,.639,2.306,2.306,0,0,1,.752,1.76v3.4a4.162,4.162,0,0,0,.26,1.62V0Zm-2.1-.964a2.223,2.223,0,0,0,1.128-.308,1.861,1.861,0,0,0,.772-.8V-3.589h-.991q-2.324,0-2.324,1.36a1.151,1.151,0,0,0,.4.93A1.524,1.524,0,0,0,40.315-.964ZM51.724-3.616a4.4,4.4,0,0,1-.779,2.724A2.49,2.49,0,0,1,48.853.137a2.578,2.578,0,0,1-2.167-.991L46.625,0H45.462V-10.5h1.265v3.917a2.564,2.564,0,0,1,2.112-.95,2.505,2.505,0,0,1,2.116,1.019,4.53,4.53,0,0,1,.769,2.789ZM50.459-3.76a3.417,3.417,0,0,0-.5-2,1.652,1.652,0,0,0-1.436-.7,1.857,1.857,0,0,0-1.8,1.162v3.2A1.909,1.909,0,0,0,48.539-.937a1.643,1.643,0,0,0,1.415-.7A3.634,3.634,0,0,0,50.459-3.76Zm5.927,3.9a3.232,3.232,0,0,1-2.447-.988A3.666,3.666,0,0,1,53-3.493v-.232a4.438,4.438,0,0,1,.42-1.965,3.28,3.28,0,0,1,1.176-1.354,2.956,2.956,0,0,1,1.637-.489,2.77,2.77,0,0,1,2.242.95,4.114,4.114,0,0,1,.8,2.721v.526H54.26A2.629,2.629,0,0,0,54.9-1.569,2.009,2.009,0,0,0,56.455-.9a2.2,2.2,0,0,0,1.135-.273,2.851,2.851,0,0,0,.813-.725l.772.6A3.106,3.106,0,0,1,56.386.137Zm-.157-6.631a1.687,1.687,0,0,0-1.285.557A2.708,2.708,0,0,0,54.3-4.375h3.705v-.1a2.409,2.409,0,0,0-.52-1.494A1.588,1.588,0,0,0,56.229-6.494Zm5.694,5.462H66.25V0H60.378V-.93l4.081-5.421H60.44V-7.4h5.605v.9ZM72.239,0a2.657,2.657,0,0,1-.178-.779,2.822,2.822,0,0,1-2.105.916,2.611,2.611,0,0,1-1.794-.619,2,2,0,0,1-.7-1.569,2.091,2.091,0,0,1,.878-1.794,4.141,4.141,0,0,1,2.471-.639h1.23v-.581a1.42,1.42,0,0,0-.4-1.056,1.593,1.593,0,0,0-1.169-.393,1.844,1.844,0,0,0-1.135.342,1.007,1.007,0,0,0-.458.827H67.611A1.745,1.745,0,0,1,68-6.416a2.683,2.683,0,0,1,1.066-.817,3.588,3.588,0,0,1,1.48-.3,2.924,2.924,0,0,1,2,.639,2.306,2.306,0,0,1,.752,1.76v3.4a4.162,4.162,0,0,0,.26,1.62V0Zm-2.1-.964a2.223,2.223,0,0,0,1.128-.308,1.861,1.861,0,0,0,.772-.8V-3.589h-.991q-2.324,0-2.324,1.36a1.151,1.151,0,0,0,.4.93A1.524,1.524,0,0,0,70.14-.964Z" transform="translate(-1228.211 -8316.548)" fill="#12263f"/>
    <path id="Trazado_987590" data-name="Trazado 987590" d="M-57.3-3.9V0h-1.312V-9.953h3.671a3.688,3.688,0,0,1,2.56.834,2.827,2.827,0,0,1,.926,2.208,2.79,2.79,0,0,1-.906,2.232,3.853,3.853,0,0,1-2.594.783Zm0-1.073h2.358a2.358,2.358,0,0,0,1.613-.5A1.815,1.815,0,0,0-52.763-6.9a1.875,1.875,0,0,0-.561-1.424,2.209,2.209,0,0,0-1.538-.555H-57.3Zm10.9-1.292a3.79,3.79,0,0,0-.622-.048,1.667,1.667,0,0,0-1.688,1.06V0h-1.265V-7.4h1.23l.021.854a1.969,1.969,0,0,1,1.764-.991,1.292,1.292,0,0,1,.561.1Zm.69,2.5a4.369,4.369,0,0,1,.427-1.955,3.187,3.187,0,0,1,1.189-1.34,3.238,3.238,0,0,1,1.74-.472,3.119,3.119,0,0,1,2.444,1.046,4.024,4.024,0,0,1,.933,2.782v.089a4.407,4.407,0,0,1-.414,1.938A3.14,3.14,0,0,1-40.571-.342a3.275,3.275,0,0,1-1.767.479A3.111,3.111,0,0,1-44.775-.909a4,4,0,0,1-.933-2.769Zm1.271.15a3.164,3.164,0,0,0,.571,1.976A1.827,1.827,0,0,0-42.338-.9a1.816,1.816,0,0,0,1.531-.755,3.46,3.46,0,0,0,.567-2.116,3.159,3.159,0,0,0-.578-1.972,1.836,1.836,0,0,0-1.535-.755,1.816,1.816,0,0,0-1.511.745A3.434,3.434,0,0,0-44.437-3.616Zm8.764-5.571V-7.4h1.381v.978h-1.381v4.593a1.027,1.027,0,0,0,.185.667.777.777,0,0,0,.629.222,3.062,3.062,0,0,0,.6-.082V0a3.688,3.688,0,0,1-.971.136,1.575,1.575,0,0,1-1.278-.513,2.2,2.2,0,0,1-.431-1.456V-6.419h-1.347V-7.4h1.347V-9.187ZM-29.747.137a3.232,3.232,0,0,1-2.447-.988,3.666,3.666,0,0,1-.943-2.642v-.232a4.438,4.438,0,0,1,.42-1.965,3.28,3.28,0,0,1,1.176-1.354A2.956,2.956,0,0,1-29.9-7.533a2.77,2.77,0,0,1,2.242.95,4.114,4.114,0,0,1,.8,2.721v.526h-5.011a2.629,2.629,0,0,0,.639,1.767A2.009,2.009,0,0,0-29.678-.9a2.2,2.2,0,0,0,1.135-.273,2.851,2.851,0,0,0,.813-.725l.772.6A3.106,3.106,0,0,1-29.747.137ZM-29.9-6.494a1.687,1.687,0,0,0-1.285.557,2.708,2.708,0,0,0-.643,1.562h3.705v-.1a2.409,2.409,0,0,0-.52-1.494A1.588,1.588,0,0,0-29.9-6.494Zm7.472,5.6a1.822,1.822,0,0,0,1.183-.41,1.443,1.443,0,0,0,.561-1.025h1.2a2.293,2.293,0,0,1-.437,1.21,2.881,2.881,0,0,1-1.077.916,3.107,3.107,0,0,1-1.425.342,3.047,3.047,0,0,1-2.4-1.008,4.016,4.016,0,0,1-.892-2.758v-.212a4.453,4.453,0,0,1,.4-1.921,3.02,3.02,0,0,1,1.138-1.306,3.233,3.233,0,0,1,1.753-.465,2.966,2.966,0,0,1,2.068.745,2.663,2.663,0,0,1,.878,1.935h-1.2a1.743,1.743,0,0,0-.543-1.179,1.691,1.691,0,0,0-1.207-.461,1.77,1.77,0,0,0-1.494.694,3.259,3.259,0,0,0-.53,2.006v.239a3.194,3.194,0,0,0,.526,1.969A1.779,1.779,0,0,0-22.432-.9Zm7.328,0a1.822,1.822,0,0,0,1.183-.41,1.443,1.443,0,0,0,.561-1.025h1.2a2.293,2.293,0,0,1-.437,1.21,2.881,2.881,0,0,1-1.077.916A3.107,3.107,0,0,1-15.1.137a3.047,3.047,0,0,1-2.4-1.008A4.016,4.016,0,0,1-18.4-3.63v-.212A4.453,4.453,0,0,1-18-5.763a3.02,3.02,0,0,1,1.138-1.306,3.233,3.233,0,0,1,1.753-.465,2.966,2.966,0,0,1,2.068.745,2.663,2.663,0,0,1,.878,1.935h-1.2A1.743,1.743,0,0,0-13.9-6.033a1.691,1.691,0,0,0-1.207-.461A1.77,1.77,0,0,0-16.6-5.8a3.259,3.259,0,0,0-.53,2.006v.239a3.194,3.194,0,0,0,.526,1.969A1.779,1.779,0,0,0-15.1-.9Zm5.735.9h-1.265V-7.4h1.265Zm-1.367-9.358a.755.755,0,0,1,.188-.52.706.706,0,0,1,.557-.212.717.717,0,0,1,.561.212.747.747,0,0,1,.191.52.722.722,0,0,1-.191.513.73.73,0,0,1-.561.205.718.718,0,0,1-.557-.205A.73.73,0,0,1-10.736-9.358ZM-7.68-3.767a4.369,4.369,0,0,1,.427-1.955,3.187,3.187,0,0,1,1.189-1.34,3.238,3.238,0,0,1,1.74-.472A3.119,3.119,0,0,1-1.88-6.487,4.024,4.024,0,0,1-.947-3.705v.089A4.407,4.407,0,0,1-1.36-1.678,3.14,3.14,0,0,1-2.543-.342,3.275,3.275,0,0,1-4.31.137,3.111,3.111,0,0,1-6.747-.909,4,4,0,0,1-7.68-3.678Zm1.271.15a3.164,3.164,0,0,0,.571,1.976A1.827,1.827,0,0,0-4.31-.9a1.816,1.816,0,0,0,1.531-.755,3.46,3.46,0,0,0,.567-2.116,3.159,3.159,0,0,0-.578-1.972,1.836,1.836,0,0,0-1.535-.755,1.816,1.816,0,0,0-1.511.745A3.434,3.434,0,0,0-6.409-3.616Zm2.659-6.87h1.531L-4.05-8.477l-1.019,0ZM1.835-7.4l.041.93A2.7,2.7,0,0,1,4.091-7.533q2.345,0,2.365,2.646V0H5.192V-4.895a1.7,1.7,0,0,0-.366-1.183A1.466,1.466,0,0,0,3.708-6.46a1.825,1.825,0,0,0-1.08.328,2.228,2.228,0,0,0-.725.861V0H.639V-7.4ZM16.4,0a2.657,2.657,0,0,1-.178-.779,2.822,2.822,0,0,1-2.105.916,2.611,2.611,0,0,1-1.794-.619,2,2,0,0,1-.7-1.569A2.091,2.091,0,0,1,12.5-3.845a4.142,4.142,0,0,1,2.471-.639H16.2v-.581a1.42,1.42,0,0,0-.4-1.056,1.593,1.593,0,0,0-1.169-.393,1.844,1.844,0,0,0-1.135.342,1.007,1.007,0,0,0-.458.827H11.768a1.745,1.745,0,0,1,.393-1.07,2.683,2.683,0,0,1,1.066-.817,3.588,3.588,0,0,1,1.48-.3,2.924,2.924,0,0,1,2,.639,2.306,2.306,0,0,1,.752,1.76v3.4a4.162,4.162,0,0,0,.26,1.62V0ZM14.3-.964a2.223,2.223,0,0,0,1.128-.308,1.861,1.861,0,0,0,.772-.8V-3.589h-.991q-2.324,0-2.324,1.36a1.151,1.151,0,0,0,.4.93A1.524,1.524,0,0,0,14.3-.964Zm9.714.232a2.686,2.686,0,0,1-2.167.868,2.3,2.3,0,0,1-1.8-.687,2.974,2.974,0,0,1-.625-2.034V-7.4h1.265v4.778q0,1.682,1.367,1.682a1.893,1.893,0,0,0,1.928-1.08V-7.4h1.265V0h-1.2ZM26.855-3.76A4.333,4.333,0,0,1,27.662-6.5a2.551,2.551,0,0,1,2.112-1.036,2.565,2.565,0,0,1,2.058.889V-10.5H33.1V0H31.934l-.062-.793a2.575,2.575,0,0,1-2.112.93,2.526,2.526,0,0,1-2.1-1.053,4.382,4.382,0,0,1-.81-2.748Zm1.265.144a3.281,3.281,0,0,0,.52,1.969,1.68,1.68,0,0,0,1.436.711,1.845,1.845,0,0,0,1.757-1.08v-3.4A1.859,1.859,0,0,0,30.088-6.46a1.687,1.687,0,0,0-1.449.718A3.612,3.612,0,0,0,28.12-3.616ZM36.432,0H35.167V-7.4h1.265ZM35.065-9.358a.755.755,0,0,1,.188-.52.706.706,0,0,1,.557-.212.717.717,0,0,1,.561.212.747.747,0,0,1,.191.52.722.722,0,0,1-.191.513.73.73,0,0,1-.561.205.718.718,0,0,1-.557-.205A.73.73,0,0,1,35.065-9.358Zm5.106.171V-7.4h1.381v.978H40.171v4.593a1.027,1.027,0,0,0,.185.667.777.777,0,0,0,.629.222,3.062,3.062,0,0,0,.6-.082V0a3.688,3.688,0,0,1-.971.136,1.575,1.575,0,0,1-1.278-.513,2.2,2.2,0,0,1-.431-1.456V-6.419H37.56V-7.4h1.347V-9.187ZM44.4,0H43.138V-7.4H44.4ZM43.036-9.358a.755.755,0,0,1,.188-.52.706.706,0,0,1,.557-.212.717.717,0,0,1,.561.212.747.747,0,0,1,.191.52.722.722,0,0,1-.191.513.73.73,0,0,1-.561.205.718.718,0,0,1-.557-.205A.73.73,0,0,1,43.036-9.358Zm5.831,7.643L50.7-7.4h1.292L49.338,0h-.964l-2.68-7.4h1.292ZM57.671,0a2.657,2.657,0,0,1-.178-.779,2.822,2.822,0,0,1-2.105.916,2.611,2.611,0,0,1-1.794-.619,2,2,0,0,1-.7-1.569,2.091,2.091,0,0,1,.878-1.794,4.142,4.142,0,0,1,2.471-.639h1.23v-.581a1.42,1.42,0,0,0-.4-1.056,1.593,1.593,0,0,0-1.169-.393,1.844,1.844,0,0,0-1.135.342,1.007,1.007,0,0,0-.458.827H53.043a1.745,1.745,0,0,1,.393-1.07A2.683,2.683,0,0,1,54.5-7.232a3.588,3.588,0,0,1,1.48-.3,2.924,2.924,0,0,1,2,.639,2.306,2.306,0,0,1,.752,1.76v3.4A4.162,4.162,0,0,0,59-.109V0Zm-2.1-.964A2.223,2.223,0,0,0,56.7-1.271a1.861,1.861,0,0,0,.772-.8V-3.589h-.991q-2.324,0-2.324,1.36a1.151,1.151,0,0,0,.4.93A1.524,1.524,0,0,0,55.573-.964Z" transform="translate(-1368.496 -8253.646)" fill="#12263f"/>
    <path id="Trazado_987591" data-name="Trazado 987591" d="M-68.223-3.9V0h-1.312V-9.953h3.671a3.688,3.688,0,0,1,2.56.834,2.827,2.827,0,0,1,.926,2.208,2.79,2.79,0,0,1-.906,2.232,3.853,3.853,0,0,1-2.594.783Zm0-1.073h2.358a2.358,2.358,0,0,0,1.613-.5A1.815,1.815,0,0,0-63.69-6.9a1.875,1.875,0,0,0-.561-1.424,2.209,2.209,0,0,0-1.538-.555h-2.434Zm10.9-1.292a3.79,3.79,0,0,0-.622-.048,1.667,1.667,0,0,0-1.688,1.06V0H-60.9V-7.4h1.23l.021.854a1.969,1.969,0,0,1,1.764-.991,1.292,1.292,0,0,1,.561.1Zm.69,2.5a4.369,4.369,0,0,1,.427-1.955,3.187,3.187,0,0,1,1.189-1.34,3.238,3.238,0,0,1,1.74-.472,3.119,3.119,0,0,1,2.444,1.046A4.024,4.024,0,0,1-49.9-3.705v.089a4.407,4.407,0,0,1-.414,1.938A3.14,3.14,0,0,1-51.5-.342a3.275,3.275,0,0,1-1.767.479A3.111,3.111,0,0,1-55.7-.909a4,4,0,0,1-.933-2.769Zm1.271.15a3.164,3.164,0,0,0,.571,1.976A1.827,1.827,0,0,0-53.266-.9a1.816,1.816,0,0,0,1.531-.755,3.46,3.46,0,0,0,.567-2.116,3.159,3.159,0,0,0-.578-1.972,1.836,1.836,0,0,0-1.535-.755,1.816,1.816,0,0,0-1.511.745A3.434,3.434,0,0,0-55.364-3.616ZM-46.6-9.187V-7.4h1.381v.978H-46.6v4.593a1.027,1.027,0,0,0,.185.667.777.777,0,0,0,.629.222,3.062,3.062,0,0,0,.6-.082V0a3.688,3.688,0,0,1-.971.136,1.575,1.575,0,0,1-1.278-.513,2.2,2.2,0,0,1-.431-1.456V-6.419h-1.347V-7.4h1.347V-9.187ZM-40.674.137a3.232,3.232,0,0,1-2.447-.988,3.666,3.666,0,0,1-.943-2.642v-.232a4.438,4.438,0,0,1,.42-1.965,3.28,3.28,0,0,1,1.176-1.354,2.956,2.956,0,0,1,1.637-.489,2.77,2.77,0,0,1,2.242.95,4.114,4.114,0,0,1,.8,2.721v.526H-42.8a2.629,2.629,0,0,0,.639,1.767A2.009,2.009,0,0,0-40.605-.9a2.2,2.2,0,0,0,1.135-.273,2.851,2.851,0,0,0,.813-.725l.772.6A3.106,3.106,0,0,1-40.674.137Zm-.157-6.631a1.687,1.687,0,0,0-1.285.557,2.708,2.708,0,0,0-.643,1.562h3.705v-.1a2.409,2.409,0,0,0-.52-1.494A1.588,1.588,0,0,0-40.831-6.494Zm7.472,5.6a1.822,1.822,0,0,0,1.183-.41,1.443,1.443,0,0,0,.561-1.025h1.2a2.293,2.293,0,0,1-.437,1.21,2.881,2.881,0,0,1-1.077.916,3.107,3.107,0,0,1-1.425.342,3.047,3.047,0,0,1-2.4-1.008,4.016,4.016,0,0,1-.892-2.758v-.212a4.453,4.453,0,0,1,.4-1.921A3.02,3.02,0,0,1-35.12-7.068a3.233,3.233,0,0,1,1.753-.465,2.966,2.966,0,0,1,2.068.745,2.663,2.663,0,0,1,.878,1.935h-1.2a1.743,1.743,0,0,0-.543-1.179,1.691,1.691,0,0,0-1.207-.461A1.77,1.77,0,0,0-34.86-5.8a3.259,3.259,0,0,0-.53,2.006v.239a3.194,3.194,0,0,0,.526,1.969A1.779,1.779,0,0,0-33.359-.9Zm7.328,0a1.822,1.822,0,0,0,1.183-.41,1.443,1.443,0,0,0,.561-1.025h1.2a2.293,2.293,0,0,1-.437,1.21,2.881,2.881,0,0,1-1.077.916,3.107,3.107,0,0,1-1.425.342,3.047,3.047,0,0,1-2.4-1.008,4.016,4.016,0,0,1-.892-2.758v-.212a4.453,4.453,0,0,1,.4-1.921,3.02,3.02,0,0,1,1.138-1.306,3.233,3.233,0,0,1,1.753-.465,2.966,2.966,0,0,1,2.068.745,2.663,2.663,0,0,1,.878,1.935h-1.2a1.743,1.743,0,0,0-.543-1.179,1.691,1.691,0,0,0-1.207-.461,1.77,1.77,0,0,0-1.494.694,3.259,3.259,0,0,0-.53,2.006v.239a3.194,3.194,0,0,0,.526,1.969A1.779,1.779,0,0,0-26.031-.9ZM-20.3,0h-1.265V-7.4H-20.3Zm-1.367-9.358a.755.755,0,0,1,.188-.52.706.706,0,0,1,.557-.212.717.717,0,0,1,.561.212.747.747,0,0,1,.191.52.722.722,0,0,1-.191.513.73.73,0,0,1-.561.205.718.718,0,0,1-.557-.205A.73.73,0,0,1-21.663-9.358Zm3.056,5.592a4.369,4.369,0,0,1,.427-1.955,3.187,3.187,0,0,1,1.189-1.34,3.238,3.238,0,0,1,1.74-.472,3.119,3.119,0,0,1,2.444,1.046,4.024,4.024,0,0,1,.933,2.782v.089a4.407,4.407,0,0,1-.414,1.938A3.14,3.14,0,0,1-13.47-.342a3.275,3.275,0,0,1-1.767.479A3.111,3.111,0,0,1-17.674-.909a4,4,0,0,1-.933-2.769Zm1.271.15a3.164,3.164,0,0,0,.571,1.976A1.827,1.827,0,0,0-15.237-.9a1.816,1.816,0,0,0,1.531-.755,3.46,3.46,0,0,0,.567-2.116,3.159,3.159,0,0,0-.578-1.972,1.836,1.836,0,0,0-1.535-.755,1.816,1.816,0,0,0-1.511.745A3.434,3.434,0,0,0-17.336-3.616Zm2.659-6.87h1.531l-1.832,2.01L-16-8.48ZM-9.092-7.4l.041.93A2.7,2.7,0,0,1-6.836-7.533q2.345,0,2.365,2.646V0H-5.735V-4.895A1.7,1.7,0,0,0-6.1-6.077,1.466,1.466,0,0,0-7.219-6.46a1.825,1.825,0,0,0-1.08.328,2.228,2.228,0,0,0-.725.861V0h-1.265V-7.4ZM4.478-6.262a3.79,3.79,0,0,0-.622-.048A1.667,1.667,0,0,0,2.167-5.25V0H.9V-7.4h1.23l.021.854a1.969,1.969,0,0,1,1.764-.991,1.292,1.292,0,0,1,.561.1Zm4.1,6.4A3.232,3.232,0,0,1,6.132-.851a3.666,3.666,0,0,1-.943-2.642v-.232a4.438,4.438,0,0,1,.42-1.965A3.28,3.28,0,0,1,6.785-7.044a2.956,2.956,0,0,1,1.637-.489,2.77,2.77,0,0,1,2.242.95,4.114,4.114,0,0,1,.8,2.721v.526H6.453a2.629,2.629,0,0,0,.639,1.767A2.009,2.009,0,0,0,8.647-.9a2.2,2.2,0,0,0,1.135-.273,2.851,2.851,0,0,0,.813-.725l.772.6A3.106,3.106,0,0,1,8.579.137ZM8.422-6.494a1.687,1.687,0,0,0-1.285.557,2.708,2.708,0,0,0-.643,1.562H10.2v-.1a2.409,2.409,0,0,0-.52-1.494A1.588,1.588,0,0,0,8.422-6.494Zm8.812,4.532a.931.931,0,0,0-.386-.8A3.718,3.718,0,0,0,15.5-3.247a6.367,6.367,0,0,1-1.524-.492,2.169,2.169,0,0,1-.834-.684,1.635,1.635,0,0,1-.27-.943A1.919,1.919,0,0,1,13.641-6.9a3,3,0,0,1,1.965-.629,3.091,3.091,0,0,1,2.041.649,2.063,2.063,0,0,1,.783,1.661H17.158a1.142,1.142,0,0,0-.441-.9,1.652,1.652,0,0,0-1.111-.376,1.729,1.729,0,0,0-1.08.3.947.947,0,0,0-.39.786.767.767,0,0,0,.362.69,4.458,4.458,0,0,0,1.309.444,6.821,6.821,0,0,1,1.535.506,2.239,2.239,0,0,1,.872.708A1.74,1.74,0,0,1,18.5-2.051a1.893,1.893,0,0,1-.793,1.589,3.326,3.326,0,0,1-2.058.6,3.725,3.725,0,0,1-1.572-.314,2.557,2.557,0,0,1-1.07-.878,2.117,2.117,0,0,1-.386-1.22h1.265a1.309,1.309,0,0,0,.509,1.008A1.976,1.976,0,0,0,15.647-.9,2.039,2.039,0,0,0,16.8-1.186.893.893,0,0,0,17.233-1.962Zm9.16-1.654A4.429,4.429,0,0,1,25.621-.9,2.476,2.476,0,0,1,23.529.137,2.713,2.713,0,0,1,21.41-.718V2.844H20.146V-7.4H21.3l.062.82a2.605,2.605,0,0,1,2.146-.957,2.522,2.522,0,0,1,2.109,1,4.477,4.477,0,0,1,.776,2.8ZM25.129-3.76A3.268,3.268,0,0,0,24.6-5.735a1.718,1.718,0,0,0-1.463-.725A1.859,1.859,0,0,0,21.41-5.441v3.534A1.863,1.863,0,0,0,23.146-.9a1.71,1.71,0,0,0,1.446-.721A3.567,3.567,0,0,0,25.129-3.76ZM29.374,0H28.109V-7.4h1.265ZM28.007-9.358a.755.755,0,0,1,.188-.52.706.706,0,0,1,.557-.212.717.717,0,0,1,.561.212.747.747,0,0,1,.191.52.722.722,0,0,1-.191.513.73.73,0,0,1-.561.205.718.718,0,0,1-.557-.205A.73.73,0,0,1,28.007-9.358Zm6.966,3.1a3.79,3.79,0,0,0-.622-.048,1.667,1.667,0,0,0-1.688,1.06V0H31.4V-7.4h1.23l.021.854a1.969,1.969,0,0,1,1.764-.991,1.292,1.292,0,0,1,.561.1ZM40.428,0a2.657,2.657,0,0,1-.178-.779,2.822,2.822,0,0,1-2.105.916A2.611,2.611,0,0,1,36.35-.482a2,2,0,0,1-.7-1.569,2.091,2.091,0,0,1,.878-1.794A4.142,4.142,0,0,1,39-4.484h1.23v-.581a1.42,1.42,0,0,0-.4-1.056,1.593,1.593,0,0,0-1.169-.393,1.844,1.844,0,0,0-1.135.342,1.007,1.007,0,0,0-.458.827H35.8a1.745,1.745,0,0,1,.393-1.07,2.683,2.683,0,0,1,1.066-.817,3.588,3.588,0,0,1,1.48-.3,2.924,2.924,0,0,1,2,.639,2.306,2.306,0,0,1,.752,1.76v3.4a4.162,4.162,0,0,0,.26,1.62V0Zm-2.1-.964a2.223,2.223,0,0,0,1.128-.308,1.861,1.861,0,0,0,.772-.8V-3.589h-.991q-2.324,0-2.324,1.36a1.151,1.151,0,0,0,.4.93A1.524,1.524,0,0,0,38.329-.964Zm6.863-8.224V-7.4h1.381v.978H45.192v4.593a1.027,1.027,0,0,0,.185.667.777.777,0,0,0,.629.222,3.062,3.062,0,0,0,.6-.082V0a3.688,3.688,0,0,1-.971.136,1.575,1.575,0,0,1-1.278-.513,2.2,2.2,0,0,1-.431-1.456V-6.419H42.581V-7.4h1.347V-9.187Zm2.386,5.421a4.369,4.369,0,0,1,.427-1.955,3.187,3.187,0,0,1,1.189-1.34,3.238,3.238,0,0,1,1.74-.472,3.119,3.119,0,0,1,2.444,1.046,4.024,4.024,0,0,1,.933,2.782v.089A4.407,4.407,0,0,1,53.9-1.678,3.14,3.14,0,0,1,52.715-.342a3.275,3.275,0,0,1-1.767.479A3.111,3.111,0,0,1,48.511-.909a4,4,0,0,1-.933-2.769Zm1.271.15a3.164,3.164,0,0,0,.571,1.976A1.827,1.827,0,0,0,50.948-.9a1.816,1.816,0,0,0,1.531-.755,3.46,3.46,0,0,0,.567-2.116,3.159,3.159,0,0,0-.578-1.972,1.836,1.836,0,0,0-1.535-.755,1.816,1.816,0,0,0-1.511.745A3.434,3.434,0,0,0,48.85-3.616ZM59.473-6.262a3.79,3.79,0,0,0-.622-.048,1.667,1.667,0,0,0-1.688,1.06V0H55.9V-7.4h1.23l.021.854a1.969,1.969,0,0,1,1.764-.991,1.292,1.292,0,0,1,.561.1ZM62.009,0H60.744V-7.4h1.265ZM60.642-9.358a.755.755,0,0,1,.188-.52.706.706,0,0,1,.557-.212.717.717,0,0,1,.561.212.747.747,0,0,1,.191.52.722.722,0,0,1-.191.513.73.73,0,0,1-.561.205.718.718,0,0,1-.557-.205A.73.73,0,0,1,60.642-9.358ZM68.6,0a2.657,2.657,0,0,1-.178-.779,2.822,2.822,0,0,1-2.105.916,2.611,2.611,0,0,1-1.794-.619,2,2,0,0,1-.7-1.569A2.091,2.091,0,0,1,64.7-3.845a4.141,4.141,0,0,1,2.471-.639H68.4v-.581A1.42,1.42,0,0,0,68-6.122a1.593,1.593,0,0,0-1.169-.393,1.844,1.844,0,0,0-1.135.342,1.007,1.007,0,0,0-.458.827H63.971a1.745,1.745,0,0,1,.393-1.07,2.683,2.683,0,0,1,1.066-.817,3.588,3.588,0,0,1,1.48-.3,2.924,2.924,0,0,1,2,.639,2.306,2.306,0,0,1,.752,1.76v3.4a4.162,4.162,0,0,0,.26,1.62V0ZM66.5-.964a2.223,2.223,0,0,0,1.128-.308,1.861,1.861,0,0,0,.772-.8V-3.589h-.991q-2.324,0-2.324,1.36a1.151,1.151,0,0,0,.4.93A1.524,1.524,0,0,0,66.5-.964Z" transform="translate(-1391.711 -8158.646)" fill="#12263f"/>
    <path id="Trazado_987592" data-name="Trazado 987592" d="M-74.495-3.9V0h-1.312V-9.953h3.671a3.688,3.688,0,0,1,2.56.834,2.827,2.827,0,0,1,.926,2.208,2.79,2.79,0,0,1-.906,2.232A3.853,3.853,0,0,1-72.15-3.9Zm0-1.073h2.358a2.358,2.358,0,0,0,1.613-.5A1.815,1.815,0,0,0-69.962-6.9a1.876,1.876,0,0,0-.561-1.424,2.209,2.209,0,0,0-1.538-.555h-2.434Zm10.9-1.292a3.79,3.79,0,0,0-.622-.048,1.667,1.667,0,0,0-1.688,1.06V0h-1.265V-7.4h1.23l.021.854a1.969,1.969,0,0,1,1.764-.991,1.292,1.292,0,0,1,.561.1Zm.69,2.5a4.369,4.369,0,0,1,.427-1.955,3.187,3.187,0,0,1,1.189-1.34,3.238,3.238,0,0,1,1.74-.472,3.119,3.119,0,0,1,2.444,1.046,4.024,4.024,0,0,1,.933,2.782v.089a4.407,4.407,0,0,1-.414,1.938A3.14,3.14,0,0,1-57.771-.342a3.275,3.275,0,0,1-1.767.479A3.111,3.111,0,0,1-61.975-.909a4,4,0,0,1-.933-2.769Zm1.271.15a3.164,3.164,0,0,0,.571,1.976A1.827,1.827,0,0,0-59.538-.9a1.816,1.816,0,0,0,1.531-.755,3.46,3.46,0,0,0,.567-2.116,3.159,3.159,0,0,0-.578-1.972,1.836,1.836,0,0,0-1.535-.755,1.816,1.816,0,0,0-1.511.745A3.434,3.434,0,0,0-61.636-3.616Zm8.764-5.571V-7.4h1.381v.978h-1.381v4.593a1.027,1.027,0,0,0,.185.667.777.777,0,0,0,.629.222,3.062,3.062,0,0,0,.6-.082V0a3.688,3.688,0,0,1-.971.136,1.575,1.575,0,0,1-1.278-.513,2.2,2.2,0,0,1-.431-1.456V-6.419h-1.347V-7.4h1.347V-9.187ZM-46.946.137a3.232,3.232,0,0,1-2.447-.988,3.666,3.666,0,0,1-.943-2.642v-.232a4.438,4.438,0,0,1,.42-1.965A3.28,3.28,0,0,1-48.74-7.044,2.956,2.956,0,0,1-47.1-7.533a2.77,2.77,0,0,1,2.242.95,4.114,4.114,0,0,1,.8,2.721v.526h-5.011a2.629,2.629,0,0,0,.639,1.767A2.009,2.009,0,0,0-46.877-.9a2.2,2.2,0,0,0,1.135-.273,2.851,2.851,0,0,0,.813-.725l.772.6A3.106,3.106,0,0,1-46.946.137ZM-47.1-6.494a1.687,1.687,0,0,0-1.285.557,2.708,2.708,0,0,0-.643,1.562h3.705v-.1a2.409,2.409,0,0,0-.52-1.494A1.588,1.588,0,0,0-47.1-6.494Zm7.472,5.6a1.822,1.822,0,0,0,1.183-.41,1.443,1.443,0,0,0,.561-1.025h1.2a2.293,2.293,0,0,1-.437,1.21,2.881,2.881,0,0,1-1.077.916,3.107,3.107,0,0,1-1.425.342,3.047,3.047,0,0,1-2.4-1.008,4.016,4.016,0,0,1-.892-2.758v-.212a4.453,4.453,0,0,1,.4-1.921,3.02,3.02,0,0,1,1.138-1.306,3.233,3.233,0,0,1,1.753-.465,2.966,2.966,0,0,1,2.068.745,2.663,2.663,0,0,1,.878,1.935h-1.2a1.743,1.743,0,0,0-.543-1.179,1.691,1.691,0,0,0-1.207-.461,1.77,1.77,0,0,0-1.494.694,3.259,3.259,0,0,0-.53,2.006v.239a3.194,3.194,0,0,0,.526,1.969A1.779,1.779,0,0,0-39.631-.9Zm7.328,0a1.822,1.822,0,0,0,1.183-.41,1.443,1.443,0,0,0,.561-1.025h1.2a2.293,2.293,0,0,1-.437,1.21,2.881,2.881,0,0,1-1.077.916A3.107,3.107,0,0,1-32.3.137a3.047,3.047,0,0,1-2.4-1.008A4.016,4.016,0,0,1-35.6-3.63v-.212a4.453,4.453,0,0,1,.4-1.921,3.02,3.02,0,0,1,1.138-1.306,3.233,3.233,0,0,1,1.753-.465,2.966,2.966,0,0,1,2.068.745,2.663,2.663,0,0,1,.878,1.935h-1.2A1.743,1.743,0,0,0-31.1-6.033a1.691,1.691,0,0,0-1.207-.461A1.77,1.77,0,0,0-33.8-5.8a3.259,3.259,0,0,0-.53,2.006v.239a3.194,3.194,0,0,0,.526,1.969A1.779,1.779,0,0,0-32.3-.9Zm5.735.9h-1.265V-7.4h1.265Zm-1.367-9.358a.755.755,0,0,1,.188-.52.706.706,0,0,1,.557-.212.717.717,0,0,1,.561.212.747.747,0,0,1,.191.52.722.722,0,0,1-.191.513.73.73,0,0,1-.561.205.718.718,0,0,1-.557-.205A.73.73,0,0,1-27.935-9.358Zm3.056,5.592a4.369,4.369,0,0,1,.427-1.955,3.187,3.187,0,0,1,1.189-1.34,3.238,3.238,0,0,1,1.74-.472,3.119,3.119,0,0,1,2.444,1.046,4.024,4.024,0,0,1,.933,2.782v.089a4.407,4.407,0,0,1-.414,1.938A3.14,3.14,0,0,1-19.742-.342a3.275,3.275,0,0,1-1.767.479A3.111,3.111,0,0,1-23.946-.909a4,4,0,0,1-.933-2.769Zm1.271.15a3.164,3.164,0,0,0,.571,1.976A1.827,1.827,0,0,0-21.509-.9a1.816,1.816,0,0,0,1.531-.755,3.46,3.46,0,0,0,.567-2.116,3.159,3.159,0,0,0-.578-1.972,1.836,1.836,0,0,0-1.535-.755,1.816,1.816,0,0,0-1.511.745A3.434,3.434,0,0,0-23.608-3.616Zm2.659-6.87h1.531l-1.832,2.01-1.019,0Zm5.585,3.09.041.93a2.7,2.7,0,0,1,2.215-1.066q2.345,0,2.365,2.646V0h-1.265V-4.895a1.7,1.7,0,0,0-.366-1.183,1.466,1.466,0,0,0-1.118-.383,1.825,1.825,0,0,0-1.08.328,2.228,2.228,0,0,0-.725.861V0H-16.56V-7.4ZM-5.677-3.76A4.333,4.333,0,0,1-4.871-6.5,2.551,2.551,0,0,1-2.758-7.533,2.565,2.565,0,0,1-.7-6.645V-10.5H.564V0H-.6L-.66-.793a2.575,2.575,0,0,1-2.112.93,2.526,2.526,0,0,1-2.1-1.053,4.382,4.382,0,0,1-.81-2.748Zm1.265.144a3.281,3.281,0,0,0,.52,1.969,1.68,1.68,0,0,0,1.436.711A1.845,1.845,0,0,0-.7-2.017v-3.4A1.859,1.859,0,0,0-2.444-6.46a1.687,1.687,0,0,0-1.449.718A3.612,3.612,0,0,0-4.413-3.616ZM5.6.137A3.232,3.232,0,0,1,3.148-.851,3.666,3.666,0,0,1,2.2-3.493v-.232a4.438,4.438,0,0,1,.42-1.965A3.28,3.28,0,0,1,3.8-7.044a2.956,2.956,0,0,1,1.637-.489,2.77,2.77,0,0,1,2.242.95,4.114,4.114,0,0,1,.8,2.721v.526H3.469a2.629,2.629,0,0,0,.639,1.767A2.009,2.009,0,0,0,5.664-.9,2.2,2.2,0,0,0,6.8-1.169a2.851,2.851,0,0,0,.813-.725l.772.6A3.106,3.106,0,0,1,5.6.137ZM5.438-6.494a1.687,1.687,0,0,0-1.285.557A2.708,2.708,0,0,0,3.51-4.375H7.215v-.1A2.409,2.409,0,0,0,6.7-5.964,1.588,1.588,0,0,0,5.438-6.494ZM14.783,0H13.518V-10.5h1.265Zm6.59,0a2.657,2.657,0,0,1-.178-.779,2.822,2.822,0,0,1-2.105.916,2.611,2.611,0,0,1-1.794-.619,2,2,0,0,1-.7-1.569,2.091,2.091,0,0,1,.878-1.794,4.142,4.142,0,0,1,2.471-.639h1.23v-.581a1.42,1.42,0,0,0-.4-1.056,1.593,1.593,0,0,0-1.169-.393,1.844,1.844,0,0,0-1.135.342,1.007,1.007,0,0,0-.458.827H16.745a1.745,1.745,0,0,1,.393-1.07A2.683,2.683,0,0,1,18.2-7.232a3.588,3.588,0,0,1,1.48-.3,2.924,2.924,0,0,1,2,.639,2.306,2.306,0,0,1,.752,1.76v3.4a4.162,4.162,0,0,0,.26,1.62V0Zm-2.1-.964A2.223,2.223,0,0,0,20.4-1.271a1.861,1.861,0,0,0,.772-.8V-3.589h-.991q-2.324,0-2.324,1.36a1.151,1.151,0,0,0,.4.93A1.524,1.524,0,0,0,19.274-.964Zm9.454-1a.931.931,0,0,0-.386-.8A3.718,3.718,0,0,0,27-3.247a6.367,6.367,0,0,1-1.524-.492,2.169,2.169,0,0,1-.834-.684,1.635,1.635,0,0,1-.27-.943A1.919,1.919,0,0,1,25.136-6.9,3,3,0,0,1,27.1-7.533a3.091,3.091,0,0,1,2.041.649,2.063,2.063,0,0,1,.783,1.661H28.653a1.142,1.142,0,0,0-.441-.9A1.652,1.652,0,0,0,27.1-6.494a1.729,1.729,0,0,0-1.08.3.947.947,0,0,0-.39.786.767.767,0,0,0,.362.69,4.458,4.458,0,0,0,1.309.444,6.821,6.821,0,0,1,1.535.506,2.239,2.239,0,0,1,.872.708,1.74,1.74,0,0,1,.284,1.008A1.893,1.893,0,0,1,29.2-.461a3.326,3.326,0,0,1-2.058.6A3.725,3.725,0,0,1,25.57-.178a2.557,2.557,0,0,1-1.07-.878,2.117,2.117,0,0,1-.386-1.22h1.265a1.309,1.309,0,0,0,.509,1.008A1.976,1.976,0,0,0,27.142-.9a2.039,2.039,0,0,0,1.152-.291A.893.893,0,0,0,28.728-1.962ZM36.3-7.4l.034.82a2.732,2.732,0,0,1,2.194-.957,2.115,2.115,0,0,1,2.112,1.189,2.8,2.8,0,0,1,.96-.861,2.837,2.837,0,0,1,1.4-.328q2.434,0,2.475,2.577V0H44.2V-4.881a1.7,1.7,0,0,0-.362-1.186,1.6,1.6,0,0,0-1.217-.393,1.677,1.677,0,0,0-1.169.42,1.706,1.706,0,0,0-.54,1.131V0H39.645V-4.847A1.411,1.411,0,0,0,38.066-6.46a1.692,1.692,0,0,0-1.7,1.06V0H35.1V-7.4ZM51.943,0a2.657,2.657,0,0,1-.178-.779A2.822,2.822,0,0,1,49.66.137a2.611,2.611,0,0,1-1.794-.619,2,2,0,0,1-.7-1.569,2.091,2.091,0,0,1,.878-1.794,4.142,4.142,0,0,1,2.471-.639h1.23v-.581a1.42,1.42,0,0,0-.4-1.056,1.593,1.593,0,0,0-1.169-.393,1.844,1.844,0,0,0-1.135.342,1.007,1.007,0,0,0-.458.827H47.315a1.745,1.745,0,0,1,.393-1.07,2.683,2.683,0,0,1,1.066-.817,3.588,3.588,0,0,1,1.48-.3,2.924,2.924,0,0,1,2,.639,2.306,2.306,0,0,1,.752,1.76v3.4a4.162,4.162,0,0,0,.26,1.62V0Zm-2.1-.964a2.223,2.223,0,0,0,1.128-.308,1.861,1.861,0,0,0,.772-.8V-3.589h-.991q-2.324,0-2.324,1.36a1.151,1.151,0,0,0,.4.93A1.524,1.524,0,0,0,49.844-.964ZM56.188-7.4l.041.93a2.7,2.7,0,0,1,2.215-1.066q2.345,0,2.365,2.646V0H59.544V-4.895a1.7,1.7,0,0,0-.366-1.183,1.466,1.466,0,0,0-1.118-.383,1.825,1.825,0,0,0-1.08.328,2.228,2.228,0,0,0-.725.861V0H54.992V-7.4Zm6.193,3.63a4.369,4.369,0,0,1,.427-1.955A3.187,3.187,0,0,1,64-7.062a3.238,3.238,0,0,1,1.74-.472,3.119,3.119,0,0,1,2.444,1.046,4.024,4.024,0,0,1,.933,2.782v.089A4.407,4.407,0,0,1,68.7-1.678,3.14,3.14,0,0,1,67.519-.342a3.275,3.275,0,0,1-1.767.479A3.111,3.111,0,0,1,63.314-.909a4,4,0,0,1-.933-2.769Zm1.271.15a3.164,3.164,0,0,0,.571,1.976A1.827,1.827,0,0,0,65.751-.9a1.816,1.816,0,0,0,1.531-.755,3.46,3.46,0,0,0,.567-2.116,3.159,3.159,0,0,0-.578-1.972,1.836,1.836,0,0,0-1.535-.755,1.816,1.816,0,0,0-1.511.745A3.434,3.434,0,0,0,63.653-3.616ZM75.007-1.962a.931.931,0,0,0-.386-.8,3.718,3.718,0,0,0-1.347-.489,6.367,6.367,0,0,1-1.524-.492,2.169,2.169,0,0,1-.834-.684,1.635,1.635,0,0,1-.27-.943A1.919,1.919,0,0,1,71.415-6.9a3,3,0,0,1,1.965-.629,3.091,3.091,0,0,1,2.041.649A2.063,2.063,0,0,1,76.2-5.223H74.932a1.142,1.142,0,0,0-.441-.9,1.652,1.652,0,0,0-1.111-.376,1.729,1.729,0,0,0-1.08.3.947.947,0,0,0-.39.786.767.767,0,0,0,.362.69,4.458,4.458,0,0,0,1.309.444,6.821,6.821,0,0,1,1.535.506,2.239,2.239,0,0,1,.872.708,1.74,1.74,0,0,1,.284,1.008,1.893,1.893,0,0,1-.793,1.589,3.326,3.326,0,0,1-2.058.6,3.725,3.725,0,0,1-1.572-.314,2.557,2.557,0,0,1-1.07-.878,2.117,2.117,0,0,1-.386-1.22h1.265a1.309,1.309,0,0,0,.509,1.008A1.976,1.976,0,0,0,73.421-.9a2.039,2.039,0,0,0,1.152-.291A.893.893,0,0,0,75.007-1.962Z" transform="translate(-1385.711 -8066.646)" fill="#12263f"/>
    <path id="Trazado_987593" data-name="Trazado 987593" d="M-52.24-3.9V0h-1.312V-9.953h3.671a3.688,3.688,0,0,1,2.56.834A2.827,2.827,0,0,1-46.4-6.911,2.79,2.79,0,0,1-47.3-4.679,3.853,3.853,0,0,1-49.9-3.9Zm0-1.073h2.358a2.358,2.358,0,0,0,1.613-.5A1.815,1.815,0,0,0-47.708-6.9a1.875,1.875,0,0,0-.561-1.424,2.209,2.209,0,0,0-1.538-.555H-52.24Zm10.9-1.292a3.79,3.79,0,0,0-.622-.048,1.667,1.667,0,0,0-1.688,1.06V0h-1.265V-7.4h1.23l.021.854A1.969,1.969,0,0,1-41.9-7.533a1.292,1.292,0,0,1,.561.1Zm.69,2.5a4.369,4.369,0,0,1,.427-1.955,3.187,3.187,0,0,1,1.189-1.34,3.238,3.238,0,0,1,1.74-.472,3.119,3.119,0,0,1,2.444,1.046,4.024,4.024,0,0,1,.933,2.782v.089a4.407,4.407,0,0,1-.414,1.938A3.14,3.14,0,0,1-35.516-.342a3.275,3.275,0,0,1-1.767.479A3.111,3.111,0,0,1-39.72-.909a4,4,0,0,1-.933-2.769Zm1.271.15a3.164,3.164,0,0,0,.571,1.976A1.827,1.827,0,0,0-37.283-.9a1.816,1.816,0,0,0,1.531-.755,3.46,3.46,0,0,0,.567-2.116,3.159,3.159,0,0,0-.578-1.972A1.836,1.836,0,0,0-37.3-6.494a1.816,1.816,0,0,0-1.511.745A3.434,3.434,0,0,0-39.382-3.616Zm8.764-5.571V-7.4h1.381v.978h-1.381v4.593a1.027,1.027,0,0,0,.185.667.777.777,0,0,0,.629.222,3.062,3.062,0,0,0,.6-.082V0a3.688,3.688,0,0,1-.971.136,1.575,1.575,0,0,1-1.278-.513,2.2,2.2,0,0,1-.431-1.456V-6.419h-1.347V-7.4h1.347V-9.187ZM-24.691.137a3.232,3.232,0,0,1-2.447-.988,3.666,3.666,0,0,1-.943-2.642v-.232a4.438,4.438,0,0,1,.42-1.965,3.28,3.28,0,0,1,1.176-1.354,2.956,2.956,0,0,1,1.637-.489,2.77,2.77,0,0,1,2.242.95,4.114,4.114,0,0,1,.8,2.721v.526h-5.011a2.629,2.629,0,0,0,.639,1.767A2.009,2.009,0,0,0-24.623-.9a2.2,2.2,0,0,0,1.135-.273,2.851,2.851,0,0,0,.813-.725l.772.6A3.106,3.106,0,0,1-24.691.137Zm-.157-6.631a1.687,1.687,0,0,0-1.285.557,2.708,2.708,0,0,0-.643,1.562h3.705v-.1a2.409,2.409,0,0,0-.52-1.494A1.588,1.588,0,0,0-24.849-6.494Zm7.472,5.6a1.822,1.822,0,0,0,1.183-.41,1.443,1.443,0,0,0,.561-1.025h1.2a2.293,2.293,0,0,1-.437,1.21,2.881,2.881,0,0,1-1.077.916,3.107,3.107,0,0,1-1.425.342,3.047,3.047,0,0,1-2.4-1.008,4.016,4.016,0,0,1-.892-2.758v-.212a4.453,4.453,0,0,1,.4-1.921,3.02,3.02,0,0,1,1.138-1.306,3.233,3.233,0,0,1,1.753-.465,2.966,2.966,0,0,1,2.068.745,2.663,2.663,0,0,1,.878,1.935h-1.2a1.743,1.743,0,0,0-.543-1.179,1.691,1.691,0,0,0-1.207-.461,1.77,1.77,0,0,0-1.494.694,3.259,3.259,0,0,0-.53,2.006v.239a3.194,3.194,0,0,0,.526,1.969A1.779,1.779,0,0,0-17.377-.9Zm7.328,0a1.822,1.822,0,0,0,1.183-.41,1.443,1.443,0,0,0,.561-1.025h1.2a2.293,2.293,0,0,1-.437,1.21,2.881,2.881,0,0,1-1.077.916,3.107,3.107,0,0,1-1.425.342,3.047,3.047,0,0,1-2.4-1.008,4.016,4.016,0,0,1-.892-2.758v-.212a4.453,4.453,0,0,1,.4-1.921,3.02,3.02,0,0,1,1.138-1.306,3.233,3.233,0,0,1,1.753-.465,2.966,2.966,0,0,1,2.068.745,2.663,2.663,0,0,1,.878,1.935h-1.2a1.743,1.743,0,0,0-.543-1.179,1.691,1.691,0,0,0-1.207-.461,1.77,1.77,0,0,0-1.494.694,3.259,3.259,0,0,0-.53,2.006v.239a3.194,3.194,0,0,0,.526,1.969A1.779,1.779,0,0,0-10.049-.9Zm5.735.9H-5.578V-7.4h1.265ZM-5.681-9.358a.755.755,0,0,1,.188-.52.706.706,0,0,1,.557-.212.717.717,0,0,1,.561.212.747.747,0,0,1,.191.52.722.722,0,0,1-.191.513.73.73,0,0,1-.561.205.718.718,0,0,1-.557-.205A.73.73,0,0,1-5.681-9.358Zm3.056,5.592A4.369,4.369,0,0,1-2.2-5.722a3.187,3.187,0,0,1,1.189-1.34,3.238,3.238,0,0,1,1.74-.472A3.119,3.119,0,0,1,3.175-6.487a4.024,4.024,0,0,1,.933,2.782v.089a4.407,4.407,0,0,1-.414,1.938A3.14,3.14,0,0,1,2.512-.342,3.275,3.275,0,0,1,.745.137,3.111,3.111,0,0,1-1.692-.909a4,4,0,0,1-.933-2.769Zm1.271.15A3.164,3.164,0,0,0-.783-1.641,1.827,1.827,0,0,0,.745-.9a1.816,1.816,0,0,0,1.531-.755,3.46,3.46,0,0,0,.567-2.116,3.159,3.159,0,0,0-.578-1.972A1.836,1.836,0,0,0,.731-6.494a1.816,1.816,0,0,0-1.511.745A3.434,3.434,0,0,0-1.354-3.616Zm2.659-6.87H2.837L1-8.477l-1.019,0ZM6.891-7.4l.041.93A2.7,2.7,0,0,1,9.146-7.533q2.345,0,2.365,2.646V0H10.247V-4.895a1.7,1.7,0,0,0-.366-1.183A1.466,1.466,0,0,0,8.764-6.46a1.825,1.825,0,0,0-1.08.328,2.228,2.228,0,0,0-.725.861V0H5.694V-7.4Zm9.659,3.63a4.369,4.369,0,0,1,.427-1.955,3.187,3.187,0,0,1,1.189-1.34,3.238,3.238,0,0,1,1.74-.472A3.119,3.119,0,0,1,22.35-6.487a4.024,4.024,0,0,1,.933,2.782v.089a4.407,4.407,0,0,1-.414,1.938A3.14,3.14,0,0,1,21.687-.342,3.275,3.275,0,0,1,19.92.137,3.111,3.111,0,0,1,17.483-.909a4,4,0,0,1-.933-2.769Zm1.271.15a3.164,3.164,0,0,0,.571,1.976A1.827,1.827,0,0,0,19.92-.9a1.816,1.816,0,0,0,1.531-.755,3.46,3.46,0,0,0,.567-2.116,3.159,3.159,0,0,0-.578-1.972,1.836,1.836,0,0,0-1.535-.755,1.816,1.816,0,0,0-1.511.745A3.434,3.434,0,0,0,17.821-3.616ZM27.836-.9a1.822,1.822,0,0,0,1.183-.41,1.443,1.443,0,0,0,.561-1.025h1.2a2.293,2.293,0,0,1-.437,1.21,2.881,2.881,0,0,1-1.077.916,3.107,3.107,0,0,1-1.425.342,3.047,3.047,0,0,1-2.4-1.008,4.016,4.016,0,0,1-.892-2.758v-.212a4.453,4.453,0,0,1,.4-1.921,3.02,3.02,0,0,1,1.138-1.306,3.233,3.233,0,0,1,1.753-.465,2.966,2.966,0,0,1,2.068.745,2.663,2.663,0,0,1,.878,1.935h-1.2a1.743,1.743,0,0,0-.543-1.179,1.691,1.691,0,0,0-1.207-.461,1.77,1.77,0,0,0-1.494.694,3.259,3.259,0,0,0-.53,2.006v.239a3.194,3.194,0,0,0,.526,1.969A1.779,1.779,0,0,0,27.836-.9Zm8.928.164A2.686,2.686,0,0,1,34.6.137,2.3,2.3,0,0,1,32.8-.55a2.974,2.974,0,0,1-.625-2.034V-7.4h1.265v4.778q0,1.682,1.367,1.682a1.893,1.893,0,0,0,1.928-1.08V-7.4h1.265V0h-1.2ZM41.289,0H40.024V-10.5h1.265Zm6.59,0A2.657,2.657,0,0,1,47.7-.779,2.822,2.822,0,0,1,45.6.137,2.611,2.611,0,0,1,43.8-.482a2,2,0,0,1-.7-1.569,2.091,2.091,0,0,1,.878-1.794,4.142,4.142,0,0,1,2.471-.639h1.23v-.581a1.42,1.42,0,0,0-.4-1.056,1.593,1.593,0,0,0-1.169-.393,1.844,1.844,0,0,0-1.135.342,1.007,1.007,0,0,0-.458.827H43.251a1.745,1.745,0,0,1,.393-1.07,2.683,2.683,0,0,1,1.066-.817,3.588,3.588,0,0,1,1.48-.3,2.924,2.924,0,0,1,2,.639,2.306,2.306,0,0,1,.752,1.76v3.4a4.162,4.162,0,0,0,.26,1.62V0Zm-2.1-.964a2.223,2.223,0,0,0,1.128-.308,1.861,1.861,0,0,0,.772-.8V-3.589h-.991q-2.324,0-2.324,1.36a1.151,1.151,0,0,0,.4.93A1.524,1.524,0,0,0,45.78-.964Zm8.723-5.3a3.79,3.79,0,0,0-.622-.048,1.667,1.667,0,0,0-1.688,1.06V0H50.928V-7.4h1.23l.021.854a1.969,1.969,0,0,1,1.764-.991,1.292,1.292,0,0,1,.561.1Z" transform="translate(-1086.282 -8253.646)" fill="#12263f"/>
    <path id="Trazado_987594" data-name="Trazado 987594" d="M-65.458-3.9V0H-66.77V-9.953H-63.1a3.688,3.688,0,0,1,2.56.834,2.827,2.827,0,0,1,.926,2.208,2.79,2.79,0,0,1-.906,2.232,3.853,3.853,0,0,1-2.594.783Zm0-1.073H-63.1a2.358,2.358,0,0,0,1.613-.5A1.815,1.815,0,0,0-60.925-6.9a1.875,1.875,0,0,0-.561-1.424,2.209,2.209,0,0,0-1.538-.555h-2.434Zm10.9-1.292a3.79,3.79,0,0,0-.622-.048,1.667,1.667,0,0,0-1.688,1.06V0h-1.265V-7.4h1.23l.021.854a1.969,1.969,0,0,1,1.764-.991,1.292,1.292,0,0,1,.561.1Zm.69,2.5a4.369,4.369,0,0,1,.427-1.955,3.187,3.187,0,0,1,1.189-1.34,3.238,3.238,0,0,1,1.74-.472A3.119,3.119,0,0,1-48.07-6.487a4.024,4.024,0,0,1,.933,2.782v.089a4.407,4.407,0,0,1-.414,1.938A3.14,3.14,0,0,1-48.733-.342,3.275,3.275,0,0,1-50.5.137,3.111,3.111,0,0,1-52.937-.909a4,4,0,0,1-.933-2.769Zm1.271.15a3.164,3.164,0,0,0,.571,1.976A1.827,1.827,0,0,0-50.5-.9a1.816,1.816,0,0,0,1.531-.755A3.46,3.46,0,0,0-48.4-3.767a3.159,3.159,0,0,0-.578-1.972,1.836,1.836,0,0,0-1.535-.755,1.816,1.816,0,0,0-1.511.745A3.434,3.434,0,0,0-52.6-3.616Zm8.764-5.571V-7.4h1.381v.978h-1.381v4.593a1.027,1.027,0,0,0,.185.667.777.777,0,0,0,.629.222,3.062,3.062,0,0,0,.6-.082V0a3.688,3.688,0,0,1-.971.136,1.575,1.575,0,0,1-1.278-.513A2.2,2.2,0,0,1-45.1-1.832V-6.419h-1.347V-7.4H-45.1V-9.187ZM-37.909.137a3.232,3.232,0,0,1-2.447-.988A3.666,3.666,0,0,1-41.3-3.493v-.232a4.438,4.438,0,0,1,.42-1.965A3.28,3.28,0,0,1-39.7-7.044a2.956,2.956,0,0,1,1.637-.489,2.77,2.77,0,0,1,2.242.95,4.114,4.114,0,0,1,.8,2.721v.526h-5.011A2.629,2.629,0,0,0-39.4-1.569,2.009,2.009,0,0,0-37.84-.9a2.2,2.2,0,0,0,1.135-.273,2.851,2.851,0,0,0,.813-.725l.772.6A3.106,3.106,0,0,1-37.909.137Zm-.157-6.631a1.687,1.687,0,0,0-1.285.557,2.708,2.708,0,0,0-.643,1.562h3.705v-.1a2.409,2.409,0,0,0-.52-1.494A1.588,1.588,0,0,0-38.066-6.494Zm7.472,5.6a1.822,1.822,0,0,0,1.183-.41,1.443,1.443,0,0,0,.561-1.025h1.2a2.293,2.293,0,0,1-.437,1.21,2.881,2.881,0,0,1-1.077.916,3.107,3.107,0,0,1-1.425.342A3.047,3.047,0,0,1-33-.872a4.016,4.016,0,0,1-.892-2.758v-.212a4.453,4.453,0,0,1,.4-1.921,3.02,3.02,0,0,1,1.138-1.306A3.233,3.233,0,0,1-30.6-7.533a2.966,2.966,0,0,1,2.068.745,2.663,2.663,0,0,1,.878,1.935h-1.2a1.743,1.743,0,0,0-.543-1.179A1.691,1.691,0,0,0-30.6-6.494a1.77,1.77,0,0,0-1.494.694,3.259,3.259,0,0,0-.53,2.006v.239A3.194,3.194,0,0,0-32.1-1.586,1.779,1.779,0,0,0-30.594-.9Zm7.328,0a1.822,1.822,0,0,0,1.183-.41,1.443,1.443,0,0,0,.561-1.025h1.2a2.293,2.293,0,0,1-.437,1.21,2.881,2.881,0,0,1-1.077.916,3.107,3.107,0,0,1-1.425.342,3.047,3.047,0,0,1-2.4-1.008,4.016,4.016,0,0,1-.892-2.758v-.212a4.453,4.453,0,0,1,.4-1.921,3.02,3.02,0,0,1,1.138-1.306,3.233,3.233,0,0,1,1.753-.465,2.966,2.966,0,0,1,2.068.745,2.663,2.663,0,0,1,.878,1.935h-1.2a1.743,1.743,0,0,0-.543-1.179,1.691,1.691,0,0,0-1.207-.461,1.77,1.77,0,0,0-1.494.694,3.259,3.259,0,0,0-.53,2.006v.239a3.194,3.194,0,0,0,.526,1.969A1.779,1.779,0,0,0-23.266-.9Zm5.735.9H-18.8V-7.4h1.265ZM-18.9-9.358a.755.755,0,0,1,.188-.52.706.706,0,0,1,.557-.212.717.717,0,0,1,.561.212.747.747,0,0,1,.191.52.722.722,0,0,1-.191.513.73.73,0,0,1-.561.205.718.718,0,0,1-.557-.205A.73.73,0,0,1-18.9-9.358Zm3.056,5.592a4.369,4.369,0,0,1,.427-1.955,3.187,3.187,0,0,1,1.189-1.34,3.238,3.238,0,0,1,1.74-.472,3.119,3.119,0,0,1,2.444,1.046,4.024,4.024,0,0,1,.933,2.782v.089a4.407,4.407,0,0,1-.414,1.938A3.14,3.14,0,0,1-10.705-.342a3.275,3.275,0,0,1-1.767.479A3.111,3.111,0,0,1-14.909-.909a4,4,0,0,1-.933-2.769Zm1.271.15A3.164,3.164,0,0,0-14-1.641,1.827,1.827,0,0,0-12.472-.9a1.816,1.816,0,0,0,1.531-.755,3.46,3.46,0,0,0,.567-2.116,3.159,3.159,0,0,0-.578-1.972,1.836,1.836,0,0,0-1.535-.755A1.816,1.816,0,0,0-14-5.749,3.434,3.434,0,0,0-14.571-3.616Zm2.659-6.87h1.531l-1.832,2.01-1.019,0ZM-6.327-7.4l.041.93A2.7,2.7,0,0,1-4.071-7.533q2.345,0,2.365,2.646V0H-2.97V-4.895a1.7,1.7,0,0,0-.366-1.183A1.466,1.466,0,0,0-4.454-6.46a1.825,1.825,0,0,0-1.08.328,2.228,2.228,0,0,0-.725.861V0H-7.523V-7.4ZM3.36-3.76A4.333,4.333,0,0,1,4.167-6.5,2.551,2.551,0,0,1,6.279-7.533a2.565,2.565,0,0,1,2.058.889V-10.5H9.6V0H8.439L8.377-.793a2.575,2.575,0,0,1-2.112.93A2.526,2.526,0,0,1,4.17-.916a4.382,4.382,0,0,1-.81-2.748Zm1.265.144a3.281,3.281,0,0,0,.52,1.969A1.68,1.68,0,0,0,6.58-.937a1.845,1.845,0,0,0,1.757-1.08v-3.4A1.859,1.859,0,0,0,6.593-6.46a1.687,1.687,0,0,0-1.449.718A3.612,3.612,0,0,0,4.625-3.616ZM14.632.137a3.232,3.232,0,0,1-2.447-.988,3.666,3.666,0,0,1-.943-2.642v-.232a4.438,4.438,0,0,1,.42-1.965,3.28,3.28,0,0,1,1.176-1.354,2.956,2.956,0,0,1,1.637-.489,2.77,2.77,0,0,1,2.242.95,4.114,4.114,0,0,1,.8,2.721v.526H12.506a2.629,2.629,0,0,0,.639,1.767A2.009,2.009,0,0,0,14.7-.9a2.2,2.2,0,0,0,1.135-.273,2.851,2.851,0,0,0,.813-.725l.772.6A3.106,3.106,0,0,1,14.632.137Zm-.157-6.631a1.687,1.687,0,0,0-1.285.557,2.708,2.708,0,0,0-.643,1.562h3.705v-.1a2.409,2.409,0,0,0-.52-1.494A1.588,1.588,0,0,0,14.475-6.494ZM20.354,0H19.089V-10.5h1.265ZM28.81-.9a1.822,1.822,0,0,0,1.183-.41,1.443,1.443,0,0,0,.561-1.025h1.2a2.293,2.293,0,0,1-.437,1.21,2.881,2.881,0,0,1-1.077.916A3.107,3.107,0,0,1,28.81.137a3.047,3.047,0,0,1-2.4-1.008,4.016,4.016,0,0,1-.892-2.758v-.212a4.453,4.453,0,0,1,.4-1.921A3.02,3.02,0,0,1,27.05-7.068,3.233,3.233,0,0,1,28.8-7.533a2.966,2.966,0,0,1,2.068.745,2.663,2.663,0,0,1,.878,1.935h-1.2a1.743,1.743,0,0,0-.543-1.179A1.691,1.691,0,0,0,28.8-6.494,1.77,1.77,0,0,0,27.31-5.8a3.259,3.259,0,0,0-.53,2.006v.239a3.194,3.194,0,0,0,.526,1.969A1.779,1.779,0,0,0,28.81-.9Zm8.928.164a2.686,2.686,0,0,1-2.167.868,2.3,2.3,0,0,1-1.8-.687,2.974,2.974,0,0,1-.625-2.034V-7.4h1.265v4.778q0,1.682,1.367,1.682A1.893,1.893,0,0,0,37.7-2.017V-7.4h1.265V0h-1.2Zm6.221.868a3.232,3.232,0,0,1-2.447-.988,3.666,3.666,0,0,1-.943-2.642v-.232a4.438,4.438,0,0,1,.42-1.965,3.28,3.28,0,0,1,1.176-1.354A2.956,2.956,0,0,1,43.8-7.533a2.77,2.77,0,0,1,2.242.95,4.114,4.114,0,0,1,.8,2.721v.526H41.833a2.629,2.629,0,0,0,.639,1.767A2.009,2.009,0,0,0,44.027-.9a2.2,2.2,0,0,0,1.135-.273,2.851,2.851,0,0,0,.813-.725l.772.6A3.106,3.106,0,0,1,43.958.137ZM43.8-6.494a1.687,1.687,0,0,0-1.285.557,2.708,2.708,0,0,0-.643,1.562h3.705v-.1a2.409,2.409,0,0,0-.52-1.494A1.588,1.588,0,0,0,43.8-6.494Zm8.08.232a3.79,3.79,0,0,0-.622-.048,1.667,1.667,0,0,0-1.688,1.06V0H48.306V-7.4h1.23l.021.854a1.969,1.969,0,0,1,1.764-.991,1.292,1.292,0,0,1,.561.1Zm7.41,2.646A4.429,4.429,0,0,1,58.519-.9,2.476,2.476,0,0,1,56.427.137a2.713,2.713,0,0,1-2.119-.854V2.844H53.043V-7.4H54.2l.062.82a2.605,2.605,0,0,1,2.146-.957,2.522,2.522,0,0,1,2.109,1,4.477,4.477,0,0,1,.776,2.8ZM58.027-3.76a3.268,3.268,0,0,0-.533-1.976,1.718,1.718,0,0,0-1.463-.725,1.859,1.859,0,0,0-1.723,1.019v3.534A1.863,1.863,0,0,0,56.044-.9a1.71,1.71,0,0,0,1.446-.721A3.567,3.567,0,0,0,58.027-3.76Zm2.536-.007a4.369,4.369,0,0,1,.427-1.955,3.187,3.187,0,0,1,1.189-1.34,3.238,3.238,0,0,1,1.74-.472,3.119,3.119,0,0,1,2.444,1.046A4.024,4.024,0,0,1,67.3-3.705v.089a4.407,4.407,0,0,1-.414,1.938A3.14,3.14,0,0,1,65.7-.342a3.275,3.275,0,0,1-1.767.479A3.111,3.111,0,0,1,61.5-.909a4,4,0,0,1-.933-2.769Zm1.271.15a3.164,3.164,0,0,0,.571,1.976A1.827,1.827,0,0,0,63.933-.9a1.816,1.816,0,0,0,1.531-.755,3.46,3.46,0,0,0,.567-2.116,3.159,3.159,0,0,0-.578-1.972,1.836,1.836,0,0,0-1.535-.755,1.816,1.816,0,0,0-1.511.745A3.434,3.434,0,0,0,61.834-3.616Z" transform="translate(-1054.282 -8158.646)" fill="#12263f"/>
    <path id="Trazado_987595" data-name="Trazado 987595" d="M-66.216-3.9V0h-1.312V-9.953h3.671a3.688,3.688,0,0,1,2.56.834,2.827,2.827,0,0,1,.926,2.208,2.79,2.79,0,0,1-.906,2.232,3.853,3.853,0,0,1-2.594.783Zm0-1.073h2.358a2.358,2.358,0,0,0,1.613-.5A1.815,1.815,0,0,0-61.684-6.9a1.875,1.875,0,0,0-.561-1.424,2.209,2.209,0,0,0-1.538-.555h-2.434Zm10.9-1.292a3.79,3.79,0,0,0-.622-.048A1.667,1.667,0,0,0-57.63-5.25V0H-58.9V-7.4h1.23l.021.854a1.969,1.969,0,0,1,1.764-.991,1.292,1.292,0,0,1,.561.1Zm.69,2.5A4.369,4.369,0,0,1-54.2-5.722a3.187,3.187,0,0,1,1.189-1.34,3.238,3.238,0,0,1,1.74-.472,3.119,3.119,0,0,1,2.444,1.046A4.024,4.024,0,0,1-47.9-3.705v.089a4.407,4.407,0,0,1-.414,1.938A3.14,3.14,0,0,1-49.492-.342a3.275,3.275,0,0,1-1.767.479A3.111,3.111,0,0,1-53.7-.909a4,4,0,0,1-.933-2.769Zm1.271.15a3.164,3.164,0,0,0,.571,1.976A1.827,1.827,0,0,0-51.259-.9a1.816,1.816,0,0,0,1.531-.755,3.46,3.46,0,0,0,.567-2.116,3.159,3.159,0,0,0-.578-1.972,1.836,1.836,0,0,0-1.535-.755,1.816,1.816,0,0,0-1.511.745A3.434,3.434,0,0,0-53.358-3.616Zm8.764-5.571V-7.4h1.381v.978h-1.381v4.593a1.027,1.027,0,0,0,.185.667.777.777,0,0,0,.629.222,3.062,3.062,0,0,0,.6-.082V0a3.688,3.688,0,0,1-.971.136,1.575,1.575,0,0,1-1.278-.513,2.2,2.2,0,0,1-.431-1.456V-6.419h-1.347V-7.4h1.347V-9.187ZM-38.667.137a3.232,3.232,0,0,1-2.447-.988,3.666,3.666,0,0,1-.943-2.642v-.232a4.438,4.438,0,0,1,.42-1.965,3.28,3.28,0,0,1,1.176-1.354,2.956,2.956,0,0,1,1.637-.489,2.77,2.77,0,0,1,2.242.95,4.114,4.114,0,0,1,.8,2.721v.526h-5.011a2.629,2.629,0,0,0,.639,1.767A2.009,2.009,0,0,0-38.6-.9a2.2,2.2,0,0,0,1.135-.273,2.851,2.851,0,0,0,.813-.725l.772.6A3.106,3.106,0,0,1-38.667.137Zm-.157-6.631a1.687,1.687,0,0,0-1.285.557,2.708,2.708,0,0,0-.643,1.562h3.705v-.1a2.409,2.409,0,0,0-.52-1.494A1.588,1.588,0,0,0-38.825-6.494Zm7.472,5.6a1.822,1.822,0,0,0,1.183-.41,1.443,1.443,0,0,0,.561-1.025h1.2a2.293,2.293,0,0,1-.437,1.21,2.881,2.881,0,0,1-1.077.916,3.107,3.107,0,0,1-1.425.342,3.047,3.047,0,0,1-2.4-1.008,4.016,4.016,0,0,1-.892-2.758v-.212a4.453,4.453,0,0,1,.4-1.921,3.02,3.02,0,0,1,1.138-1.306,3.233,3.233,0,0,1,1.753-.465,2.966,2.966,0,0,1,2.068.745,2.663,2.663,0,0,1,.878,1.935h-1.2a1.743,1.743,0,0,0-.543-1.179,1.691,1.691,0,0,0-1.207-.461,1.77,1.77,0,0,0-1.494.694,3.259,3.259,0,0,0-.53,2.006v.239a3.194,3.194,0,0,0,.526,1.969A1.779,1.779,0,0,0-31.353-.9Zm7.328,0a1.822,1.822,0,0,0,1.183-.41,1.443,1.443,0,0,0,.561-1.025h1.2a2.293,2.293,0,0,1-.437,1.21A2.881,2.881,0,0,1-22.6-.205a3.107,3.107,0,0,1-1.425.342,3.047,3.047,0,0,1-2.4-1.008A4.016,4.016,0,0,1-27.32-3.63v-.212a4.453,4.453,0,0,1,.4-1.921,3.02,3.02,0,0,1,1.138-1.306,3.233,3.233,0,0,1,1.753-.465,2.966,2.966,0,0,1,2.068.745,2.663,2.663,0,0,1,.878,1.935h-1.2a1.743,1.743,0,0,0-.543-1.179,1.691,1.691,0,0,0-1.207-.461,1.77,1.77,0,0,0-1.494.694,3.259,3.259,0,0,0-.53,2.006v.239a3.194,3.194,0,0,0,.526,1.969A1.779,1.779,0,0,0-24.025-.9Zm5.735.9h-1.265V-7.4h1.265Zm-1.367-9.358a.755.755,0,0,1,.188-.52.706.706,0,0,1,.557-.212.717.717,0,0,1,.561.212.747.747,0,0,1,.191.52.722.722,0,0,1-.191.513.73.73,0,0,1-.561.205.718.718,0,0,1-.557-.205A.73.73,0,0,1-19.657-9.358ZM-16.6-3.767a4.369,4.369,0,0,1,.427-1.955,3.187,3.187,0,0,1,1.189-1.34,3.238,3.238,0,0,1,1.74-.472A3.119,3.119,0,0,1-10.8-6.487a4.024,4.024,0,0,1,.933,2.782v.089a4.407,4.407,0,0,1-.414,1.938A3.14,3.14,0,0,1-11.464-.342a3.275,3.275,0,0,1-1.767.479A3.111,3.111,0,0,1-15.668-.909,4,4,0,0,1-16.6-3.678Zm1.271.15a3.164,3.164,0,0,0,.571,1.976A1.827,1.827,0,0,0-13.231-.9,1.816,1.816,0,0,0-11.7-1.651a3.46,3.46,0,0,0,.567-2.116,3.159,3.159,0,0,0-.578-1.972,1.836,1.836,0,0,0-1.535-.755,1.816,1.816,0,0,0-1.511.745A3.434,3.434,0,0,0-15.33-3.616Zm2.659-6.87h1.531l-1.832,2.01-1.019,0ZM-7.085-7.4l.041.93A2.7,2.7,0,0,1-4.83-7.533q2.345,0,2.365,2.646V0H-3.729V-4.895a1.7,1.7,0,0,0-.366-1.183A1.466,1.466,0,0,0-5.212-6.46a1.825,1.825,0,0,0-1.08.328,2.228,2.228,0,0,0-.725.861V0H-8.282V-7.4ZM2.6-3.76A4.333,4.333,0,0,1,3.408-6.5,2.551,2.551,0,0,1,5.52-7.533a2.565,2.565,0,0,1,2.058.889V-10.5H8.842V0H7.68L7.619-.793a2.575,2.575,0,0,1-2.112.93,2.526,2.526,0,0,1-2.1-1.053A4.382,4.382,0,0,1,2.6-3.664Zm1.265.144a3.281,3.281,0,0,0,.52,1.969,1.68,1.68,0,0,0,1.436.711,1.845,1.845,0,0,0,1.757-1.08v-3.4A1.859,1.859,0,0,0,5.834-6.46a1.687,1.687,0,0,0-1.449.718A3.612,3.612,0,0,0,3.866-3.616ZM13.874.137a3.232,3.232,0,0,1-2.447-.988,3.666,3.666,0,0,1-.943-2.642v-.232a4.438,4.438,0,0,1,.42-1.965,3.28,3.28,0,0,1,1.176-1.354,2.956,2.956,0,0,1,1.637-.489,2.77,2.77,0,0,1,2.242.95,4.114,4.114,0,0,1,.8,2.721v.526H11.748a2.629,2.629,0,0,0,.639,1.767A2.009,2.009,0,0,0,13.942-.9a2.2,2.2,0,0,0,1.135-.273,2.851,2.851,0,0,0,.813-.725l.772.6A3.106,3.106,0,0,1,13.874.137Zm-.157-6.631a1.687,1.687,0,0,0-1.285.557,2.708,2.708,0,0,0-.643,1.562h3.705v-.1a2.409,2.409,0,0,0-.52-1.494A1.588,1.588,0,0,0,13.716-6.494ZM23.061,0H21.8V-10.5h1.265ZM24.75-3.767a4.369,4.369,0,0,1,.427-1.955,3.187,3.187,0,0,1,1.189-1.34,3.238,3.238,0,0,1,1.74-.472A3.119,3.119,0,0,1,30.55-6.487a4.024,4.024,0,0,1,.933,2.782v.089a4.407,4.407,0,0,1-.414,1.938A3.14,3.14,0,0,1,29.887-.342,3.275,3.275,0,0,1,28.12.137,3.111,3.111,0,0,1,25.683-.909a4,4,0,0,1-.933-2.769Zm1.271.15a3.164,3.164,0,0,0,.571,1.976A1.827,1.827,0,0,0,28.12-.9a1.816,1.816,0,0,0,1.531-.755,3.46,3.46,0,0,0,.567-2.116,3.159,3.159,0,0,0-.578-1.972,1.836,1.836,0,0,0-1.535-.755,1.816,1.816,0,0,0-1.511.745A3.434,3.434,0,0,0,26.021-3.616ZM37.375-1.962a.931.931,0,0,0-.386-.8,3.718,3.718,0,0,0-1.347-.489,6.367,6.367,0,0,1-1.524-.492,2.169,2.169,0,0,1-.834-.684,1.635,1.635,0,0,1-.27-.943A1.919,1.919,0,0,1,33.783-6.9a3,3,0,0,1,1.965-.629,3.091,3.091,0,0,1,2.041.649,2.063,2.063,0,0,1,.783,1.661H37.3a1.142,1.142,0,0,0-.441-.9,1.652,1.652,0,0,0-1.111-.376,1.729,1.729,0,0,0-1.08.3.947.947,0,0,0-.39.786.767.767,0,0,0,.362.69,4.458,4.458,0,0,0,1.309.444,6.821,6.821,0,0,1,1.535.506,2.239,2.239,0,0,1,.872.708,1.74,1.74,0,0,1,.284,1.008,1.893,1.893,0,0,1-.793,1.589,3.326,3.326,0,0,1-2.058.6,3.725,3.725,0,0,1-1.572-.314,2.557,2.557,0,0,1-1.07-.878,2.117,2.117,0,0,1-.386-1.22h1.265a1.309,1.309,0,0,0,.509,1.008A1.976,1.976,0,0,0,35.79-.9a2.039,2.039,0,0,0,1.152-.291A.893.893,0,0,0,37.375-1.962ZM50-3.616A4.429,4.429,0,0,1,49.229-.9,2.476,2.476,0,0,1,47.137.137a2.713,2.713,0,0,1-2.119-.854V2.844H43.753V-7.4h1.155l.062.82a2.605,2.605,0,0,1,2.146-.957,2.522,2.522,0,0,1,2.109,1A4.477,4.477,0,0,1,50-3.732ZM48.737-3.76A3.268,3.268,0,0,0,48.2-5.735a1.718,1.718,0,0,0-1.463-.725,1.859,1.859,0,0,0-1.723,1.019v3.534A1.863,1.863,0,0,0,46.754-.9,1.71,1.71,0,0,0,48.2-1.617,3.567,3.567,0,0,0,48.737-3.76ZM52.982,0H51.717V-7.4h1.265ZM51.615-9.358a.755.755,0,0,1,.188-.52.706.706,0,0,1,.557-.212.717.717,0,0,1,.561.212.747.747,0,0,1,.191.52.722.722,0,0,1-.191.513.73.73,0,0,1-.561.205.718.718,0,0,1-.557-.205A.73.73,0,0,1,51.615-9.358Zm6.46,9.5a3.232,3.232,0,0,1-2.447-.988,3.666,3.666,0,0,1-.943-2.642v-.232a4.438,4.438,0,0,1,.42-1.965A3.28,3.28,0,0,1,56.28-7.044a2.956,2.956,0,0,1,1.637-.489,2.77,2.77,0,0,1,2.242.95,4.114,4.114,0,0,1,.8,2.721v.526H55.949a2.629,2.629,0,0,0,.639,1.767A2.009,2.009,0,0,0,58.143-.9a2.2,2.2,0,0,0,1.135-.273,2.851,2.851,0,0,0,.813-.725l.772.6A3.106,3.106,0,0,1,58.075.137Zm-.157-6.631a1.687,1.687,0,0,0-1.285.557,2.708,2.708,0,0,0-.643,1.562h3.705v-.1a2.409,2.409,0,0,0-.52-1.494A1.588,1.588,0,0,0,57.917-6.494Zm8.812,4.532a.931.931,0,0,0-.386-.8A3.718,3.718,0,0,0,65-3.247a6.367,6.367,0,0,1-1.524-.492,2.169,2.169,0,0,1-.834-.684,1.635,1.635,0,0,1-.27-.943A1.919,1.919,0,0,1,63.137-6.9,3,3,0,0,1,65.1-7.533a3.091,3.091,0,0,1,2.041.649,2.063,2.063,0,0,1,.783,1.661H66.654a1.142,1.142,0,0,0-.441-.9A1.652,1.652,0,0,0,65.1-6.494a1.729,1.729,0,0,0-1.08.3.947.947,0,0,0-.39.786.767.767,0,0,0,.362.69,4.458,4.458,0,0,0,1.309.444,6.821,6.821,0,0,1,1.535.506,2.239,2.239,0,0,1,.872.708,1.74,1.74,0,0,1,.284,1.008A1.893,1.893,0,0,1,67.2-.461a3.326,3.326,0,0,1-2.058.6,3.725,3.725,0,0,1-1.572-.314,2.557,2.557,0,0,1-1.07-.878,2.117,2.117,0,0,1-.386-1.22h1.265a1.309,1.309,0,0,0,.509,1.008A1.976,1.976,0,0,0,65.143-.9a2.039,2.039,0,0,0,1.152-.291A.893.893,0,0,0,66.729-1.962Z" transform="translate(-1048.282 -8066.646)" fill="#12263f"/>
  </g>
</svg>
