<svg xmlns="http://www.w3.org/2000/svg" width="22.997" height="9.666" viewBox="0 0 22.997 9.666">
  <g id="cacao_3_" data-name="cacao (3)" transform="translate(-4.001 29.898) rotate(-90)">
    <path id="Trazado_981619" data-name="Trazado 981619" d="M29.735,18.045A.339.339,0,0,1,29.7,18c-.2-.239-.35-.232-.554.011a1.909,1.909,0,0,0-.195.27c-.038.064-.076.135-.114.207l-.087.184a8.033,8.033,0,0,0-.372,1.068c-.036.131-.073.274-.11.421h0c0,.012-.006.024-.01.036l-.032.148c-.022.1-.044.206-.069.312-.089.434-.165.878-.224,1.312-.029.186-.052.37-.075.559-.028.224-.051.456-.074.688-.018.185-.032.37-.046.559-.019.24-.037.477-.051.724-.018.379-.032.777-.042,1.178,0,.115,0,.223,0,.334,0,.163,0,.315,0,.467s0,.3,0,.454c0,.124,0,.231,0,.339q.014.615.042,1.189c.014.244.032.481.051.718.014.192.028.377.046.561.023.232.046.464.074.687.023.19.046.374.074.554.06.44.137.884.227,1.328.023.1.045.2.067.3l.032.149c0,.012.007.023.009.035h0c.037.147.074.29.11.424a8.024,8.024,0,0,0,.375,1.072l.085.179c.042.079.078.147.113.205h0c.2.344.38.465.477.465s.274-.122.476-.463c.039-.064.076-.131.113-.205l.09-.188a7.874,7.874,0,0,0,.372-1.067c.037-.132.073-.275.11-.423h0q0-.018.01-.037l.032-.147c.021-.1.043-.2.066-.3.094-.466.168-.9.226-1.321.029-.186.052-.37.075-.559.028-.224.051-.456.074-.689.018-.185.032-.37.046-.559.019-.24.037-.477.051-.724.018-.379.032-.776.042-1.178,0-.115,0-.223,0-.334,0-.163,0-.315,0-.467s0-.3,0-.454c0-.124,0-.232,0-.339q-.014-.614-.042-1.189c-.014-.243-.032-.481-.051-.718-.014-.192-.028-.377-.046-.561-.023-.232-.046-.464-.074-.687-.023-.19-.046-.375-.074-.554-.059-.43-.133-.863-.228-1.329-.022-.1-.044-.2-.066-.3L30.6,20.2c0-.011-.007-.023-.009-.035h0c-.037-.147-.074-.29-.11-.424a7.791,7.791,0,0,0-.375-1.072l-.085-.179-.02-.038c-.029-.056-.06-.113-.093-.168a2.378,2.378,0,0,0-.166-.24Z" transform="translate(-4.359 -8.149)" fill="#4b0708"/>
    <path id="Trazado_981620" data-name="Trazado 981620" d="M28.032,8.977a1.024,1.024,0,0,1,.482-.127A1.012,1.012,0,0,1,29,8.977,7.1,7.1,0,0,0,26.9,4.142a.481.481,0,1,0-.683.677,6.167,6.167,0,0,1,1.81,4.158Z" transform="translate(-3.449)" fill="#4b0708"/>
    <path id="Trazado_981621" data-name="Trazado 981621" d="M35.359,18.819a8.644,8.644,0,0,1,.419,1.194c.038.138.076.283.113.434a.4.4,0,0,1,.015.051l.03.136c.024.107.048.218.071.331v.006h0l0,.011c.1.482.175.931.235,1.372.028.181.052.374.076.572.028.228.053.467.076.706.019.192.034.384.048.581.019.241.038.484.052.736.019.393.033.8.043,1.206,0,.111,0,.23,0,.354,0,.147,0,.307,0,.467s0,.319,0,.479c0,.111,0,.23,0,.349-.009.4-.023.8-.042,1.195-.015.256-.034.5-.053.743-.014.195-.029.387-.048.579-.024.239-.048.478-.077.708-.024.2-.048.389-.077.577-.06.435-.136.883-.234,1.366-.023.118-.05.234-.075.347l-.03.136a.341.341,0,0,1-.016.053c-.037.149-.075.294-.112.43a8.621,8.621,0,0,1-.417,1.189l-.029.062c-.016.034-.031.068-.047.1,2.038-1.079,3.484-4.483,3.484-8.313s-1.446-7.235-3.484-8.313c.015.031.031.065.047.1l.025.056Z" transform="translate(-8.87 -8.641)" fill="#4b0708"/>
    <path id="Trazado_981622" data-name="Trazado 981622" d="M23.716,35.288c-.017-.034-.032-.067-.048-.1l-.026-.056a8.812,8.812,0,0,1-.419-1.193c-.038-.139-.076-.285-.113-.435a.4.4,0,0,1-.015-.051l-.037-.172c-.021-.1-.043-.2-.066-.3-.1-.47-.175-.933-.237-1.384-.028-.181-.052-.374-.076-.572-.028-.228-.053-.467-.076-.706-.019-.192-.034-.384-.048-.581-.019-.241-.038-.484-.052-.736-.019-.393-.033-.8-.043-1.206,0-.111,0-.23,0-.354,0-.147,0-.307,0-.467s0-.319,0-.479c0-.112,0-.23,0-.349.009-.4.023-.8.042-1.195.015-.256.034-.5.053-.743.014-.195.029-.386.048-.579.024-.239.048-.478.077-.707.024-.2.048-.389.077-.577.061-.444.14-.906.234-1.367.025-.112.047-.212.068-.31L23.1,20.5a.341.341,0,0,1,.016-.053c.037-.149.075-.294.112-.43a8.83,8.83,0,0,1,.417-1.189l.029-.062c.016-.034.031-.068.047-.1-2.04,1.083-3.483,4.485-3.483,8.312s1.446,7.235,3.484,8.313Z" transform="translate(0 -8.64)" fill="#4b0708"/>
  </g>
</svg>
