<svg xmlns="http://www.w3.org/2000/svg" xmlns:xlink="http://www.w3.org/1999/xlink" width="60" height="60" viewBox="0 0 60 60">
  <defs>
    <clipPath id="clip-path">
      <rect id="Rectángulo_403509" data-name="Rectángulo 403509" width="60" height="60" transform="translate(356.711 3113.268)" fill="#fff" stroke="#707070" stroke-width="1"/>
    </clipPath>
  </defs>
  <g id="Enmascarar_grupo_1098804" data-name="Enmascarar grupo 1098804" transform="translate(-356.711 -3113.268)" clip-path="url(#clip-path)">
    <g id="plantacion" transform="translate(356.711 3113.268)">
      <path id="Trazado_983188" data-name="Trazado 983188" d="M46.472,15.736,39.331,4.129A28.728,28.728,0,0,0,3.067,41.254c1.149,3.1,6.812,14.493,26.69,16.438,0,0,20.207-7.025,24.943-11.761a28.78,28.78,0,0,0,3.307-20.983Z" fill="#fffbb3"/>
      <path id="Trazado_983189" data-name="Trazado 983189" d="M39.67,43.5A13.414,13.414,0,0,0,36.1,38.345a.642.642,0,0,0-1.017.736,26.2,26.2,0,0,1,2.045,7.3c.223,1.45,2.864,2.849,2.864,2.849Z" fill="#3ecd8d"/>
      <path id="Trazado_983190" data-name="Trazado 983190" d="M43.245,38.345a13.621,13.621,0,0,0-4.489,9.086l2.129,2.791L42.2,46.543a26.137,26.137,0,0,1,2.064-7.462A.642.642,0,0,0,43.245,38.345Z" fill="#95db76"/>
      <path id="Trazado_983191" data-name="Trazado 983191" d="M31.414,22.63A24.6,24.6,0,0,1,29.8,32.46l3.066,1.231a13.549,13.549,0,0,0-.257-11.359.63.63,0,0,0-1.194.3Z" fill="#3ecd8d"/>
      <path id="Trazado_983192" data-name="Trazado 983192" d="M39.392,25.833a24.6,24.6,0,0,0-5.63,8.218L30.7,32.82a13.548,13.548,0,0,1,8.04-8.028.629.629,0,0,1,.656,1.041Z" fill="#95db76"/>
      <path id="Trazado_983193" data-name="Trazado 983193" d="M31.139,47.384a1.694,1.694,0,0,1-2.279,0,5.636,5.636,0,0,0-7.56,0,1.694,1.694,0,0,1-2.279,0,5.636,5.636,0,0,0-7.56,0,1.678,1.678,0,0,1-2.256.021,5.617,5.617,0,0,0-2.561-1.338v1.919a28.874,28.874,0,0,0,7.934,7.522l3.4-1.061,2.217,3.833a28.548,28.548,0,0,0,7.131,1.6l0,0L35.5,55.569Z" fill="#9e533b"/>
      <path id="Trazado_983194" data-name="Trazado 983194" d="M49.959,51.921a28.839,28.839,0,0,1-5,3.879l-3.249.711-2.392,1.943h0a28.573,28.573,0,0,1-7.129,1.463l-2.3-2.479,2.057-4.168c-3.047-2.344-.8-5.885-.8-5.885a5.636,5.636,0,0,1,7.56,0,1.694,1.694,0,0,0,2.279,0,5.636,5.636,0,0,1,7.56,0,1.678,1.678,0,0,0,2.256.021l.433,1.52Z" fill="#b66651"/>
      <path id="Trazado_983195" data-name="Trazado 983195" d="M50.794,47.405c-1.23,1.945-1.235,3.44-.835,4.516a28.829,28.829,0,0,0,4.741-5.99,5.617,5.617,0,0,0-3.906,1.474Z" fill="#ce7867"/>
      <path id="Trazado_983196" data-name="Trazado 983196" d="M19.77,38.364,14.1,35.378l-5.087,1.4,1,5.833c2.2.536,5.045,1.054,6.128,1.226l3.892-2.052Z" fill="#2a428b"/>
      <path id="Trazado_983197" data-name="Trazado 983197" d="M16.134,43.837a1.392,1.392,0,0,1,.6.238,1.358,1.358,0,0,1,.536,1.4l-.742,3.35,2.179,3.47,3.346-2.169L23.079,45.5a6.48,6.48,0,0,0-3.309-7.135S13.765,39.014,16.134,43.837Z" fill="#3f57a0"/>
      <path id="Trazado_983198" data-name="Trazado 983198" d="M23.8,6.848a9.235,9.235,0,0,0-5.439-.032l-.668,2.661a5.006,5.006,0,0,0,.366,3.432,5.035,5.035,0,0,0,5.153.48Z" fill="#45304c"/>
      <path id="Trazado_983199" data-name="Trazado 983199" d="M21.246,7.541a1.811,1.811,0,0,0,.668,3.191l.344.086L25.7,7.46Z" fill="#ffaa7b"/>
      <path id="Trazado_983200" data-name="Trazado 983200" d="M25.7,7.46l-2.729.513L22.031,11.7a1.389,1.389,0,0,1-1.007,1.008,7.965,7.965,0,0,1-2.968.2,5.027,5.027,0,0,0,9.4-.982l.668-2.661Z" fill="#ffc7ab"/>
      <path id="Trazado_983201" data-name="Trazado 983201" d="M25.2.248a8.069,8.069,0,0,0-4.391.116,1.637,1.637,0,0,0-.982.854l-.387.811L24.81,4.846Z" fill="#b66651"/>
      <path id="Trazado_983202" data-name="Trazado 983202" d="M29.474,3.641a1.637,1.637,0,0,0-.462-1.217A8.068,8.068,0,0,0,25.2.248a2.228,2.228,0,0,0-.762,3.036l2.211,2.022,2.788-.767Z" fill="#ce7867"/>
      <path id="Trazado_983203" data-name="Trazado 983203" d="M24.434,3.285l-5-1.254-1.25,2.62,6.571,2.574Z" fill="#8c3d2f"/>
      <path id="Trazado_983204" data-name="Trazado 983204" d="M29.433,4.539l-5-1.254a1.912,1.912,0,0,0-.263,2.868L26.96,7.914,29.3,7.439Z" fill="#9e533b"/>
      <path id="Trazado_983205" data-name="Trazado 983205" d="M31.383,7.962,16.1,4.127a1.03,1.03,0,1,0-.5,2L30.882,9.96a1.03,1.03,0,0,0,.5-2Z" fill="#ce7867"/>
      <g id="Grupo_1103057" data-name="Grupo 1103057">
        <path id="Trazado_983206" data-name="Trazado 983206" d="M41.886,55.764a13.414,13.414,0,0,0-3.575-5.155.642.642,0,0,0-1.017.736,26.269,26.269,0,0,1,2.021,7.109q1.007-.345,1.98-.762l.89-1.151Z" fill="#3ecd8d"/>
        <path id="Trazado_983207" data-name="Trazado 983207" d="M29.757,55.764a13.414,13.414,0,0,0-3.575-5.155.642.642,0,0,0-1.017.736,25.7,25.7,0,0,1,2.16,8.529q.742.069,1.494.1l1.509-1.6Z" fill="#3ecd8d"/>
        <path id="Trazado_983208" data-name="Trazado 983208" d="M45.01,18.3a.684.684,0,0,0-.63-.842,3.952,3.952,0,0,1-3.187-5.8.676.676,0,0,0-.387-.963,3.924,3.924,0,0,1-1.476-6.561,28.711,28.711,0,0,1,10.787,6.678l.768,6.149Z" fill="#3ecd8d"/>
      </g>
      <path id="Trazado_983209" data-name="Trazado 983209" d="M51.988,22.854a.678.678,0,0,0-1.015-.381A3.927,3.927,0,0,1,45.01,18.3a3.719,3.719,0,0,1,2.566-3.125,1.184,1.184,0,0,0,.834-1.138,4.034,4.034,0,0,1,1.707-3.226,28.8,28.8,0,0,1,5.525,7.557l-.3,2.96Z" fill="#95db76"/>
      <path id="Trazado_983210" data-name="Trazado 983210" d="M55.752,25.666a3.889,3.889,0,0,0,2.255-.717,28.5,28.5,0,0,0-2.364-6.584,4.026,4.026,0,0,0-3.655,4.49A3.926,3.926,0,0,0,55.752,25.666Z" fill="#baee63"/>
      <path id="Trazado_983211" data-name="Trazado 983211" d="M19.183,16.9a4.48,4.48,0,0,0-6.028,1.517A97.7,97.7,0,0,0,6.849,30.168a40.651,40.651,0,0,0-1.488,3.92c-.78,2.411-1.67,5.243-2.295,7.166l2.9,2.582,4.042-1.226,4.331-7.657,5.137-8.24Z" fill="#3f57a0"/>
      <path id="Trazado_983212" data-name="Trazado 983212" d="M7.746,46.6l2.259-3.993a4.633,4.633,0,0,0-6.939-1.357A28.631,28.631,0,0,0,6.645,47.99,6.82,6.82,0,0,0,7.746,46.6Z" fill="#5071b7"/>
      <path id="Trazado_983213" data-name="Trazado 983213" d="M33.127,31.483l-1.681-.745a1.258,1.258,0,0,0-.636-.1,2.852,2.852,0,0,1-1.522-.234L25.6,28.541a.84.84,0,0,1-.409-.426l-1.7-3.681L20.254,23.3l-1.564,2.3,3.474,4.966a3.26,3.26,0,0,0,1.526,1.223l4.089,1.565a2.746,2.746,0,0,1,1.283,1.081,1.259,1.259,0,0,0,.544.461l1.681.745a2.271,2.271,0,1,0,1.84-4.153Z" fill="#ffaa7b"/>
      <path id="Trazado_983214" data-name="Trazado 983214" d="M15.562,19.147l-2.907,5.181a2.4,2.4,0,0,0,3.506,3.112l2.529-1.845.648-3.451Z" fill="#fe3d97"/>
      <path id="Trazado_983215" data-name="Trazado 983215" d="M17.426,16.865a2.963,2.963,0,0,0-1.753,4.3c.348.621,2.7,3.971,3.016,4.428a8.849,8.849,0,0,0,4.8-1.161l-2.519-5.889a2.96,2.96,0,0,0-3.546-1.679Z" fill="#fd77a6"/>
      <path id="Trazado_983216" data-name="Trazado 983216" d="M22.39,50.2l-6.031-1.42a.7.7,0,0,0-.851.537c-.272,1.257-.6,4.02-.931,6.191a28.6,28.6,0,0,0,5.615,2.771L22.8,51A.587.587,0,0,0,22.39,50.2Z" fill="#fef156"/>
      <path id="Trazado_983217" data-name="Trazado 983217" d="M45.461,50.609a13.462,13.462,0,0,0-4.167,7.083A28.623,28.623,0,0,0,44.957,55.8a27.087,27.087,0,0,1,1.521-4.455.642.642,0,0,0-1.017-.736Z" fill="#95db76"/>
      <path id="Trazado_983218" data-name="Trazado 983218" d="M33.332,50.609a13.654,13.654,0,0,0-4.512,9.365c.392.016.784.026,1.18.026q1.1,0,2.186-.082a25.688,25.688,0,0,1,2.163-8.572.642.642,0,0,0-1.017-.737Z" fill="#95db76"/>
    </g>
  </g>
</svg>
