<svg xmlns="http://www.w3.org/2000/svg" xmlns:xlink="http://www.w3.org/1999/xlink" width="129.396" height="122" viewBox="0 0 129.396 122">
  <defs>
    <clipPath id="clip-path">
      <rect id="Rect치ngulo_403288" data-name="Rect치ngulo 403288" width="122" height="122" transform="translate(179.668 5502)" fill="#fff" stroke="#707070" stroke-width="1"/>
    </clipPath>
  </defs>
  <g id="Grupo_1102542" data-name="Grupo 1102542" transform="translate(-389 -6445)">
    <g id="Grupo_1101953" data-name="Grupo 1101953" transform="translate(209.332 943)">
      <path id="Rect치ngulo_403287" data-name="Rect치ngulo 403287" d="M39,0h0A39,39,0,0,1,78,39v73a0,0,0,0,1,0,0H0a0,0,0,0,1,0,0V39A39,39,0,0,1,39,0Z" transform="translate(201.668 5512)" fill="#ffd839"/>
      <g id="Enmascarar_grupo_1098796" data-name="Enmascarar grupo 1098796" clip-path="url(#clip-path)">
        <g id="humedad" transform="translate(179.906 5502)">
          <path id="Trazado_982224" data-name="Trazado 982224" d="M91.619,36.338s28,33.98,28,49.443a28,28,0,0,1-56,0C63.621,70.318,91.619,36.338,91.619,36.338Z" fill="#66dff6"/>
          <path id="Trazado_982225" data-name="Trazado 982225" d="M41.7,2.383S2.383,58.587,2.383,80.3a39.316,39.316,0,0,0,78.633,0C81.016,58.587,41.7,2.383,41.7,2.383Z" fill="#cbf4fb"/>
          <path id="Trazado_982226" data-name="Trazado 982226" d="M41.7,93.764,54.8,72.318H47.656V47.3H35.742v25.02H28.594Z" fill="#fff"/>
          <g id="Grupo_1102809" data-name="Grupo 1102809">
            <path id="Trazado_982227" data-name="Trazado 982227" d="M98.376,110.5a25.822,25.822,0,0,1-13.149.1,2.383,2.383,0,1,0-1.185,4.616,30.585,30.585,0,0,0,15.589-.115,2.383,2.383,0,1,0-1.254-4.6Z"/>
            <path id="Trazado_982228" data-name="Trazado 982228" d="M116.671,77a2.384,2.384,0,0,0,2.186-3.33,107.546,107.546,0,0,0-7.009-13.132,2.383,2.383,0,1,0-4.062,2.492,102.82,102.82,0,0,1,6.7,12.534A2.384,2.384,0,0,0,116.671,77Z"/>
            <path id="Trazado_982229" data-name="Trazado 982229" d="M93.458,34.822A2.383,2.383,0,0,0,90.1,34.5a6.948,6.948,0,0,0-.6.665C88.5,36.4,84.881,40.9,80.574,46.862a2.383,2.383,0,1,0,3.863,2.791c2.931-4.056,5.532-7.42,7.182-9.507,1.607,2.034,4.12,5.281,6.941,9.173a2.383,2.383,0,1,0,3.859-2.8c-4.914-6.779-8.921-11.651-8.961-11.7Z"/>
            <path id="Trazado_982230" data-name="Trazado 982230" d="M119.591,88.477A2.384,2.384,0,0,0,116.82,90.4a25.574,25.574,0,0,1-5.607,11.886,2.383,2.383,0,1,0,3.643,3.071,30.272,30.272,0,0,0,6.607-14.105,3.37,3.37,0,0,0,.06-.6,2.284,2.284,0,0,0-1.932-2.17Z"/>
            <path id="Trazado_982231" data-name="Trazado 982231" d="M82.722,74.4c-1.213-5.838-3.946-13.094-8.362-22.179-2.6-5.347-5.778-11.278-9.438-17.63-2.953-5.128-6.233-10.549-9.75-16.117C49.505,9.505,44.934,2.863,43.676,1.052A2.465,2.465,0,0,0,41.7,0a2.406,2.406,0,0,0-1.96,1.026C38.71,2.506,29.39,15.953,19.985,31.994A265.739,265.739,0,0,0,6.348,58,103.2,103.2,0,0,0,1.787,70.038,37.011,37.011,0,0,0,0,80.3a41.47,41.47,0,0,0,7.122,23.314,41.779,41.779,0,0,0,18.345,15.107A41.761,41.761,0,0,0,64.9,114.954,41.818,41.818,0,0,0,80.01,96.788a2.383,2.383,0,0,0-1.244-3.131,2.334,2.334,0,0,0-.941-.2,2.38,2.38,0,0,0-2.19,1.442,36.927,36.927,0,0,1-33.929,22.331H41.7A36.934,36.934,0,0,1,4.766,80.3a32.694,32.694,0,0,1,1.592-8.9c3.8-12.836,13.727-30.521,21.386-43.1C32.1,21.138,40.784,7.942,41.7,6.593c3.436,5.059,10.218,15.279,17.1,26.962,4.828,8.19,8.857,15.665,11.978,22.217,3.786,7.944,6.233,14.535,7.272,19.594A2.5,2.5,0,0,0,79.8,77.109a2.173,2.173,0,0,0,1.613-.139,2.433,2.433,0,0,0,.966-.777,2.367,2.367,0,0,0,.343-1.792Z"/>
            <path id="Trazado_982232" data-name="Trazado 982232" d="M33.953,36.338a2.382,2.382,0,0,0,2.085-1.226l5.957-10.723a2.383,2.383,0,1,0-4.166-2.314L31.872,32.8a2.384,2.384,0,0,0,2.081,3.541Z"/>
            <path id="Trazado_982233" data-name="Trazado 982233" d="M26.515,71.153a2.383,2.383,0,0,0,.045,2.408L39.666,95.006a2.383,2.383,0,0,0,4.067,0L56.838,73.561A2.383,2.383,0,0,0,54.8,69.936H50.039V47.3a2.383,2.383,0,0,0-2.383-2.383H35.742A2.383,2.383,0,0,0,33.359,47.3V69.936H28.594a2.383,2.383,0,0,0-2.078,1.217ZM35.742,74.7a2.383,2.383,0,0,0,2.383-2.383V49.682h7.148V72.318A2.383,2.383,0,0,0,47.656,74.7h2.9L41.7,89.194,32.842,74.7Z"/>
            <circle id="Elipse_11632" data-name="Elipse 11632" cx="2.383" cy="2.383" r="2.383" transform="translate(78.286 83.162)"/>
          </g>
        </g>
      </g>
    </g>
    <path id="Trazado_952692" data-name="Trazado 952692" d="M33.294,147.506s-.337,8.3-6.974,9.087c0,0,7.122,2.127,7.909,9.111,0,0,1.781-8.464,6.568-9.158,0,0-5.55-1.11-7.5-9.04" transform="translate(365.012 6311.903)" fill="#6b0b0c"/>
    <path id="Trazado_952694" data-name="Trazado 952694" d="M74.547,81.707s-.513,12.647-10.629,13.849c0,0,10.856,3.243,12.054,13.887,0,0,2.714-12.9,10.01-13.957,0,0-8.459-1.691-11.435-13.778" transform="translate(432.414 6391.397)" fill="#6b0b0c"/>
  </g>
</svg>
