<svg xmlns="http://www.w3.org/2000/svg" xmlns:xlink="http://www.w3.org/1999/xlink" width="142.353" height="122" viewBox="0 0 142.353 122">
  <defs>
    <clipPath id="clip-path">
      <rect id="Rect치ngulo_403288" data-name="Rect치ngulo 403288" width="122" height="122" transform="translate(179.668 5502)" fill="#fff" stroke="#707070" stroke-width="1"/>
    </clipPath>
  </defs>
  <g id="Grupo_1102796" data-name="Grupo 1102796" transform="translate(-389 -6445)">
    <g id="Grupo_1101953" data-name="Grupo 1101953" transform="translate(209.332 943)">
      <path id="Rect치ngulo_403287" data-name="Rect치ngulo 403287" d="M39,0h0A39,39,0,0,1,78,39v73a0,0,0,0,1,0,0H0a0,0,0,0,1,0,0V39A39,39,0,0,1,39,0Z" transform="translate(201.668 5512)" fill="#ffd839"/>
      <g id="Enmascarar_grupo_1098798" data-name="Enmascarar grupo 1098798" clip-path="url(#clip-path)">
        <g id="desperdicio" transform="translate(179.668 5502)">
          <g id="Grupo_1102827" data-name="Grupo 1102827">
            <g id="Grupo_1102814" data-name="Grupo 1102814">
              <path id="Trazado_982249" data-name="Trazado 982249" d="M91.953,62.161a2.775,2.775,0,0,0,1.456,1.122l3.522,1.161a2.857,2.857,0,0,1,1.83,1.987l1.22,4.88a2.857,2.857,0,0,0,1.83,1.987l2.991.984a2.857,2.857,0,0,1,1.83,1.987l1.279,5.116a2.718,2.718,0,0,0,1.476,1.83l5.746,2.893a2.728,2.728,0,0,1,1.358,1.456l3.542,8.855v23.613h-44a10.551,10.551,0,0,0,6.435-18.91L68.91,90.693A82.793,82.793,0,0,1,54.762,76.821l-1.633-2.046,4.565-1.515a2.889,2.889,0,0,0,1.791-1.791l1.063-3.227a2.889,2.889,0,0,1,1.791-1.791L65.8,65.309a2.737,2.737,0,0,0,1.614-1.417l.669-1.338A2.853,2.853,0,0,1,70.6,61H72.57a2.824,2.824,0,0,0,2.735-2.125l.905-3.621a2.824,2.824,0,0,1,2.735-2.125,2.853,2.853,0,0,1,2.519,1.555l.394.826a2.853,2.853,0,0,0,2.519,1.555h2.656a2.792,2.792,0,0,1,2.342,1.259Z" fill="#cf9e76"/>
            </g>
            <g id="Grupo_1102815" data-name="Grupo 1102815">
              <path id="Trazado_982250" data-name="Trazado 982250" d="M86.581,109.485a10.548,10.548,0,0,1-10.547,10.547H9.111a7.154,7.154,0,0,1-5.372-11.865l10.98-12.554a4.617,4.617,0,0,1,2.538-1.456l5.608-1.122a4.557,4.557,0,0,0,3.483-3.207l2.617-9.189a4.518,4.518,0,0,1,2.342-2.814L35.4,75.758a4.48,4.48,0,0,0,2.42-3.168l.807-4.014a4.53,4.53,0,0,1,7.989-1.928l6.513,8.127,1.633,2.046A82.793,82.793,0,0,0,68.91,90.693l13.558,10.429a10.571,10.571,0,0,1,4.113,8.363Z" fill="#d3a06c"/>
            </g>
            <g id="Grupo_1102816" data-name="Grupo 1102816">
              <circle id="Elipse_11636" data-name="Elipse 11636" cx="3.935" cy="3.935" r="3.935" transform="translate(84.613 64.935)" fill="#b27946"/>
            </g>
            <g id="Grupo_1102817" data-name="Grupo 1102817">
              <circle id="Elipse_11637" data-name="Elipse 11637" cx="3.935" cy="3.935" r="3.935" transform="translate(68.871 76.742)" fill="#b27946"/>
            </g>
            <g id="Grupo_1102818" data-name="Grupo 1102818">
              <path id="Trazado_982251" data-name="Trazado 982251" d="M114.129,49.194a5.9,5.9,0,1,1-5.9,5.9,2.139,2.139,0,0,1,.02-.354l5.549-5.549Z" fill="#fcd770"/>
            </g>
            <g id="Grupo_1102819" data-name="Grupo 1102819">
              <path id="Trazado_982252" data-name="Trazado 982252" d="M108.245,43.645,102.7,49.194l-.02-.02a2.139,2.139,0,0,1-.354.02,5.9,5.9,0,1,1,5.9-5.9v.335Z" fill="#fcd770"/>
            </g>
            <g id="Grupo_1102820" data-name="Grupo 1102820">
              <path id="Trazado_982253" data-name="Trazado 982253" d="M62.968,13.774a5.9,5.9,0,1,1-5.9,5.9,2.139,2.139,0,0,1,.02-.354l5.549-5.549Z" fill="#fcd770"/>
            </g>
            <g id="Grupo_1102821" data-name="Grupo 1102821">
              <path id="Trazado_982254" data-name="Trazado 982254" d="M57.084,8.225l-5.549,5.549-.02-.02a2.139,2.139,0,0,1-.354.02,5.9,5.9,0,1,1,5.9-5.9v.335Z" fill="#fcd770"/>
            </g>
            <g id="Grupo_1102822" data-name="Grupo 1102822">
              <path id="Trazado_982255" data-name="Trazado 982255" d="M27.548,41.323a5.9,5.9,0,0,1,0,11.806,2.139,2.139,0,0,1-.354-.02v.02L21.645,47.58v-.354A5.9,5.9,0,0,1,27.548,41.323Z" fill="#fcd770"/>
            </g>
            <g id="Grupo_1102823" data-name="Grupo 1102823">
              <path id="Trazado_982256" data-name="Trazado 982256" d="M16.076,53.129l5.549,5.549a2.139,2.139,0,0,1,.02.354,5.9,5.9,0,1,1-5.9-5.9Z" fill="#fcd770"/>
            </g>
            <g id="Grupo_1102824" data-name="Grupo 1102824">
              <path id="Trazado_982257" data-name="Trazado 982257" d="M114.936,42.484a3.9,3.9,0,0,1,0,5.549l-1.141,1.161-5.549,5.549L107.065,55.9a3.924,3.924,0,1,1-5.549-5.549l1.181-1.161,5.549-5.549,1.141-1.161a3.9,3.9,0,0,1,5.549,0Z" fill="#ffeaa7"/>
            </g>
            <g id="Grupo_1102825" data-name="Grupo 1102825">
              <path id="Trazado_982258" data-name="Trazado 982258" d="M63.775,7.064a3.9,3.9,0,0,1,0,5.549l-1.141,1.161-5.549,5.549L55.9,20.484a3.924,3.924,0,1,1-5.549-5.549l1.181-1.161,5.549-5.549,1.141-1.161a3.9,3.9,0,0,1,5.549,0Z" fill="#ffeaa7"/>
            </g>
            <g id="Grupo_1102826" data-name="Grupo 1102826">
              <path id="Trazado_982259" data-name="Trazado 982259" d="M28.355,59.839a3.9,3.9,0,0,1-5.549,0l-1.181-1.161-5.549-5.549-1.141-1.161a3.924,3.924,0,1,1,5.549-5.549l1.161,1.161,5.549,5.549,1.161,1.161a3.9,3.9,0,0,1,0,5.549Z" fill="#ffeaa7"/>
            </g>
          </g>
          <g id="Grupo_1102828" data-name="Grupo 1102828">
            <path id="Trazado_982260" data-name="Trazado 982260" d="M88.548,109.485a12.6,12.6,0,0,0-4.884-9.921L70.111,89.139A80.721,80.721,0,0,1,56.437,75.746l1.883-.628A4.787,4.787,0,0,0,61.342,72.1l1.082-3.239a.846.846,0,0,1,.533-.533l3.467-1.155a4.8,4.8,0,0,0,2.761-2.4l.669-1.338a.838.838,0,0,1,.756-.466h1.968a4.771,4.771,0,0,0,4.636-3.621l.9-3.609a.881.881,0,0,1,1.578-.175l.411.826a4.757,4.757,0,0,0,4.278,2.643h2.658a.847.847,0,0,1,.7.376l2.564,3.849a.052.052,0,0,1,.01.012,5.817,5.817,0,0,0-1.773-.3,5.9,5.9,0,1,0,5.9,5.9,5.847,5.847,0,0,0-1.25-3.589l3.1,1.033a.851.851,0,0,1,.553.6l1.216,4.874a4.752,4.752,0,0,0,3.127,3.377l2.975.992a.851.851,0,0,1,.553.6L106,81.864a4.77,4.77,0,0,0,2.5,3.121l5.758,2.879a.837.837,0,0,1,.407.443l3.538,8.845,3.654-1.462-3.538-8.845a4.774,4.774,0,0,0-2.3-2.5l-5.758-2.879a.854.854,0,0,1-.443-.551L108.543,75.8a4.752,4.752,0,0,0-3.127-3.377l-2.975-.992a.851.851,0,0,1-.553-.6l-1.216-4.874a4.752,4.752,0,0,0-3.127-3.377l-3.522-1.175a.862.862,0,0,1-.439-.333L91.02,57.226A4.767,4.767,0,0,0,87.041,55.1H84.383a.843.843,0,0,1-.758-.466l-.411-.826a4.779,4.779,0,0,0-8.912.978l-.9,3.609a.846.846,0,0,1-.821.641H70.61a4.757,4.757,0,0,0-4.278,2.643l-.671,1.34a.835.835,0,0,1-.486.421l-3.463,1.153a4.787,4.787,0,0,0-3.022,3.022l-1.082,3.239a.846.846,0,0,1-.533.533l-3.266,1.088L48.157,65.41A6.506,6.506,0,0,0,36.7,68.2l-.8,4.012a2.562,2.562,0,0,1-1.372,1.8l-4.1,2.05a6.514,6.514,0,0,0-3.345,4.032l-2.627,9.193A2.563,2.563,0,0,1,22.483,91.1l-5.616,1.122a6.552,6.552,0,0,0-3.621,2.1L2.259,106.878A9.115,9.115,0,0,0,9.12,122H122v-3.935H85.136a12.467,12.467,0,0,0,3.412-8.579Zm0-38.646a1.968,1.968,0,1,1,1.968-1.968A1.97,1.97,0,0,1,88.548,70.839ZM76.034,118.065H9.12a5.183,5.183,0,0,1-3.9-8.6l10.99-12.562a2.578,2.578,0,0,1,1.431-.826l5.616-1.122a6.481,6.481,0,0,0,4.98-4.593l2.627-9.2a2.569,2.569,0,0,1,1.32-1.59l4.1-2.05a6.464,6.464,0,0,0,3.471-4.545l.8-4.012a2.572,2.572,0,0,1,4.53-1.1l8.146,10.181A84.659,84.659,0,0,0,67.714,92.258l13.552,10.425a8.582,8.582,0,0,1-5.232,15.382Z"/>
            <path id="Trazado_982261" data-name="Trazado 982261" d="M67.919,97.676h3.935v7.451H67.919Z" transform="translate(-53.072 94.94) rotate(-52.431)"/>
            <path id="Trazado_982262" data-name="Trazado 982262" d="M50.156,80.508l-1.4-1.743-3.072,2.46,1.393,1.741a92.451,92.451,0,0,0,14.66,14.616L64.19,94.5A88.8,88.8,0,0,1,50.156,80.508Z"/>
            <path id="Trazado_982263" data-name="Trazado 982263" d="M49.77,93.06l-4.512,4.512-3.121-3.121,4.512-4.512-2.782-2.782-4.512,4.512-4.512-4.512L32.06,89.94l4.512,4.512-3.121,3.121L28.94,93.06l-2.782,2.782,4.512,4.512-4.512,4.512,2.782,2.782,4.512-4.512,3.121,3.121L32.06,110.77l2.782,2.782,4.512-4.512,4.512,4.512,2.782-2.782-4.512-4.512,3.121-3.121,4.512,4.512,2.782-2.782-4.512-4.512,4.512-4.512ZM39.355,103.476l-3.121-3.121,3.121-3.121,3.121,3.121Z"/>
            <path id="Trazado_982264" data-name="Trazado 982264" d="M101.158,102.323a.844.844,0,0,1,.6.248l2.288,2.288a4.747,4.747,0,0,0,3.379,1.4H111a.844.844,0,0,1,.6.248l7.046,7.046,2.782-2.782-7.048-7.048a4.747,4.747,0,0,0-3.379-1.4h-3.573a.844.844,0,0,1-.6-.248l-2.288-2.288a4.747,4.747,0,0,0-3.379-1.4H99.892a.847.847,0,0,1-.7-.376l-3.1-4.65-3.274,2.182,3.1,4.652a4.776,4.776,0,0,0,3.981,2.127Z"/>
            <path id="Trazado_982265" data-name="Trazado 982265" d="M72.806,82.645v3.935a5.9,5.9,0,1,0-5.9-5.9h3.935a1.968,1.968,0,1,1,1.968,1.968Z"/>
            <path id="Trazado_982266" data-name="Trazado 982266" d="M84.6,81.818h3.935v5.564H84.6Z" transform="translate(-34.471 86.004) rotate(-45)"/>
            <path id="Trazado_982267" data-name="Trazado 982267" d="M73.948,66.893h5.564v3.935H73.948Z" transform="translate(-26.222 74.436) rotate(-45)"/>
            <path id="Trazado_982268" data-name="Trazado 982268" d="M93.623,110.177h5.564v3.935H93.623Z" transform="translate(-51.069 101.03) rotate(-45)"/>
            <path id="Trazado_982269" data-name="Trazado 982269" d="M104.275,89.688h3.935v5.564h-3.935Z" transform="translate(-34.274 102.224) rotate(-45)"/>
            <path id="Trazado_982270" data-name="Trazado 982270" d="M15.742,66.9a7.866,7.866,0,0,0,7.145-4.614A5.859,5.859,0,0,0,30.8,54.371,7.859,7.859,0,1,0,20.392,43.989a6.045,6.045,0,0,0-6.856,1.031A5.815,5.815,0,0,0,12.5,51.911,7.84,7.84,0,0,0,15.742,66.9ZM27.548,43.29a3.925,3.925,0,0,1,.433,7.828l-4.325-4.325A3.928,3.928,0,0,1,27.548,43.29ZM16.318,47.8a1.967,1.967,0,0,1,2.782,0l7.871,7.871a1.967,1.967,0,0,1,0,2.782,2,2,0,0,1-2.782,0l-7.871-7.871a1.967,1.967,0,0,1,0-2.782ZM15.309,55.14l4.325,4.325a3.925,3.925,0,1,1-4.325-4.325Z"/>
            <path id="Trazado_982271" data-name="Trazado 982271" d="M47.9,15.016a5.859,5.859,0,0,0,7.918,7.918,7.858,7.858,0,1,0,10.4-10.4,5.819,5.819,0,0,0-1.051-6.867,6.049,6.049,0,0,0-6.856-1.031A7.86,7.86,0,1,0,47.9,15.016Zm15.063,8.6a3.928,3.928,0,0,1-3.892-3.5L63.4,15.785a3.925,3.925,0,0,1-.433,7.828ZM61,7.871a1.967,1.967,0,0,1,1.391,3.359L54.52,19.1a2,2,0,0,1-2.782,0,1.967,1.967,0,0,1,0-2.782l7.871-7.871A1.932,1.932,0,0,1,61,7.871ZM51.161,3.935a3.928,3.928,0,0,1,3.892,3.5l-4.325,4.325a3.925,3.925,0,0,1,.433-7.828Z"/>
            <path id="Trazado_982272" data-name="Trazado 982272" d="M102.323,35.419a7.858,7.858,0,0,0-3.257,15.016,5.859,5.859,0,0,0,7.918,7.918,7.858,7.858,0,1,0,10.4-10.4,5.819,5.819,0,0,0-1.051-6.867,6.049,6.049,0,0,0-6.856-1.031,7.869,7.869,0,0,0-7.157-4.634Zm0,3.935a3.928,3.928,0,0,1,3.892,3.5l-4.325,4.325a3.925,3.925,0,0,1,.433-7.828Zm11.806,19.677a3.928,3.928,0,0,1-3.892-3.5l4.325-4.325a3.925,3.925,0,0,1-.433,7.828ZM112.161,43.29a1.967,1.967,0,0,1,1.391,3.359l-7.871,7.871a2,2,0,0,1-2.782,0,1.967,1.967,0,0,1,0-2.782l7.871-7.871A1.932,1.932,0,0,1,112.161,43.29Z"/>
            <path id="Trazado_982273" data-name="Trazado 982273" d="M40.28,34.617l22.068,3.678a5.452,5.452,0,0,1,.669,10.6L51.049,52.486A5.365,5.365,0,0,0,48.8,61.419l4.908,4.908,2.782-2.782-4.908-4.91a1.407,1.407,0,0,1-.419-1.009,1.422,1.422,0,0,1,1.019-1.37l11.968-3.591a9.388,9.388,0,0,0-1.155-18.253L40.925,30.734a6.587,6.587,0,0,1-4.4-10.154l2.5-3.749L35.752,14.65l-2.5,3.747a10.523,10.523,0,0,0,7.027,16.22Z"/>
            <path id="Trazado_982274" data-name="Trazado 982274" d="M80.028,23.835l22.7,1.513a1.672,1.672,0,0,1,.488,3.229L83.409,36.2a7.373,7.373,0,0,0-4.7,6.842,7.28,7.28,0,0,0,2.147,5.181l4.333,4.333,2.782-2.782-4.333-4.333a3.378,3.378,0,0,1-.994-2.4,3.414,3.414,0,0,1,2.176-3.168l19.809-7.619a5.607,5.607,0,0,0-1.639-10.828L80.29,19.91a1.693,1.693,0,0,1-.516-3.261L92.2,11.679a9.793,9.793,0,0,0,6.187-9.136V0H94.452V2.542a5.872,5.872,0,0,1-3.711,5.48L78.314,12.993a5.628,5.628,0,0,0,1.714,10.842Z"/>
            <circle id="Elipse_11638" data-name="Elipse 11638" cx="1.968" cy="1.968" r="1.968" transform="translate(74.774 1.968)"/>
            <circle id="Elipse_11639" data-name="Elipse 11639" cx="1.968" cy="1.968" r="1.968" transform="translate(78.71 27.548)"/>
            <circle id="Elipse_11640" data-name="Elipse 11640" cx="1.968" cy="1.968" r="1.968" transform="translate(70.839 31.484)"/>
          </g>
        </g>
      </g>
    </g>
    <path id="Trazado_952692" data-name="Trazado 952692" d="M33.294,147.506s-.337,8.3-6.974,9.087c0,0,7.122,2.127,7.909,9.111,0,0,1.781-8.464,6.568-9.158,0,0-5.55-1.11-7.5-9.04" transform="translate(371.059 6311.903)" fill="#6b0b0c"/>
    <path id="Trazado_952694" data-name="Trazado 952694" d="M74.547,81.707s-.513,12.647-10.629,13.849c0,0,10.856,3.243,12.054,13.887,0,0,2.714-12.9,10.01-13.957,0,0-8.459-1.691-11.435-13.778" transform="translate(445.371 6424.293)" fill="#6b0b0c"/>
  </g>
</svg>
