<svg xmlns="http://www.w3.org/2000/svg" xmlns:xlink="http://www.w3.org/1999/xlink" width="69.711" height="69.711" viewBox="0 0 69.711 69.711">
  <defs>
    <clipPath id="clip-path">
      <rect id="Rect치ngulo_403288" data-name="Rect치ngulo 403288" width="69.711" height="69.711" transform="translate(195.289 2037.645)" fill="#fff" stroke="#707070" stroke-width="1"/>
    </clipPath>
  </defs>
  <g id="Grupo_1103295" data-name="Grupo 1103295" transform="translate(-195.289 -2037.645)">
    <path id="Rect치ngulo_403287" data-name="Rect치ngulo 403287" d="M22.285,0h0A22.285,22.285,0,0,1,44.569,22.285V64a0,0,0,0,1,0,0H0a0,0,0,0,1,0,0V22.285A22.285,22.285,0,0,1,22.285,0Z" transform="translate(207.86 2043.358)" fill="#ffd839"/>
    <g id="Enmascarar_grupo_1098839" data-name="Enmascarar grupo 1098839" clip-path="url(#clip-path)">
      <g id="pasador-de-ubicacion" transform="translate(195.289 2037.645)">
        <path id="Trazado_987471" data-name="Trazado 987471" d="M69.36,63.857,61.929,49.833a2.9,2.9,0,0,0-2.6-1.56H44.9c6.267-7.9,12.358-16.74,12.358-24.335a22.4,22.4,0,0,0-44.8,0c0,7.587,6.094,16.434,12.364,24.335H10.382a2.894,2.894,0,0,0-2.6,1.563L.357,63.853a2.873,2.873,0,0,0,.076,2.9,2.892,2.892,0,0,0,2.521,1.419H66.761a2.939,2.939,0,0,0,2.6-4.316ZM59.332,50.452a.727.727,0,0,1,.674.4l1.369,2.584H40.7c.8-.973,1.619-1.971,2.445-2.989ZM34.857,3.716A20.245,20.245,0,0,1,55.079,23.938c0,8.578-9.352,19.96-16.181,28.271-1.454,1.769-2.84,3.456-4.041,4.994-1.2-1.537-2.584-3.222-4.036-4.99C23.989,43.9,14.632,32.505,14.632,23.938A20.246,20.246,0,0,1,34.857,3.716ZM10.382,50.452h7.942l-1,2.989H8.339l1.37-2.586a.721.721,0,0,1,.673-.4ZM2.3,65.627a.714.714,0,0,1-.017-.75l2.311-4.361H14.955l-1.833,5.478H2.953a.727.727,0,0,1-.657-.367Zm13.122.368L17.5,59.773a1.089,1.089,0,0,0-1.033-1.435H5.744l1.441-2.719H18.108a1.089,1.089,0,0,0,1.033-.744l1.48-4.424h5.945c.87,1.072,1.732,2.122,2.571,3.144,1.67,2.033,3.249,3.955,4.544,5.648a1.334,1.334,0,0,0,1.175.694h0a1.335,1.335,0,0,0,1.175-.694c.856-1.119,1.838-2.34,2.886-3.625H62.53l1.441,2.719H39.951a1.089,1.089,0,0,0-.749,1.88l6.1,5.777H38.98L26.753,54.414a1.089,1.089,0,0,0-1.782.445L21.245,65.995H15.418Zm20.394,0H23.542L26.5,57.17Zm31.6-.367a.718.718,0,0,1-.653.367H48.47l-5.785-5.478H65.125l2.31,4.36A.72.72,0,0,1,67.414,65.627ZM48.62,23.938A13.763,13.763,0,1,0,34.857,37.7,13.778,13.778,0,0,0,48.62,23.938Zm-25.347,0A11.585,11.585,0,1,1,34.857,35.526,11.6,11.6,0,0,1,23.273,23.938Z"/>
        <path id="Trazado_987472" data-name="Trazado 987472" d="M17.352,58.791a1.089,1.089,0,0,1,.149.982l-2.082,6.222h5.827L24.971,54.86a1.089,1.089,0,0,1,1.782-.445L38.98,65.995H45.3l-6.1-5.777a1.089,1.089,0,0,1,.749-1.88H63.971L62.53,55.619H38.919c-1.048,1.285-2.03,2.505-2.886,3.625a1.334,1.334,0,0,1-1.175.694h0a1.334,1.334,0,0,1-1.175-.694c-1.3-1.693-2.874-3.615-4.544-5.648-.839-1.022-1.7-2.072-2.571-3.144H20.621l-1.48,4.424a1.089,1.089,0,0,1-1.033.744H7.184L5.744,58.338H16.468a1.09,1.09,0,0,1,.884.453Z" fill="#95c7f8"/>
        <path id="Trazado_987473" data-name="Trazado 987473" d="M46.442,23.938A11.585,11.585,0,1,0,34.857,35.526,11.6,11.6,0,0,0,46.442,23.938Z" fill="#f9f6f9"/>
        <path id="Trazado_987474" data-name="Trazado 987474" d="M40.7,53.441H61.376l-1.369-2.584a.727.727,0,0,0-.674-.4H43.149c-.826,1.018-1.646,2.016-2.445,2.989Z" fill="#ade4a4"/>
        <path id="Trazado_987475" data-name="Trazado 987475" d="M34.857,57.2c1.2-1.538,2.587-3.224,4.041-4.994C45.726,43.9,55.079,32.516,55.079,23.938a20.223,20.223,0,0,0-40.447,0c0,8.568,9.357,19.958,16.189,28.275,1.452,1.768,2.837,3.453,4.036,4.99ZM21.094,23.938A13.763,13.763,0,1,1,34.857,37.7,13.778,13.778,0,0,1,21.094,23.938Z" fill="#fe646f"/>
        <g id="Grupo_1103387" data-name="Grupo 1103387">
          <path id="Trazado_987476" data-name="Trazado 987476" d="M18.324,50.452H10.382a.722.722,0,0,0-.673.4l-1.37,2.586h8.985Z" fill="#ade4a4"/>
          <path id="Trazado_987477" data-name="Trazado 987477" d="M23.542,65.995H35.813L26.495,57.17Z" fill="#ade4a4"/>
          <path id="Trazado_987478" data-name="Trazado 987478" d="M48.47,65.995H66.761a.761.761,0,0,0,.674-1.118l-2.31-4.36H42.685Z" fill="#ade4a4"/>
          <path id="Trazado_987479" data-name="Trazado 987479" d="M2.953,65.995H13.121l1.834-5.478H4.59L2.279,64.877a.714.714,0,0,0,.017.75.727.727,0,0,0,.657.367Z" fill="#ade4a4"/>
        </g>
      </g>
    </g>
    <path id="Trazado_952692" data-name="Trazado 952692" d="M30.3,147.506s-.193,4.741-3.985,5.192c0,0,4.07,1.215,4.519,5.206,0,0,1.018-4.837,3.753-5.233,0,0-3.171-.634-4.287-5.166" transform="translate(173.269 1893.657)" fill="#6b0b0c"/>
    <path id="Trazado_952694" data-name="Trazado 952694" d="M69.991,81.707s-.293,7.226-6.073,7.913c0,0,6.2,1.853,6.888,7.935,0,0,1.55-7.371,5.72-7.975,0,0-4.834-.966-6.534-7.873" transform="translate(188.475 1985.726)" fill="#6b0b0c"/>
  </g>
</svg>
