<svg id="Grupo_1103299" data-name="Grupo 1103299" xmlns="http://www.w3.org/2000/svg" xmlns:xlink="http://www.w3.org/1999/xlink" width="57.921" height="69.711" viewBox="0 0 57.921 69.711">
  <defs>
    <clipPath id="clip-path">
      <rect id="Rect치ngulo_403288" data-name="Rect치ngulo 403288" width="57.921" height="69.711" fill="#fff" stroke="#707070" stroke-width="1"/>
    </clipPath>
    <clipPath id="clip-path-2">
      <path id="path6969" d="M0-57.921H57.921V0H0Z"/>
    </clipPath>
  </defs>
  <path id="Rect치ngulo_403287" data-name="Rect치ngulo 403287" d="M18.516,0h0A18.516,18.516,0,0,1,37.032,18.516V64a0,0,0,0,1,0,0H0a0,0,0,0,1,0,0V18.516A18.516,18.516,0,0,1,18.516,0Z" transform="translate(10.445 5.714)" fill="#ffd839"/>
  <g id="Enmascarar_grupo_1098843" data-name="Enmascarar grupo 1098843" clip-path="url(#clip-path)">
    <g id="g6963" transform="translate(0 63.816)">
      <g id="g6965">
        <g id="g6967" clip-path="url(#clip-path-2)">
          <g id="g6973" transform="translate(22.286 -33.261)">
            <path id="path6975" d="M0,0H-18.779a2.376,2.376,0,0,1-2.376-2.376V-21.155a2.376,2.376,0,0,1,2.376-2.376H0a2.376,2.376,0,0,1,2.376,2.376V-2.376A2.376,2.376,0,0,1,0,0" fill="#ff5d5d"/>
          </g>
          <g id="g6977" transform="translate(51.247 -33.261)">
            <path id="path6979" d="M0,0H-18.779a2.376,2.376,0,0,1-2.376-2.376V-21.155a2.376,2.376,0,0,1,2.376-2.376H0a2.376,2.376,0,0,1,2.376,2.376V-2.376A2.376,2.376,0,0,1,0,0" fill="#72d8ff"/>
          </g>
          <g id="g6981" transform="translate(54.095 -26.084)">
            <path id="path6983" d="M0,0A2.693,2.693,0,0,0-2.3,1.286l-.4-.153V.709a2.7,2.7,0,0,0-2.695-2.7A2.7,2.7,0,0,0-8.078.525h-.014A2.7,2.7,0,0,0-10.78-1.986a2.7,2.7,0,0,0-2.695,2.7V-10.725a2.7,2.7,0,0,0-2.7-2.695,2.7,2.7,0,0,0-2.7,2.695V6.836l0,0V3.9l-4.091,6a5.461,5.461,0,0,0-.433,5.4l4.528,9.652H-.074L1.507,19.91a25.924,25.924,0,0,0,1.188-7.757V2.7A2.7,2.7,0,0,0,0,0" fill="#feda9b"/>
          </g>
          <g id="g6985" transform="translate(40.62 -25.375)">
            <path id="path6987" d="M0,0A2.7,2.7,0,0,1,2.7-2.7h0A2.7,2.7,0,0,1,5.39,0V5.275" fill="none" stroke="#000" stroke-linecap="round" stroke-linejoin="round" stroke-miterlimit="10" stroke-width="2.263"/>
          </g>
          <g id="g6989" transform="translate(46.01 -24.412)">
            <path id="path6991" d="M0,0V-.963A2.7,2.7,0,0,1,2.7-3.658h0A2.7,2.7,0,0,1,5.39-.963V.313" fill="none" stroke="#000" stroke-linecap="round" stroke-linejoin="round" stroke-miterlimit="10" stroke-width="2.263"/>
          </g>
          <g id="g6993" transform="translate(35.23 -16.381)">
            <path id="path6995" d="M0,0V-20.429a2.7,2.7,0,0,1,2.7-2.7h0a2.7,2.7,0,0,1,2.695,2.7v16.71" fill="none" stroke="#000" stroke-linecap="round" stroke-linejoin="round" stroke-miterlimit="10" stroke-width="2.263"/>
          </g>
          <g id="g6997" transform="translate(35.23 -1.133)">
            <path id="path6999" d="M0,0-4.528-9.652a5.462,5.462,0,0,1,.433-5.4l4.091-6" fill="none" stroke="#000" stroke-linecap="round" stroke-linejoin="round" stroke-miterlimit="10" stroke-width="2.263"/>
          </g>
          <g id="g7001" transform="translate(51.4 -20.1)">
            <path id="path7003" d="M0,0V-3.289a2.7,2.7,0,0,1,2.7-2.7h0a2.7,2.7,0,0,1,2.695,2.7V6.168A25.925,25.925,0,0,1,4.2,13.925L2.621,18.967" fill="none" stroke="#000" stroke-linecap="round" stroke-linejoin="round" stroke-miterlimit="10" stroke-width="2.263"/>
          </g>
          <g id="g7005" transform="translate(8.371 -33.261)">
            <path id="path7007" d="M0,0H-4.864A2.376,2.376,0,0,1-7.24-2.376V-21.155a2.376,2.376,0,0,1,2.376-2.376H13.915a2.376,2.376,0,0,1,2.376,2.376V-2.376A2.376,2.376,0,0,1,13.915,0H9.05" fill="none" stroke="#000" stroke-linecap="round" stroke-linejoin="round" stroke-miterlimit="10" stroke-width="2.263"/>
          </g>
          <g id="g7009" transform="translate(53.622 -40.502)">
            <path id="path7011" d="M0,0V4.864A2.376,2.376,0,0,1-2.376,7.24h-9.39" fill="none" stroke="#000" stroke-linecap="round" stroke-linejoin="round" stroke-miterlimit="10" stroke-width="2.263"/>
          </g>
          <g id="g7013" transform="translate(34.787 -33.261)">
            <path id="path7015" d="M0,0H-2.319A2.376,2.376,0,0,1-4.695-2.376V-21.155a2.376,2.376,0,0,1,2.376-2.376H16.46a2.376,2.376,0,0,1,2.376,2.376v4.864" fill="none" stroke="#000" stroke-linecap="round" stroke-linejoin="round" stroke-miterlimit="10" stroke-width="2.263"/>
          </g>
          <g id="g7017" transform="translate(8.924 -49)">
            <path id="path7019" d="M0,0,7.946,7.946" fill="none" stroke="#000" stroke-linecap="round" stroke-linejoin="round" stroke-miterlimit="10" stroke-width="2.263"/>
          </g>
          <g id="g7021" transform="translate(16.87 -49)">
            <path id="path7023" d="M0,0-7.946,7.946" fill="none" stroke="#000" stroke-linecap="round" stroke-linejoin="round" stroke-miterlimit="10" stroke-width="2.263"/>
          </g>
          <g id="g7025" transform="translate(47.684 -49.742)">
            <path id="path7027" d="M0,0-6.438,6.438-9.6,3.271" fill="none" stroke="#000" stroke-linecap="round" stroke-linejoin="round" stroke-miterlimit="10" stroke-width="2.263"/>
          </g>
          <g id="g7029" transform="translate(12.897 -33.261)">
            <path id="path7031" d="M0,0H0" fill="none" stroke="#000" stroke-linecap="round" stroke-linejoin="round" stroke-miterlimit="10" stroke-width="2.263"/>
          </g>
          <g id="g7033" transform="translate(53.622 -45.027)">
            <path id="path7035" d="M0,0H0" fill="none" stroke="#000" stroke-linecap="round" stroke-linejoin="round" stroke-miterlimit="10" stroke-width="2.263"/>
          </g>
        </g>
      </g>
    </g>
  </g>
  <path id="Trazado_952694" data-name="Trazado 952694" d="M68.964,81.707s-.244,7.226-5.046,7.913a9.415,9.415,0,0,1,5.723,7.935s1.288-7.371,4.752-7.975c0,0-4.016-.966-5.429-7.873" transform="translate(-58.71 -32.364)" fill="#6b0b0c"/>
</svg>
