<svg xmlns="http://www.w3.org/2000/svg" xmlns:xlink="http://www.w3.org/1999/xlink" width="36" height="36" viewBox="0 0 36 36">
  <defs>
    <clipPath id="clip-path">
      <rect id="Rectángulo_403861" data-name="Rectángulo 403861" width="36" height="36" transform="translate(281.711 2497.5)" fill="#6b0b0c" stroke="#586c16" stroke-width="1"/>
    </clipPath>
  </defs>
  <g id="Enmascarar_grupo_1098830" data-name="Enmascarar grupo 1098830" transform="translate(-281.711 -2497.5)" clip-path="url(#clip-path)">
    <path id="cacao_6_" data-name="cacao (6)" d="M21.4,2.515a20.371,20.371,0,0,0-5.113.695C6.7,6.4-.6,20.77,3.22,28.757c.358,1.506-.029,3.764.946,4.635,1.139.991,3.638-.807,4.809-1.024a13.84,13.84,0,0,0,8.271-3.479c2.812,3.385,6.79,6.288,10.772,6.539a2.76,2.76,0,0,1,1.021.179c1.324.459,3.068,1.554,4.12,1.094,1.208-.525.975-2.942,1.108-3.916a3.784,3.784,0,0,1,.227-1.162C37.6,24.751,32.666,13.839,25.932,8.8A22.932,22.932,0,0,0,24.32,4.312c1.069-2.643,1.227-1.948-.242-2.913C22.545.472,23.21.505,21.4,2.515Zm4.385,12.257A23.66,23.66,0,0,1,23.8,20.5l2.153,3.493a.367.367,0,0,1-.626.385L23.4,21.261a27,27,0,0,1-3.088,4.578,45.741,45.741,0,0,0,8.14,8.876c1.341.162,2.705,1.233,4.08,1.365-3.131-5.155-3.227-4.889-2.771-5.254.487-.209.607.439.919.848l2.478,4.021c.5-1.278.157-2.988.615-4.258-1.7-6.93-4.389-12.45-7.987-16.664Zm-5.97,11.642a23.327,23.327,0,0,1-2.012,2c2.546,3.063,5.956,5.607,9.4,6.185a45.779,45.779,0,0,1-7.385-8.186ZM22.034,4.057C13.1,8.023,6.9,15.907,3.846,28.314c.459,1.274.115,2.975.615,4.258,3.2-5.114,2.917-5.08,3.448-4.837.406.341-.119.74-.345,1.2L5.086,32.957c1.367-.129,2.74-1.2,4.08-1.365,9.71-8.3,13.968-17.383,13.493-27.15L12.3,21.254a.367.367,0,0,1-.626-.386Zm1.348.13c.547,9.8-3.525,18.932-12.964,27.29,8.432-1.56,15.73-13.251,14.952-21.4a17.217,17.217,0,0,0-1.988-5.891ZM26.087,9.86a15.751,15.751,0,0,1-.133,3.983c3.685,4.147,6.473,9.586,8.282,16.425C36.2,23.824,31.9,14.592,26.087,9.86Zm.286,16.22,1.145,1.857a.367.367,0,1,0,.626-.385L27,25.694a.367.367,0,0,0-.626.385ZM21.516,3.253a18.958,18.958,0,0,0-5.136.695C7.783,6.881,1,19.535,3.386,27.146,6.61,14.956,12.941,7.212,21.937,3.3a4,4,0,0,0-.422-.043ZM10.623,22.572,9.478,24.43a.367.367,0,0,0,.626.386l1.145-1.857a.367.367,0,1,0-.626-.386ZM22.279,2.618a2.7,2.7,0,0,1,1.556.959l.495-1.16-1.237-.762Z" transform="translate(280.896 2496.688)" fill="#6b0b0c" fill-rule="evenodd"/>
  </g>
</svg>
