<svg xmlns="http://www.w3.org/2000/svg" xmlns:xlink="http://www.w3.org/1999/xlink" width="83" height="83" viewBox="0 0 83 83">
  <defs>
    <clipPath id="clip-path">
      <rect id="Rectángulo_403288" data-name="Rectángulo 403288" width="83" height="83" transform="translate(646.711 1506.375)" fill="#6b0b0c" stroke="#6b0b0c" stroke-width="1"/>
    </clipPath>
  </defs>
  <g id="Grupo_1103307" data-name="Grupo 1103307" transform="translate(-646.711 -1506.375)">
    <g id="Enmascarar_grupo_1098820" data-name="Enmascarar grupo 1098820" clip-path="url(#clip-path)">
      <path id="control-de-calidad_1_" data-name="control-de-calidad (1)" d="M20.423,68.528H13.554a1.339,1.339,0,0,0-1.339,1.339v6.868a1.339,1.339,0,0,0,1.339,1.339h6.869a1.339,1.339,0,0,0,1.339-1.339V69.867a1.339,1.339,0,0,0-1.339-1.339ZM19.084,75.4H14.893V71.206h4.191Zm6.923-.818H53.039a1.339,1.339,0,1,1,0,2.677H26.007a1.339,1.339,0,1,1,0-2.677Zm3.942-46.766A10.238,10.238,0,1,0,19.712,17.575,10.249,10.249,0,0,0,29.949,27.813Zm0-17.8a7.56,7.56,0,1,1-7.56,7.56,7.569,7.569,0,0,1,7.56-7.56ZM27,21.611l-2.8-2.8a1.339,1.339,0,0,1,1.893-1.893l1.9,1.9,5.865-5.322a1.339,1.339,0,0,1,1.8,1.983l-6.809,6.179A1.338,1.338,0,0,1,27,21.611ZM79.9,76.789l-8-7.764a2.661,2.661,0,0,0-2.825-.566l-3-2.907a15.889,15.889,0,0,0-4.457-21.128V22.366a2.7,2.7,0,0,0-.805-1.944L52.9,12.5a2.7,2.7,0,0,0-1.944-.806H44.018a6.505,6.505,0,0,1-1.147-1.216,8.062,8.062,0,0,1-.55-1.909c-.062-.271-.131-.573-.21-.912A4.486,4.486,0,0,0,37.963,4.18c-.348-.019-.657-.035-.935-.049a8.077,8.077,0,0,1-1.975-.21A8.075,8.075,0,0,1,33.4,2.812c-.222-.168-.469-.355-.747-.563a4.485,4.485,0,0,0-5.415,0c-.279.209-.526.4-.747.564a8.083,8.083,0,0,1-1.648,1.109,8.064,8.064,0,0,1-1.975.21c-.278.014-.588.029-.935.049a4.487,4.487,0,0,0-4.148,3.481c-.079.339-.148.641-.21.912a8.07,8.07,0,0,1-.55,1.909A6.5,6.5,0,0,1,15.881,11.7H7.717a2.752,2.752,0,0,0-2.749,2.749V81.59a2.752,2.752,0,0,0,2.749,2.749h51.16a2.752,2.752,0,0,0,2.749-2.749V70.371c.058-.041.114-.083.172-.125l2.857,2.772a2.672,2.672,0,0,0-.156.935,2.645,2.645,0,0,0,.807,1.871l8,7.764a2.667,2.667,0,0,0,3.766-.057l2.889-2.977a2.668,2.668,0,0,0-.057-3.767ZM67.04,70.212l-.7.716-2.519-2.445q.348-.358.674-.737ZM65.659,57.4A13.231,13.231,0,1,1,52.428,44.166,13.246,13.246,0,0,1,65.659,57.4Zm-8.6-36.954H52.879V16.268ZM16.8,14.5c.25-.234.473-.442.674-.628,1.987-1.844,2.114-2.063,2.717-4.706.061-.267.129-.564.207-.9a1.806,1.806,0,0,1,1.69-1.418c.342-.019.646-.034.92-.048,2.707-.135,2.946-.222,5.107-1.859.218-.165.461-.349.735-.554a1.805,1.805,0,0,1,2.206,0c.274.2.517.389.735.554,2.161,1.637,2.4,1.724,5.107,1.859.273.014.578.029.92.048A1.805,1.805,0,0,1,39.5,8.271c.078.333.146.63.207.9.6,2.643.73,2.863,2.717,4.706.2.186.424.393.674.628a1.805,1.805,0,0,1,.383,2.173c-.154.306-.294.577-.419.82-1.237,2.412-1.281,2.662-.944,5.352.034.271.072.574.113.913a1.8,1.8,0,0,1-1.1,1.911c-.315.135-.6.253-.847.359-2.5,1.053-2.693,1.216-4.163,3.493-.149.23-.314.486-.5.773a1.805,1.805,0,0,1-2.073.755c-.328-.1-.619-.189-.88-.27a9.5,9.5,0,0,0-2.717-.6,9.5,9.5,0,0,0-2.717.6c-.261.081-.553.171-.88.27a1.805,1.805,0,0,1-2.073-.755c-.187-.286-.353-.543-.5-.773-1.47-2.277-1.665-2.44-4.163-3.493-.252-.106-.533-.225-.847-.359a1.805,1.805,0,0,1-1.1-1.911c.041-.34.079-.642.113-.914.338-2.69.293-2.94-.944-5.352-.125-.243-.264-.515-.418-.82A1.806,1.806,0,0,1,16.8,14.5ZM39.54,29.371a1.779,1.779,0,0,1,.2-.143l2.168,5.034-2.657-.544a1.339,1.339,0,0,0-1.406.606l-1.43,2.3L35.15,33.686a4.5,4.5,0,0,0,2.712-1.923c.191-.292.359-.552.51-.786A8.051,8.051,0,0,1,39.54,29.371Zm-18.764.476c.194.266.428.628.752,1.129.151.234.319.494.51.786a4.481,4.481,0,0,0,3.5,2.038l-2.069,4.445L22.1,35.9a1.339,1.339,0,0,0-1.388-.646l-2.671.467ZM58.948,81.589a.075.075,0,0,1-.072.072H7.717a.075.075,0,0,1-.072-.072V14.447a.075.075,0,0,1,.072-.072h6.061a4.493,4.493,0,0,0,.247,3.508c.157.311.3.586.425.834a8.072,8.072,0,0,1,.806,1.815,8.075,8.075,0,0,1-.136,1.981c-.035.276-.073.584-.115.929a4.486,4.486,0,0,0,2.708,4.69c.278.119.529.225.759.322l-3.939,8.461A1.339,1.339,0,0,0,15.976,38.8l4.279-.748,2.182,3.755a1.339,1.339,0,0,0,1.157.666h.061a1.338,1.338,0,0,0,1.153-.772l4-8.6a4.367,4.367,0,0,1,1.136-.237,8.076,8.076,0,0,1,1.928.478l.24.074,2.855,6.628a1.339,1.339,0,0,0,1.13.805c.033,0,.067,0,.1,0a1.339,1.339,0,0,0,1.137-.633l2.29-3.691,4.255.872a1.339,1.339,0,0,0,1.5-1.841l-3.2-7.425h0a4.486,4.486,0,0,0,2.708-4.69c-.041-.345-.08-.653-.114-.929a8.06,8.06,0,0,1-.136-1.982,8.073,8.073,0,0,1,.805-1.815c.127-.248.268-.524.426-.834a4.492,4.492,0,0,0,.247-3.508H50.2v6.7a2.046,2.046,0,0,0,2.044,2.044h6.7V42.887a15.887,15.887,0,0,0-14.308.643H26.007a1.339,1.339,0,1,0,0,2.677H41.132a16.033,16.033,0,0,0-2.059,2.555H26.007a1.339,1.339,0,1,0,0,2.677H37.678a15.8,15.8,0,0,0-1.129,5H26.007a1.339,1.339,0,1,0,0,2.677H36.612a15.79,15.79,0,0,0,.491,2.555h-11.1a1.339,1.339,0,0,0,0,2.677H38.12a16,16,0,0,0,3.817,5H26.007a1.339,1.339,0,1,0,0,2.677H46.173a15.9,15.9,0,0,0,12.775-.116Zm16.212.068-7.981-7.744,2.869-2.957L78.029,78.7ZM40.627,57.4a11.8,11.8,0,1,0,11.8-11.8A11.814,11.814,0,0,0,40.627,57.4Zm20.924,0a9.123,9.123,0,1,1-9.123-9.123A9.134,9.134,0,0,1,61.551,57.4Zm-39.5-13.429a1.339,1.339,0,0,1-.092,1.891l-5.766,5.233a1.339,1.339,0,0,1-1.846-.045l-2.374-2.374a1.339,1.339,0,0,1,1.893-1.893l1.472,1.472,4.822-4.376a1.339,1.339,0,0,1,1.891.092Zm0,12.908a1.339,1.339,0,0,1-.092,1.891L16.192,64a1.339,1.339,0,0,1-1.846-.045l-2.374-2.374a1.339,1.339,0,1,1,1.893-1.893l1.472,1.472,4.822-4.376a1.339,1.339,0,0,1,1.891.092Z" transform="translate(645.372 1505.035)" fill="#6b0b0c"/>
    </g>
    <path id="Trazado_952692" data-name="Trazado 952692" d="M31.064,147.506s-.229,5.645-4.744,6.182c0,0,4.846,1.447,5.381,6.2,0,0,1.212-5.758,4.468-6.23,0,0-3.776-.755-5.1-6.15" transform="translate(684.381 1363.918)" fill="#6b0b0c"/>
  </g>
</svg>
