<svg xmlns="http://www.w3.org/2000/svg" xmlns:xlink="http://www.w3.org/1999/xlink" width="60.387" height="77.635" viewBox="0 0 60.387 77.635">
  <defs>
    <clipPath id="clip-path">
      <rect id="Rect치ngulo_403288" data-name="Rect치ngulo 403288" width="57.921" height="69.711" fill="#fff" stroke="#707070" stroke-width="1"/>
    </clipPath>
    <clipPath id="clip-path-2">
      <path id="path9582" d="M0-57.921H57.921V0H0Z"/>
    </clipPath>
  </defs>
  <g id="Grupo_1103300" data-name="Grupo 1103300" transform="translate(2.466)">
    <path id="Rect치ngulo_403287" data-name="Rect치ngulo 403287" d="M18.516,0h0A18.516,18.516,0,0,1,37.032,18.516V64a0,0,0,0,1,0,0H0a0,0,0,0,1,0,0V18.516A18.516,18.516,0,0,1,18.516,0Z" transform="translate(10.445 5.714)" fill="#ffd839"/>
    <g id="Enmascarar_grupo_1098844" data-name="Enmascarar grupo 1098844" clip-path="url(#clip-path)">
      <g id="g9576" transform="translate(0 63.816)">
        <g id="g9578">
          <g id="g9580" clip-path="url(#clip-path-2)">
            <g id="g9586" transform="translate(47.702 -17.716)">
              <path id="path9588" d="M0,0V-37.483a1.874,1.874,0,0,0-1.874-1.874h-31.86a1.874,1.874,0,0,0-1.874,1.874v1.874L-5.622,0Z" fill="#e6ecf2"/>
            </g>
            <g id="g9590" transform="translate(43.954 -2.723)">
              <path id="path9592" d="M0,0H-35.609a1.874,1.874,0,0,1-1.874-1.874V-48.728A1.874,1.874,0,0,1-35.609-50.6h24.364l2.811,8.641L0-39.357Z" fill="#fff5f5"/>
            </g>
            <g id="g9594" transform="translate(30.867 -12.093)">
              <path id="path9596" d="M0,0H-18.806a.9.9,0,0,1-.905-.905V-2.843a.905.905,0,0,1,.905-.905H0a.9.9,0,0,1,.905.905V-.905A.9.9,0,0,1,0,0" fill="#607882"/>
            </g>
            <g id="g9598" transform="translate(30.867 -19.59)">
              <path id="path9600" d="M0,0H-18.806a.9.9,0,0,1-.905-.905V-2.843a.9.9,0,0,1,.905-.905H0a.9.9,0,0,1,.905.905V-.905A.9.9,0,0,1,0,0" fill="#607882"/>
            </g>
            <g id="g9602" transform="translate(30.867 -27.087)">
              <path id="path9604" d="M0,0H-18.806a.9.9,0,0,1-.905-.905V-2.843a.9.9,0,0,1,.905-.905H0a.9.9,0,0,1,.905.905V-.905A.9.9,0,0,1,0,0" fill="#607882"/>
            </g>
            <g id="g9606" transform="translate(30.867 -34.583)">
              <path id="path9608" d="M0,0H-18.806a.9.9,0,0,1-.905-.905V-2.843a.9.9,0,0,1,.905-.905H0a.9.9,0,0,1,.905.905V-.905A.9.9,0,0,1,0,0" fill="#607882"/>
            </g>
            <g id="g9610" transform="translate(38.363 -34.583)">
              <path id="path9612" d="M0,0H-1.938a.9.9,0,0,1-.905-.905V-2.843a.9.9,0,0,1,.905-.905H0a.9.9,0,0,1,.905.905V-.905A.9.9,0,0,1,0,0" fill="#c4e83b"/>
            </g>
            <g id="g9614" transform="translate(17.748 -45.828)">
              <path id="path9616" d="M0,0H-5.687a.905.905,0,0,1-.905-.905V-2.843a.905.905,0,0,1,.905-.905H0a.905.905,0,0,1,.905.905V-.905A.905.905,0,0,1,0,0" fill="#afddf8"/>
            </g>
            <g id="g9618" transform="translate(38.363 -27.087)">
              <path id="path9620" d="M0,0H-1.938a.9.9,0,0,1-.905-.905V-2.843a.9.9,0,0,1,.905-.905H0a.9.9,0,0,1,.905.905V-.905A.9.9,0,0,1,0,0" fill="#c4e83b"/>
            </g>
            <g id="g9622" transform="translate(38.363 -19.59)">
              <path id="path9624" d="M0,0H-1.938a.9.9,0,0,1-.905-.905V-2.843a.9.9,0,0,1,.905-.905H0a.9.9,0,0,1,.905.905V-.905A.9.9,0,0,1,0,0" fill="#c4e83b"/>
            </g>
            <g id="g9626" transform="translate(45.828 -57.073)">
              <path id="path9628" d="M0,0H-2.6A1.874,1.874,0,0,1-.728,1.874V39.357h2.6V1.874A1.874,1.874,0,0,0,0,0" fill="#b9c9d9"/>
            </g>
            <g id="g9630" transform="translate(43.954 -42.08)">
              <path id="path9632" d="M0,0H-9.371a1.874,1.874,0,0,1-1.874-1.874v-9.371Z" fill="#b9c9d9"/>
            </g>
            <g id="g9634" transform="translate(17.748 -49.576)">
              <path id="path9636" d="M0,0H-2.6A.905.905,0,0,1-1.7.905V2.843a.905.905,0,0,1-.905.905H0a.905.905,0,0,0,.905-.905V.905A.905.905,0,0,0,0,0" fill="#8cbbfb"/>
            </g>
            <g id="g9638" transform="translate(30.867 -15.842)">
              <path id="path9640" d="M0,0H-2.6A.9.9,0,0,1-1.7.905V2.843a.9.9,0,0,1-.905.905H0a.9.9,0,0,0,.905-.905V.905A.9.9,0,0,0,0,0" fill="#495959"/>
            </g>
            <g id="g9642" transform="translate(30.867 -23.338)">
              <path id="path9644" d="M0,0H-2.6A.9.9,0,0,1-1.7.905V2.843a.9.9,0,0,1-.905.905H0a.9.9,0,0,0,.905-.905V.905A.9.9,0,0,0,0,0" fill="#495959"/>
            </g>
            <g id="g9646" transform="translate(30.867 -30.835)">
              <path id="path9648" d="M0,0H-2.6A.9.9,0,0,1-1.7.905V2.843a.9.9,0,0,1-.905.905H0a.9.9,0,0,0,.905-.905V.905A.9.9,0,0,0,0,0" fill="#495959"/>
            </g>
            <g id="g9650" transform="translate(30.867 -38.331)">
              <path id="path9652" d="M0,0H-2.6A.9.9,0,0,1-1.7.905V2.843a.9.9,0,0,1-.905.905H0a.9.9,0,0,0,.905-.905V.905A.9.9,0,0,0,0,0" fill="#495959"/>
            </g>
            <g id="g9654" transform="translate(38.363 -38.331)">
              <path id="path9656" d="M0,0H-1.938A.9.9,0,0,0-2.27.064.9.9,0,0,1-1.7.905V2.843a.9.9,0,0,1-.573.841.9.9,0,0,0,.332.064H0a.9.9,0,0,0,.905-.905V.905A.9.9,0,0,0,0,0" fill="#9edb2c"/>
            </g>
            <g id="g9658" transform="translate(38.363 -30.835)">
              <path id="path9660" d="M0,0H-1.938A.9.9,0,0,0-2.27.064.9.9,0,0,1-1.7.905V2.843a.9.9,0,0,1-.573.841.9.9,0,0,0,.332.064H0a.9.9,0,0,0,.905-.905V.905A.9.9,0,0,0,0,0" fill="#9edb2c"/>
            </g>
            <g id="g9662" transform="translate(38.363 -23.338)">
              <path id="path9664" d="M0,0H-1.938A.9.9,0,0,0-2.27.064.9.9,0,0,1-1.7.905V2.843a.9.9,0,0,1-.573.841.9.9,0,0,0,.332.064H0a.9.9,0,0,0,.905-.905V.905A.9.9,0,0,0,0,0" fill="#9edb2c"/>
            </g>
            <g id="g9666" transform="translate(42.08 -19.59)">
              <path id="path9668" d="M0,0A9.371,9.371,0,0,1,9.371,9.371,9.371,9.371,0,0,1,0,18.742,9.371,9.371,0,0,1-9.371,9.371,9.371,9.371,0,0,1,0,0" fill="#c4e83b"/>
            </g>
            <g id="g9670" transform="translate(40.821 -6.122)">
              <path id="path9672" d="M0,0-4.03-3.416a.937.937,0,0,1-.086-1.348l1.292-1.413a.937.937,0,0,1,1.263-.111L.032-5.026a.469.469,0,0,0,.595-.02L4.072-8.071a.937.937,0,0,1,1.317.079l1.251,1.4a.937.937,0,0,1-.078,1.326L.613-.007A.469.469,0,0,1,0,0" fill="#fff5f5"/>
            </g>
            <g id="g9674" transform="translate(42.08 -19.59)">
              <path id="path9676" d="M0,0A9.436,9.436,0,0,0-1.3.092a9.371,9.371,0,0,1,8.07,9.279A9.371,9.371,0,0,1-1.3,18.65a9.436,9.436,0,0,0,1.3.092A9.371,9.371,0,0,0,9.371,9.371,9.371,9.371,0,0,0,0,0" fill="#9edb2c"/>
            </g>
            <g id="g9678" transform="translate(40.821 -6.122)">
              <path id="path9680" d="M0,0-4.03-3.416a.937.937,0,0,1-.086-1.348l1.292-1.413a.937.937,0,0,1,1.263-.111L.032-5.026a.469.469,0,0,0,.595-.02L4.072-8.071a.937.937,0,0,1,1.317.079l1.251,1.4a.937.937,0,0,1-.078,1.326L.613-.007A.469.469,0,0,1,0,0Z" fill="none" stroke="#000" stroke-linecap="round" stroke-linejoin="round" stroke-miterlimit="10" stroke-width="1.697"/>
            </g>
            <g id="g9682" transform="translate(42.08 -19.59)">
              <path id="path9684" d="M0,0A9.371,9.371,0,0,1,9.371,9.371,9.371,9.371,0,0,1,0,18.742,9.371,9.371,0,0,1-9.371,9.371,9.371,9.371,0,0,1,0,0Z" fill="none" stroke="#000" stroke-linecap="round" stroke-linejoin="round" stroke-miterlimit="10" stroke-width="1.697"/>
            </g>
            <g id="g9686" transform="translate(47.702 -17.716)">
              <path id="path9688" d="M0,0V-37.483a1.874,1.874,0,0,0-1.874-1.874h-31.86a1.874,1.874,0,0,0-1.874,1.874v1.874" fill="none" stroke="#000" stroke-linecap="round" stroke-linejoin="round" stroke-miterlimit="10" stroke-width="1.697"/>
            </g>
            <g id="g9690" transform="translate(6.471 -44.377)">
              <path id="path9692" d="M0,0V-7.073A1.874,1.874,0,0,1,1.874-8.947H26.238" fill="none" stroke="#000" stroke-linecap="round" stroke-linejoin="round" stroke-miterlimit="10" stroke-width="1.697"/>
            </g>
            <g id="g9694" transform="translate(36.46 -2.723)">
              <path id="path9696" d="M0,0H-28.114a1.874,1.874,0,0,1-1.874-1.874V-37.7" fill="none" stroke="#000" stroke-linecap="round" stroke-linejoin="round" stroke-miterlimit="10" stroke-width="1.697"/>
            </g>
            <g id="g9698" transform="translate(43.954 -42.08)">
              <path id="path9700" d="M0,0V22.677" fill="none" stroke="#000" stroke-linecap="round" stroke-linejoin="round" stroke-miterlimit="10" stroke-width="1.697"/>
            </g>
            <g id="g9702" transform="translate(43.954 -42.08)">
              <path id="path9704" d="M0,0H-9.371a1.874,1.874,0,0,1-1.874-1.874v-9.371Z" fill="none" stroke="#000" stroke-linecap="round" stroke-linejoin="round" stroke-miterlimit="10" stroke-width="1.697"/>
            </g>
            <g id="g9706" transform="translate(13.967 -12.093)">
              <path id="path9708" d="M0,0H-1.906a.9.9,0,0,1-.905-.905V-2.843a.905.905,0,0,1,.905-.905H16.9a.9.9,0,0,1,.905.905V-.905A.9.9,0,0,1,16.9,0H3.959" fill="none" stroke="#000" stroke-linecap="round" stroke-linejoin="round" stroke-miterlimit="10" stroke-width="1.697"/>
            </g>
            <g id="g9710" transform="translate(30.867 -19.59)">
              <path id="path9712" d="M0,0H-18.806a.9.9,0,0,1-.905-.905V-2.843a.9.9,0,0,1,.905-.905H0a.9.9,0,0,1,.905.905V-.905A.9.9,0,0,1,0,0Z" fill="none" stroke="#000" stroke-linecap="round" stroke-linejoin="round" stroke-miterlimit="10" stroke-width="1.697"/>
            </g>
            <g id="g9714" transform="translate(30.867 -27.087)">
              <path id="path9716" d="M0,0H-18.806a.9.9,0,0,1-.905-.905V-2.843a.9.9,0,0,1,.905-.905H0a.9.9,0,0,1,.905.905V-.905A.9.9,0,0,1,0,0Z" fill="none" stroke="#000" stroke-linecap="round" stroke-linejoin="round" stroke-miterlimit="10" stroke-width="1.697"/>
            </g>
            <g id="g9718" transform="translate(30.867 -34.583)">
              <path id="path9720" d="M0,0H-18.806a.9.9,0,0,1-.905-.905V-2.843a.9.9,0,0,1,.905-.905H0a.9.9,0,0,1,.905.905V-.905A.9.9,0,0,1,0,0Z" fill="none" stroke="#000" stroke-linecap="round" stroke-linejoin="round" stroke-miterlimit="10" stroke-width="1.697"/>
            </g>
            <g id="g9722" transform="translate(38.363 -34.583)">
              <path id="path9724" d="M0,0H-1.938a.9.9,0,0,1-.905-.905V-2.843a.9.9,0,0,1,.905-.905H0a.9.9,0,0,1,.905.905V-.905A.9.9,0,0,1,0,0Z" fill="none" stroke="#000" stroke-linecap="round" stroke-linejoin="round" stroke-miterlimit="10" stroke-width="1.697"/>
            </g>
            <g id="g9726" transform="translate(17.748 -45.828)">
              <path id="path9728" d="M0,0H-5.687a.905.905,0,0,1-.905-.905V-2.843a.905.905,0,0,1,.905-.905H0a.905.905,0,0,1,.905.905V-.905A.905.905,0,0,1,0,0Z" fill="none" stroke="#000" stroke-linecap="round" stroke-linejoin="round" stroke-miterlimit="10" stroke-width="1.697"/>
            </g>
            <g id="g9730" transform="translate(38.363 -27.087)">
              <path id="path9732" d="M0,0H-1.938a.9.9,0,0,1-.905-.905V-2.843a.9.9,0,0,1,.905-.905H0a.9.9,0,0,1,.905.905V-.905A.9.9,0,0,1,0,0Z" fill="none" stroke="#000" stroke-linecap="round" stroke-linejoin="round" stroke-miterlimit="10" stroke-width="1.697"/>
            </g>
            <g id="g9734" transform="translate(38.363 -19.59)">
              <path id="path9736" d="M0,0H-1.938a.9.9,0,0,1-.905-.905V-2.843a.9.9,0,0,1,.905-.905H0a.9.9,0,0,1,.905.905V-.905A.9.9,0,0,1,0,0Z" fill="none" stroke="#000" stroke-linecap="round" stroke-linejoin="round" stroke-miterlimit="10" stroke-width="1.697"/>
            </g>
          </g>
        </g>
      </g>
    </g>
    <path id="Trazado_952692" data-name="Trazado 952692" d="M29.631,147.506s-.16,4.741-3.311,5.192a6.177,6.177,0,0,1,3.755,5.206s.846-4.837,3.118-5.233c0,0-2.635-.634-3.562-5.166" transform="translate(-28.786 -147.506)" fill="#6b0b0c"/>
    <path id="Trazado_952694" data-name="Trazado 952694" d="M68.964,81.707s-.244,7.226-5.046,7.913a9.415,9.415,0,0,1,5.723,7.935s1.288-7.371,4.752-7.975c0,0-4.016-.966-5.429-7.873" transform="translate(-39.511 -19.92)" fill="#6b0b0c"/>
  </g>
</svg>
