<svg xmlns="http://www.w3.org/2000/svg" xmlns:xlink="http://www.w3.org/1999/xlink" width="69.711" height="69.711" viewBox="0 0 69.711 69.711">
  <defs>
    <clipPath id="clip-path">
      <rect id="Rect치ngulo_403288" data-name="Rect치ngulo 403288" width="69.711" height="69.711" transform="translate(195.289 2037.645)" fill="#fff" stroke="#707070" stroke-width="1"/>
    </clipPath>
  </defs>
  <g id="Grupo_1103297" data-name="Grupo 1103297" transform="translate(-195.289 -2037.645)">
    <path id="Rect치ngulo_403287" data-name="Rect치ngulo 403287" d="M22.285,0h0A22.285,22.285,0,0,1,44.569,22.285V64a0,0,0,0,1,0,0H0a0,0,0,0,1,0,0V22.285A22.285,22.285,0,0,1,22.285,0Z" transform="translate(207.86 2043.358)" fill="#ffd839"/>
    <g id="Enmascarar_grupo_1098841" data-name="Enmascarar grupo 1098841" clip-path="url(#clip-path)">
      <g id="estacion" transform="translate(190.319 2032.683)">
        <g id="Grupo_1103400" data-name="Grupo 1103400">
          <path id="Trazado_987501" data-name="Trazado 987501" d="M16.179,68.45v4.978H11.2V68.45" fill="#777"/>
          <path id="Trazado_987502" data-name="Trazado 987502" d="M68.45,68.45v4.978H63.472V68.45" fill="#777"/>
          <path id="Trazado_987503" data-name="Trazado 987503" d="M18.668,27.38h4.978V65.961H18.668Z" fill="#777"/>
        </g>
        <path id="Trazado_987504" data-name="Trazado 987504" d="M8.712,63.472H70.939V68.45H8.712Z" fill="#5ba0d8"/>
        <circle id="Elipse_11667" data-name="Elipse 11667" cx="12.445" cy="12.445" r="12.445" transform="translate(8.712 6.223)" fill="#c8e2ed"/>
        <path id="Trazado_987505" data-name="Trazado 987505" d="M21.157,6.223a12.694,12.694,0,0,0-2.489.249,12.445,12.445,0,0,1,0,24.393,12.7,12.7,0,0,0,2.489.249,12.445,12.445,0,1,0,0-24.891Z" fill="#afcddd"/>
        <path id="Trazado_987506" data-name="Trazado 987506" d="M23.646,23.646h8.911a12.445,12.445,0,0,1-22.8,0Z" fill="#c6c6c6"/>
        <circle id="Elipse_11668" data-name="Elipse 11668" cx="2.489" cy="2.489" r="2.489" transform="translate(18.668 21.157)" fill="#7dd37d"/>
        <path id="Trazado_987507" data-name="Trazado 987507" d="M48.537,46.048H68.45V63.472H48.537Z" fill="#a37652"/>
        <path id="Trazado_987508" data-name="Trazado 987508" d="M28.625,46.048H48.537V63.472H28.625Z" fill="#b78558"/>
        <path id="Trazado_987509" data-name="Trazado 987509" d="M38.581,28.625H58.494V46.048H38.581Z" fill="#bf8c5e"/>
        <path id="Trazado_987510" data-name="Trazado 987510" d="M54.76,28.625v11.2a2.489,2.489,0,0,1-2.489,2.489H38.581v3.734H58.494V28.625Z" fill="#b7855c"/>
        <path id="Trazado_987511" data-name="Trazado 987511" d="M51.027,28.625v7.467H46.048V28.625" fill="#e9ebeb"/>
        <path id="Trazado_987512" data-name="Trazado 987512" d="M44.8,46.048v11.2a2.489,2.489,0,0,1-2.489,2.489H28.625v3.734H48.537V46.048Z" fill="#ad7c53"/>
        <path id="Trazado_987513" data-name="Trazado 987513" d="M41.07,46.048v7.467H36.092V46.048" fill="#e9ebeb"/>
        <path id="Trazado_987514" data-name="Trazado 987514" d="M64.717,46.048v11.2a2.489,2.489,0,0,1-2.489,2.489H48.537v3.734H68.45V46.048Z" fill="#93684c"/>
        <path id="Trazado_987515" data-name="Trazado 987515" d="M60.983,46.048v7.467H56V46.048" fill="#e9ebeb"/>
        <path id="Trazado_987516" data-name="Trazado 987516" d="M8.712,62.227a1.245,1.245,0,0,0-1.245,1.245V68.45a1.245,1.245,0,0,0,1.245,1.245H9.956v3.734A1.245,1.245,0,0,0,11.2,74.673h4.978a1.245,1.245,0,0,0,1.245-1.245V69.695h44.8v3.734a1.245,1.245,0,0,0,1.245,1.245H68.45a1.245,1.245,0,0,0,1.245-1.245V69.695h1.245a1.245,1.245,0,0,0,1.245-1.245V63.472a1.245,1.245,0,0,0-1.245-1.245H69.695V46.048A1.245,1.245,0,0,0,68.45,44.8H59.738V28.625a1.245,1.245,0,0,0-1.245-1.245H38.581a1.245,1.245,0,0,0-1.245,1.245V44.8H28.625a1.245,1.245,0,0,0-1.245,1.245V62.227H24.891v-30.4a13.69,13.69,0,1,0-7.467,0v30.4Zm6.223,9.956H12.445V69.695h2.489Zm52.271,0H64.717V69.695h2.489Zm2.489-4.978H9.956V64.717H69.695Zm-2.489-4.978H49.782V47.293H54.76v6.223A1.245,1.245,0,0,0,56,54.76h4.978a1.245,1.245,0,0,0,1.245-1.245V47.293h4.978ZM57.249,47.293h2.489v4.978H57.249ZM47.293,29.869h2.489v4.978H47.293Zm-7.467,0H44.8v6.223a1.245,1.245,0,0,0,1.245,1.245h4.978a1.245,1.245,0,0,0,1.245-1.245V29.869h4.978V44.8H39.826ZM37.336,47.293h2.489v4.978H37.336Zm-7.467,0h4.978v6.223a1.245,1.245,0,0,0,1.245,1.245H41.07a1.245,1.245,0,0,0,1.245-1.245V47.293h4.978V62.227H29.869ZM24.667,22.4A3.734,3.734,0,0,0,22.4,20.137v-5.2H19.913v5.2A3.734,3.734,0,0,0,17.648,22.4H10.616a11.2,11.2,0,0,1-.585-2.489h2.414V17.424H10.031a11.064,11.064,0,0,1,2.414-5.737l1.693,1.705,1.767-1.767-1.73-1.668a11.2,11.2,0,0,1,5.737-2.414V9.956H22.4V7.542a11.2,11.2,0,0,1,5.737,2.414l-1.705,1.668L28.2,13.391l1.668-1.705a11.064,11.064,0,0,1,2.414,5.737H29.869v2.489h2.414A11.2,11.2,0,0,1,31.7,22.4ZM22.4,23.646A1.245,1.245,0,1,1,21.157,22.4,1.245,1.245,0,0,1,22.4,23.646ZM11.848,24.891h5.8a3.734,3.734,0,0,0,7.019,0h5.8a11.2,11.2,0,0,1-18.668,0Zm8.065,7.467c.411,0,.821.062,1.245.062a8.257,8.257,0,0,0,1.245-.062V62.227H19.913Z"/>
      </g>
    </g>
    <path id="Trazado_952692" data-name="Trazado 952692" d="M30.3,147.506s-.193,4.741-3.985,5.192c0,0,4.07,1.215,4.519,5.206,0,0,1.018-4.837,3.753-5.233,0,0-3.171-.634-4.287-5.166" transform="translate(199.688 1890.653)" fill="#6b0b0c"/>
    <path id="Trazado_952694" data-name="Trazado 952694" d="M69.991,81.707s-.293,7.226-6.073,7.913c0,0,6.2,1.853,6.888,7.935,0,0,1.55-7.371,5.72-7.975,0,0-4.834-.966-6.534-7.873" transform="translate(188.475 1972.28)" fill="#6b0b0c"/>
  </g>
</svg>
