<svg xmlns="http://www.w3.org/2000/svg" xmlns:xlink="http://www.w3.org/1999/xlink" width="122" height="124.84" viewBox="0 0 122 124.84">
  <defs>
    <clipPath id="clip-path">
      <rect id="Rect치ngulo_403288" data-name="Rect치ngulo 403288" width="122" height="122" transform="translate(387.711 1671.626)" fill="#fff" stroke="#707070" stroke-width="1"/>
    </clipPath>
  </defs>
  <g id="Grupo_1103336" data-name="Grupo 1103336" transform="translate(-387.711 -1671.626)">
    <path id="Rect치ngulo_403287" data-name="Rect치ngulo 403287" d="M39,0h0A39,39,0,0,1,78,39v73a0,0,0,0,1,0,0H0a0,0,0,0,1,0,0V39A39,39,0,0,1,39,0Z" transform="translate(409.711 1681.626)" fill="#ffd839"/>
    <g id="Enmascarar_grupo_1098827" data-name="Enmascarar grupo 1098827" clip-path="url(#clip-path)">
      <g id="trazabilidad" transform="translate(384.759 1669.658)">
        <path id="Trazado_987042" data-name="Trazado 987042" d="M13.774,23.613V11.806H5.9V47.226H41.323V23.613H37.387l-5.9-7.871v7.871H27.548l-5.9-7.871v7.871Z" fill="#7d97b3"/>
        <path id="Trazado_987043" data-name="Trazado 987043" d="M90.516,90.516H122V122H90.516Z" fill="#f5c07b"/>
        <path id="Trazado_987044" data-name="Trazado 987044" d="M102.323,90.516h7.871v11.806h-7.871Z" fill="#f9e1bb"/>
        <g id="Grupo_1103353" data-name="Grupo 1103353">
          <path id="Trazado_987045" data-name="Trazado 987045" d="M43.29,47.226V23.613a1.968,1.968,0,0,0-1.968-1.968H38.371l-5.313-7.084a1.968,1.968,0,0,0-3.542,1.181v5.9h-.984l-5.313-7.084a1.968,1.968,0,0,0-3.542,1.181v5.9H15.742V11.806a1.968,1.968,0,0,0-1.968-1.968H5.9a1.968,1.968,0,0,0-1.968,1.968V47.226A1.968,1.968,0,0,0,5.9,49.194H41.323A1.968,1.968,0,0,0,43.29,47.226Zm-3.935-1.968H7.871V13.774h3.935v9.839a1.968,1.968,0,0,0,1.968,1.968h7.871a1.968,1.968,0,0,0,1.968-1.968V21.645l2.361,3.148a1.968,1.968,0,0,0,1.574.787h3.935a1.968,1.968,0,0,0,1.968-1.968V21.645l2.361,3.148a1.968,1.968,0,0,0,1.574.787h1.968Z"/>
          <path id="Trazado_987046" data-name="Trazado 987046" d="M7.871,7.871h3.935A1.968,1.968,0,0,1,13.774,5.9h9.839V1.968H13.774a5.9,5.9,0,0,0-5.9,5.9Z"/>
          <path id="Trazado_987047" data-name="Trazado 987047" d="M122,88.548H90.516a1.968,1.968,0,0,0-1.968,1.968V122a1.968,1.968,0,0,0,1.968,1.968H122A1.968,1.968,0,0,0,123.968,122V90.516A1.968,1.968,0,0,0,122,88.548Zm-17.71,3.935h3.935v7.871H104.29Zm15.742,27.548H92.484V92.484h7.871v9.839a1.968,1.968,0,0,0,1.968,1.968h7.871a1.968,1.968,0,0,0,1.968-1.968V92.484h7.871Z"/>
          <path id="Trazado_987048" data-name="Trazado 987048" d="M29.516,87.565A16.745,16.745,0,0,1,46.242,70.839H80.677a19.677,19.677,0,1,0,0-39.355H57.4l4.723-3.308-2.255-3.223L50.034,31.84a1.968,1.968,0,0,0,0,3.223l9.839,6.887,2.255-3.223L57.4,35.419H80.677a15.742,15.742,0,0,1,0,31.484H46.242a20.661,20.661,0,1,0,0,41.323H74.774V104.29H46.242A16.745,16.745,0,0,1,29.516,87.565Z"/>
          <path id="Trazado_987049" data-name="Trazado 987049" d="M78.71,104.29h3.935v3.935H78.71Z" fill="#404040"/>
        </g>
      </g>
    </g>
    <path id="Trazado_952692" data-name="Trazado 952692" d="M33.294,147.506s-.337,8.3-6.974,9.087c0,0,7.122,2.127,7.909,9.111,0,0,1.781-8.464,6.568-9.158,0,0-5.55-1.11-7.5-9.04" transform="translate(443.77 1530.922)" fill="#6b0b0c"/>
    <path id="Trazado_952694" data-name="Trazado 952694" d="M74.547,81.707s-.513,12.647-10.629,13.849c0,0,10.856,3.243,12.054,13.887,0,0,2.714-12.9,10.01-13.957,0,0-8.459-1.691-11.435-13.778" transform="translate(329.914 1687.023)" fill="#6b0b0c"/>
  </g>
</svg>
