<svg xmlns="http://www.w3.org/2000/svg" xmlns:xlink="http://www.w3.org/1999/xlink" width="92.849" height="91.951" viewBox="0 0 92.849 91.951">
  <defs>
    <clipPath id="clip-path">
      <rect id="Rectángulo_403288" data-name="Rectángulo 403288" width="83" height="83" transform="translate(646.711 1506.375)" fill="#fff" stroke="#6b0b0c" stroke-width="1"/>
    </clipPath>
    <clipPath id="clip-path-2">
      <path id="path4833" d="M0-83H83V0H0Z"/>
    </clipPath>
  </defs>
  <g id="Grupo_1103308" data-name="Grupo 1103308" transform="translate(-636.862 -1497.424)">
    <g id="Enmascarar_grupo_1098821" data-name="Enmascarar grupo 1098821" clip-path="url(#clip-path)">
      <g id="g4827" transform="translate(646.711 1589.375)">
        <g id="g4829">
          <g id="g4831" clip-path="url(#clip-path-2)">
            <g id="g4837" transform="translate(28.873 -6.251)">
              <path id="path4839" d="M0,0H52.911V-5.037H-27.657V0H-5.3" fill="none" stroke="#6b0b0c" stroke-linecap="round" stroke-linejoin="round" stroke-miterlimit="10" stroke-width="2.432"/>
            </g>
            <path id="path4841" d="M16.322-1.216H6.252V-6.252H16.322Z" fill="none" stroke="#6b0b0c" stroke-linecap="round" stroke-linejoin="round" stroke-miterlimit="10" stroke-width="2.432"/>
            <path id="path4843" d="M76.748-1.216H66.678V-6.252H76.748Z" fill="none" stroke="#6b0b0c" stroke-linecap="round" stroke-linejoin="round" stroke-miterlimit="10" stroke-width="2.432"/>
          </g>
        </g>
        <path id="path4845" d="M41.5-11.287H16.188V-36.6H41.5Z" fill="none" stroke="#6b0b0c" stroke-linecap="round" stroke-linejoin="round" stroke-miterlimit="10" stroke-width="2.432"/>
        <g id="g4847" transform="translate(31.464 -29.613)">
          <path id="path4849" d="M0,0-2.569-1.352-5.239,0V-6.986H0Z" fill="none" stroke="#6b0b0c" stroke-linecap="round" stroke-linejoin="round" stroke-miterlimit="10" stroke-width="2.432"/>
        </g>
        <g id="g4851" transform="translate(31.464 -16.323)">
          <path id="path4853" d="M0,0H4.934" fill="none" stroke="#6b0b0c" stroke-linecap="round" stroke-linejoin="round" stroke-miterlimit="10" stroke-width="2.432"/>
        </g>
        <path id="path4855" d="M66.812-11.287H41.5V-36.6H66.812Z" fill="none" stroke="#6b0b0c" stroke-linecap="round" stroke-linejoin="round" stroke-miterlimit="10" stroke-width="2.432"/>
        <g id="g4857" transform="translate(56.775 -29.613)">
          <path id="path4859" d="M0,0-2.569-1.352-5.239,0V-6.986H0Z" fill="none" stroke="#6b0b0c" stroke-linecap="round" stroke-linejoin="round" stroke-miterlimit="10" stroke-width="2.432"/>
        </g>
        <g id="g4861" transform="translate(56.775 -16.323)">
          <path id="path4863" d="M0,0H4.934" fill="none" stroke="#6b0b0c" stroke-linecap="round" stroke-linejoin="round" stroke-miterlimit="10" stroke-width="2.432"/>
        </g>
        <path id="path4865" d="M41.5-51.543H16.188V-76.854H41.5Z" fill="none" stroke="#6b0b0c" stroke-linecap="round" stroke-linejoin="round" stroke-miterlimit="10" stroke-width="2.432"/>
        <g id="g4867" transform="translate(31.464 -69.869)">
          <path id="path4869" d="M0,0-2.569-1.352-5.239,0V-6.986H0Z" fill="none" stroke="#6b0b0c" stroke-linecap="round" stroke-linejoin="round" stroke-miterlimit="10" stroke-width="2.432"/>
        </g>
        <g id="g4871" transform="translate(31.464 -56.578)">
          <path id="path4873" d="M0,0H4.934" fill="none" stroke="#6b0b0c" stroke-linecap="round" stroke-linejoin="round" stroke-miterlimit="10" stroke-width="2.432"/>
        </g>
        <path id="path4875" d="M66.812-51.543H41.5V-76.854H66.812Z" fill="none" stroke="#6b0b0c" stroke-linecap="round" stroke-linejoin="round" stroke-miterlimit="10" stroke-width="2.432"/>
        <g id="g4877" transform="translate(56.775 -69.869)">
          <path id="path4879" d="M0,0-2.569-1.352-5.239,0V-6.986H0Z" fill="none" stroke="#6b0b0c" stroke-linecap="round" stroke-linejoin="round" stroke-miterlimit="10" stroke-width="2.432"/>
        </g>
        <g id="g4881" transform="translate(56.775 -56.578)">
          <path id="path4883" d="M0,0H4.934" fill="none" stroke="#6b0b0c" stroke-linecap="round" stroke-linejoin="round" stroke-miterlimit="10" stroke-width="2.432"/>
        </g>
        <g id="g4885">
          <g id="g4887" clip-path="url(#clip-path-2)">
            <path id="path4893" d="M11.287-11.287H6.252v-70.5h5.035Z" fill="none" stroke="#6b0b0c" stroke-linecap="round" stroke-linejoin="round" stroke-miterlimit="10" stroke-width="2.432"/>
            <g id="g4895" transform="translate(76.749 -64.028)">
              <path id="path4897" d="M0,0V52.741H-5.037V-17.73H0V-5.3" fill="none" stroke="#6b0b0c" stroke-linecap="round" stroke-linejoin="round" stroke-miterlimit="10" stroke-width="2.432"/>
            </g>
          </g>
        </g>
        <g id="g4899" transform="translate(44.334 -46.507)">
          <path id="path4901" d="M0,0H27.379V-5.035H-33.046V0H-5.3" fill="none" stroke="#6b0b0c" stroke-linecap="round" stroke-linejoin="round" stroke-miterlimit="10" stroke-width="2.432"/>
        </g>
      </g>
    </g>
    <path id="Trazado_952692" data-name="Trazado 952692" d="M31.064,147.506s-.229,5.645-4.744,6.182c0,0,4.846,1.447,5.381,6.2,0,0,1.212-5.758,4.468-6.23,0,0-3.776-.755-5.1-6.15" transform="translate(610.542 1349.918)" fill="#6b0b0c"/>
  </g>
</svg>
