<svg id="Grupo_1103298" data-name="Grupo 1103298" xmlns="http://www.w3.org/2000/svg" xmlns:xlink="http://www.w3.org/1999/xlink" width="57.921" height="77.635" viewBox="0 0 57.921 77.635">
  <defs>
    <clipPath id="clip-path">
      <rect id="Rect치ngulo_403288" data-name="Rect치ngulo 403288" width="57.921" height="69.711" fill="#fff" stroke="#707070" stroke-width="1"/>
    </clipPath>
  </defs>
  <path id="Rect치ngulo_403287" data-name="Rect치ngulo 403287" d="M18.516,0h0A18.516,18.516,0,0,1,37.032,18.516V64a0,0,0,0,1,0,0H0a0,0,0,0,1,0,0V18.516A18.516,18.516,0,0,1,18.516,0Z" transform="translate(10.445 5.714)" fill="#ffd839"/>
  <g id="Enmascarar_grupo_1098842" data-name="Enmascarar grupo 1098842" clip-path="url(#clip-path)">
    <g id="_14-data_marketing" data-name="14-data marketing" transform="translate(0 5.895)">
      <circle id="Elipse_11669" data-name="Elipse 11669" cx="1.81" cy="1.81" r="1.81" transform="translate(50.681 9.955)" fill="#ffeccf"/>
      <circle id="Elipse_11670" data-name="Elipse 11670" cx="1.81" cy="1.81" r="1.81" transform="translate(44.346 9.955)" fill="#ffeccf"/>
      <circle id="Elipse_11671" data-name="Elipse 11671" cx="1.81" cy="1.81" r="1.81" transform="translate(38.011 9.955)" fill="#ffeccf"/>
      <path id="Trazado_987517" data-name="Trazado 987517" d="M22.626,29.866l1.81,3.62h-3.62Z" fill="#96ebe6"/>
      <path id="Trazado_987518" data-name="Trazado 987518" d="M35.3,27.151l1.81,3.62h-3.62Z" fill="#96ebe6"/>
      <path id="Trazado_987519" data-name="Trazado 987519" d="M32.581,14.48h-1.81V39.821h-3.62V14.48h-1.81l3.62-3.62Z" fill="#96ebe6"/>
      <path id="Trazado_987520" data-name="Trazado 987520" d="M28.961,10.86l-.905.905,2.715,2.715h1.81Z" fill="#00c8c8"/>
      <path id="Trazado_987521" data-name="Trazado 987521" d="M28.961,19.123v20.7h1.81V14.48h-1.81Z" fill="#00c8c8"/>
      <path id="Trazado_987522" data-name="Trazado 987522" d="M30.771,39.821h7.014a10.866,10.866,0,0,1-17.648,0Z" fill="#a37862"/>
      <path id="Trazado_987523" data-name="Trazado 987523" d="M27.151,22.779V39.821H20.137a10.86,10.86,0,0,1,7.014-17.042ZM24.436,33.486l-1.81-3.62-1.81,3.62Z" fill="#80dbff"/>
      <path id="Trazado_987524" data-name="Trazado 987524" d="M39.821,33.486a10.776,10.776,0,0,1-2.036,6.335H30.771V22.779a10.851,10.851,0,0,1,9.05,10.706Zm-2.715-2.715-1.81-3.62-1.81,3.62Z" fill="#80dbff"/>
      <path id="Trazado_987525" data-name="Trazado 987525" d="M18.1,33.486a10.994,10.994,0,0,0,.154,1.824,10.852,10.852,0,0,1,8.9-8.91v-3.62A10.851,10.851,0,0,0,18.1,33.486Z" fill="#19cffc"/>
      <path id="Trazado_987526" data-name="Trazado 987526" d="M35.3,27.151l.962,1.924a10.815,10.815,0,0,1,3.409,6.235,11,11,0,0,0,.154-1.824,10.851,10.851,0,0,0-9.05-10.706V26.4a10.791,10.791,0,0,1,4.1,1.6Z" fill="#19cffc"/>
      <path id="Trazado_987527" data-name="Trazado 987527" d="M20.815,21.521a14.354,14.354,0,0,1,6.335-2.4v3.656a10.86,10.86,0,1,0,3.62,0V19.123A14.48,14.48,0,0,1,40.065,42.78a15.539,15.539,0,0,1-1.81,1.81A14.48,14.48,0,0,1,19.177,22.816a14.1,14.1,0,0,1,1.638-1.294Z" fill="#c1c1c1"/>
      <path id="Trazado_987528" data-name="Trazado 987528" d="M43.441,46.156l-1.81,1.81L38.255,44.59a15.54,15.54,0,0,0,1.81-1.81Z" fill="#6e6e6e"/>
      <path id="Trazado_987529" data-name="Trazado 987529" d="M46.156,47.061l-3.62,3.62-1.81-1.81.905-.905,1.81-1.81.905-.905Z" fill="#cfcfcf"/>
      <path id="Trazado_987530" data-name="Trazado 987530" d="M52.491,53.4l-3.62,3.62-5.43-5.43-.905-.905,3.62-3.62.905.905Z" fill="#a37862"/>
      <path id="Trazado_987531" data-name="Trazado 987531" d="M19.005,51.586v5.43H.905v-9.05H7.24l3.62-3.62v3.62h8.145Z" fill="#e3b79d"/>
      <path id="Trazado_987532" data-name="Trazado 987532" d="M4.525,50.681,7.24,47.966H.905v2.715Z" fill="#cfa388"/>
      <path id="Trazado_987533" data-name="Trazado 987533" d="M10.86,47.966v-3.62L8.145,47.061a3.62,3.62,0,0,0,3.62,3.62H16.29v6.335h2.715v-9.05Z" fill="#cfa388"/>
      <path id="Trazado_987534" data-name="Trazado 987534" d="M57.016,27.151v10.86H53.4l-3.62,3.62v-3.62H47.061V27.151Z" fill="#e3b79d"/>
      <path id="Trazado_987535" data-name="Trazado 987535" d="M48.871,36.2v-9.05h-1.81v10.86h2.715v3.62l1.81-1.81v-.905A2.715,2.715,0,0,0,48.871,36.2Z" fill="#cfa388"/>
      <path id="Trazado_987536" data-name="Trazado 987536" d="M55.206,36.2l-1.81,1.81h3.62V36.2Z" fill="#cfa388"/>
      <path id="Trazado_987537" data-name="Trazado 987537" d="M57.016,6.335V17.2H50.681l-3.62,3.62V17.2H35.3V6.335ZM54.3,11.765a1.81,1.81,0,1,0-1.81,1.81,1.81,1.81,0,0,0,1.81-1.81Zm-6.335,0a1.81,1.81,0,1,0-1.81,1.81,1.81,1.81,0,0,0,1.81-1.81Zm-6.335,0a1.81,1.81,0,1,0-1.81,1.81,1.81,1.81,0,0,0,1.81-1.81Z" fill="#ffc170"/>
      <path id="Trazado_987538" data-name="Trazado 987538" d="M37.106,15.385V6.335H35.3V17.2H47.061v3.62l1.81-1.81a3.62,3.62,0,0,0-3.62-3.62Z" fill="#ffac5a"/>
      <path id="Trazado_987539" data-name="Trazado 987539" d="M52.491,15.385l-1.81,1.81h6.335v-1.81Z" fill="#ffac5a"/>
      <path id="Trazado_987540" data-name="Trazado 987540" d="M47.061,38.011v9.955l-.905-.905-1.81-1.81-.905.905L40.065,42.78a14.48,14.48,0,0,0-9.295-23.657V14.48H35.3V17.2H47.061Z" fill="#f0f0f0"/>
      <path id="Trazado_987541" data-name="Trazado 987541" d="M47.061.905v5.43H35.3V14.48H32.581l-3.62-3.62-3.62,3.62h1.81v4.643a14.354,14.354,0,0,0-6.335,2.4V11.765H10.86V8.145H18.1V.905Z" fill="#f0f0f0"/>
      <path id="Trazado_987542" data-name="Trazado 987542" d="M43.441,51.586H19.005v-3.62H10.86V22.626h8.145l.172.19A14.48,14.48,0,0,0,38.255,44.59l3.376,3.376-.905.905,1.81,1.81Z" fill="#f0f0f0"/>
      <path id="Trazado_987543" data-name="Trazado 987543" d="M20.815,11.765v9.756a14.1,14.1,0,0,0-1.638,1.294l-.172-.19H10.86v3.62l-3.62-3.62H.905V11.765Z" fill="#80dbff"/>
      <path id="Trazado_987544" data-name="Trazado 987544" d="M9.955,20.815H3.62v-9.05H.905v10.86H7.24l3.62,3.62v-3.62h.905Z" fill="#19cffc"/>
      <path id="Trazado_987545" data-name="Trazado 987545" d="M13.575,20.815v1.81h5.43l.172.19a14.1,14.1,0,0,1,1.638-1.294v-.706Z" fill="#19cffc"/>
      <path id="Trazado_987546" data-name="Trazado 987546" d="M18.1.905v7.24H10.86Z" fill="#9c9c9c"/>
      <path id="Trazado_987547" data-name="Trazado 987547" d="M3.62,14.48H5.43v1.81H3.62Z" fill="#1ea1e3"/>
      <path id="Trazado_987548" data-name="Trazado 987548" d="M7.24,14.48H18.1v1.81H7.24Z" fill="#1ea1e3"/>
      <path id="Trazado_987549" data-name="Trazado 987549" d="M3.62,18.1H18.1v1.81H3.62Z" fill="#1ea1e3"/>
      <path id="Trazado_987550" data-name="Trazado 987550" d="M34.391,30.771H36.2v9.05h-1.81Z" fill="#00c8c8"/>
      <path id="Trazado_987551" data-name="Trazado 987551" d="M21.72,33.486h1.81v6.335H21.72Z" fill="#00c8c8"/>
      <path id="Trazado_987552" data-name="Trazado 987552" d="M20.815,3.62h1.81V5.43h-1.81Z" fill="#848484"/>
      <path id="Trazado_987553" data-name="Trazado 987553" d="M24.436,3.62h8.145V5.43H24.436Z" fill="#848484"/>
      <path id="Trazado_987554" data-name="Trazado 987554" d="M20.815,7.24H32.581V9.05H20.815Z" fill="#848484"/>
      <g id="Grupo_1103401" data-name="Grupo 1103401">
        <path id="Trazado_987555" data-name="Trazado 987555" d="M3.62,51.586H5.43V53.4H3.62Z" fill="#966857"/>
        <path id="Trazado_987556" data-name="Trazado 987556" d="M7.24,51.586h9.05V53.4H7.24Z" fill="#966857"/>
        <path id="Trazado_987557" data-name="Trazado 987557" d="M48.871,29.866H54.3v1.81h-5.43Z" fill="#966857"/>
        <path id="Trazado_987558" data-name="Trazado 987558" d="M48.871,33.486H54.3V35.3h-5.43Z" fill="#966857"/>
      </g>
      <path id="Trazado_987559" data-name="Trazado 987559" d="M9.955,28.056h1.81v14.48H9.955Z"/>
      <path id="Trazado_987560" data-name="Trazado 987560" d="M46.714,21.652a.905.905,0,0,0,.986-.2L51.056,18.1h5.96a.905.905,0,0,0,.905-.905V6.335a.905.905,0,0,0-.905-.905h-9.05V.905A.905.905,0,0,0,47.061,0H18.1a.9.9,0,0,0-.64.265l-7.24,7.24a.905.905,0,0,0-.265.64V10.86H.905A.905.905,0,0,0,0,11.765v10.86a.905.905,0,0,0,.905.905h5.96l3.355,3.355a.905.905,0,0,0,1.545-.64V23.531h5.484A15.369,15.369,0,0,0,38.176,45.794l2.172,2.172-.265.265a.905.905,0,0,0,0,1.28l1.174,1.17H19.91V47.966a.905.905,0,0,0-.905-.905h-7.24V44.346a.905.905,0,0,0-1.545-.64L6.865,47.061H.905A.905.905,0,0,0,0,47.966v9.05a.905.905,0,0,0,.905.905h18.1a.905.905,0,0,0,.905-.905V52.491H43.066l5.165,5.165a.905.905,0,0,0,1.28,0l3.62-3.62a.905.905,0,0,0,0-1.28l-5.165-5.165V38.916h.905v2.715a.905.905,0,0,0,.558.836.893.893,0,0,0,.347.069.9.9,0,0,0,.64-.265l3.355-3.355h3.245a.905.905,0,0,0,.905-.905V27.151a.905.905,0,0,0-.905-.905h-9.05v-3.62h-1.81V45.781l-1.17-1.17a.905.905,0,0,0-1.28,0l-.265.265L41.269,42.7a15.351,15.351,0,0,0-9.593-24.343V15.385h.905a.905.905,0,0,0,.64-1.545L29.6,10.22a.905.905,0,0,0-1.28,0L24.7,13.84a.905.905,0,0,0,.64,1.545h.905v2.976A15.252,15.252,0,0,0,21.72,19.91V11.765a.905.905,0,0,0-.905-.905h-9.05V9.05H18.1a.905.905,0,0,0,.905-.905V1.81H46.156V5.43H35.3a.905.905,0,0,0-.905.905V17.2a.905.905,0,0,0,.905.905h10.86v2.715a.905.905,0,0,0,.558.836ZM18.1,56.111H1.81v-7.24H7.24a.9.9,0,0,0,.64-.265l2.075-2.075v1.435a.905.905,0,0,0,.905.905H18.1ZM56.111,28.056v9.05H53.4a.9.9,0,0,0-.64.265l-2.075,2.075V38.011a.905.905,0,0,0-.905-.905h-1.81v-9.05Zm-7.24,27.681-5.055-5.055,2.34-2.34L51.211,53.4Zm-3.995-8.676-2.34,2.34-.53-.53,2.34-2.34Zm-3.245-.375-2.07-2.069c.181-.173.357-.348.53-.53l2.07,2.069Zm-18.1-7.771V34.391h.905a.905.905,0,0,0,.81-1.31l-1.81-3.62a.943.943,0,0,0-1.62,0l-1.81,3.62a.905.905,0,0,0,.81,1.31h.905v4.525H20.627a9.935,9.935,0,0,1,5.618-15v15ZM22.28,32.581l.346-.691.346.691Zm13.492,8.145a9.9,9.9,0,0,1-13.622,0Zm1.522-1.81H36.2v-7.24h.905a.905.905,0,0,0,.815-1.31l-1.81-3.62a.943.943,0,0,0-1.62,0l-1.81,3.62a.905.905,0,0,0,.805,1.31h.905v7.24H31.676v-15a9.935,9.935,0,0,1,5.618,15Zm-2.344-9.05.346-.691.346.691ZM28.961,12.14l1.492,1.492a.905.905,0,0,0-.587.848V38.916h-1.81V14.48a.905.905,0,0,0-.587-.848Zm-2.715,9.908a11.765,11.765,0,1,0,5.43,0V20.2a13.567,13.567,0,0,1,7.7,22,14.516,14.516,0,0,1-1.7,1.7A13.575,13.575,0,1,1,26.246,20.2Zm-6.335-.984c-.311.227-.613.464-.905.714V21.72H10.86a.905.905,0,0,0-.905.905v1.435L7.88,21.986a.905.905,0,0,0-.64-.265H1.81V12.67h18.1ZM13.045,7.24,17.2,3.09V7.24ZM36.2,16.29V7.24h19.91v9.05h-5.43a.9.9,0,0,0-.64.265l-2.075,2.075V17.2a.905.905,0,0,0-.905-.905Z"/>
      <path id="Trazado_987561" data-name="Trazado 987561" d="M39.821,9.05a2.715,2.715,0,1,0,2.715,2.715A2.715,2.715,0,0,0,39.821,9.05Zm0,3.62a.905.905,0,1,1,.905-.905A.905.905,0,0,1,39.821,12.67Z"/>
      <path id="Trazado_987562" data-name="Trazado 987562" d="M48.871,11.765a2.715,2.715,0,1,0-2.715,2.715A2.715,2.715,0,0,0,48.871,11.765Zm-2.715.905a.905.905,0,1,1,.905-.905A.905.905,0,0,1,46.156,12.67Z"/>
      <path id="Trazado_987563" data-name="Trazado 987563" d="M52.491,14.48a2.715,2.715,0,1,0-2.715-2.715A2.715,2.715,0,0,0,52.491,14.48Zm0-3.62a.905.905,0,1,1-.905.905A.905.905,0,0,1,52.491,10.86Z"/>
      <path id="Trazado_987564" data-name="Trazado 987564" d="M3.62,14.48H5.43v1.81H3.62Z"/>
      <path id="Trazado_987565" data-name="Trazado 987565" d="M7.24,14.48H18.1v1.81H7.24Z"/>
      <path id="Trazado_987566" data-name="Trazado 987566" d="M3.62,18.1H18.1v1.81H3.62Z"/>
      <path id="Trazado_987567" data-name="Trazado 987567" d="M20.815,3.62h1.81V5.43h-1.81Z"/>
      <path id="Trazado_987568" data-name="Trazado 987568" d="M24.436,3.62h8.145V5.43H24.436Z"/>
      <path id="Trazado_987569" data-name="Trazado 987569" d="M20.815,7.24H32.581V9.05H20.815Z"/>
      <path id="Trazado_987570" data-name="Trazado 987570" d="M3.62,51.586H5.43V53.4H3.62Z"/>
      <path id="Trazado_987571" data-name="Trazado 987571" d="M7.24,51.586h9.05V53.4H7.24Z"/>
      <path id="Trazado_987572" data-name="Trazado 987572" d="M48.871,29.866H54.3v1.81h-5.43Z"/>
      <path id="Trazado_987573" data-name="Trazado 987573" d="M48.871,33.486H54.3V35.3h-5.43Z"/>
    </g>
  </g>
  <path id="Trazado_952692" data-name="Trazado 952692" d="M29.631,147.506s-.16,4.741-3.311,5.192a6.177,6.177,0,0,1,3.755,5.206s.846-4.837,3.118-5.233c0,0-2.635-.634-3.562-5.166" transform="translate(-22.747 -146.991)" fill="#6b0b0c"/>
  <path id="Trazado_952694" data-name="Trazado 952694" d="M68.964,81.707s-.244,7.226-5.046,7.913a9.415,9.415,0,0,1,5.723,7.935s1.288-7.371,4.752-7.975c0,0-4.016-.966-5.429-7.873" transform="translate(-30.657 -19.92)" fill="#6b0b0c"/>
</svg>
