<svg xmlns="http://www.w3.org/2000/svg" xmlns:xlink="http://www.w3.org/1999/xlink" width="142.621" height="127.591" viewBox="0 0 142.621 127.591">
  <defs>
    <clipPath id="clip-path">
      <rect id="Rectángulo_403288" data-name="Rectángulo 403288" width="122" height="122" transform="translate(387.711 1671.626)" fill="#fff" stroke="#707070" stroke-width="1"/>
    </clipPath>
  </defs>
  <g id="Grupo_1103334" data-name="Grupo 1103334" transform="translate(-367.089 -1666.035)">
    <path id="Rectángulo_403287" data-name="Rectángulo 403287" d="M39,0h0A39,39,0,0,1,78,39v73a0,0,0,0,1,0,0H0a0,0,0,0,1,0,0V39A39,39,0,0,1,39,0Z" transform="translate(409.711 1681.626)" fill="#ffd839"/>
    <g id="Enmascarar_grupo_1098825" data-name="Enmascarar grupo 1098825" clip-path="url(#clip-path)">
      <g id="capacitacion" transform="translate(385.743 1669.658)">
        <path id="Trazado_986985" data-name="Trazado 986985" d="M3.935,3.935H122V80.677H3.935Z" fill="#939393"/>
        <path id="Trazado_986986" data-name="Trazado 986986" d="M76.915,93.4,55.1,86.581v-6.1a23.4,23.4,0,0,1-19.677,0v6.1L13.6,93.4a13.774,13.774,0,0,0-9.666,13.146V122H86.581V106.545A13.774,13.774,0,0,0,76.916,93.4Z" fill="#f2f2f2"/>
        <path id="Trazado_986987" data-name="Trazado 986987" d="M45.258,15.742A23.613,23.613,0,0,1,68.871,39.355v1.968H21.645V39.355A23.613,23.613,0,0,1,45.258,15.742Z" fill="#f3a845"/>
        <path id="Trazado_986988" data-name="Trazado 986988" d="M15.742,108.226H74.774V122H15.742Z" fill="#f3a845"/>
        <path id="Trazado_986989" data-name="Trazado 986989" d="M15.742,108.226V122H62.968a7.871,7.871,0,0,0,7.871-7.871v-5.9Z" fill="#eecc61"/>
        <g id="Grupo_1103349" data-name="Grupo 1103349">
          <path id="Trazado_986990" data-name="Trazado 986990" d="M45.258,82.645a23.461,23.461,0,0,1-9.834-2.162l0,6.1.059.234a10.081,10.081,0,0,0,19.559,0l.059-.234v-6.1a23.467,23.467,0,0,1-9.839,2.165Z" fill="#fddfb1"/>
          <path id="Trazado_986991" data-name="Trazado 986991" d="M21.645,49.194v9.839a23.613,23.613,0,0,0,47.226,0V49.194Z" fill="#fddfb1"/>
          <path id="Trazado_986992" data-name="Trazado 986992" d="M21.645,59.032V55.1H18.694a4.919,4.919,0,0,0,0,9.839h3.725a23.646,23.646,0,0,1-.773-5.9Z" fill="#fddfb1"/>
          <path id="Trazado_986993" data-name="Trazado 986993" d="M71.823,55.1H68.871v3.935a23.646,23.646,0,0,1-.773,5.9h3.725a4.919,4.919,0,0,0,0-9.839Z" fill="#fddfb1"/>
        </g>
        <path id="Trazado_986994" data-name="Trazado 986994" d="M21.645,49.194v9.839a23.481,23.481,0,0,0,3.184,11.807h28.3A7.871,7.871,0,0,0,61,62.968V49.194Z" fill="#feecd0"/>
        <path id="Trazado_986995" data-name="Trazado 986995" d="M27.548,89.04,19.677,91.5v16.726h7.871Z" fill="#939393"/>
        <path id="Trazado_986996" data-name="Trazado 986996" d="M70.839,91.5l-7.871-2.46v19.185h7.871Z" fill="#939393"/>
        <path id="Trazado_986997" data-name="Trazado 986997" d="M17.71,41.323h55.1v7.871H17.71Z" fill="#474747"/>
        <path id="Trazado_986998" data-name="Trazado 986998" d="M39.355,11.806l1.968,29.516h7.871l1.968-29.516Z" fill="#eecc61"/>
        <rect id="Rectángulo_403857" data-name="Rectángulo 403857" width="25.581" height="9.839" rx="3.935" transform="translate(25.581 112.161)" fill="#fce79c"/>
        <path id="Trazado_986999" data-name="Trazado 986999" d="M17.71,45.258H64.935a3.935,3.935,0,0,0,3.935-3.935H17.71Z" fill="#686868"/>
        <path id="Trazado_987000" data-name="Trazado 987000" d="M82.645,15.742h7.871v7.871H82.645Z" fill="#ccc"/>
        <path id="Trazado_987001" data-name="Trazado 987001" d="M82.645,15.742v5.9h1.968a3.935,3.935,0,0,0,3.935-3.935V15.742Z" fill="#f2f2f2"/>
        <path id="Trazado_987002" data-name="Trazado 987002" d="M82.645,31.484h7.871v7.871H82.645Z" fill="#ccc"/>
        <path id="Trazado_987003" data-name="Trazado 987003" d="M82.645,31.484v5.9h1.968a3.935,3.935,0,0,0,3.935-3.935V31.484Z" fill="#f2f2f2"/>
        <path id="Trazado_987004" data-name="Trazado 987004" d="M82.645,47.226h7.871V55.1H82.645Z" fill="#ccc"/>
        <path id="Trazado_987005" data-name="Trazado 987005" d="M82.645,47.226v5.9h1.968a3.935,3.935,0,0,0,3.935-3.935V47.226Z" fill="#f2f2f2"/>
        <path id="Trazado_987006" data-name="Trazado 987006" d="M82.645,62.968h7.871v7.871H82.645Z" fill="#ccc"/>
        <path id="Trazado_987007" data-name="Trazado 987007" d="M82.645,62.968v5.9h1.968a3.935,3.935,0,0,0,3.935-3.935V62.968Z" fill="#f2f2f2"/>
        <path id="Trazado_987008" data-name="Trazado 987008" d="M77.5,91.522,57.064,85.134V81.7A25.7,25.7,0,0,0,69.587,66.9h2.235a6.887,6.887,0,1,0,0-13.774h-.984V51.161h1.968a1.968,1.968,0,0,0,1.968-1.968V41.323a1.968,1.968,0,0,0-1.968-1.968H70.839a25.553,25.553,0,0,0-17.906-24.39l.2-3.028a1.968,1.968,0,0,0-1.968-2.1H39.355a1.968,1.968,0,0,0-1.968,2.1l.2,3.028a25.553,25.553,0,0,0-17.906,24.39H17.71a1.968,1.968,0,0,0-1.968,1.968v7.871a1.968,1.968,0,0,0,1.968,1.968h1.968v1.968h-.984a6.887,6.887,0,1,0,0,13.774h2.235A25.7,25.7,0,0,0,33.452,81.7v3.432L13.015,91.522A15.671,15.671,0,0,0,1.968,106.545V122a1.968,1.968,0,0,0,1.968,1.968H86.581A1.968,1.968,0,0,0,88.548,122V106.545A15.671,15.671,0,0,0,77.5,91.522ZM34.164,89.034a12.025,12.025,0,0,0,22.188,0L61.1,90.516H61v15.742H29.516V90.516h-.1Zm-8.583,17.224H21.645V92.946l3.935-1.23Zm47.226,3.935v9.839H17.71v-9.839Zm-7.871-3.935V91.716l3.935,1.23v13.312Zm6.887-49.194a2.952,2.952,0,0,1,0,5.9H70.5a25.692,25.692,0,0,0,.335-3.935V57.064ZM59.465,39.355l2.7-13.509A21.624,21.624,0,0,1,66.9,39.355Zm-.63-16.869L55.451,39.355H51.3l1.356-20.343a21.563,21.563,0,0,1,6.183,3.473Zm-9.778-8.711-1.7,25.581H43.162l-1.7-25.581ZM39.219,39.355H35.065L31.69,22.485a21.563,21.563,0,0,1,6.173-3.473ZM28.349,25.846l2.7,13.509H23.613a21.626,21.626,0,0,1,4.738-13.511ZM19.677,43.29H70.839v3.935H19.677Zm-.984,19.677a2.952,2.952,0,0,1,0-5.9h.984v1.968a25.691,25.691,0,0,0,.335,3.935Zm4.919-3.935V51.161H66.9v7.871a21.645,21.645,0,1,1-43.29,0ZM45.258,84.613a25.463,25.463,0,0,0,7.871-1.251v2.977a8.113,8.113,0,0,1-15.742,0V83.361A25.463,25.463,0,0,0,45.258,84.613ZM5.9,106.545a11.757,11.757,0,0,1,8.284-11.269l3.522-1.1v12.082H15.742a1.968,1.968,0,0,0-1.968,1.968v11.806H5.9Zm78.71,13.487H76.742V108.226a1.968,1.968,0,0,0-1.968-1.968H72.806V94.176l3.522,1.1a11.757,11.757,0,0,1,8.284,11.269Z"/>
        <path id="Trazado_987009" data-name="Trazado 987009" d="M33.452,53.129h3.935V61H33.452Z"/>
        <path id="Trazado_987010" data-name="Trazado 987010" d="M53.129,53.129h3.935V61H53.129Z"/>
        <path id="Trazado_987011" data-name="Trazado 987011" d="M55.1,66.9H51.161a5.9,5.9,0,1,1-11.806,0H35.419a9.839,9.839,0,1,0,19.677,0Z"/>
        <path id="Trazado_987012" data-name="Trazado 987012" d="M122,1.968H3.935A1.968,1.968,0,0,0,1.968,3.935V80.677a1.968,1.968,0,0,0,1.968,1.968H25.581V78.71H5.9V5.9H120.032V78.71h-55.1v3.935H122a1.968,1.968,0,0,0,1.968-1.968V3.935A1.968,1.968,0,0,0,122,1.968Z"/>
        <path id="Trazado_987013" data-name="Trazado 987013" d="M82.645,25.581h7.871a1.968,1.968,0,0,0,1.968-1.968V15.742a1.968,1.968,0,0,0-1.968-1.968H82.645a1.968,1.968,0,0,0-1.968,1.968v7.871A1.968,1.968,0,0,0,82.645,25.581Zm1.968-7.871h3.935v3.935H84.613Z"/>
        <path id="Trazado_987014" data-name="Trazado 987014" d="M80.677,39.355a1.968,1.968,0,0,0,1.968,1.968h7.871a1.968,1.968,0,0,0,1.968-1.968V31.484a1.968,1.968,0,0,0-1.968-1.968H82.645a1.968,1.968,0,0,0-1.968,1.968Zm3.935-5.9h3.935v3.935H84.613Z"/>
        <path id="Trazado_987015" data-name="Trazado 987015" d="M80.677,55.1a1.968,1.968,0,0,0,1.968,1.968h7.871A1.968,1.968,0,0,0,92.484,55.1V47.226a1.968,1.968,0,0,0-1.968-1.968H82.645a1.968,1.968,0,0,0-1.968,1.968Zm3.935-5.9h3.935v3.935H84.613Z"/>
        <path id="Trazado_987016" data-name="Trazado 987016" d="M80.677,70.839a1.968,1.968,0,0,0,1.968,1.968h7.871a1.968,1.968,0,0,0,1.968-1.968V62.968A1.968,1.968,0,0,0,90.516,61H82.645a1.968,1.968,0,0,0-1.968,1.968Zm3.935-5.9h3.935v3.935H84.613Z"/>
        <path id="Trazado_987017" data-name="Trazado 987017" d="M96.419,13.774H116.1V17.71H96.419Z"/>
        <path id="Trazado_987018" data-name="Trazado 987018" d="M96.419,21.645h11.806v3.935H96.419Z"/>
        <path id="Trazado_987019" data-name="Trazado 987019" d="M112.161,21.645H116.1v3.935h-3.935Z"/>
        <path id="Trazado_987020" data-name="Trazado 987020" d="M96.419,29.516H116.1v3.935H96.419Z"/>
        <path id="Trazado_987021" data-name="Trazado 987021" d="M96.419,37.387h11.806v3.935H96.419Z"/>
        <path id="Trazado_987022" data-name="Trazado 987022" d="M112.161,37.387H116.1v3.935h-3.935Z"/>
        <path id="Trazado_987023" data-name="Trazado 987023" d="M96.419,45.258H116.1v3.935H96.419Z"/>
        <path id="Trazado_987024" data-name="Trazado 987024" d="M96.419,53.129h11.806v3.935H96.419Z"/>
        <path id="Trazado_987025" data-name="Trazado 987025" d="M112.161,53.129H116.1v3.935h-3.935Z"/>
        <path id="Trazado_987026" data-name="Trazado 987026" d="M96.419,61H116.1v3.935H96.419Z"/>
        <path id="Trazado_987027" data-name="Trazado 987027" d="M96.419,68.871h11.806v3.935H96.419Z"/>
        <path id="Trazado_987028" data-name="Trazado 987028" d="M112.161,68.871H116.1v3.935h-3.935Z"/>
      </g>
    </g>
    <path id="Trazado_952692" data-name="Trazado 952692" d="M33.294,147.506s-.337,8.3-6.974,9.087c0,0,7.122,2.127,7.909,9.111,0,0,1.781-8.464,6.568-9.158,0,0-5.55-1.11-7.5-9.04" transform="translate(340.77 1518.529)" fill="#6b0b0c"/>
    <path id="Trazado_952694" data-name="Trazado 952694" d="M74.547,81.707s-.513,12.647-10.629,13.849c0,0,10.856,3.243,12.054,13.887,0,0,2.714-12.9,10.01-13.957,0,0-8.459-1.691-11.435-13.778" transform="translate(414.914 1678.023)" fill="#6b0b0c"/>
  </g>
</svg>
