<svg xmlns="http://www.w3.org/2000/svg" xmlns:xlink="http://www.w3.org/1999/xlink" width="129.807" height="122" viewBox="0 0 129.807 122">
  <defs>
    <clipPath id="clip-path">
      <rect id="Rect치ngulo_403288" data-name="Rect치ngulo 403288" width="122" height="122" transform="translate(387.711 1671.626)" fill="#fff" stroke="#707070" stroke-width="1"/>
    </clipPath>
  </defs>
  <g id="Grupo_1103333" data-name="Grupo 1103333" transform="translate(-383.09 -1671.626)">
    <path id="Rect치ngulo_403287" data-name="Rect치ngulo 403287" d="M39,0h0A39,39,0,0,1,78,39v73a0,0,0,0,1,0,0H0a0,0,0,0,1,0,0V39A39,39,0,0,1,39,0Z" transform="translate(409.711 1681.626)" fill="#ffd839"/>
    <g id="Enmascarar_grupo_1098824" data-name="Enmascarar grupo 1098824" clip-path="url(#clip-path)">
      <g id="reloj" transform="translate(387.711 1671.626)">
        <g id="Grupo_1103347" data-name="Grupo 1103347">
          <g id="Grupo_1103343" data-name="Grupo 1103343">
            <path id="Trazado_986973" data-name="Trazado 986973" d="M34.728,115.473V60.94H39.44a7.431,7.431,0,0,0,6.436-11.147l-15.1-26.156a7.431,7.431,0,0,0-12.871,0L2.8,49.792A7.431,7.431,0,0,0,9.232,60.94h4.714v54.533a4.676,4.676,0,0,0,4.676,4.676H30.051A4.677,4.677,0,0,0,34.728,115.473Z" fill="#9dc6fb"/>
            <path id="Trazado_986974" data-name="Trazado 986974" d="M22.926,120.15h-4.3a4.675,4.675,0,0,1-4.675-4.675V60.939H9.232A7.43,7.43,0,0,1,2.8,49.792L17.9,23.636a7.361,7.361,0,0,1,6.436-3.713c-1.677,0-3.353,1.237-4.31,3.713L9.908,49.792c-1.918,4.955.478,11.147,4.31,11.147h1.937a3.636,3.636,0,0,1,3.636,3.636v50.9c0,2.583,1.4,4.677,3.134,4.677Z" fill="#698ed5"/>
          </g>
          <g id="Grupo_1103344" data-name="Grupo 1103344">
            <path id="Trazado_986975" data-name="Trazado 986975" d="M93.673,73.149V30.6h3.3a5.208,5.208,0,0,0,4.51-7.812L90.9,4.453a5.208,5.208,0,0,0-9.02,0L71.3,22.784a5.208,5.208,0,0,0,4.51,7.813h3.3V73.149a3.277,3.277,0,0,0,3.277,3.277H90.4a3.277,3.277,0,0,0,3.278-3.277Z" fill="#dd636e"/>
            <path id="Trazado_986976" data-name="Trazado 986976" d="M85.4,76.427H82.386a3.276,3.276,0,0,1-3.276-3.276V30.6H75.8A5.207,5.207,0,0,1,71.3,22.783L81.88,4.453a5.159,5.159,0,0,1,4.511-2.6c-1.175,0-2.35.867-3.021,2.6l-7.091,18.33c-1.344,3.473.335,7.812,3.021,7.812h1.358a2.548,2.548,0,0,1,2.548,2.548v40C83.206,74.959,84.189,76.427,85.4,76.427Z" fill="#cb5769"/>
          </g>
          <g id="Grupo_1103345" data-name="Grupo 1103345">
            <circle id="Elipse_11653" data-name="Elipse 11653" cx="40.08" cy="40.08" r="40.08" transform="translate(20.919 36.347)" fill="#f6e266"/>
            <path id="Trazado_986977" data-name="Trazado 986977" d="M63.572,116.427c-.851.052-1.709.081-2.573.081a40.08,40.08,0,1,1,0-80.161c.864,0,1.722.029,2.573.081a40.084,40.084,0,0,0,0,80Z" fill="#ffd064"/>
            <circle id="Elipse_11654" data-name="Elipse 11654" cx="30.633" cy="30.633" r="30.633" transform="translate(30.366 45.794)" fill="#d3effb"/>
            <path id="Trazado_986978" data-name="Trazado 986978" d="M66.352,106.616a30.634,30.634,0,1,1,0-60.378,30.638,30.638,0,0,0,0,60.378Z" fill="#9dc6fb"/>
            <path id="Trazado_986979" data-name="Trazado 986979" d="M61,80.33H46.767a3.9,3.9,0,1,1,0-7.8H61a3.9,3.9,0,0,1,0,7.8Z" fill="#365e7d"/>
            <path id="Trazado_986980" data-name="Trazado 986980" d="M61,80.33a3.9,3.9,0,0,1-3.9-3.9V66.463a3.9,3.9,0,0,1,7.8,0v9.964A3.9,3.9,0,0,1,61,80.33Z" fill="#2b4d66"/>
          </g>
          <g id="Grupo_1103346" data-name="Grupo 1103346">
            <path id="Trazado_986981" data-name="Trazado 986981" d="M108.055,115.473V98.243h4.712A7.431,7.431,0,0,0,119.2,87.1L104.1,60.94a7.431,7.431,0,0,0-12.871,0L76.124,87.1a7.431,7.431,0,0,0,6.435,11.148h4.714v17.23a4.676,4.676,0,0,0,4.676,4.676h11.428a4.676,4.676,0,0,0,4.676-4.676Z" fill="#95d6a4"/>
            <path id="Trazado_986982" data-name="Trazado 986982" d="M96.252,120.15h-4.3a4.675,4.675,0,0,1-4.675-4.675V98.242H82.559A7.43,7.43,0,0,1,76.125,87.1l15.1-26.155a7.362,7.362,0,0,1,6.436-3.713c-1.677,0-3.353,1.237-4.31,3.713L83.235,87.1c-1.918,4.955.478,11.147,4.31,11.147h1.937a3.636,3.636,0,0,1,3.636,3.636v13.594c0,2.583,1.4,4.677,3.134,4.677Z" fill="#78c2a4"/>
          </g>
        </g>
        <g id="Grupo_1103348" data-name="Grupo 1103348">
          <path id="Trazado_986983" data-name="Trazado 986983" d="M61,60.773a5.7,5.7,0,0,0-5.689,5.689v4.275H46.766a5.689,5.689,0,1,0,0,11.379H61a5.7,5.7,0,0,0,5.689-5.689V66.463A5.7,5.7,0,0,0,61,60.773ZM44.651,76.427a2.118,2.118,0,0,1,2.115-2.115H55.31v2.115a5.659,5.659,0,0,0,.409,2.115H46.766A2.118,2.118,0,0,1,44.651,76.427Zm18.464,0a2.115,2.115,0,0,1-4.231,0V66.463a2.115,2.115,0,0,1,4.231,0Z"/>
          <path id="Trazado_986984" data-name="Trazado 986984" d="M120.75,86.2l-15.1-26.156a9.125,9.125,0,0,0-7.983-4.609h0c-.143,0-.285.007-.427.014q-.837-1.444-1.777-2.8V32.383h1.515a7,7,0,0,0,6.058-10.494L98.595,14.2A1.787,1.787,0,1,0,95.5,15.991l4.439,7.686a3.422,3.422,0,0,1-2.963,5.132h-3.3A1.787,1.787,0,0,0,91.886,30.6V48.162A41.868,41.868,0,0,0,80.9,39.59V30.6a1.787,1.787,0,0,0-1.787-1.787h-3.3a3.421,3.421,0,0,1-2.963-5.132L83.429,5.347a3.42,3.42,0,0,1,5.924,0L91.926,9.8A1.787,1.787,0,1,0,95.02,8.012L92.448,3.56a6.993,6.993,0,0,0-12.114,0L69.748,21.89a6.995,6.995,0,0,0,6.058,10.494h1.515v5.488a41.848,41.848,0,0,0-35.49,1.343l-9.51-16.471a9.126,9.126,0,0,0-7.984-4.608h0a9.123,9.123,0,0,0-7.981,4.609L1.25,48.9A9.219,9.219,0,0,0,9.233,62.727h2.926v52.745a6.472,6.472,0,0,0,6.464,6.464H30.051a6.472,6.472,0,0,0,6.464-6.464v-5.079a41.879,41.879,0,0,0,48.971-.007v5.087a6.471,6.471,0,0,0,6.464,6.464h11.428a6.471,6.471,0,0,0,6.464-6.464V100.03h2.925A9.219,9.219,0,0,0,120.75,86.2ZM61,114.72a38.2,38.2,0,0,1-29.517-13.9,1.787,1.787,0,0,0-2.754,2.278,42.266,42.266,0,0,0,4.212,4.4v7.972a2.894,2.894,0,0,1-2.89,2.89H18.624a2.894,2.894,0,0,1-2.89-2.89V60.94a1.787,1.787,0,0,0-1.787-1.787H9.234a5.645,5.645,0,0,1-4.888-8.468l15.1-26.155a5.586,5.586,0,0,1,4.886-2.822h0a5.589,5.589,0,0,1,4.889,2.822l9.5,16.461A41.861,41.861,0,0,0,24.5,96.957,1.787,1.787,0,0,0,27.617,95.2a38.3,38.3,0,0,1,66-38.842,9.165,9.165,0,0,0-3.934,3.686l-.352.609a32.428,32.428,0,1,0-6.108,39.375h2.265v5.835A38.271,38.271,0,0,1,61,114.72Zm13.576-19.3A9.154,9.154,0,0,0,78.71,99.2q-.861.673-1.764,1.275L75.924,98.7a1.787,1.787,0,0,0-3.1,1.787l1.025,1.775a28.646,28.646,0,0,1-11.068,2.952v-4.637a1.787,1.787,0,1,0-3.574,0v4.636a28.63,28.63,0,0,1-11.059-2.967l1.016-1.759a1.787,1.787,0,1,0-3.1-1.787l-1.013,1.755a29.084,29.084,0,0,1-8.093-8.093l1.754-1.013a1.787,1.787,0,1,0-1.787-3.1l-1.759,1.016a28.633,28.633,0,0,1-2.966-11.059h4.636a1.787,1.787,0,0,0,0-3.574H32.209a28.634,28.634,0,0,1,2.966-11.059L36.935,64.6a1.787,1.787,0,1,0,1.787-3.1L36.968,60.49A29.079,29.079,0,0,1,45.061,52.4l1.013,1.755a1.787,1.787,0,1,0,3.1-1.787L48.153,50.6a28.638,28.638,0,0,1,11.059-2.967v4.636a1.787,1.787,0,0,0,3.574,0V47.64A28.8,28.8,0,0,1,73.85,50.6l-1.021,1.767a1.787,1.787,0,1,0,3.1,1.787l1.023-1.772a28.8,28.8,0,0,1,8.1,8.1L83.276,61.5a1.787,1.787,0,1,0,1.787,3.1l1.764-1.019c.126.254.25.509.37.768L74.576,86.2a9.125,9.125,0,0,0,0,9.219Zm43.079-1.787a5.587,5.587,0,0,1-4.888,2.822h-4.712a1.787,1.787,0,0,0-1.787,1.787v17.23a2.893,2.893,0,0,1-2.889,2.889H91.95a2.893,2.893,0,0,1-2.889-2.889V98.243a1.787,1.787,0,0,0-1.787-1.787H82.559a5.645,5.645,0,0,1-4.888-8.467l15.1-26.156a5.645,5.645,0,0,1,9.776,0l15.1,26.156a5.586,5.586,0,0,1,0,5.644Z"/>
        </g>
      </g>
    </g>
    <path id="Trazado_952692" data-name="Trazado 952692" d="M33.294,147.506s-.337,8.3-6.974,9.087c0,0,7.122,2.127,7.909,9.111,0,0,1.781-8.464,6.568-9.158,0,0-5.55-1.11-7.5-9.04" transform="translate(356.77 1534.12)" fill="#6b0b0c"/>
    <path id="Trazado_952694" data-name="Trazado 952694" d="M74.547,81.707s-.513,12.647-10.629,13.849c0,0,10.856,3.243,12.054,13.887,0,0,2.714-12.9,10.01-13.957,0,0-8.459-1.691-11.435-13.778" transform="translate(426.914 1618.117)" fill="#6b0b0c"/>
  </g>
</svg>
