<svg xmlns="http://www.w3.org/2000/svg" xmlns:xlink="http://www.w3.org/1999/xlink" width="122" height="135.867" viewBox="0 0 122 135.867">
  <defs>
    <clipPath id="clip-path">
      <rect id="Rect치ngulo_403288" data-name="Rect치ngulo 403288" width="122" height="122" transform="translate(387.711 1671.626)" fill="#fff" stroke="#707070" stroke-width="1"/>
    </clipPath>
  </defs>
  <g id="Grupo_1103337" data-name="Grupo 1103337" transform="translate(-387.711 -1671.626)">
    <path id="Rect치ngulo_403287" data-name="Rect치ngulo 403287" d="M39,0h0A39,39,0,0,1,78,39v73a0,0,0,0,1,0,0H0a0,0,0,0,1,0,0V39A39,39,0,0,1,39,0Z" transform="translate(409.711 1681.626)" fill="#ffd839"/>
    <g id="Enmascarar_grupo_1098828" data-name="Enmascarar grupo 1098828" clip-path="url(#clip-path)">
      <g id="evaluacion" transform="translate(385.988 1669.903)">
        <g id="Grupo_1103357" data-name="Grupo 1103357">
          <g id="Grupo_1103354" data-name="Grupo 1103354">
            <path id="Trazado_987050" data-name="Trazado 987050" d="M75.795,12.292a4.525,4.525,0,0,1,4.515,4.516v83.1a4.526,4.526,0,0,1-4.515,4.521H6.238a4.526,4.526,0,0,1-4.515-4.521v-83.1a4.524,4.524,0,0,1,4.515-4.516Z" fill="#837683" fill-rule="evenodd"/>
            <path id="Trazado_987051" data-name="Trazado 987051" d="M69.965,104.432h5.83a4.526,4.526,0,0,0,4.515-4.521v-83.1a4.525,4.525,0,0,0-4.515-4.516h-5.83Z" fill="#685e68" fill-rule="evenodd"/>
            <path id="Trazado_987052" data-name="Trazado 987052" d="M71.993,18.575H10.039A2.037,2.037,0,0,0,8,20.609V96.115a2.032,2.032,0,0,0,2.034,2.029H71.993a2.036,2.036,0,0,0,2.034-2.029V20.609a2.041,2.041,0,0,0-2.034-2.035Z" fill="#eceff1" fill-rule="evenodd"/>
            <path id="Trazado_987053" data-name="Trazado 987053" d="M69.965,98.144h2.029c.065,0,.131,0,.19-.006a2.04,2.04,0,0,0,1.844-2.023V20.609a2.036,2.036,0,0,0-1.844-2.023c-.06-.006-.125-.012-.19-.012H69.965Z" fill="#d1d1d6" fill-rule="evenodd"/>
            <path id="Trazado_987054" data-name="Trazado 987054" d="M25.656,9.562H32.1a1.989,1.989,0,0,0,1.862-1.225,7.68,7.68,0,0,1,14.111,0,1.989,1.989,0,0,0,1.862,1.225h6.437A2.041,2.041,0,0,1,58.405,11.6v7.68a2.036,2.036,0,0,1-2.034,2.029H25.656a2.031,2.031,0,0,1-2.029-2.029V11.6a2.036,2.036,0,0,1,2.029-2.035Z" fill="#e3a76f" fill-rule="evenodd"/>
            <path id="Trazado_987055" data-name="Trazado 987055" d="M54.342,19.277H23.627a2.031,2.031,0,0,0,2.029,2.029H56.371a2.036,2.036,0,0,0,2.034-2.029V11.6a2.041,2.041,0,0,0-2.034-2.035v7.68a2.04,2.04,0,0,1-2.029,2.035Z" fill="#c48958" fill-rule="evenodd"/>
            <path id="Trazado_987056" data-name="Trazado 987056" d="M18.177,74.736H29.548a1.487,1.487,0,0,1,1.484,1.484V87.592a1.487,1.487,0,0,1-1.484,1.484H18.177a1.487,1.487,0,0,1-1.484-1.484V76.22a1.487,1.487,0,0,1,1.484-1.484Z" fill="#ffe177" fill-rule="evenodd"/>
            <path id="Trazado_987057" data-name="Trazado 987057" d="M28.245,74.736h1.3a1.487,1.487,0,0,1,1.484,1.484V87.592a1.487,1.487,0,0,1-1.484,1.484h-1.3a1.487,1.487,0,0,0,1.484-1.484V76.22A1.487,1.487,0,0,0,28.245,74.736Z" fill="#ffd064" fill-rule="evenodd"/>
            <path id="Trazado_987058" data-name="Trazado 987058" d="M18.177,51.725H29.548a1.487,1.487,0,0,1,1.484,1.484V64.581a1.493,1.493,0,0,1-1.484,1.491H18.177a1.493,1.493,0,0,1-1.484-1.491V53.209a1.487,1.487,0,0,1,1.484-1.484Z" fill="#8ac9fe" fill-rule="evenodd"/>
            <path id="Trazado_987059" data-name="Trazado 987059" d="M28.425,51.725h1.124a1.487,1.487,0,0,1,1.484,1.484V64.581a1.493,1.493,0,0,1-1.484,1.491H28.425a1.493,1.493,0,0,0,1.484-1.491V53.209A1.487,1.487,0,0,0,28.425,51.725Z" fill="#60b7ff" fill-rule="evenodd"/>
          </g>
          <g id="Grupo_1103355" data-name="Grupo 1103355">
            <path id="Trazado_987060" data-name="Trazado 987060" d="M26.284,27.6a1.049,1.049,0,0,1,2,0l1.6,4.91h5.162a1.05,1.05,0,0,1,.617,1.9l-4.177,3.034,1.6,4.91a1.049,1.049,0,0,1-1.615,1.173l-4.176-3.034-4.177,3.034a1.049,1.049,0,0,1-1.615-1.173l1.6-4.91-4.176-3.034a1.049,1.049,0,0,1,.617-1.9h5.162Zm27.469,0a1.049,1.049,0,0,1,2,0l1.6,4.91h5.162a1.049,1.049,0,0,1,.617,1.9l-4.176,3.034,1.6,4.91a1.049,1.049,0,0,1-1.615,1.173l-4.176-3.034-4.176,3.034A1.049,1.049,0,0,1,48.96,42.35l1.6-4.91-4.176-3.034a1.049,1.049,0,0,1,.617-1.9h5.162Z" fill="#ffe177" fill-rule="evenodd"/>
            <path id="Trazado_987061" data-name="Trazado 987061" d="M26.92,26.937a1.049,1.049,0,0,1,1.359.661l1.6,4.91h-.723l-1.6-4.91a1.049,1.049,0,0,0-.636-.661Zm7.394,5.57h.723a1.05,1.05,0,0,1,.617,1.9l-4.177,3.034,1.6,4.91a1.049,1.049,0,0,1-1.359,1.31,1.05,1.05,0,0,0,.636-1.31l-1.6-4.91,4.177-3.034a1.049,1.049,0,0,0-.617-1.9Zm-7.032,7.981-4.177,3.034a1.05,1.05,0,0,1-.978.136,1.051,1.051,0,0,0,.255-.136l4.538-3.3ZM54.389,26.937a1.049,1.049,0,0,1,1.359.661l1.6,4.91h-.723l-1.6-4.91a1.049,1.049,0,0,0-.636-.661Zm7.394,5.57h.723a1.049,1.049,0,0,1,.617,1.9l-4.176,3.034,1.6,4.91a1.049,1.049,0,0,1-1.359,1.31,1.05,1.05,0,0,0,.636-1.31l-1.6-4.91L62.4,34.406a1.049,1.049,0,0,0-.617-1.9Zm-7.032,7.981-4.176,3.034a1.05,1.05,0,0,1-.978.136,1.052,1.052,0,0,0,.255-.136l4.538-3.3Z" fill="#ffd064" fill-rule="evenodd"/>
          </g>
          <g id="Grupo_1103356" data-name="Grupo 1103356">
            <path id="Trazado_987062" data-name="Trazado 987062" d="M96.341,95.028a21.324,21.324,0,0,1-3.615,3.984l9.834,9.641,3.744-3.859Z" fill="#a79ba7" fill-rule="evenodd"/>
            <path id="Trazado_987063" data-name="Trazado 987063" d="M96.409,94.964A2.473,2.473,0,0,1,95.336,96.4l9.769,9.708,1.2-1.312Z" fill="#837683" fill-rule="evenodd"/>
            <path id="Trazado_987064" data-name="Trazado 987064" d="M115.015,121.17l4.225-4.358a1.944,1.944,0,0,0-.04-2.74l-11.706-11.358a1.944,1.944,0,0,0-2.74.043l-4.225,4.354a1.944,1.944,0,0,0,.039,2.74l11.706,11.358a1.944,1.944,0,0,0,2.74-.04Z" fill="#f1ba84" fill-rule="evenodd"/>
            <path id="Trazado_987065" data-name="Trazado 987065" d="M105.762,102.714l11.706,11.358a1.944,1.944,0,0,1,.039,2.74l-4.225,4.358a1.972,1.972,0,0,1-.524.38,1.946,1.946,0,0,0,2.256-.38l4.225-4.358a1.944,1.944,0,0,0-.04-2.74l-11.706-11.358a1.949,1.949,0,0,0-2.216-.341,1.931,1.931,0,0,1,.484.341Z" fill="#e3a76f" fill-rule="evenodd"/>
            <path id="Trazado_987066" data-name="Trazado 987066" d="M80.37,62.987A21.314,21.314,0,1,1,59.056,84.3,21.313,21.313,0,0,1,80.37,62.987Z" fill="#8ac9fe" fill-rule="evenodd"/>
            <path id="Trazado_987067" data-name="Trazado 987067" d="M80.37,62.987a21.314,21.314,0,1,1,0,42.629c-.348,0-.692-.011-1.037-.025a21.314,21.314,0,0,0,0-42.579C79.678,62.994,80.022,62.987,80.37,62.987Z" fill="#60b7ff" fill-rule="evenodd"/>
            <path id="Trazado_987068" data-name="Trazado 987068" d="M80.37,69.321A14.98,14.98,0,1,1,65.39,84.3,14.981,14.981,0,0,1,80.37,69.321Z" fill="#eceff1" fill-rule="evenodd"/>
            <path id="Trazado_987069" data-name="Trazado 987069" d="M80.37,69.321c.34,0,.676.01,1.013.033a14.98,14.98,0,0,0,0,29.891c-.336.023-.673.036-1.013.036a14.98,14.98,0,0,1,0-29.959Z" fill="#d1d1d6" fill-rule="evenodd"/>
          </g>
        </g>
        <path id="Trazado_987070" data-name="Trazado 987070" d="M75,106.4H8.211a6.507,6.507,0,0,1-6.489-6.489V16.808a6.5,6.5,0,0,1,6.489-6.482H23.628v-.76A1.968,1.968,0,0,1,25.6,7.6h8.514a9.644,9.644,0,0,1,17.754,0h8.514a1.968,1.968,0,0,1,1.968,1.968v.76H77.761a6.5,6.5,0,0,1,6.489,6.482V61.1a23.289,23.289,0,0,1,18.083,35.139l4.365,4.238a3.927,3.927,0,0,1,4.137.83h0l11.7,11.359a3.912,3.912,0,0,1,.081,5.523h0L118.4,122.54l0,0a3.919,3.919,0,0,1-5.515.091l-.007-.007-11.7-11.358a3.911,3.911,0,0,1-.964-4.112l-4.159-4.036A23.332,23.332,0,0,1,75,106.4ZM23.628,14.261H8.211a2.556,2.556,0,0,0-2.553,2.547V99.914a2.56,2.56,0,0,0,2.553,2.553H67.774a23.432,23.432,0,0,1-2.523-2.352H9.977A1.968,1.968,0,0,1,8.01,98.148V18.58a1.968,1.968,0,0,1,1.968-1.968h13.65Zm38.717,0v2.351H76a1.968,1.968,0,0,1,1.968,1.968V61.431a23.311,23.311,0,0,1,2.352-.324v-44.3a2.556,2.556,0,0,0-2.553-2.547Zm0,6.287v.76a1.968,1.968,0,0,1-1.968,1.968H25.6a1.968,1.968,0,0,1-1.968-1.968v-.76H11.945V96.18H62.31a23.131,23.131,0,0,1-2.966-8.212H42.066a1.968,1.968,0,0,1,0-3.936H59.059a23.386,23.386,0,0,1,.437-4.248H42.066a1.968,1.968,0,0,1,0-3.936H60.639a23.352,23.352,0,0,1,13.388-13.3v-42Zm37.663,78.916q-.47.548-.974,1.065l3.664,3.555,1-1.034ZM82.339,64.956A19.346,19.346,0,1,0,101.685,84.3,19.345,19.345,0,0,0,82.339,64.956Zm0,2.394A16.953,16.953,0,1,1,65.386,84.3,16.952,16.952,0,0,1,82.339,67.35Zm0,3.936A13.017,13.017,0,1,0,95.356,84.3,13.017,13.017,0,0,0,82.339,71.285Zm-7.7,14.408a1.968,1.968,0,0,1,2.783-2.783l2.246,2.246,7.546-7.546A1.968,1.968,0,1,1,90,80.394l-8.937,8.937a1.968,1.968,0,0,1-2.783,0ZM27.563,11.533V19.34H58.409V11.533H50.448a1.968,1.968,0,0,1-1.913-1.507,5.709,5.709,0,0,0-11.1,0,1.967,1.967,0,0,1-1.913,1.507Zm15.423.485A2.03,2.03,0,1,1,45.02,9.985,2.038,2.038,0,0,1,42.986,12.018Zm60.948,96.443,11.657,11.318,4.186-4.312-11.66-11.315ZM26.382,26.992a3.017,3.017,0,0,1,5.739,0l1.154,3.55h3.733A3.017,3.017,0,0,1,38.781,36l-3.02,2.194,1.153,3.55a3.017,3.017,0,0,1-4.643,3.373l-3.02-2.194-3.02,2.194a3.017,3.017,0,0,1-4.643-3.373l1.153-3.55L19.723,36A3.017,3.017,0,0,1,21.5,30.542h3.733Zm-2.06,7.485,1.89,1.373a1.968,1.968,0,0,1,.715,2.2l-.722,2.221L28.1,38.9a1.967,1.967,0,0,1,2.313,0l1.89,1.373-.722-2.221a1.968,1.968,0,0,1,.715-2.2l1.89-1.373H31.845a1.968,1.968,0,0,1-1.871-1.36L29.252,30.9l-.722,2.221a1.968,1.968,0,0,1-1.871,1.36Zm29.529-7.485a3.017,3.017,0,0,1,5.739,0l1.153,3.55h3.733A3.017,3.017,0,0,1,66.25,36l-3.02,2.194,1.154,3.55a3.017,3.017,0,0,1-4.643,3.373l-3.02-2.194L53.7,45.117a3.017,3.017,0,0,1-4.643-3.373l1.154-3.55L47.192,36a3.017,3.017,0,0,1,1.773-5.458H52.7Zm-2.06,7.485,1.89,1.373a1.968,1.968,0,0,1,.715,2.2l-.722,2.221,1.89-1.373a1.967,1.967,0,0,1,2.313,0l1.89,1.373-.722-2.221a1.968,1.968,0,0,1,.715-2.2l1.89-1.373H59.314a1.968,1.968,0,0,1-1.872-1.36L56.721,30.9,56,33.118a1.968,1.968,0,0,1-1.872,1.36ZM20.147,72.77H31.518a3.458,3.458,0,0,1,3.452,3.452V87.594a3.458,3.458,0,0,1-3.452,3.452H20.147a3.458,3.458,0,0,1-3.452-3.452V76.222A3.458,3.458,0,0,1,20.147,72.77Zm.484,3.936v10.4h10.4v-10.4Zm5.2,2.419.791-.791a1.968,1.968,0,1,1,2.783,2.783l-.791.791.791.791a1.968,1.968,0,1,1-2.783,2.783l-.791-.791-.791.791A1.968,1.968,0,0,1,22.259,82.7l.791-.791-.791-.791a1.968,1.968,0,0,1,2.783-2.783ZM42.066,64.956a1.968,1.968,0,0,1,0-3.936H67.31a1.968,1.968,0,0,1,0,3.936Zm-21.919-15.2H31.518a3.458,3.458,0,0,1,3.452,3.452V64.582a3.467,3.467,0,0,1-3.452,3.459H20.147a3.467,3.467,0,0,1-3.452-3.459V53.211A3.458,3.458,0,0,1,20.147,49.759Zm.484,3.936V64.106h10.4V53.694Zm.784,6.3A1.968,1.968,0,1,1,24.2,57.213l.948.948,2.184-2.7a1.968,1.968,0,1,1,3.059,2.476l-3.559,4.4a1.968,1.968,0,0,1-2.921.153Zm20.651-3.223a1.968,1.968,0,0,1,0-3.936H67.31a1.968,1.968,0,0,1,0,3.936Z" fill-rule="evenodd"/>
      </g>
    </g>
    <path id="Trazado_952692" data-name="Trazado 952692" d="M33.294,147.506s-.337,8.3-6.974,9.087c0,0,7.122,2.127,7.909,9.111,0,0,1.781-8.464,6.568-9.158,0,0-5.55-1.11-7.5-9.04" transform="translate(452.512 1539.529)" fill="#6b0b0c"/>
    <path id="Trazado_952694" data-name="Trazado 952694" d="M74.547,81.707s-.513,12.647-10.629,13.849c0,0,10.856,3.243,12.054,13.887,0,0,2.714-12.9,10.01-13.957,0,0-8.459-1.691-11.435-13.778" transform="translate(334.761 1698.051)" fill="#6b0b0c"/>
  </g>
</svg>
