<svg xmlns="http://www.w3.org/2000/svg" width="49" height="48" viewBox="0 0 49 48">
  <g id="Grupo_1103406" data-name="Grupo 1103406" transform="translate(-833.711 -3235.678)">
    <rect id="Rectángulo_4788" data-name="Rectángulo 4788" width="49" height="48" transform="translate(833.711 3235.678)" fill="#006df0"/>
    <path id="file-video-solid" d="M3.237,0A3.24,3.24,0,0,0,0,3.237V22.662A3.24,3.24,0,0,0,3.237,25.9H16.187a3.24,3.24,0,0,0,3.237-3.237V8.093H12.949a1.617,1.617,0,0,1-1.619-1.619V0Zm9.712,0V6.475h6.475ZM3.237,14.568a1.617,1.617,0,0,1,1.619-1.619H9.712a1.617,1.617,0,0,1,1.619,1.619v4.856a1.617,1.617,0,0,1-1.619,1.619H4.856a1.617,1.617,0,0,1-1.619-1.619Zm11.983,5.559-2.271-1.512V15.377l2.271-1.512a.641.641,0,0,1,.344-.106.622.622,0,0,1,.622.622v5.23a.622.622,0,0,1-.622.622A.6.6,0,0,1,15.221,20.127Z" transform="translate(848.499 3246.989)" fill="#fff"/>
  </g>
</svg>
